<svg xmlns="http://www.w3.org/2000/svg" width="38" height="38" viewBox="0 0 38 38">
  <g id="グループ_67226" data-name="グループ 67226" transform="translate(-52.25 -420.273)">
    <path id="パス_2263" data-name="パス 2263" d="M10,0H28A9.874,9.874,0,0,1,38,9.744V28.256A9.874,9.874,0,0,1,28,38H10A9.874,9.874,0,0,1,0,28.256V9.744A9.874,9.874,0,0,1,10,0Z" transform="translate(52.25 420.273)" fill="#e74044"/>
    <g id="avalanche-avax-logo" transform="translate(54.25 422.273)">
      <circle id="楕円形_12" data-name="楕円形 12" cx="17" cy="17" r="17" fill="#e84142"/>
      <path id="パス_2206" data-name="パス 2206" d="M55.065,45.159a1.124,1.124,0,0,1,2.129,0L60.861,51.6c.589,1.017.107,1.847-1.071,1.847H52.4c-1.165,0-1.647-.83-1.071-1.847Zm-7.1-12.4a1.114,1.114,0,0,1,2.115,0l.817,1.473,1.928,3.387a3.519,3.519,0,0,1,0,3.066l-6.466,11.2a3.4,3.4,0,0,1-2.651,1.553H38.344c-1.178,0-1.66-.817-1.071-1.847Z" transform="translate(-32.066 -27.719)" fill="#fff"/>
    </g>
  </g>
</svg>
