<svg xmlns="http://www.w3.org/2000/svg" width="38" height="39" viewBox="0 0 38 39">
  <g id="グループ_67228" data-name="グループ 67228" transform="translate(-51 -343.437)">
    <path id="パス_1821" data-name="パス 1821" d="M10,0H28A10,10,0,0,1,38,10V29A10,10,0,0,1,28,39H10A10,10,0,0,1,0,29V10A10,10,0,0,1,10,0Z" transform="translate(51 343.437)" fill="#2e2e2e"/>
    <path id="パス_1819" data-name="パス 1819" d="M7.923,10.888l5.032-5.032,5.034,5.034,2.928-2.928L12.955,0,5,7.96l2.928,2.928M0,12.955l2.928-2.928,2.928,2.928L2.928,15.882Zm7.923,2.068,5.032,5.032,5.034-5.034,2.929,2.926v0L12.955,25.91,5,17.951l0,0,2.932-2.924m12.131-2.066,2.928-2.928,2.928,2.928-2.928,2.928Z" transform="translate(57 350.437)" fill="#f3ba2f"/>
    <path id="パス_1820" data-name="パス 1820" d="M969.132,966.161h0l-2.971-2.971-2.2,2.2h0l-.252.252-.52.52,0,0,0,0,2.968,2.969,2.971-2.971v0h0" transform="translate(-896.207 -602.77)" fill="#f3ba2f"/>
  </g>
</svg>
