<svg xmlns="http://www.w3.org/2000/svg" width="38" height="38" viewBox="0 0 38 38">
  <g id="グループ_67227" data-name="グループ 67227" transform="translate(-51 -495.296)">
    <path id="パス_2262" data-name="パス 2262" d="M10,0H28A9.874,9.874,0,0,1,38,9.744V28.256A9.874,9.874,0,0,1,28,38H10A9.874,9.874,0,0,1,0,28.256V9.744A9.874,9.874,0,0,1,10,0Z" transform="translate(51 495.296)" fill="#8247e5"/>
    <g id="polygon-matic-logo_2_" data-name="polygon-matic-logo (2)" transform="translate(58 503.296)">
      <path id="パス_2193" data-name="パス 2193" d="M18.3,6.4a1.607,1.607,0,0,0-1.514,0L13.248,8.48,10.851,9.8l-3.47,2.082a1.607,1.607,0,0,1-1.514,0l-2.713-1.64A1.538,1.538,0,0,1,2.4,8.921V5.767a1.556,1.556,0,0,1,.757-1.325L5.867,2.865a1.607,1.607,0,0,1,1.514,0l2.713,1.64a1.538,1.538,0,0,1,.757,1.325V7.912l2.4-1.388V4.379a1.556,1.556,0,0,0-.757-1.325L7.444.089a1.607,1.607,0,0,0-1.514,0L.757,3.117A1.388,1.388,0,0,0,0,4.379v5.93a1.556,1.556,0,0,0,.757,1.325L5.867,14.6a1.607,1.607,0,0,0,1.514,0l3.47-2.019,2.4-1.388,3.47-2.019a1.607,1.607,0,0,1,1.514,0l2.713,1.577a1.538,1.538,0,0,1,.757,1.325V15.23a1.556,1.556,0,0,1-.757,1.325L18.3,18.132a1.607,1.607,0,0,1-1.514,0l-2.713-1.577a1.538,1.538,0,0,1-.757-1.325V13.211l-2.4,1.388v2.082a1.556,1.556,0,0,0,.757,1.325l5.11,2.965a1.607,1.607,0,0,0,1.514,0l5.11-2.965a1.538,1.538,0,0,0,.757-1.325V10.688a1.556,1.556,0,0,0-.757-1.325Z" transform="translate(0 0.1)" fill="#fff"/>
    </g>
  </g>
</svg>
