<svg id="グループ_68913" data-name="グループ 68913" xmlns="http://www.w3.org/2000/svg" width="21.392" height="21.393" viewBox="0 0 21.392 21.393">
  <path id="パス_59322" data-name="パス 59322" d="M14.278,13.557a4.278,4.278,0,1,1,4.278-4.278,4.278,4.278,0,0,1-4.278,4.278Zm0-7.13A2.852,2.852,0,1,0,17.13,9.278,2.852,2.852,0,0,0,14.278,6.426Z" transform="translate(-3.574 -2.147)" fill="#fff"/>
  <path id="パス_59323" data-name="パス 59323" d="M12.525,27.488a10.7,10.7,0,0,1-8.264-3.915l-.371-.456.371-.449a10.7,10.7,0,0,1,16.528,0l.371.449-.371.456A10.7,10.7,0,0,1,12.525,27.488ZM5.758,23.124a9.27,9.27,0,0,0,13.548,0,9.27,9.27,0,0,0-13.548,0Z" transform="translate(-1.822 -6.096)" fill="#fff"/>
  <path id="パス_59324" data-name="パス 59324" d="M11.692,22.391a10.7,10.7,0,1,1,8.264-3.915A10.7,10.7,0,0,1,11.692,22.391Zm0-19.965a9.27,9.27,0,1,0,9.27,9.27,9.27,9.27,0,0,0-9.27-9.27Z" transform="translate(-0.989 -0.999)" fill="#fff"/>
</svg>
