<svg xmlns="http://www.w3.org/2000/svg" width="64" height="64" viewBox="0 0 64 64">
  <g id="グループ_5037" data-name="グループ 5037" transform="translate(-4637 -591)">
    <rect id="長方形_2334" data-name="長方形 2334" width="64" height="64" transform="translate(4637 591)" fill="#0b0414"/>
    <g id="Layer_1" data-name="Layer 1" transform="translate(4647.709 602)">
      <path id="パス_1819" data-name="パス 1819" d="M13.327,18.314,21.791,9.85l8.468,8.468,4.925-4.925L21.791,0,8.4,13.388l4.925,4.925M0,21.791l4.925-4.926L9.85,21.79,4.925,26.715Zm13.327,3.478,8.464,8.463,8.468-8.467,4.927,4.922,0,0L21.791,43.582,8.4,30.194,8.4,30.187l4.932-4.918m20.4-3.475,4.925-4.925,4.925,4.925-4.925,4.925Z" fill="#f3ba2f"/>
      <path id="パス_1820" data-name="パス 1820" d="M973.185,968.187h0l-5-5-3.694,3.693h0l-.424.424-.875.875-.007.007.007.007,4.993,4.994,5-5,0,0,0,0" transform="translate(-946.399 -946.399)" fill="#f3ba2f"/>
    </g>
  </g>
</svg>
