<svg xmlns="http://www.w3.org/2000/svg" width="22.841" height="20.557" viewBox="0 0 22.841 20.557">
  <path id="scan_1_" data-name="scan (1)" d="M3.142,4.142v5.71H5.426V5.284H9.994V3H4.284A1.142,1.142,0,0,0,3.142,4.142ZM23.7,9.852V4.142A1.142,1.142,0,0,0,22.557,3h-5.71V5.284h4.568V9.852ZM21.415,21.273H16.847v2.284h5.71A1.142,1.142,0,0,0,23.7,22.415V16.7H21.415ZM9.994,23.557V21.273H5.426V16.7H3.142v5.71a1.142,1.142,0,0,0,1.142,1.142ZM2,12.136H24.841v2.284H2Z" transform="translate(-2 -3)" fill="#292536"/>
</svg>
