<svg xmlns="http://www.w3.org/2000/svg" width="55.866" height="68.341" viewBox="0 0 55.866 68.341">
  <g id="cashback" transform="translate(-8.553 -2.65)">
    <g id="Group_69185" data-name="Group 69185" transform="translate(8.553 2.651)">
      <path id="Path_59611" data-name="Path 59611" d="M195.659,119.434a4.228,4.228,0,0,1-5.248-2.864l-3.963-13.481,8.112-2.384,3.963,13.481A4.228,4.228,0,0,1,195.659,119.434Z" transform="translate(-165.062 -88.245)" fill="#edb27e"/>
      <path id="Path_59612" data-name="Path 59612" d="M246.8,184.466h-9.2l-3.23-11.265a6.146,6.146,0,0,1,5.908-7.84h3.843a6.146,6.146,0,0,1,5.908,7.84Z" transform="translate(-206.267 -144.118)" fill="#ce6a52"/>
      <path id="Path_59613" data-name="Path 59613" d="M239.352,173.2l1.176,11.264H237.6L234.373,173.2a6.146,6.146,0,0,1,5.907-7.84H241.5C240.015,165.358,238.941,169.271,239.352,173.2Z" transform="translate(-206.266 -144.114)" fill="#c1593d"/>
      <path id="Path_59614" data-name="Path 59614" d="M267.411,93.566a4.228,4.228,0,0,1-5.49-2.369l-5.977-15.054,7.859-3.12,5.977,15.054a4.228,4.228,0,0,1-2.369,5.489Z" transform="translate(-225.115 -64.324)" fill="#fdd1a2"/>
      <path id="Path_59615" data-name="Path 59615" d="M297.332,93.559a4.227,4.227,0,0,1-1.709.3,4.23,4.23,0,0,0,.923-4.533l-5.978-15.055,3.154-1.252L299.7,88.071a4.226,4.226,0,0,1-2.369,5.488Z" transform="translate(-255.036 -64.318)" fill="#edb27e"/>
      <path id="Path_59616" data-name="Path 59616" d="M295.483,78.416a4.228,4.228,0,0,1-5.979,0L278.051,66.963l5.979-5.979,11.453,11.453A4.228,4.228,0,0,1,295.483,78.416Z" transform="translate(-244.219 -53.921)" fill="#fdd1a2"/>
      <path id="Path_59617" data-name="Path 59617" d="M318.244,78.41a4.227,4.227,0,0,1-1.451.95,4.229,4.229,0,0,0-.949-4.528L304.391,63.379l2.4-2.4,11.454,11.454A4.226,4.226,0,0,1,318.244,78.41Z" transform="translate(-266.98 -53.917)" fill="#edb27e"/>
      <path id="Path_59618" data-name="Path 59618" d="M295.089,55.188a4.228,4.228,0,0,1-5.263,2.838L274.31,53.381l-1.833-5.729,4.258-2.371,15.517,4.645A4.228,4.228,0,0,1,295.089,55.188Z" transform="translate(-239.401 -40.352)" fill="#fdd1a2"/>
      <path id="Path_59619" data-name="Path 59619" d="M315.976,55.185a4.225,4.225,0,0,1-.826,1.525,4.229,4.229,0,0,0-2.984-3.535L296.648,48.53l.973-3.251,15.518,4.645A4.226,4.226,0,0,1,315.976,55.185Z" transform="translate(-260.289 -40.35)" fill="#edb27e"/>
      <path id="Path_59620" data-name="Path 59620" d="M82.329,13.228A4.226,4.226,0,0,1,78.1,17.456H63.233a17.389,17.389,0,0,1,2.5,9H60.25a6.446,6.446,0,0,1-1.082,1.428A6.543,6.543,0,0,1,48.83,26.455H29.04A34.86,34.86,0,0,1,50.7,9H78.1A4.228,4.228,0,0,1,82.329,13.228Z" transform="translate(-29.04 -9)" fill="#fdd1a2"/>
      <path id="Path_59621" data-name="Path 59621" d="M169.382,13.228a4.228,4.228,0,0,1-.333,1.647,4.228,4.228,0,0,0-3.9-2.581H129.78A34.479,34.479,0,0,1,137.757,9h27.4a4.228,4.228,0,0,1,4.228,4.228Z" transform="translate(-116.093 -9)" fill="#edb27e"/>
      <path id="Path_59622" data-name="Path 59622" d="M182.495,284.247h9.994L202.876,301.6a8.98,8.98,0,0,1-7.7,13.592h-15.36a8.979,8.979,0,0,1-7.7-13.592Z" transform="translate(-151.555 -246.85)" fill="#ce6a52"/>
      <g id="Group_69182" data-name="Group 69182" transform="translate(19.263 32.187)">
        <path id="Path_59623" data-name="Path 59623" d="M286.577,245.9A1.1,1.1,0,0,0,285.482,247v4.48h2.189V247A1.1,1.1,0,0,0,286.577,245.9Z" transform="translate(-269.903 -245.902)" fill="#c1593d"/>
        <path id="Path_59624" data-name="Path 59624" d="M308.958,250.583a1.1,1.1,0,0,0-1.406.648l-1.55,4.2,2.054.757,1.55-4.2a1.094,1.094,0,0,0-.648-1.406Z" transform="translate(-287.635 -249.888)" fill="#c1593d"/>
        <path id="Path_59625" data-name="Path 59625" d="M286.577,293.718a1.1,1.1,0,0,1-1.095-1.095v-4.48h2.189v4.48A1.094,1.094,0,0,1,286.577,293.718Z" transform="translate(-269.903 -282.405)" fill="#c1593d"/>
        <path id="Path_59626" data-name="Path 59626" d="M308.958,288.387a1.1,1.1,0,0,1-1.406-.648l-1.55-4.2,2.054-.757,1.55,4.2A1.094,1.094,0,0,1,308.958,288.387Z" transform="translate(-287.635 -277.768)" fill="#c1593d"/>
        <path id="Path_59627" data-name="Path 59627" d="M184.7,315.2h-4.885a8.98,8.98,0,0,1-7.705-13.592l10.387-17.35h3.178l-3.781,17.35C180.588,307.591,182.157,315.2,184.7,315.2Z" transform="translate(-170.818 -279.043)" fill="#c1593d"/>
      </g>
      <path id="Path_59628" data-name="Path 59628" d="M253.949,281.124H242.721a1.493,1.493,0,1,1,0-2.986h11.228a1.493,1.493,0,0,1,0,2.986Z" transform="translate(-212.399 -241.571)" fill="#ffe04a"/>
      <path id="Path_59629" data-name="Path 59629" d="M247.547,281.124h-4.826a1.493,1.493,0,1,1,0-2.987h4.826a1.493,1.493,0,0,0,0,2.987Z" transform="translate(-212.399 -241.57)" fill="#ffbf4d"/>
      <g id="Group_69184" data-name="Group 69184" transform="translate(26.916 44.852)">
        <g id="Group_69183" data-name="Group 69183">
          <path id="Path_59630" data-name="Path 59630" d="M261.086,363.953a1.166,1.166,0,0,1-1.074-1.616l7.031-16.754a1.165,1.165,0,1,1,2.149.9l-7.031,16.754A1.165,1.165,0,0,1,261.086,363.953Z" transform="translate(-255.468 -344.088)" fill="#ffe04a"/>
          <path id="Path_59631" data-name="Path 59631" d="M232.68,339.332a3.755,3.755,0,0,0-.371-.109,3.913,3.913,0,0,0-.887-.1,4.551,4.551,0,0,0-4.272,4.776,5.057,5.057,0,0,0,1.235,3.356,4.149,4.149,0,0,0,2.276,1.344h0a3.788,3.788,0,0,0,.76.076,4.551,4.551,0,0,0,4.273-4.776A4.753,4.753,0,0,0,232.68,339.332Zm-1.258,7.008a1.533,1.533,0,0,1-.264-.023,2.33,2.33,0,0,1-1.678-2.421,3.152,3.152,0,0,1,.037-.471,2.555,2.555,0,0,1,.789-1.527,1.674,1.674,0,0,1,1.115-.447,1.6,1.6,0,0,1,.755.193,2.525,2.525,0,0,1,1.186,2.253,2.239,2.239,0,0,1-1.942,2.444Z" transform="translate(-227.15 -339.12)" fill="#ffe04a"/>
          <path id="Path_59632" data-name="Path 59632" d="M301.313,432.983a4.8,4.8,0,1,1,4.272-4.775A4.55,4.55,0,0,1,301.313,432.983Zm0-7.22a2.51,2.51,0,1,0,1.942,2.445A2.24,2.24,0,0,0,301.313,425.763Z" transform="translate(-287.545 -411.978)" fill="#ffe04a"/>
        </g>
      </g>
      <path id="Path_59633" data-name="Path 59633" d="M232.68,339.332l-.5,2.311a1.6,1.6,0,0,0-.755-.193,1.674,1.674,0,0,0-1.115.447,2.555,2.555,0,0,0-.789,1.527,3.152,3.152,0,0,0-.037.471,2.33,2.33,0,0,0,1.678,2.421l-.5,2.278h0a4.149,4.149,0,0,1-2.276-1.344,5.058,5.058,0,0,1-1.235-3.356,4.551,4.551,0,0,1,4.272-4.776,3.911,3.911,0,0,1,.887.1,3.755,3.755,0,0,1,.371.109Z" transform="translate(-200.234 -294.268)" fill="#ffbf4d"/>
    </g>
  </g>
</svg>
