<svg xmlns="http://www.w3.org/2000/svg" width="69.698" height="78" viewBox="0 0 69.698 78">
  <path id="Path_59600" data-name="Path 59600" d="M89.034,12.6V78H27.247V0H76.435Z" transform="translate(-27.247)" fill="#efefef"/>
  <g id="Group_69176" data-name="Group 69176" transform="translate(6.202 21.253)">
    <path id="Path_59602" data-name="Path 59602" d="M321.347,141.886H311.226a1.191,1.191,0,1,1,0-2.382h10.121a1.191,1.191,0,0,1,0,2.382Z" transform="translate(-273.157 -139.504)" fill="#494f56"/>
    <path id="Path_59603" data-name="Path 59603" d="M101.629,141.886H69.152a1.191,1.191,0,1,1,0-2.382h32.477a1.191,1.191,0,0,1,0,2.382Z" transform="translate(-67.961 -139.504)" fill="#494f56"/>
    <path id="Path_59604" data-name="Path 59604" d="M116.152,187.689h-47a1.191,1.191,0,1,1,0-2.382h47a1.191,1.191,0,1,1,0,2.382Z" transform="translate(-67.961 -178.329)" fill="#494f56"/>
    <path id="Path_59605" data-name="Path 59605" d="M116.152,233.491h-47a1.191,1.191,0,0,1,0-2.382h47a1.191,1.191,0,1,1,0,2.382Z" transform="translate(-67.961 -217.154)" fill="#494f56"/>
    <path id="Path_59606" data-name="Path 59606" d="M209.691,279.294H179.5a1.191,1.191,0,1,1,0-2.382h30.188a1.191,1.191,0,0,1,0,2.382Z" transform="translate(-161.501 -255.979)" fill="#494f56"/>
    <path id="Path_59607" data-name="Path 59607" d="M81.563,279.294H69.153a1.191,1.191,0,1,1,0-2.382h12.41a1.191,1.191,0,1,1,0,2.382Z" transform="translate(-67.962 -255.979)" fill="#494f56"/>
    <path id="Path_59608" data-name="Path 59608" d="M97,325.1H69.152a1.191,1.191,0,0,1,0-2.382H97a1.191,1.191,0,0,1,0,2.382Z" transform="translate(-67.961 -294.804)" fill="#494f56"/>
  </g>
  <circle id="Ellipse_131" data-name="Ellipse 131" cx="15.245" cy="15.245" r="15.245" transform="translate(39.208 40.855)" fill="#40d39b"/>
  <path id="Path_59609" data-name="Path 59609" d="M341.1,329.454a1.192,1.192,0,0,1-.938-.457l-6.829-8.734a1.191,1.191,0,1,1,1.877-1.467l5.591,7.151,6.381-14.828a1.191,1.191,0,0,1,2.188.942l-7.175,16.674a1.191,1.191,0,0,1-.941.711A1.24,1.24,0,0,1,341.1,329.454Z" transform="translate(-286.488 -263.109)" fill="#efefef"/>
</svg>
