<svg xmlns="http://www.w3.org/2000/svg" width="72.474" height="72.474" viewBox="0 0 72.474 72.474">
  <path id="check-mark_1_" data-name="check-mark (1)" d="M52.255,24.739a2.831,2.831,0,0,1,0,4L33.263,47.735a2.832,2.832,0,0,1-4,0l-9.041-9.042a2.831,2.831,0,0,1,4-4l7.039,7.039,16.99-16.991A2.832,2.832,0,0,1,52.255,24.739Zm20.218,11.5A36.237,36.237,0,1,1,36.237,0,36.217,36.217,0,0,1,72.474,36.237Zm-5.662,0A30.575,30.575,0,1,0,36.237,66.812,30.558,30.558,0,0,0,66.812,36.237Zm0,0" fill="#44d866"/>
</svg>
