<svg xmlns="http://www.w3.org/2000/svg" width="67.989" height="67.973" viewBox="0 0 67.989 67.973">
  <g id="confetti" transform="translate(0 -0.062)">
    <path id="Path_59572" data-name="Path 59572" d="M0,196.169l16.282-48.352L48.44,179.855Z" transform="translate(0 -128.135)" fill="#ffea84"/>
    <g id="Group_69157" data-name="Group 69157" transform="translate(0 15.341)">
      <path id="Path_59573" data-name="Path 59573" d="M0,300.692l48.44-16.314L32.347,268.345Z" transform="translate(0 -247.998)" fill="#ffdc40"/>
      <path id="Path_59574" data-name="Path 59574" d="M148.665,152.005a16.475,16.475,0,0,1-5.91-1.271A44.883,44.883,0,0,1,120.319,128.3c-1.908-4.874-1.66-8.856.7-11.212s6.338-2.6,11.212-.7a44.883,44.883,0,0,1,22.436,22.436c1.908,4.874,1.66,8.856-.7,11.212h0A7.233,7.233,0,0,1,148.665,152.005Z" transform="translate(-103.24 -115.12)" fill="#ffdc40"/>
    </g>
    <g id="Group_69158" data-name="Group 69158" transform="translate(19.801 19.333)">
      <path id="Path_59575" data-name="Path 59575" d="M213.673,193.74h0l-16.006,16.005h0a40.736,40.736,0,0,0,13.267,9.169,16.478,16.478,0,0,0,5.91,1.271,7.234,7.234,0,0,0,5.3-1.966h0c2.356-2.356,2.6-6.338.7-11.212A40.729,40.729,0,0,0,213.673,193.74Z" transform="translate(-191.22 -187.293)" fill="#ffab15"/>
      <path id="Path_59576" data-name="Path 59576" d="M152.4,145.187a3.434,3.434,0,0,0-2.484.8c-1.131,1.131-1.056,3.723.2,6.932a40.978,40.978,0,0,0,20.172,20.171c3.21,1.256,5.8,1.331,6.932.2s1.056-3.723-.2-6.932a40.978,40.978,0,0,0-20.172-20.171A12.687,12.687,0,0,0,152.4,145.187Z" transform="translate(-149.116 -145.187)" fill="#ffab15"/>
    </g>
    <path id="Path_59577" data-name="Path 59577" d="M237.567,226.907a36.711,36.711,0,0,0-8.274-11.9h0l-10.357,10.356h0a36.706,36.706,0,0,0,11.9,8.274c3.21,1.256,5.8,1.331,6.932.2S238.823,230.117,237.567,226.907Z" transform="translate(-189.864 -186.404)" fill="#ff9400"/>
    <path id="Path_59578" data-name="Path 59578" d="M251.423,35.023,248.6,32.2c2.567-2.567,5.162-2.651,7.248-2.718,1.8-.058,3.1-.1,4.552-1.55s1.492-2.751,1.55-4.552c.067-2.085.151-4.681,2.718-7.248s5.162-2.651,7.248-2.718c1.8-.058,3.1-.1,4.552-1.55s1.492-2.751,1.55-4.552c.067-2.085.151-4.681,2.718-7.248l2.824,2.824c-1.45,1.45-1.492,2.751-1.55,4.552-.067,2.085-.151,4.681-2.718,7.248s-5.162,2.651-7.248,2.718c-1.8.058-3.1.1-4.552,1.55s-1.492,2.751-1.55,4.552c-.067,2.085-.151,4.681-2.718,7.248s-5.162,2.651-7.248,2.718C254.175,33.531,252.874,33.572,251.423,35.023Z" transform="translate(-215.588)" fill="#063e8b"/>
    <path id="Path_59579" data-name="Path 59579" d="M190.348,29.433c-.5-1.731-.862-2.982.07-4.808s2.157-2.268,3.852-2.879c1.963-.707,4.406-1.588,6.056-4.821s.929-5.728.35-7.733c-.5-1.731-.862-2.982.07-4.808l-3.558-1.816c-1.65,3.234-.929,5.728-.35,7.733.5,1.731.862,2.982-.07,4.808s-2.157,2.268-3.852,2.879c-1.963.707-4.406,1.588-6.056,4.821s-.929,5.728-.35,7.733c.5,1.731.862,2.982-.07,4.808a5.825,5.825,0,0,1-.5.822c.784,1.056,1.645,2.108,2.574,3.141A9.252,9.252,0,0,0,190,37.165C191.648,33.932,190.927,31.437,190.348,29.433Z" transform="translate(-161.166 -2.173)" fill="#86d6f2"/>
    <path id="Path_59580" data-name="Path 59580" d="M274.481,274.27c1.634,1.3,3.669,2.913,7.285,2.615s5.361-2.222,6.761-3.769c1.209-1.336,2.083-2.3,4.127-2.469l-.327-3.981c-3.618.3-5.361,2.222-6.761,3.769-1.209,1.336-2.083,2.3-4.127,2.469s-3.063-.642-4.474-1.762c-1.634-1.3-3.667-2.913-7.285-2.615s-5.361,2.222-6.761,3.769c-1.153,1.274-2,2.209-3.852,2.439a33.638,33.638,0,0,0,4.215,2.627,13.643,13.643,0,0,0,2.6-2.385c1.209-1.336,2.083-2.3,4.127-2.469S273.07,273.149,274.481,274.27Z" transform="translate(-224.665 -231.202)" fill="#f4717a"/>
    <circle id="Ellipse_126" data-name="Ellipse 126" cx="2.663" cy="2.663" r="2.663" transform="translate(23.953 6.445)" fill="#063e8b"/>
    <circle id="Ellipse_127" data-name="Ellipse 127" cx="2.663" cy="2.663" r="2.663" transform="translate(60.522 47.767)" fill="#86d6f2"/>
    <g id="Group_69159" data-name="Group 69159" transform="translate(49.118 3.782)">
      <circle id="Ellipse_128" data-name="Ellipse 128" cx="2.663" cy="2.663" r="2.663" transform="translate(5.992 23.304)" fill="#f4717a"/>
      <circle id="Ellipse_129" data-name="Ellipse 129" cx="2.663" cy="2.663" r="2.663" fill="#f4717a"/>
    </g>
  </g>
</svg>
