<svg xmlns="http://www.w3.org/2000/svg" width="11.939" height="15.919" viewBox="0 0 11.939 15.919">
  <g id="contract" transform="translate(-64)">
    <g id="グループ_67294" data-name="グループ 67294" transform="translate(64)">
      <g id="グループ_67293" data-name="グループ 67293">
        <path id="パス_57728" data-name="パス 57728" d="M75.842,3.414,72.526.1a.331.331,0,0,0-.234-.1H65.327A1.328,1.328,0,0,0,64,1.327V14.592a1.328,1.328,0,0,0,1.327,1.327h9.286a1.328,1.328,0,0,0,1.327-1.327V3.648A.331.331,0,0,0,75.842,3.414ZM72.623,1.132l2.184,2.184H73.286a.664.664,0,0,1-.663-.663Zm2.653,13.46a.664.664,0,0,1-.663.663H65.327a.664.664,0,0,1-.663-.663V1.327a.664.664,0,0,1,.663-.663h6.633v1.99A1.328,1.328,0,0,0,73.286,3.98h1.99Z" transform="translate(-64)" fill="#fff"/>
        <path id="パス_57729" data-name="パス 57729" d="M218.308,298.667h-4.643a.332.332,0,1,0,0,.663h4.643a.332.332,0,1,0,0-.663Z" transform="translate(-208.69 -289.381)" fill="#fff"/>
        <path id="パス_57730" data-name="パス 57730" d="M128.332,107.329h3.98a.332.332,0,0,0,0-.663h-3.98a.332.332,0,1,0,0,.663Z" transform="translate(-126.01 -103.35)" fill="#fff"/>
        <path id="パス_57731" data-name="パス 57731" d="M135.628,234.667h-7.3a.332.332,0,1,0,0,.663h7.3a.332.332,0,1,0,0-.663Z" transform="translate(-126.01 -227.371)" fill="#fff"/>
        <path id="パス_57732" data-name="パス 57732" d="M128,171a.331.331,0,0,0,.332.332h7.3a.332.332,0,1,0,0-.663h-7.3A.332.332,0,0,0,128,171Z" transform="translate(-126.01 -165.36)" fill="#fff"/>
        <path id="パス_57733" data-name="パス 57733" d="M132.742,342.755a13.859,13.859,0,0,1-1.346,1.185,4.836,4.836,0,0,1-.163-.481c-.135-.447-.24-.8-.58-.8-.291,0-.422.266-.62.668a3.7,3.7,0,0,1-.372.658.784.784,0,0,1-.33-.218,2.72,2.72,0,0,0,.659-1.441.979.979,0,0,0-.995-.995A1.312,1.312,0,0,0,128,342.66a2.088,2.088,0,0,0,.45,1.114,3.051,3.051,0,0,1-.317.279.332.332,0,1,0,.4.531,3.484,3.484,0,0,0,.361-.317,1.283,1.283,0,0,0,.766.383c.448,0,.714-.51.946-.979.153.507.3.979.713.979.111,0,.447,0,1.891-1.422a.332.332,0,0,0-.465-.473Zm-3.848.493a1.194,1.194,0,0,1-.231-.588.854.854,0,0,1,.332-.663.312.312,0,0,1,.332.332A2,2,0,0,1,128.894,343.248Z" transform="translate(-126.01 -330.72)" fill="#fff"/>
      </g>
    </g>
  </g>
</svg>
