<svg id="copy" xmlns="http://www.w3.org/2000/svg" width="14.923" height="14.923" viewBox="0 0 14.923 14.923">
  <g id="グループ_67289" data-name="グループ 67289" transform="translate(0 2.665)">
    <g id="グループ_67288" data-name="グループ 67288">
      <path id="パス_57724" data-name="パス 57724" d="M10.659,85.333H1.6a1.6,1.6,0,0,0-1.6,1.6v9.06a1.6,1.6,0,0,0,1.6,1.6h9.06a1.6,1.6,0,0,0,1.6-1.6v-9.06A1.6,1.6,0,0,0,10.659,85.333Zm.533,10.659a.533.533,0,0,1-.533.533H1.6a.533.533,0,0,1-.533-.533v-9.06A.533.533,0,0,1,1.6,86.4h9.06a.533.533,0,0,1,.533.533Z" transform="translate(0 -85.333)" fill="#292536"/>
    </g>
  </g>
  <g id="グループ_67291" data-name="グループ 67291" transform="translate(2.132)">
    <g id="グループ_67290" data-name="グループ 67290">
      <path id="パス_57725" data-name="パス 57725" d="M79.459,0H69.866a1.6,1.6,0,0,0-1.6,1.6.533.533,0,1,0,1.066,0,.533.533,0,0,1,.533-.533h9.593a.533.533,0,0,1,.533.533v9.593a.533.533,0,0,1-.533.533.533.533,0,0,0,0,1.066,1.6,1.6,0,0,0,1.6-1.6V1.6A1.6,1.6,0,0,0,79.459,0Z" transform="translate(-68.267)" fill="#292536"/>
    </g>
  </g>
</svg>
