<svg xmlns="http://www.w3.org/2000/svg" width="17.154" height="17.154" viewBox="0 0 17.154 17.154">
  <g id="_02_User" data-name="02 User" transform="translate(0.006 0.003)">
    <path id="パス_1806" data-name="パス 1806" d="M.832,17.151a.838.838,0,0,1-.592-1.43L15.718.242A.838.838,0,1,1,16.9,1.427L1.424,16.906a.835.835,0,0,1-.592.245Z" transform="translate(0 0)" fill="#fff"/>
    <path id="パス_1807" data-name="パス 1807" d="M16.313,17.151a.835.835,0,0,1-.592-.245L.242,1.427A.838.838,0,0,1,1.427.242L16.906,15.721a.838.838,0,0,1-.592,1.43Z" transform="translate(-0.003 0)" fill="#fff"/>
  </g>
</svg>
