<svg xmlns="http://www.w3.org/2000/svg" width="16.555" height="16.555" viewBox="0 0 16.555 16.555">
  <g id="checked" transform="translate(-0.003 0)">
    <g id="グループ_68990" data-name="グループ 68990" transform="translate(0.003 0)">
      <path id="パス_59365" data-name="パス 59365" d="M16.156,7.3,15.027,6.173A1.919,1.919,0,0,1,14.539,5V3.4a1.384,1.384,0,0,0-1.38-1.38h-1.6a1.922,1.922,0,0,1-1.177-.488L9.256.4A1.384,1.384,0,0,0,7.305.4L6.176,1.532A1.922,1.922,0,0,1,5,2.019H3.4A1.384,1.384,0,0,0,2.022,3.4V5a1.921,1.921,0,0,1-.488,1.177L.406,7.3a1.384,1.384,0,0,0,0,1.952l1.129,1.129a1.921,1.921,0,0,1,.488,1.177v1.6a1.384,1.384,0,0,0,1.38,1.38H5a1.921,1.921,0,0,1,1.177.487l1.129,1.129a1.385,1.385,0,0,0,1.951,0l1.129-1.129a1.92,1.92,0,0,1,1.177-.487h1.6a1.384,1.384,0,0,0,1.38-1.38v-1.6a1.919,1.919,0,0,1,.488-1.177l1.129-1.129A1.386,1.386,0,0,0,16.156,7.3Zm-8.97,4.08L4.142,8.337l.976-.975L7.186,9.43l4.258-4.257.975.975Z" transform="translate(-0.003 0)" fill="#fff"/>
    </g>
  </g>
</svg>
