<svg xmlns="http://www.w3.org/2000/svg" width="16.555" height="16.555" viewBox="0 0 100.038 100.041">
  <g id="checked" transform="translate(-0.003 0)">
    <g id="グループ_68990" data-name="グループ 68990" transform="translate(0.003 0)">
      <path id="パス_59365" data-name="パス 59365" d="M97.612,44.124,90.789,37.3a11.593,11.593,0,0,1-2.946-7.114V20.541A8.362,8.362,0,0,0,79.506,12.2H69.854a11.612,11.612,0,0,1-7.116-2.948L55.917,2.431a8.363,8.363,0,0,0-11.79,0L37.306,9.257A11.617,11.617,0,0,1,30.19,12.2H20.543a8.362,8.362,0,0,0-8.337,8.338v9.648A11.611,11.611,0,0,1,9.259,37.3L2.436,44.125a8.365,8.365,0,0,0,0,11.795l6.823,6.822a11.607,11.607,0,0,1,2.946,7.114V79.5a8.365,8.365,0,0,0,8.337,8.338H30.19a11.608,11.608,0,0,1,7.116,2.945l6.822,6.824a8.367,8.367,0,0,0,11.79,0l6.822-6.824a11.605,11.605,0,0,1,7.116-2.945h9.651A8.362,8.362,0,0,0,87.843,79.5V69.856a11.6,11.6,0,0,1,2.946-7.114l6.823-6.822A8.374,8.374,0,0,0,97.612,44.124ZM43.4,68.779l-18.394-18.4,5.9-5.894,12.5,12.5L69.138,31.263l5.894,5.894Z" transform="translate(-0.003 0)" fill="#292536"/>
    </g>
  </g>
</svg>
