<svg xmlns="http://www.w3.org/2000/svg" width="14.004" height="13.997" viewBox="0 0 14.004 13.997">
  <g id="_19" data-name="19" transform="translate(19 -4.994) rotate(90)">
    <path id="Path_59598" data-name="Path 59598" d="M12,19a1,1,0,0,1-.71-1.71L16.59,12l-5.3-5.29A1,1,0,0,1,12.7,5.3l6,6a1,1,0,0,1,0,1.41l-6,6A1,1,0,0,1,12,19Z" fill="#fefeff"/>
    <path id="Path_59599" data-name="Path 59599" d="M6,19a1,1,0,0,1-.71-1.71L10.59,12,5.29,6.71A1,1,0,0,1,6.71,5.29l6,6a1,1,0,0,1,0,1.41l-6,6A1,1,0,0,1,6,19Z" fill="#fefeff"/>
  </g>
</svg>
