<svg xmlns="http://www.w3.org/2000/svg" width="13.225" height="13.225" viewBox="0 0 13.225 13.225">
  <g id="_06_explore" data-name="06 explore" transform="translate(-2 -2)">
    <path id="パス_59337" data-name="パス 59337" d="M8.613,2a6.613,6.613,0,1,0,6.613,6.613A6.613,6.613,0,0,0,8.613,2Zm0,12.28A5.668,5.668,0,1,1,14.28,8.613,5.668,5.668,0,0,1,8.613,14.28Zm2.8-9.1L7.4,7.2a.51.51,0,0,0-.213.213l-2,4a.474.474,0,0,0,.633.633l4.01-2.012a.51.51,0,0,0,.213-.213l2-4.01a.467.467,0,0,0-.633-.623ZM9.264,9.264l-2.6,1.3,1.3-2.6,2.6-1.3Z" fill="#fff"/>
  </g>
</svg>
