<svg xmlns="http://www.w3.org/2000/svg" width="21.392" height="21.392" viewBox="0 0 21.392 21.392">
  <g id="Layer_1" transform="translate(0 -2)">
    <g id="グループ_68912" data-name="グループ 68912" transform="translate(0 2)">
      <path id="パス_59327" data-name="パス 59327" d="M12.7,23.392A10.7,10.7,0,1,0,2,12.7,10.708,10.708,0,0,0,12.7,23.392Zm0-19.864A9.168,9.168,0,1,1,3.528,12.7,9.175,9.175,0,0,1,12.7,3.528Z" transform="translate(-2 -2)" fill="#fff"/>
      <path id="パス_59328" data-name="パス 59328" d="M9.764,13.82h9.168a.764.764,0,0,0,0-1.528h-7.74l.736-1.1a.764.764,0,1,0-1.271-.848L9.128,12.632a.764.764,0,0,0,.636,1.188Z" transform="translate(-3.652 -3.888)" fill="#fff"/>
      <path id="パス_59329" data-name="パス 59329" d="M9.764,18.528H17.5l-.736,1.1a.764.764,0,1,0,1.271.848l1.528-2.292A.764.764,0,0,0,18.932,17H9.764a.764.764,0,1,0,0,1.528Z" transform="translate(-3.652 -5.54)" fill="#fff"/>
    </g>
  </g>
</svg>
