<svg xmlns="http://www.w3.org/2000/svg" xmlns:xlink="http://www.w3.org/1999/xlink" width="118.8" height="21.45" viewBox="0 0 118.8 21.45">
  <defs>
    <linearGradient id="linear-gradient" x2="1" y2="0.937" gradientUnits="objectBoundingBox">
      <stop offset="0" stop-color="#7bc8fc"/>
      <stop offset="1" stop-color="#a677ec"/>
    </linearGradient>
  </defs>
  <path id="交差_73" data-name="交差 73" d="M241.61,106.83a10.3,10.3,0,0,1-3.9-3.825,11.3,11.3,0,0,1,0-11.04,10.307,10.307,0,0,1,3.9-3.825,11.286,11.286,0,0,1,10.814,0,10.227,10.227,0,0,1,3.87,3.825,11.4,11.4,0,0,1,0,11.04,10.189,10.189,0,0,1-3.884,3.825,11.257,11.257,0,0,1-10.8,0Zm2.055-15.45A5.756,5.756,0,0,0,241.4,93.8a7.926,7.926,0,0,0-.81,3.675,8.022,8.022,0,0,0,.81,3.69,5.833,5.833,0,0,0,2.265,2.445,6.483,6.483,0,0,0,3.345.855,6.4,6.4,0,0,0,3.33-.855,5.868,5.868,0,0,0,2.25-2.445,8.022,8.022,0,0,0,.81-3.69,7.926,7.926,0,0,0-.81-3.675,5.789,5.789,0,0,0-2.25-2.416,6.49,6.49,0,0,0-3.33-.84A6.572,6.572,0,0,0,243.665,91.38Zm29.7,15.435a9.985,9.985,0,0,1-3.81-3.794,11.65,11.65,0,0,1,0-11.056,9.957,9.957,0,0,1,3.81-3.81,10.812,10.812,0,0,1,5.415-1.365,10.654,10.654,0,0,1,6.15,1.8,9.417,9.417,0,0,1,3.69,4.981h-4.83a5,5,0,0,0-2.025-2.25,5.936,5.936,0,0,0-3.015-.751,6.2,6.2,0,0,0-3.254.855,5.836,5.836,0,0,0-2.22,2.416,8.789,8.789,0,0,0,0,7.3,5.81,5.81,0,0,0,2.22,2.43,6.2,6.2,0,0,0,3.254.855,5.845,5.845,0,0,0,3.015-.765,5.089,5.089,0,0,0,2.025-2.264h4.83a9.369,9.369,0,0,1-3.675,5,10.7,10.7,0,0,1-6.165,1.785A10.812,10.812,0,0,1,273.365,106.815ZM292.22,108V87.03h12.15v3.42h-7.95V95.7h7.05v3.33h-7.05v5.55h7.95V108Zm-31.38,0V87.06h4.2V108Zm-38.849,0L214.31,87.06h4.5l5.76,16.65,5.73-16.65h4.47L227.09,108Zm-14.37,0-9.51-14.37V108h-4.2V87.03h4.2l9.51,14.4V87.03h4.2V108Zm-22.05,0V87.06h4.2V108Z" transform="translate(-185.57 -86.76)" fill="url(#linear-gradient)"/>
</svg>
