<svg xmlns="http://www.w3.org/2000/svg" xmlns:xlink="http://www.w3.org/1999/xlink" width="43" height="43" viewBox="0 0 43 43">
  <defs>
    <clipPath id="clip-path">
      <rect id="長方形_17845" data-name="長方形 17845" width="43" height="43" rx="10" transform="translate(1204 26)" fill="#fff" stroke="#707070" stroke-width="1"/>
    </clipPath>
    <filter id="長方形_2822" x="-9" y="-6" width="61" height="61" filterUnits="userSpaceOnUse">
      <feOffset dy="3" input="SourceAlpha"/>
      <feGaussianBlur stdDeviation="3" result="blur"/>
      <feFlood flood-opacity="0.161"/>
      <feComposite operator="in" in2="blur"/>
      <feComposite in="SourceGraphic"/>
    </filter>
  </defs>
  <g id="マスクグループ_2" data-name="マスクグループ 2" transform="translate(-1204 -26)" clip-path="url(#clip-path)">
    <g id="グループ_67080" data-name="グループ 67080">
      <g id="グループ_5364" data-name="グループ 5364" transform="translate(990 -740)">
        <g transform="matrix(1, 0, 0, 1, 214, 766)" filter="url(#長方形_2822)">
          <rect id="長方形_2822-2" data-name="長方形 2822" width="43" height="43" rx="10" fill="#fff"/>
        </g>
      </g>
      <g id="グループ_5365" data-name="グループ 5365" transform="translate(870.924 -742)">
        <g id="グループ_5212" data-name="グループ 5212" transform="translate(349.961 784.884)">
          <g id="グループ_5211" data-name="グループ 5211">
            <path id="パス_2094" data-name="パス 2094" d="M83.618,76.655A4.953,4.953,0,0,0,80.136,75.2a4.846,4.846,0,0,0-3.481,1.455,4.936,4.936,0,0,0,3.481,8.418,4.846,4.846,0,0,0,3.481-1.455,4.953,4.953,0,0,0,1.455-3.481A4.846,4.846,0,0,0,83.618,76.655Zm-.935,6.027a3.639,3.639,0,1,1,1.039-2.546A3.594,3.594,0,0,1,82.682,82.682Z" transform="translate(-75.2 -75.2)" fill="#171522"/>
          </g>
        </g>
        <g id="グループ_5214" data-name="グループ 5214" transform="translate(361.366 789.145)">
          <g id="グループ_5213" data-name="グループ 5213">
            <path id="パス_2095" data-name="パス 2095" d="M253.476,140.8h-2a.675.675,0,0,0,0,1.351h2a.675.675,0,1,0,0-1.351Z" transform="translate(-250.8 -140.8)" fill="#171522"/>
          </g>
        </g>
        <g id="グループ_5216" data-name="グループ 5216" transform="translate(354.221 796.29)">
          <g id="グループ_5215" data-name="グループ 5215">
            <path id="パス_2096" data-name="パス 2096" d="M141.475,250.8a.688.688,0,0,0-.675.675v2a.675.675,0,1,0,1.351,0v-2A.688.688,0,0,0,141.475,250.8Z" transform="translate(-140.8 -250.8)" fill="#171522"/>
          </g>
        </g>
        <g id="グループ_5218" data-name="グループ 5218" transform="translate(359.275 794.198)">
          <g id="グループ_5217" data-name="グループ 5217">
            <path id="パス_2097" data-name="パス 2097" d="M221.159,220.224l-1.429-1.429a.661.661,0,1,0-.935.935l1.429,1.429a.661.661,0,0,0,.935-.935Z" transform="translate(-218.6 -218.6)" fill="#171522"/>
          </g>
        </g>
        <g id="グループ_5220" data-name="グループ 5220" transform="translate(354.221 780)">
          <g id="グループ_5219" data-name="グループ 5219">
            <path id="パス_2098" data-name="パス 2098" d="M141.475,0a.688.688,0,0,0-.675.675v2a.675.675,0,1,0,1.351,0v-2A.688.688,0,0,0,141.475,0Z" transform="translate(-140.8)" fill="#171522"/>
          </g>
        </g>
        <g id="グループ_5222" data-name="グループ 5222" transform="translate(359.301 782.689)">
          <g id="グループ_5221" data-name="グループ 5221">
            <path id="パス_2099" data-name="パス 2099" d="M221.559,41.595a.659.659,0,0,0-.935,0l-1.429,1.429a.661.661,0,0,0,.935.935l1.429-1.429A.659.659,0,0,0,221.559,41.595Z" transform="translate(-219 -41.4)" fill="#171522"/>
          </g>
        </g>
        <g id="グループ_5224" data-name="グループ 5224" transform="translate(345.076 789.145)">
          <g id="グループ_5223" data-name="グループ 5223">
            <path id="パス_2100" data-name="パス 2100" d="M2.676,140.8h-2a.688.688,0,0,0-.675.675.671.671,0,0,0,.675.675h2a.675.675,0,0,0,0-1.351Z" transform="translate(0 -140.8)" fill="#171522"/>
          </g>
        </g>
        <g id="グループ_5226" data-name="グループ 5226" transform="translate(347.739 794.198)">
          <g id="グループ_5225" data-name="グループ 5225">
            <path id="パス_2101" data-name="パス 2101" d="M43.559,218.795a.658.658,0,0,0-.935,0l-1.429,1.429a.661.661,0,1,0,.935.935l1.429-1.429A.659.659,0,0,0,43.559,218.795Z" transform="translate(-41 -218.6)" fill="#171522"/>
          </g>
        </g>
        <g id="グループ_5228" data-name="グループ 5228" transform="translate(347.739 782.689)">
          <g id="グループ_5227" data-name="グループ 5227">
            <path id="パス_2102" data-name="パス 2102" d="M43.559,43.024,42.13,41.595a.661.661,0,1,0-.935.935l1.429,1.429a.661.661,0,0,0,.935-.935Z" transform="translate(-41 -41.4)" fill="#171522"/>
          </g>
        </g>
      </g>
    </g>
  </g>
</svg>
