<svg xmlns="http://www.w3.org/2000/svg" width="24" height="24" viewBox="0 0 24 24">
  <path id="link_2_" data-name="link (2)" d="M5.822,24a5.756,5.756,0,0,1-4.1-1.725A5.751,5.751,0,0,1,0,17.962,6.914,6.914,0,0,1,2.18,13.333l2.452-2.462a.937.937,0,1,1,1.329,1.323L3.507,14.658c-1.988,1.988-2.176,4.575-.458,6.294s4.306,1.531,6.292-.456l3.37-3.37a5.08,5.08,0,0,0,1.629-3.372,3.9,3.9,0,0,0-1.173-2.92,4.149,4.149,0,0,0-.878-.673.937.937,0,1,1,.928-1.629,6.025,6.025,0,0,1,1.276.977,5.751,5.751,0,0,1,1.72,4.315,6.914,6.914,0,0,1-2.177,4.628l-3.37,3.37A6.914,6.914,0,0,1,6.039,24C5.967,24,5.894,24,5.822,24Zm6.238-8.88a.938.938,0,0,0-.351-1.279,4.149,4.149,0,0,1-.878-.673c-1.718-1.718-1.53-4.306.456-6.292l3.37-3.37c1.987-1.987,4.574-2.174,6.292-.456s1.53,4.306-.458,6.294l-2.453,2.463a.937.937,0,0,0,1.329,1.323l2.452-2.462A6.914,6.914,0,0,0,24,6.042a5.751,5.751,0,0,0-1.72-4.315A5.752,5.752,0,0,0,17.96.006a6.913,6.913,0,0,0-4.628,2.177l-3.37,3.37A6.914,6.914,0,0,0,7.785,10.18,5.751,5.751,0,0,0,9.505,14.5a6.026,6.026,0,0,0,1.276.977.937.937,0,0,0,1.279-.351Z" transform="translate(0.001 -0.002)" fill="#292536"/>
</svg>
