<svg xmlns="http://www.w3.org/2000/svg" width="47.66" height="45.95" viewBox="0 0 47.66 45.95">
  <g id="loading_2_" data-name="loading (2)" transform="translate(0 -8.9)">
    <path id="パス_2236" data-name="パス 2236" d="M241.537,346.691a.79.79,0,0,1-.769.846h0a.79.79,0,0,1-.769-.846V333.546a.79.79,0,0,1,.769-.846h0a.79.79,0,0,1,.769.846Z" transform="translate(-216.939 -292.686)" fill="#9b9b9b"/>
    <path id="パス_2237" data-name="パス 2237" d="M358.606,232.669a.726.726,0,0,1-.769.769H344.769a.726.726,0,0,1-.769-.769h0a.726.726,0,0,1,.769-.769h13.068a.726.726,0,0,1,.769.769Z" transform="translate(-310.945 -201.572)" fill="#d6d6d6"/>
    <path id="パス_2238" data-name="パス 2238" d="M14.606,232.669a.726.726,0,0,1-.769.769H.769A.726.726,0,0,1,0,232.669H0a.726.726,0,0,1,.769-.769H13.837a.726.726,0,0,1,.769.769Z" transform="translate(0 -201.572)" fill="#515151"/>
    <path id="パス_2239" data-name="パス 2239" d="M313.384,72.185a.836.836,0,0,1-1.153,0h0a.836.836,0,0,1,0-1.153l9.3-9.3a.836.836,0,0,1,1.153,0h0a.836.836,0,0,1,0,1.153Z" transform="translate(-282.02 -47.546)" fill="#ededed"/>
    <path id="パス_2240" data-name="パス 2240" d="M71.784,313.785a.836.836,0,0,1-1.153,0h0a.836.836,0,0,1,0-1.153l9.3-9.3a.836.836,0,0,1,1.153,0h0a.836.836,0,0,1,0,1.153Z" transform="translate(-63.635 -265.931)" fill="#7a7a7a"/>
    <path id="パス_2241" data-name="パス 2241" d="M312.231,304.484a.836.836,0,0,1,0-1.153h0a.836.836,0,0,1,1.153,0l9.3,9.3a.836.836,0,0,1,0,1.153h0a.836.836,0,0,1-1.153,0Z" transform="translate(-282.02 -265.931)" fill="#bfbfbf"/>
    <path id="パス_2242" data-name="パス 2242" d="M70.631,62.807a.743.743,0,0,1,0-1.076h0a.836.836,0,0,1,1.153,0l9.3,9.3a.836.836,0,0,1,0,1.153h0a.836.836,0,0,1-1.153,0Z" transform="translate(-63.635 -47.546)" fill="#2b2b2b"/>
    <path id="パス_2243" data-name="パス 2243" d="M280.284,22.269a.845.845,0,0,1-1.076.461h0a.857.857,0,0,1-.461-1.076l5-12.146a.857.857,0,0,1,1.076-.461h0a.857.857,0,0,1,.461,1.076Z" transform="translate(-251.919 -0.089)" fill="#f4f4f4"/>
    <path id="パス_2244" data-name="パス 2244" d="M149.884,339.069a.857.857,0,0,1-1.076.461h0a.857.857,0,0,1-.461-1.076l5-12.146a.857.857,0,0,1,1.076-.461h0a.857.857,0,0,1,.461,1.076Z" transform="translate(-134.049 -286.448)" fill="#898989"/>
    <path id="パス_2245" data-name="パス 2245" d="M335.208,270.584a.856.856,0,0,1-.461-1.076h0a.857.857,0,0,1,1.076-.461l12.146,5a.857.857,0,0,1,.461,1.076h0a.857.857,0,0,1-1.076.461Z" transform="translate(-302.538 -235.106)" fill="#ccc"/>
    <path id="パス_2246" data-name="パス 2246" d="M18.408,140.184a.857.857,0,0,1-.461-1.076h0a.857.857,0,0,1,1.076-.461l12.146,5.074a.857.857,0,0,1,.461,1.076h0a.857.857,0,0,1-1.076.461Z" transform="translate(-16.179 -117.236)" fill="#3f3f3f"/>
    <path id="パス_2247" data-name="パス 2247" d="M334.934,144.369a.845.845,0,0,1-1.076-.461h0a.819.819,0,0,1,.461-1.076l12.146-5.073a.819.819,0,0,1,1.076.461h0a.819.819,0,0,1-.461,1.076Z" transform="translate(-301.725 -116.424)" fill="#e2e2e2"/>
    <path id="パス_2248" data-name="パス 2248" d="M19.734,276.369a.819.819,0,0,1-1.076-.461h0a.819.819,0,0,1,.461-1.076l12.146-5.074a.845.845,0,0,1,1.076.461h0a.819.819,0,0,1-.461,1.076Z" transform="translate(-16.813 -235.74)" fill="#6d6d6d"/>
    <path id="パス_2249" data-name="パス 2249" d="M279.458,326.034a.845.845,0,0,1,.461-1.076h0a.819.819,0,0,1,1.076.461l5.073,12.146a.819.819,0,0,1-.461,1.076h0a.819.819,0,0,1-1.076-.461Z" transform="translate(-252.553 -285.636)" fill="#adadad"/>
    <path id="パス_2250" data-name="パス 2250" d="M147.458,10.034a.819.819,0,0,1,.461-1.076h0A.819.819,0,0,1,149,9.419l5,12.146a.819.819,0,0,1-.461,1.076h0a.819.819,0,0,1-1.076-.461Z" transform="translate(-133.236)" fill="#0c0c0c"/>
  </g>
</svg>
