<svg id="logout" xmlns="http://www.w3.org/2000/svg" width="19.926" height="19.86" viewBox="0 0 19.926 19.86">
  <g id="グループ_68909" data-name="グループ 68909" transform="translate(0 0)">
    <g id="グループ_68908" data-name="グループ 68908">
      <path id="パス_59320" data-name="パス 59320" d="M9.93,19.055H2.482a.828.828,0,0,1-.827-.827V3.332a.828.828,0,0,1,.827-.827H9.93A.828.828,0,0,0,9.93.85H2.482A2.486,2.486,0,0,0,0,3.332V18.227A2.485,2.485,0,0,0,2.482,20.71H9.93a.827.827,0,0,0,0-1.655Z" transform="translate(0 -0.85)" fill="#fff"/>
    </g>
  </g>
  <g id="グループ_68911" data-name="グループ 68911" transform="translate(6.62 4.138)">
    <g id="グループ_68910" data-name="グループ 68910">
      <path id="パス_59321" data-name="パス 59321" d="M183.159,112.368l-5.031-4.965a.827.827,0,1,0-1.162,1.178l3.6,3.548h-9.634a.827.827,0,0,0,0,1.655h9.634l-3.6,3.548a.827.827,0,1,0,1.162,1.178l5.031-4.965a.827.827,0,0,0,0-1.178Z" transform="translate(-170.1 -107.165)" fill="#fff"/>
    </g>
  </g>
</svg>
