<svg xmlns="http://www.w3.org/2000/svg" xmlns:xlink="http://www.w3.org/1999/xlink" width="83.7" height="21.21" viewBox="0 0 83.7 21.21">
  <defs>
    <linearGradient id="linear-gradient" x1="-0.062" y1="-0.061" x2="1.018" y2="1" gradientUnits="objectBoundingBox">
      <stop offset="0" stop-color="#3eb9fc"/>
      <stop offset="1" stop-color="#8b2ae1"/>
    </linearGradient>
  </defs>
  <path id="交差_70" data-name="交差 70" d="M224.885,68.993a7.5,7.5,0,0,1-2.97-3.015,9.236,9.236,0,0,1-1.066-4.5,9.406,9.406,0,0,1,1.05-4.53,7.32,7.32,0,0,1,2.94-3,9.44,9.44,0,0,1,8.6-.031,7.182,7.182,0,0,1,2.91,2.9,8.757,8.757,0,0,1,1.035,4.3,9.9,9.9,0,0,1-.12,1.62H225.11a4.13,4.13,0,0,0,1.26,2.821,3.886,3.886,0,0,0,2.73,1.02,3.431,3.431,0,0,0,3.33-2.01h4.53a7.572,7.572,0,0,1-2.759,3.945,8.061,8.061,0,0,1-5.01,1.545A8.667,8.667,0,0,1,224.885,68.993Zm1.56-11.7a4.155,4.155,0,0,0-1.3,2.625h7.89a3.333,3.333,0,0,0-1.17-2.595,4.143,4.143,0,0,0-2.79-.976A3.813,3.813,0,0,0,226.445,57.293Zm38.685,11.88a5.812,5.812,0,0,1-2.354-2.43,8.021,8.021,0,0,1-.855-3.825v-9.75h4.2v9.15a4.311,4.311,0,0,0,.99,3.045,3.508,3.508,0,0,0,2.7,1.065,3.546,3.546,0,0,0,2.731-1.065,4.311,4.311,0,0,0,.99-3.045v-9.15h4.23v16.62h-4.23v-2.1a5.555,5.555,0,0,1-2.115,1.7A6.575,6.575,0,0,1,268.58,70,7.044,7.044,0,0,1,265.129,69.173Zm-12.15.616v-9.18a4.308,4.308,0,0,0-.99-3.046,3.5,3.5,0,0,0-2.7-1.065,3.593,3.593,0,0,0-2.745,1.065,4.271,4.271,0,0,0-1,3.046v9.18h-4.2V53.168h4.2v2.07a5.791,5.791,0,0,1,2.145-1.695,6.631,6.631,0,0,1,2.865-.616,6.408,6.408,0,0,1,4.8,1.876,7.177,7.177,0,0,1,1.83,5.234v9.751Zm-40.289,0V56.168l-5.611,13.621H203.9l-5.64-13.621V69.789h-4.2V48.848h4.77l6.66,15.57,6.66-15.57h4.739v20.94Z" transform="translate(-194.06 -48.848)" fill="url(#linear-gradient)"/>
</svg>
