<svg xmlns="http://www.w3.org/2000/svg" width="29.216" height="22.129" viewBox="0 0 29.216 22.129">
  <g id="mortarboard" transform="translate(-0.001 -62.097)">
    <path id="パス_59537" data-name="パス 59537" d="M124.351,177.381V184.9a.876.876,0,0,1-.535.807,66.7,66.7,0,0,1-7.773,2.695.89.89,0,0,1-.48,0,66.7,66.7,0,0,1-7.773-2.695.876.876,0,0,1-.534-.807v-7.252l8.547-.133Z" transform="translate(-101.135 -108.706)" fill="#365e7d"/>
    <path id="パス_59538" data-name="パス 59538" d="M115.8,179.72v10.92a.9.9,0,0,1-.24-.033,66.7,66.7,0,0,1-7.773-2.695.876.876,0,0,1-.534-.807v-7.252Z" transform="translate(-101.136 -110.911)" fill="#2b4d66"/>
    <path id="パス_59539" data-name="パス 59539" d="M124.351,182.532V185.7q-3.683,1.283-7.722,2.441a3.211,3.211,0,0,1-1.769,0q-3.973-1.139-7.6-2.4V182.8Z" transform="translate(-101.136 -113.563)" fill="#2b4d66"/>
    <path id="パス_59540" data-name="パス 59540" d="M29.47,66.6a133.767,133.767,0,0,0-12.9-4.375,3.211,3.211,0,0,0-1.769,0A133.776,133.776,0,0,0,1.905,66.6a1.219,1.219,0,0,0,.138,2.3A131.555,131.555,0,0,0,14.8,73.114a3.343,3.343,0,0,0,1.769.3,133.756,133.756,0,0,0,12.9-4.375,1.315,1.315,0,0,0,0-2.442Z" transform="translate(-1.079)" fill="#365e7d"/>
    <path id="パス_59541" data-name="パス 59541" d="M15.806,145.807l.038.011-.35.1a3.21,3.21,0,0,1-1.769,0,133.858,133.858,0,0,1-12.9-4.374,1.316,1.316,0,0,1,0-2.442l.278-.111a1.318,1.318,0,0,0,.484,2.112C5.533,142.685,11.153,144.473,15.806,145.807Z" transform="translate(0 -72.506)" fill="#2b4d66"/>
    <path id="パス_59542" data-name="パス 59542" d="M255.784,167.487a.441.441,0,0,1-.441-.441v-8.354l-6.825-3.251a.441.441,0,1,1,.379-.8l7.076,3.37a.441.441,0,0,1,.251.4v8.632a.441.441,0,0,1-.441.441Z" transform="translate(-234.099 -87.227)" fill="#f6e781"/>
    <path id="パス_59543" data-name="パス 59543" d="M353.488,367.518a1.6,1.6,0,0,0-1.6,1.6v3.1h3.208v-3.1A1.6,1.6,0,0,0,353.488,367.518Z" transform="translate(-331.803 -287.993)" fill="#f6e781"/>
    <path id="パス_59544" data-name="パス 59544" d="M354.012,367.617a1.6,1.6,0,0,0-1.081,1.516v3.1h-1.047v-3.1a1.6,1.6,0,0,1,1.6-1.6A1.587,1.587,0,0,1,354.012,367.617Z" transform="translate(-331.804 -288.003)" fill="#f1cb86"/>
  </g>
</svg>
