<svg xmlns="http://www.w3.org/2000/svg" width="72.47" height="72.47" viewBox="0 0 72.47 72.47">
  <path id="Multiply" d="M36.235,0A36.235,36.235,0,1,0,72.47,36.235,36.277,36.277,0,0,0,36.235,0Zm0,67.941A31.706,31.706,0,1,1,67.941,36.235,31.741,31.741,0,0,1,36.235,67.941ZM49.16,26.513l-9.722,9.722,9.722,9.722a2.264,2.264,0,1,1-3.2,3.2l-9.722-9.722L26.513,49.16a2.264,2.264,0,1,1-3.2-3.2l9.722-9.722L23.31,26.513a2.264,2.264,0,0,1,3.2-3.2l9.722,9.722,9.722-9.722a2.264,2.264,0,0,1,3.2,3.2Z" fill="#f75d68"/>
</svg>
