<svg xmlns="http://www.w3.org/2000/svg" xmlns:xlink="http://www.w3.org/1999/xlink" width="23" height="22" viewBox="0 0 23 22">
  <defs>
    <clipPath id="clip-path">
      <rect id="長方形_17847" data-name="長方形 17847" width="23" height="22" transform="translate(767 450)" fill="#fff" stroke="#707070" stroke-width="1"/>
    </clipPath>
  </defs>
  <g id="マスクグループ_4" data-name="マスクグループ 4" transform="translate(-767 -450)" clip-path="url(#clip-path)">
    <g id="reload_1_" data-name="reload (1)" transform="translate(773.205 440.087) rotate(30)">
      <path id="パス_2231" data-name="パス 2231" d="M3.914,18.649a.894.894,0,0,0,.726-.378l.4-.548a10.453,10.453,0,0,0,6.586,8.246,9.509,9.509,0,0,0,3.287.589,9.85,9.85,0,0,0,8.326-4.735,1.007,1.007,0,0,0-.257-1.345.884.884,0,0,0-1.269.273,7.92,7.92,0,0,1-9.486,3.386,8.549,8.549,0,0,1-5.4-6.913l.783.639a.882.882,0,0,0,1.283-.178,1.009,1.009,0,0,0-.167-1.36l-2.17-1.771c-.455-.372-1.1-.58-1.514-.011L3.19,17.088a1.009,1.009,0,0,0,.167,1.36.88.88,0,0,0,.557.2Z" transform="translate(0 -0.272)" fill="#fff"/>
      <path id="パス_2232" data-name="パス 2232" d="M7.131,11.144A.886.886,0,0,0,8.4,10.871a7.924,7.924,0,0,1,9.486-3.386,8.549,8.549,0,0,1,5.4,6.913l-.783-.639a.88.88,0,0,0-1.283.178,1.009,1.009,0,0,0,.167,1.36l2.17,1.771c.463.377,1.1.589,1.514.011l1.849-2.545a1.009,1.009,0,0,0-.167-1.36.88.88,0,0,0-1.283.178l-.4.548a10.453,10.453,0,0,0-6.586-8.246A9.7,9.7,0,0,0,6.874,9.8a1.008,1.008,0,0,0,.257,1.346Z" transform="translate(-0.111)" fill="#fff"/>
    </g>
  </g>
</svg>
