<svg xmlns="http://www.w3.org/2000/svg" width="22.02" height="16.148" viewBox="0 0 22.02 16.148">
  <g id="scan" transform="translate(-1 -5)">
    <path id="パス_59332" data-name="パス 59332" d="M5.734,10.872a.734.734,0,0,0,.734-.734V6.468h3.67a.734.734,0,1,0,0-1.468h-4.4A.734.734,0,0,0,5,5.734v4.4A.734.734,0,0,0,5.734,10.872Z" transform="translate(-1.064)" fill="#fff"/>
    <path id="パス_59333" data-name="パス 59333" d="M19.734,6.468H23.4v3.67a.734.734,0,1,0,1.468,0v-4.4A.734.734,0,0,0,24.138,5h-4.4a.734.734,0,1,0,0,1.468Z" transform="translate(-4.788)" fill="#fff"/>
    <path id="パス_59334" data-name="パス 59334" d="M10.138,23.4H6.468v-3.67a.734.734,0,1,0-1.468,0v4.4a.734.734,0,0,0,.734.734h4.4a.734.734,0,0,0,0-1.468Z" transform="translate(-1.064 -3.724)" fill="#fff"/>
    <path id="パス_59335" data-name="パス 59335" d="M24.138,19a.734.734,0,0,0-.734.734V23.4h-3.67a.734.734,0,0,0,0,1.468h4.4a.734.734,0,0,0,.734-.734v-4.4A.734.734,0,0,0,24.138,19Z" transform="translate(-4.788 -3.724)" fill="#fff"/>
    <path id="パス_59336" data-name="パス 59336" d="M22.286,15H1.734a.734.734,0,0,0,0,1.468H22.286a.734.734,0,0,0,0-1.468Z" transform="translate(0 -2.66)" fill="#fff"/>
  </g>
</svg>
