<svg id="settings" xmlns="http://www.w3.org/2000/svg" width="21.383" height="21.383" viewBox="0 0 21.383 21.383">
  <path id="パス_59325" data-name="パス 59325" d="M11.362,21.383H10.02a1.971,1.971,0,0,1-1.968-1.968V18.96a8.632,8.632,0,0,1-1.34-.556l-.322.322a1.968,1.968,0,0,1-2.784,0l-.948-.948a1.968,1.968,0,0,1,0-2.784l.321-.321a8.633,8.633,0,0,1-.556-1.34H1.968A1.971,1.971,0,0,1,0,11.362V10.02A1.971,1.971,0,0,1,1.969,8.052h.454a8.635,8.635,0,0,1,.556-1.34L2.657,6.39a1.968,1.968,0,0,1,0-2.784l.949-.949a1.968,1.968,0,0,1,2.784,0l.321.321a8.641,8.641,0,0,1,1.34-.556V1.968A1.971,1.971,0,0,1,10.02,0h1.342a1.971,1.971,0,0,1,1.968,1.968v.454a8.632,8.632,0,0,1,1.34.556l.322-.322a1.968,1.968,0,0,1,2.784,0l.948.948a1.968,1.968,0,0,1,0,2.784l-.321.321a8.633,8.633,0,0,1,.556,1.34h.454a1.971,1.971,0,0,1,1.968,1.968v1.342a1.971,1.971,0,0,1-1.968,1.968H18.96a8.635,8.635,0,0,1-.556,1.34l.322.322a1.968,1.968,0,0,1,0,2.784l-.949.949a1.968,1.968,0,0,1-2.784,0l-.321-.321a8.641,8.641,0,0,1-1.34.556v.454A1.971,1.971,0,0,1,11.362,21.383ZM6.921,17.088a7.384,7.384,0,0,0,1.914.795.626.626,0,0,1,.47.607v.925a.716.716,0,0,0,.716.716h1.342a.716.716,0,0,0,.716-.716v-.925a.626.626,0,0,1,.47-.607,7.384,7.384,0,0,0,1.914-.795.626.626,0,0,1,.762.1l.655.655a.715.715,0,0,0,1.012,0l.949-.949a.715.715,0,0,0,0-1.012l-.655-.655a.626.626,0,0,1-.1-.762,7.383,7.383,0,0,0,.795-1.914.626.626,0,0,1,.607-.47h.925a.716.716,0,0,0,.716-.716V10.02a.716.716,0,0,0-.716-.716H18.49a.626.626,0,0,1-.607-.47,7.385,7.385,0,0,0-.795-1.914.626.626,0,0,1,.1-.762L17.84,5.5a.715.715,0,0,0,0-1.012l-.949-.949a.715.715,0,0,0-1.012,0l-.655.655a.626.626,0,0,1-.762.1A7.384,7.384,0,0,0,12.548,3.5a.626.626,0,0,1-.47-.607V1.968a.716.716,0,0,0-.716-.716H10.021a.716.716,0,0,0-.716.716v.925a.626.626,0,0,1-.47.607,7.384,7.384,0,0,0-1.914.795.627.627,0,0,1-.762-.1L5.5,3.543a.715.715,0,0,0-1.012,0l-.949.949a.715.715,0,0,0,0,1.012l.655.655a.626.626,0,0,1,.1.762A7.383,7.383,0,0,0,3.5,8.835a.626.626,0,0,1-.607.47H1.968a.716.716,0,0,0-.716.716v1.342a.716.716,0,0,0,.716.716h.925a.626.626,0,0,1,.607.47,7.384,7.384,0,0,0,.795,1.914.626.626,0,0,1-.1.762l-.655.655a.715.715,0,0,0,0,1.012l.949.949a.715.715,0,0,0,1.012,0l.655-.655a.629.629,0,0,1,.762-.1Z" transform="translate(0 0)" fill="#fff"/>
  <path id="パス_59326" data-name="パス 59326" d="M149.716,154.832a5.116,5.116,0,1,1,5.116-5.116A5.122,5.122,0,0,1,149.716,154.832Zm0-8.854a3.738,3.738,0,1,0,3.738,3.738A3.742,3.742,0,0,0,149.716,145.978Z" transform="translate(-139.024 -139.024)" fill="#fff"/>
</svg>
