<svg id="グループ_5061" data-name="グループ 5061" xmlns="http://www.w3.org/2000/svg" width="16" height="16" viewBox="0 0 16 16">
  <path id="パス_1890" data-name="パス 1890" d="M0,0H16V16H0Z" fill="none"/>
  <path id="パス_1891" data-name="パス 1891" d="M2.127,9.236a5.968,5.968,0,0,1,0-2.472,1.308,1.308,0,0,0,1.438-.6,1.307,1.307,0,0,0-.592-1.442A5.968,5.968,0,0,1,4.721,2.973a1.307,1.307,0,0,0,1.442.592,1.307,1.307,0,0,0,.6-1.438,5.968,5.968,0,0,1,2.472,0,1.308,1.308,0,0,0,.6,1.438,1.307,1.307,0,0,0,1.442-.592,5.968,5.968,0,0,1,1.748,1.748,1.307,1.307,0,0,0-.592,1.442,1.307,1.307,0,0,0,1.438.6,5.968,5.968,0,0,1,0,2.472,1.308,1.308,0,0,0-1.438.6,1.307,1.307,0,0,0,.592,1.442,5.968,5.968,0,0,1-1.748,1.748,1.307,1.307,0,0,0-1.442-.592,1.307,1.307,0,0,0-.6,1.438,5.968,5.968,0,0,1-2.472,0,1.308,1.308,0,0,0-.6-1.438,1.307,1.307,0,0,0-1.442.592,5.968,5.968,0,0,1-1.748-1.748,1.307,1.307,0,0,0,.592-1.442,1.307,1.307,0,0,0-1.438-.6ZM3.2,8.126a2.118,2.118,0,0,1,1.317,3.179q.086.092.178.178A2.118,2.118,0,0,1,7.874,12.8q.126,0,.252,0a2.118,2.118,0,0,1,3.179-1.317q.092-.086.178-.178A2.118,2.118,0,0,1,12.8,8.126q0-.126,0-.252a2.118,2.118,0,0,1-1.317-3.179q-.087-.091-.178-.178A2.118,2.118,0,0,1,8.126,3.2q-.126,0-.252,0A2.118,2.118,0,0,1,4.695,4.516q-.092.086-.178.178A2.118,2.118,0,0,1,3.2,7.874Q3.2,8,3.2,8.126ZM8,9.8A1.8,1.8,0,1,1,9.8,8,1.8,1.8,0,0,1,8,9.8ZM8,8.6A.6.6,0,1,0,7.4,8,.6.6,0,0,0,8,8.6Z" transform="translate(0 0)" fill="#fff"/>
</svg>
