<svg xmlns="http://www.w3.org/2000/svg" xmlns:xlink="http://www.w3.org/1999/xlink" width="112.829" height="23.791" viewBox="0 0 112.829 23.791">
  <defs>
    <linearGradient id="linear-gradient">
      <stop offset="0" stop-color="#3eb9fc"/>
      <stop offset="1" stop-color="#8b2ae1"/>
    </linearGradient>
  </defs>
  <path id="交差_67" data-name="交差 67" d="M246.409,69.323a6.467,6.467,0,0,1-2.565-2,5.056,5.056,0,0,1-1.035-2.79h4.23a2.306,2.306,0,0,0,.945,1.59,3.287,3.287,0,0,0,2.056.63,3.193,3.193,0,0,0,1.875-.48,1.455,1.455,0,0,0,.675-1.23,1.3,1.3,0,0,0-.825-1.215,15.479,15.479,0,0,0-2.624-.885,22.276,22.276,0,0,1-3.046-.931,5.284,5.284,0,0,1-2.039-1.47,3.942,3.942,0,0,1-.855-2.67,4.309,4.309,0,0,1,.795-2.52,5.341,5.341,0,0,1,2.28-1.8,8.548,8.548,0,0,1,3.5-.66,7.134,7.134,0,0,1,4.739,1.485,5.5,5.5,0,0,1,1.95,4.005h-4.02a2.175,2.175,0,0,0-.824-1.575,3.72,3.72,0,0,0-3.721-.165,1.339,1.339,0,0,0-.615,1.17,1.374,1.374,0,0,0,.84,1.274,13.108,13.108,0,0,0,2.61.886,22,22,0,0,1,2.97.93,5.233,5.233,0,0,1,2.025,1.485,4.078,4.078,0,0,1,.886,2.655,4.4,4.4,0,0,1-.8,2.58,5.24,5.24,0,0,1-2.28,1.785,8.634,8.634,0,0,1-3.465.645A8.772,8.772,0,0,1,246.409,69.323Zm-21.285-.345a7.559,7.559,0,0,1-2.73-3.046,9.782,9.782,0,0,1-1.005-4.514,9.623,9.623,0,0,1,1.005-4.47,7.359,7.359,0,0,1,2.73-3,7.269,7.269,0,0,1,3.856-1.05,6.776,6.776,0,0,1,3.254.75,6.617,6.617,0,0,1,2.236,1.89v-2.37h4.23v16.62h-4.23v-2.43a6.255,6.255,0,0,1-2.236,1.935,6.843,6.843,0,0,1-3.285.765A7.065,7.065,0,0,1,225.124,68.979ZM227.9,57.158a4.292,4.292,0,0,0-1.606,1.665,5.221,5.221,0,0,0-.615,2.6,5.39,5.39,0,0,0,.615,2.624,4.434,4.434,0,0,0,1.62,1.725,4.121,4.121,0,0,0,2.146.6,4.334,4.334,0,0,0,2.19-.585,4.23,4.23,0,0,0,1.62-1.68,6.039,6.039,0,0,0,0-5.25,4.219,4.219,0,0,0-1.62-1.68,4.334,4.334,0,0,0-2.19-.585A4.254,4.254,0,0,0,227.9,57.158Zm53.775,12.136a2.462,2.462,0,0,1,0-3.51,2.6,2.6,0,0,1,1.875-.706,2.5,2.5,0,0,1,1.83.706,2.5,2.5,0,0,1,0,3.51,2.507,2.507,0,0,1-1.83.7A2.6,2.6,0,0,1,281.675,69.294Zm-84.33-.045a6.487,6.487,0,0,1-2.776-2.16,5.691,5.691,0,0,1-1.049-3.33h4.5a2.906,2.906,0,0,0,.914,2.039,3.24,3.24,0,0,0,2.265.751,3.487,3.487,0,0,0,2.31-.706A2.292,2.292,0,0,0,204.35,64a2.133,2.133,0,0,0-.57-1.53,4.008,4.008,0,0,0-1.426-.945A23.649,23.649,0,0,0,200,60.758a25.261,25.261,0,0,1-3.316-1.184,5.815,5.815,0,0,1-2.19-1.77,5.044,5.044,0,0,1-.915-3.165,5.658,5.658,0,0,1,.931-3.24,5.918,5.918,0,0,1,2.61-2.115,9.5,9.5,0,0,1,3.839-.734,8.329,8.329,0,0,1,5.265,1.575,5.839,5.839,0,0,1,2.236,4.395h-4.621a2.4,2.4,0,0,0-.914-1.785,3.447,3.447,0,0,0-2.265-.706,2.918,2.918,0,0,0-1.965.63,2.278,2.278,0,0,0-.735,1.831,1.894,1.894,0,0,0,.555,1.4,4.239,4.239,0,0,0,1.38.9q.825.344,2.325.795a24.409,24.409,0,0,1,3.33,1.2,5.983,5.983,0,0,1,2.22,1.8,5,5,0,0,1,.93,3.15,5.929,5.929,0,0,1-.869,3.12,6.14,6.14,0,0,1-2.551,2.295,8.7,8.7,0,0,1-3.99.855A9.954,9.954,0,0,1,197.345,69.249Zm104.295.54V53.168h4.2v16.62Zm-10.8,0V56.618h-1.89v-3.45h1.89v-.84a5.508,5.508,0,0,1,1.74-4.5,7.773,7.773,0,0,1,5.251-1.35v3.54a3.117,3.117,0,0,0-2.13.51,2.554,2.554,0,0,0-.6,1.949v.69h2.911v3.45H295.1V69.789Zm-18.24,0v-9.18a4.308,4.308,0,0,0-.99-3.046,3.5,3.5,0,0,0-2.7-1.065,3.593,3.593,0,0,0-2.745,1.065,4.271,4.271,0,0,0-1,3.046v9.18h-4.2v-22.2h4.2v7.65a5.47,5.47,0,0,1,2.16-1.695,7.146,7.146,0,0,1,3-.616,6.747,6.747,0,0,1,3.36.825,5.682,5.682,0,0,1,2.3,2.43,8.344,8.344,0,0,1,.825,3.855v9.751Zm-59.369,0v-22.2h4.2v22.2Zm88.695-19.305a2.462,2.462,0,0,1,0-3.51,2.765,2.765,0,0,1,3.69,0,2.464,2.464,0,0,1,0,3.51,2.768,2.768,0,0,1-3.69,0Z" transform="translate(-193.52 -46.268)" fill="url(#linear-gradient)"/>
</svg>
