<svg xmlns="http://www.w3.org/2000/svg" width="9.75" height="12" viewBox="0 0 9.75 12">
  <g id="trash" transform="translate(-48)">
    <path id="パス_59347" data-name="パス 59347" d="M56.813,1.5H54.75V1.125A1.126,1.126,0,0,0,53.625,0h-1.5A1.126,1.126,0,0,0,51,1.125V1.5H48.938A.939.939,0,0,0,48,2.438V3.75a.375.375,0,0,0,.375.375h.2l.324,6.8A1.124,1.124,0,0,0,50.028,12h5.695a1.124,1.124,0,0,0,1.124-1.071l.324-6.8h.2a.375.375,0,0,0,.375-.375V2.438A.939.939,0,0,0,56.813,1.5ZM51.75,1.125A.375.375,0,0,1,52.125.75h1.5A.375.375,0,0,1,54,1.125V1.5H51.75Zm-3,1.313a.188.188,0,0,1,.188-.188h7.875A.188.188,0,0,1,57,2.438v.938H48.75ZM56.1,10.893a.375.375,0,0,1-.375.357H50.028a.375.375,0,0,1-.375-.357l-.322-6.768h7.088Z" fill="#fff"/>
    <path id="パス_59348" data-name="パス 59348" d="M240.375,213.625a.375.375,0,0,0,.375-.375v-4.875a.375.375,0,0,0-.75,0v4.875A.375.375,0,0,0,240.375,213.625Z" transform="translate(-187.5 -203.125)" fill="#fff"/>
    <path id="パス_59349" data-name="パス 59349" d="M320.375,213.625a.375.375,0,0,0,.375-.375v-4.875a.375.375,0,0,0-.75,0v4.875A.375.375,0,0,0,320.375,213.625Z" transform="translate(-265.625 -203.125)" fill="#fff"/>
    <path id="パス_59350" data-name="パス 59350" d="M160.375,213.625a.375.375,0,0,0,.375-.375v-4.875a.375.375,0,0,0-.75,0v4.875A.375.375,0,0,0,160.375,213.625Z" transform="translate(-109.375 -203.125)" fill="#fff"/>
  </g>
</svg>
