<svg xmlns="http://www.w3.org/2000/svg" width="12.33" height="11.985" viewBox="0 0 12.33 11.985">
  <g id="グループ_68934" data-name="グループ 68934" transform="translate(-1069.203 -600)">
    <g id="layer1" transform="translate(1068.829 308.898)">
      <path id="path9551" d="M1.748,293.4l-.222-.929a.583.583,0,1,0-1.134.271l.58,2.4a.582.582,0,0,0,.7.43l2.4-.575a.584.584,0,1,0-.275-1.135l-1.155.279a4.967,4.967,0,0,1,8.841,2.559.584.584,0,1,0,1.16-.125A6.209,6.209,0,0,0,6.2,291.1a6.261,6.261,0,0,0-4.455,2.3Zm7.244,5.776a.583.583,0,1,0,.272,1.134l1.154-.279a4.968,4.968,0,0,1-8.84-2.558.582.582,0,1,0-1.157.125,6.13,6.13,0,0,0,10.9,3.174l.225.93a.582.582,0,1,0,1.13-.271l-.577-2.4a.59.59,0,0,0-.656-.438Z" transform="translate(0 0)" fill="#fff"/>
    </g>
  </g>
</svg>
