<svg xmlns="http://www.w3.org/2000/svg" xmlns:xlink="http://www.w3.org/1999/xlink" width="279" height="82" viewBox="0 0 279 82">
  <defs>
    <linearGradient id="linear-gradient" x1="0.047" y1="0.05" x2="1" y2="1" gradientUnits="objectBoundingBox">
      <stop offset="0" stop-color="#49a4f8"/>
      <stop offset="1" stop-color="#803de4"/>
    </linearGradient>
    <clipPath id="clip-path">
      <path id="パス_59488" data-name="パス 59488" d="M5,0H270a5,5,0,0,1,5,5V73a5,5,0,0,1-5,5H5a5,5,0,0,1-5-5V5A5,5,0,0,1,5,0Z" transform="translate(149 894)" fill="#0c0c0c"/>
    </clipPath>
    <filter id="楕円形_3" x="-117.35" y="-50.5" width="272.409" height="272.409" filterUnits="userSpaceOnUse">
      <feOffset input="SourceAlpha"/>
      <feGaussianBlur stdDeviation="17.5" result="blur"/>
      <feFlood flood-color="#ab68f5" flood-opacity="0.569"/>
      <feComposite operator="in" in2="blur"/>
    </filter>
    <filter id="パス_59487" x="126.185" y="-132.166" width="257.339" height="257.339" filterUnits="userSpaceOnUse">
      <feOffset input="SourceAlpha"/>
      <feGaussianBlur stdDeviation="17.5" result="blur-2"/>
      <feFlood flood-color="#78a0fc" flood-opacity="0.569"/>
      <feComposite operator="in" in2="blur-2"/>
    </filter>
    <linearGradient id="linear-gradient-2" x1="0.916" y1="-0.033" x2="0.169" xlink:href="#linear-gradient"/>
  </defs>
  <g id="グループ_68998" data-name="グループ 68998" transform="translate(-467 -445)">
    <rect id="長方形_19675" data-name="長方形 19675" width="279" height="82" rx="6" transform="translate(467 445)" fill="url(#linear-gradient)"/>
    <path id="パス_59486" data-name="パス 59486" d="M5,0H270a5,5,0,0,1,5,5V73a5,5,0,0,1-5,5H5a5,5,0,0,1-5-5V5A5,5,0,0,1,5,0Z" transform="translate(469 447)" fill="#fff"/>
    <g id="マスクグループ_96" data-name="マスクグループ 96" transform="translate(320 -447)" clip-path="url(#clip-path)">
      <g transform="matrix(1, 0, 0, 1, 147, 892)" filter="url(#楕円形_3)">
        <circle id="楕円形_3-2" data-name="楕円形 3" cx="61" cy="61" r="61" transform="translate(102.56 106.57) rotate(149)" fill="#fff" opacity="0.73"/>
      </g>
      <g transform="matrix(1, 0, 0, 1, 147, 892)" filter="url(#パス_59487)">
        <path id="パス_59487-2" data-name="パス 59487" d="M61,0A61,61,0,1,1,0,61,61,61,0,0,1,61,0Z" transform="translate(331.02 37) rotate(163)" fill="#fff" opacity="0.73"/>
      </g>
    </g>
    <path id="パス_59542" data-name="パス 59542" d="M4.725-7.938,5.5-12.327h2.31c1.68,0,2.247.861,2.016,2.205A2.528,2.528,0,0,1,7.056-7.938Zm8.106-2.184c.441-2.541-.945-4.536-4.473-4.536h-5.4L.357,0H3.318L4.3-5.628H6.762C10.542-5.628,12.453-7.9,12.831-10.122Zm.588,4.263C12.768-2.226,14.7.189,17.64.189a5.557,5.557,0,0,0,4.2-1.89L21.525,0h2.961l2.058-11.634H23.583l-.294,1.659a3.731,3.731,0,0,0-3.507-1.848C16.821-11.823,14.049-9.492,13.419-5.859Zm9.135.042a3.877,3.877,0,0,1-3.675,3.423c-1.575,0-2.835-1.26-2.457-3.465A3.867,3.867,0,0,1,20.1-9.24C21.693-9.24,22.953-8.022,22.554-5.817Zm8.19,5.523L27.216,5.5h3.129L40.572-11.634H37.443L32.928-3.507l-1.554-8.127h-3.3ZM56.364,0h2.919L60.5-6.825c.567-3.213-1.092-4.977-3.885-4.977a5.589,5.589,0,0,0-4.389,2.226,3.627,3.627,0,0,0-3.7-2.226,5.149,5.149,0,0,0-3.7,1.554l.252-1.386H42.126L40.068,0h2.961L44.2-6.615A3.019,3.019,0,0,1,47.271-9.24c1.575,0,2.415.966,2.1,2.814L48.237,0h2.919l1.155-6.447v.021A3.028,3.028,0,0,1,55.419-9.24c1.554,0,2.394.966,2.079,2.814Zm12.39-9.408a2.137,2.137,0,0,1,2.31,2.625H65.52A3.4,3.4,0,0,1,68.754-9.408Zm4.494,5.754H70.077a2.883,2.883,0,0,1-2.562,1.407A2.227,2.227,0,0,1,65.205-5h8.5a8.291,8.291,0,0,0,.273-1.092c.609-3.444-1.365-5.733-4.725-5.733A6.905,6.905,0,0,0,62.37-5.817C61.7-2.163,63.777.189,67.158.189A6.67,6.67,0,0,0,73.248-3.654ZM83.2,0h2.919l1.218-6.825c.567-3.213-1.05-4.977-3.78-4.977a5.246,5.246,0,0,0-3.759,1.6l.252-1.428H77.091L75.033,0h2.961l1.155-6.573A3.085,3.085,0,0,1,82.257-9.3c1.554,0,2.394,1.008,2.079,2.877Zm6.825-3.612C89.565-.945,90.867,0,93.093,0h1.869L95.4-2.478H94.017c-.9,0-1.155-.336-1.029-1.113l.987-5.628h2.6L97-11.634H94.416l.5-2.877H91.959l-.5,2.877H90.048l-.42,2.415h1.386Z" transform="translate(626.5 495)"/>
    <g id="グループ_68983" data-name="グループ 68983" transform="translate(344)">
      <path id="交差_189" data-name="交差 189" d="M-3833.546-3190.1l4.06-23.073h4.788l-.392,2.212a6.723,6.723,0,0,1,2.253-1.764,6.685,6.685,0,0,1,3.01-.672,5.334,5.334,0,0,1,4.074,1.651,6.276,6.276,0,0,1,1.554,4.481,11.448,11.448,0,0,1-.168,1.876,10.853,10.853,0,0,1-1.652,4.242,8.9,8.9,0,0,1-2.969,2.828,7.273,7.273,0,0,1-3.668.994,5.237,5.237,0,0,1-2.744-.672,4.2,4.2,0,0,1-1.651-1.736l-1.708,9.632Zm8.988-18.088a4.814,4.814,0,0,0-1.512,2.827,5.734,5.734,0,0,0-.084.925,2.915,2.915,0,0,0,.784,2.156,2.729,2.729,0,0,0,2.015.783,3.87,3.87,0,0,0,2.618-1.05,4.851,4.851,0,0,0,1.527-2.842,5.06,5.06,0,0,0,.084-.868,2.92,2.92,0,0,0-.8-2.184,2.773,2.773,0,0,0-2.029-.784A3.852,3.852,0,0,0-3824.559-3208.184Zm26.264,10.052a5.807,5.807,0,0,1-2.422-2.3,6.778,6.778,0,0,1-.854-3.443,9.523,9.523,0,0,1,1.26-4.844,9.087,9.087,0,0,1,3.472-3.43,9.873,9.873,0,0,1,4.928-1.246,7.662,7.662,0,0,1,3.6.825,5.973,5.973,0,0,1,2.45,2.311,6.693,6.693,0,0,1,.868,3.444,9.413,9.413,0,0,1-1.275,4.858,9.075,9.075,0,0,1-3.5,3.4,10.036,10.036,0,0,1-4.942,1.232A7.678,7.678,0,0,1-3798.294-3198.132Zm3.57-10.43a4.728,4.728,0,0,0-1.414,1.862,5.912,5.912,0,0,0-.5,2.407,2.894,2.894,0,0,0,.728,2.114,2.516,2.516,0,0,0,1.877.742,3.4,3.4,0,0,0,2.113-.714,4.754,4.754,0,0,0,1.457-1.849,5.628,5.628,0,0,0,.518-2.365,2.915,2.915,0,0,0-.756-2.156,2.58,2.58,0,0,0-1.9-.756A3.329,3.329,0,0,0-3794.725-3208.562Zm-83.873,10.177a6.878,6.878,0,0,1-2.885-2.771,8.367,8.367,0,0,1-1.008-4.172,10.838,10.838,0,0,1,.2-2.072,12.208,12.208,0,0,1,2.17-5.194,11.714,11.714,0,0,1,4.13-3.556,11.411,11.411,0,0,1,5.32-1.274,8.445,8.445,0,0,1,5.671,1.847,7.142,7.142,0,0,1,2.449,5.04h-5.264a3.22,3.22,0,0,0-1.33-1.834,4.245,4.245,0,0,0-2.367-.63,5.417,5.417,0,0,0-3.836,1.527,7.087,7.087,0,0,0-2.072,4.074,7.909,7.909,0,0,0-.141,1.373,4.327,4.327,0,0,0,1.093,3.108,3.939,3.939,0,0,0,3,1.147,5.305,5.305,0,0,0,2.563-.644,5.637,5.637,0,0,0,2-1.848h5.264a11.214,11.214,0,0,1-4.228,5.026,11.383,11.383,0,0,1-6.328,1.834A9.362,9.362,0,0,1-3878.6-3198.385Zm71.651.841q-4.7,0-4.7-3.949a9.91,9.91,0,0,1,.14-1.484l1.12-6.216h-1.9l.7-3.976h1.9l.671-3.807h4.789l-.672,3.807h3.136l-.7,3.976h-3.136l-1.12,6.272a1.921,1.921,0,0,0-.028.364.857.857,0,0,0,.295.728,1.618,1.618,0,0,0,.966.224h1.708l-.728,4.06Zm-54.963,0,2.743-15.625h4.789l-.5,2.828a8.455,8.455,0,0,1,2.506-2.2,5.927,5.927,0,0,1,2.954-.8l-.9,5.068h-1.317a4.649,4.649,0,0,0-2.828.771,4.082,4.082,0,0,0-1.372,2.7l-1.288,7.252Zm12.992-15.625h5.32l1.9,9.773-3.529,5.319Z" transform="translate(4062.49 3691.424)"/>
      <path id="パス_59380" data-name="パス 59380" d="M3449.488,366.613l14.549-24.252h5.451L3454.9,366.613Z" transform="translate(-3237.74 135.387)" fill="url(#linear-gradient-2)"/>
    </g>
    <g id="グループ_68982" data-name="グループ 68982" transform="translate(214.13 357.627)">
      <path id="パス_59385" data-name="パス 59385" d="M31.158,1,19.824,9.386l2.108-4.942Z" transform="translate(267.648 115.373)" fill="#e17726" stroke="#e17726" stroke-linecap="round" stroke-linejoin="round" stroke-width="0.25"/>
      <path id="パス_59386" data-name="パス 59386" d="M2.663,1,13.9,9.464l-2.007-5.02Z" transform="translate(270 115.373)" fill="#e27625" stroke="#e27625" stroke-linecap="round" stroke-linejoin="round" stroke-width="0.25"/>
      <path id="パス_59387" data-name="パス 59387" d="M27.75,23.533,24.735,28.14l6.457,1.778,1.85-6.284Z" transform="translate(266.975 112.284)" fill="#e27625" stroke="#e27625" stroke-linecap="round" stroke-linejoin="round" stroke-width="0.25"/>
      <path id="パス_59388" data-name="パス 59388" d="M1.273,23.634l1.838,6.284L9.557,28.14l-3-4.607Z" transform="translate(270.191 112.284)" fill="#e27625" stroke="#e27625" stroke-linecap="round" stroke-linejoin="round" stroke-width="0.25"/>
      <path id="パス_59389" data-name="パス 59389" d="M10.185,13.9,8.392,16.6l6.39.291-.213-6.877Z" transform="translate(269.215 114.137)" fill="#e27625" stroke="#e27625" stroke-linecap="round" stroke-linejoin="round" stroke-width="0.25"/>
      <path id="パス_59390" data-name="パス 59390" d="M24.42,13.886,19.97,9.928l-.146,6.955,6.39-.291Z" transform="translate(267.648 114.149)" fill="#e27625" stroke="#e27625" stroke-linecap="round" stroke-linejoin="round" stroke-width="0.25"/>
      <path id="パス_59391" data-name="パス 59391" d="M10.873,28.163,14.741,26.3,11.411,23.7Z" transform="translate(268.875 112.261)" fill="#e27625" stroke="#e27625" stroke-linecap="round" stroke-linejoin="round" stroke-width="0.25"/>
      <path id="パス_59392" data-name="パス 59392" d="M20.266,26.3l3.856,1.867L23.6,23.7Z" transform="translate(267.587 112.261)" fill="#e27625" stroke="#e27625" stroke-linecap="round" stroke-linejoin="round" stroke-width="0.25"/>
      <path id="パス_59393" data-name="パス 59393" d="M24.122,28.576l-3.856-1.867.314,2.5-.034,1.062Z" transform="translate(267.587 111.849)" fill="#d5bfb2" stroke="#d5bfb2" stroke-linecap="round" stroke-linejoin="round" stroke-width="0.25"/>
      <path id="パス_59394" data-name="パス 59394" d="M10.873,28.576l3.587,1.7-.022-1.062.3-2.5Z" transform="translate(268.875 111.849)" fill="#d5bfb2" stroke="#d5bfb2" stroke-linecap="round" stroke-linejoin="round" stroke-width="0.25"/>
      <path id="パス_59395" data-name="パス 59395" d="M14.6,21.47l-3.206-.939,2.264-1.04Z" transform="translate(268.804 112.838)" fill="#233447" stroke="#233447" stroke-linecap="round" stroke-linejoin="round" stroke-width="0.25"/>
      <path id="パス_59396" data-name="パス 59396" d="M20.513,21.47l.942-1.979,2.276,1.04Z" transform="translate(267.553 112.838)" fill="#233447" stroke="#233447" stroke-linecap="round" stroke-linejoin="round" stroke-width="0.25"/>
      <path id="パス_59397" data-name="パス 59397" d="M10.4,28.14l.561-4.607-3.565.1Z" transform="translate(269.352 112.284)" fill="#cc6228" stroke="#cc6228" stroke-linecap="round" stroke-linejoin="round" stroke-width="0.25"/>
      <path id="パス_59398" data-name="パス 59398" d="M24.1,23.533l.549,4.607,3.016-4.506Z" transform="translate(267.062 112.284)" fill="#cc6228" stroke="#cc6228" stroke-linecap="round" stroke-linejoin="round" stroke-width="0.25"/>
      <path id="パス_59399" data-name="パス 59399" d="M26.214,17.651l-6.39.291.594,3.276.942-1.979,2.276,1.04Z" transform="translate(267.648 113.091)" fill="#cc6228" stroke="#cc6228" stroke-linecap="round" stroke-linejoin="round" stroke-width="0.25"/>
      <path id="パス_59400" data-name="パス 59400" d="M10.981,20.278l2.264-1.04.942,1.979.594-3.276-6.39-.291Z" transform="translate(269.215 113.091)" fill="#cc6228" stroke="#cc6228" stroke-linecap="round" stroke-linejoin="round" stroke-width="0.25"/>
      <path id="パス_59401" data-name="パス 59401" d="M8.392,17.651l2.679,5.222-.09-2.594Z" transform="translate(269.215 113.091)" fill="#e27525" stroke="#e27525" stroke-linecap="round" stroke-linejoin="round" stroke-width="0.25"/>
      <path id="パス_59402" data-name="パス 59402" d="M24.225,20.278l-.1,2.594L26.8,17.651Z" transform="translate(267.058 113.091)" fill="#e27525" stroke="#e27525" stroke-linecap="round" stroke-linejoin="round" stroke-width="0.25"/>
      <path id="パス_59403" data-name="パス 59403" d="M15.7,17.987l-.594,3.276.751,3.869.168-5.1Z" transform="translate(268.294 113.044)" fill="#e27525" stroke="#e27525" stroke-linecap="round" stroke-linejoin="round" stroke-width="0.25"/>
      <path id="パス_59404" data-name="パス 59404" d="M19.774,17.987l-.314,2.035.157,5.11.751-3.869Z" transform="translate(267.698 113.044)" fill="#e27525" stroke="#e27525" stroke-linecap="round" stroke-linejoin="round" stroke-width="0.25"/>
      <path id="パス_59405" data-name="パス 59405" d="M20.393,21.635,19.642,25.5l.538.38L23.51,23.29l.1-2.594Z" transform="translate(267.673 112.673)" fill="#f5841f" stroke="#f5841f" stroke-linecap="round" stroke-linejoin="round" stroke-width="0.25"/>
      <path id="パス_59406" data-name="パス 59406" d="M11.393,20.7l.09,2.594,3.329,2.594.538-.38L14.6,21.635Z" transform="translate(268.804 112.673)" fill="#f5841f" stroke="#f5841f" stroke-linecap="round" stroke-linejoin="round" stroke-width="0.25"/>
      <path id="パス_59407" data-name="パス 59407" d="M19.259,30.572l.034-1.062L19,29.263H14.718l-.28.246.022,1.062-3.587-1.7L12.129,29.9l2.545,1.756h4.361L21.59,29.9l1.244-1.029Z" transform="translate(268.875 111.552)" fill="#c0ac9d" stroke="#c0ac9d" stroke-linecap="round" stroke-linejoin="round" stroke-width="0.25"/>
      <path id="パス_59408" data-name="パス 59408" d="M19.545,26.648l-.538-.38H15.845l-.538.38-.3,2.5.28-.246h4.282l.291.246Z" transform="translate(268.309 111.909)" fill="#161616" stroke="#161616" stroke-linecap="round" stroke-linejoin="round" stroke-width="0.25"/>
      <path id="パス_59409" data-name="パス 59409" d="M31.7,9.934,32.653,5.3,31.218,1,20.266,9.107l4.215,3.556L30.434,14.4l1.312-1.532-.572-.414.908-.827-.695-.537.908-.693Z" transform="translate(267.587 115.373)" fill="#763e1a" stroke="#763e1a" stroke-linecap="round" stroke-linejoin="round" stroke-width="0.25"/>
      <path id="パス_59410" data-name="パス 59410" d="M1,5.3l.964,4.629-.617.458.919.693-.7.537.908.827-.572.414L3.22,14.4l5.953-1.733,4.215-3.556L2.435,1Z" transform="translate(270.228 115.373)" fill="#763e1a" stroke="#763e1a" stroke-linecap="round" stroke-linejoin="round" stroke-width="0.25"/>
      <path id="パス_59411" data-name="パス 59411" d="M30.963,16.248,25.01,14.515,26.8,17.221l-2.679,5.222,3.542-.045h5.291Z" transform="translate(267.058 113.52)" fill="#f5841f" stroke="#f5841f" stroke-linecap="round" stroke-linejoin="round" stroke-width="0.25"/>
      <path id="パス_59412" data-name="パス 59412" d="M9.21,14.515,3.257,16.248,1.273,22.4h5.28l3.542.045L7.416,17.221Z" transform="translate(270.191 113.52)" fill="#f5841f" stroke="#f5841f" stroke-linecap="round" stroke-linejoin="round" stroke-width="0.25"/>
      <path id="パス_59413" data-name="パス 59413" d="M18.937,16.206l.381-6.552,1.726-4.663h-7.69l1.726,4.663.381,6.552.146,2.057.011,5.088H18.78l.011-5.088Z" transform="translate(268.535 114.826)" fill="#f5841f" stroke="#f5841f" stroke-linecap="round" stroke-linejoin="round" stroke-width="0.25"/>
    </g>
  </g>
</svg>
