<?xml version="1.0" encoding="utf-8"?>
<!-- Generator: Adobe Illustrator 27.0.1, SVG Export Plug-In . SVG Version: 6.00 Build 0)  -->
<svg version="1.1" id="_レイヤー_1" xmlns="http://www.w3.org/2000/svg" xmlns:xlink="http://www.w3.org/1999/xlink" x="0px"
	 y="0px" viewBox="0 0 100 100" style="enable-background:new 0 0 100 100;" xml:space="preserve">
<g>
	<path d="M50,10c-22.1,0-40,17.9-40,40c0,22.1,17.9,40,40,40c22.1,0,40-17.9,40-40C90,27.9,72.1,10,50,10z M50,84
		c-18.7,0-34-15.3-34-34s15.3-34,34-34s34,15.3,34,34S68.7,84,50,84z"/>
	<path d="M67.1,47H53V32.9c0-1.7-1.3-3-3-3s-3,1.3-3,3V47H32.9c-1.7,0-3,1.3-3,3s1.3,3,3,3H47v14.1c0,1.7,1.3,3,3,3s3-1.3,3-3V53
		h14.1c1.7,0,3-1.3,3-3S68.7,47,67.1,47z"/>
</g>
</svg>
