<?xml version="1.0" encoding="UTF-8"?>
<svg id="uuid-4334fd92-2e02-4265-90a2-c05df6055ab5" data-name="レイヤー 1" xmlns="http://www.w3.org/2000/svg" viewBox="0 0 100 100">
  <path d="M27.18,52.12l22.84-16.34,22.84,16.34c1.35,.96,3.22,.65,4.19-.69,.96-1.35,.65-3.22-.69-4.19l-24.59-17.59c-1.05-.75-2.44-.75-3.49,0l-24.59,17.59c-1.35,.96-1.66,2.84-.69,4.19,.96,1.35,2.84,1.66,4.19,.69h0Z"/>
  <path d="M27.12,70.35l22.83-16.35,22.79,16.29c1.35,.96,3.22,.65,4.19-.7,.96-1.35,.65-3.22-.7-4.19l-24.53-17.54c-1.05-.75-2.45-.75-3.49,0l-24.58,17.6c-1.35,.96-1.66,2.84-.69,4.19,.96,1.35,2.84,1.66,4.19,.69h0Z"/>
</svg>