<?xml version="1.0" encoding="UTF-8"?>
<svg id="uuid-7d8758d4-f530-4b67-86ed-45d688f8b813" data-name="レイヤー 1" xmlns="http://www.w3.org/2000/svg" viewBox="0 0 100 100">
  <path d="M72.82,47.88l-22.84,16.34-22.84-16.34c-1.35-.96-3.22-.65-4.19,.69-.96,1.35-.65,3.22,.69,4.19l24.59,17.59c1.05,.75,2.44,.75,3.49,0l24.59-17.59c1.35-.96,1.66-2.84,.69-4.19-.96-1.35-2.84-1.66-4.19-.69h0Z"/>
  <path d="M72.87,29.65l-22.83,16.35L27.25,29.71c-1.35-.96-3.22-.65-4.19,.7-.96,1.35-.65,3.22,.7,4.19l24.53,17.54c1.05,.75,2.45,.75,3.49,0l24.58-17.6c1.35-.96,1.66-2.84,.69-4.19-.96-1.35-2.84-1.66-4.19-.69h0Z"/>
</svg>