<?xml version="1.0" encoding="UTF-8"?>
<svg id="uuid-cd11082a-34bf-45af-8c76-7a08fc5079a9" data-name="レイヤー 1" xmlns="http://www.w3.org/2000/svg" viewBox="0 0 100 100">
  <path id="uuid-cdfc8632-cdb7-4dee-a5d5-99f58489fbc4" data-name="check-mark" d="M90,50c0,22.09-17.91,40-40,40S10,72.09,10,50,27.91,10,50,10c22.08-.01,39.99,17.88,40,39.96v.04h0Zm-6.25,0c0-18.64-15.11-33.75-33.75-33.75S16.25,31.36,16.25,50s15.11,33.75,33.75,33.75h0c18.63,.01,33.74-15.08,33.75-33.71v-.04h0Z"/>
  <path d="M33.77,53.43l14.11,14.11c1.17,1.17,3.07,1.17,4.24,0l14.11-14.11c1.17-1.17,1.17-3.07,0-4.24-1.17-1.17-3.07-1.17-4.24,0h0l-8.99,8.99v-23.59c0-1.66-1.34-3-3-3s-3,1.34-3,3v23.59l-8.99-8.99c-1.17-1.17-3.07-1.17-4.24,0-1.17,1.17-1.17,3.07,0,4.24Z"/>
</svg>