<?xml version="1.0" encoding="UTF-8"?>
<svg id="_イヤー_1" data-name="レイヤー 1" xmlns="http://www.w3.org/2000/svg" viewBox="0 0 100 100">
  <path id="warning" d="M50,11.77C28.89,11.77,11.77,28.89,11.77,50s17.12,38.23,38.23,38.23,38.23-17.12,38.23-38.23h0c0-21.11-17.12-38.23-38.23-38.23Zm0,62.56c-1.92,0-3.48-1.56-3.48-3.48,0-1.92,1.56-3.48,3.48-3.48,1.92,0,3.48,1.56,3.48,3.48s-1.56,3.48-3.48,3.48h0Zm6.57-41.36l-3.09,27.83c-.22,1.91-1.95,3.27-3.86,3.05-1.6-.19-2.86-1.45-3.05-3.05l-3.12-27.83c-.2-1.86,.39-3.72,1.64-5.12,2.59-2.71,6.89-2.8,9.6-.21,.07,.07,.14,.14,.21,.21,1.25,1.39,1.85,3.26,1.65,5.12h.02Z" />
</svg>
