<?xml version="1.0" encoding="UTF-8"?>
<svg id="_イヤー_1" data-name="レイヤー 1" xmlns="http://www.w3.org/2000/svg" viewBox="0 0 100 100">
  <path id="check-mark" d="M67.68,37.31c1.22,1.22,1.22,3.2,0,4.42l-20.96,20.97c-1.22,1.22-3.2,1.22-4.42,0l-9.98-9.98c-1.17-1.27-1.08-3.25,.19-4.42,1.2-1.1,3.03-1.1,4.23,0l7.77,7.77,18.75-18.76c1.22-1.22,3.2-1.22,4.42,0Zm22.32,12.69c0,22.09-17.91,40-40,40-22.09,0-40-17.91-40-40,0-22.09,17.91-40,40-40,22.08-.01,39.99,17.88,40,39.96,0,.01,0,.03,0,.04h0Zm-6.25,0c0-18.64-15.11-33.75-33.75-33.75-18.64,0-33.75,15.11-33.75,33.75,0,18.64,15.11,33.75,33.75,33.75h0c18.63,.01,33.74-15.08,33.75-33.71,0-.01,0-.03,0-.04h0Z" />
</svg>
