<?xml version="1.0" encoding="UTF-8"?>
<svg id="_イヤー_1" data-name="レイヤー 1" xmlns="http://www.w3.org/2000/svg" viewBox="0 0 100 100">
  <g id="_ループ_67289" data-name="グループ 67289" transform="translate(0 2.665)">
    <g id="_ループ_67288" data-name="グループ 67288">
      <path id="_ス_57724" data-name="パス 57724" d="M67.54,23.69H17.85c-4.85,0-8.78,3.93-8.78,8.78v49.69c0,4.85,3.93,8.78,8.78,8.78h49.69c4.85,0,8.78-3.93,8.78-8.78V32.46c0-4.85-3.93-8.78-8.78-8.78h0Zm2.92,58.47c0,1.61-1.31,2.92-2.92,2.92H17.85c-1.61,0-2.92-1.31-2.92-2.92V32.46c0-1.61,1.31-2.92,2.92-2.92h49.69c1.61,0,2.92,1.31,2.92,2.92v49.69Z" />
    </g>
  </g>
  <g id="_ループ_67291" data-name="グループ 67291" transform="translate(2.132)">
    <g id="_ループ_67290" data-name="グループ 67290">
      <path id="_ス_57725" data-name="パス 57725" d="M82.16,9.07H29.54c-4.85,0-8.78,3.93-8.78,8.78,0,1.61,1.31,2.92,2.92,2.92s2.92-1.31,2.92-2.92,1.31-2.92,2.92-2.92h52.62c1.61,0,2.92,1.31,2.92,2.92v52.62c0,1.61-1.31,2.92-2.92,2.92-1.61,0-2.92,1.31-2.92,2.92,0,1.61,1.31,2.92,2.92,2.92,4.85,0,8.78-3.93,8.78-8.78V17.84c0-4.84-3.93-8.77-8.77-8.78Z" />
    </g>
  </g>
</svg>
