<?xml version="1.0" encoding="UTF-8"?>
<svg id="_イヤー_1" data-name="レイヤー 1" xmlns="http://www.w3.org/2000/svg" viewBox="0 0 100 100">
  <circle cx="50" cy="50" r="40" style="fill: #7f3799;"/>
  <path d="M63.2,58.18c0,2.67-1.01,5.01-3.03,7.03-2.02,2.02-4.69,3.16-8.02,3.42v4.05h-2.9v-4.05c-3.4-.23-6.12-1.23-8.17-3-2.05-1.77-3.08-4.15-3.08-7.15h7.5c.2,2.53,1.45,4.02,3.75,4.45v-9.55c-3.4-.9-5.7-1.68-6.9-2.35-2.9-1.6-4.35-4.15-4.35-7.65,0-2.9,1.06-5.29,3.17-7.17,2.12-1.88,4.81-2.96,8.08-3.23v-4.05h2.9v4.05c3.23,.2,5.81,1.12,7.72,2.77,1.92,1.65,2.96,4.04,3.12,7.18h-7.35c-.1-1-.46-1.87-1.08-2.6-.62-.73-1.42-1.25-2.42-1.55v9.45c3.4,.87,5.73,1.67,7,2.4,2.7,1.6,4.05,4.12,4.05,7.55Zm-17.9-15.25c0,2.07,1.32,3.55,3.95,4.45v-8.7c-2.63,.4-3.95,1.82-3.95,4.25Zm10.65,15.65c0-1.93-1.27-3.38-3.8-4.35v8.7c1.2-.23,2.13-.74,2.8-1.52,.67-.78,1-1.73,1-2.83Z" style="fill: #fff;"/>
</svg>