<?xml version="1.0" encoding="UTF-8"?>
<svg id="_イヤー_1" data-name="レイヤー 1" xmlns="http://www.w3.org/2000/svg" viewBox="0 0 100 100">
  <ellipse cx="50" cy="50" rx="41" ry="40.23" style="fill: #b12646;"/>
  <path d="M39.49,63.84c-.2-.17-.83-.25-1.89-.25-.27,0-.52,.01-.75,.04-.23,.02-.5,.21-.82,.54-.32,.34-.48,.62-.48,.86l.04,.15c.27,.41,1.03,.62,2.26,.62,.38,0,.73-.03,1.06-.09l2.34-.53-.39,1.76c-.98,.18-1.73,.37-2.26,.56-.82,.3-1.69,.73-2.63,1.29-.84,.51-1.25,.76-1.22,.76-.16,.02-.24-.04-.24-.18,0-.23,.22-.65,.65-1.27,.37-.51,.6-.79,.69-.85-.14,0-.45-.08-.93-.25-.57-.19-.87-.37-.89-.53-.11-.91,.33-1.92,1.33-3.03,1-1.11,2-1.66,2.98-1.66,.31,0,.66,.05,1.06,.16,.57,.15,.88,.22,.93,.22l-.82,1.69Zm-.45-7.82l-3.89,5.71v-23.59l3.89-5.15v23.02Z" style="fill: #fff;"/>
  <path d="M49.82,58.52c0,.91-.32,1.68-.96,2.29-.64,.62-1.42,.92-2.34,.92s-1.69-.31-2.32-.92c-.63-.62-.94-1.38-.94-2.29s.31-1.68,.94-2.29c.63-.62,1.4-.93,2.32-.93s1.69,.31,2.34,.93c.64,.62,.96,1.38,.96,2.29Z" style="fill: #fff;"/>
  <path d="M69.42,57.84c0,.29-.03,.69-.09,1.19-.06,.5-.25,.8-.57,.9-.32,.1-1,.27-2.07,.51-1.06,.24-2.12,.48-3.17,.71-1.75,.39-3.34,.58-4.74,.58-1.47-.04-2.59-.4-3.37-1.09-.68-.4-1.01-1.42-.98-3.07,0-.21,0-.54,.02-.99,.01-.46,.1-1.18,.28-2.16s.32-1.65,.45-1.98c.12-.33,.25-.5,.39-.5l.07,.02,.13,1.35c.04,1.3,.38,2.1,1.02,2.42,.88,.36,1.75,.55,2.63,.55,.51,0,1.06-.02,1.65-.06,.59-.04,1.37-.17,2.32-.39,1.89-.38,2.83-.67,2.83-.87,0-.61-.42-2.07-1.26-4.38-.74-1.73-1.57-3.07-2.48-4.02l2.54-4.66c1.07,1.18,2.04,2.99,2.89,5.46,1.01,2.91,1.52,6.41,1.52,10.51Z" style="fill: #fff;"/>
</svg>