<?xml version="1.0" encoding="UTF-8"?>
<svg id="_イヤー_1" data-name="レイヤー 1" xmlns="http://www.w3.org/2000/svg" viewBox="0 0 100 100">
  <circle cx="50" cy="50" r="40.23" style="fill: #379964;"/>
  <path d="M52.36,57.17h-9.2c.91,1.61,2.15,2.87,3.75,3.77s3.41,1.36,5.46,1.36c3.75,0,6.44-1.54,8.05-4.63h8.5c-1.27,3.52-3.39,6.24-6.36,8.17-2.97,1.93-6.38,2.89-10.23,2.89s-7.32-1.05-10.38-3.14-5.22-4.9-6.46-8.42h-4.42v-4.53h3.47c-.07-.8-.1-1.42-.1-1.84s.03-1.03,.1-1.83h-3.47v-4.63h4.48c1.27-3.49,3.44-6.28,6.49-8.37,3.05-2.09,6.49-3.14,10.33-3.14s7.24,.97,10.21,2.92c2.97,1.94,5.09,4.68,6.36,8.2h-8.5c-1.58-3.08-4.35-4.63-8.32-4.63s-6.95,1.68-8.93,5.03h9.2v4.63h-10.66c-.07,.8-.1,1.42-.1,1.83s.03,1.03,.1,1.84h10.66v4.53Z" style="fill: #fff;"/>
</svg>