<?xml version="1.0" encoding="UTF-8"?>
<svg id="_イヤー_1" data-name="レイヤー 1" xmlns="http://www.w3.org/2000/svg" viewBox="0 0 100 100">
  <path d="M85.17,62.61c-17.66,8.69-39.13,1.63-47.82-16.03-5.16-10.05-5.16-22.01,0-32.06,.54-1.09,.27-2.45-.54-3.26-.82-.82-2.17-1.09-3.26-.54C12.89,21.04,4.47,45.76,14.79,66.41c10.32,20.65,35.05,29.07,55.7,18.75,8.15-4.08,14.67-10.6,18.75-18.75,.82-1.36,.27-3.26-1.36-3.8-1.09-.54-1.9-.54-2.72,0Zm-33.42,21.19c-19.84,0-35.87-16.03-35.87-35.59,0-10.6,4.62-20.65,12.77-27.44-5.43,22.28,7.88,44.83,30.16,50.27,3.26,.82,6.79,1.36,10.05,1.36s6.79-.27,10.05-1.36c-6.52,7.88-16.57,12.77-27.17,12.77Z" />
</svg>
