<?xml version="1.0" encoding="UTF-8"?>
<svg id="_イヤー_1" data-name="レイヤー 1" xmlns="http://www.w3.org/2000/svg" viewBox="0 0 100 100">
  <path id="Multiply" d="M50,10C27.91,10,10,27.91,10,50s17.91,40,40,40,40-17.91,40-40c-.03-22.08-17.92-39.97-40-40Zm0,75c-19.33,0-35-15.67-35-35S30.67,15,50,15s35,15.67,35,35c-.02,19.32-15.68,34.98-35,35Zm14.27-45.73l-10.73,10.73,10.73,10.73c1.01,.94,1.06,2.52,.12,3.53-.94,1.01-2.52,1.06-3.53,.12-.04-.04-.08-.08-.12-.12l-10.73-10.73-10.74,10.74c-.94,1.01-2.52,1.06-3.53,.12-1.01-.94-1.06-2.52-.12-3.53,.04-.04,.08-.08,.12-.12l10.73-10.73-10.74-10.74c-.94-1.01-.89-2.59,.12-3.53,.96-.9,2.45-.9,3.41,0l10.73,10.73,10.73-10.73c1.01-.94,2.59-.89,3.53,.12,.9,.96,.9,2.45,0,3.41h0Z" />
</svg>
