<?xml version="1.0" encoding="utf-8"?>
<!-- Generator: Adobe Illustrator 26.5.0, SVG Export Plug-In . SVG Version: 6.00 Build 0)  -->
<svg version="1.1" id="_イヤー_1" xmlns="http://www.w3.org/2000/svg" xmlns:xlink="http://www.w3.org/1999/xlink" x="0px"
	 y="0px" viewBox="0 0 100 100" style="enable-background:new 0 0 100 100;" xml:space="preserve">
<g id="_ループ_68909" transform="translate(0 0)">
	<g id="_ループ_68908">
		<path id="_ス_59320" d="M79.8,48.4v26.8c0,1.7-1.3,3-3,3H23.2c-1.6,0-3-1.3-3-3V48.4c-0.1-1.7-1.4-2.9-3.1-2.9
			c-1.6,0-2.8,1.3-2.9,2.9v26.8c0,4.9,4,8.9,8.9,9h53.7c4.9,0,8.9-4,8.9-9V48.4c0-1.7-1.3-3-3-3S79.8,46.8,79.8,48.4L79.8,48.4z"/>
	</g>
</g>
<g id="_ループ_68911" transform="translate(6.62 4.138)">
	<g id="_ループ_68910">
		<path id="_ス_59321" d="M45.5,55.7l17.9-18.1c1.2-1.2,1.1-3.1,0-4.2c-1.2-1.2-3.1-1.1-4.2,0l0,0l-12.8,13V11.6c0-1.7-1.3-3-3-3
			s-3,1.3-3,3v34.7l-12.8-13c-1.2-1.2-3.1-1.2-4.2,0s-1.2,3,0,4.2l17.9,18.1C42.4,56.9,44.3,56.9,45.5,55.7L45.5,55.7L45.5,55.7
			L45.5,55.7z"/>
	</g>
</g>
</svg>
