<?xml version="1.0" encoding="UTF-8"?>
<svg id="_イヤー_1" data-name="レイヤー 1" xmlns="http://www.w3.org/2000/svg" viewBox="0 0 100 100">
  <g>
    <path d="M59.87,24.03H13.16c-1.64,0-2.97-1.33-2.97-2.97s1.33-2.97,2.97-2.97H59.87c1.64,0,2.97,1.33,2.97,2.97s-1.33,2.97-2.97,2.97Z" />
    <path d="M36.52,24.03c-1.64,0-2.97-1.33-2.97-2.97V11.97c0-1.64,1.33-2.97,2.97-2.97s2.97,1.33,2.97,2.97v9.09c0,1.64-1.33,2.97-2.97,2.97Z" />
    <path d="M15.26,62.53c-1.19,0-2.31-.72-2.76-1.89-.59-1.53,.16-3.24,1.69-3.84,29.19-11.36,32.84-35,32.87-35.24,.23-1.62,1.73-2.75,3.35-2.52,1.62,.23,2.75,1.73,2.52,3.35-.04,.28-1.04,7.07-6.09,15.37-4.61,7.58-13.64,18-30.5,24.56-.35,.14-.72,.2-1.07,.2Z" />
    <path d="M57.18,62.53c-.36,0-.72-.07-1.07-.2-19.63-7.64-29.46-21.89-32-26.08-.85-1.4-.41-3.22,.99-4.07,1.4-.85,3.22-.41,4.07,.99,2.3,3.78,11.19,16.67,29.09,23.63,1.53,.59,2.28,2.31,1.69,3.84-.46,1.17-1.58,1.89-2.76,1.89Z" />
  </g>
  <g>
    <path d="M86.84,90.99c-1.18,0-2.29-.7-2.75-1.86l-16.27-40.55-16.27,40.55c-.61,1.52-2.34,2.26-3.86,1.65-1.52-.61-2.26-2.34-1.65-3.86l19.03-47.41c.45-1.12,1.54-1.86,2.75-1.86s2.3,.74,2.75,1.86l19.03,47.41c.61,1.52-.13,3.25-1.65,3.86-.36,.15-.74,.21-1.1,.21Z" />
    <path d="M80.18,75.59h-25.22c-1.64,0-2.97-1.33-2.97-2.97s1.33-2.97,2.97-2.97h25.22c1.64,0,2.97,1.33,2.97,2.97s-1.33,2.97-2.97,2.97Z" />
  </g>
</svg>
