<?xml version="1.0" encoding="UTF-8"?>
<svg id="_イヤー_1" data-name="レイヤー 1" xmlns="http://www.w3.org/2000/svg" viewBox="0 0 100 100">
  <path d="M64.71,35.51c-3.89-3.89-9.17-6.12-14.45-6.12-5.56,0-10.84,2.22-14.45,6.12-8.06,8.06-8.06,21.13,0,29.19,3.89,3.89,9.17,6.12,14.45,6.12,5.56,0,10.84-2.22,14.45-6.12,3.89-3.89,6.12-9.17,6.12-14.45,0-5.56-2.22-10.84-6.12-14.73Zm-4.17,25.3c-5.84,6.12-15.57,6.12-21.4,.28-6.12-5.84-6.12-15.57-.28-21.4,5.84-6.12,15.57-6.12,21.4-.28,3.06,2.78,4.45,6.67,4.45,10.84,.28,3.89-1.11,7.51-4.17,10.56Z" />
  <path d="M88.35,47.36h-8.34c-1.67,0-2.78,1.39-2.78,2.78,0,1.67,1.39,2.78,2.78,2.78h8.34c1.67,0,2.78-1.39,2.78-2.78,0-1.67-1.39-2.78-2.78-2.78Z" />
  <path d="M50.14,77.23c-1.67,0-2.78,1.39-2.78,2.78v8.34c0,1.67,1.39,2.78,2.78,2.78s2.78-1.39,2.78-2.78v-8.34c0-1.67-1.39-2.78-2.78-2.78Z" />
  <path d="M78.92,75.3l-6.12-6.12c-1.11-1.11-2.78-1.11-3.89,0-1.11,1.11-1.11,2.78,0,3.89l6.12,6.12c1.11,1.11,2.78,1.11,3.89,0,1.11-1.11,1.11-3.06,0-3.89Z" />
  <path d="M50.14,8.87c-1.67,0-2.78,1.39-2.78,2.78v8.34c0,1.67,1.39,2.78,2.78,2.78s2.78-1.39,2.78-2.78V11.65c0-1.39-1.39-2.78-2.78-2.78Z" />
  <path d="M79.27,21.07c-1.11-1.11-2.78-1.11-3.89,0l-6.12,6.12c-1.11,1.11-1.11,2.78,0,3.89,1.11,1.11,2.78,1.11,3.89,0l6.12-6.12c.83-1.11,.83-2.78,0-3.89Z" />
  <path d="M19.99,47.36H11.65c-1.67,0-2.78,1.39-2.78,2.78,0,1.67,1.11,2.78,2.78,2.78h8.34c1.67,0,2.78-1.39,2.78-2.78,.28-1.67-1.11-2.78-2.78-2.78Z" />
  <path d="M30.73,69.19c-1.11-1.11-2.78-1.11-3.89,0l-6.12,6.12c-1.11,1.11-1.11,2.78,0,3.89,1.11,1.11,2.78,1.11,3.89,0l6.12-6.12c1.11-1.11,1.11-2.78,0-3.89Z" />
  <path d="M30.73,26.91l-6.12-6.12c-1.11-1.11-2.78-1.11-3.89,0-1.11,1.11-1.11,2.78,0,3.89l6.12,6.12c1.11,1.11,2.78,1.11,3.89,0,1.11-1.11,1.11-2.78,0-3.89Z" />
</svg>
