<?xml version="1.0" encoding="UTF-8"?>
<svg id="_イヤー_1" data-name="レイヤー 1" xmlns="http://www.w3.org/2000/svg" viewBox="0 0 100 100">
  <path id="link" d="M29.79,89.26c-5.05,0-9.88-2.04-13.42-5.64-3.78-3.7-5.82-8.83-5.63-14.11,.35-5.78,2.91-11.2,7.13-15.15l8.02-8.06c1.2-1.2,3.14-1.21,4.34,0,1.2,1.2,1.21,3.14,0,4.34h0l-8.03,8.06c-6.5,6.5-7.12,14.97-1.5,20.59,5.62,5.62,14.09,5.01,20.59-1.49l11.03-11.03c3.12-2.86,5.02-6.81,5.33-11.03,.12-3.58-1.27-7.05-3.84-9.55-.86-.86-1.82-1.6-2.87-2.2-1.47-.84-1.99-2.71-1.15-4.18,.84-1.47,2.71-1.99,4.18-1.15,1.53,.87,2.93,1.95,4.18,3.2,3.78,3.71,5.82,8.83,5.63,14.12-.35,5.77-2.9,11.19-7.12,15.14l-11.03,11.03c-3.95,4.22-9.37,6.77-15.14,7.13h-.71Zm20.41-29.06c.84-1.47,.32-3.35-1.15-4.18-1.05-.6-2.02-1.34-2.87-2.2-5.62-5.62-5.01-14.09,1.49-20.59l11.03-11.03c6.5-6.5,14.97-7.11,20.59-1.49,5.62,5.62,5.01,14.09-1.5,20.59l-8.03,8.06c-1.2,1.2-1.19,3.14,0,4.34,1.2,1.2,3.14,1.19,4.34,0l8.02-8.06c4.23-3.95,6.78-9.36,7.14-15.14,.19-5.29-1.85-10.41-5.63-14.12-3.71-3.78-8.84-5.83-14.13-5.63-5.77,.35-11.19,2.9-15.14,7.12l-11.03,11.03c-4.22,3.95-6.77,9.37-7.12,15.14-.2,5.29,1.85,10.43,5.63,14.13,1.24,1.25,2.65,2.32,4.18,3.2,1.47,.84,3.34,.33,4.18-1.14h0v-.02Z" />
</svg>
