<?xml version="1.0" encoding="UTF-8"?>
<svg id="_イヤー_1" data-name="レイヤー 1" xmlns="http://www.w3.org/2000/svg" viewBox="0 0 100 100">
  <path d="M51.29,88.15c.05,.73-.5,1.36-1.23,1.42h-.06c-.73-.01-1.31-.62-1.29-1.35v-22.13c-.05-.73,.5-1.36,1.23-1.42h.06c.73,.01,1.31,.62,1.29,1.35v22.13Z" style="fill: #9b9b9b;"/>
  <path d="M90,49.7c.04,.67-.47,1.25-1.14,1.29h-22.08c-.67,.04-1.25-.47-1.29-1.14v-.15c-.04-.67,.47-1.25,1.14-1.29h22.08c.67-.04,1.25,.47,1.29,1.14v.15Z" style="fill: #d6d6d6;"/>
  <path d="M34.52,49.7c.04,.67-.47,1.25-1.14,1.29H11.29c-.67,.04-1.25-.47-1.29-1.14v-.15c-.04-.67,.47-1.25,1.14-1.29h22.08c.67-.04,1.25,.47,1.29,1.14v.15Z" style="fill: #515151;"/>
  <path d="M62.64,38.86c-.54,.52-1.39,.52-1.94,0-.52-.54-.52-1.39,0-1.94l15.61-15.61c.54-.52,1.39-.52,1.94,0,.52,.54,.52,1.39,0,1.94l-15.61,15.61Z" style="fill: #ededed;"/>
  <path d="M23.68,77.82c-.54,.52-1.39,.52-1.94,0-.52-.54-.52-1.39,0-1.94l15.61-15.61c.54-.52,1.39-.52,1.94,0,.52,.54,.52,1.39,0,1.94l-15.61,15.61Z" style="fill: #7a7a7a;"/>
  <path d="M60.71,62.21c-.52-.54-.52-1.39,0-1.94,.54-.52,1.39-.52,1.94,0l15.61,15.61c.52,.54,.52,1.39,0,1.94-.54,.52-1.39,.52-1.94,0l-15.61-15.61Z" style="fill: #bfbfbf;"/>
  <path d="M21.74,23.12c-.5-.48-.52-1.26-.04-1.76l.04-.04c.54-.52,1.39-.52,1.94,0l15.61,15.61c.52,.54,.52,1.39,0,1.94-.54,.52-1.39,.52-1.94,0l-15.61-15.74Z" style="fill: #2b2b2b;"/>
  <path d="M57.61,34.73c-.3,.7-1.09,1.04-1.81,.77-.69-.3-1.03-1.09-.77-1.81l8.39-20.39c.3-.69,1.09-1.03,1.81-.77,.69,.3,1.03,1.09,.77,1.81l-8.39,20.39Z" style="fill: #f4f4f4;"/>
  <path d="M36.58,85.82c-.3,.69-1.09,1.03-1.81,.77-.69-.3-1.03-1.09-.77-1.81l8.39-20.39c.3-.69,1.09-1.03,1.81-.77,.69,.3,1.03,1.09,.77,1.81l-8.39,20.39Z" style="fill: #898989;"/>
  <path d="M64.84,57.05c-.69-.3-1.03-1.09-.77-1.81,.3-.69,1.09-1.03,1.81-.77l20.39,8.39c.69,.3,1.03,1.09,.77,1.81-.3,.69-1.09,1.03-1.81,.77l-20.39-8.39Z" style="fill: #ccc;"/>
  <path d="M13.74,36.02c-.69-.3-1.03-1.09-.77-1.81,.3-.69,1.09-1.03,1.81-.77l20.39,8.52c.69,.3,1.03,1.09,.77,1.81-.3,.69-1.09,1.03-1.81,.77l-20.39-8.52Z" style="fill: #3f3f3f;"/>
  <path d="M65.74,44.41c-.71,.27-1.51-.07-1.81-.77-.29-.7,.04-1.51,.75-1.8h.03l20.39-8.53c.7-.29,1.51,.04,1.8,.75v.03c.3,.7-.03,1.51-.74,1.8h-.03l-20.39,8.53Z" style="fill: #e2e2e2;"/>
  <path d="M14.91,65.7c-.7,.29-1.51-.04-1.8-.75v-.03c-.3-.7,.03-1.51,.74-1.8h.03l20.39-8.53c.71-.27,1.51,.07,1.81,.77,.29,.7-.04,1.51-.75,1.8h-.03l-20.39,8.53Z" style="fill: #6d6d6d;"/>
  <path d="M55.16,65.31c-.27-.71,.07-1.51,.77-1.81,.7-.29,1.51,.04,1.79,.75v.03l8.53,20.39c.29,.7-.04,1.51-.75,1.8h-.03c-.7,.3-1.51-.03-1.79-.74v-.03l-8.53-20.39Z" style="fill: #adadad;"/>
  <path d="M33.87,14.35c-.29-.7,.04-1.51,.75-1.8h.03c.7-.3,1.51,.03,1.8,.73l.02,.04,8.39,20.39c.29,.7-.04,1.51-.75,1.8h-.03c-.7,.3-1.51-.03-1.79-.74v-.03l-8.41-20.39Z" style="fill: #0c0c0c;"/>
</svg>