<?xml version="1.0" encoding="UTF-8"?>
<svg id="_イヤー_2" data-name="レイヤー 2" xmlns="http://www.w3.org/2000/svg" xmlns:xlink="http://www.w3.org/1999/xlink" viewBox="0 0 112.83 23.79">
  <defs>
    <linearGradient id="_称未設定グラデーション" data-name="名称未設定グラデーション" x1="-392.95" y1="299.14" x2="-391.87" y2="298.08" gradientTransform="translate(44330.18 7115.36) scale(112.83 -23.79)" gradientUnits="userSpaceOnUse">
      <stop offset="0" stop-color="#3eb9fc"/>
      <stop offset="1" stop-color="#8b2ae1"/>
    </linearGradient>
  </defs>
  <g id="_イヤー_1-2" data-name="レイヤー 1">
    <path id="_差_54" data-name="交差 54" d="M52.89,23.05c-1.01-.44-1.89-1.13-2.57-2-.62-.81-.98-1.78-1.04-2.79h4.23c.08,.64,.42,1.22,.95,1.59,.6,.43,1.32,.66,2.06,.63,.66,.04,1.31-.13,1.88-.48,.42-.27,.68-.73,.68-1.23,0-.54-.33-1.02-.82-1.22-.85-.37-1.72-.67-2.62-.88-1.04-.24-2.05-.55-3.05-.93-.79-.32-1.49-.82-2.04-1.47-.6-.76-.91-1.71-.85-2.67,0-.9,.27-1.78,.79-2.52,.58-.8,1.37-1.42,2.28-1.8,1.11-.46,2.3-.69,3.5-.66,1.71-.09,3.39,.44,4.74,1.49,1.18,1,1.89,2.45,1.95,4h-4.02c-.04-.62-.34-1.19-.82-1.58-1.12-.72-2.54-.78-3.72-.17-.4,.25-.63,.7-.62,1.17,0,.56,.33,1.06,.84,1.27,.84,.39,1.71,.68,2.61,.89,1.01,.24,2,.55,2.97,.93,.79,.32,1.48,.83,2.02,1.49,.6,.75,.91,1.69,.89,2.66,.01,.92-.27,1.83-.8,2.58-.58,.8-1.37,1.42-2.28,1.79-1.1,.45-2.28,.67-3.46,.64-1.26,.02-2.51-.22-3.66-.72Zm-21.29-.35c-1.17-.75-2.12-1.8-2.73-3.05-.69-1.4-1.03-2.95-1-4.51-.03-1.55,.31-3.08,1-4.47,.61-1.24,1.56-2.28,2.73-3,1.16-.7,2.5-1.07,3.86-1.05,1.13-.03,2.25,.23,3.25,.75,.88,.46,1.64,1.1,2.24,1.89v-2.37h4.23V23.52h-4.23v-2.43c-.58,.81-1.35,1.48-2.24,1.93-1.01,.53-2.14,.79-3.29,.76-1.35,.01-2.68-.36-3.82-1.08h0Zm2.78-11.82c-.68,.4-1.23,.97-1.61,1.67-.43,.8-.64,1.69-.62,2.6-.02,.91,.19,1.82,.62,2.62,.37,.71,.93,1.31,1.62,1.72,.65,.39,1.39,.6,2.15,.6,.77,0,1.52-.2,2.19-.58,.69-.4,1.25-.98,1.62-1.68,.8-1.66,.8-3.59,0-5.25-.37-.7-.93-1.28-1.62-1.68-.67-.39-1.42-.59-2.19-.58-.76,0-1.5,.19-2.16,.57Zm53.77,12.14c-.97-.95-.98-2.51-.03-3.48l.03-.03c.51-.48,1.18-.73,1.88-.71,1.36-.05,2.5,1,2.56,2.36,.05,1.36-1,2.5-2.36,2.56-.07,0-.13,0-.2,0-.69,.03-1.37-.23-1.88-.7Zm-84.33-.04c-1.11-.45-2.07-1.2-2.78-2.16C.36,19.85,0,18.68,0,17.49H4.5c.02,.77,.35,1.51,.91,2.04,.63,.53,1.44,.8,2.26,.75,.83,.05,1.65-.2,2.31-.71,.55-.45,.86-1.13,.84-1.84,.02-.57-.18-1.12-.57-1.53-.4-.41-.89-.74-1.43-.94-.77-.3-1.56-.55-2.35-.77-1.13-.32-2.24-.71-3.32-1.18-.86-.4-1.62-1.01-2.19-1.77C.32,10.61,0,9.5,.06,8.37c-.03-1.15,.3-2.28,.93-3.24,.65-.94,1.55-1.68,2.61-2.12,1.21-.51,2.52-.76,3.84-.73,1.88-.09,3.74,.47,5.26,1.58,1.36,1.06,2.18,2.67,2.24,4.4h-4.62c-.03-.7-.36-1.35-.91-1.78-.65-.5-1.45-.75-2.26-.71-.71-.04-1.41,.19-1.96,.63-.51,.47-.78,1.14-.74,1.83-.02,.52,.18,1.03,.55,1.4,.4,.39,.87,.69,1.38,.9,.55,.23,1.32,.49,2.32,.79,1.14,.32,2.25,.72,3.33,1.2,.87,.41,1.64,1.03,2.22,1.8,.66,.92,.98,2.03,.93,3.15,0,1.1-.3,2.18-.87,3.12-.61,.99-1.5,1.79-2.55,2.29-1.24,.6-2.61,.89-3.99,.86-1.35,.02-2.7-.24-3.95-.76h0Zm104.29,.54V6.9h4.2V23.52h-4.2Zm-10.8,0V10.35h-1.89v-3.45h1.89v-.84c-.14-1.69,.5-3.35,1.74-4.5,1.53-1.07,3.4-1.54,5.25-1.35V3.75c-.75-.09-1.51,.09-2.13,.51-.46,.54-.68,1.24-.6,1.95v.69h2.91v3.45h-2.91v13.17h-4.26Zm-18.24,0V14.34c.07-1.1-.28-2.2-.99-3.05-.7-.73-1.69-1.12-2.7-1.06-1.03-.05-2.02,.33-2.74,1.06-.72,.85-1.07,1.94-1,3.05v9.18h-4.2V1.32h4.2v7.65c.56-.74,1.31-1.33,2.16-1.7,.94-.42,1.97-.63,3-.62,1.17-.02,2.33,.26,3.36,.83,.99,.56,1.79,1.41,2.3,2.43,.58,1.2,.86,2.52,.83,3.85v9.75h-4.21Zm-59.37,0V1.32h4.2V23.52h-4.2ZM108.41,4.22c-.97-.95-.98-2.51-.03-3.48l.03-.03c1.05-.94,2.64-.94,3.69,0,.97,.96,.98,2.52,.03,3.48l-.03,.03c-1.05,.94-2.64,.94-3.69,0Z" style="fill: url(#_称未設定グラデーション);"/>
  </g>
</svg>
