<?xml version="1.0" encoding="UTF-8"?>
<svg id="_イヤー_1" data-name="レイヤー 1" xmlns="http://www.w3.org/2000/svg" viewBox="0 0 100 100">
  <g id="_ループ_68909" data-name="グループ 68909" transform="translate(0 0)">
    <g id="_ループ_68908" data-name="グループ 68908">
      <path id="_ス_59320" data-name="パス 59320" d="M49.88,79.83H23.03c-1.65,0-2.98-1.34-2.98-2.98V23.15c0-1.65,1.34-2.98,2.98-2.98h26.85c1.65-.06,2.94-1.44,2.88-3.09-.05-1.57-1.31-2.83-2.88-2.88H23.03c-4.94,0-8.94,4.01-8.95,8.95v53.7c0,4.94,4.01,8.95,8.95,8.95h26.85c1.65,0,2.98-1.34,2.98-2.98s-1.34-2.98-2.98-2.98Z" />
    </g>
  </g>
  <g id="_ループ_68911" data-name="グループ 68911" transform="translate(6.62 4.138)">
    <g id="_ループ_68910" data-name="グループ 68910">
      <path id="_ス_59321" data-name="パス 59321" d="M85.03,47.88l-18.14-17.9c-1.17-1.16-3.06-1.14-4.22,.03-1.16,1.17-1.14,3.06,.03,4.22h0l12.98,12.79H40.95c-1.65,0-2.98,1.34-2.98,2.98s1.34,2.98,2.98,2.98h34.73l-12.98,12.79c-1.17,1.16-1.19,3.05-.03,4.22,1.16,1.17,3.05,1.19,4.22,.03l18.14-17.9c1.17-1.16,1.19-3.04,.03-4.22l-.03-.03h0Z" />
    </g>
  </g>
</svg>
