<?xml version="1.0" encoding="utf-8"?>
<!-- Generator: Adobe Illustrator 26.5.0, SVG Export Plug-In . SVG Version: 6.00 Build 0)  -->
<svg version="1.1" id="logotext" xmlns="http://www.w3.org/2000/svg" xmlns:xlink="http://www.w3.org/1999/xlink" x="0px" y="0px"
	 viewBox="0 0 83.3 22.5" style="enable-background:new 0 0 83.3 22.5;" xml:space="preserve">
<style type="text/css">
	.st0{fill:url(#logotextpath_00000181798761342349056820000013661083496882154655_);}
</style>
<g id="logotext_00000177482695631340191080000003693085234048412844_">
	
		<linearGradient id="logotextpath_00000009555696540602375270000015103835336043384499_" gradientUnits="userSpaceOnUse" x1="-387.0751" y1="-235.7947" x2="-386.1482" y2="-234.885" gradientTransform="matrix(112.83 0 0 23.79 43659.1992 5609.6729)">
		<stop  offset="0" style="stop-color:#3EB9FC"/>
		<stop  offset="1" style="stop-color:#8B2AE1"/>
	</linearGradient>
	<path id="logotextpath" style="fill:url(#logotextpath_00000009555696540602375270000015103835336043384499_);" d="M52.9,21.7
		c-1-0.4-1.9-1.1-2.6-2c-0.6-0.8-1-1.8-1-2.8h4.2c0.1,0.6,0.4,1.2,1,1.6c0.6,0.4,1.3,0.7,2.1,0.6c0.7,0,1.3-0.1,1.9-0.5
		c0.4-0.3,0.7-0.7,0.7-1.2c0-0.5-0.3-1-0.8-1.2c-0.8-0.4-1.7-0.7-2.6-0.9c-1-0.2-2-0.5-3-0.9c-0.8-0.3-1.5-0.8-2-1.5
		c-0.6-0.8-0.9-1.7-0.8-2.7c0-0.9,0.3-1.8,0.8-2.5C51.1,7,51.9,6.3,52.8,6c1.1-0.5,2.3-0.7,3.5-0.7C58,5.2,59.7,5.7,61,6.8
		c1.2,1,1.9,2.5,2,4h-4c0-0.6-0.3-1.2-0.8-1.6C57,8.5,55.6,8.4,54.4,9c-0.4,0.2-0.6,0.7-0.6,1.2c0,0.6,0.3,1.1,0.8,1.3
		c0.8,0.4,1.7,0.7,2.6,0.9c1,0.2,2,0.6,3,0.9c0.8,0.3,1.5,0.8,2,1.5c0.6,0.8,0.9,1.7,0.9,2.7c0,0.9-0.3,1.8-0.8,2.6
		c-0.6,0.8-1.4,1.4-2.3,1.8c-1.1,0.5-2.3,0.7-3.5,0.6C55.3,22.5,54.1,22.2,52.9,21.7L52.9,21.7z M31.6,21.4c-1.2-0.8-2.1-1.8-2.7-3
		c-0.7-1.4-1-3-1-4.5c0-1.6,0.3-3.1,1-4.5c0.6-1.2,1.6-2.3,2.7-3c1.2-0.7,2.5-1.1,3.9-1.1c1.1,0,2.2,0.2,3.2,0.8
		c0.9,0.5,1.6,1.1,2.2,1.9V5.6h4.2v16.6H41v-2.4c-0.6,0.8-1.3,1.5-2.2,1.9c-1,0.5-2.1,0.8-3.3,0.8C34.1,22.5,32.7,22.1,31.6,21.4
		C31.6,21.4,31.6,21.4,31.6,21.4z M34.4,9.6c-0.7,0.4-1.2,1-1.6,1.7c-0.4,0.8-0.6,1.7-0.6,2.6c0,0.9,0.2,1.8,0.6,2.6
		c0.4,0.7,0.9,1.3,1.6,1.7c0.7,0.4,1.4,0.6,2.2,0.6c0.8,0,1.5-0.2,2.2-0.6c0.7-0.4,1.2-1,1.6-1.7c0.8-1.7,0.8-3.6,0-5.2
		c-0.4-0.7-0.9-1.3-1.6-1.7C38.1,9.2,37.3,9,36.5,9C35.8,9,35,9.2,34.4,9.6L34.4,9.6z M3.8,21.7c-1.1-0.5-2.1-1.2-2.8-2.2
		c-0.7-1-1-2.1-1-3.3h4.5c0,0.8,0.3,1.5,0.9,2C6,18.7,6.8,19,7.7,19c0.8,0,1.6-0.2,2.3-0.7c0.6-0.5,0.9-1.1,0.8-1.8
		c0-0.6-0.2-1.1-0.6-1.5c-0.4-0.4-0.9-0.7-1.4-0.9c-0.8-0.3-1.6-0.6-2.3-0.8c-1.1-0.3-2.2-0.7-3.3-1.2c-0.9-0.4-1.6-1-2.2-1.8
		C0.3,9.3,0,8.2,0.1,7C0,5.9,0.4,4.8,1,3.8c0.6-0.9,1.5-1.7,2.6-2.1C4.8,1.2,6.1,0.9,7.4,1c1.9-0.1,3.7,0.5,5.3,1.6
		c1.4,1.1,2.2,2.7,2.2,4.4h-4.6c0-0.7-0.4-1.3-0.9-1.8C8.8,4.7,8,4.4,7.1,4.5c-0.7,0-1.4,0.2-2,0.6C4.7,5.6,4.4,6.2,4.4,6.9
		c0,0.5,0.2,1,0.6,1.4C5.4,8.7,5.9,9,6.4,9.2C6.9,9.4,7.7,9.7,8.7,10c1.1,0.3,2.2,0.7,3.3,1.2c0.9,0.4,1.6,1,2.2,1.8
		c0.7,0.9,1,2,0.9,3.1c0,1.1-0.3,2.2-0.9,3.1c-0.6,1-1.5,1.8-2.6,2.3c-1.2,0.6-2.6,0.9-4,0.9C6.4,22.4,5.1,22.2,3.8,21.7
		C3.8,21.7,3.8,21.7,3.8,21.7z M79.1,22.2V13c0.1-1.1-0.3-2.2-1-3.1c-0.7-0.7-1.7-1.1-2.7-1.1c-1-0.1-2,0.3-2.7,1.1
		c-0.7,0.9-1.1,1.9-1,3.1v9.2h-4.2V0h4.2v7.7c0.6-0.7,1.3-1.3,2.2-1.7c0.9-0.4,2-0.6,3-0.6c1.2,0,2.3,0.3,3.4,0.8
		c1,0.6,1.8,1.4,2.3,2.4c0.6,1.2,0.9,2.5,0.8,3.8v9.8L79.1,22.2L79.1,22.2z M19.7,22.2V0h4.2v22.2H19.7z"/>
</g>
</svg>
