<?xml version="1.0" encoding="UTF-8"?>
<svg id="_イヤー_1" data-name="レイヤー 1" xmlns="http://www.w3.org/2000/svg" viewBox="0 0 100 100">
  <path d="M31.05,12.11v2h37.89c4.69,0,8.91,1.89,11.98,4.96,3.07,3.07,4.96,7.3,4.96,11.98v37.89c0,4.69-1.89,8.91-4.96,11.98-3.07,3.07-7.3,4.96-11.98,4.96H31.05c-4.69,0-8.91-1.89-11.98-4.96-3.07-3.07-4.96-7.3-4.96-11.98V31.05c0-4.69,1.89-8.91,4.96-11.98,3.07-3.07,7.3-4.96,11.98-4.96v-4c-11.57,0-20.95,9.38-20.95,20.95v37.89c0,11.57,9.38,20.95,20.95,20.95h37.89c11.57,0,20.95-9.38,20.95-20.95V31.05c0-11.57-9.38-20.95-20.95-20.95H31.05v2Z" />
  <path d="M49.99,60.37c1.64,0,2.96,1.33,2.96,2.96s-1.33,2.96-2.96,2.96-2.96-1.33-2.96-2.96,1.33-2.96,2.96-2.96Z" />
  <path d="M49.99,33.71c-5.23,0-9.47,4.24-9.47,9.47,0,1.31,1.06,2.37,2.37,2.37s2.37-1.06,2.37-2.37c0-2.62,2.12-4.74,4.74-4.74s4.74,2.12,4.74,4.74-2.12,4.74-4.74,4.74c-1.31,0-2.37,1.06-2.37,2.37v5.92c0,1.31,1.06,2.37,2.37,2.37s2.37-1.06,2.37-2.37v-3.85c5.07-1.3,8.12-6.46,6.82-11.53-1.08-4.2-4.86-7.13-9.2-7.12Z" />
</svg>
