<svg width="25" height="25" viewBox="5 -2 12 28" fill="none" xmlns="http://www.w3.org/2000/svg">
<path d="M22.973 10.2536C22.542 4.1927 17.056 -0.386474 10.7196 0.0257908C7.56309 0.231154 4.79154 1.63693 2.85747 3.74495L2.85209 3.74121C2.83905 3.75846 2.82688 3.77548 2.81394 3.79272C0.892784 5.91102 -0.187722 8.72763 0.0269505 11.7465C0.0474069 12.0342 0.082807 12.3172 0.125583 12.5979C0.125596 12.5979 0.125596 12.5979 0.125609 12.598C0.127536 12.6107 0.129502 12.6233 0.131365 12.636C0.160282 12.8212 0.193857 13.0047 0.232167 13.1864C0.232192 13.1865 0.232205 13.1867 0.23223 13.1867C0.232933 13.19 0.233596 13.1933 0.234272 13.1966C0.269149 13.3613 0.307893 13.5244 0.350286 13.6861L0.350362 13.6864C0.350401 13.6866 0.350439 13.6867 0.350465 13.6868C1.67858 18.753 6.64103 22.3412 12.2804 21.9742C18.6168 21.562 23.4041 16.3144 22.973 10.2536ZM20.4699 10.4164C20.5229 11.1626 20.4739 11.8932 20.3349 12.5961C20.3332 12.5921 20.3319 12.5878 20.3301 12.5839V12.5838C19.4964 10.6345 17.8472 9.22725 16.3969 8.44984C16.6905 5.1469 15.519 3.7554 14.1932 3.52899C14.1571 3.52235 14.1209 3.51669 14.084 3.51232C13.0317 3.38322 12.0694 4.09468 11.9346 5.10116C11.7996 6.10769 12.5434 7.02818 13.5957 7.15732C13.6875 7.16843 13.7782 7.17152 13.8682 7.17016C13.874 7.28166 13.8777 7.40007 13.8787 7.52393C12.6528 7.23336 11.5068 7.17648 10.4619 7.26634C10.0712 7.29125 9.68025 7.33833 9.2914 7.40785C9.42181 6.29253 9.85927 5.04038 10.7081 4.12404C11.5287 3.23823 12.7487 2.73051 14.0795 2.8608C14.3318 2.88549 14.601 2.94475 14.8434 3.0226C14.8545 3.02618 14.8664 3.02921 14.8773 3.03286C14.8775 3.03266 14.8777 3.03238 14.8779 3.03217C17.9605 4.23335 20.2291 7.03171 20.4699 10.4164ZM12.4544 12.0966C12.4536 12.0977 12.4527 12.0989 12.4519 12.1002C12.1775 12.4787 11.8511 12.852 11.468 13.213C10.8938 12.6285 10.4324 11.9991 10.0824 11.348C10.0645 11.3131 10.0453 11.2799 10.0279 11.2444C10.0272 11.2432 10.0266 11.2419 10.0259 11.2405C9.82024 10.8238 9.64544 10.3666 9.51013 9.86862C10.3273 9.6847 11.1287 9.61709 11.894 9.65273C11.9346 9.6553 11.9742 9.65603 12.0151 9.65926C12.0165 9.65933 12.018 9.65948 12.0196 9.65955C12.4989 9.69754 12.9994 9.78114 13.5171 9.91768C13.2751 10.6862 12.9357 11.3836 12.5209 11.9995C12.4983 12.0319 12.4778 12.0643 12.4544 12.0966ZM8.52488 2.88635C8.52273 2.889 8.52036 2.8915 8.51821 2.89415C7.17086 4.55857 6.72105 6.62709 6.74185 8.21686C3.60484 9.62516 2.93075 11.2913 3.3887 12.5028C3.4007 12.5359 3.41372 12.5688 3.42818 12.6015C3.83745 13.5378 4.96276 13.9792 5.9414 13.5876C6.92019 13.1961 7.38168 12.1197 6.97252 11.1836C6.93667 11.1019 6.89407 11.0252 6.84789 10.9514C6.94703 10.8901 7.0535 10.8272 7.16655 10.7637C7.51642 11.9247 8.03398 12.9068 8.63789 13.7274C8.85539 14.0381 9.09298 14.3378 9.34974 14.6246C8.27464 15.0744 6.92194 15.3383 5.6676 15.0933C4.45529 14.8564 3.38563 14.0997 2.83816 12.9321C2.73439 12.7107 2.65347 12.4582 2.60275 12.2185C2.57155 12.0091 2.5454 11.798 2.53016 11.5836C2.24995 7.64332 4.80568 4.13544 8.52488 2.88635ZM12.1101 19.5799C9.66392 19.739 7.37726 18.9409 5.64905 17.5223C7.82967 17.8062 9.92735 17.1445 11.3563 16.3323C14.2011 18.2283 16.0473 17.9539 16.9154 16.9685C16.9395 16.942 16.9627 16.9148 16.9851 16.8864C17.6282 16.0793 17.4652 14.9264 16.6213 14.3115C15.7775 13.6964 14.5722 13.8524 13.9292 14.6594C13.8732 14.7299 13.825 14.8035 13.7813 14.8787C13.677 14.8276 13.5674 14.7712 13.4542 14.7097C14.3312 13.839 14.9561 12.9175 15.3975 12.0064C15.5703 11.6704 15.7232 11.3229 15.8548 10.966C16.8001 11.6317 17.7161 12.6208 18.1216 13.7829C18.5133 14.9056 18.3631 16.1701 17.5797 17.2074C17.4312 17.404 17.2429 17.5974 17.0512 17.7592C17.0485 17.7616 17.0457 17.7641 17.043 17.7665C15.6724 18.7968 13.9767 19.4584 12.1101 19.5799Z" fill="url(#paint0_linear_13_10)"/>
<defs>
<linearGradient id="paint0_linear_13_10" x1="3.65193" y1="18.5074" x2="17.6649" y2="3.85743" gradientUnits="userSpaceOnUse">
<stop offset="0.001139" stop-color="#E6007A"/>
<stop offset="0.207149" stop-color="#703AC2"/>
<stop offset="0.456011" stop-color="#0070EB"/>
<stop offset="0.768132" stop-color="#0297FB"/>
<stop offset="1" stop-color="#0AE2FF"/>
</linearGradient>
</defs>
</svg>
