<?xml version="1.0" encoding="UTF-8"?>
<svg id="_イヤー_1" data-name="レイヤー 1" xmlns="http://www.w3.org/2000/svg" viewBox="0 0 100 100">
  <path d="M31.05,10h37.89c11.48-.15,20.9,9.04,21.05,20.51v38.97c-.15,11.48-9.57,20.66-21.05,20.51H31.05c-11.48,.15-20.9-9.04-21.05-20.51V30.51c.15-11.48,9.57-20.66,21.05-20.51Z" style="fill: #8247e5;"/>
  <path d="M63.26,40.53c-1-.53-2.19-.53-3.19,0l-7.45,4.38-5.05,2.78-7.3,4.38c-1,.53-2.19,.53-3.19,0l-5.71-3.45c-.98-.58-1.59-1.64-1.59-2.78v-6.64c0-1.14,.61-2.2,1.59-2.79l5.71-3.32c1-.53,2.19-.53,3.19,0l5.71,3.45c.99,.58,1.59,1.64,1.59,2.79v4.38l5.05-2.92v-4.52c0-1.14-.61-2.2-1.59-2.79l-10.63-6.24c-1-.53-2.19-.53-3.19,0l-10.89,6.37c-1,.51-1.61,1.54-1.59,2.66v12.48c0,1.14,.61,2.2,1.59,2.79l10.76,6.24c1,.53,2.19,.53,3.19,0l7.3-4.25,5.05-2.92,7.3-4.25c1-.53,2.19-.53,3.19,0l5.71,3.32c.99,.58,1.59,1.64,1.59,2.79v6.64c0,1.14-.61,2.2-1.59,2.79l-5.57,3.32c-1,.53-2.19,.53-3.19,0l-5.71-3.32c-.99-.58-1.59-1.64-1.59-2.79v-4.25l-5.05,2.92v4.38c0,1.14,.61,2.2,1.59,2.79l10.76,6.24c1,.53,2.19,.53,3.19,0l10.76-6.24c.99-.58,1.59-1.64,1.59-2.79v-12.62c0-1.14-.61-2.2-1.59-2.79l-10.75-6.24Z" style="fill: #fff;"/>
</svg>