<?xml version="1.0" encoding="UTF-8"?>
<svg id="_イヤー_1" data-name="レイヤー 1" xmlns="http://www.w3.org/2000/svg" viewBox="0 0 100 100">
  <rect x="11.03" y="10" width="77.95" height="80" rx="20.51" ry="20.51" style="fill: #2e2e2e;"/>
  <path d="M39.59,46.69l10.32-10.32,10.33,10.33,6.01-6.01-16.33-16.33-16.32,16.33,6.01,6.01m-16.26,4.24l6.01-6.01,6.01,6.01-6.01,6-6.01-6Zm16.25,4.24l10.32,10.32,10.33-10.33,6.01,6-16.33,16.33-16.32-16.33,6.01-6m24.88-4.24l6.01-6.01,6.01,6.01-6.01,6.01-6.01-6.01Z" style="fill: #f3ba2f;"/>
  <polyline points="56 50.93 56 50.93 49.91 44.84 45.39 49.35 44.88 49.87 43.81 50.93 49.9 57.02 55.99 50.93" style="fill: #f3ba2f;"/>
</svg>