<?xml version="1.0" encoding="UTF-8"?>
<svg id="_イヤー_1" data-name="レイヤー 1" xmlns="http://www.w3.org/2000/svg" viewBox="0 0 100 100">
  <path d="M31.05,10h37.89c11.48-.15,20.9,9.04,21.05,20.51v38.97c-.15,11.48-9.57,20.66-21.05,20.51H31.05c-11.48,.15-20.9-9.04-21.05-20.51V30.51c.15-11.48,9.57-20.66,21.05-20.51Z" style="fill: #e74044;"/>
  <circle cx="50" cy="50" r="35.79" style="fill: #e84142;"/>
  <path d="M62.63,50.93c.42-1.24,1.76-1.9,3-1.48,.7,.24,1.24,.78,1.48,1.48l7.72,13.56c1.24,2.14,.23,3.89-2.25,3.89h-15.56c-2.45,0-3.47-1.75-2.25-3.89l7.86-13.56Zm-14.95-26.1c.41-1.23,1.73-1.9,2.96-1.49,.7,.23,1.26,.79,1.49,1.49l1.72,3.1,4.06,7.13c.99,2.04,.99,4.42,0,6.45l-13.61,23.58c-1.23,1.92-3.31,3.13-5.58,3.27h-11.29c-2.48,0-3.49-1.72-2.25-3.89L47.68,24.82Z" style="fill: #fff;"/>
</svg>