<?xml version="1.0" encoding="UTF-8"?>
<svg id="_イヤー_1" data-name="レイヤー 1" xmlns="http://www.w3.org/2000/svg" viewBox="0 0 100 100">
  <g id="_ループ_5297" data-name="グループ 5297" transform="translate(4.779)">
    <g id="_ループ_5296" data-name="グループ 5296">
      <path id="_ス_2229" data-name="パス 2229" d="M79.29,17.66h-24.24c-1.67,.15-2.91,1.63-2.75,3.31,.13,1.46,1.29,2.62,2.75,2.75h16.92l-31.18,31.18c-1.29,1.08-1.47,2.99-.39,4.29,1.08,1.29,2.99,1.47,4.29,.39,.14-.12,.27-.25,.39-.39l31.18-31.18v16.92c.15,1.67,1.63,2.91,3.31,2.75,1.46-.13,2.62-1.29,2.75-2.75V20.7c0-1.68-1.36-3.04-3.03-3.04Z" />
    </g>
  </g>
  <g id="_ループ_5299" data-name="グループ 5299" transform="translate(0 2.39)">
    <g id="_ループ_5298" data-name="グループ 5298">
      <path id="_ス_2230" data-name="パス 2230" d="M67.18,47.96c-1.68,0-3.04,1.36-3.04,3.04v27.27H21.73V35.84h27.26c1.67,.15,3.15-1.08,3.31-2.75,.15-1.67-1.08-3.15-2.75-3.31-.18-.02-.37-.02-.55,0H18.72c-1.68,0-3.04,1.36-3.04,3.04v48.47c0,1.68,1.36,3.04,3.04,3.04h48.47c1.68,0,3.04-1.36,3.04-3.04v-30.31c0-1.68-1.37-3.04-3.05-3.03h0Z" />
    </g>
  </g>
</svg>
