<?xml version="1.0" encoding="UTF-8"?>
<svg id="_イヤー_1" data-name="レイヤー 1" xmlns="http://www.w3.org/2000/svg" viewBox="0 0 100 100">
  <path d="M13.85,39.45c.83,.47,1.83,.52,2.7,.12l2.05-.91c-4.61,11.58-2.61,24.75,5.22,34.44,2.37,2.85,5.22,5.25,8.42,7.11,9.79,5.53,21.75,5.61,31.62,.21,1.54-.82,2.18-2.68,1.49-4.27-.68-1.46-2.41-2.1-3.88-1.42l-.2,.1c-10.93,6.09-24.64,3.58-32.71-5.98-6.52-8.09-8.06-19.1-4.03-28.67l1.18,3.12c.57,1.5,2.25,2.26,3.75,1.7l.21-.09c1.59-.71,2.36-2.53,1.77-4.16l-3.28-8.64c-.69-1.81-2.19-3.47-4.31-2.53l-9.49,4.22c-1.59,.71-2.36,2.53-1.77,4.16,.24,.63,.68,1.15,1.26,1.49h0Z" />
  <path d="M34.67,23.9c.68,1.46,2.42,2.1,3.89,1.41l.19-.1c10.93-6.08,24.64-3.58,32.71,5.98,6.52,8.09,8.06,19.1,4.03,28.67l-1.18-3.12c-.56-1.5-2.24-2.27-3.74-1.7l-.22,.09c-1.59,.71-2.36,2.53-1.77,4.16l3.28,8.64c.7,1.84,2.17,3.5,4.31,2.53l9.49-4.22c1.59-.71,2.36-2.53,1.77-4.16-.56-1.5-2.24-2.27-3.74-1.7l-.22,.09-2.05,.91c4.61-11.58,2.61-24.75-5.22-34.44-9.88-11.69-26.66-14.76-40.03-7.31-1.54,.82-2.18,2.68-1.49,4.27h0Z" />
</svg>
