<?xml version="1.0" encoding="UTF-8"?>
<svg id="_イヤー_1" data-name="レイヤー 1" xmlns="http://www.w3.org/2000/svg" viewBox="0 0 100 100">
  <g id="scan" transform="translate(-1 -5)">
    <path id="_ス_59332" data-name="パス 59332" d="M20.03,41.02c1.66,0,3-1.34,3-3h0v-14.98h14.98c1.66,0,3-1.34,3-3,0-1.66-1.34-3-3-3H20.05c-1.66,0-3,1.33-3.01,2.98v17.98c0,1.66,1.33,3,2.98,3.01h.02Z" />
    <path id="_ス_59333" data-name="パス 59333" d="M61.99,23.04h14.97v14.98c0,1.66,1.34,3,3,3s3-1.34,3-3V20.06c0-1.66-1.33-3-2.98-3.01h-17.96c-1.66,0-3,1.34-3,3,0,1.66,1.34,3,3,3h-.01Z" />
    <path id="_ス_59334" data-name="パス 59334" d="M38.01,76.96h-14.98v-14.98c0-1.66-1.34-3-3-3-1.66,0-3,1.34-3,3h0v17.97c0,1.66,1.34,3,3,3h17.96c1.66,0,3-1.34,3-3s-1.34-3-3-3l.02,.02Z" />
    <path id="_ス_59335" data-name="パス 59335" d="M79.97,59c-1.66,0-3,1.34-3,3v14.97h-14.98c-1.66,0-3,1.34-3,3s1.34,3,3,3h17.96c1.66,0,3-1.34,3-3v-17.96c0-1.65-1.33-2.99-2.98-3Z" />
    <path id="_ス_59336" data-name="パス 59336" d="M91.96,47.01H8.04c-1.66,0-3,1.34-3,3s1.34,3,3,3H91.96c1.66,0,3-1.34,3-3s-1.34-3-3-3Z" />
  </g>
</svg>
