<?xml version="1.0" encoding="UTF-8"?>
<svg id="_イヤー_1" data-name="レイヤー 1" xmlns="http://www.w3.org/2000/svg" viewBox="0 0 100 100">
  <path id="_ス_59325" data-name="パス 59325" d="M52.72,93.37h-5.44c-4.41,0-7.98-3.58-7.98-7.98v-1.85c-1.87-.6-3.69-1.35-5.44-2.26l-1.31,1.31c-3.12,3.12-8.17,3.12-11.29,0h0l-3.85-3.85c-3.12-3.12-3.12-8.17,0-11.29h0l1.3-1.31c-.9-1.75-1.66-3.56-2.26-5.44h-1.85c-4.41,0-7.98-3.58-7.98-7.99v-5.44c0-4.41,3.58-7.98,7.99-7.98h1.84c.6-1.87,1.35-3.69,2.26-5.44l-1.31-1.31c-3.12-3.12-3.12-8.17,0-11.29h0l3.85-3.85c3.12-3.12,8.17-3.12,11.29,0h0l1.3,1.31c1.75-.9,3.56-1.66,5.44-2.26v-1.84c0-4.41,3.58-7.98,7.99-7.98h5.44c4.41,0,7.98,3.58,7.98,7.98v1.84c1.87,.6,3.69,1.35,5.44,2.26l1.31-1.31c3.12-3.12,8.17-3.12,11.29,0h0l3.85,3.85c3.12,3.12,3.12,8.17,0,11.29h0l-1.3,1.31c.9,1.75,1.66,3.56,2.26,5.44h1.84c4.41,0,7.98,3.58,7.98,7.98v5.44c0,4.41-3.58,7.98-7.98,7.98h-1.84c-.6,1.87-1.35,3.69-2.26,5.44l1.31,1.31c3.12,3.12,3.12,8.17,0,11.29h0l-3.85,3.85c-3.12,3.12-8.17,3.12-11.29,0h0l-1.3-1.31c-1.75,.9-3.56,1.66-5.44,2.26v1.84c0,4.42-3.58,8-7.99,8Zm-18.01-17.42c2.42,1.43,5.04,2.52,7.76,3.22,1.12,.29,1.91,1.3,1.91,2.46v3.75c0,1.6,1.3,2.9,2.9,2.9h5.44c1.6,0,2.9-1.3,2.9-2.9v-3.75c0-1.16,.78-2.17,1.91-2.46,2.73-.7,5.34-1.79,7.76-3.22,1-.59,2.27-.42,3.09,.41l2.66,2.66c1.13,1.13,2.97,1.14,4.1,0h0l3.85-3.85c1.13-1.13,1.14-2.97,0-4.1h0l-2.66-2.66c-.83-.82-.99-2.09-.41-3.09,1.43-2.42,2.52-5.04,3.22-7.76,.29-1.12,1.3-1.91,2.46-1.91h3.75c1.6,0,2.9-1.3,2.9-2.9v-5.46c0-1.6-1.3-2.9-2.9-2.9h-3.74c-1.16,0-2.17-.78-2.46-1.91-.7-2.73-1.79-5.34-3.22-7.76-.59-1-.42-2.27,.41-3.09l2.64-2.67c1.13-1.13,1.14-2.97,0-4.1h0l-3.85-3.85c-1.13-1.13-2.97-1.14-4.1,0h0l-2.66,2.66c-.82,.83-2.09,.99-3.09,.41-2.42-1.43-5.04-2.52-7.76-3.22-1.12-.29-1.91-1.3-1.91-2.46v-3.75c0-1.6-1.3-2.9-2.9-2.9h-5.44c-1.6,0-2.9,1.3-2.9,2.9v3.75c0,1.16-.78,2.17-1.91,2.46-2.73,.7-5.34,1.79-7.76,3.22-1,.59-2.27,.42-3.09-.41l-2.67-2.64c-1.13-1.13-2.97-1.14-4.1,0h0l-3.85,3.85c-1.13,1.13-1.14,2.97,0,4.1h0l2.66,2.66c.83,.82,.99,2.09,.41,3.09-1.43,2.42-2.52,5.04-3.22,7.76-.29,1.12-1.3,1.91-2.46,1.91h-3.75c-1.6,0-2.9,1.3-2.9,2.9v5.44c0,1.6,1.3,2.9,2.9,2.9h3.75c1.16,0,2.17,.78,2.46,1.91,.7,2.73,1.79,5.34,3.22,7.76,.59,1,.42,2.27-.41,3.09l-2.66,2.66c-1.13,1.13-1.14,2.97,0,4.1h0l3.85,3.85c1.13,1.13,2.97,1.14,4.1,0h0l2.66-2.66c.82-.82,2.09-.99,3.09-.41h.01Z" />
  <path id="_ス_59326" data-name="パス 59326" d="M50.01,70.75c-11.46,0-20.75-9.29-20.75-20.75s9.29-20.75,20.75-20.75,20.75,9.29,20.75,20.75h0c-.01,11.46-9.3,20.74-20.75,20.75Zm0-35.91c-8.37,0-15.16,6.79-15.16,15.16s6.79,15.16,15.16,15.16,15.16-6.79,15.16-15.16c0-8.37-6.79-15.15-15.16-15.16Z" />
</svg>
