<?xml version="1.0" encoding="UTF-8"?>
<svg id="_イヤー_1" data-name="レイヤー 1" xmlns="http://www.w3.org/2000/svg" viewBox="0 0 100 100">
  <circle cx="50" cy="50" r="40" style="fill: #f0b90b;"/>
  <path d="M31.98,50l.03,10.58,8.99,5.29v6.19l-14.25-8.36v-16.79l5.23,3.09Zm0-10.58v6.16l-5.23-3.1v-6.16l5.23-3.1,5.26,3.1-5.26,3.1Zm12.77-3.1l5.23-3.1,5.26,3.1-5.26,3.1-5.23-3.1Z" style="fill: #fff;"/>
  <path d="M35.77,58.38v-6.19l5.23,3.1v6.16l-5.23-3.07Zm8.99,9.7l5.23,3.1,5.26-3.1v6.16l-5.26,3.1-5.23-3.1v-6.16Zm18-31.76l5.23-3.1,5.26,3.1v6.16l-5.26,3.1v-6.16l-5.23-3.1Zm5.23,24.25l.03-10.58,5.23-3.1v16.79l-14.25,8.36v-6.19l8.98-5.29Z" style="fill: #fff;"/>
  <polygon points="64.23 58.38 59 61.45 59 55.29 64.23 52.19 64.23 58.38" style="fill: #fff;"/>
  <path d="M64.23,41.62l.03,6.19-9.01,5.29v10.6l-5.23,3.07-5.23-3.07v-10.6l-9.01-5.29v-6.19l5.26-3.1,8.96,5.31,9.01-5.31,5.26,3.1h-.02Zm-28.47-10.57l14.22-8.38,14.25,8.38-5.23,3.1-9.01-5.31-8.99,5.31-5.23-3.1Z" style="fill: #fff;"/>
</svg>