<?xml version="1.0" encoding="UTF-8"?>
<svg id="_イヤー_1" data-name="レイヤー 1" xmlns="http://www.w3.org/2000/svg" viewBox="0 0 100 100">
  <polygon points="50 10.71 59.57 20.65 35.47 45.09 25.9 35.39 50 10.71" style="fill: #f0b90b;"/>
  <polygon points="50 10.71 49.64 11.06 58.87 20.65 35.47 44.38 26.6 35.38 50.36 11.06 50 10.71 49.64 11.06 50 10.71 49.64 10.36 25.2 35.39 35.47 45.8 60.27 20.66 50 10 49.64 10.36 50 10.71" style="fill: #f0b90b;"/>
  <polygon points="64.53 25.45 74.1 35.39 35.47 74.56 25.9 64.85 64.53 25.45" style="fill: #f0b90b;"/>
  <polygon points="64.53 25.45 64.17 25.79 73.4 35.38 35.47 73.85 26.6 64.85 64.89 25.8 64.53 25.45 64.17 25.79 64.53 25.45 64.17 25.1 25.2 64.85 35.47 75.27 74.8 35.39 64.53 24.73 64.17 25.1 64.53 25.45" style="fill: #f0b90b;"/>
  <polygon points="20.94 40.18 30.51 50.12 20.94 59.83 11.37 50.12 20.94 40.18" style="fill: #f0b90b;"/>
  <polygon points="20.94 40.18 20.58 40.53 29.81 50.12 20.94 59.11 12.06 50.12 21.3 40.53 20.94 40.18 20.58 40.53 20.94 40.18 20.58 39.83 10.67 50.12 20.94 60.54 31.21 50.12 20.94 39.46 20.58 39.83 20.94 40.18" style="fill: #f0b90b;"/>
  <polygon points="79.06 40.18 88.63 50.12 50 89.29 40.43 79.59 79.06 40.18" style="fill: #f0b90b;"/>
  <polygon points="79.06 40.18 78.7 40.53 87.94 50.12 50 88.58 41.13 79.59 79.42 40.53 79.06 40.18 78.7 40.53 79.06 40.18 78.71 39.83 39.73 79.59 50 90.01 89.33 50.12 79.07 39.46 78.71 39.83 79.06 40.18" style="fill: #f0b90b;"/>
</svg>