<svg id="グループ_67293" data-name="グループ 67293" xmlns="http://www.w3.org/2000/svg" viewBox="0 0 50 50">
  <g id="グループ_67294" data-name="グループ 67294">
    <circle id="楕円形_12" data-name="楕円形 12" cx="25" cy="25" r="25" fill="#e84142"/>
    <path id="パス_2206" data-name="パス 2206" d="M64.4,51.57c.894-1.513,2.336-1.513,3.23,0L73.2,61.146c.894,1.513.163,2.747-1.625,2.747H60.361c-1.768,0-2.5-1.234-1.625-2.747ZM53.636,33.135c.894-1.513,2.316-1.513,3.21,0l1.239,2.19,2.926,5.037a5.138,5.138,0,0,1,0,4.559L51.2,61.584a5.179,5.179,0,0,1-4.023,2.309H39.029c-1.788,0-2.519-1.214-1.625-2.747Z" transform="translate(-30.274 -25.907)" fill="#fff"/>
  </g>
</svg>
