<?xml version="1.0" encoding="UTF-8"?>
<svg id="_イヤー_1" data-name="レイヤー 1" xmlns="http://www.w3.org/2000/svg" viewBox="0 0 100 100">
  <path d="M24.62,22.5c-1.25-6.5,3.75-12.5,10.25-12.5,5.75,0,10.5,4.75,10.5,10.5v13c1.5,0,3-.25,4.5-.25s2.75,0,4.25,.25v-13c0-5.75,4.75-10.5,10.5-10.5,6.5,0,11.5,6,10.5,12.5l-2.75,15.25c9.75,4.25,17.25,11.75,17.25,21v5.75c0,7.75-5,14.25-12.25,18.5-7.25,4.5-16.75,7-27.5,7s-20.25-2.5-27.5-7c-7-4.25-12-10.75-12-18.5v-5.75c0-9.25,7.25-16.75,17-21l-2.75-15.25Zm44,17.25l3.25-18c.75-4.5-2.5-8.75-7.25-8.75-4,0-7.25,3.25-7.25,7.25v16.5c-1-.25-2.25-.25-3.25-.25-1.5,0-2.75-.25-4.25-.25s-3,0-4.5,.25c-1,0-2.25,.25-3.25,.25V20.5c0-4-3.25-7.25-7.25-7.25-4.5,0-8,4.25-7,8.75l3.25,18c-10.5,4-17.5,11-17.5,19v5.75c0,12.25,16.25,22.25,36.25,22.25s36.25-10,36.25-22.25v-5.75c.25-8.25-6.75-15.25-17.5-19.25Z" style="fill: #633001; fill-rule: evenodd;"/>
  <path d="M86.38,64.5c0,12.25-16.25,22.25-36.25,22.25s-36.25-10-36.25-22.25v-5.75H86.62v5.75h-.25Z" style="fill: #fedc90;"/>
  <path d="M27.88,22c-1-4.5,2.5-8.75,7-8.75,4,0,7.25,3.25,7.25,7.25v16.5c2.5-.25,5-.5,7.75-.5,2.5,0,5,.25,7.5,.5V20.5c0-4,3.25-7.25,7.25-7.25,4.5,0,8,4.25,7.25,8.75l-3.25,18c10.5,4,17.75,11,17.75,19,0,12.25-16.25,22.25-36.25,22.25S13.88,71.25,13.88,59c0-8,7-15,17.5-19l-3.5-18Z" style="fill: #d1884f; fill-rule: evenodd;"/>
  <ellipse cx="35.88" cy="57.25" rx="4" ry="6" style="fill: #633001;"/>
  <ellipse cx="63.62" cy="57.25" rx="4" ry="6" style="fill: #633001;"/>
</svg>