<?xml version="1.0" encoding="UTF-8"?>
<svg id="_イヤー_1" data-name="レイヤー 1" xmlns="http://www.w3.org/2000/svg" viewBox="0 0 100 100">
  <circle cx="50" cy="50" r="40" style="fill: #f5ac37;"/>
  <path d="M51.47,52.82h15.2c.32,0,.48,0,.5-.42,.12-1.55,.12-3.1,0-4.65,0-.3-.15-.42-.48-.42h-30.25c-.37,0-.48,.12-.48,.48v4.45q0,.57,.6,.57h14.9Zm14-10.7c.04-.11,.04-.24,0-.35-.25-.55-.55-1.08-.9-1.58-.53-.85-1.14-1.63-1.85-2.33-.33-.42-.72-.8-1.15-1.13-2.16-1.84-4.74-3.14-7.5-3.8-1.4-.31-2.82-.46-4.25-.45h-13.42c-.37,0-.42,.15-.42,.48v8.87c0,.37,0,.48,.48,.48h28.85s.25-.05,.3-.2h-.12Zm0,15.9c-.42-.05-.85-.05-1.28,0h-27.72c-.37,0-.5,0-.5,.5v8.68c0,.4,0,.5,.5,.5h12.8c.61,.05,1.22,0,1.82-.12,1.86-.13,3.68-.54,5.43-1.2,.63-.22,1.25-.51,1.82-.85h.17c3-1.56,5.44-4.01,6.98-7.02,0,0,.17-.38-.02-.48h0Zm-34.53,14.17v-13.82c0-.33,0-.37-.4-.37h-5.43c-.3,0-.42,0-.42-.4v-4.75h5.8c.32,0,.45,0,.45-.42v-4.7c0-.3,0-.37-.4-.37h-5.43c-.3,0-.42,0-.42-.4v-4.4c0-.28,0-.35,.4-.35h5.37c.37,0,.48,0,.48-.48v-13.47c0-.4,0-.5,.5-.5h18.75c1.36,.05,2.71,.2,4.05,.45,2.76,.51,5.4,1.49,7.82,2.9,1.61,.95,3.08,2.09,4.4,3.4,.99,1.03,1.88,2.14,2.67,3.32,.79,1.2,1.44,2.48,1.95,3.83,.06,.35,.4,.59,.75,.53h4.47q.57,0,.6,.55v4.1c0,.4-.15,.5-.55,.5h-3.45c-.35,0-.45,0-.42,.45,.14,1.52,.14,3.05,0,4.57,0,.42,0,.48,.48,.48h3.95c.17,.23,0,.45,0,.68,.03,.29,.03,.58,0,.87v3.03c0,.42-.12,.55-.5,.55h-4.73c-.33-.06-.65,.15-.73,.48-1.12,2.93-2.93,5.55-5.25,7.65-.85,.77-1.74,1.49-2.67,2.15-1,.58-1.97,1.18-3,1.65-1.89,.85-3.87,1.48-5.9,1.87-1.93,.35-3.89,.5-5.85,.48H30.94v-.03h0Z" style="fill: #fefefd;"/>
</svg>