<?xml version="1.0" encoding="UTF-8"?>
<svg id="_イヤー_1" data-name="レイヤー 1" xmlns="http://www.w3.org/2000/svg" viewBox="0 0 100 100">
  <circle cx="50" cy="50" r="40" style="fill: #2775ca;"/>
  <path d="M61,56.33c0-5.83-3.5-7.83-10.5-8.67-5-.67-6-2-6-4.33s1.67-3.83,5-3.83c3,0,4.67,1,5.5,3.5,.17,.5,.67,.83,1.17,.83h2.67c.67,0,1.17-.5,1.17-1.17v-.17c-.67-3.67-3.67-6.5-7.5-6.83v-4c0-.67-.5-1.17-1.33-1.33h-2.5c-.67,0-1.17,.5-1.33,1.33v3.83c-5,.67-8.17,4-8.17,8.17,0,5.5,3.33,7.67,10.33,8.5,4.67,.83,6.17,1.83,6.17,4.5s-2.33,4.5-5.5,4.5c-4.33,0-5.83-1.83-6.33-4.33-.17-.67-.67-1-1.17-1h-2.83c-.67,0-1.17,.5-1.17,1.17v.17c.67,4.17,3.33,7.17,8.83,8v4c0,.67,.5,1.17,1.33,1.33h2.5c.67,0,1.17-.5,1.33-1.33v-4c5-.83,8.33-4.33,8.33-8.83h0Z" style="fill: #fff;"/>
  <path d="M41.5,73.83c-13-4.67-19.67-19.17-14.83-32,2.5-7,8-12.33,14.83-14.83,.67-.33,1-.83,1-1.67v-2.33c0-.67-.33-1.17-1-1.33-.17,0-.5,0-.67,.17-15.83,5-24.5,21.83-19.5,37.67,3,9.33,10.17,16.5,19.5,19.5,.67,.33,1.33,0,1.5-.67,.17-.17,.17-.33,.17-.67v-2.33c0-.5-.5-1.17-1-1.5ZM59.17,21.83c-.67-.33-1.33,0-1.5,.67-.17,.17-.17,.33-.17,.67v2.33c0,.67,.5,1.33,1,1.67,13,4.67,19.67,19.17,14.83,32-2.5,7-8,12.33-14.83,14.83-.67,.33-1,.83-1,1.67v2.33c0,.67,.33,1.17,1,1.33,.17,0,.5,0,.67-.17,15.83-5,24.5-21.83,19.5-37.67-3-9.5-10.33-16.67-19.5-19.67h0Z" style="fill: #fff;"/>
</svg>