<?xml version="1.0" encoding="UTF-8"?>
<svg id="_イヤー_1" data-name="レイヤー 1" xmlns="http://www.w3.org/2000/svg" xmlns:xlink="http://www.w3.org/1999/xlink" viewBox="0 0 100 100">
  <defs>
    <clipPath id="clippath">
      <polyline points="10 10 90 10 90 90 10 90 10 10" style="fill: none;"/>
    </clipPath>
    <linearGradient id="_称未設定グラデーション_2" data-name="名称未設定グラデーション 2" x1="-1920" y1="0" x2="-1919" y2="0" gradientTransform="translate(23645.88 81075.31) rotate(73.76) scale(43.97 -43.97)" gradientUnits="userSpaceOnUse">
      <stop offset="0" stop-color="#03b8ff"/>
      <stop offset="1" stop-color="#fa52a0"/>
    </linearGradient>
    <linearGradient id="_称未設定グラデーション_4" data-name="名称未設定グラデーション 4" x1="-1920" y1="0" x2="-1919" y2="0" gradientTransform="translate(23656.58 81072.77) rotate(73.76) scale(43.97 -43.97)" gradientUnits="userSpaceOnUse">
      <stop offset="0" stop-color="#03b8ff"/>
      <stop offset="1" stop-color="#fa52a0"/>
    </linearGradient>
    <linearGradient id="_称未設定グラデーション_5" data-name="名称未設定グラデーション 5" x1="-1920" y1="0" x2="-1919" y2="0" gradientTransform="translate(23636.56 81079) rotate(73.76) scale(43.98 -43.98)" gradientUnits="userSpaceOnUse">
      <stop offset="0" stop-color="#03b8ff"/>
      <stop offset="1" stop-color="#fa52a0"/>
    </linearGradient>
  </defs>
  <g style="clip-path: url(#clippath);">
    <polygon points="26.67 17.67 88.67 60 73.33 82.67 11.33 40 26.67 17.67" style="fill: url(#_称未設定グラデーション_2);"/>
    <path d="M88.67,60c-5.33,7.67-23.33,4.67-40.33-7.33-17.33-11.67-26.67-27.33-21.67-35,5.33-7.67,23.33-4.67,40.33,7.33,17.33,11.33,26.67,27.33,21.67,35Z" style="fill: url(#_称未設定グラデーション_4);"/>
    <path d="M73.33,82.33c-5.33,7.67-23.33,4.67-40.33-7.33S6.33,47.67,11.67,39.67c5.33-7.67,23.33-4.67,40.33,7.33s26.33,27.67,21.33,35.33Z" style="fill: url(#_称未設定グラデーション_5);"/>
    <path d="M88.67,60h0l-15.33,22.67c-5.33,7.67-23.33,4.33-40.33-7.33-3.33-2.33-6.33-4.67-9.33-7.33,2.33-.33,5.33-1.67,8.33-5,5.33-5.67,8-7,10.33-6.67,2.33,0,5,2.33,9.33,8,4.33,5.67,10.33,7.33,14,4.33,.33-.33,.67-.33,1-.67,3-2.33,4-3.33,9.67-14,1.33-2.67,6-7,12.33-5,1.67,4.33,1.67,8,0,11Z" style="fill: #0e0f23;"/>
    <path d="M86.33,58.67c-4.67,6.67-21,3.33-36.67-7.67-16-11-25.33-25-20.67-31.67,4.67-6.67,21-3.33,36.67,7.67,15.67,11,25,25,20.67,31.67Zm-14.67-10c-2.33,3.33-10.33,1.67-18.33-3.67-7.67-5.33-12.33-12.33-10-15.67,2.33-3.33,10.33-1.67,18.33,3.67,7.67,5.33,12.33,12.33,10,15.67Z" style="fill: #fff; fill-rule: evenodd;"/>
    <path d="M25.33,25.33c0-.33-.33-.67-.67-.33-.33,.33-.67,.33-.67,.67,.33,1,.67,1.67,.67,2.33,0,.33,.33,.67,.67,.33,.33,0,.67-.33,.33-.67,0-.67,0-1.33-.33-2.33Z" style="fill: #fff;"/>
    <path d="M27,30.67c0-.33-.33-.67-.67-.33q-.33,.33-.33,.67c3.67,8.33,11.33,17.33,21.33,24,.33,.33,.67,0,1,0,.33-.33,0-.67,0-1-10.33-6.67-17.67-15.33-21.33-23.33Z" style="fill: #fff;"/>
    <path d="M67.33,63.33c-.33,0-.67,0-.67,.33s0,.67,.33,.67c1,.33,2.33,.67,3.33,1,.33,0,.67,0,.67-.33s0-.67-.33-.67c-1-.33-2.33-.67-3.33-1Z" style="fill: #fff;"/>
    <path d="M73.33,64.67c-.33,0-.67,.33-.67,.67s.33,.67,.67,.67c2.67,.33,5.67,.67,8,.33,.33,0,.67-.33,.67-.67s-.33-.67-.67-.67c-2.67,.33-5.33,0-8-.33Z" style="fill: #fff;"/>
  </g>
</svg>