<?xml version="1.0" encoding="UTF-8"?>
<svg id="_イヤー_1" data-name="レイヤー 1" xmlns="http://www.w3.org/2000/svg" viewBox="0 0 100 100">
  <path d="M42.5,28.19c-.87-.12-.91-.17-.5-.21,.78-.12,2.6,.04,3.88,.33,2.97,.7,5.65,2.52,8.5,5.69l.74,.87,1.07-.17c4.58-.74,9.28-.17,13.2,1.65,1.07,.5,2.76,1.49,2.97,1.73,.08,.08,.21,.62,.29,1.16,.29,1.94,.17,3.38-.45,4.5-.33,.62-.33,.78-.12,1.32,.17,.41,.66,.7,1.11,.7,.99,0,2.02-1.57,2.52-3.75l.21-.87,.37,.41c2.1,2.35,3.75,5.61,4,7.92l.08,.62-.37-.54c-.62-.95-1.2-1.57-1.98-2.1-1.4-.95-2.89-1.24-6.81-1.44-3.55-.21-5.57-.5-7.55-1.16-3.38-1.11-5.12-2.56-9.12-7.88-1.77-2.35-2.89-3.63-4-4.7-2.43-2.35-4.87-3.59-8.05-4.08Z" style="fill: #ff007a;"/>
  <path d="M73.24,33.43c.08-1.57,.29-2.6,.74-3.55,.17-.37,.33-.7,.37-.7s-.04,.29-.17,.62c-.33,.91-.37,2.19-.17,3.63,.29,1.86,.41,2.1,2.39,4.13,.91,.95,1.98,2.15,2.39,2.64l.7,.91-.7-.66c-.87-.83-2.85-2.39-3.3-2.6-.29-.17-.33-.17-.54,.04-.17,.17-.21,.41-.21,1.61-.04,1.86-.29,3.01-.91,4.21-.33,.62-.37,.5-.08-.21,.21-.54,.25-.78,.25-2.56,0-3.59-.41-4.46-2.93-5.9-.62-.37-1.69-.91-2.31-1.2-.66-.29-1.16-.54-1.11-.54,.08-.08,2.52,.62,3.47,1.03,1.44,.58,1.69,.62,1.86,.58,.12-.12,.21-.45,.25-1.49Z" style="fill: #ff007a;"/>
  <path d="M44.2,39.58c-1.73-2.39-2.85-6.11-2.6-8.87l.08-.87,.41,.08c.74,.12,2.02,.62,2.64,.99,1.65,.99,2.39,2.35,3.09,5.73,.21,.99,.5,2.15,.62,2.52,.21,.62,.99,2.06,1.65,2.97,.45,.66,.17,.99-.87,.91-1.57-.17-3.67-1.61-5.03-3.47Z" style="fill: #ff007a;"/>
  <path d="M71.14,57.53c-8.17-3.3-11.06-6.15-11.06-10.97,0-.7,.04-1.28,.04-1.28,.04,0,.33,.25,.7,.54,1.65,1.32,3.51,1.9,8.66,2.64,3.01,.45,4.74,.78,6.31,1.32,4.99,1.65,8.09,5.03,8.83,9.61,.21,1.32,.08,3.84-.25,5.16-.29,1.03-1.11,2.93-1.32,2.97-.04,0-.12-.21-.12-.54-.08-1.73-.95-3.38-2.39-4.66-1.73-1.49-3.96-2.6-9.41-4.79Z" style="fill: #ff007a;"/>
  <path d="M65.36,58.89c-.08-.62-.29-1.4-.41-1.73l-.21-.62,.37,.45c.54,.62,.95,1.36,1.32,2.39,.29,.78,.29,1.03,.29,2.31s-.04,1.53-.29,2.23c-.41,1.11-.91,1.9-1.73,2.76-1.49,1.53-3.42,2.35-6.19,2.72-.5,.04-1.9,.17-3.14,.25-3.09,.17-5.16,.5-7.01,1.16-.25,.08-.5,.17-.54,.12-.08-.08,1.2-.83,2.23-1.32,1.44-.7,2.93-1.07,6.19-1.65,1.61-.25,3.26-.58,3.67-.74,4.08-1.28,6.11-4.46,5.45-8.33Z" style="fill: #ff007a;"/>
  <path d="M69.11,65.53c-1.07-2.35-1.32-4.58-.74-6.68,.08-.21,.17-.41,.25-.41s.33,.12,.58,.29c.5,.33,1.53,.91,4.17,2.35,3.34,1.82,5.24,3.22,6.56,4.83,1.16,1.4,1.86,3.01,2.19,4.99,.21,1.11,.08,3.8-.21,4.91-.91,3.51-2.97,6.31-5.98,7.92-.45,.25-.83,.41-.87,.41s.12-.41,.37-.91c.99-2.1,1.11-4.13,.37-6.4-.45-1.4-1.4-3.09-3.3-5.94-2.27-3.3-2.81-4.17-3.38-5.36Z" style="fill: #ff007a;"/>
  <path d="M38.38,78.16c3.05-2.56,6.81-4.37,10.27-4.95,1.49-.25,3.96-.17,5.32,.21,2.19,.58,4.17,1.82,5.2,3.34,.99,1.49,1.44,2.76,1.9,5.61,.17,1.11,.37,2.27,.41,2.52,.33,1.49,.99,2.64,1.82,3.26,1.28,.95,3.51,.99,5.69,.17,.37-.12,.7-.25,.7-.21,.08,.08-1.03,.83-1.77,1.2-1.03,.54-1.86,.7-2.97,.7-1.98,0-3.67-1.03-5.03-3.09-.29-.41-.87-1.61-1.36-2.72-1.44-3.34-2.19-4.33-3.88-5.45-1.49-.95-3.38-1.16-4.83-.45-1.9,.91-2.39,3.34-1.07,4.83,.54,.62,1.53,1.11,2.35,1.24,1.53,.21,2.85-.99,2.85-2.52,0-.99-.37-1.57-1.36-2.02-1.32-.58-2.76,.08-2.72,1.36,0,.54,.25,.87,.78,1.11q.33,.17,.08,.12c-1.2-.25-1.49-1.73-.54-2.68,1.16-1.16,3.59-.66,4.41,.95,.33,.66,.37,1.98,.08,2.81-.7,1.82-2.68,2.76-4.7,2.23-1.36-.37-1.94-.74-3.59-2.43-2.89-2.97-4-3.55-8.13-4.17l-.78-.12,.87-.83Z" style="fill: #ff007a;"/>
  <path d="M16.68,11.77c9.61,11.68,24.43,29.83,25.17,30.82,.62,.83,.37,1.61-.66,2.19-.58,.33-1.77,.66-2.35,.66-.66,0-1.44-.33-1.98-.87-.37-.37-1.98-2.72-5.61-8.38-2.76-4.33-5.12-7.92-5.16-7.96q-.17-.08,4.87,8.91c3.18,5.65,4.21,7.67,4.21,7.92,0,.54-.17,.83-.83,1.57-1.11,1.24-1.61,2.64-1.98,5.57-.41,3.26-1.53,5.57-4.7,9.49-1.86,2.31-2.15,2.72-2.6,3.67-.58,1.16-.74,1.82-.83,3.3-.08,1.57,.08,2.56,.54,4.04,.41,1.32,.87,2.19,1.98,3.88,.95,1.49,1.53,2.6,1.53,3.01,0,.33,.08,.33,1.57,0,3.55-.83,6.48-2.23,8.09-3.96,.99-1.07,1.24-1.65,1.24-3.14,0-.95-.04-1.16-.29-1.73-.41-.91-1.2-1.65-2.89-2.81-2.23-1.53-3.18-2.76-3.42-4.41-.21-1.4,.04-2.35,1.28-4.95,1.28-2.68,1.61-3.8,1.82-6.52,.12-1.73,.33-2.43,.83-2.97,.54-.58,.99-.78,2.27-.95,2.1-.29,3.47-.83,4.54-1.86,.95-.87,1.36-1.73,1.4-3.01l.04-.95-.54-.58c-1.94-2.23-28.8-31.77-28.92-31.77-.04,0,.62,.78,1.4,1.77Zm12.67,58.67c.45-.78,.21-1.77-.54-2.27-.7-.45-1.77-.25-1.77,.37,0,.17,.08,.33,.33,.41,.37,.21,.41,.41,.12,.87s-.29,.87,.08,1.16c.58,.45,1.36,.21,1.77-.54Z" style="fill: #ff007a; fill-rule: evenodd;"/>
  <path d="M46.05,48.74c-.99,.29-1.94,1.36-2.23,2.43-.17,.66-.08,1.86,.21,2.23,.45,.58,.87,.74,2.02,.74,2.27,0,4.21-.99,4.41-2.19,.21-.99-.66-2.35-1.86-2.97-.62-.33-1.9-.45-2.56-.25Zm2.64,2.06c.33-.5,.21-1.03-.41-1.4-1.11-.7-2.81-.12-2.81,.95,0,.54,.87,1.11,1.69,1.11,.54,0,1.28-.33,1.53-.66Z" style="fill: #ff007a; fill-rule: evenodd;"/>
</svg>