<?xml version="1.0" encoding="UTF-8"?>
<svg id="_イヤー_1" data-name="レイヤー 1" xmlns="http://www.w3.org/2000/svg" viewBox="0 0 100 100">
  <circle cx="50" cy="50" r="40" style="fill: #26a17b;"/>
  <path d="M54.76,53.62h0c-.27,.02-1.64,.1-4.71,.1-2.44,0-4.17-.07-4.78-.1-9.42-.41-16.45-2.05-16.45-4.02s7.03-3.6,16.45-4.02v6.41c.62,.04,2.38,.15,4.82,.15,2.93,0,4.39-.12,4.65-.15v-6.41c9.4,.42,16.42,2.06,16.42,4.02s-7.01,3.6-16.42,4.02h0Zm0-8.7v-5.73h13.12v-8.74H32.16v8.74h13.12v5.73c-10.66,.49-18.68,2.6-18.68,5.13s8.02,4.64,18.68,5.13v18.37h9.48v-18.38c10.64-.49,18.64-2.6,18.64-5.13s-8-4.64-18.64-5.13h0Z" style="fill: #fff; fill-rule: evenodd;"/>
</svg>