<?xml version="1.0" encoding="UTF-8"?>
<svg id="_イヤー_1" data-name="レイヤー 1" xmlns="http://www.w3.org/2000/svg" xmlns:xlink="http://www.w3.org/1999/xlink" viewBox="0 0 100 100">
  <defs>
    <clipPath id="clippath">
      <polyline points="10.31 10.31 89.69 10.31 89.69 89.69 10.31 89.69 10.31 10.31" style="fill: none;"/>
    </clipPath>
  </defs>
  <g style="clip-path: url(#clippath);">
    <path d="M26.8,36.13c12.92-12.54,33.47-12.54,46.39,0l1.54,1.51c.63,.61,.64,1.61,.03,2.24l-.03,.03-5.27,5.16c-.32,.31-.84,.31-1.16,0l-2.12-2.08c-9.01-8.75-23.35-8.75-32.36,0l-2.28,2.22c-.32,.31-.84,.31-1.16,0l-5.26-5.16c-.63-.61-.64-1.61-.03-2.24l.03-.03,1.69-1.66Zm57.3,10.68l4.69,4.6c.63,.61,.64,1.61,.03,2.24l-.03,.03-21.16,20.72c-.65,.62-1.67,.62-2.32,0l-15.02-14.71c-.16-.16-.42-.16-.58,0l-15.02,14.71c-.65,.62-1.67,.62-2.32,0L11.21,53.68c-.63-.61-.64-1.61-.03-2.24l.03-.03,4.69-4.6c.65-.62,1.67-.62,2.32,0l15.02,14.71c.16,.16,.42,.16,.58,0l15.02-14.71c.65-.62,1.67-.62,2.32,0l15.02,14.71c.16,.16,.42,.16,.58,0l15.02-14.71c.65-.62,1.67-.62,2.32,0Z" style="fill: #3b99fc;"/>
  </g>
</svg>