<?xml version="1.0" encoding="UTF-8"?>
<svg id="_イヤー_1" data-name="レイヤー 1" xmlns="http://www.w3.org/2000/svg" xmlns:xlink="http://www.w3.org/1999/xlink" viewBox="0 0 100 100">
  <defs>
    <clipPath id="clippath">
      <polyline points="10 10 90 10 90 90 10 90 10 10" style="fill: none;"/>
    </clipPath>
  </defs>
  <g style="clip-path: url(#clippath);">
    <polygon points="84.12 15.47 54.52 37.45 60 24.49 84.12 15.47" style="fill: #e2761b;"/>
    <path d="M84.12,15.47l-.3-.4-28.12,20.89,4.68-11.08,23.92-8.94-.17-.47-.3-.4,.3,.4-.18-.47-24.12,9.01c-.13,.05-.23,.15-.29,.27l-5.47,12.97c-.09,.21-.03,.45,.15,.59,.18,.14,.43,.14,.61,0l29.6-21.98c.2-.15,.26-.42,.14-.64-.12-.22-.38-.32-.61-.23l.18,.47Z" style="fill: #e2761b;"/>
    <polygon points="15.85 15.47 45.21 37.66 40.01 24.49 15.85 15.47" style="fill: #e4761b;"/>
    <path d="M15.85,15.47l-.3,.4,29.36,22.19c.18,.13,.43,.13,.6,0,.18-.14,.24-.37,.16-.58l-5.2-13.18c-.05-.13-.16-.24-.29-.28L16.03,15.01c-.23-.09-.49,.01-.61,.23-.12,.22-.06,.49,.14,.64l.3-.4-.17,.47,23.95,8.93,4.47,11.31L16.15,15.07l-.3,.4-.17,.47,.17-.47Z" style="fill: #e4761b;"/>
    <polygon points="73.47 66.43 65.59 78.5 82.45 83.13 87.29 66.68 73.47 66.43" style="fill: #e4761b;"/>
    <path d="M73.47,66.43l-.42-.27-7.88,12.08c-.09,.13-.11,.3-.05,.45,.06,.15,.18,.26,.34,.3l16.87,4.63c.26,.07,.53-.08,.61-.34l4.84-16.45c.04-.15,.02-.31-.08-.44-.09-.13-.24-.2-.39-.2l-13.83-.26c-.17,0-.33,.08-.43,.23l.42,.27v.5l13.16,.25-4.52,15.35-15.73-4.32,7.51-11.5-.42-.27v0Z" style="fill: #e4761b;"/>
    <polygon points="12.73 66.69 17.55 83.14 34.41 78.51 26.53 66.43 12.73 66.69" style="fill: #e4761b;"/>
    <path d="M12.73,66.69l-.48,.14,4.82,16.45c.08,.26,.35,.41,.61,.34l16.87-4.63c.15-.04,.28-.15,.34-.3s.04-.32-.05-.45l-7.88-12.08c-.09-.14-.26-.23-.43-.23l-13.8,.27c-.16,0-.3,.08-.39,.2-.09,.13-.12,.29-.08,.44l.48-.14v.5l13.53-.26,7.36,11.28-15.73,4.32-4.68-15.98-.48,.14v0Z" style="fill: #e4761b;"/>
    <polygon points="33.45 46.02 28.75 53.13 45.49 53.87 44.9 35.88 33.45 46.02" style="fill: #e4761b;"/>
    <path d="M33.45,46.02l-.42-.28-4.7,7.11c-.1,.15-.11,.34-.03,.5,.08,.16,.24,.26,.42,.27l16.75,.74c.14,0,.27-.05,.37-.14s.15-.23,.15-.37l-.6-18c0-.19-.12-.37-.3-.44-.18-.08-.38-.04-.53,.08l-11.45,10.14-.09,.1,.42,.28,.33,.37,10.65-9.44,.54,16.39-15.32-.68,4.21-6.37-.42-.28,.33,.37-.33-.37Z" style="fill: #e4761b;"/>
    <polygon points="66.53 46.02 54.93 35.67 54.54 53.87 71.25 53.13 66.53 46.02" style="fill: #e4761b;"/>
    <path d="M66.53,46.02l.33-.37-11.6-10.35c-.15-.13-.35-.16-.53-.09-.18,.08-.3,.25-.3,.45l-.39,18.2c0,.14,.05,.27,.15,.37s.23,.15,.37,.14l16.72-.74c.18,0,.34-.11,.42-.27,.08-.16,.07-.35-.03-.5l-4.73-7.11-.08-.1-.33,.37-.42,.28,4.24,6.37-15.3,.68,.35-16.59,10.79,9.63,.33-.37-.42,.28,.42-.28Z" style="fill: #e4761b;"/>
    <polygon points="34.39 78.5 44.45 73.59 35.76 66.81 34.39 78.5" style="fill: #e4761b;"/>
    <path d="M34.39,78.5l.22,.45,10.05-4.91c.15-.08,.26-.23,.28-.4,.02-.17-.05-.34-.19-.45l-8.68-6.78c-.14-.11-.33-.14-.5-.07-.17,.07-.28,.22-.3,.4l-1.37,11.69c-.02,.18,.06,.36,.21,.47,.15,.11,.34,.12,.51,.04l-.22-.45,.5,.06,1.26-10.81,7.35,5.74-9.33,4.56,.22,.45,.5,.06-.5-.06Z" style="fill: #e4761b;"/>
    <polygon points="55.52 73.59 65.61 78.5 64.21 66.81 55.52 73.59" style="fill: #e4761b;"/>
    <path d="M55.52,73.59l-.22,.45,10.08,4.91c.16,.08,.36,.06,.51-.04,.15-.11,.23-.28,.21-.47l-1.4-11.69c-.02-.18-.14-.33-.3-.4-.17-.07-.36-.04-.5,.07l-8.69,6.78c-.14,.11-.21,.28-.19,.45,.02,.17,.12,.32,.28,.4l.22-.45,.31,.39,7.99-6.24,1.18,9.9-9.26-4.51-.22,.45,.31,.39-.31-.39Z" style="fill: #e4761b;"/>
    <polygon points="65.62 78.5 55.53 73.59 56.33 80.17 56.25 82.93 65.62 78.5" style="fill: #d7c1b3;"/>
    <path d="M65.62,78.5l.22-.45-10.08-4.91c-.17-.08-.36-.06-.51,.04-.15,.11-.23,.29-.21,.47l.8,6.53-.09,2.73c0,.17,.08,.34,.23,.43,.15,.1,.33,.11,.49,.03l9.37-4.43c.17-.08,.29-.26,.29-.45,0-.19-.11-.37-.28-.45l-.22,.45-.21-.45-8.63,4.08,.06-1.95v-.08l-.69-5.66,9.26,4.51,.22-.45-.21-.45,.21,.45Z" style="fill: #d7c1b3;"/>
    <polygon points="34.39 78.5 43.75 82.93 43.69 80.17 44.44 73.59 34.39 78.5" style="fill: #d7c1b3;"/>
    <path d="M34.39,78.5l-.21,.45,9.37,4.43c.16,.07,.34,.06,.49-.03,.15-.09,.23-.26,.23-.43l-.06-2.73,.74-6.54c.02-.18-.06-.36-.21-.46s-.34-.12-.51-.04l-10.05,4.91c-.17,.08-.28,.26-.28,.45,0,.19,.11,.37,.29,.45l.21-.45,.22,.45,9.23-4.51-.64,5.67v.07l.04,1.96-8.64-4.09-.21,.45,.22,.45-.22-.45Z" style="fill: #d7c1b3;"/>
    <polygon points="43.91 62.47 35.52 60 41.44 57.29 43.91 62.47" style="fill: #233447;"/>
    <path d="M43.91,62.47l.14-.48-7.1-2.09,4.26-1.95,2.26,4.73,.45-.22,.14-.48-.14,.48,.45-.22-2.47-5.18c-.12-.25-.41-.35-.66-.24l-5.92,2.71c-.19,.09-.31,.28-.29,.49,.01,.21,.16,.39,.36,.44l8.39,2.47c.19,.06,.39,0,.52-.16,.13-.15,.16-.36,.07-.54l-.45,.22Z" style="fill: #233447;"/>
    <polygon points="56.06 62.47 58.53 57.29 64.48 60 56.06 62.47" style="fill: #233447;"/>
    <path d="M56.06,62.47l.45,.22,2.26-4.73,4.28,1.95-7.13,2.09,.14,.48,.45,.22-.45-.22,.14,.48,8.42-2.47c.2-.06,.34-.24,.36-.44s-.1-.4-.29-.49l-5.95-2.71c-.25-.11-.54,0-.66,.24l-2.47,5.17c-.09,.18-.06,.39,.07,.54,.13,.15,.33,.21,.52,.16l-.14-.48Z" style="fill: #233447;"/>
    <polygon points="34.39 78.5 35.81 66.43 26.5 66.69 34.39 78.5" style="fill: #cd6116;"/>
    <path d="M34.39,78.5l.5,.06,1.43-12.08c.02-.14-.03-.29-.13-.4s-.24-.17-.38-.16l-9.31,.27c-.18,0-.35,.11-.43,.27-.08,.16-.07,.36,.03,.51l7.88,11.81c.12,.17,.33,.26,.53,.21s.36-.22,.38-.43l-.5-.06,.42-.28-7.38-11.06,7.83-.22-1.36,11.5,.5,.06,.42-.28-.42,.28Z" style="fill: #cd6116;"/>
    <polygon points="64.19 66.43 65.62 78.5 73.5 66.69 64.19 66.43" style="fill: #cd6116;"/>
    <path d="M64.19,66.43l-.5,.06,1.43,12.08c.02,.21,.18,.38,.38,.43s.42-.03,.53-.21l7.88-11.81c.1-.15,.11-.35,.03-.51-.08-.16-.25-.27-.43-.27l-9.31-.27c-.14,0-.29,.06-.38,.16s-.14,.25-.13,.4l.5-.06v.5l8.39,.24-6.63,9.93-1.27-10.73-.5,.06v0Z" style="fill: #cd6116;"/>
    <polygon points="71.27 53.13 54.55 53.87 56.1 62.47 58.57 57.29 64.52 60 71.27 53.13" style="fill: #cd6116;"/>
    <path d="M71.27,53.13l-.02-.5-16.72,.74c-.14,0-.28,.07-.37,.19s-.13,.26-.1,.4l1.55,8.6c.04,.21,.21,.38,.43,.41,.22,.03,.42-.08,.52-.28l2.26-4.73,5.5,2.5c.19,.09,.42,.04,.56-.1l6.75-6.87c.14-.15,.18-.37,.1-.55-.08-.19-.27-.31-.48-.3l.02,.5-.36-.35-6.5,6.62-5.63-2.56c-.25-.11-.54,0-.66,.24l-1.8,3.77-1.17-6.51,16.14-.72-.02-.5-.36-.35,.36,.35Z" style="fill: #cd6116;"/>
    <polygon points="35.52 60 41.47 57.29 43.91 62.47 45.48 53.87 28.73 53.13 35.52 60" style="fill: #cd6116;"/>
    <path d="M35.52,60l.21,.46,5.5-2.5,2.23,4.73c.09,.2,.3,.31,.52,.28,.22-.03,.39-.19,.43-.41l1.58-8.6c.03-.14-.01-.29-.1-.4-.09-.11-.22-.18-.37-.19l-16.75-.74c-.21,0-.4,.11-.48,.3-.08,.19-.04,.41,.1,.55l6.78,6.87c.15,.15,.37,.19,.56,.1l-.21-.46,.36-.35-5.89-5.96,14.9,.66-1.19,6.5-1.78-3.77c-.12-.25-.41-.35-.66-.24l-5.95,2.71,.21,.46,.36-.35-.36,.35Z" style="fill: #cd6116;"/>
    <polygon points="28.73 53.13 35.75 66.81 35.51 60 28.73 53.13" style="fill: #e4751f;"/>
    <path d="M28.73,53.13l-.44,.23,7.02,13.68c.11,.21,.34,.31,.57,.26,.23-.06,.38-.27,.37-.5l-.24-6.81c0-.13-.06-.24-.14-.33l-6.78-6.87c-.17-.18-.45-.2-.65-.05-.2,.15-.26,.41-.15,.63l.44-.23-.36,.35,6.64,6.73,.15,4.38-6-11.69-.44,.23-.36,.35,.36-.35Z" style="fill: #e4751f;"/>
    <polygon points="64.51 60 64.22 66.81 71.27 53.13 64.51 60" style="fill: #e4751f;"/>
    <path d="M64.51,60l-.5-.02-.3,6.81c-.01,.24,.14,.44,.37,.51,.23,.06,.46-.04,.57-.25l7.05-13.68c.11-.22,.05-.49-.15-.63s-.48-.12-.65,.05l-6.75,6.87c-.09,.09-.14,.2-.14,.33l.5,.02,.36,.35,4.44-4.52-4.5,8.73,.2-4.54-.5-.02,.36,.35-.36-.35Z" style="fill: #e4751f;"/>
    <polygon points="45.48 53.87 43.9 62.47 45.87 72.61 46.31 59.26 45.48 53.87" style="fill: #e4751f;"/>
    <path d="M45.48,53.87l-.49-.09-1.58,8.6v.19l1.96,10.14c.05,.25,.28,.42,.53,.4s.45-.23,.46-.48l.45-13.36v-.09l-.84-5.38c-.04-.24-.24-.42-.49-.42-.24,0-.45,.17-.5,.41l.49,.09-.49,.08,.82,5.34-.3,8.88-1.1-5.7,1.56-8.5-.49-.09-.49,.08,.49-.08Z" style="fill: #e4751f;"/>
    <polygon points="54.55 53.87 53.75 59.23 54.11 72.61 56.1 62.47 54.55 53.87" style="fill: #e4751f;"/>
    <path d="M54.55,53.87l-.49-.07-.8,5.35v.09l.35,13.39c0,.25,.2,.46,.46,.48,.25,.02,.48-.15,.53-.4l1.99-10.14v-.19l-1.55-8.6c-.04-.24-.26-.41-.5-.41-.24,0-.45,.18-.49,.43l.49,.07-.49,.09,1.53,8.5-1.11,5.62-.24-8.83,.8-5.31-.49-.07-.49,.09,.49-.09Z" style="fill: #e4751f;"/>
    <polygon points="56.09 62.47 54.1 72.61 55.52 73.59 64.21 66.81 64.51 60 56.09 62.47" style="fill: #f6851b;"/>
    <path d="M56.09,62.47l-.49-.1-1.99,10.14c-.04,.2,.04,.4,.21,.51l1.43,.98c.18,.12,.42,.12,.59-.02l8.69-6.78c.12-.09,.19-.23,.19-.37l.3-6.81c0-.16-.06-.32-.19-.42-.13-.1-.29-.13-.45-.09l-8.42,2.47c-.18,.05-.31,.2-.35,.38l.49,.1,.14,.48,7.75-2.27-.26,5.88-8.22,6.41-.85-.59,1.93-9.82-.49-.1,.14,.48-.14-.48Z" style="fill: #f6851b;"/>
    <polygon points="35.52 60 35.76 66.81 44.45 73.59 45.87 72.61 43.91 62.47 35.52 60" style="fill: #f6851b;"/>
    <path d="M35.52,60l-.5,.02,.24,6.81c0,.15,.08,.29,.19,.38l8.69,6.78c.17,.13,.41,.14,.59,.02l1.43-.98c.16-.11,.25-.31,.21-.51l-1.96-10.14c-.04-.18-.17-.33-.35-.38l-8.39-2.47c-.15-.05-.32-.01-.45,.08-.13,.1-.2,.25-.19,.41l.5-.02-.14,.48,8.1,2.38,1.84,9.52-.86,.59-8.21-6.41-.23-6.58-.5,.02-.14,.48,.14-.48Z" style="fill: #f6851b;"/>
    <polygon points="56.25 82.93 56.33 80.17 55.59 79.51 44.38 79.51 43.69 80.17 43.75 82.93 34.39 78.5 37.66 81.18 44.29 85.79 55.68 85.79 62.35 81.18 65.62 78.5 56.25 82.93" style="fill: #c0ad9e;"/>
    <path d="M56.25,82.93l.5,.02,.09-2.77c0-.15-.06-.29-.17-.39l-.74-.65c-.09-.08-.21-.12-.33-.12h-11.21c-.13,0-.25,.05-.35,.14l-.68,.65c-.1,.1-.16,.23-.15,.37l.04,1.96-8.64-4.09c-.23-.11-.5-.03-.64,.18-.13,.21-.09,.49,.11,.65l3.27,2.68,.03,.02,6.63,4.61c.08,.06,.18,.09,.29,.09h11.39c.1,0,.2-.03,.28-.09l6.66-4.61,.03-.02,3.27-2.68c.19-.16,.24-.44,.11-.65-.13-.21-.41-.29-.64-.18l-9.37,4.43,.21,.45,.5,.02-.5-.02,.21,.45,5.69-2.69-.1,.08-6.52,4.51h-11.08l-6.49-4.51-.1-.08,5.68,2.69c.16,.07,.34,.06,.49-.03,.15-.09,.23-.26,.23-.43l-.05-2.55,.38-.36h10.82l.42,.37-.08,2.53c0,.17,.08,.34,.23,.43,.15,.1,.33,.11,.49,.03l-.21-.45Z" style="fill: #c0ad9e;"/>
    <polygon points="55.53 73.59 54.11 72.61 45.87 72.61 44.44 73.59 43.69 80.17 44.38 79.51 55.59 79.51 56.33 80.17 55.53 73.59" style="fill: #161616;"/>
    <path d="M55.53,73.59l.28-.41-1.43-.98c-.08-.06-.18-.09-.28-.09h-8.24c-.1,0-.2,.03-.28,.09l-1.43,.98c-.12,.08-.2,.21-.21,.36l-.74,6.57c-.02,.21,.09,.41,.27,.5,.19,.09,.42,.06,.57-.09l.54-.52h10.82l.6,.53c.16,.14,.38,.16,.56,.07s.29-.3,.26-.5l-.8-6.57c-.02-.14-.1-.27-.21-.35l-.28,.41-.5,.06,.8,6.57,.5-.06,.33-.38-.74-.65c-.09-.08-.21-.12-.33-.12h-11.21c-.13,0-.25,.05-.35,.14l-.68,.65,.35,.36,.5,.06,.72-6.35,1.11-.76h7.93l1.3,.89,.28-.41-.5,.06,.5-.06Z" style="fill: #161616;"/>
    <polygon points="85.37 38.88 87.89 26.75 84.12 15.47 55.5 36.71 66.51 46.02 82.07 50.57 85.52 46.56 84.03 45.49 86.41 43.32 84.56 41.89 86.94 40.07 85.37 38.88" style="fill: #763d16;"/>
    <path d="M85.37,38.88l.49,.1,2.53-12.13-.02-.26-3.77-11.27c-.05-.15-.17-.27-.32-.32s-.32-.02-.45,.08l-28.61,21.24c-.12,.09-.2,.23-.2,.39,0,.15,.06,.3,.18,.4l11.01,9.31,.18,.1,15.56,4.55c.19,.06,.39,0,.52-.15l3.45-4.01c.09-.11,.13-.25,.12-.38s-.09-.27-.2-.35l-.99-.71,1.92-1.76c.11-.1,.17-.24,.16-.39s-.08-.28-.19-.38l-1.33-1.03,1.86-1.42c.12-.1,.2-.24,.2-.4,0-.16-.07-.3-.2-.4l-1.58-1.19-.3,.4,.49,.1-.49-.1-.3,.4,1.05,.79-1.86,1.42c-.12,.09-.2,.24-.2,.4,0,.16,.07,.3,.19,.4l1.37,1.06-1.94,1.77c-.11,.1-.17,.25-.16,.4,0,.15,.08,.29,.21,.38l1.04,.75-2.89,3.36-15.14-4.43-10.44-8.83,27.55-20.45,3.51,10.49-2.5,12c-.04,.19,.03,.38,.19,.5l.3-.4Z" style="fill: #763d16;"/>
    <polygon points="12.11 26.75 14.63 38.88 13.03 40.07 15.4 41.89 13.59 43.31 15.97 45.48 14.48 46.56 17.9 50.57 33.46 46.02 44.47 36.71 15.85 15.47 12.11 26.75" style="fill: #763d16;"/>
    <path d="M12.11,26.75l-.49,.1,2.46,11.82-1.35,1c-.13,.09-.2,.24-.2,.4,0,.16,.07,.31,.2,.4l1.87,1.42-1.31,1.03c-.12,.09-.19,.23-.19,.37,0,.15,.05,.29,.16,.39l1.92,1.76-.99,.71c-.11,.08-.19,.21-.2,.35-.02,.14,.03,.28,.12,.38l3.42,4.01c.13,.15,.33,.21,.52,.16l15.56-4.55,.18-.1,11.01-9.31c.12-.1,.18-.25,.18-.4,0-.15-.08-.3-.2-.39L16.15,15.07c-.13-.1-.3-.12-.45-.08-.15,.05-.27,.17-.32,.32l-3.75,11.27-.02,.26,.49-.1,.47,.16,3.53-10.62,27.55,20.45-10.44,8.83-15.14,4.43-2.86-3.36,1.05-.75c.12-.09,.2-.23,.21-.38,0-.15-.05-.3-.16-.4l-1.94-1.77,1.35-1.06c.12-.1,.19-.24,.19-.4,0-.16-.07-.3-.2-.39l-1.85-1.41,1.07-.79c.16-.12,.23-.31,.19-.5l-2.53-12.13-.49,.1,.47,.16-.47-.16Z" style="fill: #763d16;"/>
    <polygon points="82.07 50.57 66.51 46.02 71.23 53.13 64.19 66.81 73.47 66.69 87.3 66.69 82.07 50.57" style="fill: #f6851b;"/>
    <path d="M82.07,50.57l.14-.48-15.56-4.55c-.2-.06-.42,.01-.54,.18s-.13,.4-.01,.57l4.57,6.86-6.91,13.42c-.08,.16-.07,.34,.02,.49s.26,.24,.43,.24l9.28-.12h13.83c.16,0,.31-.08,.4-.21s.12-.3,.07-.45l-5.23-16.12c-.05-.16-.18-.28-.34-.33l-.14,.48-.48,.15,5.02,15.47h-13.15l-8.45,.11,6.67-12.94c.08-.16,.07-.35-.03-.51l-3.97-5.97,14.24,4.17,.14-.48-.48,.15,.48-.15Z" style="fill: #f6851b;"/>
    <polygon points="33.46 46.02 17.91 50.57 12.73 66.69 26.53 66.69 35.78 66.81 28.76 53.13 33.46 46.02" style="fill: #f6851b;"/>
    <path d="M33.46,46.02l-.14-.48-15.56,4.55c-.16,.05-.29,.17-.34,.33l-5.18,16.12c-.05,.15-.02,.32,.07,.45,.09,.13,.24,.21,.4,.21h13.8l9.25,.12c.18,0,.34-.09,.43-.24,.09-.15,.1-.34,.02-.49l-6.89-13.42,4.54-6.86c.12-.18,.11-.4-.01-.57-.12-.17-.34-.24-.54-.18l.14,.48-.42-.28-4.7,7.11c-.1,.15-.11,.34-.03,.5l6.64,12.95-8.42-.11H13.42l4.89-15.21,15.3-4.48-.14-.48-.42-.28,.42,.28Z" style="fill: #f6851b;"/>
    <polygon points="54.55 53.87 55.53 36.71 60.05 24.49 39.98 24.49 44.44 36.71 45.48 53.87 45.84 59.29 45.87 72.61 54.11 72.61 54.16 59.29 54.55 53.87" style="fill: #f6851b;"/>
    <path d="M54.55,53.87l.5,.03,.98-17.09,4.5-12.16c.06-.15,.04-.32-.06-.46-.09-.13-.25-.21-.41-.21h-20.08c-.16,0-.32,.08-.41,.21-.09,.13-.12,.3-.06,.46l4.44,12.16,1.04,17.09h0l.36,5.4,.03,13.31c0,.28,.22,.5,.5,.5h8.24c.27,0,.5-.22,.5-.5l.06-13.31,.39-5.4h0l-.5-.04-.5-.04-.39,5.41v.03l-.06,12.83h-7.24l-.03-12.83v-.03l-.36-5.41h0l-1.04-17.16-.03-.14-4.22-11.55h18.64l-4.27,11.55-.03,.14-.98,17.16,.5,.03-.5-.04,.5,.04Z" style="fill: #f6851b;"/>
  </g>
</svg>