<svg xmlns="http://www.w3.org/2000/svg" xmlns:xlink="http://www.w3.org/1999/xlink" width="279" height="82" viewBox="0 0 279 82">
  <defs>
    <linearGradient id="linear-gradient" x1="0.047" y1="0.05" x2="1" y2="1" gradientUnits="objectBoundingBox">
      <stop offset="0" stop-color="#49a4f8"/>
      <stop offset="1" stop-color="#803de4"/>
    </linearGradient>
    <linearGradient id="linear-gradient-2" x1="0.916" y1="-0.033" x2="0.169" xlink:href="#linear-gradient"/>
  </defs>
  <g id="グループ_68995" data-name="グループ 68995" transform="translate(-147 -351)">
    <rect id="長方形_19649" data-name="長方形 19649" width="279" height="82" rx="5" transform="translate(147 351)" fill="url(#linear-gradient)"/>
    <rect id="長方形_19650" data-name="長方形 19650" width="275" height="78" rx="5" transform="translate(149 353)" fill="#fff"/>
    <text id="with" transform="translate(225.95 400)" font-size="14" font-family="Poppins-Medium, Poppins" font-weight="500"><tspan x="0" y="0">with</tspan></text>
    <g id="グループ_68970" data-name="グループ 68970" transform="translate(5.358 8)">
      <g id="グループ_68969" data-name="グループ 68969">
        <path id="パス_59454" data-name="パス 59454" d="M16.38-12.376a6.667,6.667,0,0,1-1.222,2.9,6.933,6.933,0,0,1-2.613,2.119,8.769,8.769,0,0,1-3.887.806H5.9L4.732,0H.286L3.51-18.252h7.2a6.43,6.43,0,0,1,4.316,1.261,4.29,4.29,0,0,1,1.456,3.419A6.4,6.4,0,0,1,16.38-12.376Zm-7.462,2.34a2.656,2.656,0,0,0,2.938-2.34,5.494,5.494,0,0,0,.052-.6,1.6,1.6,0,0,0-.533-1.287,2.457,2.457,0,0,0-1.625-.455H7.332l-.806,4.68ZM17.706-7.28a9.965,9.965,0,0,1,1.534-3.926A8.184,8.184,0,0,1,22-13.806a6.825,6.825,0,0,1,3.406-.91,4.924,4.924,0,0,1,2.574.624,3.7,3.7,0,0,1,1.508,1.638l.364-2.054h4.446L31.72,0H27.274l.39-2.054A6.215,6.215,0,0,1,25.558-.416,6.3,6.3,0,0,1,22.75.208a5.222,5.222,0,0,1-2.717-.7A4.738,4.738,0,0,1,18.2-2.483a6.64,6.64,0,0,1-.65-3.029A10.776,10.776,0,0,1,17.706-7.28Zm10.868.026a5.252,5.252,0,0,0,.078-.858,2.678,2.678,0,0,0-.741-2,2.578,2.578,0,0,0-1.885-.728,3.6,3.6,0,0,0-2.418.949A4.293,4.293,0,0,0,22.23-7.28a5.251,5.251,0,0,0-.078.858,2.723,2.723,0,0,0,.741,2.015,2.521,2.521,0,0,0,1.859.741,3.574,3.574,0,0,0,2.418-.962A4.472,4.472,0,0,0,28.574-7.254ZM41.6-14.508l1.768,9.074L40.092-.494,36.66-14.508Z" transform="translate(162 395)" fill="#1c1c1c"/>
      </g>
      <path id="パス_59381" data-name="パス 59381" d="M3449.449,364.166l12.938-21.469h4.844l-12.937,21.469Z" transform="translate(-3252.074 37.803)" fill="url(#linear-gradient-2)"/>
    </g>
    <g id="metamask-seeklogo.com" transform="translate(262.385 380)">
      <path id="パス_59334" data-name="パス 59334" d="M150.081,15.443c-.75-.494-1.576-.846-2.358-1.286a10.049,10.049,0,0,1-1.487-.9,1.5,1.5,0,0,1,.187-2.352,2.031,2.031,0,0,1,3.184,1.2.062.062,0,0,0,.066.055h1.7a.062.062,0,0,0,.066-.077,3.339,3.339,0,0,0-1.245-2.494,3.949,3.949,0,0,0-2.4-.824c-4.484,0-4.892,4.736-2.479,6.231.276.176,2.644,1.363,3.482,1.879a1.716,1.716,0,0,1,.738,2.209,2.171,2.171,0,0,1-2.049,1.1,2.026,2.026,0,0,1-1.917-1.352,2.392,2.392,0,0,1-.066-.538.071.071,0,0,0-.066-.066h-1.839a.071.071,0,0,0-.066.066,2.942,2.942,0,0,0,1.234,2.736,4.429,4.429,0,0,0,2.732.9c2.512,0,3.812-1.418,4.076-2.89A3.4,3.4,0,0,0,150.081,15.443Z" transform="translate(-21.657 -1.179)" fill="#161616"/>
      <path id="パス_59335" data-name="パス 59335" d="M55.647,9.047H53.94a.074.074,0,0,0-.066.044l-1.509,4.967a.069.069,0,0,1-.132,0L50.723,9.091a.06.06,0,0,0-.066-.044H47.847a.071.071,0,0,0-.066.066V21.794a.071.071,0,0,0,.066.066h1.84a.071.071,0,0,0,.066-.066V12.157a.069.069,0,0,1,.132-.022l1.52,5,.11.352a.06.06,0,0,0,.066.044h1.41a.074.074,0,0,0,.066-.044l.11-.352,1.52-5a.068.068,0,0,1,.132.022v9.637a.071.071,0,0,0,.066.066h1.84a.071.071,0,0,0,.066-.066V9.113a.071.071,0,0,0-.066-.066Z" transform="translate(-7.108 -1.223)" fill="#161616"/>
      <path id="パス_59336" data-name="パス 59336" d="M116.935,9.047a.074.074,0,0,0-.066.044l-1.509,4.967a.069.069,0,0,1-.132,0l-1.51-4.967a.06.06,0,0,0-.066-.044h-2.8a.071.071,0,0,0-.066.066V21.794a.071.071,0,0,0,.066.066h1.84a.071.071,0,0,0,.066-.066V12.157a.069.069,0,0,1,.132-.022l1.52,5,.11.352a.06.06,0,0,0,.066.044H116a.074.074,0,0,0,.066-.044l.11-.352,1.521-5a.068.068,0,0,1,.132.022v9.637a.071.071,0,0,0,.066.066h1.839a.071.071,0,0,0,.066-.066V9.113a.071.071,0,0,0-.066-.066Z" transform="translate(-16.682 -1.223)" fill="#161616"/>
      <path id="パス_59337" data-name="パス 59337" d="M88.485,9.047H79.792a.071.071,0,0,0-.066.066V10.7a.071.071,0,0,0,.066.066h3.36V21.794a.071.071,0,0,0,.066.066h1.84a.071.071,0,0,0,.066-.066V10.761h3.36a.071.071,0,0,0,.066-.066V9.113A.063.063,0,0,0,88.485,9.047Z" transform="translate(-11.963 -1.223)" fill="#161616"/>
      <path id="パス_59338" data-name="パス 59338" d="M101.469,21.852h1.674a.07.07,0,0,0,.066-.088L99.75,9.039a.06.06,0,0,0-.066-.044h-2.4a.074.074,0,0,0-.066.044L93.757,21.764a.07.07,0,0,0,.066.088H95.5a.074.074,0,0,0,.066-.044l1-3.7a.06.06,0,0,1,.066-.044h3.7a.074.074,0,0,1,.066.044l1,3.7A.091.091,0,0,0,101.469,21.852Zm-4.4-5.6,1.344-4.956a.069.069,0,0,1,.132,0l1.344,4.956a.07.07,0,0,1-.066.088H97.139A.07.07,0,0,1,97.073,16.247Z" transform="translate(-14.094 -1.215)" fill="#161616"/>
      <path id="パス_59339" data-name="パス 59339" d="M135.142,21.852h1.674a.07.07,0,0,0,.066-.088L133.423,9.039a.06.06,0,0,0-.066-.044h-2.4a.074.074,0,0,0-.066.044L127.43,21.764a.07.07,0,0,0,.066.088h1.675a.074.074,0,0,0,.066-.044l1-3.7a.06.06,0,0,1,.066-.044h3.7a.074.074,0,0,1,.066.044l1,3.7A.074.074,0,0,0,135.142,21.852Zm-4.4-5.6,1.344-4.956a.069.069,0,0,1,.132,0l1.344,4.956a.07.07,0,0,1-.066.088h-2.688A.07.07,0,0,1,130.745,16.247Z" transform="translate(-19.211 -1.215)" fill="#161616"/>
      <path id="パス_59340" data-name="パス 59340" d="M66.863,19.983V16.049a.071.071,0,0,1,.066-.066h4.9a.071.071,0,0,0,.066-.066V14.334a.071.071,0,0,0-.066-.066h-4.9a.071.071,0,0,1-.066-.066V10.84a.071.071,0,0,1,.066-.066H72.5a.071.071,0,0,0,.066-.066V9.126A.071.071,0,0,0,72.5,9.06H64.957a.071.071,0,0,0-.066.066V21.8a.071.071,0,0,0,.066.066h7.778A.071.071,0,0,0,72.8,21.8v-1.67a.071.071,0,0,0-.066-.066H66.918A.073.073,0,0,1,66.863,19.983Z" transform="translate(-9.708 -1.225)" fill="#161616"/>
      <path id="パス_59341" data-name="パス 59341" d="M169.286,21.752l-6.368-6.56a.067.067,0,0,1,0-.088l5.729-5.934a.063.063,0,0,0-.044-.11h-2.347a.057.057,0,0,0-.044.022l-4.858,5.033a.064.064,0,0,1-.11-.044V9.126a.071.071,0,0,0-.066-.066h-1.84a.071.071,0,0,0-.066.066V21.807a.071.071,0,0,0,.066.066h1.84a.071.071,0,0,0,.066-.066V16.225c0-.055.077-.088.11-.044l5.508,5.67a.084.084,0,0,0,.044.022h2.347C169.3,21.862,169.33,21.785,169.286,21.752Z" transform="translate(-24.05 -1.225)" fill="#161616"/>
      <path id="パス_59342" data-name="パス 59342" d="M30.963,1,19.824,9.242,21.9,4.385Z" transform="translate(-2.86)" fill="#e17726" stroke="#e17726" stroke-linecap="round" stroke-linejoin="round" stroke-width="0.25"/>
      <path id="パス_59343" data-name="パス 59343" d="M2.663,1,13.7,9.319,11.73,4.385Z" transform="translate(-0.253)" fill="#e27625" stroke="#e27625" stroke-linecap="round" stroke-linejoin="round" stroke-width="0.25"/>
      <path id="パス_59344" data-name="パス 59344" d="M27.7,23.533l-2.964,4.527,6.346,1.747L32.9,23.632Z" transform="translate(-3.607 -3.424)" fill="#e27625" stroke="#e27625" stroke-linecap="round" stroke-linejoin="round" stroke-width="0.25"/>
      <path id="パス_59345" data-name="パス 59345" d="M1.273,23.632,3.08,29.808l6.335-1.747L6.462,23.533Z" transform="translate(-0.041 -3.424)" fill="#e27625" stroke="#e27625" stroke-linecap="round" stroke-linejoin="round" stroke-width="0.25"/>
      <path id="パス_59346" data-name="パス 59346" d="M10.155,13.832,8.392,16.491l6.28.286-.209-6.758Z" transform="translate(-1.123 -1.37)" fill="#e27625" stroke="#e27625" stroke-linecap="round" stroke-linejoin="round" stroke-width="0.25"/>
      <path id="パス_59347" data-name="パス 59347" d="M24.341,13.818l-4.374-3.89-.143,6.835,6.28-.286Z" transform="translate(-2.86 -1.357)" fill="#e27625" stroke="#e27625" stroke-linecap="round" stroke-linejoin="round" stroke-width="0.25"/>
      <path id="パス_59348" data-name="パス 59348" d="M10.873,28.086l3.8-1.835L11.4,23.7Z" transform="translate(-1.5 -3.45)" fill="#e27625" stroke="#e27625" stroke-linecap="round" stroke-linejoin="round" stroke-width="0.25"/>
      <path id="パス_59349" data-name="パス 59349" d="M20.266,26.251l3.79,1.835L23.538,23.7Z" transform="translate(-2.927 -3.45)" fill="#e27625" stroke="#e27625" stroke-linecap="round" stroke-linejoin="round" stroke-width="0.25"/>
      <path id="パス_59350" data-name="パス 59350" d="M24.056,28.543l-3.79-1.835.308,2.461-.033,1.044Z" transform="translate(-2.927 -3.906)" fill="#d5bfb2" stroke="#d5bfb2" stroke-linecap="round" stroke-linejoin="round" stroke-width="0.25"/>
      <path id="パス_59351" data-name="パス 59351" d="M10.873,28.543l3.526,1.67-.022-1.044.3-2.461Z" transform="translate(-1.5 -3.906)" fill="#d5bfb2" stroke="#d5bfb2" stroke-linecap="round" stroke-linejoin="round" stroke-width="0.25"/>
      <path id="パス_59352" data-name="パス 59352" d="M14.544,21.436l-3.151-.923,2.225-1.022Z" transform="translate(-1.579 -2.81)" fill="#233447" stroke="#233447" stroke-linecap="round" stroke-linejoin="round" stroke-width="0.25"/>
      <path id="パス_59353" data-name="パス 59353" d="M20.513,21.436l.925-1.945,2.236,1.022Z" transform="translate(-2.965 -2.81)" fill="#233447" stroke="#233447" stroke-linecap="round" stroke-linejoin="round" stroke-width="0.25"/>
      <path id="パス_59354" data-name="パス 59354" d="M10.344,28.061l.551-4.527-3.5.1Z" transform="translate(-0.971 -3.424)" fill="#cc6228" stroke="#cc6228" stroke-linecap="round" stroke-linejoin="round" stroke-width="0.25"/>
      <path id="パス_59355" data-name="パス 59355" d="M24.1,23.533l.54,4.527L27.6,23.632Z" transform="translate(-3.51 -3.424)" fill="#cc6228" stroke="#cc6228" stroke-linecap="round" stroke-linejoin="round" stroke-width="0.25"/>
      <path id="パス_59356" data-name="パス 59356" d="M26.1,17.651l-6.28.286.584,3.22.925-1.945,2.236,1.022Z" transform="translate(-2.86 -2.53)" fill="#cc6228" stroke="#cc6228" stroke-linecap="round" stroke-linejoin="round" stroke-width="0.25"/>
      <path id="パス_59357" data-name="パス 59357" d="M10.937,20.233l2.225-1.022.925,1.945.584-3.22-6.28-.286Z" transform="translate(-1.123 -2.53)" fill="#cc6228" stroke="#cc6228" stroke-linecap="round" stroke-linejoin="round" stroke-width="0.25"/>
      <path id="パス_59358" data-name="パス 59358" d="M8.392,17.651l2.633,5.132-.088-2.549Z" transform="translate(-1.123 -2.53)" fill="#e27525" stroke="#e27525" stroke-linecap="round" stroke-linejoin="round" stroke-width="0.25"/>
      <path id="パス_59359" data-name="パス 59359" d="M24.223,20.233l-.1,2.549,2.633-5.132Z" transform="translate(-3.514 -2.53)" fill="#e27525" stroke="#e27525" stroke-linecap="round" stroke-linejoin="round" stroke-width="0.25"/>
      <path id="パス_59360" data-name="パス 59360" d="M15.693,17.987l-.584,3.22.738,3.8L16.012,20Z" transform="translate(-2.144 -2.581)" fill="#e27525" stroke="#e27525" stroke-linecap="round" stroke-linejoin="round" stroke-width="0.25"/>
      <path id="パス_59361" data-name="パス 59361" d="M19.769,17.987l-.309,2,.154,5.022.738-3.8Z" transform="translate(-2.805 -2.581)" fill="#e27525" stroke="#e27525" stroke-linecap="round" stroke-linejoin="round" stroke-width="0.25"/>
      <path id="パス_59362" data-name="パス 59362" d="M20.38,21.619l-.738,3.8.529.374,3.272-2.549.1-2.549Z" transform="translate(-2.833 -2.993)" fill="#f5841f" stroke="#f5841f" stroke-linecap="round" stroke-linejoin="round" stroke-width="0.25"/>
      <path id="パス_59363" data-name="パス 59363" d="M11.393,20.7l.088,2.549,3.272,2.549.529-.374-.738-3.8Z" transform="translate(-1.579 -2.993)" fill="#f5841f" stroke="#f5841f" stroke-linecap="round" stroke-linejoin="round" stroke-width="0.25"/>
      <path id="パス_59364" data-name="パス 59364" d="M19.114,30.542l.033-1.044-.286-.242H14.652l-.275.242.022,1.044-3.526-1.67,1.234,1.011,2.5,1.725h4.286l2.512-1.725,1.223-1.011Z" transform="translate(-1.5 -4.235)" fill="#c0ac9d" stroke="#c0ac9d" stroke-linecap="round" stroke-linejoin="round" stroke-width="0.25"/>
      <path id="パス_59365" data-name="パス 59365" d="M19.466,26.641l-.529-.374H15.831l-.529.374L15,29.1l.275-.242h4.209l.286.242Z" transform="translate(-2.128 -3.839)" fill="#161616" stroke="#161616" stroke-linecap="round" stroke-linejoin="round" stroke-width="0.25"/>
      <path id="パス_59366" data-name="パス 59366" d="M31.5,9.78l.937-4.549L31.03,1,20.266,8.967l4.142,3.494,5.85,1.7,1.289-1.505-.562-.407.892-.813-.683-.527.892-.681Z" transform="translate(-2.927)" fill="#763e1a" stroke="#763e1a" stroke-linecap="round" stroke-linejoin="round" stroke-width="0.25"/>
      <path id="パス_59367" data-name="パス 59367" d="M1,5.231,1.947,9.78l-.606.451.9.681-.683.527.892.813-.562.407,1.289,1.505,5.85-1.7,4.142-3.494L2.41,1Z" fill="#763e1a" stroke="#763e1a" stroke-linecap="round" stroke-linejoin="round" stroke-width="0.25"/>
      <path id="パス_59368" data-name="パス 59368" d="M30.845,16.218l-5.85-1.7,1.763,2.659-2.633,5.132,3.481-.044h5.2Z" transform="translate(-3.514 -2.054)" fill="#f5841f" stroke="#f5841f" stroke-linecap="round" stroke-linejoin="round" stroke-width="0.25"/>
      <path id="パス_59369" data-name="パス 59369" d="M9.073,14.515l-5.85,1.7-1.95,6.044H6.462l3.481.044L7.31,17.174Z" transform="translate(-0.041 -2.054)" fill="#f5841f" stroke="#f5841f" stroke-linecap="round" stroke-linejoin="round" stroke-width="0.25"/>
      <path id="パス_59370" data-name="パス 59370" d="M18.841,16.013l.375-6.439,1.7-4.582H13.354l1.7,4.582.375,6.439.143,2.022.011,5h3.107l.011-5Z" transform="translate(-1.877 -0.606)" fill="#f5841f" stroke="#f5841f" stroke-linecap="round" stroke-linejoin="round" stroke-width="0.25"/>
    </g>
  </g>
</svg>
