<svg xmlns="http://www.w3.org/2000/svg" width="34.414" height="24.851" viewBox="0 0 34.414 24.851">
  <g id="gitbook-icon" transform="translate(0.013 -8.875)">
    <path id="Fill-1" d="M15.477,29.586a1.021,1.021,0,1,1-1.021,1.021,1.021,1.021,0,0,1,1.021-1.021M31.282,23.35A1.021,1.021,0,1,1,32.3,22.329a1.057,1.057,0,0,1-1.021,1.021m0-4.14a3.12,3.12,0,0,0-3.118,3.118,3.044,3.044,0,0,0,.161.968L18.057,28.78a3.115,3.115,0,0,0-2.58-1.344,3.2,3.2,0,0,0-2.8,1.72L3.435,24.318a4.006,4.006,0,0,1-1.613-3.6,1.946,1.946,0,0,1,.7-1.559.936.936,0,0,1,.914.054l.054.054c2.473,1.29,10.483,5.484,10.806,5.645a1.668,1.668,0,0,0,1.72-.108l16.558-8.6a.757.757,0,0,0,.538-.7.832.832,0,0,0-.484-.7c-.968-.43-2.419-1.129-3.817-1.774-3.011-1.4-6.451-3.011-7.957-3.817a2.53,2.53,0,0,0-2.527,0l-.376.161c-6.828,3.441-15.859,7.9-16.4,8.225A3.6,3.6,0,0,0-.006,20.662c-.108,2.2,1.021,4.516,2.634,5.322l9.784,5.053a3.165,3.165,0,0,0,3.064,2.688,3.109,3.109,0,0,0,3.118-3.064l10.752-5.806a3.145,3.145,0,1,0,1.935-5.645" transform="translate(0 0)" fill="#fff"/>
  </g>
</svg>
