<svg xmlns="http://www.w3.org/2000/svg" xmlns:xlink="http://www.w3.org/1999/xlink" width="124.545" height="40.266" viewBox="0 0 124.545 40.266">
  <defs>
    <linearGradient id="linear-gradient" x1="-0.062" y1="-0.061" x2="1.018" y2="1" gradientUnits="objectBoundingBox">
      <stop offset="0" stop-color="#3eb9fc"/>
      <stop offset="1" stop-color="#8b2ae1"/>
    </linearGradient>
    <linearGradient id="linear-gradient-2" x1="-0.042" y1="1.033" x2="1.092" y2="-0.082" xlink:href="#linear-gradient"/>
  </defs>
  <g id="グループ_5195" data-name="グループ 5195" transform="translate(0)">
    <path id="パス_57689" data-name="パス 57689" d="M239.323,69.365a5.607,5.607,0,0,1-2.221-1.732,4.381,4.381,0,0,1-.9-2.416h3.663a2,2,0,0,0,.818,1.377,2.852,2.852,0,0,0,1.781.546,2.76,2.76,0,0,0,1.624-.417,1.258,1.258,0,0,0,.585-1.062,1.126,1.126,0,0,0-.714-1.052,13.464,13.464,0,0,0-2.272-.767,19.2,19.2,0,0,1-2.638-.805,4.576,4.576,0,0,1-1.766-1.273,3.415,3.415,0,0,1-.74-2.312,3.732,3.732,0,0,1,.689-2.182,4.626,4.626,0,0,1,1.974-1.559,7.4,7.4,0,0,1,3.031-.572,6.178,6.178,0,0,1,4.1,1.286,4.763,4.763,0,0,1,1.689,3.468H244.55a1.882,1.882,0,0,0-.714-1.364,2.655,2.655,0,0,0-1.7-.507,2.685,2.685,0,0,0-1.52.363,1.161,1.161,0,0,0-.533,1.013,1.19,1.19,0,0,0,.727,1.1,11.31,11.31,0,0,0,2.26.766,19.156,19.156,0,0,1,2.572.806,4.532,4.532,0,0,1,1.754,1.286,3.532,3.532,0,0,1,.762,2.3,3.811,3.811,0,0,1-.693,2.233,4.534,4.534,0,0,1-1.975,1.547,7.477,7.477,0,0,1-3,.558,7.6,7.6,0,0,1-3.166-.634Zm-18.433-.3a6.544,6.544,0,0,1-2.364-2.637,8.473,8.473,0,0,1-.87-3.91,8.332,8.332,0,0,1,.87-3.87,6.38,6.38,0,0,1,2.364-2.6,6.3,6.3,0,0,1,3.339-.908,5.868,5.868,0,0,1,2.818.65,5.731,5.731,0,0,1,1.936,1.637V55.375h3.663V69.768h-3.663v-2.1a5.4,5.4,0,0,1-1.936,1.676A5.917,5.917,0,0,1,224.2,70a6.119,6.119,0,0,1-3.313-.935Zm2.4-10.236a3.717,3.717,0,0,0-1.391,1.442,4.521,4.521,0,0,0-.533,2.247,4.669,4.669,0,0,0,.533,2.277,3.845,3.845,0,0,0,1.4,1.494,3.568,3.568,0,0,0,1.858.52,3.746,3.746,0,0,0,1.9-.507,3.656,3.656,0,0,0,1.4-1.454,5.232,5.232,0,0,0,0-4.547,3.656,3.656,0,0,0-1.4-1.454,3.746,3.746,0,0,0-1.9-.507,3.684,3.684,0,0,0-1.871.49ZM196.833,69.3a5.607,5.607,0,0,1-2.4-1.871,4.925,4.925,0,0,1-.908-2.884h3.9a2.517,2.517,0,0,0,.792,1.767,2.806,2.806,0,0,0,1.962.65,3.02,3.02,0,0,0,2-.606,1.985,1.985,0,0,0,.727-1.6,1.847,1.847,0,0,0-.494-1.325,3.471,3.471,0,0,0-1.235-.818,20.482,20.482,0,0,0-2.038-.665,21.752,21.752,0,0,1-2.872-1.026,5.023,5.023,0,0,1-1.9-1.532,4.368,4.368,0,0,1-.792-2.741,4.9,4.9,0,0,1,.806-2.806,5.125,5.125,0,0,1,2.26-1.832,8.227,8.227,0,0,1,3.325-.637,7.218,7.218,0,0,1,4.56,1.364,5.059,5.059,0,0,1,1.936,3.81h-4A2.078,2.078,0,0,0,201.665,55,2.988,2.988,0,0,0,199.7,54.4a2.524,2.524,0,0,0-1.7.546,1.972,1.972,0,0,0-.637,1.585,1.638,1.638,0,0,0,.481,1.212,3.646,3.646,0,0,0,1.2.779q.714.3,2.013.693a21.138,21.138,0,0,1,2.884,1.039,5.181,5.181,0,0,1,1.923,1.559,4.33,4.33,0,0,1,.805,2.728,5.135,5.135,0,0,1-.753,2.7,5.328,5.328,0,0,1-2.209,1.988,7.535,7.535,0,0,1-3.455.74A8.607,8.607,0,0,1,196.833,69.3ZM262,69.768v-7.95a3.73,3.73,0,0,0-.857-2.637,3.031,3.031,0,0,0-2.338-.922,3.112,3.112,0,0,0-2.377.922,3.7,3.7,0,0,0-.866,2.637v7.95h-3.637V50.542h3.637v6.625a4.746,4.746,0,0,1,1.871-1.472,6.2,6.2,0,0,1,2.6-.533,5.843,5.843,0,0,1,2.91.714,4.92,4.92,0,0,1,1.992,2.1,7.225,7.225,0,0,1,.714,3.339v8.444Zm-51.415,0V50.542h3.637V69.768Z" transform="translate(-141.108 -40.812)" fill="url(#linear-gradient)"/>
    <g id="グループ_68956" data-name="グループ 68956" transform="translate(-252.455 -5236.042)">
      <rect id="長方形_19622" data-name="長方形 19622" width="40.266" height="40.011" rx="8" transform="translate(292.466 5236.042) rotate(90)" fill="url(#linear-gradient-2)"/>
      <path id="パス_59342" data-name="パス 59342" d="M0,0,3.144.046l.343,32.373L.343,32.373Z" transform="translate(282.634 5243.48) rotate(45)" fill="#fff"/>
    </g>
  </g>
</svg>
