<svg xmlns="http://www.w3.org/2000/svg" xmlns:xlink="http://www.w3.org/1999/xlink" width="227.049" height="61.255" viewBox="0 0 227.049 61.255">
  <defs>
    <linearGradient id="linear-gradient" x1="-0.062" y1="-0.061" x2="1.018" y2="1" gradientUnits="objectBoundingBox">
      <stop offset="0" stop-color="#3eb9fc"/>
      <stop offset="1" stop-color="#8b2ae1"/>
    </linearGradient>
  </defs>
  <g id="グループ_68942" data-name="グループ 68942" transform="translate(-750.6 -5796.876)">
    <path id="パス_57689" data-name="パス 57689" d="M337.69,109.789a17.649,17.649,0,0,1-6.992-5.452,13.787,13.787,0,0,1-2.821-7.605h11.531a6.286,6.286,0,0,0,2.576,4.334,8.977,8.977,0,0,0,5.6,1.717,8.687,8.687,0,0,0,5.111-1.311,3.958,3.958,0,0,0,1.84-3.342,3.544,3.544,0,0,0-2.249-3.312,42.377,42.377,0,0,0-7.153-2.415,60.415,60.415,0,0,1-8.3-2.535,14.4,14.4,0,0,1-5.558-4.007,10.748,10.748,0,0,1-2.331-7.278,11.746,11.746,0,0,1,2.167-6.869,14.559,14.559,0,0,1,6.215-4.907,23.3,23.3,0,0,1,9.541-1.8,19.446,19.446,0,0,1,12.918,4.048A14.993,14.993,0,0,1,365.1,79.974H354.144A5.923,5.923,0,0,0,351.9,75.68a8.358,8.358,0,0,0-5.359-1.595,8.45,8.45,0,0,0-4.784,1.142,3.656,3.656,0,0,0-1.677,3.189,3.745,3.745,0,0,0,2.29,3.476,35.6,35.6,0,0,0,7.115,2.412,60.3,60.3,0,0,1,8.1,2.538,14.264,14.264,0,0,1,5.52,4.048,11.116,11.116,0,0,1,2.4,7.24,11.994,11.994,0,0,1-2.181,7.03,14.27,14.27,0,0,1-6.215,4.868,23.535,23.535,0,0,1-9.445,1.755,23.908,23.908,0,0,1-9.966-2Zm-58.021-.943a20.6,20.6,0,0,1-7.442-8.3,26.67,26.67,0,0,1-2.74-12.307,26.228,26.228,0,0,1,2.74-12.182,20.081,20.081,0,0,1,7.442-8.178,19.834,19.834,0,0,1,10.511-2.859,18.471,18.471,0,0,1,8.87,2.044,18.037,18.037,0,0,1,6.1,5.152v-6.46h11.531v45.3H305.146v-6.624a17,17,0,0,1-6.1,5.275,18.626,18.626,0,0,1-8.955,2.085,19.259,19.259,0,0,1-10.427-2.944Zm7.567-32.22a11.7,11.7,0,0,0-4.378,4.539,14.23,14.23,0,0,0-1.676,7.074,14.7,14.7,0,0,0,1.677,7.166,12.1,12.1,0,0,0,4.416,4.7,11.231,11.231,0,0,0,5.85,1.636,11.79,11.79,0,0,0,5.97-1.595,11.508,11.508,0,0,0,4.416-4.577,16.467,16.467,0,0,0,0-14.314,11.508,11.508,0,0,0-4.416-4.577,11.79,11.79,0,0,0-5.97-1.595,11.6,11.6,0,0,0-5.888,1.543Zm-83.29,32.953a17.648,17.648,0,0,1-7.567-5.888,15.5,15.5,0,0,1-2.86-9.077h12.267a7.922,7.922,0,0,0,2.492,5.561,8.832,8.832,0,0,0,6.174,2.044,9.505,9.505,0,0,0,6.3-1.908,6.248,6.248,0,0,0,2.29-5.029,5.814,5.814,0,0,0-1.554-4.171,10.926,10.926,0,0,0-3.887-2.576,64.459,64.459,0,0,0-6.414-2.093,68.467,68.467,0,0,1-9.039-3.23,15.81,15.81,0,0,1-5.97-4.822,13.749,13.749,0,0,1-2.494-8.627,15.423,15.423,0,0,1,2.538-8.832,16.132,16.132,0,0,1,7.115-5.765,25.9,25.9,0,0,1,10.465-2,22.72,22.72,0,0,1,14.352,4.293,15.925,15.925,0,0,1,6.1,11.994h-12.6a6.542,6.542,0,0,0-2.492-4.868,9.407,9.407,0,0,0-6.174-1.908,7.943,7.943,0,0,0-5.356,1.717,6.207,6.207,0,0,0-2,4.988,5.155,5.155,0,0,0,1.513,3.816,11.476,11.476,0,0,0,3.762,2.453q2.249.943,6.338,2.181a66.532,66.532,0,0,1,9.077,3.271,16.309,16.309,0,0,1,6.052,4.907,13.629,13.629,0,0,1,2.535,8.587,16.162,16.162,0,0,1-2.369,8.5,16.77,16.77,0,0,1-6.954,6.256,23.715,23.715,0,0,1-10.876,2.331,27.091,27.091,0,0,1-10.754-2.1Zm205.138,1.477V86.033a11.74,11.74,0,0,0-2.7-8.3,9.541,9.541,0,0,0-7.36-2.9,9.794,9.794,0,0,0-7.483,2.9,11.642,11.642,0,0,0-2.726,8.3v25.024H377.369V50.542h11.449V71.4a14.938,14.938,0,0,1,5.888-4.634,19.517,19.517,0,0,1,8.178-1.676,18.391,18.391,0,0,1,9.159,2.249,15.489,15.489,0,0,1,6.27,6.624,22.742,22.742,0,0,1,2.249,10.508v26.578Zm-161.834,0V50.542H258.7v60.515Z" transform="translate(557.08 5746.334)" fill="url(#linear-gradient)"/>
  </g>
</svg>
