<svg xmlns="http://www.w3.org/2000/svg" xmlns:xlink="http://www.w3.org/1999/xlink" width="227" height="61" viewBox="0 0 227 61">
  <defs>
    <linearGradient id="linear-gradient" x1="-0.062" y1="-0.061" x2="1.018" y2="1" gradientUnits="objectBoundingBox">
      <stop offset="0" stop-color="#3eb9fc"/>
      <stop offset="1" stop-color="#8b2ae1"/>
    </linearGradient>
  </defs>
  <g id="グループ_68942" data-name="グループ 68942" transform="translate(-750.6 -5796.876)">
    <path id="パス_57689" data-name="パス 57689" d="M337.659,109.543a17.636,17.636,0,0,1-6.99-5.429,13.7,13.7,0,0,1-2.821-7.574h11.528a6.255,6.255,0,0,0,2.575,4.316,9,9,0,0,0,5.6,1.71,8.712,8.712,0,0,0,5.11-1.306,3.938,3.938,0,0,0,1.84-3.328,3.529,3.529,0,0,0-2.248-3.3A42.483,42.483,0,0,0,345.1,92.23a60.58,60.58,0,0,1-8.3-2.525,14.4,14.4,0,0,1-5.557-3.99,10.675,10.675,0,0,1-2.33-7.248,11.666,11.666,0,0,1,2.167-6.841A14.547,14.547,0,0,1,337.3,66.74a23.377,23.377,0,0,1,9.539-1.792,19.5,19.5,0,0,1,12.915,4.031,14.908,14.908,0,0,1,5.314,10.872H354.109a5.892,5.892,0,0,0-2.246-4.275,8.38,8.38,0,0,0-5.358-1.588,8.475,8.475,0,0,0-4.783,1.137,3.636,3.636,0,0,0-1.676,3.176,3.73,3.73,0,0,0,2.289,3.461,35.69,35.69,0,0,0,7.113,2.4,60.457,60.457,0,0,1,8.094,2.527,14.258,14.258,0,0,1,5.519,4.031,11.041,11.041,0,0,1,2.4,7.21,11.911,11.911,0,0,1-2.18,7,14.259,14.259,0,0,1-6.214,4.848,23.612,23.612,0,0,1-9.443,1.748,23.984,23.984,0,0,1-9.964-1.987Zm-58.008-.939a20.539,20.539,0,0,1-7.44-8.266,26.472,26.472,0,0,1-2.739-12.256,26.033,26.033,0,0,1,2.739-12.131A19.627,19.627,0,0,1,290.16,64.959a18.527,18.527,0,0,1,8.868,2.036,18.015,18.015,0,0,1,6.094,5.131V65.692H316.65v45.113H305.122v-6.6a16.977,16.977,0,0,1-6.094,5.253,18.683,18.683,0,0,1-8.953,2.077,19.311,19.311,0,0,1-10.424-2.932Zm7.565-32.086a11.671,11.671,0,0,0-4.377,4.52,14.125,14.125,0,0,0-1.676,7.044,14.588,14.588,0,0,0,1.676,7.137,12.072,12.072,0,0,0,4.415,4.683,11.262,11.262,0,0,0,5.849,1.629,11.823,11.823,0,0,0,5.968-1.588,11.48,11.48,0,0,0,4.415-4.558,16.34,16.34,0,0,0,0-14.254,11.481,11.481,0,0,0-4.415-4.558,11.823,11.823,0,0,0-5.968-1.588,11.629,11.629,0,0,0-5.887,1.536Zm-83.272,32.816a17.634,17.634,0,0,1-7.565-5.863,15.4,15.4,0,0,1-2.859-9.039h12.264a7.875,7.875,0,0,0,2.491,5.538A8.853,8.853,0,0,0,214.448,102a9.53,9.53,0,0,0,6.3-1.9,6.212,6.212,0,0,0,2.289-5.008,5.777,5.777,0,0,0-1.553-4.153,10.927,10.927,0,0,0-3.886-2.565,64.627,64.627,0,0,0-6.413-2.085,68.631,68.631,0,0,1-9.037-3.217,15.8,15.8,0,0,1-5.968-4.8,13.653,13.653,0,0,1-2.494-8.592,15.315,15.315,0,0,1,2.537-8.8,16.116,16.116,0,0,1,7.113-5.741,25.98,25.98,0,0,1,10.463-2,22.779,22.779,0,0,1,14.349,4.275,15.838,15.838,0,0,1,6.094,11.944H221.643a6.506,6.506,0,0,0-2.491-4.848,9.43,9.43,0,0,0-6.173-1.9,7.963,7.963,0,0,0-5.355,1.71,6.169,6.169,0,0,0-2,4.968,5.123,5.123,0,0,0,1.513,3.8,11.478,11.478,0,0,0,3.761,2.443q2.248.939,6.336,2.172a66.691,66.691,0,0,1,9.075,3.258,16.293,16.293,0,0,1,6.05,4.886,13.534,13.534,0,0,1,2.534,8.551,16.047,16.047,0,0,1-2.368,8.469,16.744,16.744,0,0,1-6.952,6.23A23.789,23.789,0,0,1,214.7,111.43a27.178,27.178,0,0,1-10.751-2.1Zm205.093,1.471V85.886a11.661,11.661,0,0,0-2.7-8.266,9.559,9.559,0,0,0-7.358-2.891A9.813,9.813,0,0,0,391.5,77.62a11.564,11.564,0,0,0-2.725,8.266v24.92H377.329V50.542h11.446V71.308a14.926,14.926,0,0,1,5.887-4.615,19.579,19.579,0,0,1,8.176-1.669,18.446,18.446,0,0,1,9.157,2.24,15.45,15.45,0,0,1,6.268,6.6,22.572,22.572,0,0,1,2.248,10.465v26.467Zm-161.8,0V50.542h11.446v60.263Z" transform="translate(557.08 5746.334)" fill="url(#linear-gradient)"/>
  </g>
</svg>
