<svg xmlns="http://www.w3.org/2000/svg" xmlns:xlink="http://www.w3.org/1999/xlink" viewBox="0 0 200 200"><defs><clipPath id="b"><rect/></clipPath></defs><g id="a" clip-path="url(#b)"><g transform="translate(35.995 -33.336)"><g transform="translate(0.003 85.337)"><path d="M127.718,131.193,87.559,86.215a2.477,2.477,0,0,0-3.785,0,3.258,3.258,0,0,0,0,4.241l35.587,39.87H2.669a3.02,3.02,0,0,0,0,6H119.362l-35.588,39.87a3.258,3.258,0,0,0,0,4.241,2.477,2.477,0,0,0,3.785,0l40.159-44.978a3.258,3.258,0,0,0,0-4.263Z" transform="translate(-0.003 -85.337)"/></g></g></g></svg>
