<svg xmlns="http://www.w3.org/2000/svg" viewBox="0 0 200 200"><g id="a" clip-path="url(#b)"><path d="M120.909,52.463a60.509,60.509,0,1,0-67.951,68.552,62.669,62.669,0,0,0,8.116.544,59.909,59.909,0,0,0,31.111-8.652,5.855,5.855,0,1,0-6.042-10.03,48.8,48.8,0,1,1,20.97-25.838A8.453,8.453,0,0,1,99,82.527a8.733,8.733,0,0,1-8.722-8.722V37.655a5.854,5.854,0,1,0-11.708,0v.054a29.271,29.271,0,1,0,2.112,44.948A20.385,20.385,0,0,0,99,94.215a20.165,20.165,0,0,0,19.187-13.357A60.626,60.626,0,0,0,120.909,52.463Zm-59.9,26.148a17.561,17.561,0,1,1,17.561-17.56,17.561,17.561,0,0,1-17.561,17.56Z" transform="translate(39.252 41.466)"/></g></svg>
