<svg xmlns="http://www.w3.org/2000/svg" xmlns:xlink="http://www.w3.org/1999/xlink" viewBox="0 0 200 200"><defs><clipPath id="b"><rect/></clipPath></defs><g id="a" clip-path="url(#b)"><g transform="translate(49.537 44.946)"><path d="M12.924,97.966H78.818L75.671,87.775l7.53,6.462,6.9,6.185,12.572,10.5V11.438A12.27,12.27,0,0,0,90.443,0l-77.5.014A11.8,11.8,0,0,0,1,11.463V86.521A11.565,11.565,0,0,0,12.924,97.963Zm48.743-71.7-.152.055.055-.055ZM26.405,32.131a28.514,28.514,0,0,1,16.323-5.869l.634.625A33.642,33.642,0,0,0,28.3,33.99s1.257-.616,3.451-1.552A52.776,52.776,0,0,1,75.074,34.3a38.014,38.014,0,0,0-14.438-7.1l.859-.845a28.539,28.539,0,0,1,16.078,5.819A71.347,71.347,0,0,1,86.1,64.612,24.631,24.631,0,0,1,67.918,72.59s-2.181-2.468-3.735-4.622a18.666,18.666,0,0,0,10.352-6.489,68.015,68.015,0,0,1-6.558,3.408,43.887,43.887,0,0,1-8.448,2.472c-13.313,2.17-20.811-1.466-27.873-4.326L29.239,61.8a18.552,18.552,0,0,0,10.048,6.489c-1.9,2.168-3.781,4.631-3.781,4.631-12.874-.3-17.571-8.348-17.571-8.348a71.515,71.515,0,0,1,8.471-32.445Z" transform="translate(-1)"/><path d="M18.986,22.459a6.185,6.185,0,0,0,0-12.363v.009a6.178,6.178,0,0,0,0,12.349Z" transform="translate(42.522 36.566)"/><path d="M14.368,22.459A6.187,6.187,0,0,0,14.386,10.1l-.018.014a6.178,6.178,0,0,0,0,12.349Z" transform="translate(25.795 36.566)"/></g></g></svg>
