<?xml version="1.0" encoding="utf-8"?>
<!-- Generator: Adobe Illustrator 26.5.0, SVG Export Plug-In . SVG Version: 6.00 Build 0)  -->
<svg version="1.1" id="レイヤー_1" xmlns="http://www.w3.org/2000/svg" xmlns:xlink="http://www.w3.org/1999/xlink" x="0px"
	 y="0px" viewBox="0 0 316.5 57" style="enable-background:new 0 0 316.5 57;" xml:space="preserve">
<style type="text/css">
	.st0{font-family:'Poppins-SemiBold';}
	.st1{font-size:27px;}
</style>
<g id="グループ_67141" transform="translate(-752.899 -7404.419)">
	<text transform="matrix(1 0 0 1 943.361 7444.9551)" class="st0 st1">Donation</text>
	<g id="グループ_67114" transform="translate(19278.154 7263.409)">
		<path id="パス_57649" d="M-18402.6,154.5h4.5v4.1h-4.5V154.5z M-18402.2,163.3h3.8v20h-3.8V163.3z"/>
		<path id="パス_57650" d="M-18430.7,163.3h3.8v20h-3.7v-2.9h-0.1c-1.5,2.3-4.1,3.7-6.9,3.5c-4.2,0-6.6-3.2-6.6-7.2v-13.4h3.8
			v11.8c0,3.4,0.8,6,4.4,6c1.9,0.1,3.7-1.1,4.4-2.9c0.5-1.5,0.8-3.1,0.8-4.7v-10.2H-18430.7z"/>
		<path id="パス_57651" d="M-18419.4,166.2L-18419.4,166.2c1.3-2.2,3.6-3.5,6.1-3.5c1.4,0,7.5,0.3,7.5,6.8v13.8h-3.8v-12.6
			c0-3.3-1.4-5.1-4.6-5.1c-1.4,0-2.7,0.5-3.7,1.5c-0.5,0.5-1.6,1.4-1.6,5.4v10.9h-3.8v-20h3.8V166.2z"/>
		<path id="パス_57652" d="M-18382.6,169.7c-0.2-2.5-1.4-4.2-4.1-4.2c-3.5,0-4.9,3.1-4.9,7.7s1.4,7.7,4.9,7.7c2.5,0,4-1.6,4.2-4.5
			h3.8c-0.3,4.5-3.7,7.2-8.1,7.2c-6.3,0-8.9-4.5-8.9-10.3s2.9-10.6,9.2-10.6c4.2,0,7.3,2.7,7.5,7H-18382.6z"/>
		<path id="パス_57653" d="M-18373.2,174c-0.3,3.4,1.2,7.1,4.9,7.1c2.9,0,4.4-1.2,4.8-4.1h4c-0.6,4.5-4.1,6.8-8.8,6.8
			c-6.3,0-8.9-4.5-8.9-10.3s2.9-10.6,9.2-10.6c5.9,0.1,8.7,3.9,8.7,9.4v1.8C-18359.2,174-18373.2,174-18373.2,174z M-18363,171.4
			c0.1-3.3-1.4-5.9-5.1-5.9c-3.1,0-4.9,2.7-4.9,5.9H-18363z"/>
		<path id="パス_57654" d="M-18354.9,183.1v-17.2h-3.4v-2.6h3.4V159c0.1-4.3,3.4-5.5,6.2-5.5c0.9,0,1.8,0.2,2.7,0.4v3.1
			c-0.6,0-1.3-0.1-1.9-0.1c-2.2,0-3.3,0.5-3.2,2.7v3.7h4.6v2.6h-4.6v17.2L-18354.9,183.1z"/>
	</g>
	<g id="UNICEF_Logo" transform="translate(581.076 7404.419)">
		<path id="パス_57626" d="M204.8,0c-12.4,0-22.5,10.1-22.5,22.5s10.1,22.5,22.5,22.5s22.5-10.1,22.5-22.5
			C227.3,10.1,217.2,0,204.8,0C204.8,0,204.8,0,204.8,0 M222.2,10c-1.1,0.7-2.4,1.5-3.6,2.2c-0.7-1.5-1.7-2.9-2.7-4.2
			c0.9-0.6,1.7-1.2,2.5-1.8C219.9,7.1,221.3,8.4,222.2,10 M212.7,2.5c1.8,0.7,3.5,1.7,5.1,2.9c-0.8,0.7-1.6,1.3-2.5,1.8
			c-1.1-1.2-2.3-2.4-3.6-3.5C212,3.4,212.3,2.9,212.7,2.5 M214.6,7.6c-1.2,0.6-2.5,1.2-3.8,1.6c-0.5-1.3-1.1-2.5-1.8-3.6
			c0.7-0.3,1.4-0.7,2-1.3C212.3,5.3,213.5,6.4,214.6,7.6 M211.8,2.2c-0.4,0.3-0.7,0.7-0.9,1.1c-1.2-0.8-2.5-1.4-3.8-2
			C208.7,1.3,210.3,1.6,211.8,2.2 M210.2,3.8c-0.5,0.4-1.1,0.7-1.6,0.9c-0.7-1.1-1.5-2-2.2-3.1C207.7,2.2,209,2.9,210.2,3.8
			 M205.1,1.8c0.9,1,1.7,2.1,2.4,3.3c-0.8,0.2-1.6,0.3-2.4,0.4V1.8z M205.1,6.4c1,0,2-0.2,2.9-0.5c0.7,1.2,1.3,2.4,1.8,3.6
			c-1.6,0.3-3.1,0.6-4.7,0.7V6.4z M204.2,1.8v3.6c-0.8,0-1.6-0.2-2.4-0.4C202.7,4,203.5,2.9,204.2,1.8 M201.1,4.7
			c-0.6-0.2-1.2-0.5-1.6-0.9c1.2-0.7,2.5-1.4,3.8-2C202.4,2.7,201.7,3.6,201.1,4.7 M202.4,1.1c-1.3,0.6-2.6,1.3-3.8,2
			c-0.4-0.3-0.7-0.7-0.9-1.1C199.2,1.6,200.8,1.3,202.4,1.1 M217.8,39.6c-2.9-1.6-3.1-4-2.9-4.7c0.2-0.9,0.7-0.5,1.1-0.5
			c2,0,4-0.5,6.5-3.3c3.5-4,3.2-10-0.7-13.6c-4.7-4.5-9.8-3.8-13.1,0.4c-1,1-2.3,1.5-3.6,1.5c-2.2,0-0.7,1.6-0.7,2
			c0,0.3-0.3,0.5-0.5,0.5c-0.7-0.2-0.4,0.9-0.4,1.1s-0.4,0.5-0.4,0.5c-0.9,0-0.7,0.7-0.5,1.1c0,0.3-0.1,0.6-0.4,0.7
			c-0.4,0.2-0.5,0.9-0.5,1.5c0,0.9,0.9,1.6,2.4,2.7c1,0.6,1.6,1.7,1.6,2.9c0,0.9,0.2,1.8,0.4,2.7c0.4,0.9,0.4,2.7-1.6,2.7
			c-2.5,0.4-4.9,1.1-7.3,2.2c-1.5,0.6-3.1,0.7-4.7,0.4c-0.8-0.6-1.5-1.2-2.2-1.8c-0.2-1,0.1-2,0.7-2.7c0.8,0.6,1.8,0.9,2.7,0.7
			c1.5-0.1,3-0.4,4.5-0.7c0.5-0.2,0.7-0.2,0.9,0c1.3,0.7,2.8,0.2,3.5-1c0.1-0.2,0.2-0.5,0.3-0.8c0.7-2.5-0.9-1.8-1.3-1.6
			c-0.2,0.2-0.5,0-0.4-0.2c0.4-0.5-0.2-0.5-0.4-0.5c-0.7,0.1-1.3,0.4-1.8,0.9c-0.2,0.1-0.5,0.2-0.7,0.2c-0.9-0.5-3.6,0.2-4.5-1.3
			c-0.2-2.5-0.6-5-1.1-7.4c-0.1-0.3,0-0.7,0.2-0.9c0.7-1.1,2.5,0,3.6,0c0.7,0.1,1.4-0.3,1.8-0.9c0.4-0.4,0.5-0.2,0.7-0.4
			c0.2-0.2,0-0.4,0-0.5s0.2,0,0.4-0.2s0-0.5,0-0.7c0.4-0.5,1.1-0.2,0.7-1.3c-0.1-0.7,0.1-1.3,0.5-1.8c0.5-0.7,2.9-4-1.1-7.4
			c-3.8-3.3-7.8-2.9-10.4-0.2s-1.3,6.7-1.1,7.8c0.1,1-0.5,2-1.5,2.4c-1.2,0.7-2.4,1.5-3.5,2.4c0.1-8.6,5.4-16.3,13.4-19.4
			c0.4,0.4,0.7,0.9,1.1,1.3c-0.9,0.7-2.9,2.4-2.9,2.4c0.2,0,0.4,0.1,0.5,0.2c0.2,0,0.4,0.1,0.5,0.2c0.8-0.7,1.7-1.4,2.5-2
			c0.6,0.5,1.3,1,2,1.3c-0.4,0.7-1.5,2.5-1.5,2.5c0.1,0.1,0.2,0.2,0.4,0.2c0.1,0.1,0.2,0.2,0.4,0.2c0,0,1.1-2,1.5-2.7
			c0.9,0.4,1.8,0.5,2.7,0.5v3.6c-0.8,0-1.6,0-2.4-0.2h-0.4l0.2,0.4c0.2,0.2,0.2,0.4,0.4,0.5h2.2v6.7h0.9v-1.6c1.3,0,2.6-0.1,3.8-0.4
			l0,0l1.3-1.1h-0.7c-1.3,0.2-2.5,0.3-3.8,0.4h-0.5v-4.2c1.7,0,3.4-0.2,5.1-0.7l1.3,3.8l0.9-0.4l-1.3-3.8c1.4-0.4,2.7-1,4-1.6
			c1.1,1.3,2,2.7,2.7,4.2c-0.6,0.3-1.2,0.5-1.8,0.7c0.9,0.2,1.6,0.4,1.6,0.4c0.2-0.1,0.4-0.2,0.5-0.2c0,0.2,0.1,0.4,0.2,0.5l1.3,0.5
			l-0.2-0.4c-0.1-0.4-0.3-0.7-0.5-1.1c1.3-0.6,2.6-1.3,3.8-2.2c2.3,3.5,3.5,7.6,3.5,11.8C226.2,29.2,223.2,35.6,217.8,39.6"/>
		<path id="パス_57627" d="M180.2,6l-0.4,0.4c-1.3,1.1-4.4,4.2-3.8,7.6v0.2l0.2,0.7l0.4-0.4c2.1-2.1,3.4-4.9,3.8-7.8l0.2-0.9
			L180.2,6z"/>
		<path id="パス_57628" d="M174,11.8l-0.2,0.4c-0.3,1.1-0.6,2.2-0.7,3.3c-0.5,2.7,0.1,5.5,1.6,7.8l0.2,0.4l0.2,0.4l0.4-1.5
			c0.3-3.4-0.1-6.9-1.1-10.2l-0.4-0.7V11.8z"/>
		<path id="パス_57629" d="M171.9,20.9v0.4c-0.2,2.2,0,7.8,4.5,10.9l0.5,0.4v-0.7c0-2.2-2.5-8.5-4.4-10.7l-0.5-0.7L171.9,20.9z"/>
		<path id="パス_57630" d="M172.6,30.9v0.4c0.7,3.3,3.6,8.4,8.4,10l0.7,0.2l-0.2-0.7c-0.9-2.4-5.4-8-8.4-9.8l-0.5-0.4V30.9z"/>
		<path id="パス_57631" d="M182.2,10.9l-0.5,0.2c-3.5,2.2-5.1,4.7-5.1,8v0.7l0.5-0.4c2.2-2.2,3.9-4.9,4.9-7.8l0.2-0.9V10.9z"/>
		<path id="パス_57632" d="M180,17.8l-0.2,0.4c-0.9,0.9-3.8,4-3.6,7.8c0,0.6,0.2,1.2,0.4,1.8l0.2,0.5l0.4-0.5
			c1.5-2,3.3-7.1,3.1-9.4v-0.7L180,17.8z"/>
		<path id="パス_57633" d="M180.2,24.5l-0.2,0.4c-1.4,1.9-2.1,4.2-2.2,6.5c0.1,1.6,0.6,3.1,1.5,4.4l0.4,0.5l0.2-0.5
			c0.8-2.7,1.1-5.4,1.1-8.2c0-0.9-0.1-1.7-0.4-2.5l-0.2-0.7L180.2,24.5z"/>
		<path id="パス_57634" d="M181.9,31.6l-0.2,0.4c-0.4,1.3-0.6,2.8-0.5,4.2c0,2.8,1.5,5.5,4,6.9l0.4,0.2l0.2-0.5v-0.5
			c0-2.4-1.8-8.5-3.3-10.4l-0.4-0.5L181.9,31.6z"/>
		<path id="パス_57635" d="M177,41.1l0.2,0.4c1.8,3.1,5.1,7.3,11.1,6.2h0.5l-0.4-0.4c-1.1-1.6-8.4-5.8-10.9-6.2l-0.7-0.2L177,41.1
			z"/>
		<path id="パス_57636" d="M185.9,49.1L185.9,49.1l-0.9,0.2l0.9,0.4c3.8,1.6,8.5,2,11.4,1.1c0.9-0.3,1.7-0.9,2.4-1.6
			c4.9,0.5,9.4,4.5,12.2,7.8L212,57h0.2c0.3-0.2,0.6-0.4,0.9-0.7l0.2-0.2l-0.2-0.2c-2.7-3.6-7.1-5.8-7.3-6
			C201.8,48.1,194.9,46.7,185.9,49.1"/>
		<path id="パス_57637" d="M186,38.9v0.4c0.5,3.6,2,8.4,8.2,7.8h0.4l-0.2-0.4c-0.4-1.6-6-6.4-8-7.6l-0.5-0.4L186,38.9z"/>
		<path id="パス_57638" d="M228.9,5.6l0.2,0.9c0.4,2.9,1.7,5.7,3.8,7.8l0.4,0.4l0.2-0.7v-0.2c0.5-3.5-2.5-6.5-3.8-7.6l-0.4-0.4
			L228.9,5.6z"/>
		<path id="パス_57639" d="M235.3,11.4l-0.4,0.7c-0.9,2.4-1.3,7.6-1.1,10.2l0.4,1.5l0.2-0.2l0.2-0.4c2-2.4,2-5.4,1.6-7.8
			c-0.1-1.1-0.4-2.2-0.7-3.3l-0.2-0.4V11.4z"/>
		<path id="パス_57640" d="M237.6,20.5l-0.5,0.7c-1.8,2.4-4.4,8.5-4.4,10.7v0.7l0.5-0.4c4.5-2.9,4.7-8.5,4.5-10.9v-0.4L237.6,20.5
			z"/>
		<path id="パス_57641" d="M236.9,30.5l-0.7,0.4c-2.9,1.8-7.4,7.4-8.4,9.8l-0.2,0.7l0.7-0.2c4.7-1.5,7.8-6.7,8.4-10v-0.4
			L236.9,30.5z"/>
		<path id="パス_57642" d="M227.3,10.5l0.2,0.9c0.7,2.4,2.9,6.4,4.9,8l0.5,0.4v-0.7c0.2-3.3-1.5-5.8-4.9-8l-0.4-0.2L227.3,10.5z"
			/>
		<path id="パス_57643" d="M229.3,17.6v0.7c-0.2,2.4,1.8,7.6,3.1,9.4l0.4,0.5l0.2-0.5c0.2-0.6,0.3-1.2,0.4-1.8
			c0.2-3.8-2.7-6.9-3.6-7.8l-0.2-0.2L229.3,17.6z"/>
		<path id="パス_57644" d="M229.1,24.2l-0.2,0.7c-0.3,0.8-0.4,1.7-0.4,2.5c0,3.1,0.4,6.9,1.1,8.2l0.2,0.5l0.4-0.5
			c0.9-1.3,1.4-2.8,1.5-4.4c-0.1-2.3-0.8-4.6-2.2-6.5l-0.2-0.4L229.1,24.2z"/>
		<path id="パス_57645" d="M227.5,31.2l-0.4,0.5c-1.5,1.8-3.3,8-3.3,10.4v0.5l0.2,0.5l0.4-0.2c2.4-1.5,3.9-4.1,4-6.9
			c0-1.4-0.2-2.8-0.5-4.2l-0.2-0.4L227.5,31.2z"/>
		<path id="パス_57646" d="M232.7,40.7l-0.7,0.2c-2.5,0.4-9.8,4.5-10.9,6.2l-0.4,0.4h0.5c6,1.1,9.3-3.1,11.1-6.2l0.2-0.4
			L232.7,40.7z"/>
		<path id="パス_57647" d="M203.8,50c-2.8,1.5-5.3,3.5-7.3,6l-0.2,0.2l0.2,0.2c0.2,0.2,0.7,0.5,0.9,0.7h0.2l0.2-0.2
			c2.7-3.3,7.3-7.4,12.2-7.8c0.7,0.7,1.5,1.3,2.4,1.6c2.7,0.9,7.6,0.5,11.4-1.1l0.9-0.4l-0.9-0.2C214.6,46.7,207.7,48.1,203.8,50"/>
		<path id="パス_57648" d="M223.5,38.5l-0.5,0.4c-2,1.3-7.4,6-8,7.6l-0.2,0.4h0.4c6,0.5,7.4-4.2,8.2-7.8v-0.4L223.5,38.5z"/>
	</g>
</g>
</svg>
