<svg xmlns="http://www.w3.org/2000/svg" viewBox="0 0 295.878 64.345">
  <g id="グループ_67140" data-name="グループ 67140" transform="translate(-219.438 -7403.355)">
    <g id="save-the-children-logo" transform="translate(224.059 7376.101)">
      <path id="パス_57624" data-name="パス 57624" d="M108.965,49.289c-2.782-1.237-4.438-1.714-6.068-1.714-1.714,0-2.81.619-2.81,1.574,0,2.894,9.749,2.079,9.749,8.765,0,3.681-3.09,5.816-7.36,5.816a12.99,12.99,0,0,1-6.912-1.855v-4.13c2.754,1.827,4.439,2.473,6.547,2.473,1.826,0,2.81-.646,2.81-1.77,0-3.147-9.75-2-9.75-8.878,0-3.315,2.866-5.506,7.306-5.506a15.66,15.66,0,0,1,6.489,1.49ZM123.737,61c-.422,0-.675-.254-.675-.9v-5.9c0-2.838-2.219-3.933-5.479-3.933a10.531,10.531,0,0,0-5.618,1.572v3.315A7.069,7.069,0,0,1,116.741,53c1.77,0,2.333.955,2.247,2.163-5.421,1.686-7.7,2.3-7.7,5.394a3.456,3.456,0,0,0,3.624,3.175,7.232,7.232,0,0,0,4.27-1.462c.282,1.041.927,1.462,2.275,1.462a8.5,8.5,0,0,0,3.82-1.18V60.274c-.955.675-1.264.731-1.544.731Zm-4.749-.674a3.446,3.446,0,0,1-2.247.983,1.349,1.349,0,0,1-1.32-1.376c0-1.293,1.152-1.856,3.567-2.726Zm5.782-9.806h4.354l2.752,7.136,2.782-7.136h4.326L133.029,63.73h-2.275Zm18.957,7.136h9.3c.2-4.72-2.922-7.388-6.687-7.388a6.535,6.535,0,0,0-6.827,6.771c0,4.045,2.95,6.687,7.5,6.687a9.385,9.385,0,0,0,5.788-1.714V59.459A7.606,7.606,0,0,1,148,61.314c-2.556,0-4.13-1.348-4.27-3.652Zm2.894-4.973a2.787,2.787,0,0,1,2.81,2.838h-5.62c.169-1.8,1.208-2.838,2.81-2.838m25.021.619h-4.72v5.338a1.882,1.882,0,0,0,2,2.077,5.668,5.668,0,0,0,2.724-.757v2.95a9.22,9.22,0,0,1-3.765.815c-2.7,0-5.029-1.236-5.029-4.861V53.308h-1.854v-.787l5.423-6.07h.505v4.074h4.72Zm5.669-.871h.056a5.006,5.006,0,0,1,4.1-2.163c2.359,0,4.747,1.432,4.747,4.945v8.26h-4.074v-7.39c0-1.937-.843-2.836-2.107-2.836-.955,0-1.77.589-2.724,1.967v8.26h-4.074V44.317h4.074Zm15.249,5.225h9.3c.2-4.72-2.922-7.388-6.687-7.388a6.534,6.534,0,0,0-6.827,6.771c0,4.045,2.95,6.687,7.5,6.687a9.381,9.381,0,0,0,5.788-1.714V59.459a7.6,7.6,0,0,1-4.8,1.855c-2.556,0-4.13-1.348-4.27-3.652Zm2.892-4.973a2.786,2.786,0,0,1,2.81,2.838h-5.619c.168-1.8,1.209-2.838,2.808-2.838m34.04,9.131a14.881,14.881,0,0,1-7.529,1.911c-7.444,0-11.153-4.833-11.153-9.778,0-5.113,4.186-9.888,11.518-9.888a13.509,13.509,0,0,1,6.941,1.686v4.27a13.368,13.368,0,0,0-6.6-1.968c-4.074,0-6.941,2.417-6.941,5.816,0,3.427,2.838,5.872,6.829,5.872,2.5,0,4.186-.787,6.938-2.107Zm6.912-9.383h.056a5.007,5.007,0,0,1,4.1-2.163c2.359,0,4.748,1.432,4.748,4.945v8.26h-4.074v-7.39c0-1.937-.843-2.836-2.107-2.836-.955,0-1.77.589-2.724,1.967v8.26H232.33V44.317H236.4Zm11.765,11.041h4.074V50.525h-4.074Zm4.27-17.166a2.247,2.247,0,1,1-2.247-2.247,2.254,2.254,0,0,1,2.247,2.247m2.782,17.166H259.3V44.317h-4.074Zm15.93-19.16v6.771a7.531,7.531,0,0,0-3.371-.815c-3.709,0-6.294,2.752-6.294,6.715,0,3.877,2.584,6.743,6.068,6.743a5.313,5.313,0,0,0,3.6-1.292v1.039h4.074V44.317Zm0,15.621A3.418,3.418,0,0,1,268.735,61c-1.909,0-3.118-1.574-3.118-3.933,0-2.584,1.209-4.074,3.258-4.074a4.41,4.41,0,0,1,2.277.759Zm11.035-5.7h.056c1.207-2.7,2.556-3.961,4.129-3.961a4.427,4.427,0,0,1,2.7,1.179l-1.124,3.6a4.686,4.686,0,0,0-2.417-.955c-1.488,0-2.443,1.4-3.342,3.792v5.591h-4.074V50.524h4.074Zm11.406,3.427h9.3c.2-4.72-2.922-7.388-6.687-7.388a6.534,6.534,0,0,0-6.827,6.771c0,4.045,2.95,6.687,7.5,6.687a9.377,9.377,0,0,0,5.786-1.714V59.459a7.6,7.6,0,0,1-4.8,1.855c-2.556,0-4.13-1.348-4.27-3.652Zm2.894-4.973a2.785,2.785,0,0,1,2.808,2.838h-5.618c.169-1.8,1.208-2.838,2.81-2.838m12.551-.31a5.218,5.218,0,0,1,4.214-2.105c2.023,0,4.72,1.151,4.72,4.973v8.232H313.9v-7.9c0-1.826-.871-2.584-2.021-2.584-1.013,0-1.772.534-2.838,2.135v8.344h-4.074V50.524h4.074Z" transform="translate(-26.715 -12.165)" />
    </g>
    <text id="Donation" transform="translate(329.113 7458.701)"  font-size="27" font-family="Poppins-SemiBold, Poppins" font-weight="600"><tspan x="0" y="0">Donation</tspan></text>
    <g id="save-the-children-logo-2" data-name="save-the-children-logo" transform="translate(213.15 7399.767)">
      <path id="パス_57625" data-name="パス 57625" d="M57.795,19.386c2.582-2.656,3.729-3.885,3.55-4.613a2.442,2.442,0,0,0-1.476-1.429,3.775,3.775,0,0,0-2.744-.323,9.3,9.3,0,0,0-1.448,1.322l-.815.8h0q-.669-.786-1.4-1.519a25.74,25.74,0,0,0-12.536-6.9A7.894,7.894,0,0,0,34.14,3.615,7.643,7.643,0,0,0,28.7,6.78a28.877,28.877,0,0,0-13.408,7.258v0a5.963,5.963,0,0,0-3.632.415,1.821,1.821,0,0,0-1.131,1.1c-.084.331.017.864,1.253,2.487v0A28.451,28.451,0,0,0,6.319,36.078a25.987,25.987,0,0,0,7.528,17.164,25.618,25.618,0,0,0,5.352,4.1,31.684,31.684,0,0,0,29.532.983l.017-.007a1.605,1.605,0,0,0,.773-2.067L49.429,56c-1.253-3.426-5.072-13.855-1.925-22.914,1.318-3.791,4.634-7.7,7.475-10.746h0A25.269,25.269,0,0,1,57.988,37.16a23.087,23.087,0,0,1-5.482,12.69h0a.541.541,0,0,0-.149.374.923.923,0,0,0,.028.175l.241.685a.548.548,0,0,0,.911.18h.017c8.055-8.888,9.824-21.763,4.257-31.878h0ZM23.55,38.966a52.311,52.311,0,0,0-1.728,15.347v0a26.154,26.154,0,0,1-5.092-3.955A25.69,25.69,0,0,1,9.325,35.006,23.812,23.812,0,0,1,12.95,19.495h0c.921,1.1,2.04,2.379,3.212,3.712,2.87,3.261,6.122,6.959,7.648,9.537.885,1.49.455,3.272-.259,6.224ZM51.881,17.911c-6.063,5.312-11.623,8.035-16.512,8.068-3.763.027-7.652-1.362-11.556-4.127A45.4,45.4,0,0,1,16.7,15.364L16.55,15.2h0A23.172,23.172,0,0,1,27.227,9.558v0h0s0,0,0,0a11.647,11.647,0,0,0-.567,4.817,10.958,10.958,0,0,0,3.685,7.448,7.347,7.347,0,0,0,10.694-.936,10.945,10.945,0,0,0,2.334-7.974,12.091,12.091,0,0,0-.253-1.628h0a25.87,25.87,0,0,1,7.457,5.218q.677.679,1.3,1.406" transform="translate(0 0)" />
    </g>
  </g>
</svg>
