<svg xmlns="http://www.w3.org/2000/svg" viewBox="0 0 316.462 57.047">
  <g id="グループ_67141" data-name="グループ 67141" transform="translate(-752.899 -7404.419)">
    <text id="Donation" transform="translate(943.361 7444.955)" font-size="27" font-family="Poppins-SemiBold, Poppins" font-weight="600"><tspan x="0" y="0">Donation</tspan></text>
    <g id="グループ_67114" data-name="グループ 67114" transform="translate(19278.154 7263.409)">
      <path id="パス_57649" data-name="パス 57649" d="M38.6,1.2h4.516V5.286H38.6Zm.43,8.817h3.763v20H39.03Z" transform="translate(-18441.219 153.313)" />
      <path id="パス_57650" data-name="パス 57650" d="M13.441,9.4H17.2v20H13.548V26.5h-.108a7.687,7.687,0,0,1-6.882,3.548C2.366,30.045,0,26.819,0,22.841V9.4H3.763V21.228c0,3.441.753,6.021,4.409,6.021a4.6,4.6,0,0,0,4.409-2.9,13.59,13.59,0,0,0,.753-4.731V9.4Z" transform="translate(-18444.121 153.93)" />
      <path id="パス_57651" data-name="パス 57651" d="M23.263,12.348h0A7.217,7.217,0,0,1,29.392,8.8c1.4,0,7.527.323,7.527,6.774V29.337H33.156V16.757c0-3.333-1.4-5.054-4.624-5.054a5.216,5.216,0,0,0-3.656,1.505c-.538.538-1.613,1.4-1.613,5.376v10.86H19.5v-20h3.763Z" transform="translate(-18442.652 153.885)" />
      <path id="パス_57652" data-name="パス 57652" d="M58.118,15.789c-.215-2.473-1.4-4.193-4.086-4.193-3.548,0-4.946,3.118-4.946,7.742s1.4,7.742,4.946,7.742c2.473,0,3.978-1.613,4.193-4.516h3.763c-.323,4.516-3.656,7.2-8.064,7.2C47.581,29.767,45,25.251,45,19.445S47.9,8.8,54.247,8.8c4.193,0,7.312,2.688,7.527,6.989H58.118Z" transform="translate(-18440.734 153.885)" />
      <path id="パス_57653" data-name="パス 57653" d="M66.278,20.083c-.323,3.441,1.183,7.1,4.946,7.1,2.9,0,4.409-1.183,4.839-4.086h3.978c-.645,4.516-4.086,6.774-8.817,6.774-6.344,0-8.925-4.516-8.925-10.322S65.2,8.9,71.547,8.9c5.914.108,8.71,3.871,8.71,9.355v1.828H66.278ZM76.386,17.5c.108-3.333-1.4-5.914-5.054-5.914-3.118,0-4.946,2.688-4.946,5.914Z" transform="translate(-18439.434 153.892)" />
      <path id="パス_57654" data-name="パス 57654" d="M83.241,29.869v-17.2H79.8V10.085h3.441v-4.3C83.348,1.483,86.682.3,89.477.3a11.672,11.672,0,0,1,2.688.43V3.848c-.645,0-1.29-.108-1.935-.108-2.151,0-3.333.538-3.226,2.688v3.656h4.624v2.581H87v17.2Z" transform="translate(-18438.117 153.245)" />
    </g>
    <g id="UNICEF_Logo" transform="translate(581.076 7404.419)">
      <path id="パス_57626" data-name="パス 57626" d="M122.828,0a22.528,22.528,0,1,0,22.528,22.528A22.524,22.524,0,0,0,122.828,0m17.441,9.992c-1.09.727-2.362,1.453-3.634,2.18a20.63,20.63,0,0,0-2.725-4.179,30.82,30.82,0,0,0,2.544-1.817,10.956,10.956,0,0,1,3.815,3.815m-9.447-7.449a20.412,20.412,0,0,1,5.087,2.907,12.9,12.9,0,0,1-2.544,1.817,32.646,32.646,0,0,0-3.634-3.452,7.9,7.9,0,0,1,1.09-1.272m1.817,5.087a34.421,34.421,0,0,1-3.815,1.635,22.61,22.61,0,0,0-1.817-3.634,7.5,7.5,0,0,0,2-1.272,20.409,20.409,0,0,1,3.634,3.27m-2.725-5.45a4.817,4.817,0,0,0-.908,1.09,25.255,25.255,0,0,0-3.815-2,13.647,13.647,0,0,1,4.724.908m-1.635,1.635a7.364,7.364,0,0,1-1.635.908c-.727-1.09-1.453-2-2.18-3.089a20.441,20.441,0,0,1,3.815,2.18m-5.087-2a15.115,15.115,0,0,1,2.362,3.27,9.2,9.2,0,0,1-2.362.363Zm0,4.542a8.229,8.229,0,0,0,2.907-.545,22.611,22.611,0,0,1,1.817,3.634,36.765,36.765,0,0,1-4.724.727Zm-.908-4.542V5.45a12.5,12.5,0,0,1-2.362-.363,36.842,36.842,0,0,0,2.362-3.27m-3.089,2.907a4.763,4.763,0,0,1-1.635-.908,38.443,38.443,0,0,1,3.815-2,11.083,11.083,0,0,0-2.18,2.907m1.272-3.634a38.442,38.442,0,0,0-3.815,2A4.816,4.816,0,0,1,115.743,2a36.278,36.278,0,0,1,4.724-.908m15.443,38.516c-2.907-1.635-3.089-4-2.907-4.724.182-.908.727-.545,1.09-.545,2,0,4-.545,6.54-3.27a9.752,9.752,0,0,0-.727-13.626c-4.724-4.542-9.811-3.815-13.081.363a5.073,5.073,0,0,1-3.634,1.453c-2.18,0-.727,1.635-.727,2a.58.58,0,0,1-.545.545c-.727-.182-.363.908-.363,1.09s-.363.545-.363.545c-.908,0-.727.727-.545,1.09a.725.725,0,0,1-.363.727c-.363.182-.545.908-.545,1.453,0,.908.908,1.635,2.362,2.725a3.449,3.449,0,0,1,1.635,2.907,14.024,14.024,0,0,0,.363,2.725c.363.908.363,2.725-1.635,2.725a29.453,29.453,0,0,0-7.267,2.18,8.429,8.429,0,0,1-4.724.363,19.241,19.241,0,0,1-2.18-1.817,3.041,3.041,0,0,1,.727-2.725,3.313,3.313,0,0,0,2.725.727,33.907,33.907,0,0,0,4.542-.727c.545-.182.727-.182.908,0a2.6,2.6,0,0,0,3.815-1.817c.727-2.543-.908-1.817-1.272-1.635-.182.182-.545,0-.363-.182.363-.545-.182-.545-.363-.545a3.389,3.389,0,0,0-1.817.908,1.373,1.373,0,0,1-.727.182c-.908-.545-3.634.182-4.542-1.272a73.9,73.9,0,0,0-1.09-7.449.921.921,0,0,1,.182-.908c.727-1.09,2.544,0,3.634,0a1.925,1.925,0,0,0,1.817-.908c.363-.363.545-.182.727-.363s0-.363,0-.545.182,0,.363-.182,0-.545,0-.727c.363-.545,1.09-.182.727-1.272a2.022,2.022,0,0,1,.545-1.817c.545-.727,2.907-4-1.09-7.449-3.815-3.27-7.812-2.907-10.356-.182s-1.272,6.722-1.09,7.812a2.2,2.2,0,0,1-1.453,2.362,23.6,23.6,0,0,0-3.452,2.362,21.144,21.144,0,0,1,13.444-19.44c.363.363.727.908,1.09,1.272-.908.727-2.907,2.362-2.907,2.362a1.406,1.406,0,0,1,.545.182,1.83,1.83,0,0,1,.545.182,24.758,24.758,0,0,1,2.543-2,7.5,7.5,0,0,0,2,1.272c-.363.727-1.453,2.543-1.453,2.543a.634.634,0,0,0,.363.182.563.563,0,0,0,.363.182s1.09-2,1.453-2.725a7.29,7.29,0,0,0,2.725.545v3.634a10.359,10.359,0,0,1-2.362-.182h-.363l.182.363c.182.182.182.363.363.545h2.18V17.8h.908V16.169a24.729,24.729,0,0,0,3.815-.363h0l1.272-1.09h-.727a33.285,33.285,0,0,1-3.815.363h-.545V10.9a16.412,16.412,0,0,0,5.087-.727l1.272,3.815.908-.363-1.272-3.815a26.272,26.272,0,0,0,4-1.635,20.63,20.63,0,0,1,2.725,4.179,17.11,17.11,0,0,1-1.817.727c.908.182,1.635.363,1.635.363a1.83,1.83,0,0,1,.545-.182,1.83,1.83,0,0,0,.182.545l1.272.545-.182-.363a5.971,5.971,0,0,0-.545-1.09,20.442,20.442,0,0,0,3.815-2.18,20.884,20.884,0,0,1,3.452,11.809,20.519,20.519,0,0,1-8.175,17.078" transform="translate(81.923)" />
      <path id="パス_57627" data-name="パス 57627" d="M101.107,3.382l-.363.363c-1.272,1.09-4.36,4.179-3.815,7.63v.182l.182.727.363-.363a13.813,13.813,0,0,0,3.815-7.812l.182-.908Z" transform="translate(79.117 2.614)" />
      <path id="パス_57628" data-name="パス 57628" d="M96.277,6.582l-.182.363a18.275,18.275,0,0,0-.727,3.27A10.488,10.488,0,0,0,97,18.027l.182.363.182.363.363-1.453a27.424,27.424,0,0,0-1.09-10.174L96.277,6.4Z" transform="translate(77.77 5.227)" />
      <path id="パス_57629" data-name="パス 57629" d="M94.62,11.745v.363c-.182,2.18,0,7.812,4.542,10.9l.545.363v-.727c0-2.18-2.543-8.539-4.36-10.719L94.8,11.2Z" transform="translate(77.248 9.148)" />
      <path id="パス_57630" data-name="パス 57630" d="M95,17.163v.363c.727,3.27,3.634,8.357,8.357,9.992l.727.182-.182-.727c-.908-2.362-5.45-7.994-8.357-9.811L95,16.8Z" transform="translate(77.594 13.722)" />
      <path id="パス_57631" data-name="パス 57631" d="M102.832,6.082l-.545.182c-3.452,2.18-5.087,4.724-5.087,7.994v.727l.545-.363a21,21,0,0,0,4.905-7.812l.182-.908Z" transform="translate(79.391 4.819)" />
      <path id="パス_57632" data-name="パス 57632" d="M100.819,9.882l-.182.363c-.908.908-3.815,4-3.634,7.812a6.455,6.455,0,0,0,.363,1.817l.182.545.363-.545c1.453-2,3.27-7.085,3.089-9.447V9.7Z" transform="translate(79.224 7.923)" />
      <path id="パス_57633" data-name="パス 57633" d="M100.262,13.582l-.182.363a11.721,11.721,0,0,0-2.18,6.54,8.315,8.315,0,0,0,1.453,4.36l.363.545.182-.545a28.493,28.493,0,0,0,1.09-8.176,8.422,8.422,0,0,0-.363-2.543l-.182-.727Z" transform="translate(79.963 10.945)" />
      <path id="パス_57634" data-name="パス 57634" d="M100.448,17.563l-.182.363a11.052,11.052,0,0,0-.545,4.179,8,8,0,0,0,4,6.9l.363.182.182-.545V28.1c0-2.362-1.817-8.539-3.27-10.356l-.363-.545Z" transform="translate(81.411 14.049)" />
      <path id="パス_57635" data-name="パス 57635" d="M97.482,22.682l.182.363c1.817,3.089,5.087,7.267,11.082,6.177h.545l-.363-.363c-1.09-1.635-8.357-5.814-10.9-6.177L97.3,22.5Z" transform="translate(79.473 18.378)" />
      <path id="パス_57636" data-name="パス 57636" d="M102.708,27.553h0l-.908.182.908.363c3.815,1.635,8.539,2,11.446,1.09a5.532,5.532,0,0,0,2.362-1.635c4.905.545,9.447,4.542,12.172,7.812l.182.182h.182a3.962,3.962,0,0,0,.908-.727l.182-.182-.182-.182c-2.725-3.634-7.085-5.814-7.267-6-4-1.817-10.9-3.27-19.985-.908" transform="translate(83.148 21.5)" />
      <path id="パス_57637" data-name="パス 57637" d="M102.482,21.482v.363c.545,3.634,2,8.357,8.176,7.812h.363l-.182-.363c-.363-1.635-6-6.359-7.994-7.63L102.3,21.3Z" transform="translate(83.557 17.397)" />
      <path id="パス_57638" data-name="パス 57638" d="M126,3.1l.182.908A13.813,13.813,0,0,0,130,11.821l.363.363.182-.727v-.182c.545-3.452-2.543-6.54-3.815-7.63l-.363-.363Z" transform="translate(102.914 2.532)" />
      <path id="パス_57639" data-name="パス 57639" d="M130.174,6.3l-.363.727c-.908,2.362-1.272,7.63-1.09,10.174l.363,1.453.182-.182.182-.363c2-2.362,2-5.45,1.635-7.812a14.973,14.973,0,0,0-.727-3.27l-.182-.363Z" transform="translate(105.099 5.146)" />
      <path id="パス_57640" data-name="パス 57640" d="M133.005,11.3l-.545.727c-1.817,2.362-4.36,8.539-4.36,10.719v.727l.545-.363c4.542-2.907,4.724-8.539,4.542-10.9v-.363Z" transform="translate(104.629 9.23)" />
      <path id="パス_57641" data-name="パス 57641" d="M134.566,16.8l-.727.363c-2.907,1.817-7.449,7.449-8.357,9.811l-.182.727.727-.182c4.724-1.453,7.812-6.722,8.357-9.992v-.363Z" transform="translate(102.342 13.722)" />
      <path id="パス_57642" data-name="パス 57642" d="M125.1,5.8l.182.908c.727,2.362,2.907,6.359,4.905,7.994l.545.363v-.727c.182-3.27-1.453-5.814-4.905-7.994l-.363-.182Z" transform="translate(102.179 4.737)" />
      <path id="パス_57643" data-name="パス 57643" d="M126.205,9.7v.727c-.182,2.362,1.817,7.63,3.089,9.447l.363.545.182-.545a8,8,0,0,0,.363-1.817c.182-3.815-2.725-6.9-3.634-7.812l-.182-.182Z" transform="translate(103.072 7.923)" />
      <path id="パス_57644" data-name="パス 57644" d="M126.345,13.3l-.182.727a8.423,8.423,0,0,0-.363,2.543c0,3.089.363,6.9,1.09,8.176l.182.545.363-.545a7.392,7.392,0,0,0,1.453-4.36,12.183,12.183,0,0,0-2.18-6.54l-.182-.363Z" transform="translate(102.751 10.863)" />
      <path id="パス_57645" data-name="パス 57645" d="M126.834,17.2l-.363.545c-1.453,1.817-3.27,7.994-3.27,10.356v.545l.182.545.363-.182a8.414,8.414,0,0,0,4-6.9,17.608,17.608,0,0,0-.545-4.179l-.182-.363Z" transform="translate(100.627 14.049)" />
      <path id="パス_57646" data-name="パス 57646" d="M133.491,22.4l-.727.182c-2.543.363-9.811,4.542-10.9,6.177l-.363.363h.545c6,1.09,9.266-3.089,11.082-6.177l.182-.363Z" transform="translate(99.239 18.296)" />
      <path id="パス_57647" data-name="パス 57647" d="M115.549,28.461a22.37,22.37,0,0,0-7.267,6l-.182.182.182.182c.182.182.727.545.908.727h.182l.182-.182c2.725-3.27,7.267-7.449,12.172-7.812a6.913,6.913,0,0,0,2.362,1.635c2.725.908,7.63.545,11.446-1.09l.908-.363-.908-.182c-9.266-2.362-16.169-.908-19.985.908" transform="translate(88.294 21.5)" />
      <path id="パス_57648" data-name="パス 57648" d="M126.921,21.2l-.545.363c-2,1.272-7.449,6-7.994,7.63l-.182.363h.363c6,.545,7.449-4.179,8.175-7.812v-.363Z" transform="translate(96.543 17.316)" />
    </g>
  </g>
</svg>
