<svg xmlns="http://www.w3.org/2000/svg" viewBox="0 0 200 200"><g id="a" clip-path="url(#b)"><path d="M64.062,94.549a4.223,4.223,0,1,1-2.989,1.237,4.226,4.226,0,0,1,2.989-1.237M129.44,68.754a4.226,4.226,0,1,1,4.226-4.226,4.375,4.375,0,0,1-4.226,4.226m0-17.124a12.908,12.908,0,0,0-12.9,12.9,12.592,12.592,0,0,0,.667,4L74.735,91.214a12.884,12.884,0,0,0-10.675-5.56A13.234,13.234,0,0,0,52.5,92.77L14.243,72.756c-4-2.223-7.111-8.672-6.667-14.894.222-3.113,1.334-5.56,2.89-6.449a3.871,3.871,0,0,1,3.776.211l.222.222C24.7,57.184,57.829,74.528,59.164,75.2c2.223.889,3.336,1.334,7.116-.445l68.5-35.577A3.132,3.132,0,0,0,137,36.287a3.44,3.44,0,0,0-2-2.9c-4-1.779-10.006-4.67-15.788-7.338C106.758,20.274,92.526,13.6,86.3,10.268a10.464,10.464,0,0,0-10.453,0l-1.556.667C46.049,25.167,8.688,43.627,6.465,44.959,2.685,47.182.238,51.853.016,57.635c-.445,9.117,4.226,18.68,10.9,22.015l40.467,20.9a13.093,13.093,0,0,0,12.676,11.119A12.86,12.86,0,0,0,76.954,99l44.481-24.021a13.01,13.01,0,1,0,8.005-23.352" transform="translate(29.338 42.13)"/></g></svg>
