<svg xmlns="http://www.w3.org/2000/svg" xmlns:xlink="http://www.w3.org/1999/xlink"  viewBox="0 0 200 200"><defs><clipPath id="b"><rect /></clipPath></defs><g id="a" clip-path="url(#b)"><path d="M64.5,0A64.756,64.756,0,0,0,0,64.5c0,30.233,21.214,57.7,49.386,64.5V107.669a15.531,15.531,0,0,1-17.41-7.746c-1.466-2.473-4.064-5.153-6.773-4.957l-.664-7.529c5.864-.5,10.928,3.57,13.937,8.624a8.356,8.356,0,0,0,4.85,4.149,10.161,10.161,0,0,0,6.345-.551c.6-4.781,2.785-6.571,4.443-9.089h0c-16.8-2.505-23.5-11.419-26.155-18.455a29.6,29.6,0,0,1,4.6-28.388,1.013,1.013,0,0,0,.255-.783,24.743,24.743,0,0,1,.752-16.517c3.3.975,3.831-.981,14.314,5.389L49.688,32.9c.758.452.519.194,1.277.136A54.74,54.74,0,0,1,64.5,31.133a54.975,54.975,0,0,1,13.723,1.953l.586.059c-.051-.007.16-.038.513-.248,13.1-7.933,12.625-5.339,16.136-6.481A25.165,25.165,0,0,1,96.2,42.941c-.381,1.173,11.354,11.919,4.85,29.173-2.658,7.037-9.353,15.952-26.153,18.458h0c2.154,3.282,4.741,5.028,4.728,11.8v26.636c28.174-6.807,49.388-34.271,49.388-64.5A64.755,64.755,0,0,0,64.5,0Zm0,0" transform="translate(35 35)"/></g></svg>
