<svg xmlns="http://www.w3.org/2000/svg" viewBox="0 0 200 200"><g id="a" clip-path="url(#b)"><path d="M56.568,280.6A56.037,56.037,0,1,0,107.2,312.617l-5.563,5.564a5.61,5.61,0,0,1-3.973,1.653H96.113a42.952,42.952,0,1,1-22.737-22.744v-1.547a5.61,5.61,0,0,1,1.653-3.973l5.561-5.563a55.768,55.768,0,0,0-24.021-5.4Zm35.44,0a1.87,1.87,0,0,0-1.27.551L77.666,294.226a1.867,1.867,0,0,0-.551,1.325v12.306L52.449,332.521a5.826,5.826,0,1,0,8.243,8.235L85.35,316.091H97.66a1.868,1.868,0,0,0,1.325-.551l13.072-13.072a1.868,1.868,0,0,0-1.325-3.182h-8.577l1.488-1.488a5.829,5.829,0,1,0-8.243-8.243l-1.485,1.485v-8.585A1.868,1.868,0,0,0,92,280.594Zm-35.44,26.141A29.982,29.982,0,1,0,83.322,323.4L73.086,333.636a16.9,16.9,0,1,1-13.52-13.52L69.8,309.878a29.647,29.647,0,0,0-13.24-3.134Z" transform="translate(43.182 -234.594)"/></g></svg>
