<?xml version="1.0" encoding="UTF-8"?>
<svg id="_レイヤー_1" data-name="レイヤー 1" xmlns="http://www.w3.org/2000/svg" viewBox="0 0 295.87 57.91">
  <g id="_グループ_67140" data-name="グループ 67140">
    <g id="save-the-children-logo">
      <path id="_パス_57624" data-name="パス 57624" d="M86.87,24.35c-2.78-1.24-4.44-1.71-6.07-1.71-1.71,0-2.81,.62-2.81,1.57,0,2.89,9.75,2.08,9.75,8.76,0,3.68-3.09,5.82-7.36,5.82-2.43,.04-4.83-.6-6.91-1.85v-4.13c2.75,1.83,4.44,2.47,6.55,2.47,1.83,0,2.81-.65,2.81-1.77,0-3.15-9.75-2-9.75-8.88,0-3.31,2.87-5.51,7.31-5.51,2.24,.03,4.46,.53,6.49,1.49v3.74Zm14.77,11.71c-.42,0-.68-.25-.68-.9v-5.9c0-2.84-2.22-3.93-5.48-3.93-1.98-.02-3.93,.53-5.62,1.57v3.31c1.26-1.3,2.97-2.07,4.78-2.15,1.77,0,2.33,.96,2.25,2.16-5.42,1.69-7.7,2.3-7.7,5.39,.15,1.86,1.76,3.27,3.62,3.17,1.54-.02,3.04-.53,4.27-1.46,.28,1.04,.93,1.46,2.28,1.46,1.35-.08,2.66-.49,3.82-1.18v-2.28c-.96,.67-1.26,.73-1.54,.73h0Zm-4.75-.68c-.6,.59-1.4,.94-2.25,.98-.74-.02-1.34-.63-1.32-1.38,0-1.29,1.15-1.86,3.57-2.73v3.12Zm5.78-9.81h4.35l2.75,7.14,2.78-7.14h4.33l-5.95,13.21h-2.27l-5.98-13.21Zm18.96,7.14h9.3c.2-4.72-2.92-7.39-6.69-7.39-3.61-.16-6.66,2.63-6.82,6.23,0,.18,0,.36,0,.54,0,4.04,2.95,6.69,7.5,6.69,2.07,.08,4.1-.52,5.79-1.71v-2.55c-1.34,1.16-3.03,1.81-4.8,1.85-2.56,0-4.13-1.35-4.27-3.65h0Zm2.89-4.98c1.54-.01,2.8,1.22,2.81,2.76,0,.02,0,.05,0,.07h-5.62c.17-1.8,1.21-2.84,2.81-2.84m25.02,.62h-4.72v5.34c-.11,1.03,.64,1.96,1.67,2.07,.11,.01,.22,.01,.33,0,.96-.02,1.89-.28,2.72-.76v2.95c-1.18,.53-2.47,.81-3.76,.81-2.7,0-5.03-1.24-5.03-4.86v-5.56h-1.85v-.79l5.42-6.07h.51v4.07h4.72v2.78Zm5.67-.87h.06c.93-1.35,2.46-2.16,4.1-2.16,2.36,0,4.75,1.43,4.75,4.94v8.26h-4.07v-7.39c0-1.94-.84-2.84-2.11-2.84-.96,0-1.77,.59-2.72,1.97v8.26h-4.07V19.37h4.07v8.11Zm15.25,5.22h9.3c.2-4.72-2.92-7.39-6.69-7.39-3.6-.16-6.66,2.62-6.82,6.23,0,.18,0,.36,0,.54,0,4.04,2.95,6.69,7.5,6.69,2.07,.08,4.1-.52,5.79-1.71v-2.55c-1.34,1.16-3.03,1.81-4.8,1.85-2.56,0-4.13-1.35-4.27-3.65h0Zm2.89-4.98c1.54-.01,2.8,1.22,2.81,2.76,0,.03,0,.05,0,.08h-5.62c.17-1.8,1.21-2.84,2.81-2.84m34.04,9.13c-2.3,1.29-4.89,1.95-7.53,1.91-7.44,0-11.15-4.83-11.15-9.78s4.19-9.89,11.52-9.89c2.42-.07,4.82,.51,6.94,1.69v4.27c-1.99-1.22-4.27-1.9-6.6-1.97-4.07,0-6.94,2.42-6.94,5.82s2.84,5.87,6.83,5.87c2.5,0,4.19-.79,6.94-2.11v4.19Zm6.91-9.38h.06c.93-1.35,2.46-2.16,4.1-2.16,2.36,0,4.75,1.43,4.75,4.94v8.26h-4.07v-7.39c0-1.94-.84-2.84-2.11-2.84-.96,0-1.77,.59-2.72,1.97v8.26h-4.07V19.37h4.07v8.11Zm11.77,11.04h4.07v-12.95h-4.07v12.95Zm4.27-17.17c0,1.24-1.01,2.25-2.25,2.25s-2.25-1.01-2.25-2.25,1.01-2.25,2.25-2.25h0c1.24,0,2.24,1.01,2.25,2.25m2.78,17.17h4.08V19.37h-4.07v19.16Zm15.92-19.16v6.77c-1.04-.53-2.2-.81-3.37-.81-3.71,0-6.29,2.75-6.29,6.72s2.58,6.74,6.07,6.74c1.32,.03,2.6-.43,3.6-1.29v1.04h4.07V19.37h-4.08Zm0,15.62c-.63,.66-1.5,1.05-2.41,1.07-1.91,0-3.12-1.57-3.12-3.93,0-2.58,1.21-4.07,3.26-4.07,.81,.04,1.6,.3,2.28,.76v6.18Zm11.03-5.7h.06c1.21-2.7,2.56-3.96,4.13-3.96,1.01,.07,1.96,.49,2.7,1.18l-1.12,3.6c-.7-.54-1.54-.87-2.42-.96-1.49,0-2.44,1.4-3.34,3.79v5.59h-4.07v-12.96h4.07v3.71Zm11.4,3.43h9.3c.2-4.72-2.92-7.39-6.69-7.39-3.6-.16-6.66,2.62-6.82,6.23,0,.18,0,.36,0,.54,0,4.05,2.95,6.69,7.5,6.69,2.06,.08,4.1-.52,5.79-1.71v-2.56c-1.34,1.16-3.03,1.81-4.8,1.85-2.56,0-4.13-1.35-4.27-3.65h0Zm2.89-4.97c1.54-.01,2.8,1.22,2.81,2.76,0,.03,0,.05,0,.08h-5.62c.17-1.8,1.21-2.84,2.81-2.84m12.55-.31c.99-1.33,2.55-2.11,4.21-2.1,2.02,0,4.72,1.15,4.72,4.97v8.23h-4.07v-7.9c0-1.83-.87-2.58-2.02-2.58-1.01,0-1.77,.53-2.84,2.13v8.34h-4.07v-12.95h4.07v1.85Z"/>
    </g>
    <g id="save-the-children-logo-2">
      <path id="_パス_57625" data-name="パス 57625" d="M51.5,15.79c2.58-2.66,3.73-3.89,3.55-4.61-.26-.67-.8-1.19-1.48-1.43-.84-.45-1.82-.57-2.74-.32-.53,.39-1.01,.83-1.45,1.32l-.81,.8h0c-.45-.52-.91-1.03-1.4-1.52-3.44-3.44-7.79-5.83-12.54-6.9C33.04,1.02,30.49-.15,27.85,.02c-2.18,.22-4.17,1.38-5.44,3.17-5.04,1.17-9.67,3.68-13.41,7.26h0c-1.22-.25-2.49-.1-3.63,.41-.52,.18-.94,.58-1.13,1.1-.08,.33,.02,.86,1.25,2.49h0C1.67,19.66-.25,26.02,.03,32.48c.29,6.46,2.97,12.58,7.53,17.16,1.6,1.6,3.4,2.98,5.35,4.1,9.08,5.18,20.13,5.55,29.53,.98h.02c.77-.38,1.11-1.29,.77-2.07l-.09-.25c-1.25-3.43-5.07-13.85-1.92-22.91,1.32-3.79,4.63-7.7,7.47-10.75h0c2.49,4.52,3.54,9.69,3.01,14.82-.49,4.69-2.4,9.12-5.48,12.69h0c-.1,.1-.15,.23-.15,.37,0,.06,.01,.12,.03,.17l.24,.69c.11,.28,.42,.42,.71,.32,.08-.03,.15-.08,.2-.14h.02c8.06-8.89,9.82-21.76,4.26-31.88h-.02ZM17.26,35.37c-1.33,5-1.91,10.17-1.73,15.35h0c-1.85-1.1-3.56-2.43-5.09-3.95-4.14-4.13-6.76-9.54-7.4-15.35-.61-5.43,.67-10.91,3.62-15.51h0c.92,1.1,2.04,2.38,3.21,3.71,2.87,3.26,6.12,6.96,7.65,9.54,.89,1.49,.45,3.27-.26,6.22h0ZM45.59,14.31c-6.06,5.31-11.62,8.03-16.51,8.07-3.76,.03-7.65-1.36-11.56-4.13-2.59-1.9-4.98-4.08-7.11-6.49l-.15-.16h0c3-2.79,6.68-4.74,10.68-5.64h0c-.52,1.55-.72,3.19-.57,4.82,.2,2.87,1.53,5.55,3.68,7.45,3.02,2.71,7.66,2.46,10.38-.56,.11-.12,.22-.25,.32-.38,1.8-2.25,2.63-5.11,2.33-7.97-.05-.55-.13-1.09-.25-1.63h0c2.77,1.28,5.3,3.05,7.46,5.22,.45,.45,.88,.92,1.3,1.41"/>
    </g>
  </g>
</svg>