<svg xmlns="http://www.w3.org/2000/svg" viewBox="0 0 200 200"><g id="a" clip-path="url(#b)"><path d="M130.732,60.576a55.879,55.879,0,0,1-15.442,4.229,26.651,26.651,0,0,0,11.79-14.813,53.562,53.562,0,0,1-17,6.488A26.8,26.8,0,0,0,63.723,74.807a27.6,27.6,0,0,0,.621,6.111A75.861,75.861,0,0,1,9.1,52.889,26.809,26.809,0,0,0,17.337,88.71a26.469,26.469,0,0,1-12.111-3.3V85.7A26.924,26.924,0,0,0,26.7,112.039a26.749,26.749,0,0,1-7.026.882,23.7,23.7,0,0,1-5.075-.458,27.057,27.057,0,0,0,25.044,18.67,53.852,53.852,0,0,1-33.227,11.43A50.191,50.191,0,0,1,0,142.2a75.453,75.453,0,0,0,41.115,12.028c49.319,0,76.282-40.863,76.282-76.268,0-1.184-.04-2.328-.1-3.46a53.466,53.466,0,0,0,13.433-13.92Z" transform="translate(35 1.003)"/></g></svg>
