<svg xmlns="http://www.w3.org/2000/svg" width="62.669" height="22.027" viewBox="0 0 62.669 22.027">
  <g id="bitpay" transform="translate(0)">
    <path id="パス_59327" data-name="パス 59327" d="M212.669,142.345h-3.26l-1.887,7.96-.265,1.092c-.182.05-.364.1-.546.132a5.317,5.317,0,0,1-1.042.1,2.362,2.362,0,0,1-.993-.182,1.031,1.031,0,0,1-.513-.513,1.643,1.643,0,0,1-.116-.778,5.3,5.3,0,0,1,.165-.96l.993-4.137.645-2.747h-3.326l-1.506,6.354a11.773,11.773,0,0,0-.314,2.185,4.091,4.091,0,0,0,.314,1.837,2.684,2.684,0,0,0,1.208,1.258,5.023,5.023,0,0,0,2.4.463,8.822,8.822,0,0,0,1.87-.182c.017,0,.05-.016.066-.016a2.94,2.94,0,0,1-.91,1.605,3.125,3.125,0,0,1-2.1.629,7.485,7.485,0,0,1-1.092-.066l-.645,2.7a12.533,12.533,0,0,0,1.44.083,9.342,9.342,0,0,0,2.6-.331,5.35,5.35,0,0,0,1.92-1.026,6.084,6.084,0,0,0,1.34-1.721,10,10,0,0,0,.86-2.466l2.251-9.466Zm-13.652,6.8a7.508,7.508,0,0,0-.182,2.5,9.95,9.95,0,0,0,.728,2.763h-3.144a3.969,3.969,0,0,1-.447-1.158,5.961,5.961,0,0,1-1.357.827,4.125,4.125,0,0,1-1.672.331,4.28,4.28,0,0,1-1.87-.381A3.53,3.53,0,0,1,189.8,153a4.1,4.1,0,0,1-.712-1.506,7.4,7.4,0,0,1-.215-1.853,7.762,7.762,0,0,1,.53-2.846,7.4,7.4,0,0,1,1.489-2.333,6.377,6.377,0,0,1,4.683-2.135h5.047Zm-2.3-4.054c-1.522,0-1.8,0-2.432.315a3.533,3.533,0,0,0-1.125.976,4.688,4.688,0,0,0-.761,1.39,5.013,5.013,0,0,0-.281,1.638,3.441,3.441,0,0,0,.348,1.671,1.343,1.343,0,0,0,1.291.612,2.041,2.041,0,0,0,.91-.2,3.167,3.167,0,0,0,.86-.662q.05-.546.149-1.142c.066-.4.149-.778.215-1.109l.827-3.492m-8.738,2.035a8.04,8.04,0,0,1-.53,2.946,6.774,6.774,0,0,1-1.473,2.3,6.644,6.644,0,0,1-2.251,1.506,7.336,7.336,0,0,1-2.846.546,9.427,9.427,0,0,1-1.506-.132l-.993,3.988h-3.26l3.79-15.92h4.352a5.39,5.39,0,0,1,2.118.38,3.909,3.909,0,0,1,2.317,2.549,5.472,5.472,0,0,1,.282,1.837Zm-7.993,4.518a4.44,4.44,0,0,0,2.5-.232,3.6,3.6,0,0,0,1.208-.893,4.435,4.435,0,0,0,.778-1.374,5.446,5.446,0,0,0,.281-1.771,2.9,2.9,0,0,0-.414-1.605,1.583,1.583,0,0,0-1.456-.678h-1.291Zm-6.851,0a2.364,2.364,0,0,1-.993-.182,1.031,1.031,0,0,1-.513-.513,1.641,1.641,0,0,1-.116-.778,5.3,5.3,0,0,1,.165-.96l.993-4.137h3.707l.679-2.747h-3.724l.86-3.475-3.475.546-2.2,9.3a11.774,11.774,0,0,0-.314,2.184,4.091,4.091,0,0,0,.314,1.837,2.685,2.685,0,0,0,1.208,1.258,5.023,5.023,0,0,0,2.4.463,8.832,8.832,0,0,0,1.87-.182c.05-.017.132-.033.182-.05l.679-2.83a3.645,3.645,0,0,1-.679.165A5.264,5.264,0,0,1,173.135,151.645Zm-8.291-9.3-2.88,12.08h3.26l2.863-12.08Zm3.591-1.39.5-2.1h-3.26l-.5,2.1Zm-10.806,1.407a4.16,4.16,0,0,1,1.82.38,3.632,3.632,0,0,1,1.274,1.01,4.5,4.5,0,0,1,.745,1.49,6.487,6.487,0,0,1,.248,1.837,7.3,7.3,0,0,1-.563,2.863,7.57,7.57,0,0,1-1.522,2.35,7.1,7.1,0,0,1-5.13,2.151c-.132,0-.364,0-.7-.016a7.242,7.242,0,0,1-1.125-.1c-.43-.066-.877-.149-1.34-.265a6.773,6.773,0,0,1-1.34-.48l3.789-15.92,3.393-.53-1.34,5.643a4.426,4.426,0,0,1,.861-.3A3.317,3.317,0,0,1,157.629,142.361Zm-2.846,9.367a2.762,2.762,0,0,0,1.44-.381,3.96,3.96,0,0,0,1.175-.993,4.865,4.865,0,0,0,.778-1.407,5.013,5.013,0,0,0,.281-1.638,3.258,3.258,0,0,0-.348-1.638,1.446,1.446,0,0,0-1.34-.579,2.871,2.871,0,0,0-.745.1,1.883,1.883,0,0,0-.877.463l-1.423,6.007a4.934,4.934,0,0,0,.679.083A2.362,2.362,0,0,1,154.782,151.728Z" transform="translate(-150 -137.132)" fill="#002855"/>
  </g>
</svg>
