<svg xmlns="http://www.w3.org/2000/svg" xmlns:xlink="http://www.w3.org/1999/xlink" width="34" height="36" viewBox="0 0 34 36">
  <defs>
    <linearGradient id="linear-gradient" x1="-0.062" y1="-0.061" x2="1.018" y2="1" gradientUnits="objectBoundingBox">
      <stop offset="0" stop-color="#3eb9fc"/>
      <stop offset="1" stop-color="#8b2ae1"/>
    </linearGradient>
    <linearGradient id="linear-gradient-2" x1="0" y1="0" x2="1" xlink:href="#linear-gradient"/>
  </defs>
  <g id="グループ_69041" data-name="グループ 69041" transform="translate(-2811.849 -2208.398)">
    <path id="パス_57689" data-name="パス 57689" d="M215.109,59.819a2.663,2.663,0,0,1-1.047-.854,2.219,2.219,0,0,1-.422-1.191h1.727a.993.993,0,0,0,.386.679,1.3,1.3,0,0,0,.839.269,1.257,1.257,0,0,0,.765-.205.627.627,0,0,0,.276-.523.555.555,0,0,0-.337-.519,6.154,6.154,0,0,0-1.071-.378,8.755,8.755,0,0,1-1.243-.4,2.163,2.163,0,0,1-.832-.627,1.735,1.735,0,0,1-.349-1.14,1.9,1.9,0,0,1,.325-1.076,2.2,2.2,0,0,1,.931-.768,3.356,3.356,0,0,1,1.429-.282,2.826,2.826,0,0,1,1.934.634,2.389,2.389,0,0,1,.8,1.709h-1.641a.941.941,0,0,0-.336-.672,1.463,1.463,0,0,0-1.519-.071.58.58,0,0,0-.251.5.588.588,0,0,0,.343.544,5.172,5.172,0,0,0,1.065.378,8.745,8.745,0,0,1,1.212.4,2.144,2.144,0,0,1,.827.634,1.793,1.793,0,0,1,.359,1.134,1.938,1.938,0,0,1-.327,1.1,2.154,2.154,0,0,1-.931.762,3.389,3.389,0,0,1-1.414.275,3.446,3.446,0,0,1-1.492-.312Zm-8.688-.148a3.181,3.181,0,0,1-1.114-1.3,4.335,4.335,0,0,1-.41-1.927,4.263,4.263,0,0,1,.41-1.907,3.1,3.1,0,0,1,1.114-1.28,2.872,2.872,0,0,1,1.574-.448,2.667,2.667,0,0,1,1.328.32,2.736,2.736,0,0,1,.913.807V52.924h1.727v7.093h-1.727V58.98a2.583,2.583,0,0,1-.913.826,2.691,2.691,0,0,1-1.341.327,2.791,2.791,0,0,1-1.561-.461Zm1.133-5.045a1.8,1.8,0,0,0-.656.711,2.311,2.311,0,0,0-.251,1.108,2.388,2.388,0,0,0,.251,1.122,1.864,1.864,0,0,0,.661.736,1.627,1.627,0,0,0,.876.256,1.706,1.706,0,0,0,.894-.25,1.769,1.769,0,0,0,.661-.717,2.685,2.685,0,0,0,0-2.241,1.769,1.769,0,0,0-.661-.717,1.706,1.706,0,0,0-.894-.25,1.678,1.678,0,0,0-.882.242Zm-12.472,5.16a2.663,2.663,0,0,1-1.133-.922,2.5,2.5,0,0,1-.428-1.421h1.837a1.266,1.266,0,0,0,.373.871,1.285,1.285,0,0,0,.925.32,1.381,1.381,0,0,0,.943-.3,1,1,0,0,0,.343-.787.934.934,0,0,0-.233-.653,1.632,1.632,0,0,0-.582-.4,9.357,9.357,0,0,0-.961-.328,9.964,9.964,0,0,1-1.354-.506,2.39,2.39,0,0,1-.894-.755,2.224,2.224,0,0,1-.374-1.351,2.5,2.5,0,0,1,.38-1.383,2.44,2.44,0,0,1,1.065-.9,3.73,3.73,0,0,1,1.567-.314,3.3,3.3,0,0,1,2.149.672,2.533,2.533,0,0,1,.913,1.878h-1.886a1.04,1.04,0,0,0-.373-.762,1.367,1.367,0,0,0-.925-.3,1.155,1.155,0,0,0-.8.269,1,1,0,0,0-.3.781.827.827,0,0,0,.227.6,1.713,1.713,0,0,0,.563.384,10.011,10.011,0,0,0,.949.341,9.681,9.681,0,0,1,1.359.512,2.467,2.467,0,0,1,.906.768,2.2,2.2,0,0,1,.38,1.344,2.618,2.618,0,0,1-.355,1.332,2.554,2.554,0,0,1-1.041.98,3.421,3.421,0,0,1-1.629.365A3.9,3.9,0,0,1,195.081,59.786Zm30.719.231V56.1a1.894,1.894,0,0,0-.4-1.3,1.4,1.4,0,0,0-1.1-.455,1.433,1.433,0,0,0-1.12.455,1.878,1.878,0,0,0-.408,1.3v3.918h-1.714V50.542h1.714v3.265a2.255,2.255,0,0,1,.882-.726,2.814,2.814,0,0,1,1.225-.263,2.659,2.659,0,0,1,1.372.352,2.383,2.383,0,0,1,.939,1.037,3.7,3.7,0,0,1,.337,1.645v4.161Zm-24.234,0V50.542h1.714v9.475Z" transform="translate(2618.33 2184.265)" fill="url(#linear-gradient)"/>
    <g id="グループ_67319" data-name="グループ 67319" transform="translate(2817.349 2208.398)">
      <rect id="長方形_18018" data-name="長方形 18018" width="23" height="24" rx="3" fill="url(#linear-gradient-2)"/>
      <path id="長方形_18019" data-name="長方形 18019" d="M0,0,1.717.057l.627,18.972L.627,18.972Z" transform="translate(17.347 4.432) rotate(45)" fill="#fff"/>
    </g>
  </g>
</svg>
