<svg id="グループ_5191" data-name="グループ 5191" xmlns="http://www.w3.org/2000/svg" xmlns:xlink="http://www.w3.org/1999/xlink" width="40.887" height="40.785" viewBox="0 0 40.887 40.785">
  <defs>
    <clipPath id="clip-path">
      <rect id="長方形_2450" data-name="長方形 2450" width="40.887" height="40.785" fill="none"/>
    </clipPath>
  </defs>
  <g id="グループ_5190" data-name="グループ 5190" clip-path="url(#clip-path)">
    <path id="パス_10" data-name="パス 10" d="M25.94,28.958l-.982-1.242v1.242H22.04V27.205a4.19,4.19,0,0,1-1.278.189H20.3v1.565H16.005l-.727-1.03-.708,1.03H7.54V22.01h6.09l.968,0,.714,1.016.721-1.016H40.785V0H0V16.1l1.359-3.172H4.134l.811,1.792V12.931H8.336l.515,1.538.515-1.538H24.346v.691a3.328,3.328,0,0,1,2.137-.691h4.558l.811,1.792V12.931h2.685l.893,1.408V12.931H38.49V19.88H35.606l-.865-1.353V19.88H30.588l-.4-1.03h-.954l-.391,1.03H26.407a3.3,3.3,0,0,1-2.061-.635v.635h-4.1l-.982-1.242V19.88H3.681l-.4-1.03H2.328l-.39,1.03H0V40.785H40.785V28.538a2.934,2.934,0,0,1-1.546.421Z" fill="#0068b6"/>
    <path id="パス_11" data-name="パス 11" d="M47.412,40.777l.014-.029H44.939a1.488,1.488,0,0,0-1.654,1.5,1.343,1.343,0,0,0,1.5,1.415h1.105a.438.438,0,1,1,0,.872H43.422v1.022h2.437a1.521,1.521,0,0,0,1.553-.968,1.649,1.649,0,0,0,.1-.562,1.6,1.6,0,0,0-.1-.588,1.36,1.36,0,0,0-1.4-.792H44.905a.428.428,0,0,1-.461-.439.422.422,0,0,1,.461-.433h2.067Zm-7.4,1.427a.423.423,0,0,1,.461-.433h2.067L43,40.748H40.511a1.488,1.488,0,0,0-1.654,1.5,1.343,1.343,0,0,0,1.5,1.415h1.105a.438.438,0,1,1,0,.872H38.994v1.022h2.437a1.494,1.494,0,0,0,1.654-1.531,1.316,1.316,0,0,0-1.5-1.38H40.477a.428.428,0,0,1-.461-.439m-5.492,3.349h3.852V44.532H35.685v-.893h2.629v-1H35.685v-.865h2.691V40.748H34.524Zm-.282,0L32.65,43.79a1.533,1.533,0,0,0-.364-3.042H29.67v4.806h1.161V43.831h.542L32.8,45.554Zm-2.065-2.719H30.831V41.771h1.346a.54.54,0,0,1,.6.535.531.531,0,0,1-.6.529m-3.118-.48A1.536,1.536,0,0,0,27.4,40.748h-2.65v4.806h1.161V43.968h1.449a1.574,1.574,0,0,0,1.7-1.613m-1.167.007a.557.557,0,0,1-.6.584h-1.38V41.771h1.38a.558.558,0,0,1,.6.591m-3.349,3.192-1.93-2.423,1.916-2.383H23.12l-1.173,1.524-1.174-1.524H19.323l1.922,2.4-1.915,2.4h1.407l1.181-1.545,1.174,1.545Zm-9.256,0h3.852V44.532H16.447v-.893h2.629v-1H16.447v-.865h2.691V40.748H15.286Z" transform="translate(-6.627 -17.666)" fill="#0068b6"/>
    <path id="パス_12" data-name="パス 12" d="M37.37,29.526V24.72H36.237v2.554l.014.577h-.014l-.33-.535-1.7-2.6H32.791v4.806h1.133V26.855l-.014-.569h.014l.322.528,1.771,2.712Zm-6.112,0h1.312L30.517,24.72H28.993l-2.059,4.806h1.242l.406-1.009h2.265Zm-.782-1.936H28.953l.453-1.127.3-.755h.014l.295.755Zm-4.03-1.826H27.7V24.72H26.357a2.171,2.171,0,0,0-2.3,2.362v.083a2.131,2.131,0,0,0,2.218,2.362h.068l.474-1.03H26.46a1.185,1.185,0,0,1-1.25-1.339v-.068a1.189,1.189,0,0,1,1.237-1.326m-4.23,3.762h1.161V24.72H22.217v4.806Zm-.282,0-1.592-1.765a1.532,1.532,0,0,0-.364-3.041H17.363v4.806h1.161V27.8h.543l1.427,1.723Zm-2.065-2.719H18.524V25.744h1.346a.54.54,0,0,1,.6.535.531.531,0,0,1-.6.529m-7.134,2.719h3.852V28.5H13.9v-.892h2.629v-1H13.9v-.865h2.692V24.72H12.735Zm-2.025,0h1.125V24.72H9.955L9.021,27.5l-.151.529H8.856L8.7,27.5,7.757,24.72H5.882v4.806H7.009V26.374l-.022-.734H7l.234.734,1.1,3.152H9.385l1.1-3.152.233-.734h.014l-.02.734Zm-6.358,0H5.664L3.61,24.72H2.086L.027,29.526H1.269l.405-1.009H3.941ZM3.569,27.59H2.045L2.5,26.464l.3-.755h.014l.3.755Z" transform="translate(-0.012 -10.717)" fill="#0068b6"/>
  </g>
</svg>
