<svg xmlns="http://www.w3.org/2000/svg" xmlns:xlink="http://www.w3.org/1999/xlink" width="58.555" height="45.827" viewBox="0 0 58.555 45.827">
  <defs>
    <linearGradient id="linear-gradient" x1="-0.062" y1="-0.061" x2="1.018" y2="1" gradientUnits="objectBoundingBox">
      <stop offset="0" stop-color="#3eb9fc"/>
      <stop offset="1" stop-color="#8b2ae1"/>
    </linearGradient>
    <linearGradient id="linear-gradient-2" x2="1" y2="1" gradientUnits="objectBoundingBox">
      <stop offset="0" stop-color="#49a4f8"/>
      <stop offset="1" stop-color="#803de4"/>
    </linearGradient>
  </defs>
  <g id="グループ_68941" data-name="グループ 68941" transform="translate(-0.069 0)">
    <path id="パス_57689" data-name="パス 57689" d="M230.7,65.822a4.552,4.552,0,0,1-1.8-1.406,3.556,3.556,0,0,1-.728-1.961h2.974a1.621,1.621,0,0,0,.664,1.118,2.315,2.315,0,0,0,1.445.443,2.24,2.24,0,0,0,1.318-.338,1.021,1.021,0,0,0,.475-.862.914.914,0,0,0-.58-.854,10.927,10.927,0,0,0-1.845-.623,15.583,15.583,0,0,1-2.141-.654,3.715,3.715,0,0,1-1.433-1.033,2.772,2.772,0,0,1-.6-1.877A3.029,3.029,0,0,1,229,56a3.754,3.754,0,0,1,1.6-1.265,6.009,6.009,0,0,1,2.461-.464,5.015,5.015,0,0,1,3.331,1.044,3.866,3.866,0,0,1,1.371,2.816h-2.826a1.527,1.527,0,0,0-.579-1.107,2.156,2.156,0,0,0-1.382-.411,2.179,2.179,0,0,0-1.234.295.943.943,0,0,0-.432.822.966.966,0,0,0,.591.9,9.182,9.182,0,0,0,1.835.622,15.551,15.551,0,0,1,2.088.654,3.679,3.679,0,0,1,1.424,1.044,2.867,2.867,0,0,1,.619,1.867,3.093,3.093,0,0,1-.562,1.813,3.68,3.68,0,0,1-1.6,1.256,6.069,6.069,0,0,1-2.436.453A6.166,6.166,0,0,1,230.7,65.822Zm-14.963-.243a5.312,5.312,0,0,1-1.919-2.141,6.878,6.878,0,0,1-.707-3.174,6.764,6.764,0,0,1,.706-3.142,5.179,5.179,0,0,1,1.919-2.109,5.115,5.115,0,0,1,2.711-.737,4.763,4.763,0,0,1,2.288.527,4.651,4.651,0,0,1,1.572,1.329V54.465h2.974V66.148h-2.974V64.44a4.384,4.384,0,0,1-1.572,1.36,4.8,4.8,0,0,1-2.309.538,4.967,4.967,0,0,1-2.689-.759Zm1.952-8.309a3.017,3.017,0,0,0-1.129,1.17,3.67,3.67,0,0,0-.432,1.824,3.79,3.79,0,0,0,.432,1.848,3.121,3.121,0,0,0,1.139,1.213,2.9,2.9,0,0,0,1.509.422,3.041,3.041,0,0,0,1.54-.411,2.968,2.968,0,0,0,1.139-1.18,4.247,4.247,0,0,0,0-3.691,2.968,2.968,0,0,0-1.139-1.18,3.04,3.04,0,0,0-1.54-.411,2.991,2.991,0,0,0-1.518.4Zm-21.48,8.5a4.551,4.551,0,0,1-1.951-1.518,4,4,0,0,1-.737-2.341h3.163a2.043,2.043,0,0,0,.643,1.434,2.278,2.278,0,0,0,1.592.527,2.451,2.451,0,0,0,1.624-.492,1.611,1.611,0,0,0,.591-1.3,1.5,1.5,0,0,0-.4-1.076,2.818,2.818,0,0,0-1-.664,16.624,16.624,0,0,0-1.654-.54,17.659,17.659,0,0,1-2.331-.833,4.077,4.077,0,0,1-1.54-1.244,3.546,3.546,0,0,1-.643-2.225,3.977,3.977,0,0,1,.654-2.278,4.16,4.16,0,0,1,1.835-1.487,6.678,6.678,0,0,1,2.7-.517,5.859,5.859,0,0,1,3.7,1.107,4.107,4.107,0,0,1,1.572,3.093h-3.249a1.687,1.687,0,0,0-.643-1.256,2.426,2.426,0,0,0-1.592-.492,2.049,2.049,0,0,0-1.381.443,1.6,1.6,0,0,0-.517,1.286,1.33,1.33,0,0,0,.39.984,2.959,2.959,0,0,0,.97.633q.58.243,1.634.562a17.158,17.158,0,0,1,2.341.844,4.206,4.206,0,0,1,1.561,1.265,3.515,3.515,0,0,1,.654,2.214,4.168,4.168,0,0,1-.611,2.193,4.325,4.325,0,0,1-1.793,1.613,6.116,6.116,0,0,1-2.8.6A6.987,6.987,0,0,1,196.209,65.767Zm52.9.381V59.695a3.028,3.028,0,0,0-.7-2.141,2.46,2.46,0,0,0-1.9-.749,2.526,2.526,0,0,0-1.93.749,3,3,0,0,0-.7,2.141v6.453h-2.953V50.542h2.953V55.92a3.853,3.853,0,0,1,1.518-1.2,5.034,5.034,0,0,1,2.109-.432,4.743,4.743,0,0,1,2.362.58,3.994,3.994,0,0,1,1.617,1.708,5.865,5.865,0,0,1,.58,2.71v6.854Zm-41.736,0V50.542h2.953V66.148Z" transform="translate(-193.451 -20.512)" fill="url(#linear-gradient)"/>
    <g id="グループ_67319" data-name="グループ 67319" transform="translate(19158.068 4552)">
      <path id="長方形_18018" data-name="長方形 18018" d="M5.349,0H20.193a5.349,5.349,0,0,1,5.349,5.349V20.193a5.349,5.349,0,0,1-5.349,5.349H5.349A5.349,5.349,0,0,1,0,20.193V5.349A5.349,5.349,0,0,1,5.349,0Z" transform="translate(-19142 -4552)" fill="url(#linear-gradient-2)"/>
      <path id="長方形_18019" data-name="長方形 18019" d="M0,0H1.867V20.636H0Z" transform="translate(-19122.635 -4547.184) rotate(45)" fill="#fff"/>
    </g>
  </g>
</svg>
