<svg xmlns="http://www.w3.org/2000/svg" width="72.46" height="23.451" viewBox="0 0 72.46 23.451">
  <g id="g4158" transform="translate(-81.166 -105.048)">
    <path id="polygon9" d="M439.377,133.428h-5.87l3.671-22.7h5.869Z" transform="translate(-326.812 -5.268)" fill="#00579f"/>
    <path id="path11" d="M582.786,106.014a14.466,14.466,0,0,0-5.265-.966c-5.8,0-9.878,3.091-9.9,7.51-.048,3.261,2.923,5.071,5.144,6.159,2.271,1.111,3.043,1.836,3.043,2.826-.023,1.521-1.835,2.222-3.525,2.222a11.683,11.683,0,0,1-5.507-1.208l-.773-.363-.821,5.1a17.864,17.864,0,0,0,6.546,1.208c6.159,0,10.169-3.043,10.216-7.753.023-2.584-1.545-4.564-4.927-6.182-2.053-1.039-3.31-1.739-3.31-2.8.024-.966,1.063-1.956,3.381-1.956a9.973,9.973,0,0,1,4.372.869l.531.241.8-4.9Z" transform="translate(-448.943)" fill="#00579f"/>
    <path id="path13" d="M799.6,125.386c.483-1.3,2.344-6.352,2.344-6.352-.024.048.482-1.328.772-2.173l.41,1.956s1.112,5.434,1.353,6.569Zm7.245-14.659h-4.54a2.9,2.9,0,0,0-3.068,1.884l-8.719,20.817h6.159s1.014-2.8,1.232-3.405h7.536c.169.8.7,3.405.7,3.405h5.435l-4.735-22.7Z" transform="translate(-657.959 -5.268)" fill="#00579f"/>
    <path id="path15" d="M180.327,110.727l-5.748,15.48-.628-3.14a17.375,17.375,0,0,0-8.115-9.515L171.1,133.4h6.207l9.226-22.677Z" transform="translate(-78.535 -5.268)" fill="#00579f"/>
    <path id="path17" d="M90.706,110.727H81.262l-.1.459c7.367,1.884,12.246,6.425,14.25,11.883l-2.053-10.433c-.338-1.45-1.377-1.86-2.657-1.908Z" transform="translate(0 -5.268)" fill="#faa61a"/>
  </g>
</svg>
