<svg xmlns="http://www.w3.org/2000/svg" xmlns:xlink="http://www.w3.org/1999/xlink" width="104.387" height="70.983" viewBox="0 0 104.387 70.983">
  <defs>
    <clipPath id="clip-path">
      <path id="パス_9" data-name="パス 9" d="M12.526,0H91.861a12.526,12.526,0,0,1,12.526,12.526v45.93A12.526,12.526,0,0,1,91.861,70.983H12.526A12.526,12.526,0,0,1,0,58.457V12.526A12.526,12.526,0,0,1,12.526,0Z" fill="#fff" stroke="#d1d1d1" stroke-width="2"/>
    </clipPath>
  </defs>
  <g id="マスクグループ_1" data-name="マスクグループ 1" clip-path="url(#clip-path)">
    <g id="Apple_Pay_Mark_RGB_041619" transform="translate(10.157 10.715)">
      <path id="XMLID_4_" d="M73.371,0H7.217c-.276,0-.552,0-.827,0-.232,0-.464,0-.7.011A10.119,10.119,0,0,0,4.179.145,5.117,5.117,0,0,0,2.738.62,4.841,4.841,0,0,0,.62,2.738,5.094,5.094,0,0,0,.146,4.179,10.052,10.052,0,0,0,.012,5.695c-.006.232-.009.464-.01.7,0,.276,0,.551,0,.827V44.375c0,.276,0,.551,0,.827,0,.232,0,.464.01.7a10.047,10.047,0,0,0,.134,1.515A5.093,5.093,0,0,0,.62,48.854a4.841,4.841,0,0,0,2.118,2.118,5.1,5.1,0,0,0,1.441.476,10.193,10.193,0,0,0,1.516.133q.348.008.7.009c.275,0,.551,0,.827,0H73.372c.275,0,.551,0,.826,0q.348,0,.7-.009a10.221,10.221,0,0,0,1.516-.133,5.1,5.1,0,0,0,1.44-.476,4.841,4.841,0,0,0,2.118-2.118,5.062,5.062,0,0,0,.474-1.441,10.043,10.043,0,0,0,.133-1.515c.006-.232.009-.464.011-.7,0-.276,0-.551,0-.827V7.218c0-.276,0-.552,0-.827,0-.232,0-.464-.011-.7a10.047,10.047,0,0,0-.133-1.515,5.063,5.063,0,0,0-.474-1.441A4.841,4.841,0,0,0,77.85.62,5.122,5.122,0,0,0,76.41.145,10.147,10.147,0,0,0,74.894.012C74.661.006,74.43,0,74.2,0c-.275,0-.551,0-.826,0Z" transform="translate(0 0)"/>
      <path id="XMLID_3_" d="M75.184,3.532l.814,0c.22,0,.441,0,.663.01a8.6,8.6,0,0,1,1.257.107,3.4,3.4,0,0,1,.966.316,3.122,3.122,0,0,1,1.365,1.367,3.349,3.349,0,0,1,.314.965,8.553,8.553,0,0,1,.107,1.256c.006.219.009.438.01.662,0,.271,0,.542,0,.814V46.187c0,.272,0,.542,0,.819,0,.219,0,.438-.01.657a8.538,8.538,0,0,1-.107,1.26,3.337,3.337,0,0,1-.314.962,3.122,3.122,0,0,1-1.367,1.367,3.367,3.367,0,0,1-.96.314,8.746,8.746,0,0,1-1.253.107c-.223.005-.444.008-.671.009-.271,0-.542,0-.813,0H9.019c-.267,0-.536,0-.808,0-.222,0-.444,0-.658-.009A8.763,8.763,0,0,1,6.3,51.567a3.378,3.378,0,0,1-.967-.317,3.122,3.122,0,0,1-1.364-1.365,3.376,3.376,0,0,1-.315-.967,8.507,8.507,0,0,1-.107-1.255c-.006-.22-.008-.441-.01-.66V8.214c0-.22,0-.441.01-.661a8.514,8.514,0,0,1,.108-1.259,3.371,3.371,0,0,1,.315-.965A3.122,3.122,0,0,1,5.331,3.965a3.388,3.388,0,0,1,.964-.315,8.586,8.586,0,0,1,1.259-.107c.22-.006.441-.008.659-.01l.817,0H75.184" transform="translate(-1.812 -1.812)" fill="#fff"/>
      <g id="グループ_5188" data-name="グループ 5188" transform="translate(10.923 14.146)">
        <g id="グループ_5186" data-name="グループ 5186">
          <path id="パス_4" data-name="パス 4" d="M42.019,32.262a4.5,4.5,0,0,0,1.035-3.206,4.46,4.46,0,0,0-2.956,1.53,4.211,4.211,0,0,0-1.06,3.082,3.721,3.721,0,0,0,2.982-1.406" transform="translate(-30.942 -29.055)"/>
          <path id="パス_5" data-name="パス 5" d="M34.534,38.976c-1.647-.1-3.047.935-3.833.935s-1.991-.885-3.293-.861a4.856,4.856,0,0,0-4.128,2.508c-1.769,3.05-.467,7.573,1.254,10.057.836,1.229,1.843,2.582,3.169,2.533,1.254-.049,1.745-.812,3.269-.812s1.965.812,3.293.787c1.376-.025,2.237-1.229,3.072-2.459a10.914,10.914,0,0,0,1.376-2.828,4.466,4.466,0,0,1-2.678-4.057A4.552,4.552,0,0,1,38.2,40.966a4.708,4.708,0,0,0-3.662-1.991" transform="translate(-22.435 -34.142)"/>
        </g>
        <g id="グループ_5187" data-name="グループ 5187" transform="translate(19.521 1.406)">
          <path id="パス_6" data-name="パス 6" d="M69.446,31.944A5.787,5.787,0,0,1,75.517,38a5.852,5.852,0,0,1-6.161,6.085H65.393v6.3H62.53V31.944Zm-4.052,9.74h3.285c2.493,0,3.911-1.342,3.911-3.669s-1.419-3.656-3.9-3.656h-3.3Z" transform="translate(-62.53 -31.944)"/>
          <path id="パス_7" data-name="パス 7" d="M90.74,51.578c0-2.352,1.8-3.8,5-3.975l3.681-.217V46.35c0-1.5-1.01-2.39-2.7-2.39a2.575,2.575,0,0,0-2.838,1.969H91.277C91.43,43.5,93.5,41.71,96.824,41.71c3.259,0,5.343,1.726,5.343,4.423V55.4H99.521V53.189h-.064a4.8,4.8,0,0,1-4.244,2.441C92.581,55.63,90.74,53.994,90.74,51.578Zm8.679-1.214V49.3l-3.311.2c-1.649.115-2.582.844-2.582,1.994,0,1.176.971,1.943,2.454,1.943A3.223,3.223,0,0,0,99.419,50.364Z" transform="translate(-77.005 -36.955)"/>
          <path id="パス_8" data-name="パス 8" d="M117.941,60.6V58.366a5.11,5.11,0,0,0,.894.051,2.24,2.24,0,0,0,2.39-1.917c0-.026.243-.818.243-.831l-4.857-13.46H119.6L123,53.151h.051l3.4-10.942h2.914l-5.037,14.15c-1.15,3.26-2.479,4.308-5.266,4.308A10.669,10.669,0,0,1,117.941,60.6Z" transform="translate(-90.281 -37.211)"/>
        </g>
      </g>
    </g>
    <rect id="長方形_2442" data-name="長方形 2442" width="117.581" height="24.095" transform="translate(-12.807 54.841)" fill="#fff"/>
    <rect id="長方形_2441" data-name="長方形 2441" width="113.726" height="23.305" transform="translate(-8.952 -4.782)" fill="#fff"/>
    <rect id="長方形_2448" data-name="長方形 2448" width="12.494" height="41.646" transform="translate(83.861 16.42)" fill="#fff"/>
    <rect id="長方形_2449" data-name="長方形 2449" width="13.535" height="41.646" transform="translate(7.857 16.42)" fill="#fff"/>
  </g>
</svg>
