<svg id="mastercard-2" xmlns="http://www.w3.org/2000/svg" width="55.733" height="43.359" viewBox="0 0 55.733 43.359">
  <path id="パス_59322" data-name="パス 59322" d="M155.3,1323.169v.111h.1a.108.108,0,0,0,.056-.014.05.05,0,0,0,.021-.043.048.048,0,0,0-.021-.042.1.1,0,0,0-.056-.014h-.1Zm.105-.079a.192.192,0,0,1,.125.036.119.119,0,0,1,.044.1.114.114,0,0,1-.035.087.173.173,0,0,1-.1.042l.139.159h-.107l-.128-.157H155.3v.157h-.09v-.422h.2Zm-.028.567a.334.334,0,0,0,.137-.028.365.365,0,0,0,.111-.075.352.352,0,0,0,.076-.112.354.354,0,0,0-.187-.463.35.35,0,0,0-.137-.026.368.368,0,0,0-.139.026.354.354,0,0,0-.114.076.36.36,0,0,0-.074.39.332.332,0,0,0,.074.111.362.362,0,0,0,.114.076.354.354,0,0,0,.139.028m0-.808a.468.468,0,0,1,.327.134.45.45,0,0,1,.1.5.47.47,0,0,1-.1.145.5.5,0,0,1-.147.1.45.45,0,0,1-.181.036.456.456,0,0,1-.183-.036.475.475,0,0,1-.148-.1.47.47,0,0,1-.1-.149.45.45,0,0,1,.1-.5.441.441,0,0,1,.148-.1.465.465,0,0,1,.183-.036m-42.665-1.623a1.385,1.385,0,1,1,1.387,1.464,1.372,1.372,0,0,1-1.387-1.464m3.7,0v-2.288h-.994v.557a1.732,1.732,0,0,0-1.444-.67,2.4,2.4,0,0,0,0,4.8,1.733,1.733,0,0,0,1.444-.67v.555h.993v-2.288Zm33.6,0a1.385,1.385,0,1,1,1.388,1.464,1.372,1.372,0,0,1-1.388-1.464m3.7,0V1317.1h-1v2.393a1.732,1.732,0,0,0-1.444-.67,2.4,2.4,0,0,0,0,4.8,1.733,1.733,0,0,0,1.444-.67v.555h1Zm-24.962-1.511a1.136,1.136,0,0,1,1.157,1.109h-2.373a1.178,1.178,0,0,1,1.216-1.109m.02-.892a2.4,2.4,0,0,0,.067,4.8,2.777,2.777,0,0,0,1.875-.641l-.487-.737a2.181,2.181,0,0,1-1.33.478,1.27,1.27,0,0,1-1.368-1.12h3.4c.01-.124.02-.249.02-.382a2.194,2.194,0,0,0-2.172-2.4m12.006,2.4a1.385,1.385,0,1,1,1.387,1.464,1.372,1.372,0,0,1-1.387-1.464m3.7,0v-2.286h-.994v.557a1.734,1.734,0,0,0-1.444-.67,2.4,2.4,0,0,0,0,4.8,1.735,1.735,0,0,0,1.444-.67v.555h.994v-2.288Zm-9.318,0a2.31,2.31,0,0,0,2.44,2.4,2.389,2.389,0,0,0,1.644-.545l-.478-.8a2.01,2.01,0,0,1-1.2.412,1.467,1.467,0,0,1,0-2.928,2.015,2.015,0,0,1,1.2.412l.478-.8a2.393,2.393,0,0,0-1.644-.545,2.31,2.31,0,0,0-2.44,2.4m12.82-2.4a1.35,1.35,0,0,0-1.206.67v-.554H145.8v4.573h1v-2.563c0-.757.325-1.177.975-1.177a1.614,1.614,0,0,1,.622.115l.306-.937a2.108,2.108,0,0,0-.709-.125m-26.655.479a3.417,3.417,0,0,0-1.865-.479c-1.159,0-1.9.555-1.9,1.464,0,.746.555,1.206,1.578,1.349l.47.067c.545.077.8.22.8.479,0,.354-.362.555-1.042.555a2.436,2.436,0,0,1-1.521-.478l-.467.776a3.3,3.3,0,0,0,1.98.593c1.321,0,2.086-.622,2.086-1.493,0-.8-.6-1.224-1.6-1.368l-.469-.068c-.43-.056-.775-.142-.775-.449,0-.334.325-.535.871-.535a2.95,2.95,0,0,1,1.426.392l.43-.8Zm12.831-.478a1.346,1.346,0,0,0-1.2.67v-.556h-.986v4.573h.994v-2.563c0-.757.325-1.177.975-1.177a1.614,1.614,0,0,1,.622.115l.306-.937a2.108,2.108,0,0,0-.709-.125m-8.485.115h-1.626v-1.387h-1.005v1.387h-.928v.909h.928v2.086c0,1.061.412,1.693,1.588,1.693a2.335,2.335,0,0,0,1.244-.354l-.287-.852a1.841,1.841,0,0,1-.88.259c-.5,0-.659-.307-.659-.765v-2.066h1.626Zm-14.867,4.574v-2.87a1.7,1.7,0,0,0-1.8-1.818,1.77,1.77,0,0,0-1.607.813,1.678,1.678,0,0,0-1.511-.813,1.513,1.513,0,0,0-1.339.679v-.565h-1v4.573h1v-2.536a1.07,1.07,0,0,1,1.12-1.216c.66,0,.994.43.994,1.206v2.545h1.005v-2.536a1.079,1.079,0,0,1,1.119-1.216c.679,0,1,.43,1,1.206v2.545Z" transform="translate(-100.674 -1280.401)" fill="#231f20"/>
  <path id="パス_59323" data-name="パス 59323" d="M1930.3,977.889v-.669h-.174l-.2.459-.2-.459h-.175v.669h.124v-.5l.188.435h.128l.189-.436v.5h.123Zm-1.1,0v-.554h.223v-.113h-.57v.113h.223v.554h.123Z" transform="translate(-1875.106 -949.992)" fill="#f79410"/>
  <path id="パス_59324" data-name="パス 59324" d="M744.78,159.233H729.71V132.15h15.07Z" transform="translate(-709.378 -128.468)" fill="#ff5f00"/>
  <path id="パス_59325" data-name="パス 59325" d="M21.287,17.223A17.2,17.2,0,0,1,27.865,3.682a17.224,17.224,0,1,0,0,27.083,17.2,17.2,0,0,1-6.578-13.541" transform="translate(0 0.001)" fill="#eb001b"/>
  <path id="パス_59326" data-name="パス 59326" d="M1027.977,17.223a17.223,17.223,0,0,1-27.867,13.541,17.225,17.225,0,0,0,0-27.083,17.223,17.223,0,0,1,27.867,13.541" transform="translate(-972.244 0.001)" fill="#f79e1b"/>
</svg>
