<svg id="Shop_Pay" xmlns="http://www.w3.org/2000/svg" width="67.747" height="41.237" viewBox="0 0 67.747 41.237">
  <rect id="長方形_19612" data-name="長方形 19612" width="67.747" height="41.237" rx="8" transform="translate(0 0)" fill="#5a31f4"/>
  <path id="パス_59328" data-name="パス 59328" d="M58.577,42.067a4.815,4.815,0,0,1-4.95,5.049H50.909a.229.229,0,0,0-.228.228v3.872a.229.229,0,0,1-.228.228h-1.9a.228.228,0,0,1-.228-.228V37.247a.228.228,0,0,1,.228-.228h5.09A4.808,4.808,0,0,1,58.577,42.067Zm-2.372,0a2.747,2.747,0,0,0-2.721-2.93H50.909a.228.228,0,0,0-.228.228v5.391a.228.228,0,0,0,.228.228h2.575A2.732,2.732,0,0,0,56.205,42.067Zm2.936,6.7a2.716,2.716,0,0,1,1.135-2.328,6.4,6.4,0,0,1,3.606-.907l1.814-.063v-.536c0-1.072-.72-1.525-1.874-1.525s-1.887.409-2.055,1.078a.221.221,0,0,1-.219.159H59.757a.226.226,0,0,1-.228-.26c.266-1.585,1.586-2.79,4.376-2.79,2.968,0,4.04,1.382,4.04,4.021v5.6a.231.231,0,0,1-.232.228H65.906a.228.228,0,0,1-.228-.228V50.8a.171.171,0,0,0-.3-.12,3.621,3.621,0,0,1-2.819,1.015c-2.061,0-3.422-1.072-3.422-2.927ZM65.7,47.55v-.434l-2.35.124c-1.237.064-1.957.577-1.957,1.443,0,.783.66,1.218,1.814,1.218A2.21,2.21,0,0,0,65.7,47.55Zm4.062,8.128V54.055a.229.229,0,0,1,.276-.225,4.6,4.6,0,0,0,.84.079,2.169,2.169,0,0,0,2.185-1.547l.117-.374a.241.241,0,0,0,0-.155l-3.764-9.666a.231.231,0,0,1,.216-.317h1.823a.232.232,0,0,1,.216.149l2.556,6.818a.232.232,0,0,0,.438,0l2.22-6.8a.232.232,0,0,1,.222-.159H78.99a.235.235,0,0,1,.219.317L75.182,52.91a4.165,4.165,0,0,1-4.265,3.133,3.414,3.414,0,0,1-.983-.117.235.235,0,0,1-.174-.247ZM36.1,36.213a9.374,9.374,0,0,0-6.463,2.521.409.409,0,0,0-.051.549l1.085,1.481a.416.416,0,0,0,.634.051,6.7,6.7,0,0,1,4.8-1.963,5.434,5.434,0,0,1,5.664,5.566,4.891,4.891,0,0,1-4.975,5.163c-2.267,0-3.977-1.5-3.977-3.488a3.39,3.39,0,0,1,1.253-2.616.409.409,0,0,0,.057-.571l-1.142-1.44a.415.415,0,0,0-.593-.06,6.025,6.025,0,0,0-2.245,4.687c0,3.418,2.9,6.1,6.625,6.12h.05a7.512,7.512,0,0,0,7.611-7.8,8.1,8.1,0,0,0-8.337-8.2Z" transform="translate(-20.524 -25.55)" fill="#fff"/>
</svg>
