<svg xmlns="http://www.w3.org/2000/svg" xmlns:xlink="http://www.w3.org/1999/xlink" width="20.581" height="22.336" viewBox="0 0 20.581 22.336">
  <defs>
    <linearGradient id="linear-gradient" x1="-0.062" y1="-0.061" x2="1.018" y2="1" gradientUnits="objectBoundingBox">
      <stop offset="0" stop-color="#3eb9fc"/>
      <stop offset="1" stop-color="#8b2ae1"/>
    </linearGradient>
    <linearGradient id="linear-gradient-2" x1="0" y1="0" x2="1" xlink:href="#linear-gradient"/>
  </defs>
  <g id="グループ_69041" data-name="グループ 69041" transform="translate(-2811.849 -2208.398)">
    <path id="パス_57689" data-name="パス 57689" d="M206.588,55.912a1.6,1.6,0,0,1-.634-.494,1.25,1.25,0,0,1-.256-.689h1.045a.57.57,0,0,0,.233.393.814.814,0,0,0,.508.156.787.787,0,0,0,.463-.119.359.359,0,0,0,.167-.3.321.321,0,0,0-.2-.3,3.84,3.84,0,0,0-.648-.219,5.476,5.476,0,0,1-.753-.23,1.306,1.306,0,0,1-.5-.363.974.974,0,0,1-.211-.66,1.065,1.065,0,0,1,.2-.623,1.32,1.32,0,0,1,.563-.445,2.112,2.112,0,0,1,.865-.163,1.763,1.763,0,0,1,1.171.367,1.359,1.359,0,0,1,.482.99h-.993a.537.537,0,0,0-.2-.389.758.758,0,0,0-.486-.145.766.766,0,0,0-.434.1.331.331,0,0,0-.152.289.34.34,0,0,0,.208.315,3.227,3.227,0,0,0,.645.219,5.466,5.466,0,0,1,.734.23,1.293,1.293,0,0,1,.5.367,1.008,1.008,0,0,1,.217.656,1.087,1.087,0,0,1-.2.637,1.293,1.293,0,0,1-.563.441,2.133,2.133,0,0,1-.856.159,2.167,2.167,0,0,1-.9-.181Zm-5.259-.085a1.867,1.867,0,0,1-.675-.752,2.418,2.418,0,0,1-.248-1.116,2.378,2.378,0,0,1,.248-1.1,1.82,1.82,0,0,1,.675-.741,1.8,1.8,0,0,1,.953-.259,1.674,1.674,0,0,1,.8.185,1.635,1.635,0,0,1,.552.467v-.586h1.045v4.106h-1.045v-.6a1.541,1.541,0,0,1-.552.478,1.688,1.688,0,0,1-.812.189,1.746,1.746,0,0,1-.945-.267Zm.686-2.921a1.06,1.06,0,0,0-.4.411,1.29,1.29,0,0,0-.152.641,1.332,1.332,0,0,0,.152.65,1.1,1.1,0,0,0,.4.426,1.018,1.018,0,0,0,.53.148,1.068,1.068,0,0,0,.541-.145,1.043,1.043,0,0,0,.4-.415,1.493,1.493,0,0,0,0-1.3,1.043,1.043,0,0,0-.4-.415,1.069,1.069,0,0,0-.541-.145,1.051,1.051,0,0,0-.534.14Zm-7.55,2.987a1.6,1.6,0,0,1-.686-.534,1.405,1.405,0,0,1-.259-.823h1.112a.718.718,0,0,0,.226.5.8.8,0,0,0,.56.185.862.862,0,0,0,.571-.173.566.566,0,0,0,.208-.456.527.527,0,0,0-.141-.378.99.99,0,0,0-.352-.234,5.842,5.842,0,0,0-.581-.19,6.207,6.207,0,0,1-.819-.293,1.433,1.433,0,0,1-.541-.437,1.246,1.246,0,0,1-.226-.782,1.4,1.4,0,0,1,.23-.8,1.462,1.462,0,0,1,.645-.523,2.347,2.347,0,0,1,.949-.182,2.059,2.059,0,0,1,1.3.389,1.443,1.443,0,0,1,.552,1.087H196.07a.593.593,0,0,0-.226-.441.853.853,0,0,0-.56-.173.72.72,0,0,0-.486.156.563.563,0,0,0-.182.452.467.467,0,0,0,.137.346,1.04,1.04,0,0,0,.341.222q.2.085.574.2a6.031,6.031,0,0,1,.823.3,1.478,1.478,0,0,1,.549.445,1.235,1.235,0,0,1,.23.778,1.465,1.465,0,0,1-.215.771,1.52,1.52,0,0,1-.63.567,2.15,2.15,0,0,1-.986.211A2.456,2.456,0,0,1,194.465,55.893Zm18.595.134V53.759a1.064,1.064,0,0,0-.245-.752.865.865,0,0,0-.667-.263.888.888,0,0,0-.678.263,1.055,1.055,0,0,0-.247.752v2.268h-1.038V50.542h1.038v1.89a1.354,1.354,0,0,1,.534-.42,1.769,1.769,0,0,1,.741-.152,1.667,1.667,0,0,1,.83.2,1.4,1.4,0,0,1,.568.6,2.061,2.061,0,0,1,.2.953v2.409Zm-14.669,0V50.542h1.038v5.485Z" transform="translate(2618.33 2174.64)" fill="url(#linear-gradient)"/>
    <g id="グループ_67319" data-name="グループ 67319" transform="translate(2815.387 2208.398)">
      <rect id="長方形_18018" data-name="長方形 18018" width="13.505" height="13.956" rx="3" fill="url(#linear-gradient-2)"/>
      <path id="長方形_18019" data-name="長方形 18019" d="M0,0,1.01.024l.264,11.162-1.01-.024Z" transform="translate(10.227 2.565) rotate(45)" fill="#fff"/>
    </g>
  </g>
</svg>
