<?xml version="1.0" standalone="no"?>
<!DOCTYPE svg PUBLIC "-//W3C//DTD SVG 20010904//EN"
 "http://www.w3.org/TR/2001/REC-SVG-20010904/DTD/svg10.dtd">
<svg version="1.0" xmlns="http://www.w3.org/2000/svg"
 width="408.000000pt" height="408.000000pt" viewBox="0 0 408.000000 408.000000"
 preserveAspectRatio="xMidYMid meet">

<g transform="translate(0.000000,408.000000) scale(0.100000,-0.100000)"
fill="#000000" stroke="none">
<path d="M1527 4059 c-569 -66 -1077 -420 -1336 -929 -253 -500 -256 -1055 -6
-1555 111 -222 154 -273 628 -746 235 -235 460 -452 500 -482 349 -262 797
-385 1222 -337 578 67 1083 416 1344 930 140 276 200 550 188 850 -15 357
-131 684 -341 964 -56 74 -836 863 -931 942 -183 152 -476 289 -720 338 -174
35 -385 44 -548 25z m501 -178 c150 -32 257 -70 402 -143 158 -80 279 -167
402 -291 48 -50 87 -91 85 -93 -1 -2 -39 8 -82 22 -249 77 -560 90 -836 34
-459 -94 -872 -384 -1119 -785 -61 -99 -134 -255 -166 -353 l-27 -84 -246 246
-245 245 17 72 c25 103 89 260 148 364 245 429 671 717 1164 784 112 16 394 5
503 -18z m470 -602 c203 -22 379 -72 543 -155 457 -229 765 -644 851 -1148 26
-156 21 -427 -11 -574 -67 -304 -204 -557 -419 -776 -222 -225 -481 -367 -799
-438 -84 -19 -129 -22 -313 -22 -185 0 -229 3 -317 22 -551 120 -988 507
-1166 1032 -132 389 -106 810 73 1185 142 299 426 583 725 725 263 125 562
179 833 149z m-1855 -1298 c-2 -9 -10 -83 -16 -164 l-12 -147 -218 218 -218
218 -9 65 c-5 35 -10 120 -10 189 l0 125 244 -244 c168 -167 242 -249 239
-260z m17 -616 c15 -60 49 -181 57 -202 4 -10 -20 6 -53 35 -129 117 -252 279
-331 437 -89 176 -90 177 122 -35 163 -163 197 -202 205 -235z"/>
<path d="M2156 3039 c-166 -24 -365 -98 -512 -190 -292 -184 -497 -467 -586
-809 -39 -149 -49 -371 -24 -522 45 -274 169 -519 363 -719 196 -202 433 -331
710 -385 119 -24 376 -24 488 0 275 58 499 178 691 370 193 194 314 420 371
696 24 117 24 363 0 483 -56 279 -183 513 -386 710 -200 194 -446 318 -713
362 -100 16 -305 18 -402 4z m414 -166 c361 -71 671 -309 830 -637 153 -314
160 -672 21 -986 -115 -261 -345 -490 -604 -603 -254 -109 -533 -127 -796 -51
-460 134 -799 547 -841 1026 -67 770 633 1401 1390 1251z"/>
<path d="M1245 1823 c7 -32 23 -102 35 -155 l22 -98 47 0 47 0 24 91 c12 49
26 86 30 82 4 -4 17 -45 30 -90 l23 -83 47 0 47 0 28 133 c39 183 38 182 59
85 10 -45 25 -113 33 -150 l15 -68 48 0 48 0 23 90 c13 50 26 90 29 90 3 0 16
-40 29 -90 l23 -90 49 0 c27 0 49 2 49 5 0 3 14 66 30 140 17 74 30 142 30
151 0 12 -9 14 -42 12 l-43 -3 -15 -80 c-9 -44 -18 -75 -21 -70 -3 6 -14 43
-24 83 l-19 72 -46 0 -46 0 -19 -72 c-10 -40 -21 -77 -24 -83 -3 -5 -12 26
-21 70 l-16 80 -91 3 -91 3 -13 -81 c-7 -44 -15 -77 -18 -74 -3 3 -15 37 -26
77 l-20 72 -46 3 -46 3 -18 -68 c-27 -103 -31 -104 -47 -17 l-14 79 -46 3 -46
3 13 -58z"/>
<path d="M2130 1724 l0 -156 105 4 c103 3 105 4 137 35 29 29 33 40 36 100 6
130 -41 173 -190 173 l-88 0 0 -156z m161 67 c19 -16 24 -29 24 -69 0 -60 -17
-82 -61 -82 l-34 0 0 85 c0 83 1 85 24 85 13 0 34 -9 47 -19z"/>
<path d="M2519 1857 c-67 -44 -87 -133 -49 -212 26 -54 69 -78 139 -79 102 -1
161 57 161 159 0 100 -57 155 -161 155 -42 0 -65 -6 -90 -23z m136 -67 c21
-23 24 -95 6 -129 -14 -26 -72 -29 -95 -5 -22 21 -21 111 1 136 21 24 65 23
88 -2z"/>
<path d="M2879 1857 c-67 -44 -87 -133 -49 -212 22 -45 56 -69 112 -79 46 -8
122 9 160 35 27 20 29 25 26 83 l-3 61 -72 3 -73 3 0 -36 c0 -32 2 -35 30 -35
38 0 41 -26 4 -40 -67 -26 -104 4 -104 83 0 41 5 58 20 72 24 22 65 23 88 2
12 -11 29 -14 60 -10 23 3 42 7 42 9 0 18 -30 58 -51 70 -45 23 -150 18 -190
-9z"/>
<path d="M3180 1725 l0 -155 130 0 130 0 0 35 0 35 -80 0 -80 0 0 30 0 30 75
0 75 0 0 30 0 30 -75 0 c-73 0 -75 1 -75 25 0 25 1 25 80 25 l80 0 0 35 0 35
-130 0 -130 0 0 -155z"/>
</g>
</svg>
