<svg xmlns="http://www.w3.org/2000/svg" xmlns:xlink="http://www.w3.org/1999/xlink" width="20.636" height="18.213" viewBox="0 0 20.636 18.213">
  <defs>
    <linearGradient id="linear-gradient" x1="0.463" y1="1.072" x2="0.463" y2="-0.251" gradientUnits="objectBoundingBox">
      <stop offset="0" stop-color="#ffcf95"/>
      <stop offset="0.427" stop-color="#ffc954"/>
      <stop offset="1" stop-color="#ffc200"/>
    </linearGradient>
    <linearGradient id="linear-gradient-3" x1="0.826" y1="-0.418" x2="-0.165" y2="0.473" gradientUnits="objectBoundingBox">
      <stop offset="0" stop-color="#ffc200" stop-opacity="0"/>
      <stop offset="0.203" stop-color="#fb0" stop-opacity="0.204"/>
      <stop offset="0.499" stop-color="#ffa700" stop-opacity="0.498"/>
      <stop offset="0.852" stop-color="#f80" stop-opacity="0.851"/>
      <stop offset="1" stop-color="#ff7800"/>
    </linearGradient>
    <linearGradient id="linear-gradient-4" x1="1.146" y1="-2.834" x2="-0.643" y2="-0.693" xlink:href="#linear-gradient-3"/>
    <linearGradient id="linear-gradient-5" x1="0.907" y1="-4.259" x2="-0.007" y2="-5.037" xlink:href="#linear-gradient-3"/>
    <linearGradient id="linear-gradient-6" x1="0.459" y1="1.06" x2="0.459" y2="-0.57" gradientUnits="objectBoundingBox">
      <stop offset="0" stop-color="#5b6a6a"/>
      <stop offset="1" stop-color="#303033"/>
    </linearGradient>
    <linearGradient id="linear-gradient-7" x1="-0.061" y1="0.877" x2="-0.061" y2="-0.333" xlink:href="#linear-gradient-6"/>
  </defs>
  <g id="caution" transform="translate(0 -30.063)">
    <path id="SVGCleanerId_0" d="M20.369,45.372,11.984,31.02a1.93,1.93,0,0,0-3.333,0L.266,45.372a1.93,1.93,0,0,0,1.666,2.9H18.7A1.93,1.93,0,0,0,20.369,45.372Z" transform="translate(0)" fill="url(#linear-gradient)"/>
    <g id="グループ_69137" data-name="グループ 69137" transform="translate(-0.001 30.063)">
      <path id="SVGCleanerId_0_1_" d="M20.369,45.372,11.984,31.02a1.93,1.93,0,0,0-3.333,0L.266,45.372a1.93,1.93,0,0,0,1.666,2.9H18.7A1.93,1.93,0,0,0,20.369,45.372Z" transform="translate(0.001 -30.063)" fill="url(#linear-gradient)"/>
    </g>
    <path id="パス_59530" data-name="パス 59530" d="M249.694,191.967h-2.719L241.007,186a.311.311,0,0,1-.18-.3q0-.82-.068-2.679t-.067-2.679a.489.489,0,0,1,.178-.4.719.719,0,0,1,.462-.142.534.534,0,0,1,.416.148l9.864,9.865A1.933,1.933,0,0,1,249.694,191.967Z" transform="translate(-230.992 -143.691)" fill="url(#linear-gradient-3)"/>
    <path id="パス_59531" data-name="パス 59531" d="M245.076,361.34h-1.836l-4.016-4.016a.561.561,0,0,1-.21-.432.555.555,0,0,1,.21-.437.756.756,0,0,1,.51-.18.646.646,0,0,1,.457.18Z" transform="translate(-229.382 -313.064)" fill="url(#linear-gradient-4)"/>
    <path id="パス_59532" data-name="パス 59532" d="M1.955,417.666h16.77a1.93,1.93,0,0,0,1.77-2.7H.185A1.93,1.93,0,0,0,1.955,417.666Z" transform="translate(-0.023 -369.39)" fill="url(#linear-gradient-5)"/>
    <path id="パス_59533" data-name="パス 59533" d="M44.038,70.462,35.653,56.109a.9.9,0,0,0-1.551,0L25.717,70.462a.9.9,0,0,0,.776,1.351h16.77a.9.9,0,0,0,.776-1.351Zm-1.446.32H27.163a.251.251,0,0,1-.217-.378L34.66,57.2a.251.251,0,0,1,.434,0l7.714,13.2A.251.251,0,0,1,42.591,70.781Z" transform="translate(-24.56 -24.569)" fill="url(#linear-gradient-6)"/>
    <path id="パス_59534" data-name="パス 59534" d="M239.02,187.517a.555.555,0,0,1,.21-.437.757.757,0,0,1,.51-.18.646.646,0,0,1,.456.18.586.586,0,0,1,0,.869.636.636,0,0,1-.456.185.744.744,0,0,1-.51-.185A.561.561,0,0,1,239.02,187.517Zm.067-7.183a.488.488,0,0,1,.178-.4.717.717,0,0,1,.462-.143.532.532,0,0,1,.416.148.576.576,0,0,1,.133.4q0,.821-.028,2.679t-.028,2.679a.3.3,0,0,1-.16.268.636.636,0,0,1-.333.1q-.505,0-.505-.365,0-.821-.067-2.679T239.087,180.334Z" transform="translate(-229.387 -143.689)" fill="url(#linear-gradient-7)"/>
  </g>
</svg>
