<svg xmlns="http://www.w3.org/2000/svg" width="60.182" height="45.137" viewBox="0 0 60.182 45.137">
  <path id="noun_Olympic_Track_1339056_1_" data-name="noun_Olympic Track_1339056 (1)" d="M526.568,651h15.045a22.57,22.57,0,0,1,13.214,40.866,22.236,22.236,0,0,1-13.214,4.271H526.568a22.568,22.568,0,1,1,0-45.137Zm0,5.015a17.553,17.553,0,0,0,0,35.106h15.045a17.553,17.553,0,1,0,0-35.106Zm15.045,5.015a12.538,12.538,0,1,1,0,25.076H526.568a12.538,12.538,0,0,1,0-25.076Zm-22.568,12.538a7.523,7.523,0,0,0,7.523,7.523h15.045a7.523,7.523,0,1,0,0-15.046H526.568A7.523,7.523,0,0,0,519.046,673.568Z" transform="translate(-504 -651)" fill="#fff" fill-rule="evenodd"/>
</svg>
