<svg xmlns="http://www.w3.org/2000/svg" width="19.471" height="19.47" viewBox="0 0 19.471 19.47">
  <g id="cookie" transform="translate(-0.002)">
    <path id="パス_59502" data-name="パス 59502" d="M18.977,10.958a3.073,3.073,0,0,1-.447.033,3.14,3.14,0,0,1-2.989-2.179.619.619,0,0,0-.469-.425A5.021,5.021,0,0,1,11.836.672a.315.315,0,0,0-.2-.486,9.736,9.736,0,1,0,7.71,11.123A.314.314,0,0,0,18.977,10.958Z" transform="translate(0)" fill="#f5b353"/>
    <g id="グループ_69105" data-name="グループ 69105" transform="translate(4.085 5.339)">
      <circle id="楕円形_121" data-name="楕円形 121" cx="1.256" cy="1.256" r="1.256" fill="#cd916e"/>
      <circle id="楕円形_122" data-name="楕円形 122" cx="0.942" cy="0.942" r="0.942" transform="translate(0.942 6.595)" fill="#cd916e"/>
    </g>
    <path id="パス_59503" data-name="パス 59503" d="M388.757,306.8a.314.314,0,0,1-.281-.174l-.314-.628a.314.314,0,0,1,.562-.281l.314.628a.314.314,0,0,1-.281.455Z" transform="translate(-373.367 -293.929)" fill="#a06e50"/>
    <g id="グループ_69106" data-name="グループ 69106" transform="translate(2.828 2.826)">
      <path id="パス_59504" data-name="パス 59504" d="M305.862,265.2a.314.314,0,0,1-.141-.595l.628-.314a.314.314,0,0,1,.281.562l-.628.314A.314.314,0,0,1,305.862,265.2Z" transform="translate(-296.754 -257.038)" fill="#b67f5f"/>
      <path id="パス_59505" data-name="パス 59505" d="M74.951,240.743a.314.314,0,0,1-.281-.174l-.314-.628a.314.314,0,0,1,.562-.281l.314.628a.314.314,0,0,1-.281.455Z" transform="translate(-74.322 -233.206)" fill="#cd916e"/>
      <path id="パス_59506" data-name="パス 59506" d="M190.25,397.329a.314.314,0,0,1-.141-.6l.628-.314a.314.314,0,0,1,.281.562l-.628.314A.314.314,0,0,1,190.25,397.329Z" transform="translate(-185.539 -384.139)" fill="#b67f5f"/>
      <path id="パス_59507" data-name="パス 59507" d="M198.824,75.266a.313.313,0,0,1-.222-.092l-.314-.314a.314.314,0,0,1,.444-.444l.314.314a.314.314,0,0,1-.222.536Z" transform="translate(-193.485 -74.324)" fill="#b67f5f"/>
    </g>
    <g id="グループ_69107" data-name="グループ 69107" transform="translate(6.911 4.711)">
      <path id="パス_59508" data-name="パス 59508" d="M182.308,265.2a.313.313,0,0,1-.222-.092l-.314-.314a.314.314,0,0,1,.444-.444l.314.314a.314.314,0,0,1-.222.536Z" transform="translate(-181.68 -258.92)" fill="#a06e50"/>
      <path id="パス_59509" data-name="パス 59509" d="M281.09,438.62a.314.314,0,0,1-.314-.314v-.314a.314.314,0,1,1,.628,0v.314A.314.314,0,0,1,281.09,438.62Z" transform="translate(-277.008 -425.745)" fill="#a06e50"/>
      <path id="パス_59510" data-name="パス 59510" d="M231.542,124.815a.314.314,0,0,1-.222-.536l.314-.314a.314.314,0,0,1,.444.444l-.314.314A.313.313,0,0,1,231.542,124.815Z" transform="translate(-229.343 -123.872)" fill="#a06e50"/>
    </g>
    <g id="グループ_69108" data-name="グループ 69108" transform="translate(13.678 1.459)">
      <path id="パス_59511" data-name="パス 59511" d="M359.738,39.465l-.09.541a.942.942,0,0,0,.6,1.037l.8.3a.942.942,0,0,0,1.245-.654l.284-1.137a.942.942,0,0,0-1.185-1.131l-.992.3A.942.942,0,0,0,359.738,39.465Z" transform="translate(-359.635 -38.379)" fill="#f5b353"/>
      <path id="パス_59512" data-name="パス 59512" d="M427.558,155.226l-.379.19a.628.628,0,0,0-.3.809l.305.712a.628.628,0,0,0,1.06.155l.491-.589a.628.628,0,0,0-.106-.9l-.417-.313A.628.628,0,0,0,427.558,155.226Z" transform="translate(-424.276 -150.719)" fill="#f5b353"/>
      <path id="パス_59521" data-name="パス 59521" d="M.628,0A.628.628,0,1,1,0,.628.628.628,0,0,1,.628,0Z" transform="translate(4.538 1.995)" fill="#f5b353"/>
    </g>
    <g id="グループ_69109" data-name="グループ 69109" transform="translate(0.002 1.754)">
      <path id="パス_59513" data-name="パス 59513" d="M10.915,76.163a9.735,9.735,0,0,1-7.447-16A9.736,9.736,0,1,0,17.182,73.88,9.692,9.692,0,0,1,10.915,76.163Z" transform="translate(-0.002 -59.624)" fill="#ac7331"/>
      <path id="パス_59514" data-name="パス 59514" d="M361.184,48.057a1.177,1.177,0,0,1-.748-1.3l.107-.644-.147.044a.942.942,0,0,0-.659.748l-.09.541a.942.942,0,0,0,.6,1.037l.8.3a.942.942,0,0,0,1.116-.361Z" transform="translate(-345.959 -46.118)" fill="#ac7331"/>
      <path id="パス_59515" data-name="パス 59515" d="M479.951,92.85a.628.628,0,0,1-.584-.859.628.628,0,1,0,.815.815A.63.63,0,0,1,479.951,92.85Z" transform="translate(-460.756 -90.247)" fill="#ac7331"/>
      <path id="パス_59516" data-name="パス 59516" d="M427.856,159.184l-.346-.806a.705.705,0,0,1-.031-.461l-.3.151a.628.628,0,0,0-.3.809l.305.712a.628.628,0,0,0,1.06.155l.122-.146A.7.7,0,0,1,427.856,159.184Z" transform="translate(-410.599 -153.665)" fill="#ac7331"/>
    </g>
    <g id="グループ_69110" data-name="グループ 69110" transform="translate(4.084 5.438)">
      <path id="パス_59517" data-name="パス 59517" d="M109.28,144.74a1.257,1.257,0,0,1-1.157-1.746,1.256,1.256,0,1,0,1.647,1.647A1.252,1.252,0,0,1,109.28,144.74Z" transform="translate(-107.357 -142.994)" fill="#825223"/>
      <path id="パス_59518" data-name="パス 59518" d="M133.565,317.169a.941.941,0,0,1-.864-1.316.942.942,0,1,0,1.238,1.238A.937.937,0,0,1,133.565,317.169Z" transform="translate(-131.19 -309.28)" fill="#825223"/>
    </g>
    <circle id="楕円形_124" data-name="楕円形 124" cx="1.256" cy="1.256" r="1.256" transform="translate(10.679 12.562)" fill="#cd916e"/>
    <path id="パス_59519" data-name="パス 59519" d="M282.7,334.675a1.257,1.257,0,0,1-1.157-1.746,1.256,1.256,0,1,0,1.647,1.647A1.251,1.251,0,0,1,282.7,334.675Z" transform="translate(-270.097 -320.268)" fill="#825223"/>
    <circle id="楕円形_125" data-name="楕円形 125" cx="0.628" cy="0.628" r="0.628" transform="translate(8.782 7.537)" fill="#cd916e"/>
    <path id="パス_59520" data-name="パス 59520" d="M231.846,200.37a.628.628,0,0,1-.579-.873.628.628,0,1,0,.823.823A.627.627,0,0,1,231.846,200.37Z" transform="translate(-222.102 -191.911)" fill="#825223"/>
  </g>
</svg>
