<svg xmlns="http://www.w3.org/2000/svg" width="50.477" height="50.477" viewBox="0 0 50.477 50.477">
  <path id="Multiply" d="M25.238,0A25.238,25.238,0,1,0,50.477,25.238,25.267,25.267,0,0,0,25.238,0Zm0,47.322A22.083,22.083,0,1,1,47.322,25.238,22.108,22.108,0,0,1,25.238,47.322Zm9-28.855-6.772,6.772L34.24,32.01a1.577,1.577,0,1,1-2.23,2.23l-6.772-6.772L18.467,34.24a1.577,1.577,0,0,1-2.23-2.23l6.772-6.772-6.772-6.772a1.577,1.577,0,0,1,2.23-2.23l6.772,6.772,6.772-6.772a1.577,1.577,0,0,1,2.23,2.23Z" fill="#fa4754"/>
</svg>
