<svg xmlns="http://www.w3.org/2000/svg" width="12.858" height="15" viewBox="0 0 12.858 15">
  <g id="exchange" transform="translate(0.001 0)">
    <path id="XMLID_17_" d="M12.272,3.409H1.995L3.919,1.163a.765.765,0,0,0,0-.964.527.527,0,0,0-.826,0L.171,3.608a.765.765,0,0,0,0,.964L3.093,7.982a.527.527,0,0,0,.826,0,.765.765,0,0,0,0-.964L1.995,4.772H12.272a.639.639,0,0,0,.584-.682A.639.639,0,0,0,12.272,3.409Z" transform="translate(0 0)" fill="#fff"/>
    <path id="XMLID_18_" d="M9.764,150.2a.527.527,0,0,0-.826,0,.765.765,0,0,0,0,.964l1.924,2.245H.584a.69.69,0,0,0,0,1.364H10.862l-1.924,2.245a.765.765,0,0,0,0,.964.527.527,0,0,0,.826,0l2.922-3.409a.765.765,0,0,0,0-.964Z" transform="translate(0 -143.182)" fill="#fff"/>
  </g>
</svg>
