<svg xmlns="http://www.w3.org/2000/svg" width="26" height="26" viewBox="0 0 26 26">
  <g id="グループ_5137" data-name="グループ 5137" transform="translate(-905 -35)">
    <g id="グループ_4947" data-name="グループ 4947" transform="translate(23)">
      <rect id="長方形_2343" data-name="長方形 2343" width="26" height="26" rx="5" transform="translate(882 35)" fill="#0b0414"/>
    </g>
    <g id="Layer_1" data-name="Layer 1" transform="translate(908.418 38.836)">
      <path id="パス_1819" data-name="パス 1819" d="M5.86,8.053,9.582,4.331l3.724,3.723,2.166-2.166L9.582,0,3.695,5.887,5.86,8.053M0,9.582,2.166,7.416,4.331,9.582,2.165,11.747Zm5.86,1.529,3.722,3.722,3.724-3.723,2.167,2.164h0L9.582,19.164,3.695,13.277l0,0L5.86,11.111m8.973-1.528L17,7.417l2.165,2.165L17,11.748Z" fill="#f3ba2f"/>
      <path id="パス_1820" data-name="パス 1820" d="M967.585,965.388h0l-2.2-2.2-1.624,1.624h0l-.187.187-.385.385,0,0,0,0,2.2,2.2,2.2-2.2h0" transform="translate(-955.807 -955.807)" fill="#f3ba2f"/>
    </g>
  </g>
</svg>
