<svg xmlns="http://www.w3.org/2000/svg" width="17.5" height="17.5" viewBox="0 0 17.5 17.5">
  <path id="link_2_" data-name="link (2)" d="M4.245,17.5a4.2,4.2,0,0,1-2.988-1.257A4.193,4.193,0,0,1,0,13.1,5.041,5.041,0,0,1,1.59,9.723l1.788-1.8a.684.684,0,1,1,.969.965l-1.789,1.8c-1.45,1.45-1.586,3.336-.334,4.589s3.139,1.116,4.588-.333l2.457-2.457a3.7,3.7,0,0,0,1.188-2.459A2.84,2.84,0,0,0,9.6,7.9a3.025,3.025,0,0,0-.64-.491.684.684,0,1,1,.677-1.188,4.393,4.393,0,0,1,.93.712,4.193,4.193,0,0,1,1.254,3.147,5.041,5.041,0,0,1-1.587,3.375L7.778,15.911A5.041,5.041,0,0,1,4.4,17.5Zm4.548-6.475a.684.684,0,0,0-.256-.932A3.026,3.026,0,0,1,7.9,9.6C6.645,8.351,6.782,6.464,8.23,5.016l2.457-2.457c1.449-1.449,3.335-1.585,4.588-.333s1.116,3.139-.334,4.589l-1.789,1.8a.684.684,0,1,0,.969.965l1.788-1.8A5.041,5.041,0,0,0,17.5,4.406a4.193,4.193,0,0,0-1.254-3.147A4.194,4.194,0,0,0,13.1,0,5.041,5.041,0,0,0,9.72,1.592L7.263,4.049A5.041,5.041,0,0,0,5.676,7.424,4.193,4.193,0,0,0,6.931,10.57a4.394,4.394,0,0,0,.93.712.683.683,0,0,0,.932-.256Z" transform="translate(0.001 -0.002)" fill="#fff"/>
</svg>
