<svg id="logout" xmlns="http://www.w3.org/2000/svg" width="11.674" height="11.636" viewBox="0 0 11.674 11.636">
  <g id="グループ_68909" data-name="グループ 68909" transform="translate(0 0)">
    <g id="グループ_68908" data-name="グループ 68908">
      <path id="パス_59320" data-name="パス 59320" d="M5.818,11.516H1.454a.485.485,0,0,1-.485-.485V2.3a.485.485,0,0,1,.485-.485H5.818a.485.485,0,0,0,0-.97H1.454A1.456,1.456,0,0,0,0,2.3v8.727a1.456,1.456,0,0,0,1.454,1.454H5.818a.485.485,0,0,0,0-.97Z" transform="translate(0 -0.85)" fill="#fff"/>
    </g>
  </g>
  <g id="グループ_68911" data-name="グループ 68911" transform="translate(3.879 2.424)">
    <g id="グループ_68910" data-name="グループ 68910">
      <path id="パス_59321" data-name="パス 59321" d="M177.751,110.213,174.8,107.3a.485.485,0,1,0-.681.69l2.107,2.079h-5.645a.485.485,0,0,0,0,.97h5.645l-2.107,2.079a.485.485,0,1,0,.681.69l2.948-2.909a.485.485,0,0,0,0-.69Z" transform="translate(-170.1 -107.165)" fill="#fff"/>
    </g>
  </g>
</svg>
