<svg xmlns="http://www.w3.org/2000/svg" width="471.267" height="67" viewBox="0 0 471.267 67">
  <g id="グループ_4981" data-name="グループ 4981" transform="translate(-2753.733 19)">
    <path id="noun_Olympic_Track_1339056_1_" data-name="noun_Olympic Track_1339056 (1)" d="M533.382,651H552.97a29.382,29.382,0,1,1,0,58.764H533.382a29.382,29.382,0,1,1,0-58.764Zm0,6.529a22.853,22.853,0,0,0,0,45.706H552.97a22.853,22.853,0,1,0,0-45.706Zm19.588,6.53a16.323,16.323,0,1,1,0,32.647H533.382a16.323,16.323,0,0,1,0-32.647Zm-29.382,16.323a9.794,9.794,0,0,0,9.794,9.794H552.97a9.794,9.794,0,1,0,0-19.588H533.382A9.794,9.794,0,0,0,523.588,680.382Z" transform="translate(2249.733 -664.343)" fill="#fff" fill-rule="evenodd"/>
    <text id="Web3_Payment" data-name="Web3 Payment" transform="translate(2856 31)" fill="#fff" font-size="48" font-family="Poppins-Medium, Poppins" font-weight="500"><tspan x="0" y="0">Web3 Payment</tspan></text>
  </g>
</svg>
