<svg xmlns="http://www.w3.org/2000/svg" xmlns:xlink="http://www.w3.org/1999/xlink" width="38" height="38" viewBox="0 0 38 38">
  <defs>
    <clipPath id="clip-path">
      <rect id="長方形_2581" data-name="長方形 2581" width="38" height="38" transform="translate(799 270)" fill="#fff"/>
    </clipPath>
  </defs>
  <g id="マスクグループ_3" data-name="マスクグループ 3" transform="translate(-799 -270)" clip-path="url(#clip-path)">
    <g id="metamask-fox" transform="translate(800 272.6)">
      <path id="パス_1773" data-name="パス 1773" d="M188.658,35.5,174.6,45.941l2.6-6.16Z" transform="translate(-154.452 -35.5)" fill="#e2761b" stroke="#e2761b" stroke-linecap="round" stroke-linejoin="round" stroke-width="1"/>
      <g id="グループ_4937" data-name="グループ 4937" transform="translate(0.297)">
        <path id="パス_1774" data-name="パス 1774" d="M44.4,35.5,58.345,46.04l-2.472-6.259Z" transform="translate(-42.917 -35.5)" fill="#e4761b" stroke="#e4761b" stroke-linecap="round" stroke-linejoin="round" stroke-width="1"/>
        <path id="パス_1775" data-name="パス 1775" d="M215.544,206.8l-3.744,5.736,8.011,2.2,2.3-7.813Z" transform="translate(-186.693 -182.598)" fill="#e4761b" stroke="#e4761b" stroke-linecap="round" stroke-linejoin="round" stroke-width="1"/>
        <path id="パス_1776" data-name="パス 1776" d="M33.9,206.927l2.289,7.813,8.011-2.2L40.456,206.8Z" transform="translate(-33.9 -182.598)" fill="#e4761b" stroke="#e4761b" stroke-linecap="round" stroke-linejoin="round" stroke-width="1"/>
        <path id="パス_1777" data-name="パス 1777" d="M90.032,108.918,87.8,112.295l7.954.353-.283-8.548Z" transform="translate(-80.192 -94.408)" fill="#e4761b" stroke="#e4761b" stroke-linecap="round" stroke-linejoin="round" stroke-width="1"/>
        <path id="パス_1778" data-name="パス 1778" d="M180.294,108.317l-5.51-4.917-.184,8.647,7.94-.353Z" transform="translate(-154.741 -93.807)" fill="#e4761b" stroke="#e4761b" stroke-linecap="round" stroke-linejoin="round" stroke-width="1"/>
        <path id="パス_1779" data-name="パス 1779" d="M106.8,213.652l4.775-2.331L107.45,208.1Z" transform="translate(-96.51 -183.714)" fill="#e4761b" stroke="#e4761b" stroke-linecap="round" stroke-linejoin="round" stroke-width="1"/>
        <path id="パス_1780" data-name="パス 1780" d="M177.9,211.321l4.79,2.331-.664-5.552Z" transform="translate(-157.573 -183.714)" fill="#e4761b" stroke="#e4761b" stroke-linecap="round" stroke-linejoin="round" stroke-width="1"/>
      </g>
      <g id="グループ_4938" data-name="グループ 4938" transform="translate(10.583 27.607)">
        <path id="パス_1781" data-name="パス 1781" d="M182.69,233.231,177.9,230.9l.381,3.122-.042,1.314Z" transform="translate(-167.855 -230.9)" fill="#d7c1b3" stroke="#d7c1b3" stroke-linecap="round" stroke-linejoin="round" stroke-width="1"/>
        <path id="パス_1782" data-name="パス 1782" d="M106.8,233.231l4.45,2.105-.028-1.314.353-3.122Z" transform="translate(-106.8 -230.9)" fill="#d7c1b3" stroke="#d7c1b3" stroke-linecap="round" stroke-linejoin="round" stroke-width="1"/>
      </g>
      <path id="パス_1783" data-name="パス 1783" d="M114.584,178.558l-3.984-1.173,2.812-1.286Z" transform="translate(-99.476 -156.235)" fill="#233447" stroke="#233447" stroke-linecap="round" stroke-linejoin="round" stroke-width="1"/>
      <path id="パス_1784" data-name="パス 1784" d="M179.7,178.558l1.173-2.458,2.826,1.286Z" transform="translate(-158.822 -156.235)" fill="#233447" stroke="#233447" stroke-linecap="round" stroke-linejoin="round" stroke-width="1"/>
      <g id="グループ_4939" data-name="グループ 4939" transform="translate(6.839 17.887)">
        <path id="パス_1785" data-name="パス 1785" d="M84.044,212.536l.678-5.736-4.422.127Z" transform="translate(-80.3 -200.485)" fill="#cd6116" stroke="#cd6116" stroke-linecap="round" stroke-linejoin="round" stroke-width="1"/>
        <path id="パス_1786" data-name="パス 1786" d="M207,206.8l.678,5.736,3.744-5.609Z" transform="translate(-189.099 -200.485)" fill="#cd6116" stroke="#cd6116" stroke-linecap="round" stroke-linejoin="round" stroke-width="1"/>
        <path id="パス_1787" data-name="パス 1787" d="M182.54,162.1l-7.94.353.735,4.083,1.173-2.458,2.826,1.286Z" transform="translate(-161.277 -162.1)" fill="#cd6116" stroke="#cd6116" stroke-linecap="round" stroke-linejoin="round" stroke-width="1"/>
        <path id="パス_1788" data-name="パス 1788" d="M91.021,165.364l2.826-1.286,1.159,2.458.749-4.083L87.8,162.1Z" transform="translate(-86.74 -162.1)" fill="#cd6116" stroke="#cd6116" stroke-linecap="round" stroke-linejoin="round" stroke-width="1"/>
      </g>
      <g id="グループ_4940" data-name="グループ 4940" transform="translate(7.898 17.887)">
        <path id="パス_1789" data-name="パス 1789" d="M87.8,162.1l3.334,6.5-.113-3.235Z" transform="translate(-87.8 -162.1)" fill="#e4751f" stroke="#e4751f" stroke-linecap="round" stroke-linejoin="round" stroke-width="1"/>
        <path id="パス_1790" data-name="パス 1790" d="M207.241,165.364,207.1,168.6l3.348-6.5Z" transform="translate(-190.245 -162.1)" fill="#e4751f" stroke="#e4751f" stroke-linecap="round" stroke-linejoin="round" stroke-width="1"/>
        <path id="パス_1791" data-name="パス 1791" d="M139.549,164.6l-.749,4.083.932,4.818.212-6.344Z" transform="translate(-131.594 -164.247)" fill="#e4751f" stroke="#e4751f" stroke-linecap="round" stroke-linejoin="round" stroke-width="1"/>
        <path id="パス_1792" data-name="パス 1792" d="M172.281,164.6l-.381,2.543.17,6.358.947-4.818Z" transform="translate(-160.018 -164.247)" fill="#e4751f" stroke="#e4751f" stroke-linecap="round" stroke-linejoin="round" stroke-width="1"/>
      </g>
      <path id="パス_1793" data-name="パス 1793" d="M174.047,186.373l-.947,4.818.678.466,4.126-3.221.141-3.235Z" transform="translate(-153.154 -164.05)" fill="#f6851b" stroke="#f6851b" stroke-linecap="round" stroke-linejoin="round" stroke-width="1"/>
      <path id="パス_1794" data-name="パス 1794" d="M110.6,185.2l.113,3.235,4.126,3.221.678-.466-.932-4.818Z" transform="translate(-99.477 -164.05)" fill="#f6851b" stroke="#f6851b" stroke-linecap="round" stroke-linejoin="round" stroke-width="1"/>
      <path id="パス_1795" data-name="パス 1795" d="M117.184,249.505l.042-1.314-.353-.311h-5.326l-.325.311.028,1.314L106.8,247.4l1.554,1.272,3.151,2.19h5.411l3.165-2.19,1.554-1.272Z" transform="translate(-96.217 -217.462)" fill="#c0ad9e" stroke="#c0ad9e" stroke-linecap="round" stroke-linejoin="round" stroke-width="1"/>
      <path id="パス_1796" data-name="パス 1796" d="M143.723,228.066l-.678-.466h-3.914l-.678.466-.353,3.122.325-.311h5.326l.353.311Z" transform="translate(-123.095 -200.459)" fill="#161616" stroke="#161616" stroke-linecap="round" stroke-linejoin="round" stroke-width="1"/>
      <g id="グループ_4941" data-name="グループ 4941">
        <path id="パス_1797" data-name="パス 1797" d="M192.085,46.619l1.2-5.764L191.492,35.5,177.9,45.588l5.228,4.422,7.389,2.162,1.639-1.907-.706-.509,1.13-1.031-.876-.678,1.13-.862Z" transform="translate(-157.286 -35.5)" fill="#763d16" stroke="#763d16" stroke-linecap="round" stroke-linejoin="round" stroke-width="1"/>
        <path id="パス_1798" data-name="パス 1798" d="M31.8,40.855,33,46.619l-.763.565,1.13.862-.862.678,1.13,1.031-.706.509,1.625,1.907,7.389-2.162,5.228-4.422L33.58,35.5Z" transform="translate(-31.8 -35.5)" fill="#763d16" stroke="#763d16" stroke-linecap="round" stroke-linejoin="round" stroke-width="1"/>
      </g>
      <path id="パス_1799" data-name="パス 1799" d="M215.591,140.362,208.2,138.2l2.246,3.377-3.348,6.5,4.408-.057h6.57Z" transform="translate(-182.36 -123.69)" fill="#f6851b" stroke="#f6851b" stroke-linecap="round" stroke-linejoin="round" stroke-width="1"/>
      <path id="パス_1800" data-name="パス 1800" d="M43.748,138.2l-7.389,2.162L33.9,148.019h6.556l4.394.057-3.334-6.5Z" transform="translate(-33.603 -123.69)" fill="#f6851b" stroke="#f6851b" stroke-linecap="round" stroke-linejoin="round" stroke-width="1"/>
      <path id="パス_1801" data-name="パス 1801" d="M132.523,79.759l.466-8.152,2.148-5.807H125.6l2.119,5.807.494,8.152.17,2.571.014,6.33h3.914l.028-6.33Z" transform="translate(-112.361 -61.519)" fill="#f6851b" stroke="#f6851b" stroke-linecap="round" stroke-linejoin="round" stroke-width="1"/>
    </g>
  </g>
</svg>
