<svg xmlns="http://www.w3.org/2000/svg" xmlns:xlink="http://www.w3.org/1999/xlink" width="64" height="64" viewBox="0 0 64 64">
  <defs>
    <linearGradient id="linear-gradient" x1="0.5" x2="0.5" y2="1" gradientUnits="objectBoundingBox">
      <stop offset="0" stop-color="#1d4c65"/>
      <stop offset="1" stop-color="#431769"/>
    </linearGradient>
    <clipPath id="clip-path">
      <rect id="長方形_2580" data-name="長方形 2580" width="64" height="64" transform="translate(296 261)" fill="#fff"/>
    </clipPath>
    <filter id="globe_1_" x="-9.5" y="-9.696" width="82.613" height="82.613" filterUnits="userSpaceOnUse">
      <feOffset input="SourceAlpha"/>
      <feGaussianBlur stdDeviation="7.5" result="blur"/>
      <feFlood flood-color="#fff"/>
      <feComposite operator="in" in2="blur"/>
      <feComposite in="SourceGraphic"/>
    </filter>
  </defs>
  <g id="none" transform="translate(-296 -261)">
    <rect id="長方形_2334" data-name="長方形 2334" width="64" height="64" transform="translate(296 261)" fill="url(#linear-gradient)"/>
    <g id="マスクグループ_2" data-name="マスクグループ 2" clip-path="url(#clip-path)">
      <g transform="matrix(1, 0, 0, 1, 296, 261)" filter="url(#globe_1_)">
        <path id="globe_1_2" data-name="globe (1)" d="M32.1,5.511a18.8,18.8,0,1,0,0,26.591A18.792,18.792,0,0,0,32.1,5.511Zm-.786,23.91a18.847,18.847,0,0,0-2.809-2.08A30.409,30.409,0,0,0,29.642,20H35.17A16.257,16.257,0,0,1,31.316,29.421ZM2.444,20H7.972a30.409,30.409,0,0,0,1.134,7.337A18.847,18.847,0,0,0,6.3,29.421,16.258,16.258,0,0,1,2.444,20ZM6.3,8.191a18.847,18.847,0,0,0,2.809,2.08,30.409,30.409,0,0,0-1.134,7.337H2.444A16.258,16.258,0,0,1,6.3,8.191Zm11.311,2.328A16.279,16.279,0,0,1,12.023,9.1c1.016-2.616,2.889-5.754,5.585-6.531Zm0,2.4v4.688H10.369a28.231,28.231,0,0,1,.909-6.212A18.676,18.676,0,0,0,17.609,12.919Zm0,7.085v4.688a18.676,18.676,0,0,0-6.331,1.524A28.231,28.231,0,0,1,10.369,20Zm0,7.089V35.04c-2.7-.778-4.569-3.915-5.585-6.531A16.279,16.279,0,0,1,17.609,27.094Zm2.4,0a16.279,16.279,0,0,1,5.585,1.415C24.574,31.125,22.7,34.262,20,35.04Zm0-2.4V20h7.239a28.231,28.231,0,0,1-.909,6.212A18.676,18.676,0,0,0,20,24.693Zm0-7.085V12.919A18.677,18.677,0,0,0,26.336,11.4a28.231,28.231,0,0,1,.909,6.212Zm0-7.089V2.572c2.7.778,4.569,3.915,5.585,6.531A16.28,16.28,0,0,1,20,10.519Zm5.382-6.75a16.334,16.334,0,0,1,4.247,2.712,16.469,16.469,0,0,1-1.928,1.463,18.04,18.04,0,0,0-2.32-4.175ZM9.907,7.944A16.475,16.475,0,0,1,7.979,6.481a16.334,16.334,0,0,1,4.247-2.712,18.046,18.046,0,0,0-2.32,4.175Zm0,21.724a18.041,18.041,0,0,0,2.32,4.175,16.334,16.334,0,0,1-4.247-2.712A16.468,16.468,0,0,1,9.907,29.668Zm17.8,0a16.476,16.476,0,0,1,1.928,1.463,16.334,16.334,0,0,1-4.247,2.712A18.039,18.039,0,0,0,27.707,29.668Zm1.935-12.06a30.408,30.408,0,0,0-1.134-7.337,18.851,18.851,0,0,0,2.809-2.08,16.258,16.258,0,0,1,3.853,9.417Z" transform="translate(13 12.8)" fill="#fff"/>
      </g>
    </g>
  </g>
</svg>
