<svg xmlns="http://www.w3.org/2000/svg" width="18.192" height="21.274" viewBox="0 0 18.192 21.274">
  <g id="reuse" transform="translate(-37.087)">
    <g id="グループ_69114" data-name="グループ 69114" transform="translate(46.183 5.047)">
      <g id="グループ_69113" data-name="グループ 69113">
        <g id="グループ_69112" data-name="グループ 69112">
          <path id="パス_59522" data-name="パス 59522" d="M261.094,121.951l-.025.025a1.705,1.705,0,0,0-.235,2.1A5.67,5.67,0,0,1,256,132.716v3.424a9.1,9.1,0,0,0,7.736-13.883A1.7,1.7,0,0,0,261.094,121.951Z" transform="translate(-256 -121.454)" fill="#92dd7a"/>
        </g>
      </g>
    </g>
    <g id="グループ_69117" data-name="グループ 69117" transform="translate(46.183 14.645)">
      <g id="グループ_69116" data-name="グループ 69116" transform="translate(0)">
        <g id="グループ_69115" data-name="グループ 69115">
          <path id="パス_59523" data-name="パス 59523" d="M262.432,354.884a1.712,1.712,0,0,1-2.421-2.421v0A5.654,5.654,0,0,1,256,354.124v3.424A9.067,9.067,0,0,0,262.432,354.884Z" transform="translate(-256 -352.46)" fill="#7ec66a"/>
        </g>
      </g>
    </g>
    <g id="グループ_69120" data-name="グループ 69120" transform="translate(37.087 1.541)">
      <g id="グループ_69119" data-name="グループ 69119" transform="translate(0)">
        <g id="グループ_69118" data-name="グループ 69118">
          <path id="パス_59524" data-name="パス 59524" d="M41.114,51.252a1.705,1.705,0,0,0,.235-2.1,5.67,5.67,0,0,1,4.834-8.636V37.087A9.1,9.1,0,0,0,38.447,50.97a1.7,1.7,0,0,0,2.643.307Z" transform="translate(-37.087 -37.087)" fill="#92dd7a"/>
        </g>
      </g>
    </g>
    <g id="グループ_69123" data-name="グループ 69123" transform="translate(39.751 1.541)">
      <g id="グループ_69122" data-name="グループ 69122" transform="translate(0)">
        <g id="グループ_69121" data-name="グループ 69121">
          <path id="パス_59525" data-name="パス 59525" d="M101.205,39.751a1.712,1.712,0,0,1,2.421,2.421l0,0a5.654,5.654,0,0,1,4.008-1.663V37.087A9.067,9.067,0,0,0,101.205,39.751Z" transform="translate(-101.205 -37.087)" fill="#7ec66a"/>
        </g>
      </g>
    </g>
    <g id="グループ_69126" data-name="グループ 69126" transform="translate(44.85 0.007)">
      <g id="グループ_69125" data-name="グループ 69125" transform="translate(0)">
        <g id="グループ_69124" data-name="グループ 69124">
          <path id="パス_59526" data-name="パス 59526" d="M225.287.335l3.273,2.418a.856.856,0,0,1,0,1.377l-3.273,2.418a.856.856,0,0,1-1.365-.689V1.024a.856.856,0,0,1,1.365-.689Z" transform="translate(-223.922 -0.166)" fill="#b1ef97"/>
        </g>
      </g>
    </g>
    <g id="グループ_69129" data-name="グループ 69129" transform="translate(44.85 0)">
      <g id="グループ_69128" data-name="グループ 69128" transform="translate(0 0)">
        <g id="グループ_69127" data-name="グループ 69127">
          <path id="パス_59527" data-name="パス 59527" d="M228.56,2.588,225.287.169a.856.856,0,0,0-1.365.689V5.124A3.07,3.07,0,0,1,228.56,2.588Z" transform="translate(-223.922 0)" fill="#92dd7a"/>
        </g>
      </g>
    </g>
    <g id="グループ_69132" data-name="グループ 69132" transform="translate(42.53 14.715)">
      <g id="グループ_69131" data-name="グループ 69131" transform="translate(0)">
        <g id="グループ_69130" data-name="グループ 69130">
          <path id="パス_59528" data-name="パス 59528" d="M171.709,360.526l-3.274-2.418a.856.856,0,0,1,0-1.377l3.274-2.418a.856.856,0,0,1,1.365.689v4.837A.856.856,0,0,1,171.709,360.526Z" transform="translate(-168.088 -354.143)" fill="#b1ef97"/>
        </g>
      </g>
    </g>
    <g id="グループ_69135" data-name="グループ 69135" transform="translate(42.878 16.15)">
      <g id="グループ_69134" data-name="グループ 69134" transform="translate(0)">
        <g id="グループ_69133" data-name="グループ 69133">
          <path id="パス_59529" data-name="パス 59529" d="M176.448,391.226l3.274,2.418a.856.856,0,0,0,1.365-.689V388.69A3.07,3.07,0,0,1,176.448,391.226Z" transform="translate(-176.448 -388.69)" fill="#92dd7a"/>
        </g>
      </g>
    </g>
  </g>
</svg>
