<svg xmlns="http://www.w3.org/2000/svg" width="9.932" height="17" viewBox="0 0 9.932 17">
  <g id="right-arrow-angle" transform="translate(174.585 17) rotate(180)">
    <g id="_x38_" transform="translate(164.654)">
      <g id="グループ_4969" data-name="グループ 4969">
        <path id="パス_1826" data-name="パス 1826" d="M174.381,7.961,165.874.208a.718.718,0,0,0-1.011,0,.709.709,0,0,0,0,1.006L172.857,8.5l-7.993,7.286a.709.709,0,0,0,0,1.006.718.718,0,0,0,1.011,0l8.507-7.753a.7.7,0,0,0,.2-.538A.707.707,0,0,0,174.381,7.961Z" transform="translate(-164.653 0)" fill="#fff"/>
      </g>
    </g>
  </g>
</svg>
