<svg id="グループ_4996" data-name="グループ 4996" xmlns="http://www.w3.org/2000/svg" xmlns:xlink="http://www.w3.org/1999/xlink" width="28" height="28" viewBox="0 0 28 28">
  <defs>
    <linearGradient id="linear-gradient" x1="0.5" x2="0.5" y2="1" gradientUnits="objectBoundingBox">
      <stop offset="0" stop-color="#1d4c65"/>
      <stop offset="1" stop-color="#431769"/>
    </linearGradient>
    <clipPath id="clip-path">
      <rect id="長方形_2579" data-name="長方形 2579" width="28" height="28" fill="#fff"/>
    </clipPath>
    <filter id="globe_1_" x="-16.741" y="-16.736" width="61.662" height="61.662" filterUnits="userSpaceOnUse">
      <feOffset input="SourceAlpha"/>
      <feGaussianBlur stdDeviation="7.5" result="blur"/>
      <feFlood flood-color="#fff"/>
      <feComposite operator="in" in2="blur"/>
      <feComposite in="SourceGraphic"/>
    </filter>
  </defs>
  <rect id="長方形_2334" data-name="長方形 2334" width="28" height="28" rx="5" fill="url(#linear-gradient)"/>
  <g id="マスクグループ_1" data-name="マスクグループ 1" clip-path="url(#clip-path)">
    <g transform="matrix(1, 0, 0, 1, 0, 0)" filter="url(#globe_1_)">
      <path id="globe_1_2" data-name="globe (1)" d="M14.221,2.441a8.329,8.329,0,1,0,0,11.779A8.325,8.325,0,0,0,14.221,2.441Zm-.348,10.592a8.349,8.349,0,0,0-1.244-.921,13.471,13.471,0,0,0,.5-3.25H15.58A7.2,7.2,0,0,1,13.873,13.033ZM1.083,8.861H3.531a13.471,13.471,0,0,0,.5,3.25,8.349,8.349,0,0,0-1.244.921A7.2,7.2,0,0,1,1.083,8.861ZM2.79,3.628a8.349,8.349,0,0,0,1.244.921,13.471,13.471,0,0,0-.5,3.25H1.083A7.2,7.2,0,0,1,2.79,3.628ZM7.8,4.659a7.211,7.211,0,0,1-2.474-.627c.45-1.159,1.28-2.549,2.474-2.893Zm0,1.064V7.8H4.593A12.506,12.506,0,0,1,5,5.048,8.273,8.273,0,0,0,7.8,5.723Zm0,3.139v2.077a8.273,8.273,0,0,0-2.8.675,12.506,12.506,0,0,1-.4-2.752ZM7.8,12v3.52c-1.194-.344-2.024-1.734-2.474-2.893A7.211,7.211,0,0,1,7.8,12Zm1.062,0a7.211,7.211,0,0,1,2.474.627c-.45,1.159-1.28,2.549-2.474,2.893V12Zm0-1.064V8.861h3.207a12.506,12.506,0,0,1-.4,2.752,8.274,8.274,0,0,0-2.8-.675Zm0-3.139V5.723a8.274,8.274,0,0,0,2.8-.675,12.506,12.506,0,0,1,.4,2.752Zm0-3.141V1.139c1.194.344,2.024,1.734,2.474,2.893A7.212,7.212,0,0,1,8.862,4.659Zm2.384-2.99a7.236,7.236,0,0,1,1.882,1.2,7.3,7.3,0,0,1-.854.648,7.991,7.991,0,0,0-1.028-1.85ZM4.389,3.519a7.3,7.3,0,0,1-.854-.648,7.236,7.236,0,0,1,1.882-1.2,7.994,7.994,0,0,0-1.028,1.85Zm0,9.624a7.992,7.992,0,0,0,1.028,1.85,7.236,7.236,0,0,1-1.882-1.2A7.3,7.3,0,0,1,4.389,13.142Zm7.885,0a7.3,7.3,0,0,1,.854.648,7.236,7.236,0,0,1-1.882,1.2A7.991,7.991,0,0,0,12.274,13.142ZM13.131,7.8a13.47,13.47,0,0,0-.5-3.25,8.351,8.351,0,0,0,1.244-.921A7.2,7.2,0,0,1,15.58,7.8Z" transform="translate(5.76 5.76)" fill="#fff"/>
    </g>
  </g>
</svg>
