<svg xmlns="http://www.w3.org/2000/svg" xmlns:xlink="http://www.w3.org/1999/xlink" width="38" height="38" viewBox="0 0 38 38">
  <defs>
    <clipPath id="clip-path">
      <rect id="長方形_2582" data-name="長方形 2582" width="38" height="38" transform="translate(-0.134 -5.314)" fill="#fff"/>
    </clipPath>
  </defs>
  <g id="マスクグループ_4" data-name="マスクグループ 4" transform="translate(0.134 5.314)" clip-path="url(#clip-path)">
    <path id="WalletConnect" d="M7.735,4.843a15.94,15.94,0,0,1,22.205,0l.738.723a.757.757,0,0,1,0,1.087L28.154,9.124a.4.4,0,0,1-.555,0L26.583,8.13a11.12,11.12,0,0,0-15.491,0L10,9.194a.4.4,0,0,1-.555,0L6.925,6.723a.757.757,0,0,1,0-1.087ZM35.161,9.954l2.247,2.2a.757.757,0,0,1,0,1.087L27.277,23.16a.8.8,0,0,1-1.11,0h0l-7.19-7.04a.2.2,0,0,0-.278,0h0l-7.19,7.04a.8.8,0,0,1-1.11,0h0L.268,13.241a.757.757,0,0,1,0-1.087l2.247-2.2a.8.8,0,0,1,1.11,0l7.19,7.04a.2.2,0,0,0,.278,0h0l7.19-7.04a.8.8,0,0,1,1.11,0h0l7.19,7.04a.2.2,0,0,0,.278,0l7.19-7.04A.8.8,0,0,1,35.161,9.954Z" transform="translate(0.028 2.205)" fill="#3b99fc"/>
  </g>
</svg>
