<svg xmlns="http://www.w3.org/2000/svg" width="19" height="16.236" viewBox="0 0 19 16.236">
  <g id="グループ_4995" data-name="グループ 4995" transform="translate(-2798.445 2539)">
    <g id="exclamation" transform="translate(2798.445 -2559.591)">
      <path id="パス_1827" data-name="パス 1827" d="M18.847,35.49,10.276,21.075a.863.863,0,0,0-1.551,0L.153,35.49A.893.893,0,0,0,.1,36.4a.893.893,0,0,0,.811.424H18.086a.845.845,0,0,0,.761-1.337Zm-17.719.331L9.5,21.74l8.372,14.081Z" transform="translate(0)" fill="#fff"/>
      <path id="パス_1828" data-name="パス 1828" d="M131.57,98.932V103.3a.918.918,0,0,0,1.774,0V98.932a.918.918,0,0,0-1.774,0Z" transform="translate(-122.957 -72.34)" fill="#fff"/>
      <path id="パス_1829" data-name="パス 1829" d="M132.457,196.885a.887.887,0,0,0-.887.887v.446a.887.887,0,0,0,1.774,0v-.446A.887.887,0,0,0,132.457,196.885Z" transform="translate(-122.957 -163.903)" fill="#fff"/>
    </g>
  </g>
</svg>
