<svg xmlns="http://www.w3.org/2000/svg" width="50" height="50" viewBox="0 0 50 50">
  <g id="グループ_67292" data-name="グループ 67292" transform="translate(-1214 -4283)">
    <g id="グループ_67291" data-name="グループ 67291" transform="translate(1214 4283)">
      <circle id="楕円形_12" data-name="楕円形 12" cx="25" cy="25" r="25" fill="#8247e5"/>
    </g>
    <g id="polygon-matic-logo_2_" data-name="polygon-matic-logo (2)" transform="translate(1222.414 4293.406)">
      <path id="パス_2193" data-name="パス 2193" d="M25.117,8.821a2.207,2.207,0,0,0-2.079,0l-4.85,2.858L14.9,13.5l-4.764,2.858a2.207,2.207,0,0,1-2.079,0L4.331,14.1a2.111,2.111,0,0,1-1.039-1.819V7.955A2.136,2.136,0,0,1,4.331,6.136L8.055,3.971a2.207,2.207,0,0,1,2.079,0l3.724,2.252A2.111,2.111,0,0,1,14.9,8.041V10.9l3.291-1.905V6.049a2.136,2.136,0,0,0-1.039-1.819L10.22.16a2.207,2.207,0,0,0-2.079,0l-7.1,4.157A1.905,1.905,0,0,0,0,6.049v8.141A2.136,2.136,0,0,0,1.039,16.01L8.055,20.08a2.207,2.207,0,0,0,2.079,0L14.9,17.309,18.188,15.4l4.764-2.772a2.207,2.207,0,0,1,2.079,0L28.755,14.8a2.111,2.111,0,0,1,1.039,1.819v4.331a2.136,2.136,0,0,1-1.039,1.819l-3.638,2.165a2.207,2.207,0,0,1-2.079,0l-3.724-2.165a2.111,2.111,0,0,1-1.039-1.819V18.175L14.984,20.08v2.858a2.136,2.136,0,0,0,1.039,1.819l7.016,4.071a2.207,2.207,0,0,0,2.079,0l7.016-4.071a2.111,2.111,0,0,0,1.039-1.819V14.711a2.136,2.136,0,0,0-1.039-1.819Z" transform="translate(0 0.1)" fill="#fff"/>
    </g>
  </g>
</svg>
