<svg xmlns="http://www.w3.org/2000/svg" xmlns:xlink="http://www.w3.org/1999/xlink" width="200" height="200" viewBox="0 0 200 200"><defs><clipPath id="b"><rect width="200" height="200"/></clipPath></defs><g id="a" clip-path="url(#b)"><path d="M176.837,89.168A88.169,88.169,0,1,1,88.669,1,88.168,88.168,0,0,1,176.837,89.168ZM63.684,124.254H46.573c-3.6,0-5.372,0-6.454-.693a4.349,4.349,0,0,1-1.971-3.4c-.065-1.277.823-2.837,2.6-5.956L83,39.735c1.8-3.162,2.707-4.743,3.855-5.328a4.359,4.359,0,0,1,3.942,0c1.148.585,2.058,2.166,3.855,5.328L103.334,54.9l.044.077c1.942,3.393,2.926,5.113,3.356,6.919a12.863,12.863,0,0,1,0,6.021c-.433,1.819-1.408,3.552-3.379,7l-22.193,39.23-.057.1c-1.955,3.42-2.945,5.154-4.318,6.462a12.918,12.918,0,0,1-5.263,3.055C69.727,124.254,67.713,124.254,63.684,124.254Zm43.211,0h24.518c3.617,0,5.437,0,6.52-.714a4.334,4.334,0,0,0,1.971-3.422c.062-1.236-.807-2.735-2.509-5.673-.059-.1-.117-.2-.177-.305L124.937,93.13l-.14-.237c-1.726-2.918-2.6-4.392-3.716-4.962a4.313,4.313,0,0,0-3.92,0c-1.126.585-2.036,2.123-3.834,5.22l-12.238,21.01-.042.072c-1.791,3.092-2.687,4.638-2.622,5.906a4.387,4.387,0,0,0,1.971,3.422C101.459,124.254,103.278,124.254,106.9,124.254Z" transform="translate(11.499 11)" fill="#e84142" fill-rule="evenodd"/></g></svg>