<svg xmlns="http://www.w3.org/2000/svg" xmlns:xlink="http://www.w3.org/1999/xlink" width="200" height="200" viewBox="0 0 200 200"><defs><clipPath id="b"><rect width="200" height="200"/></clipPath></defs><g id="a" clip-path="url(#b)"><g transform="translate(24.017 29.578)"><path d="M233.552,35.5,174.6,79.284l10.9-25.832Z" transform="translate(-89.993 -35.5)" fill="#e2761b" stroke="#e2761b" stroke-linecap="round" stroke-linejoin="round" stroke-width="1"/><g transform="translate(1.244 0)"><path d="M44.4,35.5l58.478,44.2L92.51,53.452Z" transform="translate(-38.179 -35.5)" fill="#e4761b" stroke="#e4761b" stroke-linecap="round" stroke-linejoin="round" stroke-width="1"/><path d="M227.5,206.8l-15.7,24.055,33.594,9.243,9.657-32.764Z" transform="translate(-106.397 -105.308)" fill="#e4761b" stroke="#e4761b" stroke-linecap="round" stroke-linejoin="round" stroke-width="1"/><path d="M33.9,207.333,43.5,240.1l33.594-9.243L61.391,206.8Z" transform="translate(-33.9 -105.308)" fill="#e4761b" stroke="#e4761b" stroke-linecap="round" stroke-linejoin="round" stroke-width="1"/><path d="M97.161,124.3,87.8,138.464l33.357,1.481L119.972,104.1Z" transform="translate(-55.865 -63.456)" fill="#e4761b" stroke="#e4761b" stroke-linecap="round" stroke-linejoin="round" stroke-width="1"/><path d="M198.477,124.018,175.37,103.4l-.77,36.26,33.3-1.481Z" transform="translate(-91.238 -63.17)" fill="#e4761b" stroke="#e4761b" stroke-linecap="round" stroke-linejoin="round" stroke-width="1"/><path d="M106.8,231.385l20.026-9.776-17.3-13.509Z" transform="translate(-63.608 -105.838)" fill="#e4761b" stroke="#e4761b" stroke-linecap="round" stroke-linejoin="round" stroke-width="1"/><path d="M177.9,221.609l20.085,9.776L195.2,208.1Z" transform="translate(-92.582 -105.838)" fill="#e4761b" stroke="#e4761b" stroke-linecap="round" stroke-linejoin="round" stroke-width="1"/></g><g transform="translate(44.436 115.771)"><path d="M197.985,240.676,177.9,230.9l1.6,13.094-.178,5.51Z" transform="translate(-135.774 -230.9)" fill="#d7c1b3" stroke="#d7c1b3" stroke-linecap="round" stroke-linejoin="round" stroke-width="1"/><path d="M106.8,240.676l18.663,8.828-.119-5.51,1.481-13.094Z" transform="translate(-106.8 -230.9)" fill="#d7c1b3" stroke="#d7c1b3" stroke-linecap="round" stroke-linejoin="round" stroke-width="1"/></g><path d="M127.308,186.409,110.6,181.492l11.79-5.392Z" transform="translate(-63.912 -92.797)" fill="#233447" stroke="#233447" stroke-linecap="round" stroke-linejoin="round" stroke-width="1"/><path d="M179.7,186.409l4.918-10.309,11.85,5.392Z" transform="translate(-92.072 -92.797)" fill="#233447" stroke="#233447" stroke-linecap="round" stroke-linejoin="round" stroke-width="1"/><g transform="translate(28.735 75.008)"><path d="M96,230.855,98.845,206.8l-18.545.533Z" transform="translate(-80.3 -180.316)" fill="#cd6116" stroke="#cd6116" stroke-linecap="round" stroke-linejoin="round" stroke-width="1"/><path d="M207,206.8l2.844,24.055,15.7-23.521Z" transform="translate(-131.932 -180.316)" fill="#cd6116" stroke="#cd6116" stroke-linecap="round" stroke-linejoin="round" stroke-width="1"/><path d="M207.9,162.1l-33.3,1.481,3.081,17.123,4.918-10.309,11.85,5.392Z" transform="translate(-118.729 -162.1)" fill="#cd6116" stroke="#cd6116" stroke-linecap="round" stroke-linejoin="round" stroke-width="1"/><path d="M101.309,175.786l11.85-5.392,4.858,10.309,3.14-17.123L87.8,162.1Z" transform="translate(-83.356 -162.1)" fill="#cd6116" stroke="#cd6116" stroke-linecap="round" stroke-linejoin="round" stroke-width="1"/></g><g transform="translate(33.179 75.008)"><path d="M87.8,162.1l13.983,27.254-.474-13.568Z" transform="translate(-87.8 -162.1)" fill="#e4751f" stroke="#e4751f" stroke-linecap="round" stroke-linejoin="round" stroke-width="1"/><path d="M207.692,175.786l-.593,13.568L221.142,162.1Z" transform="translate(-136.417 -162.1)" fill="#e4751f" stroke="#e4751f" stroke-linecap="round" stroke-linejoin="round" stroke-width="1"/><path d="M141.94,164.6l-3.14,17.123,3.91,20.2.889-26.6Z" transform="translate(-108.583 -163.119)" fill="#e4751f" stroke="#e4751f" stroke-linecap="round" stroke-linejoin="round" stroke-width="1"/><path d="M173.5,164.6l-1.6,10.665.711,26.662,3.97-20.2Z" transform="translate(-122.072 -163.119)" fill="#e4751f" stroke="#e4751f" stroke-linecap="round" stroke-linejoin="round" stroke-width="1"/></g><path d="M177.07,190.118l-3.97,20.2,2.844,1.955,17.3-13.509.593-13.568Z" transform="translate(-89.382 -96.505)" fill="#f6851b" stroke="#f6851b" stroke-linecap="round" stroke-linejoin="round" stroke-width="1"/><path d="M110.6,185.2l.474,13.568,17.3,13.509,2.844-1.955-3.91-20.2Z" transform="translate(-63.912 -96.505)" fill="#f6851b" stroke="#f6851b" stroke-linecap="round" stroke-linejoin="round" stroke-width="1"/><path d="M150.347,256.228l.178-5.51-1.481-1.3H126.707l-1.363,1.3.119,5.51L106.8,247.4l6.517,5.332,13.212,9.183h22.692l13.272-9.183,6.517-5.332Z" transform="translate(-62.364 -121.853)" fill="#c0ad9e" stroke="#c0ad9e" stroke-linecap="round" stroke-linejoin="round" stroke-width="1"/><path d="M161.681,229.555l-2.844-1.955H142.425l-2.844,1.955L138.1,242.649l1.363-1.3H161.8l1.481,1.3Z" transform="translate(-75.119 -113.784)" fill="#161616" stroke="#161616" stroke-linecap="round" stroke-linejoin="round" stroke-width="1"/><g transform="translate(0 0)"><path d="M237.385,82.128l5.036-24.173L234.9,35.5l-57,42.3,21.922,18.545,30.987,9.065,6.873-8-2.962-2.133,4.74-4.325-3.673-2.844,4.74-3.614Z" transform="translate(-91.338 -35.5)" fill="#763d16" stroke="#763d16" stroke-linecap="round" stroke-linejoin="round" stroke-width="1"/><path d="M31.8,57.955l5.036,24.173-3.2,2.37,4.74,3.614-3.614,2.844,4.74,4.325L36.54,97.414l6.814,8L74.34,96.348,96.262,77.8l-57-42.3Z" transform="translate(-31.8 -35.5)" fill="#763d16" stroke="#763d16" stroke-linecap="round" stroke-linejoin="round" stroke-width="1"/></g><path d="M242.708,147.265,211.721,138.2l9.421,14.16L207.1,179.615l18.485-.237h27.551Z" transform="translate(-103.238 -77.352)" fill="#f6851b" stroke="#f6851b" stroke-linecap="round" stroke-linejoin="round" stroke-width="1"/><path d="M75.2,138.2l-30.987,9.065L33.9,179.377H61.391l18.426.237L65.835,152.36Z" transform="translate(-32.656 -77.352)" fill="#f6851b" stroke="#f6851b" stroke-linecap="round" stroke-linejoin="round" stroke-width="1"/><path d="M154.632,124.337l1.955-34.186L165.593,65.8H125.6l8.887,24.351,2.074,34.186.711,10.783.059,26.543h16.412l.119-26.543Z" transform="translate(-70.025 -47.848)" fill="#f6851b" stroke="#f6851b" stroke-linecap="round" stroke-linejoin="round" stroke-width="1"/></g></g></svg>