<svg xmlns="http://www.w3.org/2000/svg" xmlns:xlink="http://www.w3.org/1999/xlink" width="200" height="200" viewBox="0 0 200 200"><defs><clipPath id="b"><rect width="200" height="200"/></clipPath></defs><g id="a" clip-path="url(#b)"><g transform="translate(25.243 -10)"><g transform="translate(-6.244 21)"><path d="M122.056,0a24.2,24.2,0,0,1,20.986,12.144l32.683,56.878a24.2,24.2,0,0,1,0,24.117l-32.683,56.878a24.2,24.2,0,0,1-20.985,12.145H56.886A24.2,24.2,0,0,1,35.9,150.019L3.218,93.141a24.2,24.2,0,0,1,0-24.117L35.9,12.145A24.2,24.2,0,0,1,56.886,0Z" transform="translate(162.163 0) rotate(90)" fill="#1d86cc"/></g><g transform="translate(4.654 31.657)"><path d="M2343.168,503.225l-56.151,32.432A14.033,14.033,0,0,0,2280,547.819l.034,64.935a14.036,14.036,0,0,0,7.011,12.144l56.219,32.5a14.035,14.035,0,0,0,14.037,0l56.153-32.422a14.046,14.046,0,0,0,7.017-12.163l-.035-64.936a14.036,14.036,0,0,0-7.009-12.143l-56.219-32.5a14.039,14.039,0,0,0-14.039,0Z" transform="translate(-2280 -501.171)" fill="#fff"/><path d="M2334.374,645.207a2.648,2.648,0,0,1,.552-1.151q25.195-42.752,50.4-85.5c.233-.4.45-.8.646-1.157-.146-.258-.316-.2-.458-.2-7.179.026-14.356.072-21.54.063a1.509,1.509,0,0,0-1.43.956q-8.117,13.432-16.264,26.858-17.251,28.461-34.5,56.922c-.1.168-.208.333-.3.506-.2.392-.435.454-.849.214-1.787-1.053-3.588-2.074-5.484-3.165l51.189-82.1c-.109-.334-.337-.251-.509-.257-2.746-.082-5.489-.2-8.229-.225a30.4,30.4,0,0,0-11.308,1.823,15.979,15.979,0,0,0-7.972,6.471q-14.029,21.882-28.166,43.7c-.148.23-.3.454-.458.682-.539,0-.46-.446-.508-.756a9.383,9.383,0,0,1-.033-1.411c0-16.085.055-32.17-.049-48.255a6.934,6.934,0,0,1,3.972-6.7c12.37-7.052,24.659-14.249,36.987-21.371,5.5-3.179,11.023-6.328,16.484-9.573a6.229,6.229,0,0,1,6.945,0c10.046,5.894,20.181,11.652,30.28,17.464q11.421,6.578,22.855,13.131c.544.311,1.077.644,1.625.95a5.284,5.284,0,0,1,2.8,4.961q.021,26.247,0,52.492a3.354,3.354,0,0,1-.139,1.277c-.6.585-.824-.071-1.043-.382-.907-1.276-1.723-2.621-2.564-3.943q-10.132-15.859-20.333-31.675c-2.283-3.565-4.6-7.114-6.857-10.692-.525-.835-.625-.847-1.151.049q-5.115,8.657-10.227,17.319a1.764,1.764,0,0,0,.207,2.058q4.217,6.8,8.414,13.606L2401.7,621.4q2.9,4.7,5.818,9.4a2.373,2.373,0,0,1,.573,1.505c-.389.772-1.2.989-1.868,1.34a14.235,14.235,0,0,1-3.613,1.884c-.693-.174-.941-.8-1.27-1.313-4.442-6.929-8.828-13.894-13.242-20.84-4.538-7.14-9.057-14.307-13.614-21.439-.585-.915-.678-.92-1.227,0-3.966,6.672-7.877,13.375-11.853,20.039a1.784,1.784,0,0,0,.1,2.075c5.355,8.253,10.588,16.579,15.887,24.874,1.477,2.311,2.964,4.615,4.414,6.942.284.453.671.9.417,1.517a25.179,25.179,0,0,1-4.479,2.784q-7.422,4.319-14.854,8.625a4.906,4.906,0,0,1-5.323,0q-10.946-6.331-21.93-12.606A2.853,2.853,0,0,1,2334.374,645.207Z" transform="translate(-2289.738 -510.93)" fill="#2d374b"/><path d="M2411.034,602.08c.01-.432.032-.863.032-1.293q0-26.187.015-52.371a5.438,5.438,0,0,0-2.973-5.176q-27.5-15.763-54.955-31.6a5.1,5.1,0,0,0-5.542-.014q-15.248,8.861-30.535,17.678-12.267,7.1-24.532,14.2a5.109,5.109,0,0,0-2.747,4.817q.061,25.127.072,50.253c0,.373-.15.788.174,1.117-1.938,3.224-4.063,6.322-6.107,9.477q-1.526,2.37-3.073,4.73c-.165.252-.355.484-.682.933-.021-.528-.049-.82-.049-1.11q0-33.135.013-66.271a13.35,13.35,0,0,1,6.974-12.025c7.108-4.221,14.309-8.285,21.467-12.431,6.039-3.5,12.057-7.019,18.091-10.521,5.627-3.267,11.194-6.633,16.92-9.722a14.007,14.007,0,0,1,14.256.37c4.6,2.609,9.179,5.267,13.763,7.9q6.469,3.724,12.939,7.452,5.96,3.432,11.927,6.857,5.913,3.4,11.828,6.79c1.734,1,3.464,1.993,5.186,3.007a14.551,14.551,0,0,1,7.2,10.361,10.335,10.335,0,0,1,.075,1.879q0,32.606.009,65.213a14.013,14.013,0,0,1-5.039,10.833,16.8,16.8,0,0,1-2.9,1.781q-8.834,5.154-17.694,10.265-9.414,5.446-18.836,10.873-9.051,5.245-18.087,10.529a13.424,13.424,0,0,1-4.961,2.046,13.986,13.986,0,0,1-8.712-1.109c-3.005-1.61-5.93-3.357-8.891-5.054q-5.965-3.422-11.924-6.858-1.684-.968-3.368-1.926c-.416-.234-.7-.472-.373-1.011,1.485-2.489,2.948-4.993,4.427-7.487.054-.091.186-.133.278-.2a34.459,34.459,0,0,1,4,2.2q9.732,5.567,19.438,11.188a4.585,4.585,0,0,0,4.983-.053c6.144-3.605,12.318-7.158,18.479-10.729.306-.176.618-.337.929-.5a5.08,5.08,0,0,1,2.24-1.635c5.566-3.19,11.092-6.443,16.657-9.624.466-.265.886-.674,1.49-.605l5.452-3.158c.333-.7,1.043-.922,1.641-1.266,2.742-1.584,5.46-3.212,8.227-4.745a4.7,4.7,0,0,0,2.5-4.446c.028-2.776,0-5.553.013-8.331a2.052,2.052,0,0,1,.285-1.475Z" transform="translate(-2280.075 -500.985)" fill="#96bedc"/><path d="M2502.609,656.963c.016,3.447.091,6.9.014,10.34a4.363,4.363,0,0,1-2.287,3.957c-3.47,1.966-6.878,4.042-10.379,5.954-1.393-2.541-3-4.962-4.523-7.43q-11.865-19.222-23.749-38.423c-.474-.767-.906-1.563-1.437-2.288a1.157,1.157,0,0,1,0-1.48c1.891-3.164,3.751-6.345,5.624-9.521l5.193-8.815a.994.994,0,0,1,.459-.484q1.36,2.089,2.726,4.2,8.2,12.769,16.4,25.535,5.558,8.663,11.115,17.326A3.528,3.528,0,0,0,2502.609,656.963Z" transform="translate(-2371.647 -555.869)" fill="#28a0f0"/><path d="M2466.541,708.174c-2.256,1.481-4.649,2.741-6.977,4.114-4.216,2.48-8.46,4.913-12.693,7.365-.242.137-.481.265-.718.4a1.986,1.986,0,0,0-.482-1.054q-5.654-8.884-11.309-17.764-4.644-7.293-9.315-14.57a1.494,1.494,0,0,1-.083-1.816q6.245-10.519,12.438-21.069c.1-.162.178-.351.42-.4.338.076.42.415.582.669q11.256,17.727,22.509,35.457,2.4,3.774,4.792,7.549a3.744,3.744,0,0,0,.835,1.127Z" transform="translate(-2353.684 -583.671)" fill="#28a0f0"/></g></g></g></svg>