<svg xmlns="http://www.w3.org/2000/svg" xmlns:xlink="http://www.w3.org/1999/xlink" width="200" height="200" viewBox="0 0 200 200"><defs><clipPath id="b"><rect width="200" height="200"/></clipPath></defs><g id="a" clip-path="url(#b)"><g transform="translate(11.177 39.257)"><g transform="translate(0 0)"><path d="M36.209,24.206c28.813-31.821,75.529-31.821,104.342,0l3.468,3.83a4.381,4.381,0,0,1,0,5.762L132.156,46.9a1.724,1.724,0,0,1-2.609,0l-4.772-5.27c-20.1-22.2-52.691-22.2-72.792,0l-5.11,5.644a1.724,1.724,0,0,1-2.609,0L32.4,34.171a4.381,4.381,0,0,1,0-5.762ZM165.083,51.3l10.558,11.66a4.381,4.381,0,0,1,0,5.762l-47.6,52.575a3.448,3.448,0,0,1-5.217,0h0L89.032,83.982a.862.862,0,0,0-1.3,0h0L53.941,121.3a3.448,3.448,0,0,1-5.217,0h0L1.118,68.72a4.381,4.381,0,0,1,0-5.762L11.676,51.3a3.448,3.448,0,0,1,5.217,0L50.68,88.613a.862.862,0,0,0,1.3,0h0L85.77,51.3a3.448,3.448,0,0,1,5.217,0h0l33.787,37.315a.862.862,0,0,0,1.3,0L159.866,51.3A3.448,3.448,0,0,1,165.083,51.3Z" transform="translate(-0.038 -0.34)" fill="#3b99fc"/></g></g></g></svg>