<svg xmlns="http://www.w3.org/2000/svg" xmlns:xlink="http://www.w3.org/1999/xlink" width="200" height="200" viewBox="0 0 200 200"><defs><clipPath id="a"><rect width="158.77" height="158.77"/></clipPath><linearGradient id="b" x1="0.873" y1="51.754" x2="1.032" y2="51.105" gradientUnits="objectBoundingBox"><stop offset="0" stop-color="#03b8ff"/><stop offset="1" stop-color="#fa52a0"/></linearGradient><linearGradient id="c" x1="0.983" y1="66.413" x2="1.174" y2="65.582" xlink:href="#b"/><linearGradient id="d" x1="0.908" y1="65.434" x2="1.098" y2="64.608" xlink:href="#b"/><clipPath id="f"><rect width="200" height="200"/></clipPath></defs><g id="e" clip-path="url(#f)"><g transform="translate(21 21)"><g clip-path="url(#a)"><path d="M30.811,2.3,153.776,86.26l-30.411,44.955L.4,46.594Z" transform="translate(2.244 12.905)" fill="url(#b)"/><path d="M130.228,93.353c-10.578,15.205-46.277,9.255-79.994-14.544C15.856,55.67-2.654,24.6,7.262,9.393,17.84-5.813,53.539.137,87.256,23.937,121.633,46.415,140.144,78.148,130.228,93.353Z" transform="translate(25.793 5.813)" fill="url(#c)"/><path d="M125.276,100.614C114.7,115.82,79,109.87,45.283,86.07S-7.606,31.859,2.972,15.993C13.55.787,49.249,6.737,82.966,30.537S135.193,85.409,125.276,100.614Z" transform="translate(0.333 42.845)" fill="url(#d)"/><path d="M133.015,34.377h0L102.6,79.332h0C92.027,94.537,56.327,87.926,22.611,64.788A199.174,199.174,0,0,1,4.1,50.243c4.628-.661,10.578-3.306,16.528-9.917C31.205,29.088,36.494,26.444,41.122,27.1c4.628,0,9.917,4.628,18.511,15.867S80.127,57.516,87.4,51.566c.661-.661,1.322-.661,1.983-1.322,5.95-4.628,7.933-6.611,19.172-27.766,2.644-5.289,11.9-13.883,24.461-9.917Q137.974,25.452,133.015,34.377Z" transform="translate(23.005 64.789)" fill="#0e0f23"/><path d="M121.435,86.576C112.18,99.8,79.786,93.187,48.714,71.371,16.981,49.554-1.53,21.788,7.725,8.566s41.65-6.611,72.722,15.205S130.029,73.354,121.435,86.576ZM92.347,66.743c-4.628,6.611-20.494,3.306-36.361-7.272C40.78,48.893,31.525,35.01,36.153,28.4s20.494-3.306,36.361,7.272C87.719,46.249,96.974,60.132,92.347,66.743Z" transform="translate(29.958 9.945)" fill="#fff" fill-rule="evenodd"/><path d="M6.844,5.394c0-.661-.661-1.322-1.322-.661S4.2,5.394,4.2,6.055c.661,1.983,1.322,3.306,1.322,4.628,0,.661.661,1.322,1.322.661.661,0,1.322-.661.661-1.322A12.907,12.907,0,0,0,6.844,5.394Z" transform="translate(23.566 25.017)" fill="#fff"/><path d="M6.783,6.994c0-.661-.661-1.322-1.322-.661S4.8,6.994,4.8,7.655c7.272,16.528,22.478,34.377,42.311,47.6.661.661,1.322,0,1.983,0,.661-.661,0-1.322,0-1.983C28.6,40.049,14.055,22.86,6.783,6.994Z" transform="translate(26.933 33.995)" fill="#fff"/><path d="M18.322,16C17.661,16,17,16,17,16.661s0,1.322.661,1.322c1.983.661,4.628,1.322,6.611,1.983.661,0,1.322,0,1.322-.661s0-1.322-.661-1.322C22.95,17.322,20.306,16.661,18.322,16Z" transform="translate(95.388 89.777)" fill="#fff"/><path d="M20.122,16.4A1.422,1.422,0,0,0,18.8,17.722a1.422,1.422,0,0,0,1.322,1.322c5.289.661,11.239,1.322,15.867.661a1.422,1.422,0,0,0,1.322-1.322,1.422,1.422,0,0,0-1.322-1.322C30.7,17.722,25.411,17.061,20.122,16.4Z" transform="translate(105.488 92.021)" fill="#fff"/></g></g></g></svg>