<svg xmlns="http://www.w3.org/2000/svg" xmlns:xlink="http://www.w3.org/1999/xlink" width="200" height="200" viewBox="0 0 200 200"><defs><clipPath id="b"><rect width="200" height="200"/></clipPath></defs><g id="a" clip-path="url(#b)"><g transform="translate(40.473 15.233)"><path d="M15.806,51.936,79.119,88.442a3.348,3.348,0,0,0,4.54-1.221,3.392,3.392,0,0,0,.466-1.661l.011-67.227a3.366,3.366,0,0,0-1.682-2.881,3.33,3.33,0,0,0-3.323,0Z" transform="translate(35.031 33.26)" fill="#31cb9e"/><path d="M77.548,32.979,35.52.678a3.36,3.36,0,0,0-5.3,1.953L14.855,74.546l62.353-36a3.326,3.326,0,0,0,.341-5.57Z" transform="translate(32.922 0)" fill="#31cb9e"/><path d="M35.494,103.69,77.631,71.354a3.37,3.37,0,0,0-.339-5.57L14.854,29.815l15.393,71.92a3.31,3.31,0,0,0,2.084,2.441,3.282,3.282,0,0,0,3.164-.487Z" transform="translate(32.919 66.079)" fill="#31cb9e"/><path d="M34.606,82.665,51.189,5.181A3.343,3.343,0,0,0,49.7,1.647a3.3,3.3,0,0,0-3.81.21L3.465,34.438A8.856,8.856,0,0,0,.013,41.473L0,123.992a8.857,8.857,0,0,0,3.449,7.036l42.418,32.545a3.342,3.342,0,0,0,5.076-1.343,3.383,3.383,0,0,0,.222-1.979Z" transform="translate(0 2.53)" fill="#31cb9e"/></g></g></svg>