<svg xmlns="http://www.w3.org/2000/svg" xmlns:xlink="http://www.w3.org/1999/xlink" width="200" height="200" viewBox="0 0 200 200"><defs><clipPath id="b"><rect width="200" height="200"/></clipPath></defs><g id="a" clip-path="url(#b)"><g transform="translate(17.291 24.371)"><path d="M519.986.1,497.665.087l6.619,20.407L462.236,51,495.525,75.21l39.517-28.668Z" transform="translate(-369.466 -0.07)" fill="#ffc800"/><path d="M30.731,20.355,37.359.017,15.117,0,0,46.42,39.472,75.14,72.806,50.961Z" transform="translate(0 0)" fill="#e1aa00"/><path d="M236.237,24.7,202.459.131l-5.694,17.491,39.473,28.72.017-.009V24.685Z" transform="translate(-157.275 -0.104)" fill="#e1aa00"/><path d="M465.164.261,431.342,24.79V46.437l39.5-28.65Z" transform="translate(-344.773 -0.209)" fill="#ffc800"/><path d="M196.843,306.005l-.079.253,39.473,28.729.017-.017V277.416Z" transform="translate(-157.275 -221.74)" fill="#e1aa00"/><path d="M470.744,305.884l-39.359-28.642-.044.035v57.554l39.5-28.65Z" transform="translate(-344.773 -221.601)" fill="#ffc800"/><path d="M236.229,516.99,204.1,493.614l-7.336,22.529,39.473,28.72.017-.017V516.973Z" transform="translate(-157.275 -394.547)" fill="#e1aa00"/><path d="M463.523,493.658l-32.181,23.35v27.873l39.5-28.65Z" transform="translate(-344.773 -394.582)" fill="#ffc800"/></g></g></svg>