<svg xmlns="http://www.w3.org/2000/svg" xmlns:xlink="http://www.w3.org/1999/xlink" width="200" height="200" viewBox="0 0 200 200"><defs><clipPath id="b"><rect width="200" height="200"/></clipPath></defs><g id="a" clip-path="url(#b)"><g transform="translate(11 12)"><ellipse cx="89.344" cy="87.776" rx="89.344" ry="87.776" fill="#13b5ec"/><g transform="translate(54.797 33.108)"><path d="M49.73,44.075,69.6,32.487V55.662ZM69.6,93.737,43.109,109.188,16.622,93.737V66.7L43.109,82.149,69.6,66.7ZM16.622,32.487,36.487,44.075,16.622,55.662Zm29.8,17.106L66.285,61.181,46.419,72.768ZM39.8,72.768,19.933,61.181,39.8,49.593Zm26.487-45.8L43.109,40.212,19.933,26.969l23.176-13.8ZM10,24.761V97.048l33.109,18.761L76.217,97.048V24.761L43.109,6Z" transform="translate(-10 -6)" fill="#fff" fill-rule="evenodd"/></g></g></g></svg>