<svg xmlns="http://www.w3.org/2000/svg" xmlns:xlink="http://www.w3.org/1999/xlink" width="200" height="200" viewBox="0 0 200 200"><defs><clipPath id="b"><rect width="200" height="200"/></clipPath></defs><g id="a" clip-path="url(#b)"><path d="M252.347,435.569v18.523l-16.618,9.479-16.121-9.479V435.569l16.121,9.479Zm-88.927-64,16.121,9.487V412.81L207.4,428.933v18.485L163.42,422.29Zm144.627,0V422.29l-44.464,25.128V428.933l27.846-16.123V381.054Zm-44.464-25.121,16.61,9.48h0v18.492l-27.846,16.115v32.215l-16.129,9.48-16.121-9.48V390.533l-28.823-16.115V355.926l16.61-9.48,27.846,16.115Zm-72.31,41.244,16.121,9.479v18.485l-16.121-9.48Zm88.92,0v18.485l-16.122,9.48V397.169ZM179.541,330.354l16.641,9.457-16.618,9.479v18.485l-16.121-9.48V339.81Zm112.376,0,16.618,9.48v18.485L291.918,367.8V349.29l-16.153-9.479Zm-56.188,0,16.618,9.48-16.618,9.479-16.121-9.479Zm0-31.764,44.464,25.128L264.072,333.2l-27.854-16.123L207.852,333.2l-16.121-9.479Z" transform="translate(-136.421 -280.59)" fill="#f3ba2f"/></g></svg>