<svg xmlns="http://www.w3.org/2000/svg" xmlns:xlink="http://www.w3.org/1999/xlink" width="200" height="200" viewBox="0 0 200 200"><defs><clipPath id="b"><rect width="200" height="200"/></clipPath></defs><g id="a" clip-path="url(#b)"><g transform="translate(18.999 23)"><path d="M57.751,107.965l4.307-32.36L24.7,49.671,58.834,61.233,66.9,48.865,96.33,30.6l64.882,35.746,3.363,54.54-28.906,40.168-22.848,3.5,11.816-21.627V122.107l-8.591-16.261-8.729-5.781L93.889,113.908v14.648l-10.48,9.812L70.1,139.98l-5.9,3.34-9.674-3.086L50.5,125.723l7.255-10.2Z" transform="translate(-18.988 -23.55)" fill="#fff"/><path d="M315.9,108.425a67.992,67.992,0,0,0-14.9-1.083s-2.557,11.816-18.4,14.925C282.715,122.267,303.536,129.384,315.9,108.425Z" transform="translate(-217.488 -82.581)" fill="#94a6c3"/><path d="M241.076,262.594a51.81,51.81,0,0,0,18.011-26.464c.138-.391,1.336-1.083,2.142-1.612,1.336-.806,2.695-1.474,2.948-2.557a56.678,56.678,0,0,0,.806-9.535c0-1.2-1.221-2.418-2.418-3.616-.944-.806-1.889-1.75-1.889-2.418a51.066,51.066,0,0,0-15.984-31.969l-.944.944A50.134,50.134,0,0,1,259.34,216.53c.138,1.083,1.2,2.142,2.28,3.224.944.806,2.027,2.027,2.027,2.557a54.652,54.652,0,0,1-.806,9.259c-.138.53-1.336,1.083-2.28,1.612-1.336.668-2.557,1.336-2.81,2.418a49.665,49.665,0,0,1-20.43,27.823c1.75-3.754,7.255-15.984,10.2-22.18l-.53-19.877-17.067-16.514-9.674,1.336-10.618,17.205s4.975,6.311-2.027,13.7c-6.841,7.255-12.23,8.867-12.23,8.867L190.4,243.27a52.366,52.366,0,0,1,6.725-6.587c3.892-3.224,7.785-3.5,7.785-6.979.161-7.278-7.647-5.274-7.647-5.274l-2.833,2.695-1.2,9.95-5.9,7.393-.668-.138L177,242.188s5.919-3.086,6.864-6.587c.944-3.363-1.889-14.51-2.027-15.178a14.65,14.65,0,0,1,4.031,6.173c2.142-5.919,4.975-11.562,5.781-12.092s11.677-6.311,11.677-6.311l-3.616,9.535,2.695-1.474,6.449-15.846s6.311-3.086,11.009-3.086c8.453-.138,20.959-10.48,15.316-29.021,1.612.668,29.55,14.648,34.387,42.057C273.183,231.431,261.229,251.17,241.076,262.594Z" transform="translate(-136.21 -129.534)" fill="#94a6c3"/><path d="M292.6,94.906c3.086-3.639,1.889-9.006,1.889-9.006l-9.006,13.313C285.348,99.213,288.688,99.351,292.6,94.906Z" transform="translate(-219.706 -66.113)" fill="#1b314f"/><path d="M172.163,422.667l1.082-5.366s-4.445,7.785-4.837,8.867c-.415,1.221.276,3.363,2,3.224,1.75-.138,3.892-2.695,3.892-4.56A1.922,1.922,0,0,0,172.163,422.667Z" transform="translate(-129.508 -321.184)" fill="#1b314f"/><path d="M122.364,16.023s6.725.276,13.7,1.083C120.337,4.737,105.435,1.121,93.343,1.121A58.393,58.393,0,0,0,64.714,8.376L69.965.038S49.006-1.989,41.612,20.191A110.43,110.43,0,0,1,38,8.629s-10.894,9.558-5.781,25.4C19.709,29.473,1.859,23.14,1.168,23.024c-.944-.138-1.221.276-1.221.276s-.276.392.53,1.083c1.5,1.175,29.712,22.019,35.907,26.049-1.336,4.837-1.336,7.117,0,9.4,1.889,3.086,2,4.7,1.75,6.979-.276,2.28-2.695,22.042-3.225,24.46s-6.173,11.009-5.919,13.566c.276,2.557,3.754,13.428,6.864,14.649,2.28.806,7.923,2.557,11.677,2.557a4.767,4.767,0,0,0,3.086-.806c2.28-2,2.948-2.418,4.56-2.418h.392c.668,0,1.474.138,2.418.138,2.142,0,4.975-.415,6.979-2.28,2.948-2.948,8.061-6.979,9.674-8.867A12.475,12.475,0,0,0,77.2,98.271c-.415-3.225,1.336-6.057,3.363-8.867,2.557-3.363,7.255-9.4,7.255-9.4A36.664,36.664,0,0,1,102.878,109.4c0,20.959-18.265,37.888-40.836,37.888a43.227,43.227,0,0,1-10.2-1.2,79.253,79.253,0,0,0,26.211,4.837c15.178,0,23.24-5.5,23.24-5.5A66.937,66.937,0,0,1,93.9,153.2h.138c25.128-3.5,37.358-24.184,37.358-24.184s-.944,6.725-2.142,11.286c33.42-25.128,27.777-56.567,27.639-57.627.276.392,3.639,4.422,5.367,6.587C167.645,33.9,122.364,16.023,122.364,16.023ZM70.91,104.443c-.53.668-2.81,2.695-4.422,4.169s-3.363,2.948-4.7,4.307c-.53.53-1.612.806-3.225.806H54.534c2.027-2.695,7.923-8.867,9.95-10.2,2.418-1.612,3.639-3.225,2.142-6.034-1.474-2.833-5.367-2.142-5.367-2.142a13.339,13.339,0,0,1,4.307-.944c-2.557-.668-5.781,0-7.255,1.474-1.612,1.474-1.336,6.725-2,10.065-.668,3.5-2.948,5.251-6.449,8.476-1.889,1.75-3.225,2.28-4.307,2.28a45.9,45.9,0,0,1-6.864-1.75c-1.336-1.75-3.363-7.532-3.892-9.95a54.551,54.551,0,0,1,2.81-5.781c1.612-3.086,2.557-4.837,2.833-6.449.53-2.28,2.28-16.4,2.948-22.3,1.75,2.28,4.169,6.057,3.616,8.476,3.892-5.5,1.083-10.894-.276-13.036A14.792,14.792,0,0,1,45.252,54.9c1.336-4.56,6.173-17.205,6.173-17.205s1.612,2.833,3.892,2.28C57.6,39.446,76,11.762,76,11.762s4.975,10.871-.276,18.817c-5.367,7.923-10.618,9.4-10.618,9.4a20.117,20.117,0,0,0,14.234-3.639c2.81,6.587,5.5,13.428,5.643,14.372-.415.944-5.781,13.842-6.311,14.649a13.435,13.435,0,0,1-3.5,1.083A18.98,18.98,0,0,0,71,67.914c-.944.806-5.251,12.622-7.255,18.4a11.153,11.153,0,0,0-6.587,4.7c.944-.668,3.892-1.083,6.057-1.336,1.889-.138,7.647,2.948,9.144,8.729v.276A8.3,8.3,0,0,1,70.91,104.443Zm-12.622,1.612c1.221-1.75,1.083-4.7,1.221-5.643s.392-2.695,1.474-2.948c1.083-.276,3.639.138,3.639,2,0,1.75-1.889,2.142-3.225,3.363C60.43,103.752,58.541,105.779,58.288,106.056Zm53.6-25.681a64.493,64.493,0,0,0,1.083-17.6,49.361,49.361,0,0,1,9.4,24.184c.138,1.083,1.2,2.142,2.28,3.224.944.806,2.027,1.889,2.027,2.557a55.132,55.132,0,0,1-.806,9.282c-.138.392-1.336,1.083-2.28,1.612-1.336.668-2.557,1.336-2.81,2.418a50.075,50.075,0,0,1-17.735,25.934C115.523,118.954,121.557,97.442,111.884,80.375Zm-8.453,52.813a51.706,51.706,0,0,0,18.4-26.74c.138-.392,1.336-1.083,2.142-1.612,1.336-.668,2.695-1.474,2.948-2.557a56.676,56.676,0,0,0,.806-9.535c0-1.2-1.221-2.418-2.418-3.616-.668-.806-1.75-1.75-1.75-2.418a52.685,52.685,0,0,0-11.009-26.74c-2.695-16.123-13.428-21.1-13.7-21.236.276.415,7.255,10.48,2.418,22.3-4.975,11.954-17.735,10.088-18.817,10.2-1.083,0-5.228,5.367-10.48,15.316a14.5,14.5,0,0,0-6.725-.392C67.662,79.43,71.3,69.9,71.969,69.089a20.479,20.479,0,0,1,3.639-1.2c2.557-.668,3.754-1.083,4.169-1.612.276-.415,1.612-3.5,2.948-6.725a30.329,30.329,0,0,0,4.56-.415,50.028,50.028,0,0,0,2.833-7.647c0-.668-5.251-13.7-7.255-18.679a30.972,30.972,0,0,0,2.81-3.892,54.972,54.972,0,0,1,17.758,104.267Z" transform="translate(0.099 0.01)" fill="#1b314f"/><path d="M232.577,203.65a5.862,5.862,0,0,0-3.5-9.4c1.221-2.81,2.948-8.453,2.948-8.453s-13.7,21.489-14.9,21.9c-1.221.415-2.418-4.307-2.418-4.307-2.557,9.812,4.307,11.148,5.113,8.061C223.571,210.491,230.02,206.46,232.577,203.65Z" transform="translate(-164.793 -143.004)" fill="#1b314f"/><path d="M243.4,246.054l6.979-11.954s4.031,2.027,2,5.251C249.849,243.106,243.4,246.054,243.4,246.054Z" transform="translate(-187.317 -180.179)" fill="#ffd923"/><path d="M595.179,336.521a78.689,78.689,0,0,1-6.979,8.2c17.32-33.328.806-63.822.138-65.02,1.221,1.221,2.418,2.557,3.5,3.754C605.129,298.218,606.741,320.4,595.179,336.521Z" transform="translate(-452.702 -215.276)" fill="#d82122"/><path d="M445.128,147.568c-6.057-16.261-14.649-30.1-33.581-42.587-18.265-12.092-37.888-11.148-38.971-11.009H372.3a9.217,9.217,0,0,1,2-.53,85.842,85.842,0,0,1,14.925-3.086,44.2,44.2,0,0,1,38.441,13.151l.276.276C439.094,115.6,444.875,130.362,445.128,147.568Z" transform="translate(-286.528 -69.186)" fill="#d82122"/><path d="M326.5,28.641c-20.015-3.754-32.913-1.889-42.195,1.612a39.852,39.852,0,0,0-2.027-4.975c-2.787,3.363-5.758,7.393-7.624,9.95a27.294,27.294,0,0,0-7.255,6.864,28,28,0,0,1,22.042-19.485,54.762,54.762,0,0,1,9.674-.806A63.251,63.251,0,0,1,326.5,28.641Z" transform="translate(-205.789 -16.777)" fill="#d82122"/><path d="M164.984,97.077c-15.708-.53-10.48-18.817-10.2-19.877C154.781,77.338,155.841,91.572,164.984,97.077Z" transform="translate(-118.298 -59.417)" fill="#d82122"/><path d="M225.507,20.6c-12.092,7.255-9.674,24.575-9.674,24.575C204.271,27.6,224.562,21.015,225.507,20.6Z" transform="translate(-163.366 -15.853)" fill="#d82122"/><path d="M110.2,156.715a2.7,2.7,0,0,1,.668,3.639c-.53.944-1.336.806-2.557.276-1.612-.806-11.286-6.449-20.015-12.23,9.95,3.5,20.015,7.255,21.627,8.061C109.927,156.461,110.065,156.6,110.2,156.715Z" transform="translate(-67.94 -114.218)" fill="#fff"/></g></g></svg>