<svg xmlns="http://www.w3.org/2000/svg" xmlns:xlink="http://www.w3.org/1999/xlink" width="200" height="200" viewBox="0 0 200 200"><defs><clipPath id="b"><rect width="200" height="200"/></clipPath></defs><g id="a" clip-path="url(#b)"><g transform="translate(21 21)"><path d="M28.549,24.808a20.963,20.963,0,1,1,41.571-3.969v25.8c3.005,0,6.01-.5,9.015-.5a49.046,49.046,0,0,1,8.514.5v-25.8A21.064,21.064,0,0,1,108.685,0a21.521,21.521,0,0,1,21.036,24.808l-5.509,30.266c19.533,8.435,34.559,23.319,34.559,41.677v11.412c0,15.381-10.017,28.281-24.542,36.716-14.525,8.931-33.557,13.892-55.094,13.892s-40.569-4.962-55.094-13.892C10.017,136.443,0,123.543,0,108.162V96.751C0,78.393,14.525,63.508,34.058,55.073ZM116.7,59.043l6.511-35.723A14.705,14.705,0,0,0,108.685,5.954,14.467,14.467,0,0,0,94.16,20.342V53.089a28.822,28.822,0,0,0-6.511-.5c-3.005,0-5.509-.5-8.514-.5a54.945,54.945,0,0,0-9.015.5c-2,0-4.508.5-6.511.5V20.839A14.426,14.426,0,1,0,35.06,23.816l6.511,35.723C20.535,67.477,6.511,81.37,6.511,97.247v11.412c0,24.312,32.555,44.158,72.624,44.158s72.624-19.846,72.624-44.158V97.247C152.259,80.874,138.235,66.981,116.7,59.043Z" transform="translate(0)" fill="#633001" fill-rule="evenodd"/><path d="M148.883,29.035c0,20.313-33.057,36.895-73.742,36.895S1.4,49.347,1.4,29.035V19.5H149.392v9.535Z" transform="translate(4.404 87.452)" fill="#fedc90"/><path d="M29.9,19.17A14.679,14.679,0,1,1,58.9,16.106V49.8A153.619,153.619,0,0,1,74.68,48.782c5.089,0,10.178.511,15.267,1.021v-33.7A14.793,14.793,0,0,1,104.7,1.3c9.16,0,16.284,8.679,14.758,17.87l-6.616,36.76c21.373,8.169,36.131,22.465,36.131,38.8,0,25.017-33.078,45.44-73.789,45.44S1.4,119.75,1.4,94.732c0-16.338,14.249-30.633,35.622-38.8Z" transform="translate(4.404 4.089)" fill="#d1884f" fill-rule="evenodd"/><path d="M21.866,26.449c0,5.389-2.9,9.949-6.633,9.949S8.6,31.838,8.6,26.449,11.5,16.5,15.233,16.5,21.866,21.06,21.866,26.449Z" transform="translate(35.307 67.742)" fill="#633001"/><path d="M32.966,26.449c0,5.389-2.9,9.949-6.633,9.949S19.7,31.838,19.7,26.449,22.6,16.5,26.333,16.5,32.966,21.06,32.966,26.449Z" transform="translate(80.877 67.742)" fill="#633001"/></g></g></svg>