<svg xmlns="http://www.w3.org/2000/svg" xmlns:xlink="http://www.w3.org/1999/xlink" width="200" height="200" viewBox="0 0 200 200"><defs><clipPath id="b"><rect width="200" height="200"/></clipPath></defs><g id="a" clip-path="url(#b)"><path d="M118.424,47.344a9.372,9.372,0,0,0-9.8,0l-22.868,15.2L70.238,72.217l-22.46,15.2a9.372,9.372,0,0,1-9.8,0L20.418,75.442a11.561,11.561,0,0,1-4.9-9.673V42.738a11.736,11.736,0,0,1,4.9-9.673L37.977,21.549a9.372,9.372,0,0,1,9.8,0L65.338,33.525a11.561,11.561,0,0,1,4.9,9.673V58.4L85.756,48.265V32.6a11.736,11.736,0,0,0-4.9-9.673L48.186,1.282a9.372,9.372,0,0,0-9.8,0L4.9,23.392A10.382,10.382,0,0,0,0,32.6V75.9a11.736,11.736,0,0,0,4.9,9.673l33.077,21.649a9.372,9.372,0,0,0,9.8,0l22.46-14.74L85.756,82.351l22.46-14.74a9.372,9.372,0,0,1,9.8,0l17.559,11.515a11.561,11.561,0,0,1,4.9,9.673v23.031a11.736,11.736,0,0,1-4.9,9.673l-17.151,11.515a9.372,9.372,0,0,1-9.8,0L91.064,121.5a11.562,11.562,0,0,1-4.9-9.673V97.091L70.646,107.224v15.2a11.736,11.736,0,0,0,4.9,9.673l33.077,21.649a9.372,9.372,0,0,0,9.8,0L151.5,132.1a11.561,11.561,0,0,0,4.9-9.673V78.666a11.736,11.736,0,0,0-4.9-9.673Z" transform="translate(22 22.1)" fill="#8247e5"/></g></svg>