<svg xmlns="http://www.w3.org/2000/svg" xmlns:xlink="http://www.w3.org/1999/xlink" width="279" height="82" viewBox="0 0 279 82">
  <defs>
    <linearGradient id="linear-gradient" x1="0.047" y1="0.05" x2="1" y2="1" gradientUnits="objectBoundingBox">
      <stop offset="0" stop-color="#49a4f8"/>
      <stop offset="1" stop-color="#803de4"/>
    </linearGradient>
    <clipPath id="clip-path">
      <path id="パス_59494" data-name="パス 59494" d="M5,0H270a5,5,0,0,1,5,5V73a5,5,0,0,1-5,5H5a5,5,0,0,1-5-5V5A5,5,0,0,1,5,0Z" transform="translate(149 894)" fill="#0c0c0c"/>
    </clipPath>
    <filter id="楕円形_6" x="-117.35" y="-50.5" width="272.409" height="272.409" filterUnits="userSpaceOnUse">
      <feOffset input="SourceAlpha"/>
      <feGaussianBlur stdDeviation="17.5" result="blur"/>
      <feFlood flood-color="#ab68f5" flood-opacity="0.569"/>
      <feComposite operator="in" in2="blur"/>
    </filter>
    <filter id="パス_59493" x="126.185" y="-132.166" width="257.339" height="257.339" filterUnits="userSpaceOnUse">
      <feOffset input="SourceAlpha"/>
      <feGaussianBlur stdDeviation="17.5" result="blur-2"/>
      <feFlood flood-color="#78a0fc" flood-opacity="0.569"/>
      <feComposite operator="in" in2="blur-2"/>
    </filter>
    <linearGradient id="linear-gradient-2" x1="0.85" y1="0" x2="0.15" xlink:href="#linear-gradient"/>
  </defs>
  <g id="グループ_68992" data-name="グループ 68992" transform="translate(-465 -150)">
    <rect id="長方形_19669" data-name="長方形 19669" width="279" height="82" rx="6" transform="translate(465 150)" fill="url(#linear-gradient)"/>
    <rect id="長方形_19670" data-name="長方形 19670" width="275" height="78" rx="5" transform="translate(467 152)" fill="#fff"/>
    <g id="マスクグループ_99" data-name="マスクグループ 99" transform="translate(318 -742)" clip-path="url(#clip-path)">
      <g transform="matrix(1, 0, 0, 1, 147, 892)" filter="url(#楕円形_6)">
        <circle id="楕円形_6-2" data-name="楕円形 6" cx="61" cy="61" r="61" transform="translate(102.56 106.57) rotate(149)" fill="#fff" opacity="0.73"/>
      </g>
      <g transform="matrix(1, 0, 0, 1, 147, 892)" filter="url(#パス_59493)">
        <path id="パス_59493-2" data-name="パス 59493" d="M61,0A61,61,0,1,1,0,61,61,61,0,0,1,61,0Z" transform="translate(331.02 37) rotate(163)" fill="#fff" opacity="0.73"/>
      </g>
    </g>
    <g id="グループ_68963" data-name="グループ 68963" transform="translate(336.598 -225.305)">
      <path id="交差_191" data-name="交差 191" d="M267.094,433.787l4.06-23.073h4.788l-.392,2.212a6.747,6.747,0,0,1,5.263-2.437,5.339,5.339,0,0,1,4.074,1.651,6.278,6.278,0,0,1,1.554,4.481,11.559,11.559,0,0,1-.168,1.876,10.863,10.863,0,0,1-1.652,4.242,8.9,8.9,0,0,1-2.969,2.828,7.265,7.265,0,0,1-3.668.994,5.233,5.233,0,0,1-2.744-.672,4.192,4.192,0,0,1-1.651-1.736l-1.708,9.632Zm8.988-18.088a4.812,4.812,0,0,0-1.512,2.827,5.734,5.734,0,0,0-.084.925,2.915,2.915,0,0,0,.784,2.156,2.731,2.731,0,0,0,2.015.783,3.876,3.876,0,0,0,2.618-1.05,4.858,4.858,0,0,0,1.527-2.842,5.065,5.065,0,0,0,.084-.868,2.921,2.921,0,0,0-.8-2.184,2.774,2.774,0,0,0-2.029-.784,3.848,3.848,0,0,0-2.6,1.041Zm-20.664,10.108-3.7-15.092h5.32l1.9,9.773Zm103.656,7.868,4.7-7.728-3.556-15.12h4.4l2.072,10.836,6.02-10.836h4.172l-13.636,22.848Zm-15.792-7.854a5.262,5.262,0,0,1-2.044-2.184,7.094,7.094,0,0,1-.728-3.291,10.371,10.371,0,0,1,.168-1.82,10.562,10.562,0,0,1,1.666-4.171,8.741,8.741,0,0,1,3.038-2.8,7.764,7.764,0,0,1,3.78-.979,5.682,5.682,0,0,1,2.926.7,4.474,4.474,0,0,1,1.75,1.765l.392-2.212h3.948l-2.744,15.513h-3.948l.42-2.269a7.411,7.411,0,0,1-5.6,2.52,5.874,5.874,0,0,1-3.024-.768Zm4.187-11.27a5.161,5.161,0,0,0-1.778,1.554,5.7,5.7,0,0,0-1.009,2.421,6.313,6.313,0,0,0-.084,1.009,3.6,3.6,0,0,0,.952,2.646,3.244,3.244,0,0,0,2.408.967,4.513,4.513,0,0,0,2.127-.546,5.112,5.112,0,0,0,1.779-1.582,5.911,5.911,0,0,0,.993-2.436,7.771,7.771,0,0,0,.112-1.064,3.4,3.4,0,0,0-.967-2.576,3.361,3.361,0,0,0-2.42-.924,4.507,4.507,0,0,0-2.114.535Zm-45.122,11.2a5.807,5.807,0,0,1-2.422-2.3,6.762,6.762,0,0,1-.854-3.443,9.508,9.508,0,0,1,1.26-4.844,9.083,9.083,0,0,1,3.471-3.43,9.866,9.866,0,0,1,4.928-1.246,7.664,7.664,0,0,1,3.6.824,5.984,5.984,0,0,1,2.45,2.312,6.682,6.682,0,0,1,.867,3.444,9.415,9.415,0,0,1-1.274,4.858,9.079,9.079,0,0,1-3.5,3.4,10.027,10.027,0,0,1-4.942,1.232,7.669,7.669,0,0,1-3.586-.8Zm3.57-10.43a4.724,4.724,0,0,0-1.414,1.862,5.9,5.9,0,0,0-.5,2.407,2.892,2.892,0,0,0,.728,2.114,2.518,2.518,0,0,0,1.877.742,3.408,3.408,0,0,0,2.113-.714,4.763,4.763,0,0,0,1.457-1.849,5.635,5.635,0,0,0,.518-2.365,2.914,2.914,0,0,0-.756-2.156,2.584,2.584,0,0,0-1.9-.757,3.327,3.327,0,0,0-2.125.72ZM222.044,425.5a6.882,6.882,0,0,1-2.885-2.771,8.363,8.363,0,0,1-1.008-4.172,10.826,10.826,0,0,1,.2-2.072,12.181,12.181,0,0,1,2.17-5.194,11.7,11.7,0,0,1,4.129-3.556,11.409,11.409,0,0,1,5.32-1.274,8.441,8.441,0,0,1,5.671,1.847,7.137,7.137,0,0,1,2.449,5.04h-5.264a3.214,3.214,0,0,0-1.33-1.834,4.246,4.246,0,0,0-2.367-.63,5.417,5.417,0,0,0-3.836,1.527,7.091,7.091,0,0,0-2.072,4.074,8.012,8.012,0,0,0-.141,1.373,4.329,4.329,0,0,0,1.093,3.108,3.942,3.942,0,0,0,3,1.147,5.308,5.308,0,0,0,2.563-.644,5.637,5.637,0,0,0,2-1.848H237a11.209,11.209,0,0,1-4.228,5.026,11.386,11.386,0,0,1-6.328,1.834,9.359,9.359,0,0,1-4.4-.977Zm101.22.841,3.472-19.544h7.2a6.759,6.759,0,0,1,4.534,1.33,4.439,4.439,0,0,1,1.54,3.542,5.6,5.6,0,0,1-.112,1.176,7.17,7.17,0,0,1-1.259,2.94,7.013,7.013,0,0,1-2.7,2.212,9.34,9.34,0,0,1-4.129.84h-3.276l-1.316,7.5Zm5.824-10.584H332.2a3.766,3.766,0,0,0,2.52-.784,3.732,3.732,0,0,0,1.232-2.857q0-2.211-2.743-2.212h-3.08ZM293.7,426.339q-4.7,0-4.7-3.949a9.963,9.963,0,0,1,.139-1.484l1.121-6.216h-1.9l.7-3.976h1.9l.67-3.807h4.79l-.673,3.807h3.136l-.7,3.976h-3.136l-1.12,6.272a1.93,1.93,0,0,0-.028.364.859.859,0,0,0,.3.728,1.621,1.621,0,0,0,.966.224h1.708l-.728,4.06Zm-54.963,0,2.743-15.625h4.789l-.5,2.828a8.438,8.438,0,0,1,2.506-2.2,5.916,5.916,0,0,1,2.954-.8l-.9,5.068h-1.317a4.649,4.649,0,0,0-2.828.771,4.084,4.084,0,0,0-1.372,2.7l-1.288,7.252Z" fill="#070203"/>
      <path id="パス_59384" data-name="パス 59384" d="M249.9,434.636l14.549-24.252H269.9L255.31,434.636Z" fill="url(#linear-gradient-2)"/>
    </g>
    <g id="グループ_68980" data-name="グループ 68980" transform="translate(326 -391.669)">
      <g id="metamask-seeklogo.com" transform="translate(168 561.669)">
        <path id="パス_59342" data-name="パス 59342" d="M36.435,1,19.824,13.291l3.089-7.243Z" transform="translate(4.983 0)" fill="#e17726" stroke="#e17726" stroke-linecap="round" stroke-linejoin="round" stroke-width="0.25"/>
        <path id="パス_59343" data-name="パス 59343" d="M2.663,1,19.126,13.406,16.185,6.047Z" transform="translate(0.44 0)" fill="#e27625" stroke="#e27625" stroke-linecap="round" stroke-linejoin="round" stroke-width="0.25"/>
        <path id="パス_59344" data-name="パス 59344" d="M29.154,23.533l-4.42,6.752L34.2,32.891l2.711-9.21Z" transform="translate(6.283 5.965)" fill="#e27625" stroke="#e27625" stroke-linecap="round" stroke-linejoin="round" stroke-width="0.25"/>
        <path id="パス_59345" data-name="パス 59345" d="M1.273,23.681l2.695,9.21,9.447-2.606-4.4-6.752Z" transform="translate(0.072 5.965)" fill="#e27625" stroke="#e27625" stroke-linecap="round" stroke-linejoin="round" stroke-width="0.25"/>
        <path id="パス_59346" data-name="パス 59346" d="M11.021,15.705,8.392,19.671l9.365.426-.312-10.079Z" transform="translate(1.957 2.387)" fill="#e27625" stroke="#e27625" stroke-linecap="round" stroke-linejoin="round" stroke-width="0.25"/>
        <path id="パス_59347" data-name="パス 59347" d="M26.56,15.729l-6.523-5.8-.214,10.193,9.365-.426Z" transform="translate(4.983 2.363)" fill="#e27625" stroke="#e27625" stroke-linecap="round" stroke-linejoin="round" stroke-width="0.25"/>
        <path id="パス_59348" data-name="パス 59348" d="M10.873,30.241,16.542,27.5l-4.88-3.8Z" transform="translate(2.614 6.01)" fill="#e27625" stroke="#e27625" stroke-linecap="round" stroke-linejoin="round" stroke-width="0.25"/>
        <path id="パス_59349" data-name="パス 59349" d="M20.266,27.5l5.652,2.737L25.146,23.7Z" transform="translate(5.1 6.01)" fill="#e27625" stroke="#e27625" stroke-linecap="round" stroke-linejoin="round" stroke-width="0.25"/>
        <path id="パス_59350" data-name="パス 59350" d="M25.918,29.445l-5.652-2.737.46,3.671-.049,1.557Z" transform="translate(5.1 6.806)" fill="#d5bfb2" stroke="#d5bfb2" stroke-linecap="round" stroke-linejoin="round" stroke-width="0.25"/>
        <path id="パス_59351" data-name="パス 59351" d="M10.873,29.445l5.258,2.491L16.1,30.379l.444-3.671Z" transform="translate(2.614 6.806)" fill="#d5bfb2" stroke="#d5bfb2" stroke-linecap="round" stroke-linejoin="round" stroke-width="0.25"/>
        <path id="パス_59352" data-name="パス 59352" d="M16.092,22.391l-4.7-1.377,3.319-1.524Z" transform="translate(2.751 4.895)" fill="#233447" stroke="#233447" stroke-linecap="round" stroke-linejoin="round" stroke-width="0.25"/>
        <path id="パス_59353" data-name="パス 59353" d="M20.513,22.391l1.38-2.9,3.335,1.524Z" transform="translate(5.165 4.895)" fill="#233447" stroke="#233447" stroke-linecap="round" stroke-linejoin="round" stroke-width="0.25"/>
        <path id="パス_59354" data-name="パス 59354" d="M11.795,30.285l.822-6.752-5.225.148Z" transform="translate(1.692 5.965)" fill="#cc6228" stroke="#cc6228" stroke-linecap="round" stroke-linejoin="round" stroke-width="0.25"/>
        <path id="パス_59355" data-name="パス 59355" d="M24.1,23.533l.805,6.752,4.42-6.6Z" transform="translate(6.115 5.965)" fill="#cc6228" stroke="#cc6228" stroke-linecap="round" stroke-linejoin="round" stroke-width="0.25"/>
        <path id="パス_59356" data-name="パス 59356" d="M29.189,17.651l-9.365.426.871,4.8,1.38-2.9L25.41,21.5Z" transform="translate(4.983 4.408)" fill="#cc6228" stroke="#cc6228" stroke-linecap="round" stroke-linejoin="round" stroke-width="0.25"/>
        <path id="パス_59357" data-name="パス 59357" d="M12.187,21.5l3.319-1.524,1.38,2.9.871-4.8-9.365-.426Z" transform="translate(1.957 4.408)" fill="#cc6228" stroke="#cc6228" stroke-linecap="round" stroke-linejoin="round" stroke-width="0.25"/>
        <path id="パス_59358" data-name="パス 59358" d="M8.392,17.651,12.319,25.3l-.132-3.8Z" transform="translate(1.957 4.408)" fill="#e27525" stroke="#e27525" stroke-linecap="round" stroke-linejoin="round" stroke-width="0.25"/>
        <path id="パス_59359" data-name="パス 59359" d="M24.272,21.5l-.148,3.8,3.927-7.653Z" transform="translate(6.122 4.408)" fill="#e27525" stroke="#e27525" stroke-linecap="round" stroke-linejoin="round" stroke-width="0.25"/>
        <path id="パス_59360" data-name="パス 59360" d="M15.979,17.987l-.871,4.8,1.1,5.67.247-7.473Z" transform="translate(3.735 4.497)" fill="#e27525" stroke="#e27525" stroke-linecap="round" stroke-linejoin="round" stroke-width="0.25"/>
        <path id="パス_59361" data-name="パス 59361" d="M19.921,17.987l-.46,2.983.23,7.489,1.1-5.67Z" transform="translate(4.887 4.497)" fill="#e27525" stroke="#e27525" stroke-linecap="round" stroke-linejoin="round" stroke-width="0.25"/>
        <path id="パス_59362" data-name="パス 59362" d="M20.743,22.072l-1.1,5.67.789.557,4.88-3.8.148-3.8Z" transform="translate(4.935 5.214)" fill="#f5841f" stroke="#f5841f" stroke-linecap="round" stroke-linejoin="round" stroke-width="0.25"/>
        <path id="パス_59363" data-name="パス 59363" d="M11.393,20.7l.132,3.8,4.88,3.8.789-.557-1.1-5.67Z" transform="translate(2.751 5.214)" fill="#f5841f" stroke="#f5841f" stroke-linecap="round" stroke-linejoin="round" stroke-width="0.25"/>
        <path id="パス_59364" data-name="パス 59364" d="M23.163,31.363l.049-1.557-.427-.361H16.509l-.411.361.033,1.557-5.258-2.491,1.84,1.508,3.73,2.573h6.391l3.746-2.573L28.4,28.872Z" transform="translate(2.614 7.378)" fill="#c0ac9d" stroke="#c0ac9d" stroke-linecap="round" stroke-linejoin="round" stroke-width="0.25"/>
        <path id="パス_59365" data-name="パス 59365" d="M21.659,26.825l-.789-.557H16.237l-.789.557L15,30.5l.411-.361h6.276l.427.361Z" transform="translate(3.707 6.689)" fill="#161616" stroke="#161616" stroke-linecap="round" stroke-linejoin="round" stroke-width="0.25"/>
        <path id="パス_59366" data-name="パス 59366" d="M37.025,14.094l1.4-6.785L36.318,1,20.266,12.881l6.178,5.211,8.724,2.54,1.922-2.245-.838-.606,1.331-1.213-1.019-.787L37.9,14.766Z" transform="translate(5.1 0)" fill="#763e1a" stroke="#763e1a" stroke-linecap="round" stroke-linejoin="round" stroke-width="0.25"/>
        <path id="パス_59367" data-name="パス 59367" d="M1,7.309l1.413,6.785-.9.672,1.347,1.016-1.019.787,1.331,1.213-.838.606,1.922,2.245,8.724-2.54,6.178-5.211L3.1,1Z" transform="translate(0 0)" fill="#763e1a" stroke="#763e1a" stroke-linecap="round" stroke-linejoin="round" stroke-width="0.25"/>
        <path id="パス_59368" data-name="パス 59368" d="M34.147,17.055l-8.724-2.54,2.629,3.966-3.927,7.653,5.192-.066h7.755Z" transform="translate(6.122 3.578)" fill="#f5841f" stroke="#f5841f" stroke-linecap="round" stroke-linejoin="round" stroke-width="0.25"/>
        <path id="パス_59369" data-name="パス 59369" d="M12.905,14.515l-8.724,2.54L1.273,26.068H9.011l5.192.066-3.927-7.653Z" transform="translate(0.072 3.578)" fill="#f5841f" stroke="#f5841f" stroke-linecap="round" stroke-linejoin="round" stroke-width="0.25"/>
        <path id="パス_59370" data-name="パス 59370" d="M21.537,21.428l.559-9.6,2.53-6.834H13.354l2.53,6.834.559,9.6.214,3.015.016,7.457h4.633l.016-7.457Z" transform="translate(3.271 1.056)" fill="#f5841f" stroke="#f5841f" stroke-linecap="round" stroke-linejoin="round" stroke-width="0.25"/>
      </g>
    </g>
  </g>
</svg>
