<svg xmlns="http://www.w3.org/2000/svg" xmlns:xlink="http://www.w3.org/1999/xlink" width="279" height="82" viewBox="0 0 279 82">
  <defs>
    <linearGradient id="linear-gradient" x1="0.047" y1="0.05" x2="1" y2="1" gradientUnits="objectBoundingBox">
      <stop offset="0" stop-color="#49a4f8"/>
      <stop offset="1" stop-color="#803de4"/>
    </linearGradient>
    <clipPath id="clip-path">
      <path id="パス_59446" data-name="パス 59446" d="M6,0H269a6,6,0,0,1,6,6V72a6,6,0,0,1-6,6H6a6,6,0,0,1-6-6V6A6,6,0,0,1,6,0Z" transform="translate(149 86)" fill="#fff" stroke="#c1c1c1" stroke-width="1"/>
    </clipPath>
    <linearGradient id="linear-gradient-2" x1="0.916" y1="-0.033" x2="0.169" xlink:href="#linear-gradient"/>
  </defs>
  <g id="グループ_69001" data-name="グループ 69001" transform="translate(-147 -700)">
    <rect id="長方形_19663" data-name="長方形 19663" width="279" height="82" rx="6" transform="translate(147 700)" fill="url(#linear-gradient)"/>
    <rect id="長方形_19665" data-name="長方形 19665" width="275" height="78" rx="5" transform="translate(149 702)" fill="#0c0c0c"/>
    <g id="マスクグループ_92" data-name="マスクグループ 92" transform="translate(0 616)" clip-path="url(#clip-path)">
      <g id="グループ_68975" data-name="グループ 68975" transform="translate(90.91 -22.935)">
        <path id="パス_59417" data-name="パス 59417" d="M46.484,1,19.824,20.726,24.782,9.1Z" transform="translate(289.613 115.373)" fill="#e17726" stroke="#e17726" stroke-linecap="round" stroke-linejoin="round" stroke-width="0.25"/>
        <path id="パス_59418" data-name="パス 59418" d="M2.663,1,29.085,20.91,24.365,9.1Z" transform="translate(271.941 115.373)" fill="#e27625" stroke="#e27625" stroke-linecap="round" stroke-linejoin="round" stroke-width="0.25"/>
        <path id="パス_59419" data-name="パス 59419" d="M31.828,23.533,24.735,34.37l15.189,4.182L44.274,23.77Z" transform="translate(294.67 138.578)" fill="#e27625" stroke="#e27625" stroke-linecap="round" stroke-linejoin="round" stroke-width="0.25"/>
        <path id="パス_59420" data-name="パス 59420" d="M1.273,23.77,5.6,38.552,20.76,34.37,13.693,23.533Z" transform="translate(270.509 138.578)" fill="#e27625" stroke="#e27625" stroke-linecap="round" stroke-linejoin="round" stroke-width="0.25"/>
        <path id="パス_59421" data-name="パス 59421" d="M12.611,19.145,8.392,25.51l15.03.684-.5-16.175Z" transform="translate(277.84 124.66)" fill="#e27625" stroke="#e27625" stroke-linecap="round" stroke-linejoin="round" stroke-width="0.25"/>
        <path id="パス_59422" data-name="パス 59422" d="M30.635,19.239,20.167,9.928l-.343,16.359,15.03-.684Z" transform="translate(289.613 124.567)" fill="#e27625" stroke="#e27625" stroke-linecap="round" stroke-linejoin="round" stroke-width="0.25"/>
        <path id="パス_59423" data-name="パス 59423" d="M10.873,34.2l9.1-4.392-7.832-6.1Z" transform="translate(280.396 138.751)" fill="#e27625" stroke="#e27625" stroke-linecap="round" stroke-linejoin="round" stroke-width="0.25"/>
        <path id="パス_59424" data-name="パス 59424" d="M20.266,29.8,29.337,34.2,28.1,23.7Z" transform="translate(290.068 138.751)" fill="#e27625" stroke="#e27625" stroke-linecap="round" stroke-linejoin="round" stroke-width="0.25"/>
        <path id="パス_59425" data-name="パス 59425" d="M29.337,31.1l-9.071-4.392L21,32.6l-.079,2.5Z" transform="translate(290.068 141.847)" fill="#d5bfb2" stroke="#d5bfb2" stroke-linecap="round" stroke-linejoin="round" stroke-width="0.25"/>
        <path id="パス_59426" data-name="パス 59426" d="M10.873,31.1l8.438,4-.053-2.5.712-5.891Z" transform="translate(280.396 141.847)" fill="#d5bfb2" stroke="#d5bfb2" stroke-linecap="round" stroke-linejoin="round" stroke-width="0.25"/>
        <path id="パス_59427" data-name="パス 59427" d="M18.934,24.146l-7.542-2.209,5.327-2.446Z" transform="translate(280.931 134.415)" fill="#233447" stroke="#233447" stroke-linecap="round" stroke-linejoin="round" stroke-width="0.25"/>
        <path id="パス_59428" data-name="パス 59428" d="M20.513,24.146l2.215-4.655,5.353,2.446Z" transform="translate(290.322 134.415)" fill="#233447" stroke="#233447" stroke-linecap="round" stroke-linejoin="round" stroke-width="0.25"/>
        <path id="パス_59429" data-name="パス 59429" d="M14.458,34.37l1.319-10.836-8.385.237Z" transform="translate(276.81 138.578)" fill="#cc6228" stroke="#cc6228" stroke-linecap="round" stroke-linejoin="round" stroke-width="0.25"/>
        <path id="パス_59430" data-name="パス 59430" d="M24.1,23.533,25.39,34.37l7.093-10.6Z" transform="translate(294.014 138.578)" fill="#cc6228" stroke="#cc6228" stroke-linecap="round" stroke-linejoin="round" stroke-width="0.25"/>
        <path id="パス_59431" data-name="パス 59431" d="M34.854,17.651l-15.03.684,1.4,7.706,2.215-4.656,5.353,2.446Z" transform="translate(289.613 132.52)" fill="#cc6228" stroke="#cc6228" stroke-linecap="round" stroke-linejoin="round" stroke-width="0.25"/>
        <path id="パス_59432" data-name="パス 59432" d="M14.483,23.831l5.327-2.446,2.215,4.656,1.4-7.706-15.03-.684Z" transform="translate(277.84 132.52)" fill="#cc6228" stroke="#cc6228" stroke-linecap="round" stroke-linejoin="round" stroke-width="0.25"/>
        <path id="パス_59433" data-name="パス 59433" d="M8.392,17.651l6.3,12.283-.211-6.1Z" transform="translate(277.841 132.52)" fill="#e27525" stroke="#e27525" stroke-linecap="round" stroke-linejoin="round" stroke-width="0.25"/>
        <path id="パス_59434" data-name="パス 59434" d="M24.362,23.831l-.237,6.1,6.3-12.283Z" transform="translate(294.041 132.52)" fill="#e27525" stroke="#e27525" stroke-linecap="round" stroke-linejoin="round" stroke-width="0.25"/>
        <path id="パス_59435" data-name="パス 59435" d="M16.506,17.987l-1.4,7.706,1.767,9.1.4-11.993Z" transform="translate(284.757 132.867)" fill="#e27525" stroke="#e27525" stroke-linecap="round" stroke-linejoin="round" stroke-width="0.25"/>
        <path id="パス_59436" data-name="パス 59436" d="M20.2,17.987l-.738,4.787.369,12.02,1.767-9.1Z" transform="translate(289.239 132.867)" fill="#e27525" stroke="#e27525" stroke-linecap="round" stroke-linejoin="round" stroke-width="0.25"/>
        <path id="パス_59437" data-name="パス 59437" d="M21.409,22.905l-1.767,9.1,1.266.894,7.832-6.1.237-6.1Z" transform="translate(289.426 135.655)" fill="#f5841f" stroke="#f5841f" stroke-linecap="round" stroke-linejoin="round" stroke-width="0.25"/>
        <path id="パス_59438" data-name="パス 59438" d="M11.393,20.7l.211,6.1,7.831,6.1,1.266-.894-1.767-9.1Z" transform="translate(280.931 135.655)" fill="#f5841f" stroke="#f5841f" stroke-linecap="round" stroke-linejoin="round" stroke-width="0.25"/>
        <path id="パス_59439" data-name="パス 59439" d="M30.6,32.87l.079-2.5-.685-.579H19.918l-.659.579.053,2.5-8.438-4,2.953,2.42,5.986,4.129H30.07l6.012-4.129,2.927-2.42Z" transform="translate(280.396 144.075)" fill="#c0ac9d" stroke="#c0ac9d" stroke-linecap="round" stroke-linejoin="round" stroke-width="0.25"/>
        <path id="パス_59440" data-name="パス 59440" d="M25.684,27.162l-1.266-.894H16.982l-1.266.894L15,33.053l.659-.579H25.737l.686.579Z" transform="translate(284.65 141.393)" fill="#161616" stroke="#161616" stroke-linecap="round" stroke-linejoin="round" stroke-width="0.25"/>
        <path id="パス_59441" data-name="パス 59441" d="M47.162,22.015,49.4,11.126,46.029,1,20.266,20.069l9.915,8.364,14,4.077,3.085-3.6-1.345-.973,2.136-1.946-1.635-1.263,2.136-1.631Z" transform="translate(290.068 115.373)" fill="#763e1a" stroke="#763e1a" stroke-linecap="round" stroke-linejoin="round" stroke-width="0.25"/>
        <path id="パス_59442" data-name="パス 59442" d="M1,11.126,3.268,22.015l-1.45,1.078L3.98,24.724,2.345,25.986l2.136,1.946-1.345.973,3.085,3.6,14-4.077,9.915-8.364L4.375,1Z" transform="translate(270.228 115.373)" fill="#763e1a" stroke="#763e1a" stroke-linecap="round" stroke-linejoin="round" stroke-width="0.25"/>
        <path id="パス_59443" data-name="パス 59443" d="M40.21,18.592l-14-4.077,4.219,6.365-6.3,12.283,8.333-.105H44.9Z" transform="translate(294.041 129.29)" fill="#f5841f" stroke="#f5841f" stroke-linecap="round" stroke-linejoin="round" stroke-width="0.25"/>
        <path id="パス_59444" data-name="パス 59444" d="M19.942,14.515l-14,4.077L1.273,33.057h12.42l8.333.105-6.3-12.283Z" transform="translate(270.509 129.29)" fill="#f5841f" stroke="#f5841f" stroke-linecap="round" stroke-linejoin="round" stroke-width="0.25"/>
        <path id="パス_59445" data-name="パス 59445" d="M26.486,31.371l.9-15.413L31.444,4.991H13.354l4.061,10.968.9,15.413.343,4.839.026,11.967h7.436l.026-11.967Z" transform="translate(282.951 119.483)" fill="#f5841f" stroke="#f5841f" stroke-linecap="round" stroke-linejoin="round" stroke-width="0.25"/>
      </g>
    </g>
    <g id="グループ_68985" data-name="グループ 68985" transform="translate(-52.748 103.043)">
      <path id="パス_59495" data-name="パス 59495" d="M1.26-9.856A12.21,12.21,0,0,1,3.43-15.05a11.722,11.722,0,0,1,4.13-3.556,11.414,11.414,0,0,1,5.32-1.274,8.443,8.443,0,0,1,5.67,1.848A7.143,7.143,0,0,1,21-12.992H15.736a3.214,3.214,0,0,0-1.33-1.834,4.24,4.24,0,0,0-2.366-.63A5.416,5.416,0,0,0,8.2-13.93,7.088,7.088,0,0,0,6.132-9.856a7.935,7.935,0,0,0-.14,1.372A4.324,4.324,0,0,0,7.084-5.376a3.938,3.938,0,0,0,3,1.148,5.3,5.3,0,0,0,2.562-.644,5.639,5.639,0,0,0,2-1.848h5.264A11.21,11.21,0,0,1,15.68-1.694,11.381,11.381,0,0,1,9.352.14a9.367,9.367,0,0,1-4.4-.98A6.889,6.889,0,0,1,2.072-3.612,8.367,8.367,0,0,1,1.064-7.784,10.831,10.831,0,0,1,1.26-9.856ZM28.672-12.8a8.434,8.434,0,0,1,2.506-2.2,5.927,5.927,0,0,1,2.954-.8l-.9,5.068H31.92a4.644,4.644,0,0,0-2.828.77,4.083,4.083,0,0,0-1.372,2.7L26.432,0H21.644l2.744-15.624h4.788Zm11.284-2.828,1.9,9.772L38.332-.532l-3.7-15.092Zm18.508,2.212a6.73,6.73,0,0,1,2.254-1.764,6.693,6.693,0,0,1,3.01-.672A5.334,5.334,0,0,1,67.8-14.2a6.274,6.274,0,0,1,1.554,4.48,11.456,11.456,0,0,1-.168,1.876A10.852,10.852,0,0,1,67.536-3.6,8.9,8.9,0,0,1,64.568-.77,7.271,7.271,0,0,1,60.9.224a5.245,5.245,0,0,1-2.744-.672A4.209,4.209,0,0,1,56.5-2.184L54.8,7.448H50.008l4.06-23.072h4.788Zm5.88,5.572a5.031,5.031,0,0,0,.084-.868,2.922,2.922,0,0,0-.8-2.184,2.776,2.776,0,0,0-2.03-.784A3.849,3.849,0,0,0,59-10.64a4.816,4.816,0,0,0-1.512,2.828,5.655,5.655,0,0,0-.084.924,2.913,2.913,0,0,0,.784,2.156,2.729,2.729,0,0,0,2.016.784A3.872,3.872,0,0,0,62.818-5,4.847,4.847,0,0,0,64.344-7.84ZM76.832-5.376a1.919,1.919,0,0,0-.028.364.857.857,0,0,0,.294.728,1.618,1.618,0,0,0,.966.224h1.708L79.044,0H76.608q-4.7,0-4.7-3.948a9.957,9.957,0,0,1,.14-1.484l1.12-6.216h-1.9l.7-3.976h1.9l.672-3.808h4.788l-.672,3.808h3.136l-.7,3.976H77.952ZM88.844.224A7.681,7.681,0,0,1,85.26-.588a5.811,5.811,0,0,1-2.422-2.3,6.782,6.782,0,0,1-.854-3.444,9.518,9.518,0,0,1,1.26-4.844,9.079,9.079,0,0,1,3.472-3.43,9.866,9.866,0,0,1,4.928-1.246,7.658,7.658,0,0,1,3.6.826,5.974,5.974,0,0,1,2.45,2.31,6.7,6.7,0,0,1,.868,3.444A9.416,9.416,0,0,1,97.286-4.41a9.082,9.082,0,0,1-3.5,3.4A10.033,10.033,0,0,1,88.844.224Zm.672-4.116a3.4,3.4,0,0,0,2.114-.714,4.765,4.765,0,0,0,1.456-1.848A5.632,5.632,0,0,0,93.6-8.82a2.917,2.917,0,0,0-.756-2.156,2.581,2.581,0,0,0-1.9-.756,3.327,3.327,0,0,0-2.114.714,4.737,4.737,0,0,0-1.414,1.862,5.926,5.926,0,0,0-.5,2.408,2.893,2.893,0,0,0,.728,2.114A2.513,2.513,0,0,0,89.516-3.892Zm33.292-9.6a7.188,7.188,0,0,1-1.26,2.94,7.018,7.018,0,0,1-2.7,2.212,9.34,9.34,0,0,1-4.13.84H111.44L110.124,0h-3.948l3.472-19.544h7.2a6.765,6.765,0,0,1,4.536,1.33,4.446,4.446,0,0,1,1.54,3.542A5.719,5.719,0,0,1,122.808-13.5Zm-7.7,2.912a3.771,3.771,0,0,0,2.52-.784A3.544,3.544,0,0,0,118.8-13.5a3.578,3.578,0,0,0,.056-.728q0-2.212-2.744-2.212h-3.08L112-10.584Zm8.484,2.772a10.579,10.579,0,0,1,1.666-4.172,8.761,8.761,0,0,1,3.038-2.8,7.765,7.765,0,0,1,3.78-.98,5.683,5.683,0,0,1,2.926.7,4.47,4.47,0,0,1,1.75,1.764l.392-2.212h3.948L138.348,0H134.4l.42-2.268a7.2,7.2,0,0,1-2.394,1.806,7.239,7.239,0,0,1-3.206.714,5.876,5.876,0,0,1-3.024-.77A5.254,5.254,0,0,1,124.152-2.7a7.092,7.092,0,0,1-.728-3.29A10.48,10.48,0,0,1,123.592-7.812Zm12.18.056a7.859,7.859,0,0,0,.112-1.064,6.093,6.093,0,0,0-.966-2.576,6.1,6.1,0,0,0-2.422-.924,4.524,4.524,0,0,0-2.114.532,5.19,5.19,0,0,0-1.778,1.554A5.708,5.708,0,0,0,127.6-7.812a6.474,6.474,0,0,0-.084,1.008,3.606,3.606,0,0,0,.952,2.646,3.239,3.239,0,0,0,2.408.966A4.512,4.512,0,0,0,133-3.738a5.112,5.112,0,0,0,1.778-1.582A5.923,5.923,0,0,0,135.772-7.756Zm11.76-7.756L149.6-4.676l6.02-10.836H159.8L146.16,7.336h-4.172l4.7-7.728-3.556-15.12Z" transform="translate(233.684 648.21)" fill="#fff"/>
      <path id="パス_59382" data-name="パス 59382" d="M3449.488,366.613l14.549-24.252h5.451L3454.9,366.613Z" transform="translate(-3182.991 289.718)" fill="url(#linear-gradient-2)"/>
    </g>
  </g>
</svg>
