<svg xmlns="http://www.w3.org/2000/svg" xmlns:xlink="http://www.w3.org/1999/xlink" width="279" height="82" viewBox="0 0 279 82">
  <defs>
    <linearGradient id="linear-gradient" x1="0.047" y1="0.05" x2="1" y2="1" gradientUnits="objectBoundingBox">
      <stop offset="0" stop-color="#49a4f8"/>
      <stop offset="1" stop-color="#803de4"/>
    </linearGradient>
    <clipPath id="clip-path">
      <path id="パス_59450" data-name="パス 59450" d="M5,0H270a5,5,0,0,1,5,5V73a5,5,0,0,1-5,5H5a5,5,0,0,1-5-5V5A5,5,0,0,1,5,0Z" transform="translate(149 894)" fill="#0c0c0c"/>
    </clipPath>
    <linearGradient id="linear-gradient-2" x1="0.916" y1="-0.033" x2="0.169" xlink:href="#linear-gradient"/>
  </defs>
  <g id="グループ_69005" data-name="グループ 69005" transform="translate(-147 -892)">
    <rect id="長方形_19668" data-name="長方形 19668" width="279" height="82" rx="6" transform="translate(147 892)" fill="url(#linear-gradient)"/>
    <path id="パス_59447" data-name="パス 59447" d="M5,0H270a5,5,0,0,1,5,5V73a5,5,0,0,1-5,5H5a5,5,0,0,1-5-5V5A5,5,0,0,1,5,0Z" transform="translate(149 894)" fill="#0c0c0c"/>
    <path id="パス_59544" data-name="パス 59544" d="M4.725-7.938,5.5-12.327h2.31c1.68,0,2.247.861,2.016,2.205A2.528,2.528,0,0,1,7.056-7.938Zm8.106-2.184c.441-2.541-.945-4.536-4.473-4.536h-5.4L.357,0H3.318L4.3-5.628H6.762C10.542-5.628,12.453-7.9,12.831-10.122Zm.588,4.263C12.768-2.226,14.7.189,17.64.189a5.557,5.557,0,0,0,4.2-1.89L21.525,0h2.961l2.058-11.634H23.583l-.294,1.659a3.731,3.731,0,0,0-3.507-1.848C16.821-11.823,14.049-9.492,13.419-5.859Zm9.135.042a3.877,3.877,0,0,1-3.675,3.423c-1.575,0-2.835-1.26-2.457-3.465A3.867,3.867,0,0,1,20.1-9.24C21.693-9.24,22.953-8.022,22.554-5.817Zm8.19,5.523L27.216,5.5h3.129L40.572-11.634H37.443L32.928-3.507l-1.554-8.127h-3.3ZM56.364,0h2.919L60.5-6.825c.567-3.213-1.092-4.977-3.885-4.977a5.589,5.589,0,0,0-4.389,2.226,3.627,3.627,0,0,0-3.7-2.226,5.149,5.149,0,0,0-3.7,1.554l.252-1.386H42.126L40.068,0h2.961L44.2-6.615A3.019,3.019,0,0,1,47.271-9.24c1.575,0,2.415.966,2.1,2.814L48.237,0h2.919l1.155-6.447v.021A3.028,3.028,0,0,1,55.419-9.24c1.554,0,2.394.966,2.079,2.814Zm12.39-9.408a2.137,2.137,0,0,1,2.31,2.625H65.52A3.4,3.4,0,0,1,68.754-9.408Zm4.494,5.754H70.077a2.883,2.883,0,0,1-2.562,1.407A2.227,2.227,0,0,1,65.205-5h8.5a8.291,8.291,0,0,0,.273-1.092c.609-3.444-1.365-5.733-4.725-5.733A6.905,6.905,0,0,0,62.37-5.817C61.7-2.163,63.777.189,67.158.189A6.67,6.67,0,0,0,73.248-3.654ZM83.2,0h2.919l1.218-6.825c.567-3.213-1.05-4.977-3.78-4.977a5.246,5.246,0,0,0-3.759,1.6l.252-1.428H77.091L75.033,0h2.961l1.155-6.573A3.085,3.085,0,0,1,82.257-9.3c1.554,0,2.394,1.008,2.079,2.877Zm6.825-3.612C89.565-.945,90.867,0,93.093,0h1.869L95.4-2.478H94.017c-.9,0-1.155-.336-1.029-1.113l.987-5.628h2.6L97-11.634H94.416l.5-2.877H91.959l-.5,2.877H90.048l-.42,2.415h1.386Z" transform="translate(306.5 941.1)" fill="#fff"/>
    <g id="グループ_68977" data-name="グループ 68977" transform="translate(22 447)">
      <path id="パス_59497" data-name="パス 59497" d="M1.26-9.856A12.21,12.21,0,0,1,3.43-15.05a11.722,11.722,0,0,1,4.13-3.556,11.414,11.414,0,0,1,5.32-1.274,8.443,8.443,0,0,1,5.67,1.848A7.143,7.143,0,0,1,21-12.992H15.736a3.214,3.214,0,0,0-1.33-1.834,4.24,4.24,0,0,0-2.366-.63A5.416,5.416,0,0,0,8.2-13.93,7.088,7.088,0,0,0,6.132-9.856a7.935,7.935,0,0,0-.14,1.372A4.324,4.324,0,0,0,7.084-5.376a3.938,3.938,0,0,0,3,1.148,5.3,5.3,0,0,0,2.562-.644,5.639,5.639,0,0,0,2-1.848h5.264A11.21,11.21,0,0,1,15.68-1.694,11.381,11.381,0,0,1,9.352.14a9.367,9.367,0,0,1-4.4-.98A6.889,6.889,0,0,1,2.072-3.612,8.367,8.367,0,0,1,1.064-7.784,10.831,10.831,0,0,1,1.26-9.856ZM28.672-12.8a8.434,8.434,0,0,1,2.506-2.2,5.927,5.927,0,0,1,2.954-.8l-.9,5.068H31.92a4.644,4.644,0,0,0-2.828.77,4.083,4.083,0,0,0-1.372,2.7L26.432,0H21.644l2.744-15.624h4.788Zm11.284-2.828,1.9,9.772L38.332-.532l-3.7-15.092Zm18.508,2.212a6.73,6.73,0,0,1,2.254-1.764,6.693,6.693,0,0,1,3.01-.672A5.334,5.334,0,0,1,67.8-14.2a6.274,6.274,0,0,1,1.554,4.48,11.456,11.456,0,0,1-.168,1.876A10.852,10.852,0,0,1,67.536-3.6,8.9,8.9,0,0,1,64.568-.77,7.271,7.271,0,0,1,60.9.224a5.245,5.245,0,0,1-2.744-.672A4.209,4.209,0,0,1,56.5-2.184L54.8,7.448H50.008l4.06-23.072h4.788Zm5.88,5.572a5.031,5.031,0,0,0,.084-.868,2.922,2.922,0,0,0-.8-2.184,2.776,2.776,0,0,0-2.03-.784A3.849,3.849,0,0,0,59-10.64a4.816,4.816,0,0,0-1.512,2.828,5.655,5.655,0,0,0-.084.924,2.913,2.913,0,0,0,.784,2.156,2.729,2.729,0,0,0,2.016.784A3.872,3.872,0,0,0,62.818-5,4.847,4.847,0,0,0,64.344-7.84ZM76.832-5.376a1.919,1.919,0,0,0-.028.364.857.857,0,0,0,.294.728,1.618,1.618,0,0,0,.966.224h1.708L79.044,0H76.608q-4.7,0-4.7-3.948a9.957,9.957,0,0,1,.14-1.484l1.12-6.216h-1.9l.7-3.976h1.9l.672-3.808h4.788l-.672,3.808h3.136l-.7,3.976H77.952ZM88.844.224A7.681,7.681,0,0,1,85.26-.588a5.811,5.811,0,0,1-2.422-2.3,6.782,6.782,0,0,1-.854-3.444,9.518,9.518,0,0,1,1.26-4.844,9.079,9.079,0,0,1,3.472-3.43,9.866,9.866,0,0,1,4.928-1.246,7.658,7.658,0,0,1,3.6.826,5.974,5.974,0,0,1,2.45,2.31,6.7,6.7,0,0,1,.868,3.444A9.416,9.416,0,0,1,97.286-4.41a9.082,9.082,0,0,1-3.5,3.4A10.033,10.033,0,0,1,88.844.224Zm.672-4.116a3.4,3.4,0,0,0,2.114-.714,4.765,4.765,0,0,0,1.456-1.848A5.632,5.632,0,0,0,93.6-8.82a2.917,2.917,0,0,0-.756-2.156,2.581,2.581,0,0,0-1.9-.756,3.327,3.327,0,0,0-2.114.714,4.737,4.737,0,0,0-1.414,1.862,5.926,5.926,0,0,0-.5,2.408,2.893,2.893,0,0,0,.728,2.114A2.513,2.513,0,0,0,89.516-3.892Z" transform="translate(178.936 493.879)" fill="#fff"/>
      <path id="パス_59380" data-name="パス 59380" d="M3449.488,366.613l14.549-24.252h5.451L3454.9,366.613Z" transform="translate(-3237.74 135.387)" fill="url(#linear-gradient-2)"/>
    </g>
    <g id="グループ_68978" data-name="グループ 68978" transform="translate(-105.87 804.627)">
      <path id="パス_59385" data-name="パス 59385" d="M30.554,1,19.824,8.939l2-4.679Z" transform="translate(266.782 115.373)" fill="#e17726" stroke="#e17726" stroke-linecap="round" stroke-linejoin="round" stroke-width="0.25"/>
      <path id="パス_59386" data-name="パス 59386" d="M2.663,1,13.3,9.013,11.4,4.26Z" transform="translate(269.924 115.373)" fill="#e27625" stroke="#e27625" stroke-linecap="round" stroke-linejoin="round" stroke-width="0.25"/>
      <path id="パス_59387" data-name="パス 59387" d="M27.589,23.533l-2.855,4.361,6.113,1.683L32.6,23.629Z" transform="translate(265.883 111.247)" fill="#e27625" stroke="#e27625" stroke-linecap="round" stroke-linejoin="round" stroke-width="0.25"/>
      <path id="パス_59388" data-name="パス 59388" d="M1.273,23.629l1.74,5.949,6.1-1.683L6.271,23.533Z" transform="translate(270.178 111.247)" fill="#e27625" stroke="#e27625" stroke-linecap="round" stroke-linejoin="round" stroke-width="0.25"/>
      <path id="パス_59389" data-name="パス 59389" d="M10.09,13.692l-1.7,2.562,6.049.275-.2-6.51Z" transform="translate(268.875 113.722)" fill="#e27625" stroke="#e27625" stroke-linecap="round" stroke-linejoin="round" stroke-width="0.25"/>
      <path id="パス_59390" data-name="パス 59390" d="M24.175,13.675,19.962,9.928l-.138,6.584,6.049-.275Z" transform="translate(266.782 113.738)" fill="#e27625" stroke="#e27625" stroke-linecap="round" stroke-linejoin="round" stroke-width="0.25"/>
      <path id="パス_59391" data-name="パス 59391" d="M10.873,27.925l3.661-1.768L11.383,23.7Z" transform="translate(268.421 111.217)" fill="#e27625" stroke="#e27625" stroke-linecap="round" stroke-linejoin="round" stroke-width="0.25"/>
      <path id="パス_59392" data-name="パス 59392" d="M20.266,26.158l3.651,1.768-.5-4.224Z" transform="translate(266.701 111.217)" fill="#e27625" stroke="#e27625" stroke-linecap="round" stroke-linejoin="round" stroke-width="0.25"/>
      <path id="パス_59393" data-name="パス 59393" d="M23.917,28.476l-3.651-1.768.3,2.371-.032,1.006Z" transform="translate(266.701 110.666)" fill="#d5bfb2" stroke="#d5bfb2" stroke-linecap="round" stroke-linejoin="round" stroke-width="0.25"/>
      <path id="パス_59394" data-name="パス 59394" d="M10.873,28.476l3.4,1.609-.021-1.006.286-2.371Z" transform="translate(268.421 110.666)" fill="#d5bfb2" stroke="#d5bfb2" stroke-linecap="round" stroke-linejoin="round" stroke-width="0.25"/>
      <path id="パス_59395" data-name="パス 59395" d="M14.428,21.364l-3.035-.889,2.144-.984Z" transform="translate(268.326 111.988)" fill="#233447" stroke="#233447" stroke-linecap="round" stroke-linejoin="round" stroke-width="0.25"/>
      <path id="パス_59396" data-name="パス 59396" d="M20.513,21.364l.891-1.874,2.154.984Z" transform="translate(266.656 111.988)" fill="#233447" stroke="#233447" stroke-linecap="round" stroke-linejoin="round" stroke-width="0.25"/>
      <path id="パス_59397" data-name="パス 59397" d="M10.236,27.895l.531-4.361-3.375.1Z" transform="translate(269.058 111.247)" fill="#cc6228" stroke="#cc6228" stroke-linecap="round" stroke-linejoin="round" stroke-width="0.25"/>
      <path id="パス_59398" data-name="パス 59398" d="M24.1,23.533l.52,4.361,2.855-4.266Z" transform="translate(265.999 111.247)" fill="#cc6228" stroke="#cc6228" stroke-linecap="round" stroke-linejoin="round" stroke-width="0.25"/>
      <path id="パス_59399" data-name="パス 59399" d="M25.873,17.651l-6.049.275.562,3.1.891-1.874,2.154.984Z" transform="translate(266.782 112.325)" fill="#cc6228" stroke="#cc6228" stroke-linecap="round" stroke-linejoin="round" stroke-width="0.25"/>
      <path id="パス_59400" data-name="パス 59400" d="M10.843,20.138l2.144-.984.891,1.874.562-3.1-6.049-.275Z" transform="translate(268.875 112.325)" fill="#cc6228" stroke="#cc6228" stroke-linecap="round" stroke-linejoin="round" stroke-width="0.25"/>
      <path id="パス_59401" data-name="パス 59401" d="M8.392,17.651l2.536,4.943-.085-2.456Z" transform="translate(268.875 112.325)" fill="#e27525" stroke="#e27525" stroke-linecap="round" stroke-linejoin="round" stroke-width="0.25"/>
      <path id="パス_59402" data-name="パス 59402" d="M24.22,20.138l-.1,2.456,2.536-4.943Z" transform="translate(265.995 112.325)" fill="#e27525" stroke="#e27525" stroke-linecap="round" stroke-linejoin="round" stroke-width="0.25"/>
      <path id="パス_59403" data-name="パス 59403" d="M15.671,17.987l-.563,3.1.711,3.662.159-4.827Z" transform="translate(267.645 112.263)" fill="#e27525" stroke="#e27525" stroke-linecap="round" stroke-linejoin="round" stroke-width="0.25"/>
      <path id="パス_59404" data-name="パス 59404" d="M19.758,17.987l-.3,1.927.149,4.837.711-3.662Z" transform="translate(266.848 112.263)" fill="#e27525" stroke="#e27525" stroke-linecap="round" stroke-linejoin="round" stroke-width="0.25"/>
      <path id="パス_59405" data-name="パス 59405" d="M20.353,21.585l-.711,3.662.509.36L23.3,23.152l.1-2.456Z" transform="translate(266.815 111.767)" fill="#f5841f" stroke="#f5841f" stroke-linecap="round" stroke-linejoin="round" stroke-width="0.25"/>
      <path id="パス_59406" data-name="パス 59406" d="M11.393,20.7l.085,2.456,3.152,2.456.509-.36-.711-3.662Z" transform="translate(268.326 111.767)" fill="#f5841f" stroke="#f5841f" stroke-linecap="round" stroke-linejoin="round" stroke-width="0.25"/>
      <path id="パス_59407" data-name="パス 59407" d="M18.812,30.481l.032-1.006-.276-.233H14.513l-.265.233.021,1.006-3.4-1.609,1.189.974,2.409,1.662H18.6l2.42-1.662,1.178-.974Z" transform="translate(268.421 110.27)" fill="#c0ac9d" stroke="#c0ac9d" stroke-linecap="round" stroke-linejoin="round" stroke-width="0.25"/>
      <path id="パス_59408" data-name="パス 59408" d="M19.3,26.627l-.509-.36H15.8l-.509.36L15,29l.265-.233h4.054L19.6,29Z" transform="translate(267.664 110.747)" fill="#161616" stroke="#161616" stroke-linecap="round" stroke-linejoin="round" stroke-width="0.25"/>
      <path id="パス_59409" data-name="パス 59409" d="M31.091,9.458l.9-4.382L30.634,1,20.266,8.674l3.99,3.366,5.635,1.641,1.242-1.45-.541-.392.86-.783-.658-.508.86-.656Z" transform="translate(266.701 115.373)" fill="#763e1a" stroke="#763e1a" stroke-linecap="round" stroke-linejoin="round" stroke-width="0.25"/>
      <path id="パス_59410" data-name="パス 59410" d="M1,5.075l.913,4.382-.584.434.87.656-.658.508.86.783-.541.392L3.1,13.681,8.737,12.04l3.99-3.366L2.358,1Z" transform="translate(270.228 115.373)" fill="#763e1a" stroke="#763e1a" stroke-linecap="round" stroke-linejoin="round" stroke-width="0.25"/>
      <path id="パス_59411" data-name="パス 59411" d="M30.6,16.156l-5.635-1.641,1.7,2.562L24.124,22.02l3.354-.042h5.009Z" transform="translate(265.995 112.899)" fill="#f5841f" stroke="#f5841f" stroke-linecap="round" stroke-linejoin="round" stroke-width="0.25"/>
      <path id="パス_59412" data-name="パス 59412" d="M8.786,14.515,3.151,16.156,1.273,21.978h5l3.354.042L7.088,17.077Z" transform="translate(270.178 112.899)" fill="#f5841f" stroke="#f5841f" stroke-linecap="round" stroke-linejoin="round" stroke-width="0.25"/>
      <path id="パス_59413" data-name="パス 59413" d="M18.64,15.608,19,9.405l1.634-4.414h-7.28l1.634,4.414.361,6.2.138,1.948.011,4.816h2.993l.011-4.816Z" transform="translate(267.966 114.642)" fill="#f5841f" stroke="#f5841f" stroke-linecap="round" stroke-linejoin="round" stroke-width="0.25"/>
    </g>
  </g>
</svg>
