<svg xmlns="http://www.w3.org/2000/svg" xmlns:xlink="http://www.w3.org/1999/xlink" width="279" height="82" viewBox="0 0 279 82">
  <defs>
    <linearGradient id="linear-gradient" x1="0.047" y1="0.05" x2="1" y2="1" gradientUnits="objectBoundingBox">
      <stop offset="0" stop-color="#49a4f8"/>
      <stop offset="1" stop-color="#803de4"/>
    </linearGradient>
    <clipPath id="clip-path">
      <path id="パス_59540" data-name="パス 59540" d="M5,0H270a5,5,0,0,1,5,5V73a5,5,0,0,1-5,5H5a5,5,0,0,1-5-5V5A5,5,0,0,1,5,0Z" transform="translate(149 894)" fill="#0c0c0c"/>
    </clipPath>
    <filter id="楕円形_10" x="-117.35" y="-50.5" width="272.409" height="272.409" filterUnits="userSpaceOnUse">
      <feOffset input="SourceAlpha"/>
      <feGaussianBlur stdDeviation="17.5" result="blur"/>
      <feFlood flood-color="#800fff" flood-opacity="0.569"/>
      <feComposite operator="in" in2="blur"/>
    </filter>
    <filter id="パス_59539" x="126.185" y="-132.166" width="257.339" height="257.339" filterUnits="userSpaceOnUse">
      <feOffset input="SourceAlpha"/>
      <feGaussianBlur stdDeviation="17.5" result="blur-2"/>
      <feFlood flood-color="#4698f9"/>
      <feComposite operator="in" in2="blur-2"/>
    </filter>
    <linearGradient id="linear-gradient-2" x1="0.916" y1="-0.033" x2="0.169" xlink:href="#linear-gradient"/>
  </defs>
  <g id="グループ_69000" data-name="グループ 69000" transform="translate(-467 -597)">
    <rect id="長方形_19676" data-name="長方形 19676" width="279" height="82" rx="6" transform="translate(467 597)" fill="url(#linear-gradient)"/>
    <path id="パス_59498" data-name="パス 59498" d="M5,0H270a5,5,0,0,1,5,5V73a5,5,0,0,1-5,5H5a5,5,0,0,1-5-5V5A5,5,0,0,1,5,0Z" transform="translate(469 599)"/>
    <g id="マスクグループ_104" data-name="マスクグループ 104" transform="translate(320 -295)" clip-path="url(#clip-path)">
      <g transform="matrix(1, 0, 0, 1, 147, 892)" filter="url(#楕円形_10)">
        <circle id="楕円形_10-2" data-name="楕円形 10" cx="61" cy="61" r="61" transform="translate(102.56 106.57) rotate(149)" fill="#fff" opacity="0.73"/>
      </g>
      <g transform="matrix(1, 0, 0, 1, 147, 892)" filter="url(#パス_59539)">
        <path id="パス_59539-2" data-name="パス 59539" d="M61,0A61,61,0,1,1,0,61,61,61,0,0,1,61,0Z" transform="translate(331.02 37) rotate(163)" fill="#fff" opacity="0.55"/>
      </g>
    </g>
    <g id="metamask-seeklogo.com" transform="translate(496 617)">
      <path id="パス_59342" data-name="パス 59342" d="M36.435,1,19.824,13.291l3.089-7.243Z" transform="translate(4.983 0)" fill="#e17726" stroke="#e17726" stroke-linecap="round" stroke-linejoin="round" stroke-width="0.25"/>
      <path id="パス_59343" data-name="パス 59343" d="M2.663,1,19.126,13.406,16.185,6.047Z" transform="translate(0.44 0)" fill="#e27625" stroke="#e27625" stroke-linecap="round" stroke-linejoin="round" stroke-width="0.25"/>
      <path id="パス_59344" data-name="パス 59344" d="M29.154,23.533l-4.42,6.752L34.2,32.891l2.711-9.21Z" transform="translate(6.283 5.965)" fill="#e27625" stroke="#e27625" stroke-linecap="round" stroke-linejoin="round" stroke-width="0.25"/>
      <path id="パス_59345" data-name="パス 59345" d="M1.273,23.681l2.695,9.21,9.447-2.606-4.4-6.752Z" transform="translate(0.072 5.965)" fill="#e27625" stroke="#e27625" stroke-linecap="round" stroke-linejoin="round" stroke-width="0.25"/>
      <path id="パス_59346" data-name="パス 59346" d="M11.021,15.705,8.392,19.671l9.365.426-.312-10.079Z" transform="translate(1.957 2.387)" fill="#e27625" stroke="#e27625" stroke-linecap="round" stroke-linejoin="round" stroke-width="0.25"/>
      <path id="パス_59347" data-name="パス 59347" d="M26.56,15.729l-6.523-5.8-.214,10.193,9.365-.426Z" transform="translate(4.983 2.363)" fill="#e27625" stroke="#e27625" stroke-linecap="round" stroke-linejoin="round" stroke-width="0.25"/>
      <path id="パス_59348" data-name="パス 59348" d="M10.873,30.241,16.542,27.5l-4.88-3.8Z" transform="translate(2.614 6.01)" fill="#e27625" stroke="#e27625" stroke-linecap="round" stroke-linejoin="round" stroke-width="0.25"/>
      <path id="パス_59349" data-name="パス 59349" d="M20.266,27.5l5.652,2.737L25.146,23.7Z" transform="translate(5.1 6.01)" fill="#e27625" stroke="#e27625" stroke-linecap="round" stroke-linejoin="round" stroke-width="0.25"/>
      <path id="パス_59350" data-name="パス 59350" d="M25.918,29.445l-5.652-2.737.46,3.671-.049,1.557Z" transform="translate(5.1 6.806)" fill="#d5bfb2" stroke="#d5bfb2" stroke-linecap="round" stroke-linejoin="round" stroke-width="0.25"/>
      <path id="パス_59351" data-name="パス 59351" d="M10.873,29.445l5.258,2.491L16.1,30.379l.444-3.671Z" transform="translate(2.614 6.806)" fill="#d5bfb2" stroke="#d5bfb2" stroke-linecap="round" stroke-linejoin="round" stroke-width="0.25"/>
      <path id="パス_59352" data-name="パス 59352" d="M16.092,22.391l-4.7-1.377,3.319-1.524Z" transform="translate(2.751 4.895)" fill="#233447" stroke="#233447" stroke-linecap="round" stroke-linejoin="round" stroke-width="0.25"/>
      <path id="パス_59353" data-name="パス 59353" d="M20.513,22.391l1.38-2.9,3.335,1.524Z" transform="translate(5.165 4.895)" fill="#233447" stroke="#233447" stroke-linecap="round" stroke-linejoin="round" stroke-width="0.25"/>
      <path id="パス_59354" data-name="パス 59354" d="M11.795,30.285l.822-6.752-5.225.148Z" transform="translate(1.692 5.965)" fill="#cc6228" stroke="#cc6228" stroke-linecap="round" stroke-linejoin="round" stroke-width="0.25"/>
      <path id="パス_59355" data-name="パス 59355" d="M24.1,23.533l.805,6.752,4.42-6.6Z" transform="translate(6.115 5.965)" fill="#cc6228" stroke="#cc6228" stroke-linecap="round" stroke-linejoin="round" stroke-width="0.25"/>
      <path id="パス_59356" data-name="パス 59356" d="M29.189,17.651l-9.365.426.871,4.8,1.38-2.9L25.41,21.5Z" transform="translate(4.983 4.408)" fill="#cc6228" stroke="#cc6228" stroke-linecap="round" stroke-linejoin="round" stroke-width="0.25"/>
      <path id="パス_59357" data-name="パス 59357" d="M12.187,21.5l3.319-1.524,1.38,2.9.871-4.8-9.365-.426Z" transform="translate(1.957 4.408)" fill="#cc6228" stroke="#cc6228" stroke-linecap="round" stroke-linejoin="round" stroke-width="0.25"/>
      <path id="パス_59358" data-name="パス 59358" d="M8.392,17.651,12.319,25.3l-.132-3.8Z" transform="translate(1.957 4.408)" fill="#e27525" stroke="#e27525" stroke-linecap="round" stroke-linejoin="round" stroke-width="0.25"/>
      <path id="パス_59359" data-name="パス 59359" d="M24.272,21.5l-.148,3.8,3.927-7.653Z" transform="translate(6.122 4.408)" fill="#e27525" stroke="#e27525" stroke-linecap="round" stroke-linejoin="round" stroke-width="0.25"/>
      <path id="パス_59360" data-name="パス 59360" d="M15.979,17.987l-.871,4.8,1.1,5.67.247-7.473Z" transform="translate(3.735 4.497)" fill="#e27525" stroke="#e27525" stroke-linecap="round" stroke-linejoin="round" stroke-width="0.25"/>
      <path id="パス_59361" data-name="パス 59361" d="M19.921,17.987l-.46,2.983.23,7.489,1.1-5.67Z" transform="translate(4.887 4.497)" fill="#e27525" stroke="#e27525" stroke-linecap="round" stroke-linejoin="round" stroke-width="0.25"/>
      <path id="パス_59362" data-name="パス 59362" d="M20.743,22.072l-1.1,5.67.789.557,4.88-3.8.148-3.8Z" transform="translate(4.935 5.214)" fill="#f5841f" stroke="#f5841f" stroke-linecap="round" stroke-linejoin="round" stroke-width="0.25"/>
      <path id="パス_59363" data-name="パス 59363" d="M11.393,20.7l.132,3.8,4.88,3.8.789-.557-1.1-5.67Z" transform="translate(2.751 5.214)" fill="#f5841f" stroke="#f5841f" stroke-linecap="round" stroke-linejoin="round" stroke-width="0.25"/>
      <path id="パス_59364" data-name="パス 59364" d="M23.163,31.363l.049-1.557-.427-.361H16.509l-.411.361.033,1.557-5.258-2.491,1.84,1.508,3.73,2.573h6.391l3.746-2.573L28.4,28.872Z" transform="translate(2.614 7.378)" fill="#c0ac9d" stroke="#c0ac9d" stroke-linecap="round" stroke-linejoin="round" stroke-width="0.25"/>
      <path id="パス_59365" data-name="パス 59365" d="M21.659,26.825l-.789-.557H16.237l-.789.557L15,30.5l.411-.361h6.276l.427.361Z" transform="translate(3.707 6.689)" fill="#161616" stroke="#161616" stroke-linecap="round" stroke-linejoin="round" stroke-width="0.25"/>
      <path id="パス_59366" data-name="パス 59366" d="M37.025,14.094l1.4-6.785L36.318,1,20.266,12.881l6.178,5.211,8.724,2.54,1.922-2.245-.838-.606,1.331-1.213-1.019-.787L37.9,14.766Z" transform="translate(5.1 0)" fill="#763e1a" stroke="#763e1a" stroke-linecap="round" stroke-linejoin="round" stroke-width="0.25"/>
      <path id="パス_59367" data-name="パス 59367" d="M1,7.309l1.413,6.785-.9.672,1.347,1.016-1.019.787,1.331,1.213-.838.606,1.922,2.245,8.724-2.54,6.178-5.211L3.1,1Z" transform="translate(0 0)" fill="#763e1a" stroke="#763e1a" stroke-linecap="round" stroke-linejoin="round" stroke-width="0.25"/>
      <path id="パス_59368" data-name="パス 59368" d="M34.147,17.055l-8.724-2.54,2.629,3.966-3.927,7.653,5.192-.066h7.755Z" transform="translate(6.122 3.578)" fill="#f5841f" stroke="#f5841f" stroke-linecap="round" stroke-linejoin="round" stroke-width="0.25"/>
      <path id="パス_59369" data-name="パス 59369" d="M12.905,14.515l-8.724,2.54L1.273,26.068H9.011l5.192.066-3.927-7.653Z" transform="translate(0.072 3.578)" fill="#f5841f" stroke="#f5841f" stroke-linecap="round" stroke-linejoin="round" stroke-width="0.25"/>
      <path id="パス_59370" data-name="パス 59370" d="M21.537,21.428l.559-9.6,2.53-6.834H13.354l2.53,6.834.559,9.6.214,3.015.016,7.457h4.633l.016-7.457Z" transform="translate(3.271 1.056)" fill="#f5841f" stroke="#f5841f" stroke-linecap="round" stroke-linejoin="round" stroke-width="0.25"/>
    </g>
    <g id="グループ_68987" data-name="グループ 68987" transform="translate(322)">
      <path id="パス_59495" data-name="パス 59495" d="M1.26-9.856A12.21,12.21,0,0,1,3.43-15.05a11.722,11.722,0,0,1,4.13-3.556,11.414,11.414,0,0,1,5.32-1.274,8.443,8.443,0,0,1,5.67,1.848A7.143,7.143,0,0,1,21-12.992H15.736a3.214,3.214,0,0,0-1.33-1.834,4.24,4.24,0,0,0-2.366-.63A5.416,5.416,0,0,0,8.2-13.93,7.088,7.088,0,0,0,6.132-9.856a7.935,7.935,0,0,0-.14,1.372A4.324,4.324,0,0,0,7.084-5.376a3.938,3.938,0,0,0,3,1.148,5.3,5.3,0,0,0,2.562-.644,5.639,5.639,0,0,0,2-1.848h5.264A11.21,11.21,0,0,1,15.68-1.694,11.381,11.381,0,0,1,9.352.14a9.367,9.367,0,0,1-4.4-.98A6.889,6.889,0,0,1,2.072-3.612,8.367,8.367,0,0,1,1.064-7.784,10.831,10.831,0,0,1,1.26-9.856ZM28.672-12.8a8.434,8.434,0,0,1,2.506-2.2,5.927,5.927,0,0,1,2.954-.8l-.9,5.068H31.92a4.644,4.644,0,0,0-2.828.77,4.083,4.083,0,0,0-1.372,2.7L26.432,0H21.644l2.744-15.624h4.788Zm11.284-2.828,1.9,9.772L38.332-.532l-3.7-15.092Zm18.508,2.212a6.73,6.73,0,0,1,2.254-1.764,6.693,6.693,0,0,1,3.01-.672A5.334,5.334,0,0,1,67.8-14.2a6.274,6.274,0,0,1,1.554,4.48,11.456,11.456,0,0,1-.168,1.876A10.852,10.852,0,0,1,67.536-3.6,8.9,8.9,0,0,1,64.568-.77,7.271,7.271,0,0,1,60.9.224a5.245,5.245,0,0,1-2.744-.672A4.209,4.209,0,0,1,56.5-2.184L54.8,7.448H50.008l4.06-23.072h4.788Zm5.88,5.572a5.031,5.031,0,0,0,.084-.868,2.922,2.922,0,0,0-.8-2.184,2.776,2.776,0,0,0-2.03-.784A3.849,3.849,0,0,0,59-10.64a4.816,4.816,0,0,0-1.512,2.828,5.655,5.655,0,0,0-.084.924,2.913,2.913,0,0,0,.784,2.156,2.729,2.729,0,0,0,2.016.784A3.872,3.872,0,0,0,62.818-5,4.847,4.847,0,0,0,64.344-7.84ZM76.832-5.376a1.919,1.919,0,0,0-.028.364.857.857,0,0,0,.294.728,1.618,1.618,0,0,0,.966.224h1.708L79.044,0H76.608q-4.7,0-4.7-3.948a9.957,9.957,0,0,1,.14-1.484l1.12-6.216h-1.9l.7-3.976h1.9l.672-3.808h4.788l-.672,3.808h3.136l-.7,3.976H77.952ZM88.844.224A7.681,7.681,0,0,1,85.26-.588a5.811,5.811,0,0,1-2.422-2.3,6.782,6.782,0,0,1-.854-3.444,9.518,9.518,0,0,1,1.26-4.844,9.079,9.079,0,0,1,3.472-3.43,9.866,9.866,0,0,1,4.928-1.246,7.658,7.658,0,0,1,3.6.826,5.974,5.974,0,0,1,2.45,2.31,6.7,6.7,0,0,1,.868,3.444A9.416,9.416,0,0,1,97.286-4.41a9.082,9.082,0,0,1-3.5,3.4A10.033,10.033,0,0,1,88.844.224Zm.672-4.116a3.4,3.4,0,0,0,2.114-.714,4.765,4.765,0,0,0,1.456-1.848A5.632,5.632,0,0,0,93.6-8.82a2.917,2.917,0,0,0-.756-2.156,2.581,2.581,0,0,0-1.9-.756,3.327,3.327,0,0,0-2.114.714,4.737,4.737,0,0,0-1.414,1.862,5.926,5.926,0,0,0-.5,2.408,2.893,2.893,0,0,0,.728,2.114A2.513,2.513,0,0,0,89.516-3.892Zm33.292-9.6a7.188,7.188,0,0,1-1.26,2.94,7.018,7.018,0,0,1-2.7,2.212,9.34,9.34,0,0,1-4.13.84H111.44L110.124,0h-3.948l3.472-19.544h7.2a6.765,6.765,0,0,1,4.536,1.33,4.446,4.446,0,0,1,1.54,3.542A5.719,5.719,0,0,1,122.808-13.5Zm-7.7,2.912a3.771,3.771,0,0,0,2.52-.784A3.544,3.544,0,0,0,118.8-13.5a3.578,3.578,0,0,0,.056-.728q0-2.212-2.744-2.212h-3.08L112-10.584Zm8.484,2.772a10.579,10.579,0,0,1,1.666-4.172,8.761,8.761,0,0,1,3.038-2.8,7.765,7.765,0,0,1,3.78-.98,5.683,5.683,0,0,1,2.926.7,4.47,4.47,0,0,1,1.75,1.764l.392-2.212h3.948L138.348,0H134.4l.42-2.268a7.2,7.2,0,0,1-2.394,1.806,7.239,7.239,0,0,1-3.206.714,5.876,5.876,0,0,1-3.024-.77A5.254,5.254,0,0,1,124.152-2.7a7.092,7.092,0,0,1-.728-3.29A10.48,10.48,0,0,1,123.592-7.812Zm12.18.056a7.859,7.859,0,0,0,.112-1.064,3.4,3.4,0,0,0-.966-2.576,3.365,3.365,0,0,0-2.422-.924,4.524,4.524,0,0,0-2.114.532,5.19,5.19,0,0,0-1.778,1.554A5.708,5.708,0,0,0,127.6-7.812a6.474,6.474,0,0,0-.084,1.008,3.606,3.606,0,0,0,.952,2.646,3.239,3.239,0,0,0,2.408.966A4.512,4.512,0,0,0,133-3.738a5.112,5.112,0,0,0,1.778-1.582A5.923,5.923,0,0,0,135.772-7.756Zm11.76-7.756L149.6-4.676l6.02-10.836H159.8L146.16,7.336h-4.172l4.7-7.728-3.556-15.12Z" transform="translate(233.684 648.21)" fill="#fff"/>
      <path id="パス_59382" data-name="パス 59382" d="M3449.488,366.613l14.549-24.252h5.451L3454.9,366.613Z" transform="translate(-3182.991 289.718)" fill="url(#linear-gradient-2)"/>
    </g>
  </g>
</svg>
