<svg id="gears" xmlns="http://www.w3.org/2000/svg" width="88.289" height="88.289" viewBox="0 0 88.289 88.289">
  <path id="パス_59650" data-name="パス 59650" d="M88.288,43.92a44.17,44.17,0,0,1-52.876,43.5,3.309,3.309,0,0,1-2.649-3.247,3.129,3.129,0,0,0-3.13-3.129H20.86A3.1,3.1,0,0,1,19.1,80.5,44.385,44.385,0,0,1,7.5,68.764a3.545,3.545,0,0,1-.6-1.982V57.3a3.839,3.839,0,0,0-3.839-3.839,2.507,2.507,0,0,1-2.471-2.1,44.146,44.146,0,1,1,87.7-7.432Zm0,0" transform="translate(0)" fill="#025f80"/>
  <path id="パス_59651" data-name="パス 59651" d="M36.764,9.038c.113-.364.224-.707.3-.915A33.666,33.666,0,0,1,41.156.1C42.144.037,43.14,0,44.145,0c.333,0,.665.005,1,.013a30.521,30.521,0,0,0-5.11,9.1c-.069.194-.172.516-.28.861a1.565,1.565,0,1,1-2.987-.934ZM88.278,43.212a30.7,30.7,0,0,1-45.533-7.88l1.509-.826a.69.69,0,0,0-.049-1.235l-4.877-2.189a.69.69,0,0,0-.965.529l-.78,5.289a.69.69,0,0,0,1.014.706l1.4-.769A33.79,33.79,0,0,0,88.185,47.153c.067-.994.1-2,.1-3.008C88.289,43.833,88.284,43.522,88.278,43.212ZM47.127,80.834a1.565,1.565,0,0,0-1.942,1.018c-.111.344-.218.665-.288.858a30.619,30.619,0,0,1-2.675,5.535c.637.028,1.278.044,1.922.044.564,0,1.126-.014,1.685-.035a33.936,33.936,0,0,0,2.028-4.528c.075-.208.189-.55.305-.913A1.566,1.566,0,0,0,47.127,80.834Zm-.352-20.608.829-5.282A.689.689,0,0,0,46.6,54.23l-1.41.755A33.789,33.789,0,0,0,.036,42.438C.015,43,0,43.573,0,44.145c0,.624.016,1.245.042,1.863A30.713,30.713,0,0,1,42.426,56.464l-1.516.813a.69.69,0,0,0,.038,1.235L45.8,60.746A.69.69,0,0,0,46.775,60.226Zm1.074,2.8a1.508,1.508,0,1,0,1.008,1.88A1.509,1.509,0,0,0,47.849,63.027Zm-.7,5.922a1.508,1.508,0,1,0,1.941-.884A1.509,1.509,0,0,0,47.144,68.949Zm2.063,3.331a1.508,1.508,0,1,0,.884,1.941A1.508,1.508,0,0,0,49.207,72.28Zm-.481,4.4a1.508,1.508,0,1,0,.884,1.941A1.508,1.508,0,0,0,48.726,76.678ZM37.262,28.82a1.508,1.508,0,1,0-1.025-1.871A1.509,1.509,0,0,0,37.262,28.82Zm.649-5.929a1.508,1.508,0,1,0-1.933.9A1.509,1.509,0,0,0,37.911,22.891ZM35.817,19.58a1.508,1.508,0,1,0-.9-1.933A1.509,1.509,0,0,0,35.817,19.58Zm.441-4.4a1.508,1.508,0,1,0-.9-1.933A1.508,1.508,0,0,0,36.257,15.177Zm0,0" transform="translate(0 0)" fill="#88b9d3"/>
  <path id="パス_59652" data-name="パス 59652" d="M38.347,304.55a43.9,43.9,0,0,1-16.735-7.1,8.67,8.67,0,1,0-11.02-11.027,43.9,43.9,0,0,1-7.338-18.163,3.773,3.773,0,0,1,1.5.708l1.279.995a23.293,23.293,0,0,1,3.625-1.955l-.156-1.524a3.787,3.787,0,0,1,7.275-1.813l.608,1.5a22.923,22.923,0,0,1,4.121.121l.624-1.394a3.786,3.786,0,0,1,7.206,2.068l-.222,1.6a22.935,22.935,0,0,1,3.511,2.16l1.235-.893a3.787,3.787,0,0,1,5.208,5.394l-1,1.279a23.263,23.263,0,0,1,1.955,3.625l1.524-.156a3.787,3.787,0,0,1,1.812,7.275l-1.5.608a22.98,22.98,0,0,1-.121,4.121l1.394.624a3.787,3.787,0,0,1-2.068,7.207l-1.6-.222a23.044,23.044,0,0,1-2.16,3.511l.893,1.236C38.258,304.407,38.3,304.479,38.347,304.55Zm0,0" transform="translate(-2.693 -217.08)" fill="#fdbf43"/>
  <path id="パス_59653" data-name="パス 59653" d="M44.106,347.914a8.67,8.67,0,0,0-16.494-5.34,44.115,44.115,0,0,1-3.792-6.588A15.243,15.243,0,1,1,45.215,357.4a44,44,0,0,1-6.582-3.794A8.656,8.656,0,0,0,44.106,347.914Zm0,0" transform="translate(-19.713 -273.229)" fill="#fda800"/>
  <path id="パス_59654" data-name="パス 59654" d="M26.418,340.772a44.158,44.158,0,0,1-2.6-4.778,15.282,15.282,0,0,1,11.807-5.823,15.212,15.212,0,0,0-8.984,9.764C26.558,340.214,26.486,340.493,26.418,340.772Zm0,0" transform="translate(-19.713 -273.237)" fill="#fc9302"/>
  <path id="パス_59655" data-name="パス 59655" d="M250.922,1.66a3.788,3.788,0,0,0,.2,4.191l.9,1.227a22.959,22.959,0,0,0-2.128,3.531l-1.6-.207a3.787,3.787,0,0,0-2,7.226l1.4.612a22.891,22.891,0,0,0-.084,4.122l-1.49.622A3.787,3.787,0,0,0,248,30.241l1.522-.171a23.175,23.175,0,0,0,1.988,3.607l-.983,1.288a3.787,3.787,0,0,0,5.257,5.346l1.227-.9a22.947,22.947,0,0,0,3.53,2.128l-.207,1.6a3.787,3.787,0,0,0,7.226,2l.612-1.4a22.953,22.953,0,0,0,4.122.083l.622,1.49a3.787,3.787,0,0,0,7.258-1.879L280,41.911a23.288,23.288,0,0,0,3.607-1.988l1.288.983a3.786,3.786,0,0,0,4.877-.24A44.159,44.159,0,0,0,250.922,1.66Zm28.084,21.521a8.671,8.671,0,1,1-5.892-10.755A8.671,8.671,0,0,1,279.007,23.181Zm0,0" transform="translate(-201.752 -1.374)" fill="#f18bc3"/>
  <path id="パス_59656" data-name="パス 59656" d="M321.944,28.168A15.241,15.241,0,1,0,341.1,47.333,44.332,44.332,0,0,0,321.944,28.168Zm10.908,16.351a6.533,6.533,0,1,1-4.439-8.1A6.533,6.533,0,0,1,332.852,44.519Zm0,0" transform="translate(-257.65 -23.311)" fill="#e659a9"/>
  <path id="パス_59657" data-name="パス 59657" d="M328.485,57.811a15.243,15.243,0,0,1-6.541-29.643q.826.423,1.629.882a15.243,15.243,0,0,0,4.913,28.761Zm0,0" transform="translate(-257.65 -23.311)" fill="#df3d9b"/>
  <path id="パス_59658" data-name="パス 59658" d="M45.91,49.2a12.144,12.144,0,0,0-.193-2.187l.753-.414a2.016,2.016,0,0,0-1.412-3.734l-.8.178a12.349,12.349,0,0,0-1.26-1.8l.447-.739a2.017,2.017,0,0,0-3.09-2.528l-.6.55A12.216,12.216,0,0,0,37.77,37.6l.018-.862a2.016,2.016,0,0,0-3.94-.644l-.243.776a12.2,12.2,0,0,0-2.187.193L31,36.315a2.016,2.016,0,0,0-3.734,1.412l.177.8a12.379,12.379,0,0,0-1.794,1.26l-.739-.447a2.016,2.016,0,0,0-2.528,3.09l.55.6a12.208,12.208,0,0,0-.923,1.991L21.149,45a2.017,2.017,0,0,0-.645,3.941l.776.243a12.2,12.2,0,0,0,.193,2.187l-.753.414a2.016,2.016,0,0,0,1.412,3.734l.8-.178a12.35,12.35,0,0,0,1.26,1.8l-.447.738a2.016,2.016,0,0,0,3.09,2.528l.6-.549a12.234,12.234,0,0,0,1.991.923l-.018.862a2.017,2.017,0,0,0,3.941.644l.243-.776a12.2,12.2,0,0,0,2.187-.193l.414.753a2.017,2.017,0,0,0,3.734-1.412l-.178-.8a12.438,12.438,0,0,0,1.8-1.26l.738.446a2.016,2.016,0,0,0,2.528-3.09l-.549-.6a12.214,12.214,0,0,0,.923-1.992l.862.018a2.016,2.016,0,0,0,.644-3.94Zm-7.769.8A4.617,4.617,0,1,1,34.4,44.644,4.618,4.618,0,0,1,38.141,50Zm0,0" transform="translate(-15.799 -28.705)" fill="#0ed1b2"/>
  <path id="パス_59659" data-name="パス 59659" d="M63.465,69.094a8.593,8.593,0,1,0,6.954,9.965A8.593,8.593,0,0,0,63.465,69.094Zm4.291,9.491a5.888,5.888,0,1,1-4.766-6.828A5.887,5.887,0,0,1,67.757,78.585Zm0,0" transform="translate(-44.163 -57.068)" fill="#0ab59e"/>
  <path id="パス_59660" data-name="パス 59660" d="M63.32,86.051A8.592,8.592,0,1,1,63.3,69.083a8.594,8.594,0,0,0-7.1,6.978,8.755,8.755,0,0,0-.131,1.352c0,.11,0,.22,0,.328a8.6,8.6,0,0,0,7.086,8.285C63.213,86.036,63.266,86.043,63.32,86.051Zm0,0" transform="translate(-44.163 -57.082)" fill="#01988c"/>
  <path id="パス_59661" data-name="パス 59661" d="M337.182,344.582a5.989,5.989,0,1,0-8.644,7.906,44.014,44.014,0,0,1-9.158,4.892,16.106,16.106,0,0,1-1.2-1.792l-1.033.23a2.616,2.616,0,0,1-1.831-4.844l.977-.538a15.845,15.845,0,0,1-.25-2.837l-1.007-.315a2.616,2.616,0,0,1,.836-5.111l1.117.022a15.963,15.963,0,0,1,1.2-2.583l-.713-.775a2.616,2.616,0,0,1,3.28-4.008l.958.579a16.1,16.1,0,0,1,2.329-1.634l-.23-1.033a2.616,2.616,0,0,1,4.844-1.832l.538.977a15.85,15.85,0,0,1,2.837-.25l.316-1.007a2.615,2.615,0,0,1,5.111.836l-.022,1.117a15.886,15.886,0,0,1,2.583,1.2l.775-.713a2.614,2.614,0,0,1,3.412-.108A44.117,44.117,0,0,1,337.182,344.582Zm0,0" transform="translate(-259.193 -272.098)" fill="#7ecd00"/>
  <path id="パス_59662" data-name="パス 59662" d="M378.654,379.179a44.5,44.5,0,0,1-2.742,3.64,5.989,5.989,0,1,0-8.644,7.906,44.239,44.239,0,0,1-3.787,2.358,10.345,10.345,0,1,1,15.173-13.9Zm0,0" transform="translate(-297.922 -310.335)" fill="#6bae01"/>
  <path id="パス_59663" data-name="パス 59663" d="M365.361,391.978q-.926.574-1.881,1.105a10.337,10.337,0,0,1,8.334-17.975,10.342,10.342,0,0,0-6.454,16.87Zm0,0" transform="translate(-297.922 -310.335)" fill="#5a9001"/>
</svg>
