<svg xmlns="http://www.w3.org/2000/svg" width="44.542" height="44.654" viewBox="0 0 44.542 44.654">
  <path id="arroba" d="M44.8,19.639a22.262,22.262,0,1,0-25,25.221,23.056,23.056,0,0,0,2.986.2,22.041,22.041,0,0,0,11.446-3.183,2.154,2.154,0,1,0-2.223-3.69,17.953,17.953,0,1,1,7.715-9.506,3.11,3.11,0,0,1-2.985,2.019,3.213,3.213,0,0,1-3.209-3.209v-13.3a2.154,2.154,0,1,0-4.307,0v.02A10.769,10.769,0,1,0,30,30.748,7.5,7.5,0,0,0,36.741,35,7.419,7.419,0,0,0,43.8,30.086a22.305,22.305,0,0,0,1-10.447Zm-22.037,9.62A6.461,6.461,0,1,1,29.224,22.8,6.461,6.461,0,0,1,22.763,29.259Z" transform="translate(-0.481 -0.401)" fill="#fff"/>
</svg>
