<svg id="グループ_5207" data-name="グループ 5207" xmlns="http://www.w3.org/2000/svg" xmlns:xlink="http://www.w3.org/1999/xlink" width="213.189" height="51.614" viewBox="0 0 213.189 51.614">
  <defs>
    <clipPath id="clip-path">
      <path id="パス_1997" data-name="パス 1997" d="M720.6,306.4h28.089v16.567H720.6Z" transform="translate(-720.6 -306.4)" fill="#fff"/>
    </clipPath>
    <clipPath id="clip-path-2">
      <path id="パス_1999" data-name="パス 1999" d="M720.6,0h14.047V35.651H720.6Z" transform="translate(-720.6)" fill="#fff"/>
    </clipPath>
    <clipPath id="clip-path-3">
      <path id="パス_2001" data-name="パス 2001" d="M975,0h14.047V35.651H975Z" transform="translate(-975)" fill="#fff"/>
    </clipPath>
    <clipPath id="clip-path-4">
      <path id="パス_2003" data-name="パス 2003" d="M720.6,470.3h14.047v22.322H720.6Z" transform="translate(-720.6 -470.3)" fill="#fff"/>
    </clipPath>
    <clipPath id="clip-path-5">
      <path id="パス_2005" data-name="パス 2005" d="M975,470.3h14.053v22.322H975Z" transform="translate(-975 -470.3)" fill="#fff"/>
    </clipPath>
  </defs>
  <g id="binance-smart-chain-seeklogo.com" transform="translate(81.978 3.649)">
    <path id="binancedex" d="M187.821,336.176v5.083l-4.56,2.6-4.424-2.6v-5.083l4.424,2.6Zm-24.4-17.562,4.424,2.6v8.714l7.643,4.424v5.072l-12.067-6.9Zm39.685,0v13.918l-12.2,6.9v-5.072l7.641-4.424v-8.714Zm-12.2-6.893,4.558,2.6h0V319.4l-7.641,4.422v8.84l-4.426,2.6-4.424-2.6v-8.84l-7.909-4.422v-5.074l4.558-2.6,7.641,4.422Zm-19.842,11.317,4.424,2.6v5.072l-4.424-2.6Zm24.4,0v5.072l-4.424,2.6V325.64Zm-27.619-15.733,4.566,2.595-4.56,2.6v5.072l-4.424-2.6V309.9Zm30.836,0,4.56,2.6v5.072l-4.56,2.6V312.5l-4.432-2.6Zm-15.418,0,4.56,2.6-4.56,2.6-4.424-2.6Zm0-8.716,12.2,6.9-4.424,2.6-7.643-4.424-7.784,4.424-4.424-2.6Z" transform="translate(-163.42 -298.59)" fill="#f3ba2f"/>
  </g>
  <g id="polygon-matic-logo" transform="translate(170.273 4.562)">
    <path id="パス_2006" data-name="パス 2006" d="M32.5,12.918a2.572,2.572,0,0,0-2.689,0l-6.275,4.171-4.258,2.654L13.11,23.915a2.572,2.572,0,0,1-2.689,0L5.6,20.628a3.172,3.172,0,0,1-1.345-2.654v-6.32A3.22,3.22,0,0,1,5.6,9l4.818-3.16a2.572,2.572,0,0,1,2.689,0l4.818,3.286a3.172,3.172,0,0,1,1.345,2.654v4.171l4.258-2.781v-4.3A3.22,3.22,0,0,0,22.186,6.22L13.222.279a2.572,2.572,0,0,0-2.689,0L1.345,6.346A2.849,2.849,0,0,0,0,8.874V20.755a3.22,3.22,0,0,0,1.345,2.654l9.076,5.94a2.572,2.572,0,0,0,2.689,0L19.273,25.3l4.258-2.781,6.163-4.045a2.572,2.572,0,0,1,2.689,0l4.818,3.16a3.172,3.172,0,0,1,1.345,2.654v6.32A3.22,3.22,0,0,1,37.2,33.268L32.5,36.427a2.572,2.572,0,0,1-2.689,0l-4.818-3.16a3.172,3.172,0,0,1-1.345-2.654V26.569l-4.258,2.781V33.52a3.22,3.22,0,0,0,1.345,2.654l9.076,5.94a2.572,2.572,0,0,0,2.689,0l9.076-5.94a3.172,3.172,0,0,0,1.345-2.654V21.513a3.22,3.22,0,0,0-1.345-2.654Z" transform="translate(0 0.1)" fill="#8247e5"/>
  </g>
  <g id="ethereum_1_" data-name="ethereum (1)" transform="translate(0)">
    <g id="グループ_5171" data-name="グループ 5171" transform="translate(0 19.084)" opacity="0.6">
      <g id="グループ_5170" data-name="グループ 5170" transform="translate(0)" clip-path="url(#clip-path)">
        <path id="パス_1996" data-name="パス 1996" d="M734.647,306.4,720.6,313.606l14.047,9.361,14.042-9.361Z" transform="translate(-720.6 -306.4)" fill="#fff"/>
      </g>
    </g>
    <g id="グループ_5173" data-name="グループ 5173" transform="translate(0)" opacity="0.45">
      <g id="グループ_5172" data-name="グループ 5172" transform="translate(0)" clip-path="url(#clip-path-2)">
        <path id="パス_1998" data-name="パス 1998" d="M720.6,26.29l14.047,9.361V0Z" transform="translate(-720.6)" fill="#fff"/>
      </g>
    </g>
    <g id="グループ_5175" data-name="グループ 5175" transform="translate(14.047)" opacity="0.8">
      <g id="グループ_5174" data-name="グループ 5174" transform="translate(0)" clip-path="url(#clip-path-3)">
        <path id="パス_2000" data-name="パス 2000" d="M975,0V35.651l14.042-9.361Z" transform="translate(-975)" fill="#fff"/>
      </g>
    </g>
    <g id="グループ_5177" data-name="グループ 5177" transform="translate(0 29.292)" opacity="0.45">
      <g id="グループ_5176" data-name="グループ 5176" transform="translate(0)" clip-path="url(#clip-path-4)">
        <path id="パス_2002" data-name="パス 2002" d="M720.6,470.3l14.047,22.322V479.661Z" transform="translate(-720.6 -470.3)" fill="#fff"/>
      </g>
    </g>
    <g id="グループ_5179" data-name="グループ 5179" transform="translate(14.047 29.292)" opacity="0.8">
      <g id="グループ_5178" data-name="グループ 5178" transform="translate(0)" clip-path="url(#clip-path-5)">
        <path id="パス_2004" data-name="パス 2004" d="M975,479.661v12.961L989.053,470.3Z" transform="translate(-975 -470.3)" fill="#fff"/>
      </g>
    </g>
  </g>
</svg>
