<svg xmlns="http://www.w3.org/2000/svg" xmlns:xlink="http://www.w3.org/1999/xlink" width="155.006" height="92.438" viewBox="0 0 155.006 92.438">
  <defs>
    <clipPath id="clip-path">
      <path id="パス_1997" data-name="パス 1997" d="M720.6,306.4h20.628v12.167H720.6Z" transform="translate(-720.6 -306.4)" fill="#5c5858"/>
    </clipPath>
    <clipPath id="clip-path-2">
      <path id="パス_1999" data-name="パス 1999" d="M720.6,0h10.316V26.181H720.6Z" transform="translate(-720.6)" fill="#5c5858"/>
    </clipPath>
    <clipPath id="clip-path-3">
      <path id="パス_2001" data-name="パス 2001" d="M975,0h10.316V26.181H975Z" transform="translate(-975)" fill="#5c5858"/>
    </clipPath>
    <clipPath id="clip-path-4">
      <path id="パス_2003" data-name="パス 2003" d="M720.6,470.3h10.316v16.393H720.6Z" transform="translate(-720.6 -470.3)" fill="#5c5858"/>
    </clipPath>
    <clipPath id="clip-path-5">
      <path id="パス_2005" data-name="パス 2005" d="M975,470.3h10.32v16.393H975Z" transform="translate(-975 -470.3)" fill="#5c5858"/>
    </clipPath>
  </defs>
  <g id="グループ_68858" data-name="グループ 68858" transform="translate(-246.152 -2869.253)">
    <g id="arbirtum_logo" data-name="arbirtum logo" transform="translate(246.152 2926.819)">
      <g id="Group_1" data-name="Group 1" transform="translate(0 0)">
        <path id="Polygon_1" data-name="Polygon 1" d="M23.563,0a4.672,4.672,0,0,1,4.051,2.344l6.309,10.98a4.673,4.673,0,0,1,0,4.656l-6.309,10.98a4.672,4.672,0,0,1-4.051,2.345H10.982a4.672,4.672,0,0,1-4.051-2.344L.621,17.981a4.673,4.673,0,0,1,0-4.656L6.931,2.345A4.672,4.672,0,0,1,10.982,0Z" transform="translate(31.306 0) rotate(90)" fill="#1d86cc"/>
      </g>
      <g id="arbitrum" transform="translate(2.104 1.981)">
        <path id="Path_83" data-name="Path 83" d="M2292.195,501.715l-10.84,6.261a2.709,2.709,0,0,0-1.355,2.348l.007,12.536a2.709,2.709,0,0,0,1.354,2.344l10.853,6.274a2.709,2.709,0,0,0,2.71,0l10.84-6.259a2.711,2.711,0,0,0,1.355-2.348l-.007-12.536a2.709,2.709,0,0,0-1.353-2.344l-10.853-6.274a2.71,2.71,0,0,0-2.71,0Z" transform="translate(-2280 -501.318)" fill="#fff"/>
        <path id="Path_84" data-name="Path 84" d="M2305.9,544.588a.512.512,0,0,1,.106-.222q4.864-8.253,9.73-16.506c.045-.076.087-.155.125-.223-.028-.05-.061-.04-.089-.04-1.386,0-2.771.014-4.158.012a.291.291,0,0,0-.276.185q-1.567,2.593-3.14,5.185l-6.661,10.989c-.019.032-.04.064-.057.1-.04.076-.084.088-.164.041-.345-.2-.693-.4-1.059-.611l9.882-15.849c-.021-.064-.065-.048-.1-.05-.53-.016-1.06-.039-1.589-.043a5.87,5.87,0,0,0-2.183.352,3.085,3.085,0,0,0-1.539,1.249q-2.708,4.224-5.437,8.436c-.029.044-.059.088-.088.132-.1,0-.089-.086-.1-.146a1.811,1.811,0,0,1-.006-.272c0-3.105.01-6.211-.01-9.316a1.339,1.339,0,0,1,.767-1.293c2.388-1.361,4.76-2.751,7.14-4.126,1.062-.614,2.128-1.222,3.182-1.848a1.2,1.2,0,0,1,1.341,0c1.939,1.138,3.9,2.25,5.845,3.371q2.2,1.27,4.412,2.535c.1.06.208.124.314.183a1.02,1.02,0,0,1,.54.958q0,5.067,0,10.134a.653.653,0,0,1-.027.246c-.117.113-.159-.014-.2-.074-.175-.246-.333-.506-.5-.761q-1.956-3.062-3.926-6.115c-.441-.688-.887-1.373-1.324-2.064-.1-.161-.121-.164-.222.01q-.988,1.671-1.974,3.343a.34.34,0,0,0,.04.4q.814,1.312,1.624,2.627l2.77,4.481q.56.908,1.123,1.815a.458.458,0,0,1,.111.291c-.075.149-.231.191-.361.259a2.747,2.747,0,0,1-.7.364c-.134-.034-.182-.154-.245-.253-.858-1.338-1.7-2.682-2.556-4.023-.876-1.378-1.749-2.762-2.628-4.139-.113-.177-.131-.178-.237,0-.766,1.288-1.521,2.582-2.288,3.869a.344.344,0,0,0,.019.4c1.034,1.593,2.044,3.2,3.067,4.8.285.446.572.891.852,1.34.055.087.129.175.08.293a4.862,4.862,0,0,1-.865.537q-1.433.834-2.868,1.665a.947.947,0,0,1-1.028,0q-2.113-1.222-4.234-2.434A.551.551,0,0,1,2305.9,544.588Z" transform="translate(-2297.285 -518.665)" fill="#2d374b"/>
        <path id="Path_85" data-name="Path 85" d="M2305.405,520.5c0-.083.006-.167.006-.25q0-5.055,0-10.11a1.05,1.05,0,0,0-.574-1q-5.308-3.043-10.609-6.1a.984.984,0,0,0-1.07,0q-2.944,1.711-5.895,3.413l-4.736,2.742a.986.986,0,0,0-.53.93q.012,4.851.014,9.7c0,.072-.029.152.033.216-.374.622-.784,1.221-1.179,1.829q-.295.458-.593.913c-.032.049-.069.094-.132.18,0-.1-.01-.158-.01-.214q0-6.4,0-12.794a2.578,2.578,0,0,1,1.346-2.321c1.372-.815,2.762-1.6,4.144-2.4,1.166-.675,2.328-1.355,3.492-2.031,1.086-.631,2.161-1.28,3.266-1.877a2.7,2.7,0,0,1,2.752.072c.888.5,1.772,1.017,2.657,1.526l2.5,1.439,2.3,1.324L2304.88,507c.335.192.669.385,1,.581a2.808,2.808,0,0,1,1.39,2,1.981,1.981,0,0,1,.015.363q0,6.295,0,12.589a2.7,2.7,0,0,1-.973,2.091,3.243,3.243,0,0,1-.561.344q-1.705.995-3.416,1.982-1.818,1.051-3.636,2.1-1.747,1.013-3.492,2.033a2.59,2.59,0,0,1-.958.395,2.7,2.7,0,0,1-1.682-.214c-.58-.311-1.145-.648-1.716-.976q-1.152-.661-2.3-1.324l-.65-.372c-.08-.045-.135-.091-.072-.2.287-.48.569-.964.855-1.445.01-.018.036-.026.054-.039a6.663,6.663,0,0,1,.771.424q1.879,1.075,3.752,2.16a.885.885,0,0,0,.962-.01c1.186-.7,2.378-1.382,3.568-2.071.059-.034.119-.065.179-.1a.981.981,0,0,1,.433-.316c1.075-.616,2.141-1.244,3.216-1.858.09-.051.171-.13.288-.117l1.053-.61c.064-.135.2-.178.317-.244.529-.306,1.054-.62,1.588-.916a.907.907,0,0,0,.484-.858c.005-.536,0-1.072,0-1.608a.4.4,0,0,1,.055-.285Z" transform="translate(-2280.123 -500.986)" fill="#96bedc"/>
        <path id="Path_90" data-name="Path 90" d="M2468.211,618.075c0,.665.018,1.332,0,2a.843.843,0,0,1-.441.764c-.67.38-1.328.78-2,1.149-.269-.491-.579-.958-.873-1.434q-2.291-3.711-4.585-7.418c-.092-.148-.175-.3-.277-.442a.223.223,0,0,1,0-.286c.365-.611.724-1.225,1.086-1.838l1-1.7a.191.191,0,0,1,.089-.093q.263.4.526.812l3.166,4.929,2.146,3.345A.683.683,0,0,0,2468.211,618.075Z" transform="translate(-2442.928 -598.559)" fill="#28a0f0"/>
        <path id="Path_91" data-name="Path 91" d="M2432.773,672.023c-.436.286-.9.529-1.347.794-.814.479-1.633.948-2.45,1.422l-.139.077a.383.383,0,0,0-.093-.2l-2.183-3.429q-.9-1.408-1.8-2.813a.289.289,0,0,1-.016-.351q1.206-2.031,2.4-4.067c.019-.031.034-.068.081-.078.065.015.081.08.112.129l4.345,6.845q.463.729.925,1.457a.72.72,0,0,0,.161.218Z" transform="translate(-2410.986 -647.988)" fill="#28a0f0"/>
      </g>
    </g>
    <g id="avalanche-avax-logo" transform="translate(307.988 2927.65)">
      <rect id="長方形_19555" data-name="長方形 19555" width="21.033" height="19.129" transform="translate(6.493 5.825)" fill="#fff"/>
      <path id="パス_59301" data-name="パス 59301" d="M34.542,18.021A17.021,17.021,0,1,1,17.521,1,17.021,17.021,0,0,1,34.542,18.021ZM12.7,24.794h-3.3a2.652,2.652,0,0,1-1.246-.134A.84.84,0,0,1,7.768,24c-.013-.247.159-.548.5-1.15L16.426,8.478c.347-.61.523-.916.744-1.029a.842.842,0,0,1,.761,0c.222.113.4.418.744,1.029L20.352,11.4l.009.015a5.49,5.49,0,0,1,.648,1.336,2.483,2.483,0,0,1,0,1.162,5.511,5.511,0,0,1-.652,1.351l-4.284,7.573-.011.019a5.433,5.433,0,0,1-.834,1.247,2.494,2.494,0,0,1-1.016.59A5.976,5.976,0,0,1,12.7,24.794Zm8.342,0h4.733a2.633,2.633,0,0,0,1.259-.138A.837.837,0,0,0,27.412,24c.012-.239-.156-.528-.484-1.1l-.034-.059-2.371-4.056L24.5,18.74c-.333-.563-.5-.848-.717-.958a.833.833,0,0,0-.757,0c-.217.113-.393.41-.74,1.008l-2.362,4.056-.008.014c-.346.6-.519.9-.506,1.14a.847.847,0,0,0,.38.661A2.674,2.674,0,0,0,21.04,24.794Z" transform="translate(-0.5 -1)" fill="#e84142" fill-rule="evenodd"/>
    </g>
    <g id="Layer_2" data-name="Layer 2" transform="translate(366.662 2927.146)">
      <g id="Layer_1" data-name="Layer 1" transform="translate(0)">
        <ellipse id="楕円形_79" data-name="楕円形 79" cx="17.248" cy="16.945" rx="17.248" ry="16.945" fill="#13b5ec"/>
        <g id="グループ_68857" data-name="グループ 68857" transform="translate(10.579 6.392)">
          <path id="パス_59302" data-name="パス 59302" d="M17.67,13.35,21.5,11.113v4.474ZM21.5,22.938l-5.113,2.983-5.113-2.983v-5.22L16.392,20.7,21.5,17.718ZM11.278,11.113l3.835,2.237-3.835,2.237Zm5.752,3.3,3.835,2.237L17.031,18.89ZM15.752,18.89l-3.835-2.237,3.835-2.237Zm5.113-8.842L16.392,12.6l-4.474-2.557,4.474-2.663ZM10,9.622V23.577L16.392,27.2l6.392-3.622V9.622L16.392,6Z" transform="translate(-10 -6)" fill="#fff" fill-rule="evenodd"/>
        </g>
      </g>
    </g>
    <g id="binance-smart-chain-seeklogo.com" transform="translate(311.002 2872.746)">
      <path id="binancedex" d="M180.588,325.034v3.576l-3.208,1.83-3.112-1.83v-3.576l3.112,1.83ZM163.42,312.678l3.112,1.832v6.131l5.377,3.112v3.569l-8.489-4.851Zm27.92,0v9.792l-8.584,4.851v-3.569l5.376-3.112V314.51Zm-8.584-4.85,3.207,1.83h0v3.57l-5.376,3.111v6.219l-3.114,1.83-3.112-1.83V316.34l-5.564-3.111v-3.57l3.207-1.83,5.376,3.111ZM168.8,315.791l3.112,1.83v3.569l-3.112-1.83Zm17.166,0v3.569l-3.112,1.83v-3.569Zm-19.431-11.069,3.213,1.826-3.208,1.83v3.569l-3.112-1.83v-3.569Zm21.694,0,3.208,1.83v3.569l-3.208,1.83v-3.573l-3.118-1.83Zm-10.847,0,3.208,1.83-3.208,1.83-3.112-1.83Zm0-6.132,8.584,4.851-3.112,1.83-5.377-3.112L172,305.271l-3.112-1.83Z" transform="translate(-163.42 -298.59)" fill="#f3ba2f"/>
    </g>
    <g id="polygon-matic-logo" transform="translate(370.815 2873.687)">
      <path id="パス_2006" data-name="パス 2006" d="M22.862,9.059a1.809,1.809,0,0,0-1.892,0l-4.415,2.934-3,1.867L9.224,16.8a1.809,1.809,0,0,1-1.892,0l-3.39-2.312A2.232,2.232,0,0,1,3,12.616V8.17A2.266,2.266,0,0,1,3.942,6.3l3.39-2.223a1.809,1.809,0,0,1,1.892,0l3.39,2.312a2.232,2.232,0,0,1,.946,1.867v2.934l3-1.956V6.214a2.266,2.266,0,0,0-.946-1.867L9.3.167a1.809,1.809,0,0,0-1.892,0L.946,4.435A2,2,0,0,0,0,6.214v8.359A2.266,2.266,0,0,0,.946,16.44l6.386,4.179a1.809,1.809,0,0,0,1.892,0l4.336-2.846,3-1.956,4.336-2.846a1.809,1.809,0,0,1,1.892,0l3.39,2.223a2.232,2.232,0,0,1,.946,1.867v4.446a2.266,2.266,0,0,1-.946,1.867L22.862,25.6a1.809,1.809,0,0,1-1.892,0l-3.39-2.223a2.232,2.232,0,0,1-.946-1.867V18.663l-3,1.956v2.934a2.266,2.266,0,0,0,.946,1.867L20.97,29.6a1.809,1.809,0,0,0,1.892,0l6.386-4.179a2.232,2.232,0,0,0,.946-1.867V15.106a2.266,2.266,0,0,0-.946-1.867Z" transform="translate(0 0.1)" fill="#8247e5"/>
    </g>
    <g id="ethereum_1_" data-name="ethereum (1)" transform="translate(250.152 2869.253)">
      <g id="グループ_5171" data-name="グループ 5171" transform="translate(0 14.014)" opacity="0.6">
        <g id="グループ_5170" data-name="グループ 5170" transform="translate(0)" clip-path="url(#clip-path)">
          <path id="パス_1996" data-name="パス 1996" d="M730.916,306.4,720.6,311.692l10.316,6.875,10.312-6.875Z" transform="translate(-720.6 -306.4)" fill="#5c5858"/>
        </g>
      </g>
      <g id="グループ_5173" data-name="グループ 5173" transform="translate(0)" opacity="0.45">
        <g id="グループ_5172" data-name="グループ 5172" transform="translate(0)" clip-path="url(#clip-path-2)">
          <path id="パス_1998" data-name="パス 1998" d="M720.6,19.306l10.316,6.875V0Z" transform="translate(-720.6)" fill="#5c5858"/>
        </g>
      </g>
      <g id="グループ_5175" data-name="グループ 5175" transform="translate(10.316)" opacity="0.8">
        <g id="グループ_5174" data-name="グループ 5174" transform="translate(0)" clip-path="url(#clip-path-3)">
          <path id="パス_2000" data-name="パス 2000" d="M975,0V26.181l10.312-6.875Z" transform="translate(-975)" fill="#5c5858"/>
        </g>
      </g>
      <g id="グループ_5177" data-name="グループ 5177" transform="translate(0 21.511)" opacity="0.45">
        <g id="グループ_5176" data-name="グループ 5176" transform="translate(0)" clip-path="url(#clip-path-4)">
          <path id="パス_2002" data-name="パス 2002" d="M720.6,470.3l10.316,16.393v-9.518Z" transform="translate(-720.6 -470.3)" fill="#5c5858"/>
        </g>
      </g>
      <g id="グループ_5179" data-name="グループ 5179" transform="translate(10.316 21.511)" opacity="0.8">
        <g id="グループ_5178" data-name="グループ 5178" transform="translate(0)" clip-path="url(#clip-path-5)">
          <path id="パス_2004" data-name="パス 2004" d="M975,477.175v9.518L985.32,470.3Z" transform="translate(-975 -470.3)" fill="#5c5858"/>
        </g>
      </g>
    </g>
  </g>
</svg>
