<svg xmlns="http://www.w3.org/2000/svg" xmlns:xlink="http://www.w3.org/1999/xlink" width="213.19" height="56.575" viewBox="0 0 213.19 56.575">
  <defs>
    <clipPath id="clip-path">
      <path id="パス_1997" data-name="パス 1997" d="M720.6,306.4h30.789v18.16H720.6Z" transform="translate(-720.6 -306.4)" fill="#5c5858"/>
    </clipPath>
    <clipPath id="clip-path-2">
      <path id="パス_1999" data-name="パス 1999" d="M720.6,0H736V39.077H720.6Z" transform="translate(-720.6)" fill="#5c5858"/>
    </clipPath>
    <clipPath id="clip-path-3">
      <path id="パス_2001" data-name="パス 2001" d="M975,0h15.4V39.077H975Z" transform="translate(-975)" fill="#5c5858"/>
    </clipPath>
    <clipPath id="clip-path-4">
      <path id="パス_2003" data-name="パス 2003" d="M720.6,470.3H736v24.468H720.6Z" transform="translate(-720.6 -470.3)" fill="#5c5858"/>
    </clipPath>
    <clipPath id="clip-path-5">
      <path id="パス_2005" data-name="パス 2005" d="M975,470.3h15.4v24.468H975Z" transform="translate(-975 -470.3)" fill="#5c5858"/>
    </clipPath>
  </defs>
  <g id="グループ_5207" data-name="グループ 5207" transform="translate(-63.82 -144.476)">
    <g id="binance-smart-chain-seeklogo.com" transform="translate(143.989 148.476)">
      <path id="binancedex" d="M190.167,339.789v5.571l-5,2.851-4.849-2.851v-5.571l4.849,2.851Zm-26.747-19.25,4.849,2.854v9.551l8.378,4.849v5.56L163.42,335.8Zm43.5,0V335.8l-13.373,7.558v-5.56l8.375-4.849v-9.551Zm-13.373-7.556,5,2.851h0V321.4l-8.375,4.847v9.689l-4.851,2.851-4.849-2.851v-9.689L171.8,321.4v-5.562l5-2.851,8.375,4.847Zm-21.749,12.4,4.849,2.851v5.56l-4.849-2.851Zm26.744,0v5.56l-4.849,2.851v-5.56Zm-30.273-17.245,5.005,2.844-5,2.851v5.56l-4.849-2.851v-5.56Zm33.8,0,5,2.851v5.56l-5,2.851v-5.567l-4.858-2.851Zm-16.9,0,5,2.851-5,2.851-4.849-2.851Zm0-9.554,13.373,7.558L193.693,309l-8.378-4.849L176.784,309l-4.849-2.851Z" transform="translate(-163.42 -298.59)" fill="#f3ba2f"/>
    </g>
    <g id="polygon-matic-logo" transform="translate(229.969 149.476)">
      <path id="パス_2006" data-name="パス 2006" d="M35.619,14.17a2.819,2.819,0,0,0-2.948,0l-6.878,4.572-4.667,2.909L14.37,26.223a2.819,2.819,0,0,1-2.948,0l-5.281-3.6a3.477,3.477,0,0,1-1.474-2.909V12.784A3.53,3.53,0,0,1,6.141,9.875l5.281-3.464a2.819,2.819,0,0,1,2.948,0l5.281,3.6a3.477,3.477,0,0,1,1.474,2.909v4.572l4.667-3.048V9.736a3.53,3.53,0,0,0-1.474-2.909L14.493.316a2.819,2.819,0,0,0-2.948,0L1.474,6.966A3.123,3.123,0,0,0,0,9.736V22.759a3.53,3.53,0,0,0,1.474,2.909l9.949,6.511a2.819,2.819,0,0,0,2.948,0l6.755-4.433L25.793,24.7l6.755-4.433a2.819,2.819,0,0,1,2.948,0l5.281,3.464a3.477,3.477,0,0,1,1.474,2.909v6.927a3.53,3.53,0,0,1-1.474,2.909l-5.159,3.464a2.819,2.819,0,0,1-2.948,0l-5.281-3.464a3.477,3.477,0,0,1-1.474-2.909V29.132L21.248,32.18v4.572a3.53,3.53,0,0,0,1.474,2.909l9.949,6.511a2.819,2.819,0,0,0,2.948,0l9.949-6.511a3.477,3.477,0,0,0,1.474-2.909V23.59a3.53,3.53,0,0,0-1.474-2.909Z" transform="translate(0 0.1)" fill="#8247e5"/>
    </g>
    <g id="ethereum_1_" data-name="ethereum (1)" transform="translate(63.82 144.476)">
      <g id="グループ_5171" data-name="グループ 5171" transform="translate(0 20.918)" opacity="0.6">
        <g id="グループ_5170" data-name="グループ 5170" transform="translate(0)" clip-path="url(#clip-path)">
          <path id="パス_1996" data-name="パス 1996" d="M736,306.4l-15.4,7.9L736,324.56,751.388,314.3Z" transform="translate(-720.6 -306.4)" fill="#5c5858"/>
        </g>
      </g>
      <g id="グループ_5173" data-name="グループ 5173" transform="translate(0)" opacity="0.45">
        <g id="グループ_5172" data-name="グループ 5172" transform="translate(0)" clip-path="url(#clip-path-2)">
          <path id="パス_1998" data-name="パス 1998" d="M720.6,28.817,736,39.077V0Z" transform="translate(-720.6)" fill="#5c5858"/>
        </g>
      </g>
      <g id="グループ_5175" data-name="グループ 5175" transform="translate(15.397)" opacity="0.8">
        <g id="グループ_5174" data-name="グループ 5174" transform="translate(0)" clip-path="url(#clip-path-3)">
          <path id="パス_2000" data-name="パス 2000" d="M975,0V39.077l15.391-10.261Z" transform="translate(-975)" fill="#5c5858"/>
        </g>
      </g>
      <g id="グループ_5177" data-name="グループ 5177" transform="translate(0 32.107)" opacity="0.45">
        <g id="グループ_5176" data-name="グループ 5176" transform="translate(0)" clip-path="url(#clip-path-4)">
          <path id="パス_2002" data-name="パス 2002" d="M720.6,470.3,736,494.768V480.561Z" transform="translate(-720.6 -470.3)" fill="#5c5858"/>
        </g>
      </g>
      <g id="グループ_5179" data-name="グループ 5179" transform="translate(15.397 32.107)" opacity="0.8">
        <g id="グループ_5178" data-name="グループ 5178" transform="translate(0)" clip-path="url(#clip-path-5)">
          <path id="パス_2004" data-name="パス 2004" d="M975,480.561v14.207L990.4,470.3Z" transform="translate(-975 -470.3)" fill="#5c5858"/>
        </g>
      </g>
    </g>
  </g>
</svg>
