<svg id="_レイヤー_1-2" xmlns="http://www.w3.org/2000/svg" xmlns:xlink="http://www.w3.org/1999/xlink" width="609.52" height="249.14" viewBox="0 0 609.52 249.14">
  <defs>
    <linearGradient id="linear-gradient" x1="-0.062" y1="-0.061" x2="1.018" y2="1" gradientUnits="objectBoundingBox">
      <stop offset="0" stop-color="#3eb9fc"/>
      <stop offset="1" stop-color="#8b2ae1"/>
    </linearGradient>
    <linearGradient id="linear-gradient-2" x1="0" y1="0" x2="1" xlink:href="#linear-gradient"/>
  </defs>
  <g id="_グループ_68953">
    <g id="_長方形_2462">
      <rect id="長方形_19697" data-name="長方形 19697" width="609" height="248.64" transform="translate(0.02 0.5)" fill="#040730"/>
      <rect id="長方形_19698" data-name="長方形 19698" width="608.52" height="248.14" transform="translate(0.5 0.5)" fill="none" stroke="#14d7ff" stroke-width="1"/>
    </g>
    <line id="_線_8" x2="608" transform="translate(1.02 64.61)" fill="none" stroke="#14d7ff" stroke-width="1"/>
    <line id="_線_9" x2="608" transform="translate(1.02 185.14)" fill="none" stroke="#14d7ff" stroke-width="1"/>
    <path id="_パス_19" d="M62.68,248.5V.5" fill="none" stroke="#14d7ff" stroke-width="1"/>
    <path id="_パス_17" d="M545.97,248.14V.5" fill="none" stroke="#14d7ff" stroke-width="1"/>
    <path id="_パス_18" d="M184.28,248.5V.5" fill="none" stroke="#14d7ff" stroke-width="1"/>
    <path id="_パス_59339" d="M128.79,232.14h4.22l-8.77-14.27,8.81-14.31h-4.18l-6.56,11.19-6.89-11.19h-4.18l8.77,14.31-8.73,14.27h4.14l6.52-11.15Z" fill="#fff"/>
    <path id="_パス_59338" d="M25.11,133.14H26.9l-4.88-8.03,4.9-8.05h-1.8l-3.93,6.69-4.07-6.69H15.33l4.86,7.98-4.86,8.1h1.79l3.89-6.72,4.09,6.72Zm3.8,3.82h1.58l6.35-25.44H35.21Zm10.25-3.93H50.13v-1.36H41.62c3.24-2.39,8-6.28,8-10.49,0-3.17-2.12-4.81-4.99-4.81-3.04,0-5.15,1.91-5.34,5.38h1.56c.14-2.3,1.33-4,3.77-4s3.38,1.59,3.38,3.5c0,3.52-4.12,7.08-8.85,10.63v1.14Z" fill="#fff"/>
    <path id="_パス_59340" d="M206.11,226.14h1.79l-4.88-8.03,4.9-8.05h-1.8l-3.93,6.69-4.07-6.69h-1.79l4.86,7.98-4.86,8.1h1.79l3.89-6.72,4.09,6.72Zm3.8,3.82h1.58l6.35-25.44h-1.63Zm10.25-3.93h10.97v-1.36h-8.51c3.24-2.39,8-6.28,8-10.49,0-3.17-2.12-4.81-4.99-4.81-3.04,0-5.15,1.91-5.34,5.38h1.56c.14-2.3,1.33-4,3.77-4s3.38,1.59,3.38,3.5c0,3.52-4.12,7.08-8.85,10.63v1.14Z" fill="#fff"/>
    <path id="_パス_59341" d="M568.11,133.14h1.79l-4.88-8.03,4.9-8.05h-1.8l-3.93,6.69-4.07-6.69h-1.79l4.86,7.98-4.86,8.1h1.79l3.89-6.72,4.09,6.72Zm3.8,3.82h1.58l6.35-25.44h-1.63Zm10.25-3.93h10.97v-1.36h-8.51c3.24-2.39,8-6.28,8-10.49,0-3.17-2.12-4.81-4.99-4.81-3.04,0-5.15,1.91-5.34,5.38h1.56c.14-2.3,1.33-4,3.77-4s3.38,1.59,3.38,3.5c0,3.52-4.12,7.08-8.85,10.63v1.14Z" fill="#fff"/>
  </g>
  <g id="グループ_67150" data-name="グループ 67150" transform="translate(64.137 135.177)">
    <path id="パス_57689" data-name="パス 57689" d="M402.041,136.243a25.528,25.528,0,0,1-10.108-7.886,19.942,19.942,0,0,1-4.073-11h16.677a9.09,9.09,0,0,0,3.725,6.27,12.982,12.982,0,0,0,8.106,2.483,12.565,12.565,0,0,0,7.4-1.9,5.724,5.724,0,0,0,2.661-4.828,5.13,5.13,0,0,0-3.262-4.79,61.281,61.281,0,0,0-10.344-3.493,87.382,87.382,0,0,1-12.009-3.666,20.832,20.832,0,0,1-8.038-5.795A15.539,15.539,0,0,1,389.4,91.117a16.991,16.991,0,0,1,3.134-9.944,21.058,21.058,0,0,1,8.989-7.091,33.7,33.7,0,0,1,13.8-2.6,28.127,28.127,0,0,1,18.684,5.855,21.686,21.686,0,0,1,7.694,15.79H425.864a8.556,8.556,0,0,0-3.238-6.21,12.087,12.087,0,0,0-7.752-2.313,12.22,12.22,0,0,0-6.919,1.65,5.281,5.281,0,0,0-2.426,4.614,5.419,5.419,0,0,0,3.319,5.027,51.485,51.485,0,0,0,10.291,3.49,87.225,87.225,0,0,1,11.709,3.671,20.63,20.63,0,0,1,7.984,5.855,16.079,16.079,0,0,1,3.47,10.472,17.35,17.35,0,0,1-3.155,10.176,20.639,20.639,0,0,1-8.989,7.043,34.038,34.038,0,0,1-13.661,2.544,34.582,34.582,0,0,1-14.414-2.886Zm-83.918-1.358a29.792,29.792,0,0,1-10.763-12,38.576,38.576,0,0,1-3.962-17.8,37.927,37.927,0,0,1,3.962-17.637,29.044,29.044,0,0,1,10.763-11.827,28.676,28.676,0,0,1,15.2-4.135,26.716,26.716,0,0,1,12.824,2.959,26.089,26.089,0,0,1,8.815,7.451V72.551h16.677v65.517H354.971v-9.582a24.591,24.591,0,0,1-8.815,7.631,26.943,26.943,0,0,1-12.951,3.007,27.853,27.853,0,0,1-15.087-4.258Zm10.946-46.6a16.923,16.923,0,0,0-6.336,6.566,20.582,20.582,0,0,0-2.423,10.23,21.257,21.257,0,0,0,2.424,10.365,17.5,17.5,0,0,0,6.388,6.8,16.244,16.244,0,0,0,8.462,2.366,17.048,17.048,0,0,0,8.636-2.313,16.652,16.652,0,0,0,6.388-6.619,23.821,23.821,0,0,0,0-20.7,16.651,16.651,0,0,0-6.388-6.619,17.048,17.048,0,0,0-8.636-2.313,16.774,16.774,0,0,0-8.515,2.231ZM208.6,135.946a25.524,25.524,0,0,1-10.946-8.515,22.433,22.433,0,0,1-4.135-13.126h17.742a11.466,11.466,0,0,0,3.6,8.043,12.776,12.776,0,0,0,8.928,2.959,13.749,13.749,0,0,0,9.106-2.759,9.037,9.037,0,0,0,3.319-7.273,8.408,8.408,0,0,0-2.248-6.035,15.8,15.8,0,0,0-5.621-3.725,93.224,93.224,0,0,0-9.275-3.028A99.034,99.034,0,0,1,206,97.809a22.864,22.864,0,0,1-8.636-6.975,19.889,19.889,0,0,1-3.607-12.489,22.306,22.306,0,0,1,3.671-12.776,23.332,23.332,0,0,1,10.289-8.34,37.465,37.465,0,0,1,15.134-2.9,32.862,32.862,0,0,1,20.758,6.21,23.035,23.035,0,0,1,8.815,17.35H234.2a9.461,9.461,0,0,0-3.6-7.041,13.605,13.605,0,0,0-8.928-2.759,11.489,11.489,0,0,0-7.747,2.483,8.978,8.978,0,0,0-2.9,7.216,7.456,7.456,0,0,0,2.188,5.52,16.6,16.6,0,0,0,5.442,3.547q3.254,1.358,9.167,3.155a96.237,96.237,0,0,1,13.126,4.731,23.589,23.589,0,0,1,8.75,7.091,19.713,19.713,0,0,1,3.666,12.42,23.374,23.374,0,0,1-3.428,12.3,24.255,24.255,0,0,1-10.057,9.052,34.3,34.3,0,0,1-15.725,3.372,39.184,39.184,0,0,1-15.555-3.043Zm296.71,2.136V101.874a16.982,16.982,0,0,0-3.9-12,13.8,13.8,0,0,0-10.638-4.2,14.165,14.165,0,0,0-10.823,4.2,16.838,16.838,0,0,0-3.932,12v36.192h-16.6V50.542h16.558V80.7A21.605,21.605,0,0,1,484.5,74a28.227,28.227,0,0,1,11.83-2.423,26.6,26.6,0,0,1,13.246,3.251,22.4,22.4,0,0,1,9.067,9.582,32.89,32.89,0,0,1,3.251,15.2v38.443Zm-234.068,0V50.542H287.8v87.527Z" transform="translate(-46.926 -105.175)" fill="url(#linear-gradient)"/>
    <g id="グループ_69040" data-name="グループ 69040" transform="translate(-0.103 -70.329)">
      <path id="長方形_18018" data-name="長方形 18018" d="M26.494,0H93.506C108.138,0,120,11.417,120,25.5v69c0,14.083-11.862,25.5-26.494,25.5H26.494C11.862,120,0,108.583,0,94.5v-69C0,11.417,11.862,0,26.494,0Z" transform="translate(0 0)" fill="url(#linear-gradient-2)"/>
      <path id="長方形_18019" data-name="長方形 18019" d="M.037,0,8.586-.041,8.1,94.424l-8.549.045Z" transform="translate(90.402 23.958) rotate(45)" fill="#fff"/>
    </g>
  </g>
</svg>
