<svg xmlns="http://www.w3.org/2000/svg" xmlns:xlink="http://www.w3.org/1999/xlink" width="329" height="250.488" viewBox="0 0 329 250.488">
  <defs>
    <linearGradient id="linear-gradient" x1="-0.062" y1="-0.061" x2="1.018" y2="1" gradientUnits="objectBoundingBox">
      <stop offset="0" stop-color="#3eb9fc"/>
      <stop offset="1" stop-color="#8b2ae1"/>
    </linearGradient>
    <linearGradient id="linear-gradient-2" x1="-0.042" y1="1.033" x2="1.092" y2="-0.082" xlink:href="#linear-gradient"/>
  </defs>
  <g id="グループ_68954" data-name="グループ 68954" transform="translate(-663 -1409.512)">
    <rect id="長方形_19599" data-name="長方形 19599" width="329" height="249" transform="translate(663 1410)" fill="#040730"/>
    <path id="長方形_19599_-_アウトライン" data-name="長方形 19599 - アウトライン" d="M1,1V248H328V1H1M0,0H329V249H0Z" transform="translate(663 1410)" fill="#14d7ff"/>
    <path id="線_19" data-name="線 19" d="M328.446.5H0v-1H328.446Z" transform="translate(663.554 1459.78)" fill="#14d7ff"/>
    <path id="線_21" data-name="線 21" d="M328.446.5H0v-1H328.446Z" transform="translate(663.554 1543.276)" fill="#14d7ff"/>
    <path id="線_20" data-name="線 20" d="M328.446.5H0v-1H328.446Z" transform="translate(663.554 1611.436)" fill="#14d7ff"/>
    <path id="パス_59320" data-name="パス 59320" d="M.5,234.988h-1V-15.5h1Z" transform="translate(732.095 1425.012)" fill="#14d7ff"/>
    <path id="パス_59321" data-name="パス 59321" d="M.5,234.988h-1V-15.5h1Z" transform="translate(923.511 1425.012)" fill="#14d7ff"/>
    <path id="パス_59336" data-name="パス 59336" d="M19.393,0h4.223L14.842-14.268l8.815-14.309H19.475l-6.56,11.193L6.027-28.577H1.845l8.774,14.309L1.886,0H6.027l6.519-11.152Z" transform="translate(701 1518)" fill="#fff"/>
    <path id="パス_59335" data-name="パス 59335" d="M10.718,0h1.794L7.636-8.027l4.9-8.05H10.741L6.808-9.384,2.737-16.077H.943L5.8-8.1.943,0H2.737L6.624-6.716Zm3.8,3.818H16.1L22.448-21.62H20.815ZM24.771-.115H35.742V-1.472h-8.51c3.243-2.392,8-6.279,8-10.488,0-3.174-2.116-4.807-4.991-4.807-3.036,0-5.152,1.909-5.336,5.382h1.564c.138-2.3,1.334-4,3.772-4,2.553,0,3.381,1.587,3.381,3.5,0,3.519-4.117,7.084-8.855,10.626Z" transform="translate(735 1443)" fill="#fff"/>
    <path id="パス_59337" data-name="パス 59337" d="M10.718,0h1.794L7.636-8.027l4.9-8.05H10.741L6.808-9.384,2.737-16.077H.943L5.8-8.1.943,0H2.737L6.624-6.716Zm3.8,3.818H16.1L22.448-21.62H20.815ZM24.771-.115H35.742V-1.472h-8.51c3.243-2.392,8-6.279,8-10.488,0-3.174-2.116-4.807-4.991-4.807-3.036,0-5.152,1.909-5.336,5.382h1.564c.138-2.3,1.334-4,3.772-4,2.553,0,3.381,1.587,3.381,3.5,0,3.519-4.117,7.084-8.855,10.626Z" transform="translate(735 1644)" fill="#fff"/>
    <g id="グループ_68940" data-name="グループ 68940" transform="translate(732.14 1459.78)">
      <path id="パス_57689" data-name="パス 57689" d="M315.064,100.491a14.879,14.879,0,0,1-5.895-4.6,11.623,11.623,0,0,1-2.378-6.412h9.721a5.3,5.3,0,0,0,2.172,3.654,7.568,7.568,0,0,0,4.725,1.448,7.324,7.324,0,0,0,4.309-1.105,3.337,3.337,0,0,0,1.551-2.817,2.988,2.988,0,0,0-1.9-2.792,35.727,35.727,0,0,0-6.03-2.036,50.932,50.932,0,0,1-7-2.137,12.143,12.143,0,0,1-4.686-3.378,9.061,9.061,0,0,1-1.965-6.136,9.9,9.9,0,0,1,1.827-5.791,12.274,12.274,0,0,1,5.24-4.137,19.644,19.644,0,0,1,8.043-1.517,16.4,16.4,0,0,1,10.891,3.413,12.64,12.64,0,0,1,4.481,9.2h-9.238a4.994,4.994,0,0,0-1.894-3.619,7.046,7.046,0,0,0-4.518-1.344,7.124,7.124,0,0,0-4.033.963,3.082,3.082,0,0,0-1.413,2.689,3.158,3.158,0,0,0,1.93,2.93,30.014,30.014,0,0,0,6,2.034,50.833,50.833,0,0,1,6.825,2.14,12.025,12.025,0,0,1,4.654,3.413,9.372,9.372,0,0,1,2.022,6.1,10.112,10.112,0,0,1-1.839,5.927,12.031,12.031,0,0,1-5.24,4.1,19.841,19.841,0,0,1-7.963,1.48,20.156,20.156,0,0,1-8.4-1.682Zm-48.915-.8a17.364,17.364,0,0,1-6.274-7,22.484,22.484,0,0,1-2.31-10.376,22.111,22.111,0,0,1,2.31-10.27,16.93,16.93,0,0,1,6.274-6.894,16.721,16.721,0,0,1,8.862-2.411,15.572,15.572,0,0,1,7.478,1.724,15.206,15.206,0,0,1,5.138,4.343V63.368h9.721V101.56h-9.721V95.975a14.332,14.332,0,0,1-5.138,4.447,15.7,15.7,0,0,1-7.549,1.758,16.236,16.236,0,0,1-8.79-2.482Zm6.38-27.163a9.863,9.863,0,0,0-3.691,3.826,12,12,0,0,0-1.413,5.964,12.39,12.39,0,0,0,1.413,6.042,10.2,10.2,0,0,0,3.723,3.964,9.468,9.468,0,0,0,4.932,1.379,9.939,9.939,0,0,0,5.033-1.344,9.7,9.7,0,0,0,3.723-3.858,13.883,13.883,0,0,0,0-12.067,9.7,9.7,0,0,0-3.723-3.858,9.939,9.939,0,0,0-5.033-1.344,9.776,9.776,0,0,0-4.964,1.3ZM202.31,100.314a14.878,14.878,0,0,1-6.38-4.964A13.069,13.069,0,0,1,193.52,87.7h10.341a6.679,6.679,0,0,0,2.1,4.688,7.446,7.446,0,0,0,5.205,1.724,8.014,8.014,0,0,0,5.309-1.609,5.267,5.267,0,0,0,1.93-4.24,4.9,4.9,0,0,0-1.31-3.516,9.211,9.211,0,0,0-3.277-2.172,54.343,54.343,0,0,0-5.407-1.765,57.722,57.722,0,0,1-7.62-2.723,13.329,13.329,0,0,1-5.033-4.065,11.591,11.591,0,0,1-2.1-7.273A13,13,0,0,1,195.8,59.3a13.6,13.6,0,0,1,6-4.86,21.832,21.832,0,0,1,8.822-1.689,19.155,19.155,0,0,1,12.1,3.619,13.425,13.425,0,0,1,5.139,10.112H217.234a5.515,5.515,0,0,0-2.1-4.1,7.93,7.93,0,0,0-5.205-1.609,6.7,6.7,0,0,0-4.516,1.448,5.233,5.233,0,0,0-1.689,4.205A4.346,4.346,0,0,0,205,69.639a9.675,9.675,0,0,0,3.171,2.068q1.9.8,5.343,1.838a56.091,56.091,0,0,1,7.653,2.758,13.749,13.749,0,0,1,5.1,4.137,11.49,11.49,0,0,1,2.137,7.239,13.626,13.626,0,0,1-2,7.17,14.138,14.138,0,0,1-5.862,5.274,19.993,19.993,0,0,1-9.169,1.965,22.839,22.839,0,0,1-9.066-1.774Zm172.943,1.246v-21.1a9.9,9.9,0,0,0-2.275-7,8.043,8.043,0,0,0-6.2-2.447,8.257,8.257,0,0,0-6.308,2.447,9.815,9.815,0,0,0-2.3,7v21.1h-9.652V50.542h9.652v17.58a12.594,12.594,0,0,1,4.964-3.907,16.454,16.454,0,0,1,6.894-1.413,15.5,15.5,0,0,1,7.722,1.9,13.058,13.058,0,0,1,5.286,5.584,19.172,19.172,0,0,1,1.9,8.859v22.406Zm-136.435,0V50.542h9.652V101.56Z" transform="translate(-193.52 47.627)" fill="url(#linear-gradient)"/>
      <g id="_イヤー_1-2" transform="translate(58.82 -65.591)">
        <rect id="長方形_19621" data-name="長方形 19621" width="83.5" height="81.79" rx="17" transform="translate(81.79 65.591) rotate(90)" fill="url(#linear-gradient-2)"/>
        <path id="パス_59334" data-name="パス 59334" d="M2.173.357l6.311.1.689,66.775-6.311-.1Z" transform="translate(60.549 79.356) rotate(45)" fill="#fff"/>
      </g>
    </g>
  </g>
</svg>
