<svg xmlns="http://www.w3.org/2000/svg" xmlns:xlink="http://www.w3.org/1999/xlink" width="335.245" height="250" viewBox="0 0 335.245 250">
  <defs>
    <linearGradient id="linear-gradient" x1="-0.062" y1="-0.061" x2="1.018" y2="1" gradientUnits="objectBoundingBox">
      <stop offset="0" stop-color="#3eb9fc"/>
      <stop offset="1" stop-color="#8b2ae1"/>
    </linearGradient>
    <linearGradient id="linear-gradient-2" x1="0" y1="0" x2="1" xlink:href="#linear-gradient"/>
  </defs>
  <g id="グループ_69039" data-name="グループ 69039" transform="translate(-20 -1511.109)">
    <g id="長方形_19615" data-name="長方形 19615" transform="translate(20 1511.109)" fill="#040730" stroke="#14d7ff" stroke-width="1">
      <rect width="335.245" height="250" stroke="none"/>
      <rect x="0.5" y="0.5" width="334.245" height="249" fill="none"/>
    </g>
    <path id="パス_59548" data-name="パス 59548" d="M17.706,12.659H21.74L13.359-.97l8.42-13.667H17.784L11.519-3.946,4.939-14.637H.945L9.326-.97.984,12.659H4.939L11.166,2.007Z" transform="translate(93.614 1599.168)" fill="#fff"/>
    <path id="パス_59549" data-name="パス 59549" d="M9.169,8.942h1.6L6.42,1.783,10.79-5.4H9.19L5.682.573,2.051-5.4H.451L4.779,1.722.451,8.942h1.6l3.467-5.99Zm3.385,3.405h1.415L19.631-10.34H18.174ZM21.7,8.84h9.785V7.63H23.9c2.892-2.133,7.139-5.6,7.139-9.354,0-2.831-1.887-4.287-4.451-4.287-2.708,0-4.595,1.7-4.759,4.8h1.395c.123-2.051,1.19-3.569,3.364-3.569,2.277,0,3.015,1.415,3.015,3.118,0,3.139-3.672,6.318-7.9,9.477Z" transform="translate(257.529 1532.703)" fill="#fff"/>
    <path id="パス_59547" data-name="パス 59547" d="M9.169,6.964h1.6L6.42-.2l4.369-7.18H9.19L5.682-1.406,2.051-7.375H.451L4.779-.257.451,6.964h1.6L5.518.974Zm7.9-15.016h-1.21L16.1-4.831,13.436-6.616l-.595,1.067,2.892,1.292L12.82-2.944l.615,1.087,2.646-1.785L15.856-.421h1.19L16.8-3.642l2.646,1.764.595-1.067L17.128-4.257,20.021-5.57l-.574-1.046L16.8-4.831ZM23.9,6.964h1.456V-7.744H21.867v1.292H23.9ZM30.134,6a1.036,1.036,0,1,0-2.072,0,1.036,1.036,0,1,0,2.072,0ZM32.718-7.765V.379h1.354A3.627,3.627,0,0,1,37.5-1.672a3.262,3.262,0,0,1,3.569,3.61c0,2.215-1.128,3.856-3.61,3.856a3.414,3.414,0,0,1-3.61-2.831H32.431C32.8,5.4,34.605,7.025,37.457,7.025c3.467,0,4.985-2.338,4.985-5.108,0-2.318-1.21-4.821-4.759-4.821a4.563,4.563,0,0,0-3.631,1.641V-6.514h7.508V-7.765Z" transform="translate(166.989 1731.728)" fill="#fff"/>
    <g id="グループ_67150" data-name="グループ 67150" transform="translate(123.749 1557.501)">
      <path id="パス_57689" data-name="パス 57689" d="M276.336,84.576a10.138,10.138,0,0,1-4.016-3.132,7.922,7.922,0,0,1-1.621-4.369h6.624a3.61,3.61,0,0,0,1.48,2.49,5.156,5.156,0,0,0,3.219.986,4.99,4.99,0,0,0,2.936-.753,2.273,2.273,0,0,0,1.057-1.92,2.035,2.035,0,0,0-1.292-1.9,24.339,24.339,0,0,0-4.109-1.387,34.7,34.7,0,0,1-4.77-1.456,8.274,8.274,0,0,1-3.193-2.3,6.175,6.175,0,0,1-1.339-4.181,6.749,6.749,0,0,1,1.245-3.946,8.363,8.363,0,0,1,3.57-2.819,13.386,13.386,0,0,1,5.481-1.033,11.171,11.171,0,0,1,7.421,2.325,8.612,8.612,0,0,1,3.053,6.271h-6.295a3.4,3.4,0,0,0-1.29-2.466,4.8,4.8,0,0,0-3.079-.916,4.854,4.854,0,0,0-2.748.656,2.1,2.1,0,0,0-.963,1.832,2.152,2.152,0,0,0,1.315,2,20.449,20.449,0,0,0,4.087,1.386,34.639,34.639,0,0,1,4.651,1.458,8.193,8.193,0,0,1,3.171,2.325,6.385,6.385,0,0,1,1.378,4.159,6.889,6.889,0,0,1-1.253,4.038,8.2,8.2,0,0,1-3.57,2.8,13.519,13.519,0,0,1-5.426,1.008,13.734,13.734,0,0,1-5.725-1.146Zm-33.329-.542a11.831,11.831,0,0,1-4.275-4.768,15.321,15.321,0,0,1-1.574-7.07,15.068,15.068,0,0,1,1.574-7,11.535,11.535,0,0,1,4.275-4.7,11.393,11.393,0,0,1,6.038-1.643,10.611,10.611,0,0,1,5.1,1.174,10.362,10.362,0,0,1,3.5,2.959V59.281h6.624V85.3h-6.624V81.5a9.764,9.764,0,0,1-3.5,3.03,10.7,10.7,0,0,1-5.144,1.2,11.063,11.063,0,0,1-5.989-1.691Zm4.347-18.508a6.72,6.72,0,0,0-2.515,2.607,8.174,8.174,0,0,0-.963,4.063,8.443,8.443,0,0,0,.963,4.117,6.953,6.953,0,0,0,2.537,2.7,6.452,6.452,0,0,0,3.36.94,6.772,6.772,0,0,0,3.429-.916,6.61,6.61,0,0,0,2.537-2.629,9.459,9.459,0,0,0,0-8.222,6.611,6.611,0,0,0-2.537-2.629,6.772,6.772,0,0,0-3.429-.916,6.661,6.661,0,0,0-3.382.886ZM199.51,84.455a10.137,10.137,0,0,1-4.347-3.382,8.9,8.9,0,0,1-1.643-5.214h7.046A4.551,4.551,0,0,0,202,79.053a5.073,5.073,0,0,0,3.547,1.174,5.46,5.46,0,0,0,3.617-1.1,3.589,3.589,0,0,0,1.315-2.889,3.34,3.34,0,0,0-.893-2.4,6.275,6.275,0,0,0-2.233-1.48,37.019,37.019,0,0,0-3.684-1.2,39.338,39.338,0,0,1-5.192-1.856,9.081,9.081,0,0,1-3.429-2.77,7.9,7.9,0,0,1-1.433-4.956,8.86,8.86,0,0,1,1.458-5.073,9.267,9.267,0,0,1,4.087-3.312,14.876,14.876,0,0,1,6.011-1.151,13.051,13.051,0,0,1,8.244,2.466,9.148,9.148,0,0,1,3.5,6.89h-7.236a3.758,3.758,0,0,0-1.431-2.8,5.4,5.4,0,0,0-3.547-1.1,4.563,4.563,0,0,0-3.077.987,3.565,3.565,0,0,0-1.151,2.865,2.961,2.961,0,0,0,.869,2.192,6.591,6.591,0,0,0,2.161,1.409q1.292.542,3.641,1.253a38.216,38.216,0,0,1,5.214,1.879,9.368,9.368,0,0,1,3.476,2.819,7.829,7.829,0,0,1,1.456,4.932,9.284,9.284,0,0,1-1.361,4.885,9.633,9.633,0,0,1-3.995,3.594,13.622,13.622,0,0,1-6.248,1.339A15.562,15.562,0,0,1,199.51,84.455Zm117.838.849V70.929a6.744,6.744,0,0,0-1.55-4.768,5.48,5.48,0,0,0-4.228-1.668,5.626,5.626,0,0,0-4.3,1.668,6.688,6.688,0,0,0-1.566,4.768V85.3h-6.577V50.542h6.577V62.521a8.581,8.581,0,0,1,3.382-2.662,11.211,11.211,0,0,1,4.7-.963,10.565,10.565,0,0,1,5.261,1.292,8.9,8.9,0,0,1,3.6,3.805,13.062,13.062,0,0,1,1.292,6.036V85.3Zm-92.963,0V50.542h6.577V85.3Z" transform="translate(-193.52 55.817)" fill="url(#linear-gradient)"/>
      <g id="グループ_67319" data-name="グループ 67319" transform="translate(21.63 0.39)">
        <rect id="長方形_18018" data-name="長方形 18018" width="87" height="88" rx="20" fill="url(#linear-gradient-2)"/>
        <path id="長方形_18019" data-name="長方形 18019" d="M0,0,6.455.046l.507,71.33L.507,71.33Z" transform="translate(66.084 16.258) rotate(45)" fill="#fff"/>
      </g>
    </g>
    <path id="パス_59546" data-name="パス 59546" d="M0,0H334.68" transform="translate(20 1646.55)" fill="none" stroke="#14d7ff" stroke-width="1"/>
    <path id="パス_59565" data-name="パス 59565" d="M0,0H334.68" transform="translate(20 1557.153)" fill="none" stroke="#14d7ff" stroke-width="1"/>
    <path id="パス_59564" data-name="パス 59564" d="M0,0H334.68" transform="translate(20 1716.313)" fill="none" stroke="#14d7ff" stroke-width="1"/>
    <path id="パス_59331" data-name="パス 59331" d="M0,232.572V-15.5" transform="translate(123.596 1526.609)" fill="none" stroke="#14d7ff" stroke-width="1"/>
    <path id="パス_59329" data-name="パス 59329" d="M0,232.572V-15.5" transform="translate(254.21 1526.609)" fill="none" stroke="#14d7ff" stroke-width="1"/>
  </g>
</svg>
