<svg id="_レイヤー_1-2" xmlns="http://www.w3.org/2000/svg" xmlns:xlink="http://www.w3.org/1999/xlink" width="329" height="250.49" viewBox="0 0 329 250.49">
  <defs>
    <linearGradient id="linear-gradient" x1="-0.062" y1="-0.061" x2="1.018" y2="1" gradientUnits="objectBoundingBox">
      <stop offset="0" stop-color="#3eb9fc"/>
      <stop offset="1" stop-color="#8b2ae1"/>
    </linearGradient>
    <linearGradient id="linear-gradient-2" x1="0" y1="0" x2="1" xlink:href="#linear-gradient"/>
  </defs>
  <g id="_グループ_68954">
    <rect id="_長方形_19599" width="329" height="249" transform="translate(0 0.49)" fill="#040730"/>
    <path id="_長方形_19599_-_アウトライン" d="M1,1.49v247H328V1.49H1m-1-1H329v249H0Z" fill="#14d7ff"/>
    <path id="_線_19" d="M329,51.77H.55v-1H329Z" fill="#14d7ff"/>
    <path id="_線_21" d="M329,135.26H.55v-1H329Z" fill="#14d7ff"/>
    <path id="_線_20" d="M329,202.42H.55v-1H329Z" fill="#14d7ff"/>
    <path id="_パス_59320" d="M69.59,250.49h-1V0h1Z" fill="#14d7ff"/>
    <path id="_パス_59321" d="M261.01,250.49h-1V0h1Z" fill="#14d7ff"/>
    <path id="_パス_59547" d="M151.61,232.95h1.89l-5.15-8.48,5.18-8.5h-1.91l-4.15,7.06-4.3-7.06h-1.89l5.12,8.43-5.12,8.55h1.89l4.1-7.09,4.32,7.09Zm9.35-17.78h-1.43l.29,3.81-3.16-2.11-.7,1.26,3.42,1.53-3.45,1.55.73,1.29,3.13-2.11-.27,3.82h1.41l-.29-3.81,3.13,2.09.7-1.26-3.45-1.55,3.42-1.55-.68-1.24L160.63,219l.32-3.83Zm8.09,17.78h1.72V215.54h-4.13v1.53h2.4v15.88Zm7.38-1.14a1.208,1.208,0,0,0-1.18-1.24h-.04a1.223,1.223,0,0,0-1.24,1.19v.05a1.225,1.225,0,0,0,1.21,1.26h.03a1.221,1.221,0,0,0,1.21-1.24v-.02Zm3.06-16.3v9.64h1.6a4.3,4.3,0,0,1,4.06-2.43,3.861,3.861,0,0,1,4.23,3.45,3.656,3.656,0,0,1,0,.81,4.046,4.046,0,0,1-3.48,4.55,5.171,5.171,0,0,1-.79.03,4.04,4.04,0,0,1-4.27-3.35h-1.69a6.034,6.034,0,0,0,11.87-.29,6.014,6.014,0,0,0-.01-.95,5.257,5.257,0,0,0-4.77-5.7,4.12,4.12,0,0,0-.86,0,5.4,5.4,0,0,0-4.3,1.94v-6.22h8.89V215.5H179.49Z" fill="#fff"/>
    <path id="_パス_59336" d="M57.39,108.49h4.22L52.84,94.22l8.81-14.31H57.47L50.91,91.1,44.02,79.91H39.84l8.77,14.31-8.73,14.27h4.14l6.52-11.15,6.85,11.15Z" fill="#fff"/>
    <path id="_パス_59335" d="M82.72,33.49h1.79l-4.88-8.03,4.9-8.05h-1.8L78.8,24.1l-4.07-6.69H72.94l4.86,7.98-4.86,8.1h1.79l3.89-6.72,4.09,6.72Zm3.8,3.82H88.1l6.35-25.44H92.82Zm10.25-3.93h10.97V32.02H99.23c3.24-2.39,8-6.28,8-10.49,0-3.17-2.12-4.81-4.99-4.81-3.04,0-5.15,1.91-5.34,5.38h1.56c.14-2.3,1.33-4,3.77-4s3.38,1.59,3.38,3.5c0,3.52-4.12,7.08-8.85,10.63v1.14Z" fill="#fff"/>
  </g>
  <g id="グループ_67150" data-name="グループ 67150" transform="translate(227.647 609.49)">
    <path id="パス_57689" data-name="パス 57689" d="M270.769,82.288a9.456,9.456,0,0,1-3.749-2.921,7.389,7.389,0,0,1-1.512-4.075h6.178a3.368,3.368,0,0,0,1.38,2.323,4.81,4.81,0,0,0,3,.92,4.655,4.655,0,0,0,2.739-.7,2.12,2.12,0,0,0,.986-1.79,1.9,1.9,0,0,0-1.2-1.774,22.7,22.7,0,0,0-3.832-1.294,32.372,32.372,0,0,1-4.445-1.36,7.718,7.718,0,0,1-2.978-2.147,5.759,5.759,0,0,1-1.25-3.9,6.3,6.3,0,0,1,1.161-3.681,7.8,7.8,0,0,1,3.33-2.629,12.486,12.486,0,0,1,5.112-.964,10.419,10.419,0,0,1,6.921,2.169,8.034,8.034,0,0,1,2.844,5.852h-5.872a3.174,3.174,0,0,0-1.2-2.3,4.478,4.478,0,0,0-2.872-.854,4.528,4.528,0,0,0-2.563.612,1.959,1.959,0,0,0-.9,1.709,2.007,2.007,0,0,0,1.227,1.862,19.074,19.074,0,0,0,3.812,1.293A32.309,32.309,0,0,1,281.421,70a7.644,7.644,0,0,1,2.958,2.169,5.954,5.954,0,0,1,1.286,3.879A6.426,6.426,0,0,1,284.5,79.81a7.644,7.644,0,0,1-3.33,2.609,12.61,12.61,0,0,1-5.061.941,12.811,12.811,0,0,1-5.34-1.069Zm-31.09-.506a11.036,11.036,0,0,1-3.984-4.444,14.29,14.29,0,0,1-1.47-6.594,14.054,14.054,0,0,1,1.47-6.528,10.76,10.76,0,0,1,3.987-4.382,10.627,10.627,0,0,1,5.632-1.532,9.9,9.9,0,0,1,4.753,1.1,9.665,9.665,0,0,1,3.266,2.761V58.7h6.174V82.967h-6.174V79.418a9.108,9.108,0,0,1-3.266,2.826,9.98,9.98,0,0,1-4.8,1.117,10.319,10.319,0,0,1-5.586-1.577Zm4.054-17.264a6.269,6.269,0,0,0-2.345,2.432,7.624,7.624,0,0,0-.9,3.79,7.876,7.876,0,0,0,.9,3.84,6.484,6.484,0,0,0,2.366,2.52,6.018,6.018,0,0,0,3.135.876,6.316,6.316,0,0,0,3.2-.855,6.165,6.165,0,0,0,2.366-2.453,8.82,8.82,0,0,0,0-7.67,6.166,6.166,0,0,0-2.366-2.452,6.317,6.317,0,0,0-3.2-.855,6.213,6.213,0,0,0-3.155.827ZM199.107,82.176a9.456,9.456,0,0,1-4.054-3.155,8.305,8.305,0,0,1-1.532-4.863h6.572a4.245,4.245,0,0,0,1.335,2.98,4.732,4.732,0,0,0,3.307,1.1,5.093,5.093,0,0,0,3.374-1.022,3.347,3.347,0,0,0,1.227-2.694,3.116,3.116,0,0,0-.833-2.234,5.853,5.853,0,0,0-2.083-1.38,34.526,34.526,0,0,0-3.437-1.122,36.7,36.7,0,0,1-4.843-1.731,8.471,8.471,0,0,1-3.2-2.584,7.367,7.367,0,0,1-1.336-4.622,8.264,8.264,0,0,1,1.36-4.732,8.644,8.644,0,0,1,3.812-3.087,13.875,13.875,0,0,1,5.607-1.074,12.174,12.174,0,0,1,7.69,2.3,8.533,8.533,0,0,1,3.266,6.427H208.59a3.505,3.505,0,0,0-1.335-2.608,5.041,5.041,0,0,0-3.307-1.022,4.256,4.256,0,0,0-2.867.92,3.326,3.326,0,0,0-1.074,2.673,2.762,2.762,0,0,0,.808,2.045A6.148,6.148,0,0,0,202.832,64q1.205.506,3.4,1.169a35.644,35.644,0,0,1,4.863,1.753,8.738,8.738,0,0,1,3.243,2.629,7.3,7.3,0,0,1,1.358,4.6,8.661,8.661,0,0,1-1.269,4.557,8.985,8.985,0,0,1-3.726,3.352,12.706,12.706,0,0,1-5.828,1.249,14.516,14.516,0,0,1-5.762-1.133Zm109.916.792V69.559a6.291,6.291,0,0,0-1.446-4.447,5.112,5.112,0,0,0-3.943-1.555,5.248,5.248,0,0,0-4.009,1.555,6.239,6.239,0,0,0-1.46,4.447V82.967h-6.134V50.542h6.134V61.714a8,8,0,0,1,3.155-2.483,10.458,10.458,0,0,1,4.382-.9,9.855,9.855,0,0,1,4.908,1.2,8.3,8.3,0,0,1,3.363,3.549,12.184,12.184,0,0,1,1.2,5.631V82.96Zm-86.713,0V50.542h6.134V82.967Z" transform="translate(-317.497 -509.189)" fill="url(#linear-gradient)"/>
    <g id="グループ_67319" data-name="グループ 67319" transform="translate(-103.482 -557.856)">
      <path id="長方形_18018" data-name="長方形 18018" d="M15.435,0h49.8A15.435,15.435,0,0,1,80.666,15.435V67.063A15.435,15.435,0,0,1,65.231,82.5h-49.8A15.435,15.435,0,0,1,0,67.063V15.435A15.435,15.435,0,0,1,15.435,0Z" fill="url(#linear-gradient-2)"/>
      <path id="長方形_18019" data-name="長方形 18019" d="M0,0,6.017.095l1.045,66.5L1.045,66.5Z" transform="translate(61.203 15.165) rotate(45)" fill="#fff"/>
    </g>
  </g>
</svg>
