<?xml version="1.0" encoding="UTF-8"?><svg id="_レイヤー_2" xmlns="http://www.w3.org/2000/svg" xmlns:xlink="http://www.w3.org/1999/xlink" viewBox="0 0 609.52 249.14"><defs><style>.cls-1{fill:#040730;}.cls-2{fill:#fff;}.cls-3{fill:none;stroke:#14d7ff;}.cls-4{fill:url(#_名称未設定グラデーション_3);}.cls-5{fill:url(#_名称未設定グラデーション_2);}</style><linearGradient id="_名称未設定グラデーション_3" x1="-440.21" y1="320.36" x2="-438.17" y2="318.36" gradientTransform="translate(78645.12 15479.5) scale(178.24 -48.09)" gradientUnits="userSpaceOnUse"><stop offset="0" stop-color="#3eb9fc"/><stop offset="1" stop-color="#8b2ae1"/></linearGradient><linearGradient id="_名称未設定グラデーション_2" x1="-437.87" y1="325.43" x2="-436.66" y2="324.22" gradientTransform="translate(43412.52 32282) scale(99 -99)" gradientUnits="userSpaceOnUse"><stop offset="0" stop-color="#49a4f8"/><stop offset="1" stop-color="#803de4"/></linearGradient></defs><g id="_レイヤー_1-2"><g id="_グループ_68953"><g id="_長方形_2462"><rect class="cls-1" x=".02" y=".5" width="609" height="248.64"/><rect class="cls-3" x=".5" y=".5" width="608.52" height="248.14"/></g><g id="_グループ_67150"><path id="_パス_57689" class="cls-4" d="M422.22,165.54c-4.09-1.77-7.65-4.55-10.36-8.08-2.49-3.26-3.95-7.19-4.18-11.28h17.09c.32,2.58,1.71,4.91,3.82,6.42,2.41,1.75,5.33,2.65,8.31,2.55,2.67,.15,5.31-.53,7.58-1.94,1.7-1.08,2.73-2.95,2.73-4.95,0-2.17-1.32-4.12-3.33-4.91-3.42-1.51-6.97-2.71-10.6-3.59-4.19-.96-8.3-2.21-12.31-3.76-3.18-1.29-6.01-3.33-8.24-5.94-2.43-3.05-3.66-6.89-3.46-10.79-.02-3.65,1.1-7.21,3.21-10.18,2.34-3.23,5.53-5.75,9.21-7.27,4.47-1.86,9.29-2.76,14.13-2.64,6.9-.36,13.69,1.77,19.15,6,4.79,4.04,7.65,9.92,7.88,16.18h-16.24c-.15-2.5-1.36-4.81-3.33-6.36-2.3-1.68-5.1-2.51-7.94-2.36-2.48-.15-4.95,.44-7.09,1.7-1.6,1.03-2.54,2.82-2.49,4.72-.01,2.25,1.33,4.28,3.4,5.15,3.38,1.56,6.91,2.76,10.55,3.58,4.08,.97,8.09,2.23,12,3.76,3.17,1.31,5.98,3.37,8.18,6,2.41,3.05,3.67,6.85,3.56,10.73,.04,3.73-1.09,7.37-3.23,10.42-2.33,3.22-5.52,5.73-9.21,7.22-4.44,1.82-9.21,2.71-14,2.6-5.08,.08-10.12-.92-14.77-2.96h0Zm-86.01-1.4c-4.74-3.01-8.56-7.27-11.03-12.3-2.79-5.67-4.19-11.93-4.06-18.24-.12-6.26,1.27-12.45,4.06-18.06,2.47-4.99,6.29-9.19,11.03-12.12,4.7-2.84,10.09-4.31,15.58-4.24,4.57-.11,9.09,.93,13.15,3.02,3.54,1.84,6.63,4.45,9.04,7.64v-9.57h17.09v67.16h-17.09v-9.82c-2.34,3.29-5.44,5.98-9.04,7.82-4.1,2.12-8.66,3.19-13.27,3.09-5.46,.05-10.83-1.46-15.46-4.36h0Zm11.22-47.77c-2.74,1.61-4.98,3.93-6.49,6.73-1.72,3.22-2.58,6.83-2.49,10.49-.09,3.69,.77,7.35,2.49,10.62,1.51,2.87,3.77,5.28,6.55,6.97,2.61,1.59,5.61,2.43,8.67,2.42,3.11,.01,6.16-.8,8.85-2.36,2.78-1.6,5.05-3.95,6.55-6.78,3.23-6.7,3.23-14.52,0-21.22-1.5-2.83-3.77-5.18-6.55-6.78-2.69-1.56-5.74-2.38-8.85-2.36-3.06-.03-6.07,.76-8.73,2.29h0Zm-123.47,48.85c-4.47-1.82-8.35-4.84-11.22-8.73-2.79-3.93-4.27-8.64-4.24-13.46h18.18c.08,3.13,1.41,6.1,3.69,8.24,2.56,2.13,5.83,3.21,9.15,3.02,3.35,.2,6.66-.81,9.33-2.83,2.23-1.82,3.49-4.58,3.4-7.45,.08-2.28-.75-4.51-2.3-6.18-1.62-1.67-3.59-2.98-5.76-3.82-3.11-1.2-6.29-2.23-9.51-3.1-4.58-1.28-9.06-2.88-13.41-4.79-3.49-1.62-6.53-4.07-8.85-7.15-2.63-3.73-3.93-8.23-3.7-12.79-.11-4.64,1.21-9.21,3.76-13.09,2.62-3.81,6.28-6.78,10.55-8.55,4.91-2.05,10.19-3.07,15.51-2.97,7.61-.35,15.11,1.9,21.28,6.36,5.49,4.3,8.8,10.81,9.04,17.78h-18.67c-.12-2.83-1.47-5.47-3.69-7.22-2.62-2-5.86-3-9.15-2.83-2.87-.15-5.69,.76-7.94,2.55-2.06,1.89-3.15,4.61-2.97,7.39-.07,2.12,.74,4.17,2.24,5.66,1.6,1.57,3.5,2.8,5.58,3.64,2.22,.93,5.35,2.01,9.39,3.23,4.6,1.29,9.09,2.91,13.46,4.85,3.53,1.66,6.61,4.16,8.97,7.27,2.65,3.7,3.97,8.19,3.75,12.73,.02,4.45-1.19,8.81-3.51,12.61-2.49,4.01-6.06,7.22-10.31,9.27-5.02,2.41-10.55,3.6-16.12,3.46-5.47,.06-10.9-1-15.94-3.12h0Zm304.09,2.19v-37.11c.3-4.46-1.14-8.87-4-12.3-2.84-2.95-6.82-4.52-10.91-4.3-4.14-.22-8.18,1.35-11.09,4.3-2.89,3.42-4.34,7.83-4.04,12.3v37.1h-16.97V77.71h16.97v30.91c2.28-2.99,5.28-5.36,8.73-6.87,3.81-1.69,7.95-2.54,12.12-2.49,4.74-.09,9.42,1.06,13.58,3.33,4.01,2.27,7.25,5.69,9.29,9.82,2.34,4.85,3.48,10.19,3.33,15.58v39.4l-17.01,.02Zm-239.9,0V77.71h16.97v89.71h-16.97Z"/><g id="_グループ_67319"><rect id="_長方形_18018" class="cls-5" x="63.42" y="64.44" width="120" height="120" rx="25.13" ry="25.13"/><rect id="_長方形_18019" class="cls-2" x="73.41" y="119.52" width="97.76" height="8.85" transform="translate(-51.83 122.77) rotate(-45)"/></g></g><line id="_線_8" class="cls-3" x1="1.02" y1="64.61" x2="609.02" y2="64.61"/><line id="_線_9" class="cls-3" x1="1.02" y1="185.14" x2="609.02" y2="185.14"/><path id="_パス_19" class="cls-3" d="M62.68,248.5V.5"/><path id="_パス_17" class="cls-3" d="M545.97,248.14V.5"/><path id="_パス_18" class="cls-3" d="M184.28,248.5V.5"/><path id="_パス_59339" class="cls-2" d="M128.79,232.14h4.22l-8.77-14.27,8.81-14.31h-4.18l-6.56,11.19-6.89-11.19h-4.18l8.77,14.31-8.73,14.27h4.14l6.52-11.15,6.85,11.15Z"/><path id="_パス_59338" class="cls-2" d="M25.11,133.14h1.79l-4.88-8.03,4.9-8.05h-1.8l-3.93,6.69-4.07-6.69h-1.79l4.86,7.98-4.86,8.1h1.79l3.89-6.72,4.09,6.72Zm3.8,3.82h1.58l6.35-25.44h-1.63l-6.3,25.44Zm10.25-3.93h10.97v-1.36h-8.51c3.24-2.39,8-6.28,8-10.49,0-3.17-2.12-4.81-4.99-4.81-3.04,0-5.15,1.91-5.34,5.38h1.56c.14-2.3,1.33-4,3.77-4s3.38,1.59,3.38,3.5c0,3.52-4.12,7.08-8.85,10.63v1.14Z"/><path id="_パス_59340" class="cls-2" d="M206.11,226.14h1.79l-4.88-8.03,4.9-8.05h-1.8l-3.93,6.69-4.07-6.69h-1.79l4.86,7.98-4.86,8.1h1.79l3.89-6.72,4.09,6.72Zm3.8,3.82h1.58l6.35-25.44h-1.63l-6.3,25.44Zm10.25-3.93h10.97v-1.36h-8.51c3.24-2.39,8-6.28,8-10.49,0-3.17-2.12-4.81-4.99-4.81-3.04,0-5.15,1.91-5.34,5.38h1.56c.14-2.3,1.33-4,3.77-4s3.38,1.59,3.38,3.5c0,3.52-4.12,7.08-8.85,10.63v1.14Z"/><path id="_パス_59341" class="cls-2" d="M568.11,133.14h1.79l-4.88-8.03,4.9-8.05h-1.8l-3.93,6.69-4.07-6.69h-1.79l4.86,7.98-4.86,8.1h1.79l3.89-6.72,4.09,6.72Zm3.8,3.82h1.58l6.35-25.44h-1.63l-6.3,25.44Zm10.25-3.93h10.97v-1.36h-8.51c3.24-2.39,8-6.28,8-10.49,0-3.17-2.12-4.81-4.99-4.81-3.04,0-5.15,1.91-5.34,5.38h1.56c.14-2.3,1.33-4,3.77-4s3.38,1.59,3.38,3.5c0,3.52-4.12,7.08-8.85,10.63v1.14Z"/></g></g></svg>