<svg xmlns="http://www.w3.org/2000/svg" xmlns:xlink="http://www.w3.org/1999/xlink" width="558.359" height="250" viewBox="0 0 558.359 250">
  <defs>
    <linearGradient id="linear-gradient" x1="-0.062" y1="-0.061" x2="1.018" y2="1" gradientUnits="objectBoundingBox">
      <stop offset="0" stop-color="#3eb9fc"/>
      <stop offset="1" stop-color="#8b2ae1"/>
    </linearGradient>
    <linearGradient id="linear-gradient-2" x1="0" y1="0" x2="1" xlink:href="#linear-gradient"/>
  </defs>
  <g id="グループ_69042" data-name="グループ 69042" transform="translate(-2730 -1349.832)">
    <g id="パス_59557" data-name="パス 59557" transform="translate(2730 1349.832)" fill="#040730">
      <path d="M 557.8585815429688 249.5 L 0.5000050663948059 249.5 L 0.5000050663948059 0.5000076293945312 L 557.8585815429688 0.5000076293945312 L 557.8585815429688 249.5 Z" stroke="none"/>
      <path d="M 1 1.000015258789062 L 1 249 L 557.3585815429688 249 L 557.3585815429688 1.000015258789062 L 1 1.000015258789062 M 0 1.52587890625e-05 L 558.3585815429688 1.52587890625e-05 L 558.3585815429688 250 L 0 250 L 0 1.52587890625e-05 Z" stroke="none" fill="#14d7ff"/>
    </g>
    <path id="パス_59563" data-name="パス 59563" d="M0,0H558.19" transform="translate(2730 1403.606)" fill="none" stroke="#14d7ff" stroke-width="1"/>
    <path id="パス_59562" data-name="パス 59562" d="M0,0H558.358" transform="translate(2730 1546.265)" fill="none" stroke="#14d7ff" stroke-width="1"/>
    <path id="パス_59555" data-name="パス 59555" d="M20.414,17.069H25.1L15.365,1.239l9.78-15.876h-4.64L13.227-2.219,5.585-14.637H.945L10.68,1.239.99,17.069H5.585L12.818,4.7Z" transform="translate(2825.745 1571.695)" fill="#fff"/>
    <path id="パス_59554" data-name="パス 59554" d="M10.578,12.058h1.859L7.385,3.742,12.46-4.6H10.6L6.527,2.336,2.31-4.6H.451L5.479,3.671.451,12.058H2.31L6.336,5.1Zm3.932,3.955h1.644L22.73-10.34H21.038Zm10.627-4.075H36.5V10.533H27.686c3.36-2.478,8.292-6.5,8.292-10.865,0-3.288-2.192-4.98-5.171-4.98-3.145,0-5.337,1.978-5.528,5.576H26.9c.143-2.383,1.382-4.146,3.908-4.146,2.645,0,3.5,1.644,3.5,3.622,0,3.646-4.265,7.339-9.174,11.008Z" transform="translate(2913.11 1569.125)" fill="#fff"/>
    <path id="パス_59553" data-name="パス 59553" d="M10.578,12.058h1.859L7.385,3.742,12.46-4.6H10.6L6.527,2.336,2.31-4.6H.451L5.479,3.671.451,12.058H2.31L6.336,5.1Zm3.932,3.955h1.644L22.73-10.34H21.038Zm10.627-4.075H36.5V10.533H27.686c3.36-2.478,8.292-6.5,8.292-10.865,0-3.288-2.192-4.98-5.171-4.98-3.145,0-5.337,1.978-5.528,5.576H26.9c.143-2.383,1.382-4.146,3.908-4.146,2.645,0,3.5,1.644,3.5,3.622,0,3.646-4.265,7.339-9.174,11.008Z" transform="translate(3240.878 1471.25)" fill="#fff"/>
    <path id="パス_59550" data-name="パス 59550" d="M0,234.246V-15.5" transform="translate(2785.857 1365.586)" fill="none" stroke="#14d7ff" stroke-width="1"/>
    <path id="パス_59551" data-name="パス 59551" d="M0,234.246V-15.5" transform="translate(2897.281 1365.586)" fill="none" stroke="#14d7ff" stroke-width="1"/>
    <path id="パス_59552" data-name="パス 59552" d="M0,234.246V-15.5" transform="translate(3232.333 1365.586)" fill="none" stroke="#14d7ff" stroke-width="1"/>
    <g id="グループ_67150" data-name="グループ 67150" transform="translate(2786.348 1418.509)">
      <path id="パス_57689" data-name="パス 57689" d="M388.833,130.807a23.91,23.91,0,0,1-9.472-7.386,18.679,18.679,0,0,1-3.822-10.3h15.621a8.515,8.515,0,0,0,3.49,5.872,12.16,12.16,0,0,0,7.592,2.327,11.769,11.769,0,0,0,6.924-1.776,5.362,5.362,0,0,0,2.493-4.527,4.8,4.8,0,0,0-3.047-4.487,57.4,57.4,0,0,0-9.69-3.272,81.843,81.843,0,0,1-11.248-3.434,19.512,19.512,0,0,1-7.53-5.429,14.562,14.562,0,0,1-3.157-9.86,15.914,15.914,0,0,1,2.936-9.306,19.723,19.723,0,0,1,8.42-6.647,31.567,31.567,0,0,1,12.925-2.437,26.345,26.345,0,0,1,17.5,5.484,20.311,20.311,0,0,1,7.2,14.79H411.123A8.025,8.025,0,0,0,408.08,84.6a11.322,11.322,0,0,0-7.26-2.16,11.448,11.448,0,0,0-6.481,1.547,4.952,4.952,0,0,0-2.271,4.321,5.074,5.074,0,0,0,3.1,4.708,48.225,48.225,0,0,0,9.638,3.268,81.7,81.7,0,0,1,10.968,3.438,19.323,19.323,0,0,1,7.478,5.484,15.058,15.058,0,0,1,3.25,9.808,16.248,16.248,0,0,1-2.954,9.524,19.33,19.33,0,0,1-8.42,6.6,31.881,31.881,0,0,1-12.8,2.378,32.391,32.391,0,0,1-13.5-2.7Zm-78.6-1.278a27.9,27.9,0,0,1-10.081-11.245,36.134,36.134,0,0,1-3.711-16.673,35.535,35.535,0,0,1,3.711-16.5A27.2,27.2,0,0,1,310.23,74.029a26.869,26.869,0,0,1,14.24-3.874,25.023,25.023,0,0,1,12.017,2.77,24.438,24.438,0,0,1,8.257,6.98V71.152h15.621v61.372H344.744V123.55a23.031,23.031,0,0,1-8.257,7.146,25.235,25.235,0,0,1-12.131,2.825,26.089,26.089,0,0,1-14.125-3.988Zm10.251-43.65a15.851,15.851,0,0,0-5.931,6.149,19.276,19.276,0,0,0-2.271,9.583,19.91,19.91,0,0,0,2.271,9.708,16.4,16.4,0,0,0,5.982,6.37,15.214,15.214,0,0,0,7.925,2.216,15.972,15.972,0,0,0,8.087-2.16,15.59,15.59,0,0,0,5.982-6.2,22.308,22.308,0,0,0,0-19.391,15.591,15.591,0,0,0-5.982-6.2,15.973,15.973,0,0,0-8.088-2.16,15.71,15.71,0,0,0-7.977,2.09ZM207.646,130.522a23.908,23.908,0,0,1-10.251-7.977,21,21,0,0,1-3.874-12.3h16.618a10.732,10.732,0,0,0,3.375,7.534,11.965,11.965,0,0,0,8.364,2.77,12.877,12.877,0,0,0,8.531-2.585,8.464,8.464,0,0,0,3.1-6.813,7.877,7.877,0,0,0-2.105-5.65,14.8,14.8,0,0,0-5.266-3.49,87.31,87.31,0,0,0-8.689-2.836A92.761,92.761,0,0,1,205.2,94.8a21.417,21.417,0,0,1-8.087-6.533,18.626,18.626,0,0,1-3.379-11.688,20.893,20.893,0,0,1,3.438-11.965,21.854,21.854,0,0,1,9.638-7.81,35.082,35.082,0,0,1,14.177-2.714,30.78,30.78,0,0,1,19.443,5.816,21.574,21.574,0,0,1,8.257,16.249H231.627a8.862,8.862,0,0,0-3.375-6.6,12.743,12.743,0,0,0-8.364-2.585,10.761,10.761,0,0,0-7.257,2.327,8.409,8.409,0,0,0-2.714,6.758,6.983,6.983,0,0,0,2.049,5.17,15.545,15.545,0,0,0,5.1,3.324q3.047,1.278,8.586,2.954a90.146,90.146,0,0,1,12.3,4.432,22.1,22.1,0,0,1,8.2,6.647,18.463,18.463,0,0,1,3.434,11.633,21.9,21.9,0,0,1-3.209,11.522,22.718,22.718,0,0,1-9.42,8.475,32.127,32.127,0,0,1-14.735,3.157A36.7,36.7,0,0,1,207.646,130.522Zm277.907,2v-33.9A15.906,15.906,0,0,0,481.9,87.378a12.925,12.925,0,0,0-9.971-3.933,13.269,13.269,0,0,0-10.137,3.933A15.772,15.772,0,0,0,458.1,98.623v33.9h-15.51V50.542H458.1v28.25a20.238,20.238,0,0,1,7.977-6.278,26.441,26.441,0,0,1,11.079-2.271,24.915,24.915,0,0,1,12.408,3.047,20.982,20.982,0,0,1,8.494,8.974A30.807,30.807,0,0,1,501.1,96.5v36.005Zm-219.242,0V50.542h15.51v81.982Z" transform="translate(-56.252 -35.9)" fill="url(#linear-gradient)"/>
      <g id="グループ_69040" data-name="グループ 69040" transform="translate(0 0)">
        <rect id="長方形_18018" data-name="長方形 18018" width="110.619" height="112.268" rx="24" fill="url(#linear-gradient-2)"/>
        <path id="長方形_18019" data-name="長方形 18019" d="M0,0,7.805.042l.451,89.743L.451,89.743Z" transform="translate(83.893 21.379) rotate(45)" fill="#fff"/>
      </g>
    </g>
    <path id="パス_59558" data-name="パス 59558" d="M10.578,12.058h1.859L7.385,3.742,12.46-4.6H10.6L6.527,2.336,2.31-4.6H.451L5.479,3.671.451,12.058H2.31L6.336,5.1Zm3.932,3.955h1.644L22.73-10.34H21.038Zm10.627-4.075H36.5V10.533H27.686c3.36-2.478,8.292-6.5,8.292-10.865,0-3.288-2.192-4.98-5.171-4.98-3.145,0-5.337,1.978-5.528,5.576H26.9c.143-2.383,1.382-4.146,3.908-4.146,2.645,0,3.5,1.644,3.5,3.622,0,3.646-4.265,7.339-9.174,11.008Z" transform="translate(2740.965 1469.086)" fill="#fff"/>
  </g>
</svg>
