<?xml version="1.0" encoding="UTF-8"?><svg id="_レイヤー_2" xmlns="http://www.w3.org/2000/svg" xmlns:xlink="http://www.w3.org/1999/xlink" viewBox="0 0 329 250.49"><defs><style>.cls-1{fill:url(#_名称未設定グラデーション_3-2);}.cls-2{fill:#040730;}.cls-3{fill:#fff;}.cls-4{fill:#14d7ff;}.cls-5{fill:url(#_名称未設定グラデーション_3);}</style><linearGradient id="_名称未設定グラデーション_3" x1="-917.97" y1="663.73" x2="-917.27" y2="663.04" gradientTransform="translate(175817.08 34422.25) scale(191.42 -51.64)" gradientUnits="userSpaceOnUse"><stop offset="0" stop-color="#3eb9fc"/><stop offset="1" stop-color="#8b2ae1"/></linearGradient><linearGradient id="_名称未設定グラデーション_3-2" x1="-921.73" y1="675.93" x2="-920.61" y2="677.03" gradientTransform="translate(-55158.42 77012.79) rotate(90) scale(83.5 -81.79)" xlink:href="#_名称未設定グラデーション_3"/></defs><g id="_レイヤー_1-2"><g id="_グループ_68954"><rect id="_長方形_19599" class="cls-2" y=".49" width="329" height="249"/><path id="_長方形_19599_-_アウトライン" class="cls-4" d="M1,1.49V248.49H328V1.49H1M0,.49H329V249.49H0V.49Z"/><path id="_線_19" class="cls-4" d="M329,51.77H.55v-1H329v1Z"/><path id="_線_21" class="cls-4" d="M329,135.26H.55v-1H329v1Z"/><path id="_線_20" class="cls-4" d="M329,202.42H.55v-1H329v1Z"/><path id="_パス_59320" class="cls-4" d="M69.59,250.49h-1V0h1V250.49Z"/><path id="_パス_59321" class="cls-4" d="M261.01,250.49h-1V0h1V250.49Z"/><path id="_パス_59547" class="cls-3" d="M151.61,232.95h1.89l-5.15-8.48,5.18-8.5h-1.91l-4.15,7.06-4.3-7.06h-1.89l5.12,8.43-5.12,8.55h1.89l4.1-7.09,4.32,7.09Zm9.35-17.78h-1.43l.29,3.81-3.16-2.11-.7,1.26,3.42,1.53-3.45,1.55,.73,1.29,3.13-2.11-.27,3.82h1.41l-.29-3.81,3.13,2.09,.7-1.26-3.45-1.55,3.42-1.55-.68-1.24-3.13,2.11,.32-3.83Zm8.09,17.78h1.72v-17.41h-4.13v1.53h2.4v15.88Zm7.38-1.14c.02-.67-.51-1.22-1.18-1.24-.01,0-.03,0-.04,0-.67-.01-1.22,.52-1.24,1.19,0,.02,0,.03,0,.05-.02,.68,.52,1.25,1.21,1.26,.01,0,.02,0,.03,0,.68,0,1.22-.57,1.21-1.24,0,0,0-.01,0-.02Zm3.06-16.3v9.64h1.6c.74-1.55,2.34-2.5,4.06-2.43,2.12-.21,4.02,1.33,4.23,3.45,.03,.27,.03,.54,0,.81,.3,2.22-1.26,4.25-3.48,4.55-.26,.03-.52,.04-.79,.03-2.07,.15-3.92-1.3-4.27-3.35h-1.69c.37,2.94,3,5.07,5.96,4.81,3.04,.23,5.69-2.06,5.91-5.1,.02-.32,.02-.64-.01-.95,.26-2.89-1.88-5.44-4.77-5.7-.29-.03-.58-.03-.86,0-1.65-.05-3.24,.67-4.3,1.94v-6.22h8.89v-1.49h-10.48Z"/><path id="_パス_59336" class="cls-3" d="M57.39,108.49h4.22l-8.77-14.27,8.81-14.31h-4.18l-6.56,11.19-6.89-11.19h-4.18l8.77,14.31-8.73,14.27h4.14l6.52-11.15,6.85,11.15Z"/><path id="_パス_59335" class="cls-3" d="M82.72,33.49h1.79l-4.88-8.03,4.9-8.05h-1.8l-3.93,6.69-4.07-6.69h-1.79l4.86,7.98-4.86,8.1h1.79l3.89-6.72,4.09,6.72Zm3.8,3.82h1.58l6.35-25.44h-1.63l-6.3,25.44Zm10.25-3.93h10.97v-1.36h-8.51c3.24-2.39,8-6.28,8-10.49,0-3.17-2.12-4.81-4.99-4.81-3.04,0-5.15,1.91-5.34,5.38h1.56c.14-2.3,1.33-4,3.77-4s3.38,1.59,3.38,3.5c0,3.52-4.12,7.08-8.85,10.63v1.14Z"/><g id="_グループ_68940"><path id="_パス_57689" class="cls-5" d="M185.59,179.98c-1.51-.65-2.82-1.68-3.82-2.98-.92-1.2-1.46-2.65-1.54-4.15h6.3c.12,.95,.63,1.81,1.41,2.37,.89,.65,1.96,.98,3.06,.94,.98,.06,1.96-.19,2.79-.72,.63-.4,1-1.08,1-1.82,0-.8-.49-1.52-1.23-1.81-1.26-.55-2.57-1-3.91-1.32-1.54-.35-3.06-.81-4.53-1.38-1.17-.47-2.21-1.23-3.04-2.19-.9-1.12-1.35-2.54-1.27-3.97,0-1.34,.41-2.66,1.18-3.75,.86-1.19,2.04-2.12,3.39-2.68,1.65-.69,3.42-1.02,5.21-.98,2.54-.13,5.04,.65,7.05,2.21,1.76,1.49,2.82,3.65,2.9,5.96h-5.98c-.06-.92-.5-1.77-1.23-2.34-.85-.62-1.88-.93-2.93-.87-.91-.06-1.82,.16-2.61,.62-.59,.38-.94,1.04-.92,1.74,0,.83,.49,1.58,1.25,1.9,1.25,.58,2.55,1.02,3.89,1.32,1.5,.36,2.98,.82,4.42,1.39,1.17,.48,2.2,1.24,3.01,2.21,.89,1.12,1.35,2.52,1.31,3.95,.02,1.37-.4,2.72-1.19,3.84-.86,1.19-2.04,2.11-3.39,2.66-1.64,.67-3.39,1-5.16,.96-1.87,.03-3.73-.34-5.44-1.09h0Zm-31.69-.51c-1.75-1.11-3.15-2.68-4.06-4.53-1.03-2.09-1.54-4.39-1.5-6.72-.04-2.31,.47-4.59,1.5-6.65,.91-1.84,2.32-3.39,4.06-4.47,1.73-1.05,3.72-1.59,5.74-1.56,1.68-.04,3.35,.35,4.84,1.12,1.31,.68,2.44,1.64,3.33,2.81v-3.52h6.3v24.74h-6.3v-3.62c-.86,1.21-2,2.2-3.33,2.88-1.51,.78-3.19,1.17-4.89,1.14-2.01,.02-3.99-.54-5.69-1.61h0Zm4.13-17.6c-1.01,.59-1.84,1.45-2.39,2.48-.63,1.19-.95,2.52-.92,3.86-.03,1.36,.28,2.71,.92,3.91,.56,1.06,1.39,1.95,2.41,2.57,.96,.59,2.07,.89,3.19,.89,1.14,0,2.27-.3,3.26-.87,1.02-.59,1.86-1.46,2.41-2.5,1.19-2.47,1.19-5.35,0-7.82-.55-1.04-1.39-1.91-2.41-2.5-.99-.57-2.12-.88-3.26-.87-1.13-.01-2.24,.28-3.22,.84h0Zm-45.49,18c-1.65-.67-3.08-1.78-4.13-3.22-1.03-1.45-1.57-3.18-1.56-4.96h6.7c.03,1.15,.52,2.25,1.36,3.04,.94,.79,2.15,1.19,3.37,1.12,1.23,.07,2.45-.3,3.44-1.04,.82-.67,1.28-1.69,1.25-2.75,.03-.84-.27-1.66-.85-2.28-.6-.62-1.32-1.1-2.12-1.41-1.15-.44-2.32-.82-3.5-1.14-1.68-.47-3.33-1.06-4.94-1.76-1.29-.6-2.41-1.5-3.26-2.63-.97-1.37-1.45-3.03-1.36-4.71-.04-1.71,.45-3.4,1.39-4.83,.96-1.4,2.31-2.5,3.89-3.15,1.81-.76,3.75-1.13,5.71-1.09,2.8-.13,5.57,.7,7.84,2.34,2.02,1.58,3.24,3.98,3.33,6.55h-6.88c-.04-1.04-.54-2.01-1.36-2.66-.97-.73-2.16-1.1-3.37-1.04-1.06-.05-2.1,.28-2.93,.94-.76,.69-1.16,1.7-1.09,2.72-.02,.78,.28,1.53,.83,2.08,.59,.58,1.29,1.03,2.05,1.34,.82,.35,1.97,.74,3.46,1.19,1.69,.47,3.35,1.07,4.96,1.79,1.3,.61,2.44,1.53,3.3,2.68,.98,1.36,1.46,3.01,1.38,4.69,0,1.64-.44,3.25-1.3,4.64-.92,1.48-2.23,2.66-3.8,3.42-1.85,.89-3.89,1.33-5.94,1.27-2.02,.02-4.01-.37-5.87-1.15h0Zm112.03,.81v-13.67c.11-1.64-.42-3.27-1.47-4.53-1.05-1.08-2.51-1.66-4.02-1.59-1.53-.08-3.01,.5-4.09,1.59-1.07,1.26-1.6,2.89-1.49,4.53v13.67h-6.25v-33.05h6.25v11.39c.84-1.1,1.95-1.97,3.22-2.53,1.41-.62,2.93-.94,4.47-.92,1.75-.03,3.47,.39,5,1.23,1.48,.83,2.67,2.1,3.42,3.62,.86,1.79,1.28,3.75,1.23,5.74v14.51h-6.27Zm-88.38,0v-33.05h6.25v33.05h-6.25Z"/><g id="_イヤー_1-2"><path id="_長方形_19621" class="cls-1" d="M209.86,68.57v48.61c0,9.22-7.63,16.69-17.04,16.69h-47.91c-9.41,0-17.04-7.47-17.04-16.69v-48.61c0-9.22,7.63-16.69,17.04-16.69h47.91c9.41,0,17.04,7.47,17.04,16.69Z"/><path id="_パス_59334" class="cls-3" d="M189.85,67.04l4.4,4.45-46.85,46.85-4.4-4.45,46.85-46.85Z"/></g></g></g></g></svg>