<svg xmlns="http://www.w3.org/2000/svg" width="153.507" height="38.462" viewBox="0 0 153.507 38.462">
  <g id="Ethereum-Landscape-Black-Logo.wine" transform="translate(0)">
    <path id="パス_2009" data-name="パス 2009" d="M240.316,65.024a.507.507,0,0,1-.512.5h-9.424a4.721,4.721,0,0,0,4.463,4.463,4.392,4.392,0,0,0,3.88-1.99.509.509,0,0,1,.412-.242.456.456,0,0,1,.469.469.44.44,0,0,1-.071.242,5.335,5.335,0,0,1-4.69,2.459,5.885,5.885,0,1,1,5.472-5.9Zm-1.009-.441a4.463,4.463,0,1,0-8.926,0Zm12.451-5.174a.483.483,0,0,1,.469.469.456.456,0,0,1-.469.469h-2.53v9.935a.473.473,0,0,1-.469.469.483.483,0,0,1-.469-.469V60.348h-2.431a.456.456,0,0,1-.469-.469.473.473,0,0,1,.469-.469h2.431V55.785a.5.5,0,0,1,.426-.5.464.464,0,0,1,.526.469v3.653Zm15.436,4.8v6.012a.483.483,0,0,1-.469.469.456.456,0,0,1-.469-.469V64.214c0-2.033-1.151-4.051-3.411-4.051-2.9,0-4.15,2.53-3.98,5.131,0,.071.028.37.028.412v4.506a.5.5,0,0,1-.426.5.464.464,0,0,1-.526-.469V50.469A.473.473,0,0,1,258.41,50a.483.483,0,0,1,.469.469V61.641a4.546,4.546,0,0,1,3.951-2.431C265.616,59.21,267.194,61.641,267.194,64.214Zm16.928.81a.507.507,0,0,1-.512.5h-9.424a4.721,4.721,0,0,0,4.463,4.463,4.392,4.392,0,0,0,3.88-1.99.509.509,0,0,1,.412-.242.456.456,0,0,1,.469.469.44.44,0,0,1-.071.242,5.335,5.335,0,0,1-4.691,2.459,5.885,5.885,0,1,1,5.472-5.9Zm-1.023-.441a4.463,4.463,0,0,0-8.926,0Zm12.593-4.733a.479.479,0,0,1-.441.512c-2.772.412-4.022,2.672-4.022,5.3v4.506a.5.5,0,0,1-.426.5.464.464,0,0,1-.526-.469V59.921a.5.5,0,0,1,.426-.5.464.464,0,0,1,.526.469v2.089a5.028,5.028,0,0,1,3.951-2.573A.487.487,0,0,1,295.692,59.85ZM311.2,65.024a.507.507,0,0,1-.512.5h-9.424a4.721,4.721,0,0,0,4.463,4.463,4.392,4.392,0,0,0,3.88-1.99.51.51,0,0,1,.412-.242.456.456,0,0,1,.469.469.441.441,0,0,1-.071.242,5.335,5.335,0,0,1-4.691,2.459,5.885,5.885,0,1,1,5.472-5.9Zm-1.009-.441a4.463,4.463,0,0,0-8.926,0Zm16.246-4.619V70.283a.483.483,0,0,1-.469.469.456.456,0,0,1-.469-.469V68.321a4.441,4.441,0,0,1-3.923,2.672c-2.8,0-4.349-2.431-4.349-5V59.95a.473.473,0,0,1,.469-.469.483.483,0,0,1,.469.469V65.99c0,2.033,1.151,4.051,3.411,4.051,3.17,0,3.923-2.971,3.923-6.254V59.935a.477.477,0,0,1,.64-.441A.541.541,0,0,1,326.436,59.964ZM350.3,64.171v6.041a.483.483,0,0,1-.469.469.456.456,0,0,1-.469-.469V64.171c0-2.033-1.151-4.022-3.411-4.022-2.843,0-3.923,3.042-3.923,5.4v4.662a.483.483,0,0,1-.469.469.456.456,0,0,1-.469-.469V64.171c0-2.033-1.151-4.022-3.411-4.022-2.871,0-4.051,2.26-3.951,5.273,0,.071.028.2,0,.242V70.2a.5.5,0,0,1-.426.5.464.464,0,0,1-.526-.469v-10.3a.5.5,0,0,1,.426-.5.464.464,0,0,1,.526.469v1.72a4.519,4.519,0,0,1,3.951-2.4,4.217,4.217,0,0,1,4.022,3,4.666,4.666,0,0,1,4.25-3c2.772,0,4.349,2.4,4.349,4.961Z" transform="translate(-196.794 -42.893)" fill="#171522"/>
    <path id="パス_2010" data-name="パス 2010" d="M11.8,112.437l11.812-6.979L11.8,100.1,0,105.459Z" transform="translate(0 -85.872)" fill="#171522" opacity="0.6"/>
    <path id="パス_2011" data-name="パス 2011" d="M11.8,14.228V0L0,19.586l11.8,6.979Z" transform="translate(0)" fill="#171522" opacity="0.45"/>
    <path id="パス_2012" data-name="パス 2012" d="M83,26.565l11.812-6.979L83,0V26.565Z" transform="translate(-71.202)" fill="#171522" opacity="0.8"/>
    <path id="パス_2013" data-name="パス 2013" d="M11.8,160.565,0,153.6l11.8,16.63Z" transform="translate(0 -131.768)" fill="#171522" opacity="0.45"/>
    <path id="パス_2014" data-name="パス 2014" d="M94.812,153.6,83,160.565v9.665Z" transform="translate(-71.202 -131.768)" fill="#171522" opacity="0.8"/>
  </g>
</svg>
