<svg xmlns="http://www.w3.org/2000/svg" xmlns:xlink="http://www.w3.org/1999/xlink" width="216.325" height="35.246" viewBox="0 0 216.325 35.246">
  <defs>
    <clipPath id="clip-path">
      <rect id="Rectangle_32" data-name="Rectangle 32" width="35.246" height="35.246" fill="#fff"/>
    </clipPath>
  </defs>
  <g id="logo" transform="translate(0.001)">
    <g id="favicon" transform="translate(-0.001 0)">
      <g id="Mask_Group_3" data-name="Mask Group 3" transform="translate(0)" clip-path="url(#clip-path)">
        <path id="Path_151" data-name="Path 151" d="M25.8,9.025a2.2,2.2,0,0,0-2.144,0l-4.92,2.854-3.343,1.861-4.92,2.854a2.2,2.2,0,0,1-2.144,0L4.415,14.36a2.133,2.133,0,0,1-1.071-1.8v-4.4a2.006,2.006,0,0,1,1.071-1.8L8.262,4.186a2.2,2.2,0,0,1,2.144,0l3.847,2.171a2.133,2.133,0,0,1,1.071,1.8V11.01l3.343-1.923V6.233a2.006,2.006,0,0,0-1.071-1.8L10.47.34a2.2,2.2,0,0,0-2.144,0L1.071,4.435A2.006,2.006,0,0,0,0,6.233v8.25a2.006,2.006,0,0,0,1.071,1.8l7.253,4.094a2.2,2.2,0,0,0,2.144,0l4.92-2.791,3.343-1.923,4.92-2.791a2.2,2.2,0,0,1,2.144,0l3.847,2.171a2.134,2.134,0,0,1,1.071,1.8v4.4a2.006,2.006,0,0,1-1.071,1.8L25.8,25.278a2.2,2.2,0,0,1-2.144,0L19.8,23.106a2.134,2.134,0,0,1-1.071-1.8V18.454l-3.343,1.923V23.23a2.006,2.006,0,0,0,1.071,1.8l7.253,4.094a2.2,2.2,0,0,0,2.144,0l7.253-4.094a2.134,2.134,0,0,0,1.071-1.8V14.98a2.006,2.006,0,0,0-1.071-1.8Z" transform="translate(0.564 2.758)" fill="#8247e5"/>
      </g>
    </g>
    <path id="polygonscan" d="M13.368-55.292a5.921,5.921,0,0,1,3.237.9,6.2,6.2,0,0,1,2.254,2.594,9.016,9.016,0,0,1,.826,4,9.037,9.037,0,0,1-.826,3.983A6.186,6.186,0,0,1,16.6-41.2a5.921,5.921,0,0,1-3.237.9,5.294,5.294,0,0,1-2.883-.761,4.413,4.413,0,0,1-1.756-2.071v9.618H4.248V-55.108H8.729v2.647a4.413,4.413,0,0,1,1.756-2.07A5.294,5.294,0,0,1,13.368-55.292ZM11.927-51.36a3.05,3.05,0,0,0-2.319.956A3.641,3.641,0,0,0,8.7-47.8a3.652,3.652,0,0,0,.9,2.594,3.03,3.03,0,0,0,2.319.97,3.019,3.019,0,0,0,2.319-.943,3.7,3.7,0,0,0,.878-2.621,3.7,3.7,0,0,0-.878-2.621A3.019,3.019,0,0,0,11.927-51.36Zm16.93-3.932a8.223,8.223,0,0,1,3.891.9,6.629,6.629,0,0,1,2.7,2.608A7.831,7.831,0,0,1,36.43-47.8a7.831,7.831,0,0,1-.981,3.984,6.629,6.629,0,0,1-2.7,2.608,8.223,8.223,0,0,1-3.891.9,8.3,8.3,0,0,1-3.9-.9,6.608,6.608,0,0,1-2.713-2.608,7.831,7.831,0,0,1-.984-3.983,7.831,7.831,0,0,1,.983-3.983,6.608,6.608,0,0,1,2.713-2.608,8.3,8.3,0,0,1,3.9-.9Zm0,3.879a2.856,2.856,0,0,0-2.162.931,3.769,3.769,0,0,0-.878,2.686,3.72,3.72,0,0,0,.878,2.673,2.876,2.876,0,0,0,2.162.917,2.833,2.833,0,0,0,2.149-.917A3.756,3.756,0,0,0,31.87-47.8a3.806,3.806,0,0,0-.865-2.686,2.815,2.815,0,0,0-2.149-.93Zm14.388-12.24v23.169H38.763V-63.652h4.481Zm6.473,8.544,3.512,8.964,3.276-8.963h4.953l-9.12,21.595H47.411l3.433-7.522L44.712-55.108Zm18.79-.182a5.294,5.294,0,0,1,2.883.761,4.568,4.568,0,0,1,1.782,2.07v-2.647h4.455v14.544a8.4,8.4,0,0,1-.786,3.682,6.03,6.03,0,0,1-2.411,2.608,7.757,7.757,0,0,1-4.036.97,8.3,8.3,0,0,1-5.281-1.559,6.344,6.344,0,0,1-2.372-4.232h4.429a2.22,2.22,0,0,0,.956,1.389,3.461,3.461,0,0,0,1.952.5,3.142,3.142,0,0,0,2.241-.8,3.363,3.363,0,0,0,.852-2.555v-2.568a4.568,4.568,0,0,1-1.782,2.071,5.294,5.294,0,0,1-2.883.761,5.921,5.921,0,0,1-3.237-.9,6.186,6.186,0,0,1-2.254-2.608,9.037,9.037,0,0,1-.826-3.983,9.017,9.017,0,0,1,.826-4,6.2,6.2,0,0,1,2.254-2.594A5.921,5.921,0,0,1,68.508-55.292Zm1.441,3.931a3.019,3.019,0,0,0-2.319.943,3.7,3.7,0,0,0-.878,2.621,3.7,3.7,0,0,0,.878,2.621,3.019,3.019,0,0,0,2.319.943,3.03,3.03,0,0,0,2.319-.97,3.652,3.652,0,0,0,.9-2.594,3.642,3.642,0,0,0-.9-2.608,3.05,3.05,0,0,0-2.319-.956Zm17.611-3.931a8.223,8.223,0,0,1,3.891.9,6.628,6.628,0,0,1,2.7,2.608,7.831,7.831,0,0,1,.983,3.983,7.831,7.831,0,0,1-.982,3.984,6.629,6.629,0,0,1-2.7,2.608,8.223,8.223,0,0,1-3.891.9,8.3,8.3,0,0,1-3.9-.9,6.608,6.608,0,0,1-2.713-2.608,7.83,7.83,0,0,1-.983-3.983,7.831,7.831,0,0,1,.983-3.983,6.608,6.608,0,0,1,2.713-2.608A8.3,8.3,0,0,1,87.561-55.292Zm0,3.879a2.856,2.856,0,0,0-2.162.931A3.769,3.769,0,0,0,84.52-47.8a3.72,3.72,0,0,0,.878,2.673,2.876,2.876,0,0,0,2.162.917,2.834,2.834,0,0,0,2.149-.917,3.756,3.756,0,0,0,.865-2.673,3.806,3.806,0,0,0-.865-2.686,2.815,2.815,0,0,0-2.149-.93Zm19.184-3.852a5.062,5.062,0,0,1,4,1.677,6.727,6.727,0,0,1,1.481,4.612v8.492H107.74v-7.967a3.227,3.227,0,0,0-.773-2.293,2.685,2.685,0,0,0-2.058-.826,2.8,2.8,0,0,0-2.162.865,3.5,3.5,0,0,0-.8,2.463v7.758H97.467V-55.108h4.481v2.673a4.824,4.824,0,0,1,1.874-2.07,5.5,5.5,0,0,1,2.922-.76Zm13.76-.026a6.71,6.71,0,0,1,4.442,1.389,6.034,6.034,0,0,1,2.083,3.669h-4.195a2.323,2.323,0,0,0-.826-1.4,2.507,2.507,0,0,0-1.612-.511,1.762,1.762,0,0,0-1.153.328,1.143,1.143,0,0,0-.393.931,1.092,1.092,0,0,0,.721,1.022,11.493,11.493,0,0,0,2.267.682,22.514,22.514,0,0,1,2.752.8,4.54,4.54,0,0,1,1.861,1.324,3.658,3.658,0,0,1,.786,2.464,3.779,3.779,0,0,1-.682,2.228,4.486,4.486,0,0,1-1.966,1.52,7.681,7.681,0,0,1-3.04.55,7.831,7.831,0,0,1-4.744-1.31,5.526,5.526,0,0,1-2.175-3.749h4.324a1.946,1.946,0,0,0,.8,1.441,3.009,3.009,0,0,0,1.8.5,1.671,1.671,0,0,0,1.153-.354,1.192,1.192,0,0,0,.393-.931,1.119,1.119,0,0,0-.722-1.087,13.251,13.251,0,0,0-2.345-.694,18.756,18.756,0,0,1-2.673-.733,4.413,4.413,0,0,1-1.808-1.271,3.535,3.535,0,0,1-.761-2.4,3.913,3.913,0,0,1,1.494-3.184,6.5,6.5,0,0,1,4.22-1.221Zm15.829,0a7.263,7.263,0,0,1,4.744,1.559,6.915,6.915,0,0,1,2.411,4.286h-4.745a2.5,2.5,0,0,0-.865-1.466,2.559,2.559,0,0,0-1.651-.524,2.4,2.4,0,0,0-1.939.931,4.2,4.2,0,0,0-.761,2.713,4.2,4.2,0,0,0,.761,2.713,2.4,2.4,0,0,0,1.939.931,2.559,2.559,0,0,0,1.651-.524,2.5,2.5,0,0,0,.865-1.466h4.744a6.919,6.919,0,0,1-2.411,4.286,7.255,7.255,0,0,1-4.744,1.559,7.859,7.859,0,0,1-3.813-.9,6.46,6.46,0,0,1-2.608-2.608,8.091,8.091,0,0,1-.943-3.983,8.164,8.164,0,0,1,.93-4,6.376,6.376,0,0,1,2.608-2.594,7.935,7.935,0,0,1,3.826-.91Zm15.043,0a5.294,5.294,0,0,1,2.883.761,4.568,4.568,0,0,1,1.782,2.071v-2.647H160.5v14.622h-4.455v-2.647a4.568,4.568,0,0,1-1.782,2.071,5.294,5.294,0,0,1-2.883.761,5.922,5.922,0,0,1-3.237-.9,6.186,6.186,0,0,1-2.254-2.608,9.037,9.037,0,0,1-.826-3.983,9.017,9.017,0,0,1,.826-4,6.2,6.2,0,0,1,2.254-2.594,5.921,5.921,0,0,1,3.235-.907Zm1.441,3.931a3.019,3.019,0,0,0-2.319.943,3.7,3.7,0,0,0-.878,2.621,3.7,3.7,0,0,0,.878,2.621,3.019,3.019,0,0,0,2.319.943,3.03,3.03,0,0,0,2.319-.97,3.652,3.652,0,0,0,.9-2.594,3.642,3.642,0,0,0-.9-2.608,3.05,3.05,0,0,0-2.321-.957Zm20.048-3.9a5.062,5.062,0,0,1,4,1.677,6.724,6.724,0,0,1,1.48,4.612v8.492h-4.481v-7.967a3.227,3.227,0,0,0-.773-2.293,2.685,2.685,0,0,0-2.058-.826,2.8,2.8,0,0,0-2.162.865,3.5,3.5,0,0,0-.8,2.463v7.758h-4.481V-55.108h4.481v2.673a4.824,4.824,0,0,1,1.874-2.07,5.5,5.5,0,0,1,2.922-.76Z" transform="translate(37.982 66.19)" fill="#171522"/>
  </g>
</svg>
