<svg xmlns="http://www.w3.org/2000/svg" width="188.865" height="35.527" viewBox="0 0 188.865 35.527">
  <g id="MetaMask_3_" data-name="MetaMask (3)" transform="translate(-72.4 -161.4)">
    <g id="グループ_5195" data-name="グループ 5195" transform="translate(124.69 170.487)">
      <path id="パス_2047" data-name="パス 2047" d="M438.043,190.064a34.55,34.55,0,0,0-3.1-1.682,10.943,10.943,0,0,1-1.948-1.2,1.965,1.965,0,0,1,.266-3.1c1.461-.974,3.9-.443,4.161,1.549a.1.1,0,0,0,.089.089h2.213a.1.1,0,0,0,.089-.089,4.531,4.531,0,0,0-1.638-3.276,5.084,5.084,0,0,0-3.143-1.062c-5.843,0-6.374,6.2-3.231,8.145.354.221,3.453,1.771,4.559,2.479a2.253,2.253,0,0,1,.974,2.877,2.8,2.8,0,0,1-2.656,1.416,2.728,2.728,0,0,1-2.523-1.771,3.873,3.873,0,0,1-.089-.708.1.1,0,0,0-.089-.089h-2.39a.1.1,0,0,0-.089.089,3.934,3.934,0,0,0,1.594,3.585,5.734,5.734,0,0,0,3.585,1.2c3.276,0,4.958-1.859,5.312-3.763A4.543,4.543,0,0,0,438.043,190.064Z" transform="translate(-323.441 -181.3)" fill="#171522"/>
      <path id="パス_2048" data-name="パス 2048" d="M200.17,182.1h-2.213a.154.154,0,0,0-.089.044l-1.992,6.507a.092.092,0,0,1-.177,0l-1.992-6.507c0-.044-.044-.044-.089-.044h-3.63a.1.1,0,0,0-.089.089v16.6a.1.1,0,0,0,.089.089h2.39a.1.1,0,0,0,.089-.089V186.172a.1.1,0,0,1,.177-.044l1.992,6.551.133.443c0,.044.044.044.089.044h1.859a.155.155,0,0,0,.089-.044l.133-.443,1.992-6.551c.044-.089.177-.089.177.044v12.616a.1.1,0,0,0,.089.089h2.39a.1.1,0,0,0,.089-.089v-16.6a.1.1,0,0,0-.089-.089Z" transform="translate(-189.9 -181.746)" fill="#171522"/>
      <path id="パス_2049" data-name="パス 2049" d="M355.5,182.1a.154.154,0,0,0-.089.044l-1.992,6.507a.092.092,0,0,1-.177,0l-1.992-6.507c0-.044-.044-.044-.089-.044h-3.674a.1.1,0,0,0-.089.089v16.6a.1.1,0,0,0,.089.089h2.39a.1.1,0,0,0,.089-.089V186.172a.1.1,0,0,1,.177-.044l1.992,6.551.133.443c0,.044.044.044.089.044h1.859a.154.154,0,0,0,.089-.044l.133-.443,1.992-6.551c.044-.089.177-.089.177.044v12.616a.1.1,0,0,0,.089.089h2.39a.1.1,0,0,0,.089-.089v-16.6a.1.1,0,0,0-.089-.089Z" transform="translate(-277.683 -181.746)" fill="#171522"/>
      <path id="パス_2050" data-name="パス 2050" d="M281.265,182.1H269.889a.1.1,0,0,0-.089.089v2.08a.1.1,0,0,0,.089.089h4.382v14.43a.1.1,0,0,0,.089.089h2.39a.1.1,0,0,0,.089-.089v-14.43h4.382a.1.1,0,0,0,.089-.089v-2.08C281.353,182.144,281.309,182.1,281.265,182.1Z" transform="translate(-234.432 -181.746)" fill="#171522"/>
      <path id="パス_2051" data-name="パス 2051" d="M314.992,198.821h2.169c.044,0,.089-.044.089-.133l-4.515-16.644c0-.044-.044-.044-.089-.044H309.5a.155.155,0,0,0-.089.044L304.9,198.688c0,.044.044.133.089.133h2.169a.155.155,0,0,0,.089-.044l1.328-4.869c0-.044.044-.044.089-.044h4.825a.154.154,0,0,1,.089.044l1.328,4.869A.154.154,0,0,0,314.992,198.821Zm-5.754-7.348,1.771-6.507a.092.092,0,0,1,.177,0l1.771,6.507c0,.044-.044.133-.089.133h-3.5A.141.141,0,0,1,309.238,191.473Z" transform="translate(-253.995 -181.69)" fill="#171522"/>
      <path id="パス_2052" data-name="パス 2052" d="M399.192,198.821h2.169c.044,0,.089-.044.089-.133l-4.515-16.644c0-.044-.044-.044-.089-.044H393.7a.155.155,0,0,0-.089.044L389.1,198.688c0,.044.044.133.089.133h2.169a.155.155,0,0,0,.089-.044l1.328-4.869c0-.044.044-.044.089-.044h4.825a.154.154,0,0,1,.089.044l1.328,4.869A.154.154,0,0,0,399.192,198.821Zm-5.754-7.348,1.771-6.507a.092.092,0,0,1,.177,0l1.771,6.507c0,.044-.044.133-.089.133h-3.5A.141.141,0,0,1,393.438,191.473Z" transform="translate(-300.924 -181.69)" fill="#171522"/>
      <path id="パス_2053" data-name="パス 2053" d="M235.267,196.4v-5.135a.1.1,0,0,1,.089-.089h6.418a.1.1,0,0,0,.089-.089v-2.08a.1.1,0,0,0-.089-.089h-6.418a.1.1,0,0,1-.089-.089v-4.382a.1.1,0,0,1,.089-.089h7.259a.1.1,0,0,0,.089-.089v-2.08a.1.1,0,0,0-.089-.089h-9.827a.1.1,0,0,0-.089.089v16.6a.1.1,0,0,0,.089.089h10.137a.1.1,0,0,0,.089-.089v-2.169a.1.1,0,0,0-.089-.089h-7.614C235.312,196.486,235.267,196.442,235.267,196.4Z" transform="translate(-213.755 -181.746)" fill="#171522"/>
      <path id="パス_2054" data-name="パス 2054" d="M481.9,198.644l-8.322-8.587a.083.083,0,0,1,0-.133l7.481-7.791a.085.085,0,0,0-.044-.133h-3.054c-.044,0-.044,0-.044.044l-6.374,6.64a.085.085,0,0,1-.133-.044v-6.463a.1.1,0,0,0-.089-.089h-2.435a.1.1,0,0,0-.089.089v16.6a.1.1,0,0,0,.089.089h2.39a.1.1,0,0,0,.089-.089v-7.3c0-.089.089-.133.133-.044l7.171,7.437.044.044h3.054C481.9,198.821,481.947,198.688,481.9,198.644Z" transform="translate(-345.345 -181.69)" fill="#171522"/>
    </g>
    <g id="グループ_5201" data-name="グループ 5201" transform="translate(72.9 161.9)">
      <path id="パス_2055" data-name="パス 2055" d="M134.519,161.9,120,172.7l2.7-6.374Z" transform="translate(-99.151 -161.9)" fill="#e17726" stroke="#e17726" stroke-linecap="round" stroke-linejoin="round" stroke-width="1"/>
      <g id="グループ_5196" data-name="グループ 5196" transform="translate(0.31)">
        <path id="パス_2056" data-name="パス 2056" d="M77,161.9l14.43,10.889-2.567-6.463Z" transform="translate(-75.495 -161.9)" fill="#e27625" stroke="#e27625" stroke-linecap="round" stroke-linejoin="round" stroke-width="1"/>
        <path id="パス_2057" data-name="パス 2057" d="M136.1,218.4l-3.9,5.932,8.322,2.3,2.346-8.1Z" transform="translate(-106.261 -193.39)" fill="#e27625" stroke="#e27625" stroke-linecap="round" stroke-linejoin="round" stroke-width="1"/>
        <path id="パス_2058" data-name="パス 2058" d="M73.6,218.533l2.346,8.1,8.278-2.3L80.373,218.4Z" transform="translate(-73.6 -193.39)" fill="#e27625" stroke="#e27625" stroke-linecap="round" stroke-linejoin="round" stroke-width="1"/>
        <path id="パス_2059" data-name="パス 2059" d="M93.7,189.5,91.4,193l8.189.354-.266-8.853Z" transform="translate(-83.521 -174.496)" fill="#e27625" stroke="#e27625" stroke-linecap="round" stroke-linejoin="round" stroke-width="1"/>
        <path id="パス_2060" data-name="パス 2060" d="M125.887,189.391l-5.71-5.09L120,193.242l8.189-.354Z" transform="translate(-99.461 -174.385)" fill="#e27625" stroke="#e27625" stroke-linecap="round" stroke-linejoin="round" stroke-width="1"/>
        <path id="パス_2061" data-name="パス 2061" d="M97.6,224.554l4.958-2.39L98.264,218.8Z" transform="translate(-86.976 -193.613)" fill="#e27625" stroke="#e27625" stroke-linecap="round" stroke-linejoin="round" stroke-width="1"/>
        <path id="パス_2062" data-name="パス 2062" d="M121.1,222.164l4.913,2.39-.664-5.754Z" transform="translate(-100.074 -193.613)" fill="#e27625" stroke="#e27625" stroke-linecap="round" stroke-linejoin="round" stroke-width="1"/>
      </g>
      <g id="グループ_5197" data-name="グループ 5197" transform="translate(10.933 28.551)">
        <path id="パス_2063" data-name="パス 2063" d="M126.013,228.79,121.1,226.4l.4,3.187-.044,1.372Z" transform="translate(-110.698 -226.4)" fill="#d5bfb2" stroke="#d5bfb2" stroke-linecap="round" stroke-linejoin="round" stroke-width="1"/>
        <path id="パス_2064" data-name="パス 2064" d="M97.6,228.79l4.6,2.169-.044-1.372.4-3.187Z" transform="translate(-97.6 -226.4)" fill="#d5bfb2" stroke="#d5bfb2" stroke-linecap="round" stroke-linejoin="round" stroke-width="1"/>
      </g>
      <path id="パス_2065" data-name="パス 2065" d="M103.017,210.823l-4.117-1.2,2.877-1.328Z" transform="translate(-87.391 -187.761)" fill="#233447" stroke="#233447" stroke-linecap="round" stroke-linejoin="round" stroke-width="1"/>
      <path id="パス_2066" data-name="パス 2066" d="M121.7,210.823l1.2-2.523,2.921,1.328Z" transform="translate(-100.099 -187.761)" fill="#233447" stroke="#233447" stroke-linecap="round" stroke-linejoin="round" stroke-width="1"/>
      <g id="グループ_5198" data-name="グループ 5198" transform="translate(7.082 18.503)">
        <path id="パス_2067" data-name="パス 2067" d="M92.751,224.332l.708-5.932-4.559.133Z" transform="translate(-88.9 -211.893)" fill="#cc6228" stroke="#cc6228" stroke-linecap="round" stroke-linejoin="round" stroke-width="1"/>
        <path id="パス_2068" data-name="パス 2068" d="M130.7,218.4l.664,5.932,3.9-5.8Z" transform="translate(-112.197 -211.893)" fill="#cc6228" stroke="#cc6228" stroke-linecap="round" stroke-linejoin="round" stroke-width="1"/>
        <path id="パス_2069" data-name="パス 2069" d="M128.189,203.7l-8.189.354.753,4.205,1.2-2.523,2.921,1.328Z" transform="translate(-106.234 -203.7)" fill="#cc6228" stroke="#cc6228" stroke-linecap="round" stroke-linejoin="round" stroke-width="1"/>
        <path id="パス_2070" data-name="パス 2070" d="M94.72,207.064l2.877-1.328,1.239,2.523.753-4.205L91.4,203.7Z" transform="translate(-90.293 -203.7)" fill="#cc6228" stroke="#cc6228" stroke-linecap="round" stroke-linejoin="round" stroke-width="1"/>
      </g>
      <g id="グループ_5199" data-name="グループ 5199" transform="translate(8.189 18.503)">
        <path id="パス_2071" data-name="パス 2071" d="M91.4,203.7l3.408,6.684-.089-3.32Z" transform="translate(-91.4 -203.7)" fill="#e27525" stroke="#e27525" stroke-linecap="round" stroke-linejoin="round" stroke-width="1"/>
        <path id="パス_2072" data-name="パス 2072" d="M130.833,207.064l-.133,3.32,3.453-6.684Z" transform="translate(-113.304 -203.7)" fill="#e27525" stroke="#e27525" stroke-linecap="round" stroke-linejoin="round" stroke-width="1"/>
        <path id="パス_2073" data-name="パス 2073" d="M108.953,204.5l-.753,4.205.93,5,.221-6.6Z" transform="translate(-100.763 -204.146)" fill="#e27525" stroke="#e27525" stroke-linecap="round" stroke-linejoin="round" stroke-width="1"/>
        <path id="パス_2074" data-name="パス 2074" d="M119.5,204.5l-.4,2.612.177,6.6.974-5Z" transform="translate(-106.839 -204.146)" fill="#e27525" stroke="#e27525" stroke-linecap="round" stroke-linejoin="round" stroke-width="1"/>
      </g>
      <path id="パス_2075" data-name="パス 2075" d="M120.474,212.5l-.974,5,.708.487,4.249-3.364.133-3.32Z" transform="translate(-98.872 -189.433)" fill="#f5841f" stroke="#f5841f" stroke-linecap="round" stroke-linejoin="round" stroke-width="1"/>
      <path id="パス_2076" data-name="パス 2076" d="M98.9,211.3l.089,3.32,4.294,3.364.664-.487-.93-5Z" transform="translate(-87.391 -189.433)" fill="#f5841f" stroke="#f5841f" stroke-linecap="round" stroke-linejoin="round" stroke-width="1"/>
      <path id="パス_2077" data-name="パス 2077" d="M108.356,233.969l.044-1.372-.4-.31h-5.489l-.354.31.044,1.372L97.6,231.8l1.594,1.328,3.276,2.258h5.577l3.276-2.258,1.594-1.328Z" transform="translate(-86.667 -200.859)" fill="#c0ac9d" stroke="#c0ac9d" stroke-linecap="round" stroke-linejoin="round" stroke-width="1"/>
      <path id="パス_2078" data-name="パス 2078" d="M113.743,225.787l-.708-.487h-4.072l-.664.487-.4,3.187.354-.31h5.489l.4.31Z" transform="translate(-92.407 -197.236)" fill="#161616" stroke="#161616" stroke-linecap="round" stroke-linejoin="round" stroke-width="1"/>
      <g id="グループ_5200" data-name="グループ 5200">
        <path id="パス_2079" data-name="パス 2079" d="M135.752,173.409l1.239-5.976-1.859-5.533L121.1,172.347l5.4,4.559,7.614,2.213,1.682-1.948-.708-.531,1.151-1.062-.885-.708,1.151-.885Z" transform="translate(-99.764 -161.9)" fill="#763e1a" stroke="#763e1a" stroke-linecap="round" stroke-linejoin="round" stroke-width="1"/>
        <path id="パス_2080" data-name="パス 2080" d="M72.9,167.433l1.239,5.976-.8.575,1.151.885-.885.708,1.2,1.062-.753.531,1.682,1.948,7.658-2.213,5.4-4.559L74.715,161.9Z" transform="translate(-72.9 -161.9)" fill="#763e1a" stroke="#763e1a" stroke-linecap="round" stroke-linejoin="round" stroke-width="1"/>
      </g>
      <path id="パス_2081" data-name="パス 2081" d="M139.464,198.013l-7.614-2.213,2.3,3.5-3.453,6.684,4.559-.044h6.773Z" transform="translate(-105.115 -180.794)" fill="#f5841f" stroke="#f5841f" stroke-linecap="round" stroke-linejoin="round" stroke-width="1"/>
      <path id="パス_2082" data-name="パス 2082" d="M83.781,195.8l-7.658,2.213L73.6,205.937h6.773l4.515.044L81.479,199.3Z" transform="translate(-73.29 -180.794)" fill="#f5841f" stroke="#f5841f" stroke-linecap="round" stroke-linejoin="round" stroke-width="1"/>
      <path id="パス_2083" data-name="パス 2083" d="M110.971,186.33l.487-8.41,2.213-6.02H103.8l2.213,6.02.487,8.41.177,2.656v6.551h4.072v-6.551Z" transform="translate(-90.122 -167.473)" fill="#f5841f" stroke="#f5841f" stroke-linecap="round" stroke-linejoin="round" stroke-width="1"/>
    </g>
  </g>
</svg>
