<svg xmlns="http://www.w3.org/2000/svg" width="212.432" height="32.773" viewBox="0 0 212.432 32.773">
  <g id="PancakeSwap_CAKE_" data-name="PancakeSwap (CAKE)" transform="translate(-0.001)">
    <path id="パス_2023" data-name="パス 2023" d="M44.327,69.982a2.055,2.055,0,0,1-1.061-.265A1.918,1.918,0,0,1,43,68.788V53.927A1.546,1.546,0,0,1,43.265,53a1.306,1.306,0,0,1,1.061-.4h6.236a8.439,8.439,0,0,1,5.307,1.46A6.094,6.094,0,0,1,57.6,58.571a5.622,5.622,0,0,1-1.725,4.511c-1.061.929-2.919,1.46-5.307,1.46H48.175v4.113a1.546,1.546,0,0,1-.265.929c-.265.265-.531.265-1.062.265H44.327Zm5.838-9.155a2.115,2.115,0,0,0,1.592-.531,3.068,3.068,0,0,0,0-3.45,2.115,2.115,0,0,0-1.592-.531h-1.99v4.511Z" transform="translate(-3.193 -44.506)" fill="#171522"/>
    <path id="パス_2024" data-name="パス 2024" d="M59.807,69.236a4.908,4.908,0,0,1-3.848-1.592,6.447,6.447,0,0,1-1.46-4.379,6.731,6.731,0,0,1,.929-3.715,7.345,7.345,0,0,1,2.786-2.521,10.389,10.389,0,0,1,4.113-.929,13.693,13.693,0,0,1,3.45.4,10.4,10.4,0,0,1,2.786,1.194V67.909a.61.61,0,0,1-.8.8H65.115c-.133,0-.4,0-.4-.133l-.265-.265-.4-.8a5.912,5.912,0,0,1-4.246,1.725Zm1.858-3.45a2.115,2.115,0,0,0,1.592-.531,1.539,1.539,0,0,0,.531-1.327V59.948a3.169,3.169,0,0,0-1.194-.265,2.474,2.474,0,0,0-2.123.929,3.962,3.962,0,0,0-.8,2.654C59.675,64.857,60.338,65.786,61.665,65.786Z" transform="translate(0.566 -43.362)" fill="#171522"/>
    <path id="パス_2025" data-name="パス 2025" d="M68.127,68.805a2.056,2.056,0,0,1-1.062-.265,1.12,1.12,0,0,1-.265-.929V57.262a.61.61,0,0,1,.8-.8H70.25c.265,0,.4,0,.4.133.133,0,.133.133.265.265l.133.8A4.277,4.277,0,0,1,72.9,56.6a7.979,7.979,0,0,1,2.654-.4A4.34,4.34,0,0,1,80.2,60.844v6.767a1.546,1.546,0,0,1-.265.929c-.133.265-.531.265-1.062.265H76.353a2.056,2.056,0,0,1-1.062-.265,1.12,1.12,0,0,1-.265-.929v-6.5c0-.531-.133-.929-.4-1.062a1.306,1.306,0,0,0-1.062-.4,1.622,1.622,0,0,0-1.194.4,1.507,1.507,0,0,0-.4,1.062v6.369a1.546,1.546,0,0,1-.265.929c-.133.265-.531.265-1.062.265H68.127Z" transform="translate(4.587 -43.329)" fill="#171522"/>
    <path id="パス_2026" data-name="パス 2026" d="M85.563,69.2a8.019,8.019,0,0,1-5.573-1.725A5.749,5.749,0,0,1,78,62.7a6.127,6.127,0,0,1,.929-3.45A5.981,5.981,0,0,1,81.45,57a9.7,9.7,0,0,1,3.981-.8,9.119,9.119,0,0,1,2.919.4,5.334,5.334,0,0,1,2.123,1.062c.133.133.265.265.265.4s-.133.265-.265.531l-1.062,1.858q-.2.4-.4.4c-.133,0-.265-.133-.531-.265a6.2,6.2,0,0,0-1.327-.663,4.77,4.77,0,0,0-1.46-.265,3.013,3.013,0,0,0-2.123.8,3.594,3.594,0,0,0,0,4.511,2.8,2.8,0,0,0,2.123.8,4.77,4.77,0,0,0,1.46-.265,6.2,6.2,0,0,0,1.327-.663c.265-.133.4-.265.531-.265s.265.133.4.4l1.194,1.99a.487.487,0,0,1,.133.4c0,.133-.133.265-.265.4a9.955,9.955,0,0,1-2.388,1.061A5.431,5.431,0,0,1,85.563,69.2Z" transform="translate(8.248 -43.329)" fill="#171522"/>
    <path id="パス_2027" data-name="パス 2027" d="M94.107,69.236a4.908,4.908,0,0,1-3.848-1.592,6.448,6.448,0,0,1-1.46-4.379,6.731,6.731,0,0,1,.929-3.715,7.345,7.345,0,0,1,2.786-2.521,10.389,10.389,0,0,1,4.113-.929,13.693,13.693,0,0,1,3.45.4,10.4,10.4,0,0,1,2.786,1.194V67.909a.61.61,0,0,1-.8.8H99.415c-.133,0-.4,0-.4-.133l-.265-.265-.4-.8a5.049,5.049,0,0,1-1.725,1.194A4.744,4.744,0,0,1,94.107,69.236Zm1.99-3.45a2.115,2.115,0,0,0,1.592-.531,1.538,1.538,0,0,0,.531-1.327V59.948a3.169,3.169,0,0,0-1.194-.265,2.474,2.474,0,0,0-2.123.929,3.962,3.962,0,0,0-.8,2.654C93.975,64.857,94.638,65.786,96.1,65.786Z" transform="translate(11.778 -43.362)" fill="#171522"/>
    <path id="パス_2028" data-name="パス 2028" d="M115.032,69.053a.533.533,0,0,1-.4.929h-4.511c-.133,0-.265-.133-.4-.265l-3.45-4.777v3.715a1.546,1.546,0,0,1-.265.929c-.265.265-.531.265-1.061.265h-2.521a2.055,2.055,0,0,1-1.062-.265,1.918,1.918,0,0,1-.265-.929V53.927a1.547,1.547,0,0,1,.265-.929,1.306,1.306,0,0,1,1.062-.4h2.521a1.306,1.306,0,0,1,1.061.4,1.12,1.12,0,0,1,.265.929v8.492l3.317-4.379c.133-.133.265-.265.4-.265s.265-.133.531-.133H114.5a.565.565,0,0,1,.4.929l-4.379,5.042Z" transform="translate(15.798 -44.506)" fill="#171522"/>
    <path id="パス_2029" data-name="パス 2029" d="M119.63,69.171a11.686,11.686,0,0,1-3.848-.663,6.984,6.984,0,0,1-2.654-2.123,5.847,5.847,0,0,1-.929-3.45,6.4,6.4,0,0,1,1.858-4.909,7.318,7.318,0,0,1,5.307-1.725c2.256,0,3.981.531,5.042,1.725a5.916,5.916,0,0,1,1.725,4.644c0,.8-.4,1.327-1.062,1.327h-7.961a1.971,1.971,0,0,0,.8,1.725,4.46,4.46,0,0,0,2.521.531,6.486,6.486,0,0,0,1.725-.133c.531-.133.929-.4,1.46-.531a1.027,1.027,0,0,1,.4-.133c.133,0,.265.133.4.265l.929,1.592a.487.487,0,0,1,.133.4c0,.133-.133.265-.265.4a9.957,9.957,0,0,1-2.388,1.061A25.473,25.473,0,0,0,119.63,69.171Zm1.99-7.961a1.653,1.653,0,0,0-.531-1.46,3.068,3.068,0,0,0-3.45,0,1.812,1.812,0,0,0-.531,1.46Z" transform="translate(19.427 -43.297)" fill="#171522"/>
    <path id="パス_2030" data-name="パス 2030" d="M131.263,70.413a20.6,20.6,0,0,1-4.113-.4,8.14,8.14,0,0,1-3.052-1.327.711.711,0,0,1-.4-.531.487.487,0,0,1,.133-.4l1.194-1.99c.133-.265.265-.265.4-.265a.487.487,0,0,1,.4.133,10.271,10.271,0,0,0,2.123.929,7.513,7.513,0,0,0,2.388.4,3.011,3.011,0,0,0,1.725-.4,1.293,1.293,0,0,0,.531-1.194,1.393,1.393,0,0,0-.663-1.194,10.743,10.743,0,0,0-2.388-1.062,13.735,13.735,0,0,1-3.981-2.123,4.313,4.313,0,0,1-1.46-3.317,4.543,4.543,0,0,1,1.858-3.848,7.559,7.559,0,0,1,4.777-1.327,13.353,13.353,0,0,1,3.583.4,9,9,0,0,1,2.521,1.061c.265.265.4.4.4.663a.487.487,0,0,1-.133.4l-1.194,1.99c-.133.265-.265.265-.4.265a.488.488,0,0,1-.4-.133,6.006,6.006,0,0,0-3.583-.929,3.011,3.011,0,0,0-1.725.4,1.293,1.293,0,0,0-.531,1.194,1.918,1.918,0,0,0,.265.929c.265.265.531.4.8.663.4.133.929.4,1.592.663l.531.133a14.826,14.826,0,0,1,2.919,1.46A4.313,4.313,0,0,1,137.1,63.38a4.544,4.544,0,0,1,.531,2.388,4.119,4.119,0,0,1-1.725,3.583A9.148,9.148,0,0,1,131.263,70.413Z" transform="translate(23.186 -44.539)" fill="#171522"/>
    <path id="パス_2031" data-name="パス 2031" d="M139.513,68.74c-.265,0-.4,0-.531-.133a.689.689,0,0,1-.265-.531L135.4,57.063V56.8c0-.265.133-.4.531-.4h3.317c.265,0,.4,0,.531.133a1.02,1.02,0,0,1,.265.4l1.327,5.838,1.725-4.644c.133-.265.133-.4.265-.4.133-.133.265-.133.531-.133h1.592c.265,0,.4,0,.531.133s.133.265.265.4l1.725,4.644,1.46-5.838c0-.133.133-.265.265-.4a.487.487,0,0,1,.4-.133h3.45c.4,0,.531.133.531.4v.265l-3.317,11.013c-.133.265-.133.4-.265.531s-.265.133-.531.133h-2.521c-.265,0-.4,0-.531-.133a.689.689,0,0,1-.265-.531l-1.725-4.644-1.725,4.644c-.133.265-.133.4-.265.531s-.265.133-.531.133Z" transform="translate(27.01 -43.264)" fill="#171522"/>
    <path id="パス_2032" data-name="パス 2032" d="M155.407,69.236a4.908,4.908,0,0,1-3.848-1.592,6.447,6.447,0,0,1-1.46-4.379,6.731,6.731,0,0,1,.929-3.715,7.345,7.345,0,0,1,2.786-2.521,10.389,10.389,0,0,1,4.113-.929,13.692,13.692,0,0,1,3.45.4,10.4,10.4,0,0,1,2.786,1.194V67.909a.61.61,0,0,1-.8.8h-2.654a.487.487,0,0,1-.4-.133l-.265-.265-.4-.8a5.049,5.049,0,0,1-1.725,1.194A4.745,4.745,0,0,1,155.407,69.236Zm1.99-3.45a2.115,2.115,0,0,0,1.592-.531,1.538,1.538,0,0,0,.531-1.327V59.948a3.169,3.169,0,0,0-1.194-.265,2.474,2.474,0,0,0-2.123.929,3.962,3.962,0,0,0-.8,2.654C155.275,64.857,155.938,65.786,157.4,65.786Z" transform="translate(31.815 -43.362)" fill="#171522"/>
    <path id="パス_2033" data-name="パス 2033" d="M163.727,73.947a2.055,2.055,0,0,1-1.062-.265,1.918,1.918,0,0,1-.265-.929v-14.6a8.482,8.482,0,0,1,2.919-1.327A11.176,11.176,0,0,1,168.9,56.3c5.175,0,7.7,2.123,7.7,6.5a6.925,6.925,0,0,1-1.592,4.777,5.916,5.916,0,0,1-4.644,1.725,6.66,6.66,0,0,1-1.592-.265,3.974,3.974,0,0,1-1.327-.531v4.246a1.546,1.546,0,0,1-.265.929c-.265.265-.531.265-1.061.265Zm5.573-8.227a1.6,1.6,0,0,0,1.592-.8,3.8,3.8,0,0,0,.531-2.256,3.94,3.94,0,0,0-.663-2.388,2.747,2.747,0,0,0-1.99-.663,3.329,3.329,0,0,0-1.327.265v3.981a1.814,1.814,0,0,0,1.858,1.858Z" transform="translate(35.836 -43.297)" fill="#171522"/>
    <path id="パス_2034" data-name="パス 2034" d="M18.971,51.675a4.352,4.352,0,1,1,8.625-.8v5.307h3.583V50.879a4.352,4.352,0,1,1,8.625.8l-1.194,6.236c3.981,1.725,7.032,4.777,7.032,8.625v2.256c0,3.184-2.123,5.838-5.042,7.563a21.236,21.236,0,0,1-11.278,2.919,21.237,21.237,0,0,1-11.278-2.919C15.123,74.63,13,71.976,13,68.791V66.536c0-3.848,3.052-6.9,7.032-8.625ZM37.149,58.84l1.327-7.3a3.013,3.013,0,1,0-5.971-.531v6.767c-.4,0-.929-.133-1.327-.133H29.453a8.76,8.76,0,0,0-1.858.133c-.4,0-.929.133-1.327.133V51.144a3.013,3.013,0,1,0-5.971.531l1.327,7.43c-4.246,1.592-7.165,4.511-7.165,7.829V69.19c0,5.042,6.634,9.155,14.861,9.155s14.861-4.113,14.861-9.155V66.934C44.314,63.351,41.4,60.432,37.149,58.84Z" transform="translate(-12.999 -46.5)" fill="#633001" fill-rule="evenodd"/>
    <path id="パス_2035" data-name="パス 2035" d="M43.922,63.956c0,5.042-6.634,9.155-14.861,9.155S14.2,69,14.2,63.956V61.7H44.055v2.256Z" transform="translate(-12.607 -41.532)" fill="#fedc90"/>
    <path id="パス_2036" data-name="パス 2036" d="M19.873,51.083a3.013,3.013,0,1,1,5.971-.531v6.9a25.767,25.767,0,0,1,3.184-.265c1.061,0,2.123.133,3.052.133V50.552a3.013,3.013,0,1,1,5.971.531l-1.327,7.3c4.379,1.592,7.3,4.511,7.3,7.829,0,5.042-6.634,9.155-14.861,9.155S14.3,71.251,14.3,66.209c0-3.317,2.919-6.236,7.165-7.829Z" transform="translate(-12.574 -46.173)" fill="#d1884f" fill-rule="evenodd"/>
    <path id="パス_2037" data-name="パス 2037" d="M23.084,61.821c0,1.327-.8,2.521-1.592,2.521S19.9,63.281,19.9,61.821c0-1.327.8-2.521,1.592-2.521S23.084,60.361,23.084,61.821Z" transform="translate(-10.744 -42.316)" fill="#633001"/>
    <path id="パス_2038" data-name="パス 2038" d="M31.684,61.821c0,1.327-.8,2.521-1.592,2.521-.929,0-1.592-1.062-1.592-2.521,0-1.327.8-2.521,1.592-2.521S31.684,60.361,31.684,61.821Z" transform="translate(-7.932 -42.316)" fill="#633001"/>
  </g>
</svg>
