<svg xmlns="http://www.w3.org/2000/svg" xmlns:xlink="http://www.w3.org/1999/xlink" width="142.436" height="31.007" viewBox="0 0 142.436 31.007">
  <defs>
    <clipPath id="clip-path">
      <rect id="長方形_2679" data-name="長方形 2679" width="142.436" height="31.007" transform="translate(-0.001 0)" fill="#fff"/>
    </clipPath>
  </defs>
  <g id="polygon-logo" transform="translate(0.001)" clip-path="url(#clip-path)">
    <path id="パス_2015" data-name="パス 2015" d="M329,66.354a5.216,5.216,0,0,1,2.074,2.235,7.254,7.254,0,0,1,.8,3.484,6.355,6.355,0,0,1-.87,3.418,4.955,4.955,0,0,1-2.342,2.169,7.517,7.517,0,0,1-3.479.789,5.541,5.541,0,0,1-2.074-.394A4.252,4.252,0,0,1,321.375,77v6.836h-3.881V65.829h3.346l.335,1.446a7.488,7.488,0,0,1,4.751-1.775A5.42,5.42,0,0,1,329,66.354Zm-2.141,8.151a3,3,0,0,0,1-2.366,3.455,3.455,0,0,0-.937-2.432,2.962,2.962,0,0,0-2.275-.92,3.683,3.683,0,0,0-1.941.46,3.055,3.055,0,0,0-1.271,1.315v2.958a2.8,2.8,0,0,0,1.071,1.38,3.47,3.47,0,0,0,1.874.526A3.589,3.589,0,0,0,326.862,74.505Z" transform="translate(-273.393 -56.247)" fill="#171522"/>
    <path id="パス_2016" data-name="パス 2016" d="M432.409,69.054a6.225,6.225,0,0,1,2.476-2.235,8.118,8.118,0,0,1,3.614-.855,7.326,7.326,0,0,1,3.613.855,6.177,6.177,0,0,1,2.409,2.3,6.643,6.643,0,0,1,0,6.573,5.759,5.759,0,0,1-2.409,2.3,7.9,7.9,0,0,1-3.613.855,8.089,8.089,0,0,1-3.614-.789,5.781,5.781,0,0,1-2.476-2.235,7.021,7.021,0,0,1,0-6.77Zm3.948,5.718a2.6,2.6,0,0,0,2.141.92,2.805,2.805,0,0,0,2.141-.92,3.507,3.507,0,0,0,.8-2.366,3.393,3.393,0,0,0-.8-2.366,2.784,2.784,0,0,0-2.208-.986,2.911,2.911,0,0,0-2.141.92,3.685,3.685,0,0,0-.8,2.432A3.352,3.352,0,0,0,436.357,74.773Z" transform="translate(-371.646 -56.648)" fill="#171522"/>
    <path id="パス_2017" data-name="パス 2017" d="M552.854.464V22.089h-3.881V.464Z" transform="translate(-472.818 -0.217)" fill="#171522"/>
    <path id="パス_2018" data-name="パス 2018" d="M602.916,70.241l-7.9,17.747h-3.747l2.944-6.376L588.6,70.241h4.416l3.212,7.1,3.212-7.1Z" transform="translate(-506.955 -60.331)" fill="#171522"/>
    <path id="パス_2019" data-name="パス 2019" d="M707.694,66.556V78.519a5.173,5.173,0,0,1-1,3.089,6.688,6.688,0,0,1-2.677,2.169,8.59,8.59,0,0,1-3.68.789,10.065,10.065,0,0,1-2.61-.329,12.028,12.028,0,0,1-1.807-.789,12.319,12.319,0,0,1-1.673-1.249l2.275-2.629a6.537,6.537,0,0,0,1.673,1.183,4.819,4.819,0,0,0,2.074.46,4.23,4.23,0,0,0,2.476-.723,2.365,2.365,0,0,0,1-2.038V76.745a4.359,4.359,0,0,1-1.74,1.512,6.3,6.3,0,0,1-2.81.592,5.729,5.729,0,0,1-3.078-.855,6.318,6.318,0,0,1-2.275-2.3,6.633,6.633,0,0,1-.87-3.221,6.207,6.207,0,0,1,.87-3.287,6.671,6.671,0,0,1,2.342-2.366,5.506,5.506,0,0,1,3.011-.855,8.469,8.469,0,0,1,2.676.394,4.014,4.014,0,0,1,1.807,1.117l.4-.92Zm-3.948,7.362V70.96a2.846,2.846,0,0,0-1.271-1.38,4.213,4.213,0,0,0-2.075-.526,3.542,3.542,0,0,0-2.409.92,3,3,0,0,0-1,2.366,3.4,3.4,0,0,0,3.413,3.418A3.732,3.732,0,0,0,703.746,73.918Z" transform="translate(-596.879 -56.648)" fill="#171522"/>
    <path id="パス_2020" data-name="パス 2020" d="M817.079,68.655a6.376,6.376,0,0,1,2.476-2.3,8.118,8.118,0,0,1,3.614-.854,7.326,7.326,0,0,1,3.613.854,6.176,6.176,0,0,1,2.409,2.3,6.694,6.694,0,0,1,.87,3.287,6.05,6.05,0,0,1-.87,3.286,5.4,5.4,0,0,1-2.409,2.3,7.9,7.9,0,0,1-3.613.855,8.09,8.09,0,0,1-3.614-.789,5.78,5.78,0,0,1-2.476-2.235,6.434,6.434,0,0,1-.87-3.484A6.141,6.141,0,0,1,817.079,68.655Zm3.881,5.718a2.6,2.6,0,0,0,2.141.92,2.805,2.805,0,0,0,2.141-.92,3.507,3.507,0,0,0,.8-2.366,3.392,3.392,0,0,0-.8-2.366,2.8,2.8,0,0,0-2.141-.92,2.911,2.911,0,0,0-2.141.92,3.246,3.246,0,0,0-.87,2.366A4.093,4.093,0,0,0,820.96,74.374Z" transform="translate(-703.05 -56.247)" fill="#171522"/>
    <path id="パス_2021" data-name="パス 2021" d="M944.53,66.951a3.36,3.36,0,0,1,1.2,2.563v9h-3.947V70.96a1.64,1.64,0,0,0-1.807-1.775,2.425,2.425,0,0,0-2.141,1.249,5.831,5.831,0,0,0-.8,3.155v4.93h-3.881V66.556H936.7l.268,1.906a4.993,4.993,0,0,1,1.874-1.84,5.543,5.543,0,0,1,2.811-.657A4.239,4.239,0,0,1,944.53,66.951Z" transform="translate(-803.801 -56.648)" fill="#171522"/>
    <path id="パス_2022" data-name="パス 2022" d="M27.369,9.73a2.334,2.334,0,0,0-2.275,0l-5.22,3.024-3.547,1.972-5.219,3.024a2.335,2.335,0,0,1-2.275,0L4.684,15.383a2.26,2.26,0,0,1-1.138-1.906V8.81A2.125,2.125,0,0,1,4.684,6.9L8.766,4.6a2.334,2.334,0,0,1,2.275,0l4.082,2.3A2.26,2.26,0,0,1,16.261,8.81v3.024L19.807,9.8V6.772A2.125,2.125,0,0,0,18.67,4.866L11.108.528a2.334,2.334,0,0,0-2.275,0l-7.7,4.338A2.125,2.125,0,0,0,0,6.772v8.742A2.125,2.125,0,0,0,1.138,17.42l7.7,4.338a2.335,2.335,0,0,0,2.275,0L16.327,18.8l3.547-2.038,5.22-2.958a2.334,2.334,0,0,1,2.275,0l4.082,2.3a2.261,2.261,0,0,1,1.138,1.906v4.667a2.125,2.125,0,0,1-1.138,1.906l-4.082,2.366a2.334,2.334,0,0,1-2.275,0l-4.082-2.3a2.26,2.26,0,0,1-1.138-1.906V19.721l-3.547,2.038v3.024a2.125,2.125,0,0,0,1.138,1.906l7.7,4.338a2.334,2.334,0,0,0,2.275,0l7.7-4.338a2.261,2.261,0,0,0,1.138-1.906V16.04a2.125,2.125,0,0,0-1.138-1.906Z" transform="translate(0.137 -0.017)" fill="#8247e5"/>
  </g>
</svg>
