<svg xmlns="http://www.w3.org/2000/svg" width="61.972" height="20.871" viewBox="0 0 61.972 20.871">
  <g id="グループ_67116" data-name="グループ 67116" transform="translate(-97.672 -163.541)">
    <g id="metamask-fox-1" transform="translate(98.172 164.04)">
      <path id="パス_1961" data-name="パス 1961" d="M182.963,35.5,174.6,41.712l1.547-3.665Z" transform="translate(-162.597 -35.5)" fill="#e2761b" stroke="#e2761b" stroke-linecap="round" stroke-linejoin="round" stroke-width="1"/>
      <g id="グループ_5164" data-name="グループ 5164" transform="translate(0.177 0)">
        <path id="パス_1962" data-name="パス 1962" d="M44.4,35.5l8.3,6.27-1.471-3.724Z" transform="translate(-43.517 -35.5)" fill="#e4761b" stroke="#e4761b" stroke-linecap="round" stroke-linejoin="round" stroke-width="1"/>
        <path id="パス_1963" data-name="パス 1963" d="M214.027,206.8l-2.227,3.413,4.766,1.311,1.37-4.648Z" transform="translate(-196.847 -192.402)" fill="#e4761b" stroke="#e4761b" stroke-linecap="round" stroke-linejoin="round" stroke-width="1"/>
        <path id="パス_1964" data-name="パス 1964" d="M33.9,206.876l1.362,4.648,4.766-1.311L37.8,206.8Z" transform="translate(-33.9 -192.402)" fill="#e4761b" stroke="#e4761b" stroke-linecap="round" stroke-linejoin="round" stroke-width="1"/>
        <path id="パス_1965" data-name="パス 1965" d="M89.128,106.966,87.8,108.975l4.732.21-.168-5.085Z" transform="translate(-83.269 -98.334)" fill="#e4761b" stroke="#e4761b" stroke-linecap="round" stroke-linejoin="round" stroke-width="1"/>
        <path id="パス_1966" data-name="パス 1966" d="M177.987,106.325l-3.278-2.925-.109,5.144,4.724-.21Z" transform="translate(-162.774 -97.693)" fill="#e4761b" stroke="#e4761b" stroke-linecap="round" stroke-linejoin="round" stroke-width="1"/>
        <path id="パス_1967" data-name="パス 1967" d="M106.8,211.4l2.841-1.387-2.454-1.916Z" transform="translate(-100.673 -193.592)" fill="#e4761b" stroke="#e4761b" stroke-linecap="round" stroke-linejoin="round" stroke-width="1"/>
        <path id="パス_1968" data-name="パス 1968" d="M177.9,210.016l2.849,1.387-.4-3.3Z" transform="translate(-165.796 -193.592)" fill="#e4761b" stroke="#e4761b" stroke-linecap="round" stroke-linejoin="round" stroke-width="1"/>
      </g>
      <g id="グループ_5165" data-name="グループ 5165" transform="translate(6.304 16.424)">
        <path id="パス_1969" data-name="パス 1969" d="M180.749,232.287,177.9,230.9l.227,1.858-.025.782Z" transform="translate(-171.924 -230.9)" fill="#d7c1b3" stroke="#d7c1b3" stroke-linecap="round" stroke-linejoin="round" stroke-width="1"/>
        <path id="パス_1970" data-name="パス 1970" d="M106.8,232.287l2.648,1.252-.017-.782.21-1.858Z" transform="translate(-106.8 -230.9)" fill="#d7c1b3" stroke="#d7c1b3" stroke-linecap="round" stroke-linejoin="round" stroke-width="1"/>
      </g>
      <path id="パス_1971" data-name="パス 1971" d="M112.97,177.563l-2.37-.7,1.673-.765Z" transform="translate(-103.977 -164.282)" fill="#233447" stroke="#233447" stroke-linecap="round" stroke-linejoin="round" stroke-width="1"/>
      <path id="パス_1972" data-name="パス 1972" d="M179.7,177.563l.7-1.463,1.681.765Z" transform="translate(-167.268 -164.282)" fill="#233447" stroke="#233447" stroke-linecap="round" stroke-linejoin="round" stroke-width="1"/>
      <g id="グループ_5166" data-name="グループ 5166" transform="translate(4.077 10.641)">
        <path id="パス_1973" data-name="パス 1973" d="M82.527,210.213l.4-3.413-2.631.076Z" transform="translate(-80.3 -203.043)" fill="#cd6116" stroke="#cd6116" stroke-linecap="round" stroke-linejoin="round" stroke-width="1"/>
        <path id="パス_1974" data-name="パス 1974" d="M207,206.8l.4,3.413,2.227-3.337Z" transform="translate(-196.35 -203.043)" fill="#cd6116" stroke="#cd6116" stroke-linecap="round" stroke-linejoin="round" stroke-width="1"/>
        <path id="パス_1975" data-name="パス 1975" d="M179.324,162.1l-4.724.21.437,2.429.7-1.463,1.681.765Z" transform="translate(-166.674 -162.1)" fill="#cd6116" stroke="#cd6116" stroke-linecap="round" stroke-linejoin="round" stroke-width="1"/>
        <path id="パス_1976" data-name="パス 1976" d="M89.716,164.042l1.681-.765.689,1.463.445-2.429L87.8,162.1Z" transform="translate(-87.17 -162.1)" fill="#cd6116" stroke="#cd6116" stroke-linecap="round" stroke-linejoin="round" stroke-width="1"/>
      </g>
      <g id="グループ_5167" data-name="グループ 5167" transform="translate(4.707 10.641)">
        <path id="パス_1977" data-name="パス 1977" d="M87.8,162.1l1.984,3.866-.067-1.925Z" transform="translate(-87.8 -162.1)" fill="#e4751f" stroke="#e4751f" stroke-linecap="round" stroke-linejoin="round" stroke-width="1"/>
        <path id="パス_1978" data-name="パス 1978" d="M207.184,164.042l-.084,1.925,1.992-3.866Z" transform="translate(-197.072 -162.1)" fill="#e4751f" stroke="#e4751f" stroke-linecap="round" stroke-linejoin="round" stroke-width="1"/>
        <path id="パス_1979" data-name="パス 1979" d="M139.245,164.6l-.445,2.429.555,2.866.126-3.774Z" transform="translate(-134.513 -164.39)" fill="#e4751f" stroke="#e4751f" stroke-linecap="round" stroke-linejoin="round" stroke-width="1"/>
        <path id="パス_1980" data-name="パス 1980" d="M172.127,164.6l-.227,1.513.1,3.782.563-2.866Z" transform="translate(-164.831 -164.39)" fill="#e4751f" stroke="#e4751f" stroke-linecap="round" stroke-linejoin="round" stroke-width="1"/>
      </g>
      <path id="パス_1981" data-name="パス 1981" d="M173.663,185.9l-.563,2.866.4.277,2.454-1.916.084-1.925Z" transform="translate(-161.223 -172.617)" fill="#f6851b" stroke="#f6851b" stroke-linecap="round" stroke-linejoin="round" stroke-width="1"/>
      <path id="パス_1982" data-name="パス 1982" d="M110.6,185.2l.067,1.925,2.454,1.916.4-.277-.555-2.866Z" transform="translate(-103.977 -172.617)" fill="#f6851b" stroke="#f6851b" stroke-linecap="round" stroke-linejoin="round" stroke-width="1"/>
      <path id="パス_1983" data-name="パス 1983" d="M112.978,248.652l.025-.782-.21-.185h-3.169l-.193.185.017.782L106.8,247.4l.925.756,1.874,1.3h3.219l1.883-1.3.925-.756Z" transform="translate(-100.496 -229.589)" fill="#c0ad9e" stroke="#c0ad9e" stroke-linecap="round" stroke-linejoin="round" stroke-width="1"/>
      <path id="パス_1984" data-name="パス 1984" d="M141.445,227.877l-.4-.277h-2.328l-.4.277-.21,1.858.193-.185h3.169l.21.185Z" transform="translate(-129.165 -211.453)" fill="#161616" stroke="#161616" stroke-linecap="round" stroke-linejoin="round" stroke-width="1"/>
      <g id="グループ_5168" data-name="グループ 5168" transform="translate(0 0)">
        <path id="パス_1985" data-name="パス 1985" d="M186.339,42.115l.714-3.429L185.986,35.5l-8.086,6,3.11,2.631,4.4,1.286.975-1.135-.42-.3.672-.614-.521-.4.672-.513Z" transform="translate(-165.62 -35.5)" fill="#763d16" stroke="#763d16" stroke-linecap="round" stroke-linejoin="round" stroke-width="1"/>
        <path id="パス_1986" data-name="パス 1986" d="M31.8,38.686l.714,3.429-.454.336.672.513-.513.4.672.614-.42.3.967,1.135,4.4-1.286,3.11-2.631-8.086-6Z" transform="translate(-31.8 -35.5)" fill="#763d16" stroke="#763d16" stroke-linecap="round" stroke-linejoin="round" stroke-width="1"/>
      </g>
      <path id="パス_1987" data-name="パス 1987" d="M212.152,139.486l-4.4-1.286,1.336,2.009-1.992,3.866,2.622-.034h3.909Z" transform="translate(-192.365 -129.568)" fill="#f6851b" stroke="#f6851b" stroke-linecap="round" stroke-linejoin="round" stroke-width="1"/>
      <path id="パス_1988" data-name="パス 1988" d="M39.759,138.2l-4.4,1.286L33.9,144.042h3.9l2.614.034-1.984-3.866Z" transform="translate(-33.723 -129.568)" fill="#f6851b" stroke="#f6851b" stroke-linecap="round" stroke-linejoin="round" stroke-width="1"/>
      <path id="パス_1989" data-name="パス 1989" d="M129.719,74.1l.277-4.85,1.278-3.455H125.6l1.261,3.455.294,4.85.1,1.53.008,3.766h2.328l.017-3.766Z" transform="translate(-117.716 -63.253)" fill="#f6851b" stroke="#f6851b" stroke-linecap="round" stroke-linejoin="round" stroke-width="1"/>
    </g>
    <g id="Page-1" transform="translate(130.839 153.565)">
      <g id="walletconnect-logo-alt" transform="translate(0 10.644)">
        <path id="WalletConnect" d="M5.935,4.231a11.242,11.242,0,0,1,17.011,0l.565.624a.714.714,0,0,1,0,.939L21.577,7.93a.281.281,0,0,1-.425,0l-.778-.859a7.843,7.843,0,0,0-11.867,0l-.833.92a.281.281,0,0,1-.425,0L5.314,5.855a.714.714,0,0,1,0-.939Zm21.01,4.417,1.721,1.9a.714.714,0,0,1,0,.939l-7.761,8.571a.562.562,0,0,1-.851,0h0l-5.508-6.083a.141.141,0,0,0-.213,0h0L8.826,20.059a.562.562,0,0,1-.851,0h0L.214,11.488a.714.714,0,0,1,0-.939l1.721-1.9a.562.562,0,0,1,.851,0l5.508,6.083a.141.141,0,0,0,.213,0h0l5.508-6.083a.562.562,0,0,1,.851,0h0l5.508,6.083a.141.141,0,0,0,.213,0l5.508-6.083A.562.562,0,0,1,26.945,8.648Z" transform="translate(-0.038 -0.34)"/>
      </g>
    </g>
    <g id="Page-1-2" data-name="Page-1" transform="translate(131.017 164.208)">
      <g id="walletconnect-logo-alt-2" data-name="walletconnect-logo-alt" transform="translate(0 0)">
        <path id="WalletConnect-2" data-name="WalletConnect" d="M5.822,4.157a11.028,11.028,0,0,1,16.687,0l.555.612a.7.7,0,0,1,0,.921l-1.9,2.1a.276.276,0,0,1-.417,0l-.763-.843a7.693,7.693,0,0,0-11.641,0l-.817.9a.276.276,0,0,1-.417,0l-1.9-2.1a.7.7,0,0,1,0-.921ZM26.433,8.49l1.688,1.865a.7.7,0,0,1,0,.921l-7.613,8.408a.551.551,0,0,1-.834,0h0l-5.4-5.967a.138.138,0,0,0-.209,0h0l-5.4,5.967a.551.551,0,0,1-.834,0h0L.211,11.276a.7.7,0,0,1,0-.921L1.9,8.49a.551.551,0,0,1,.834,0l5.4,5.967a.138.138,0,0,0,.209,0h0l5.4-5.967a.551.551,0,0,1,.834,0h0l5.4,5.967a.138.138,0,0,0,.209,0L25.6,8.49A.551.551,0,0,1,26.433,8.49Z" transform="translate(-0.038 -0.34)" fill="#3b99fc"/>
      </g>
    </g>
  </g>
</svg>
