<svg id="sun" xmlns="http://www.w3.org/2000/svg" width="29.141" height="29.141" viewBox="0 0 29.141 29.141">
  <g id="グループ_5212" data-name="グループ 5212" transform="translate(7.247 7.247)">
    <g id="グループ_5211" data-name="グループ 5211">
      <path id="パス_2094" data-name="パス 2094" d="M87.689,77.359A7.349,7.349,0,0,0,82.524,75.2a7.189,7.189,0,0,0-5.165,2.159,7.324,7.324,0,0,0,5.165,12.489,7.189,7.189,0,0,0,5.165-2.159,7.349,7.349,0,0,0,2.159-5.165A7.189,7.189,0,0,0,87.689,77.359ZM86.3,86.3a5.4,5.4,0,1,1,1.542-3.778A5.332,5.332,0,0,1,86.3,86.3Z" transform="translate(-75.2 -75.2)" fill="#fff"/>
    </g>
  </g>
  <g id="グループ_5214" data-name="グループ 5214" transform="translate(24.168 13.568)">
    <g id="グループ_5213" data-name="グループ 5213">
      <path id="パス_2095" data-name="パス 2095" d="M254.77,140.8H251.8a1,1,0,0,0,0,2h2.968a1,1,0,1,0,0-2Z" transform="translate(-250.8 -140.8)" fill="#fff"/>
    </g>
  </g>
  <g id="グループ_5216" data-name="グループ 5216" transform="translate(13.568 24.169)">
    <g id="グループ_5215" data-name="グループ 5215">
      <path id="パス_2096" data-name="パス 2096" d="M141.8,250.8a1.02,1.02,0,0,0-1,1v2.968a1,1,0,1,0,2,0V251.8A1.02,1.02,0,0,0,141.8,250.8Z" transform="translate(-140.8 -250.8)" fill="#fff"/>
    </g>
  </g>
  <g id="グループ_5218" data-name="グループ 5218" transform="translate(21.065 21.066)">
    <g id="グループ_5217" data-name="グループ 5217">
      <path id="パス_2097" data-name="パス 2097" d="M222.4,221.009l-2.12-2.12a.981.981,0,1,0-1.388,1.388l2.12,2.12a.981.981,0,0,0,1.388-1.388Z" transform="translate(-218.6 -218.6)" fill="#fff"/>
    </g>
  </g>
  <g id="グループ_5220" data-name="グループ 5220" transform="translate(13.568)">
    <g id="グループ_5219" data-name="グループ 5219">
      <path id="パス_2098" data-name="パス 2098" d="M141.8,0a1.02,1.02,0,0,0-1,1V3.97a1,1,0,0,0,2,0V1A1.02,1.02,0,0,0,141.8,0Z" transform="translate(-140.8)" fill="#fff"/>
    </g>
  </g>
  <g id="グループ_5222" data-name="グループ 5222" transform="translate(21.104 3.99)">
    <g id="グループ_5221" data-name="グループ 5221">
      <path id="パス_2099" data-name="パス 2099" d="M222.8,41.689a.977.977,0,0,0-1.388,0l-2.12,2.12a.981.981,0,0,0,1.388,1.388l2.12-2.12A.977.977,0,0,0,222.8,41.689Z" transform="translate(-219 -41.4)" fill="#fff"/>
    </g>
  </g>
  <g id="グループ_5224" data-name="グループ 5224" transform="translate(0 13.568)">
    <g id="グループ_5223" data-name="グループ 5223">
      <path id="パス_2100" data-name="パス 2100" d="M3.97,140.8H1a1.02,1.02,0,0,0-1,1,1,1,0,0,0,1,1H3.97a1,1,0,0,0,0-2Z" transform="translate(0 -140.8)" fill="#fff"/>
    </g>
  </g>
  <g id="グループ_5226" data-name="グループ 5226" transform="translate(3.951 21.066)">
    <g id="グループ_5225" data-name="グループ 5225">
      <path id="パス_2101" data-name="パス 2101" d="M44.8,218.889a.977.977,0,0,0-1.388,0l-2.12,2.12a.981.981,0,0,0,1.388,1.388l2.12-2.12A.977.977,0,0,0,44.8,218.889Z" transform="translate(-41 -218.6)" fill="#fff"/>
    </g>
  </g>
  <g id="グループ_5228" data-name="グループ 5228" transform="translate(3.951 3.99)">
    <g id="グループ_5227" data-name="グループ 5227">
      <path id="パス_2102" data-name="パス 2102" d="M44.8,43.809l-2.12-2.12a.981.981,0,0,0-1.388,1.388l2.12,2.12A.981.981,0,0,0,44.8,43.809Z" transform="translate(-41 -41.4)" fill="#fff"/>
    </g>
  </g>
</svg>
