<svg xmlns="http://www.w3.org/2000/svg" width="44.75" height="48.818" viewBox="0 0 44.75 48.818">
  <g id="discord" transform="translate(0)">
    <path id="パス_57734" data-name="パス 57734" d="M6.248,43.115h29l-1.385-4.485,3.314,2.844,3.037,2.722,5.533,4.623V5.034A5.4,5.4,0,0,0,40.364,0L6.258.006A5.193,5.193,0,0,0,1,5.045V38.078a5.09,5.09,0,0,0,5.248,5.036ZM27.7,11.56l-.067.024.024-.024ZM12.181,14.141a12.549,12.549,0,0,1,7.184-2.583l.279.275a14.806,14.806,0,0,0-6.631,3.126s.553-.271,1.519-.683a23.227,23.227,0,0,1,19.068.818,16.73,16.73,0,0,0-6.354-3.126l.378-.372A12.56,12.56,0,0,1,34.7,14.157a31.4,31.4,0,0,1,3.751,14.279,10.84,10.84,0,0,1-8,3.511s-.96-1.086-1.644-2.034a8.215,8.215,0,0,0,4.556-2.856,29.934,29.934,0,0,1-2.886,1.5,19.315,19.315,0,0,1-3.718,1.088C20.9,30.6,17.6,29,14.492,27.741L13.428,27.2a8.165,8.165,0,0,0,4.422,2.856c-.836.954-1.664,2.038-1.664,2.038C10.52,31.96,8.453,28.42,8.453,28.42a31.474,31.474,0,0,1,3.728-14.279Z" transform="translate(-1 0)" fill="#4e455a"/>
    <path id="パス_57735" data-name="パス 57735" d="M15.642,15.537a2.722,2.722,0,0,0,0-5.441V10.1a2.719,2.719,0,0,0,0,5.435Z" transform="translate(11.428 10.44)" fill="#4e455a"/>
    <path id="パス_57736" data-name="パス 57736" d="M11.024,15.537a2.723,2.723,0,0,0,.008-5.441l-.008.006a2.719,2.719,0,0,0,0,5.435Z" transform="translate(6.652 10.44)" fill="#4e455a"/>
  </g>
</svg>
