<svg id="グループ_67119" data-name="グループ 67119" xmlns="http://www.w3.org/2000/svg" width="161.771" height="27.555" viewBox="0 0 161.771 27.555">
  <g id="アートボード_1" data-name="アートボード 1" transform="translate(0 0)">
    <path id="パス_2154" data-name="パス 2154" d="M230.07,256.07v15.812h15.022v-3.226h-10.78c-.613,0-.921-.29-.921-.874V266.54a.8.8,0,0,1,.921-.886h10.78v-3.212h-10.78a.815.815,0,0,1-.921-.921v-1.315a.814.814,0,0,1,.921-.919h10.78V256.07Zm18.936,0v15.812h15.019v-3.226H253.248c-.615,0-.921-.294-.921-.886v-7.583c0-.6.306-.886.921-.886h10.777V256.07Zm85.613-.206v15.812h15.022v-3.224H338.863q-.923,0-.923-.886v-1.242q0-.872.923-.874h10.777v-3.217H338.863a.814.814,0,0,1-.923-.919v-1.306a.814.814,0,0,1,.923-.921h10.777v-3.223Zm-60.166,0v15.812h16.286v-3.224H278.695q-.923,0-.923-.886v-7.583q0-.886.923-.886h12.044v-3.235Zm-5.708.12v16.044a.553.553,0,0,0,1.107,0V255.983a.553.553,0,1,0-1.107,0m26.222,15.692h16.286V255.864h-3.321v11.692a.8.8,0,0,1-.921.9h-7.8a.8.8,0,0,1-.921-.9V255.864h-3.321Zm31.27-9.442H319.48a.814.814,0,0,1-.921-.919v-1.306a.814.814,0,0,1,.921-.921h6.843v.013s1.087-.162,1.087.91v1.229S327.528,262.233,326.237,262.233Zm.049,6.219h-6.613a1.239,1.239,0,0,1-.932-.294.906.906,0,0,1-.182-.582v-1.242a1.234,1.234,0,0,1,.051-.345.666.666,0,0,1,.066-.131.643.643,0,0,1,.075-.12.713.713,0,0,1,.1-.1.691.691,0,0,1,.19-.108l.058-.022a2.586,2.586,0,0,1,.383-.051h7.056a.8.8,0,0,1,.857.875v1.178S327.517,268.452,326.286,268.452Zm2.747-4.678a1.238,1.238,0,0,0,1.222-1.22v-5.92c-.013-.848-1.12-.755-1.12-.755l-13.893-.015v15.812l13.9-.011s1.107.029,1.107-.755v-5.916A1.242,1.242,0,0,0,329.033,263.774Zm22.2,7.457v-1.6h.711a.957.957,0,0,1,.325.042.358.358,0,0,1,.177.153.454.454,0,0,1,.066.241.394.394,0,0,1-.111.288.562.562,0,0,1-.341.148.5.5,0,0,1,.128.08,1.154,1.154,0,0,1,.177.221l.279.443h-.268l-.221-.332c-.062-.1-.113-.17-.153-.221a.475.475,0,0,0-.106-.106.349.349,0,0,0-.1-.044.739.739,0,0,0-.117,0h-.246v.711Zm.221-.886h.443a.637.637,0,0,0,.221-.031.237.237,0,0,0,.124-.1.261.261,0,0,0,.044-.144.237.237,0,0,0-.084-.186.387.387,0,0,0-.261-.073h-.5Zm1.676.124h-.084a1.171,1.171,0,1,1-.343-.828,1.171,1.171,0,0,1,.343.828h.168a1.339,1.339,0,1,0-1.328,1.342,1.34,1.34,0,0,0,1.328-1.342Z" transform="translate(-191.448 -249.545)" fill="#fff" fill-rule="evenodd"/>
    <g id="グループ_5239" data-name="グループ 5239">
      <path id="パス_2155" data-name="パス 2155" d="M55.62,298.788c0-3.746,7.277-6.788,16.246-6.788s16.255,3.038,16.255,6.784-7.271,6.79-16.255,6.79S55.62,302.536,55.62,298.788Z" transform="translate(-55.62 -278.019)" fill="#fdd000" fill-rule="evenodd"/>
      <path id="パス_2156" data-name="パス 2156" d="M68.465,235.348l-.1,14.864,15.263,3.62,10.859-4.682V233.293L83.834,229.12,78.2,235.348Z" transform="translate(-65.547 -229.06)" fill="#575563" fill-rule="evenodd"/>
      <g id="グループ_5238" data-name="グループ 5238" transform="translate(2.863)">
        <path id="パス_2157" data-name="パス 2157" d="M137.61,228.85l9.856,3.861s2.411,13.394-9.856,16.228Z" transform="translate(-122.321 -228.85)" fill="#d1ad00" fill-rule="evenodd"/>
        <path id="パス_2158" data-name="パス 2158" d="M68.606,235.138,83.84,228.85v20.089S67.483,251.651,68.606,235.138Z" transform="translate(-68.55 -228.85)" fill="#fdd000" fill-rule="evenodd"/>
      </g>
    </g>
  </g>
</svg>
