<svg xmlns="http://www.w3.org/2000/svg" width="89" height="64.268" viewBox="0 0 89 64.268">
  <path id="Fill-1" d="M40.047,62.437a2.642,2.642,0,1,1-2.642,2.642,2.64,2.64,0,0,1,2.642-2.642M80.922,46.31a2.642,2.642,0,1,1,2.642-2.642,2.735,2.735,0,0,1-2.642,2.642m0-10.706a8.07,8.07,0,0,0-8.064,8.064,7.873,7.873,0,0,0,.417,2.5L46.72,60.352a8.055,8.055,0,0,0-6.674-3.476,8.274,8.274,0,0,0-7.23,4.449L8.9,48.812C6.4,47.422,4.454,43.39,4.732,39.5c.139-1.946.834-3.476,1.807-4.032A2.42,2.42,0,0,1,8.9,35.6l.139.139c6.4,3.337,27.111,14.181,27.946,14.6,1.39.556,2.086.834,4.449-.278L84.259,27.818a1.958,1.958,0,0,0,1.39-1.807A2.151,2.151,0,0,0,84.4,24.2c-2.5-1.112-6.256-2.92-9.871-4.588C66.741,16,57.843,11.829,53.95,9.744a6.542,6.542,0,0,0-6.535,0l-.973.417C28.785,19.059,5.427,30.6,4.037,31.433,1.674,32.823.144,35.743.005,39.358c-.278,5.7,2.642,11.679,6.813,13.764l25.3,13.069a8.186,8.186,0,0,0,7.925,6.952,8.04,8.04,0,0,0,8.064-7.925L75.917,50.2a8.134,8.134,0,1,0,5.005-14.6" transform="translate(0.014 -8.875)"/>
</svg>
