<svg xmlns="http://www.w3.org/2000/svg" width="48.875" height="48.875" viewBox="0 0 48.875 48.875">
  <path id="github" d="M24.438,0A24.533,24.533,0,0,0,0,24.438C0,35.892,8.037,46.3,18.71,48.875V40.79a5.884,5.884,0,0,1-6.6-2.934c-.555-.937-1.539-1.952-2.566-1.878L9.3,33.126c2.22-.19,4.14,1.352,5.28,3.268a3.167,3.167,0,0,0,1.837,1.572,3.849,3.849,0,0,0,2.4-.209A6.712,6.712,0,0,1,20.5,34.313h0c-6.365-.949-8.9-4.326-9.909-6.992a11.213,11.213,0,0,1,1.741-10.755.384.384,0,0,0,.1-.3,9.374,9.374,0,0,1,.285-6.257c1.248.369,1.451-.371,5.423,2.042l.686.412c.287.171.2.073.484.052a20.739,20.739,0,0,1,5.129-.722,20.828,20.828,0,0,1,5.2.74l.222.022c-.019,0,.06-.014.194-.094,4.961-3.005,4.783-2.023,6.114-2.455a9.534,9.534,0,0,1,.279,6.26c-.144.444,4.3,4.515,1.837,11.05-1.007,2.667-3.543,6.043-9.908,6.993h0c.816,1.244,1.8,1.905,1.791,4.471V48.875c10.673-2.579,18.71-12.984,18.71-24.438A24.533,24.533,0,0,0,24.438,0Zm0,0" fill="#fff"/>
</svg>
