<svg xmlns="http://www.w3.org/2000/svg" width="88" height="88.001" viewBox="0 0 88 88.001">
  <path id="github" d="M44,0A44.172,44.172,0,0,0,0,44C0,64.623,14.471,83.357,33.688,88V73.444A10.594,10.594,0,0,1,21.812,68.16c-1-1.687-2.772-3.515-4.62-3.381l-.453-5.136c4-.342,7.454,2.435,9.507,5.883a5.7,5.7,0,0,0,3.308,2.83,6.931,6.931,0,0,0,4.328-.376c.409-3.261,1.9-4.482,3.031-6.2v0c-11.461-1.709-16.028-7.789-17.841-12.589a20.189,20.189,0,0,1,3.135-19.364.691.691,0,0,0,.174-.534,16.878,16.878,0,0,1,.513-11.267c2.248.665,2.613-.669,9.764,3.676l1.236.743c.517.308.354.132.871.093A37.34,37.34,0,0,1,44,21.237a37.5,37.5,0,0,1,9.361,1.332l.4.04c-.035-.005.109-.026.35-.169,8.933-5.411,8.612-3.642,11.007-4.421a17.166,17.166,0,0,1,.5,11.272c-.26.8,7.745,8.13,3.308,19.9-1.813,4.8-6.38,10.881-17.84,12.591v0c1.469,2.239,3.234,3.43,3.225,8.049V88C73.529,83.357,88,64.623,88,44A44.171,44.171,0,0,0,44,0Zm0,0"/>
</svg>
