<svg xmlns="http://www.w3.org/2000/svg" xmlns:xlink="http://www.w3.org/1999/xlink" width="200" height="200" viewBox="0 0 200 200"><defs><style>.a{clip-path:url(#b);}</style><clipPath id="b"><rect width="200" height="200"/></clipPath></defs><g id="a" class="a"><g transform="translate(44.306 44.301)"><path d="M266.773,230.8a36.077,36.077,0,0,0-19.785-32.12A49.073,49.073,0,0,1,198.68,246.99a35.979,35.979,0,0,0,50.427,14.784l17.51,4.843-4.843-17.51a35.839,35.839,0,0,0,5-18.3Zm0,0" transform="translate(-155.505 -155.512)"/><path d="M84.98,42.474a42.488,42.488,0,1,0-79.094,21.6L.151,84.8,20.9,79.069A42.5,42.5,0,0,0,84.98,42.474ZM35.963,32.586H29.439a13.04,13.04,0,1,1,21.84,9.623l-5.536,5.066v5.083h-6.52V44.406L46.88,37.4A6.453,6.453,0,0,0,49,32.584a6.52,6.52,0,1,0-13.04,0Zm3.259,26.287h6.52v6.52h-6.52Zm0,0" transform="translate(0 0)"/></g></g></svg>