<svg id="help" xmlns="http://www.w3.org/2000/svg" width="49.885" height="49.885" viewBox="0 0 49.885 49.885">
  <path id="パス_59310" data-name="パス 59310" d="M229.207,213.082a16.174,16.174,0,0,0-8.87-14.4,22,22,0,0,1-21.657,21.657,16.13,16.13,0,0,0,22.607,6.628l7.85,2.171-2.171-7.85A16.067,16.067,0,0,0,229.207,213.082Zm0,0" transform="translate(-179.322 -179.322)" fill="#4e455a"/>
  <path id="パス_59311" data-name="パス 59311" d="M38.1,19.048A19.048,19.048,0,1,0,2.641,28.73L.07,38.025l9.3-2.571A19.052,19.052,0,0,0,38.1,19.048ZM16.125,14.615H13.2a5.846,5.846,0,1,1,9.791,4.314L20.509,21.2v2.279H17.586V19.914l3.433-3.142a2.893,2.893,0,0,0,.951-2.158,2.923,2.923,0,0,0-5.846,0ZM17.586,26.4h2.923v2.923H17.586Zm0,0" fill="#4e455a"/>
</svg>
