<svg id="moon_1_" data-name="moon (1)" xmlns="http://www.w3.org/2000/svg" width="29.243" height="29.141" viewBox="0 0 29.243 29.141">
  <g id="グループ_5229" data-name="グループ 5229" transform="translate(0 0)">
    <path id="パス_2103" data-name="パス 2103" d="M28.552,17.131a1.028,1.028,0,0,0-.86.187,10.964,10.964,0,0,1-3.326,1.943,10.416,10.416,0,0,1-3.775.673A10.973,10.973,0,0,1,9.6,8.946a11.517,11.517,0,0,1,.6-3.625A10.035,10.035,0,0,1,12,2.107.954.954,0,0,0,11.847.762a1.028,1.028,0,0,0-.86-.187A15.081,15.081,0,0,0,3.064,5.882,14.794,14.794,0,1,0,29.187,18.327.886.886,0,0,0,28.552,17.131Zm-5.718,7.811A12.864,12.864,0,0,1,2.018,14.851,12.637,12.637,0,0,1,4.671,7.04a12.848,12.848,0,0,1,4.3-3.588,12.909,12.909,0,0,0-.523,1.271,12.436,12.436,0,0,0-.71,4.26A12.887,12.887,0,0,0,20.629,21.877a12.511,12.511,0,0,0,4.447-.785c.486-.187.972-.374,1.42-.6A13.6,13.6,0,0,1,22.834,24.941Z" transform="translate(0 -0.546)"/>
  </g>
</svg>
