<svg xmlns="http://www.w3.org/2000/svg" xmlns:xlink="http://www.w3.org/1999/xlink" width="335" height="161" viewBox="0 0 335 161">
  <defs>
    <linearGradient id="linear-gradient" x2="1" y2="1" gradientUnits="objectBoundingBox">
      <stop offset="0" stop-color="#49a4f8"/>
      <stop offset="1" stop-color="#803de4"/>
    </linearGradient>
    <linearGradient id="linear-gradient-2" x1="-0.062" y1="-0.061" x2="1.018" y2="1" gradientUnits="objectBoundingBox">
      <stop offset="0" stop-color="#3eb9fc"/>
      <stop offset="1" stop-color="#8b2ae1"/>
    </linearGradient>
  </defs>
  <g id="グループ_68953" data-name="グループ 68953" transform="translate(-503 -3244)">
    <rect id="長方形_2468" data-name="長方形 2468" width="335" height="161" rx="10" transform="translate(503 3244)" fill="#fff"/>
    <g id="グループ_68935" data-name="グループ 68935" transform="translate(613.244 3275.687)">
      <g id="グループ_67319" data-name="グループ 67319" transform="translate(1475.333 351.069)">
        <rect id="長方形_18018" data-name="長方形 18018" width="62.198" height="62.198" rx="13.025" transform="translate(-1475.333 -350.837)" fill="url(#linear-gradient)"/>
        <rect id="長方形_18019" data-name="長方形 18019" width="4.547" height="50.252" transform="translate(-1428.175 -339.107) rotate(45)" fill="#fff"/>
      </g>
      <path id="パス_57689" data-name="パス 57689" d="M255.3,75.929a7.562,7.562,0,0,1-3-2.336,5.907,5.907,0,0,1-1.209-3.259h4.941a2.693,2.693,0,0,0,1.1,1.857,3.846,3.846,0,0,0,2.4.736,3.722,3.722,0,0,0,2.19-.562,1.7,1.7,0,0,0,.788-1.432,1.518,1.518,0,0,0-.964-1.419,18.157,18.157,0,0,0-3.065-1.035,25.888,25.888,0,0,1-3.558-1.086,6.172,6.172,0,0,1-2.382-1.717,4.605,4.605,0,0,1-1-3.119,5.033,5.033,0,0,1,.929-2.943,6.238,6.238,0,0,1,2.663-2.1,9.984,9.984,0,0,1,4.088-.771,8.333,8.333,0,0,1,5.535,1.735,6.424,6.424,0,0,1,2.278,4.678h-4.7a2.538,2.538,0,0,0-.962-1.84,3.581,3.581,0,0,0-2.3-.683,3.621,3.621,0,0,0-2.05.489,1.566,1.566,0,0,0-.718,1.367,1.6,1.6,0,0,0,.981,1.489,15.254,15.254,0,0,0,3.049,1.034,25.836,25.836,0,0,1,3.469,1.087,6.112,6.112,0,0,1,2.365,1.735,4.763,4.763,0,0,1,1.028,3.1,5.139,5.139,0,0,1-.934,3.012,6.115,6.115,0,0,1-2.663,2.086,10.084,10.084,0,0,1-4.047.752,10.244,10.244,0,0,1-4.27-.855Zm-24.861-.4a8.825,8.825,0,0,1-3.189-3.557,11.428,11.428,0,0,1-1.174-5.274,11.238,11.238,0,0,1,1.174-5.22,8.6,8.6,0,0,1,3.189-3.5,8.5,8.5,0,0,1,4.5-1.225,7.915,7.915,0,0,1,3.8.876,7.729,7.729,0,0,1,2.612,2.208V57.061h4.941V76.472h-4.941V73.634a7.284,7.284,0,0,1-2.612,2.26,7.981,7.981,0,0,1-3.837.894,8.252,8.252,0,0,1-4.468-1.261Zm3.242-13.806a5.013,5.013,0,0,0-1.876,1.945,6.1,6.1,0,0,0-.718,3.031,6.3,6.3,0,0,0,.718,3.071,5.186,5.186,0,0,0,1.892,2.015,4.812,4.812,0,0,0,2.507.7,5.052,5.052,0,0,0,2.558-.683,4.931,4.931,0,0,0,1.892-1.961,7.056,7.056,0,0,0,0-6.133,4.931,4.931,0,0,0-1.892-1.961,5.052,5.052,0,0,0-2.558-.683,4.969,4.969,0,0,0-2.523.661Zm-35.689,14.12a7.562,7.562,0,0,1-3.242-2.523,6.642,6.642,0,0,1-1.225-3.89h5.256a3.4,3.4,0,0,0,1.068,2.383,3.784,3.784,0,0,0,2.646.876,4.073,4.073,0,0,0,2.7-.818,2.677,2.677,0,0,0,.981-2.155,2.491,2.491,0,0,0-.666-1.787,4.682,4.682,0,0,0-1.666-1.1,27.62,27.62,0,0,0-2.748-.9,29.337,29.337,0,0,1-3.873-1.384,6.774,6.774,0,0,1-2.558-2.066,5.892,5.892,0,0,1-1.069-3.7,6.609,6.609,0,0,1,1.087-3.784,6.912,6.912,0,0,1,3.049-2.47,11.1,11.1,0,0,1,4.484-.858,9.735,9.735,0,0,1,6.15,1.84,6.823,6.823,0,0,1,2.612,5.139h-5.4a2.8,2.8,0,0,0-1.068-2.086,4.031,4.031,0,0,0-2.646-.818,3.4,3.4,0,0,0-2.3.736,2.66,2.66,0,0,0-.858,2.137,2.209,2.209,0,0,0,.648,1.635,4.917,4.917,0,0,0,1.612,1.051q.964.4,2.716.934a28.509,28.509,0,0,1,3.889,1.4,6.988,6.988,0,0,1,2.593,2.1,5.84,5.84,0,0,1,1.086,3.679,6.925,6.925,0,0,1-1.015,3.644,7.186,7.186,0,0,1-2.98,2.681,10.162,10.162,0,0,1-4.66,1,11.608,11.608,0,0,1-4.608-.9Zm87.9.633V65.75a5.031,5.031,0,0,0-1.156-3.557,4.088,4.088,0,0,0-3.154-1.244,4.2,4.2,0,0,0-3.206,1.244A4.988,4.988,0,0,0,277.2,65.75V76.472H272.3V50.542H277.2v8.935a6.4,6.4,0,0,1,2.523-1.986,8.363,8.363,0,0,1,3.5-.718,7.881,7.881,0,0,1,3.925.964,6.637,6.637,0,0,1,2.686,2.838,9.744,9.744,0,0,1,.964,4.5V76.466Zm-69.344,0V50.542h4.906v25.93Z" transform="translate(-179.966 20.939)" fill="url(#linear-gradient-2)"/>
    </g>
  </g>
</svg>
