<svg xmlns="http://www.w3.org/2000/svg" xmlns:xlink="http://www.w3.org/1999/xlink" width="273" height="147" viewBox="0 0 273 147">
  <defs>
    <linearGradient id="linear-gradient" x1="-0.062" y1="-0.061" x2="1.018" y2="1" gradientUnits="objectBoundingBox">
      <stop offset="0" stop-color="#3eb9fc"/>
      <stop offset="1" stop-color="#8b2ae1"/>
    </linearGradient>
    <filter id="パス_57689" x="87.556" y="48.791" width="160.458" height="56.433" filterUnits="userSpaceOnUse">
      <feOffset dy="3" input="SourceAlpha"/>
      <feGaussianBlur stdDeviation="3" result="blur"/>
      <feFlood flood-opacity="0.878"/>
      <feComposite operator="in" in2="blur"/>
      <feComposite in="SourceGraphic"/>
    </filter>
    <linearGradient id="linear-gradient-2" x1="0" y1="0" x2="1" xlink:href="#linear-gradient"/>
    <filter id="長方形_18018" x="24" y="42.12" width="69" height="69.76" filterUnits="userSpaceOnUse">
      <feOffset dy="3" input="SourceAlpha"/>
      <feGaussianBlur stdDeviation="3" result="blur-2"/>
      <feFlood flood-opacity="0.878"/>
      <feComposite operator="in" in2="blur-2"/>
      <feComposite in="SourceGraphic"/>
    </filter>
  </defs>
  <g id="グループ_69047" data-name="グループ 69047" transform="translate(-20 -2748)">
    <path id="パス_59567" data-name="パス 59567" d="M10,0H263a10,10,0,0,1,10,10V137a10,10,0,0,1-10,10H10A10,10,0,0,1,0,137V10A10,10,0,0,1,10,0Z" transform="translate(20 2748)" fill="#fff"/>
    <g id="グループ_67150" data-name="グループ 67150" transform="translate(52.535 2865.39)">
      <g transform="matrix(1, 0, 0, 1, -32.53, -117.39)" filter="url(#パス_57689)">
        <path id="パス_57689-2" data-name="パス 57689" d="M283.977,87.716A11.074,11.074,0,0,1,279.59,84.3a8.651,8.651,0,0,1-1.77-4.772h7.235a3.944,3.944,0,0,0,1.616,2.719,5.632,5.632,0,0,0,3.516,1.078,5.451,5.451,0,0,0,3.207-.823,2.483,2.483,0,0,0,1.154-2.1,2.223,2.223,0,0,0-1.411-2.078,26.584,26.584,0,0,0-4.488-1.515,37.907,37.907,0,0,1-5.21-1.591,9.037,9.037,0,0,1-3.487-2.514,6.744,6.744,0,0,1-1.462-4.567,7.37,7.37,0,0,1,1.36-4.31,9.134,9.134,0,0,1,3.9-3.079,14.62,14.62,0,0,1,5.986-1.129,12.2,12.2,0,0,1,8.105,2.54,9.407,9.407,0,0,1,3.335,6.85H294.3a3.717,3.717,0,0,0-1.409-2.694,5.244,5.244,0,0,0-3.363-1,5.3,5.3,0,0,0-3,.717,2.294,2.294,0,0,0-1.052,2,2.35,2.35,0,0,0,1.437,2.181,22.337,22.337,0,0,0,4.464,1.514,37.836,37.836,0,0,1,5.08,1.592,8.95,8.95,0,0,1,3.463,2.54,6.974,6.974,0,0,1,1.505,4.543,7.525,7.525,0,0,1-1.368,4.411,8.953,8.953,0,0,1-3.9,3.055,14.766,14.766,0,0,1-5.926,1.1,15,15,0,0,1-6.253-1.252Zm-36.4-.592a12.924,12.924,0,0,1-4.669-5.208,16.734,16.734,0,0,1-1.719-7.722,16.458,16.458,0,0,1,1.719-7.643,12.6,12.6,0,0,1,4.669-5.131,12.444,12.444,0,0,1,6.6-1.794,11.589,11.589,0,0,1,5.565,1.283,11.317,11.317,0,0,1,3.824,3.233V60.087h7.235V88.511h-7.235V84.355a10.666,10.666,0,0,1-3.824,3.309,11.687,11.687,0,0,1-5.618,1.308,12.083,12.083,0,0,1-6.542-1.847Zm4.748-20.216a7.341,7.341,0,0,0-2.747,2.848,8.928,8.928,0,0,0-1.052,4.438,9.221,9.221,0,0,0,1.052,4.5,7.594,7.594,0,0,0,2.771,2.95,7.047,7.047,0,0,0,3.67,1.026,7.4,7.4,0,0,0,3.746-1,7.22,7.22,0,0,0,2.771-2.872,10.332,10.332,0,0,0,0-8.981,7.221,7.221,0,0,0-2.771-2.872,7.4,7.4,0,0,0-3.746-1,7.276,7.276,0,0,0-3.694.968ZM200.062,87.584a11.073,11.073,0,0,1-4.748-3.694,9.727,9.727,0,0,1-1.794-5.7h7.7a4.97,4.97,0,0,0,1.563,3.489,5.541,5.541,0,0,0,3.874,1.283,5.964,5.964,0,0,0,3.951-1.2,3.92,3.92,0,0,0,1.437-3.156A3.648,3.648,0,0,0,211.066,76a6.854,6.854,0,0,0-2.439-1.616,40.442,40.442,0,0,0-4.024-1.314,42.962,42.962,0,0,1-5.671-2.027,9.92,9.92,0,0,1-3.746-3.026,8.627,8.627,0,0,1-1.565-5.413,9.677,9.677,0,0,1,1.592-5.541,10.121,10.121,0,0,1,4.464-3.617,16.248,16.248,0,0,1,6.566-1.257,14.256,14.256,0,0,1,9,2.694,9.992,9.992,0,0,1,3.824,7.525h-7.9a4.1,4.1,0,0,0-1.563-3.055,5.9,5.9,0,0,0-3.874-1.2,4.984,4.984,0,0,0-3.361,1.078,3.9,3.9,0,0,0-1.257,3.13,3.234,3.234,0,0,0,.949,2.394,7.2,7.2,0,0,0,2.36,1.539q1.411.592,3.976,1.368a41.745,41.745,0,0,1,5.7,2.052,10.233,10.233,0,0,1,3.8,3.079,8.552,8.552,0,0,1,1.591,5.388A10.141,10.141,0,0,1,218,83.517a10.522,10.522,0,0,1-4.363,3.925,14.879,14.879,0,0,1-6.824,1.462,17,17,0,0,1-6.747-1.32Zm128.71.927V72.81a7.366,7.366,0,0,0-1.693-5.208,5.986,5.986,0,0,0-4.618-1.821,6.145,6.145,0,0,0-4.695,1.821,7.3,7.3,0,0,0-1.71,5.208v15.7h-7.183V50.542h7.183V63.626a9.373,9.373,0,0,1,3.694-2.908,12.246,12.246,0,0,1,5.131-1.052,11.539,11.539,0,0,1,5.747,1.411,9.718,9.718,0,0,1,3.934,4.156,14.268,14.268,0,0,1,1.411,6.593V88.5Zm-101.54,0V50.542h7.183V88.511Z" transform="translate(-96.96 4.25)" fill="url(#linear-gradient)"/>
      </g>
      <g id="グループ_69044" data-name="グループ 69044" transform="translate(-20.535 -48.271)">
        <g transform="matrix(1, 0, 0, 1, -12, -69.12)" filter="url(#長方形_18018)">
          <rect id="長方形_18018-2" data-name="長方形 18018" width="51" height="51.761" rx="11" transform="translate(33 48.12)" fill="url(#linear-gradient-2)"/>
        </g>
        <path id="長方形_18019" data-name="長方形 18019" d="M0,0,3.6.02l.208,41.363-3.6-.02Z" transform="translate(59.674 -11.138) rotate(45)" fill="#fff"/>
      </g>
    </g>
  </g>
</svg>
