<svg xmlns="http://www.w3.org/2000/svg" xmlns:xlink="http://www.w3.org/1999/xlink" width="273" height="147" viewBox="0 0 273 147">
  <defs>
    <linearGradient id="linear-gradient" x1="-0.062" y1="-0.061" x2="1.018" y2="1" gradientUnits="objectBoundingBox">
      <stop offset="0" stop-color="#fc3e8c"/>
      <stop offset="1" stop-color="#8b2ae1"/>
    </linearGradient>
    <linearGradient id="linear-gradient-2" x2="1" y2="1" gradientUnits="objectBoundingBox">
      <stop offset="0" stop-color="#3eb9fc"/>
      <stop offset="1" stop-color="#8b2ae1"/>
    </linearGradient>
  </defs>
  <g id="グループ_69048" data-name="グループ 69048" transform="translate(-20 -2952)">
    <rect id="長方形_19589" data-name="長方形 19589" width="273" height="147" rx="10" transform="translate(20 2952)" fill="#fff"/>
    <g id="グループ_67150" data-name="グループ 67150" transform="translate(52.535 3069.51)">
      <path id="パス_57689" data-name="パス 57689" d="M283.686,87.3a11.026,11.026,0,0,1-4.373-3.382,8.512,8.512,0,0,1-1.764-4.718h7.211a3.894,3.894,0,0,0,1.611,2.689,5.646,5.646,0,0,0,3.505,1.065,5.468,5.468,0,0,0,3.2-.813,2.451,2.451,0,0,0,1.151-2.073,2.2,2.2,0,0,0-1.406-2.055,26.647,26.647,0,0,0-4.473-1.5,38.014,38.014,0,0,1-5.193-1.573,9.006,9.006,0,0,1-3.476-2.486,6.632,6.632,0,0,1-1.458-4.515,7.246,7.246,0,0,1,1.355-4.261,9.094,9.094,0,0,1,3.887-3.044,14.677,14.677,0,0,1,5.967-1.116,12.229,12.229,0,0,1,8.079,2.511A9.273,9.273,0,0,1,300.83,68.8h-6.853a3.666,3.666,0,0,0-1.4-2.663,5.257,5.257,0,0,0-3.352-.989,5.32,5.32,0,0,0-2.992.709,2.263,2.263,0,0,0-1.049,1.978,2.323,2.323,0,0,0,1.432,2.156,22.391,22.391,0,0,0,4.45,1.5,37.94,37.94,0,0,1,5.063,1.574,8.917,8.917,0,0,1,3.452,2.511,6.859,6.859,0,0,1,1.5,4.491,7.4,7.4,0,0,1-1.364,4.361,8.913,8.913,0,0,1-3.887,3.02,14.824,14.824,0,0,1-5.907,1.089,15.058,15.058,0,0,1-6.233-1.238ZM247.4,86.712a12.814,12.814,0,0,1-4.654-5.149,16.435,16.435,0,0,1-1.713-7.635,16.163,16.163,0,0,1,1.713-7.557,12.284,12.284,0,0,1,11.228-6.847,11.629,11.629,0,0,1,5.548,1.268,11.258,11.258,0,0,1,3.812,3.2V59.98h7.211v28.1h-7.211V83.974a10.607,10.607,0,0,1-3.812,3.272,11.727,11.727,0,0,1-5.6,1.294,12.117,12.117,0,0,1-6.521-1.826Zm4.733-19.988a7.285,7.285,0,0,0-2.738,2.816,8.769,8.769,0,0,0-1.048,4.388,9.057,9.057,0,0,0,1.048,4.446,7.533,7.533,0,0,0,2.762,2.917,7.067,7.067,0,0,0,3.659,1.015,7.42,7.42,0,0,0,3.733-.989,7.165,7.165,0,0,0,2.762-2.839,10.141,10.141,0,0,0,0-8.88,7.166,7.166,0,0,0-2.762-2.839,7.42,7.42,0,0,0-3.734-.989,7.3,7.3,0,0,0-3.682.957ZM200.041,87.166a11.025,11.025,0,0,1-4.733-3.653,9.563,9.563,0,0,1-1.788-5.631h7.672a4.9,4.9,0,0,0,1.558,3.45,5.553,5.553,0,0,0,3.861,1.268,5.978,5.978,0,0,0,3.938-1.184,3.863,3.863,0,0,0,1.432-3.12,3.59,3.59,0,0,0-.972-2.587,6.837,6.837,0,0,0-2.431-1.6,40.546,40.546,0,0,0-4.011-1.3,43.053,43.053,0,0,1-5.653-2,9.873,9.873,0,0,1-3.734-2.991,8.48,8.48,0,0,1-1.56-5.352,9.511,9.511,0,0,1,1.587-5.479,10.073,10.073,0,0,1,4.45-3.577,16.311,16.311,0,0,1,6.545-1.243,14.292,14.292,0,0,1,8.976,2.663,9.853,9.853,0,0,1,3.812,7.441h-7.878a4.048,4.048,0,0,0-1.558-3.02,5.916,5.916,0,0,0-3.861-1.184,5,5,0,0,0-3.35,1.065,3.835,3.835,0,0,0-1.253,3.095,3.184,3.184,0,0,0,.946,2.367,7.183,7.183,0,0,0,2.353,1.522q1.406.585,3.964,1.353a41.832,41.832,0,0,1,5.677,2.029,10.184,10.184,0,0,1,3.785,3.044,8.406,8.406,0,0,1,1.585,5.327,9.965,9.965,0,0,1-1.482,5.276,10.459,10.459,0,0,1-4.349,3.881,14.933,14.933,0,0,1-6.8,1.446,17.063,17.063,0,0,1-6.726-1.305Zm128.3.917V72.559a7.245,7.245,0,0,0-1.688-5.149,5.993,5.993,0,0,0-4.6-1.8,6.153,6.153,0,0,0-4.68,1.8,7.184,7.184,0,0,0-1.7,5.149V88.083H308.5V50.542h7.16V63.478a9.332,9.332,0,0,1,3.682-2.875,12.292,12.292,0,0,1,5.115-1.04,11.577,11.577,0,0,1,5.728,1.4,9.641,9.641,0,0,1,3.921,4.109,14.011,14.011,0,0,1,1.406,6.519V88.075Zm-101.213,0V50.542h7.16V88.083Z" transform="translate(-130.055 -112.813)" fill="url(#linear-gradient)"/>
      <g id="グループ_69044" data-name="グループ 69044" transform="translate(0.465 -69.271)">
        <rect id="長方形_18018" data-name="長方形 18018" width="51" height="52" rx="11" fill="url(#linear-gradient-2)"/>
        <path id="長方形_18019" data-name="長方形 18019" d="M0,0,3.611.033l.363,41.519L.363,41.519Z" transform="translate(38.674 9.862) rotate(45)" fill="#fff"/>
      </g>
    </g>
  </g>
</svg>
