<?xml version="1.0" encoding="UTF-8"?><svg id="_レイヤー_2" xmlns="http://www.w3.org/2000/svg" xmlns:xlink="http://www.w3.org/1999/xlink" viewBox="0 0 335 160"><defs><style>.cls-1{fill:#fff;}.cls-2{fill:url(#_名称未設定グラデーション_3);}.cls-3{fill:url(#_名称未設定グラデーション_2);}</style><linearGradient id="_名称未設定グラデーション_3" x1="-619.61" y1="520.62" x2="-618.61" y2="519.62" gradientTransform="translate(50229.69 31807.92) scale(81 -61)" gradientUnits="userSpaceOnUse"><stop offset="0" stop-color="#49a4f8"/><stop offset="1" stop-color="#803de4"/></linearGradient><linearGradient id="_名称未設定グラデーション_2" x1="-623.2" y1="516.34" x2="-621.99" y2="515.15" gradientTransform="translate(91300.5 15161.99) scale(146.3 -29.24)" gradientUnits="userSpaceOnUse"><stop offset="0" stop-color="#3eb9fc"/><stop offset="1" stop-color="#8b2ae1"/></linearGradient></defs><g id="_レイヤー_1-2"><g id="_グループ_68956"><rect id="_長方形_2465" class="cls-1" width="335" height="160" rx="10" ry="10"/><g id="_グループ_5210"><g id="_グループ_67150"><g id="_グループ_67319"><rect id="_長方形_18018" class="cls-2" x="41" y="50" width="81" height="61" rx="12.77" ry="12.77"/><path id="_長方形_18019" class="cls-1" d="M105.59,61.5l4.81,3.15-53.19,34.85-4.81-3.15,53.19-34.85Z"/></g><path id="_パス_57689" class="cls-3" d="M246.64,95.3c-1.94-.55-3.72-1.51-5.21-2.81-1.19-1.02-1.94-2.42-2.1-3.92h8.59c.23,.98,.94,1.81,1.92,2.23,1.29,.63,2.73,.93,4.18,.89,1.31,.06,2.61-.17,3.81-.68,.78-.28,1.32-.95,1.37-1.73-.09-.85-.77-1.55-1.68-1.71-1.74-.53-3.52-.95-5.33-1.24-2.09-.33-4.15-.76-6.19-1.31-1.52-.41-2.93-1.11-4.14-2.07-1.17-.93-1.81-2.32-1.73-3.75,.02-1.33,.6-2.61,1.62-3.54,1.29-1.19,2.88-2.06,4.63-2.53,2.3-.66,4.7-.97,7.11-.93,3.35-.15,6.69,.57,9.63,2.09,2.23,1.15,3.72,3.26,3.96,5.63h-8.17c-.13-.95-.76-1.78-1.67-2.21-1.23-.6-2.61-.88-3.99-.82-1.22-.06-2.44,.14-3.57,.59-.73,.26-1.23,.91-1.25,1.64,.08,.88,.78,1.61,1.71,1.79,1.73,.55,3.5,.96,5.3,1.24,2.03,.33,4.05,.77,6.03,1.31,1.52,.41,2.92,1.12,4.11,2.09,1.16,.94,1.81,2.3,1.79,3.73,0,1.36-.59,2.66-1.62,3.62-1.29,1.19-2.88,2.05-4.63,2.51-2.28,.64-4.66,.94-7.04,.9-2.52,.03-5.03-.31-7.43-1.03h0Zm-43.23-.48c-2.23-.93-4.15-2.41-5.55-4.28-1.37-1.86-2.08-4.08-2.04-6.34-.04-2.24,.67-4.44,2.04-6.28,1.4-1.85,3.32-3.31,5.55-4.21,2.47-1.01,5.14-1.51,7.83-1.47,2.25-.04,4.5,.32,6.61,1.05,1.69,.59,3.24,1.49,4.54,2.65v-3.34h8.59v23.35h-8.59v-3.41c-1.28,1.21-2.83,2.14-4.54,2.72-2.13,.75-4.4,1.12-6.67,1.08-2.68,.03-5.33-.49-7.77-1.52h0Zm5.64-16.61c-1.29,.5-2.42,1.3-3.26,2.34-.84,1.05-1.28,2.33-1.25,3.64-.03,1.33,.41,2.62,1.25,3.69,.85,1.06,1.98,1.9,3.29,2.42,1.37,.56,2.86,.85,4.36,.84,1.53,.01,3.04-.27,4.45-.82,1.31-.49,2.44-1.31,3.29-2.36,1.63-2.22,1.63-5.15,0-7.38-.85-1.05-1.98-1.87-3.29-2.36-1.41-.55-2.92-.83-4.45-.82-1.51-.02-3,.25-4.39,.79h0Zm-62.06,16.98c-2.12-.56-4.06-1.6-5.64-3.03-1.34-1.24-2.11-2.92-2.13-4.68h9.14c.1,1.18,.79,2.24,1.86,2.87,1.39,.77,2.99,1.13,4.6,1.05,1.63,.08,3.25-.26,4.69-.98,1.04-.5,1.69-1.5,1.71-2.59,.01-.85-.42-1.65-1.16-2.15-.87-.61-1.85-1.06-2.89-1.33-1.57-.42-3.16-.78-4.78-1.08-2.28-.44-4.52-1-6.74-1.66-1.66-.51-3.18-1.36-4.45-2.48-1.27-1.17-1.94-2.78-1.86-4.45-.02-1.69,.65-3.32,1.89-4.55,1.46-1.41,3.29-2.43,5.3-2.97,2.53-.72,5.16-1.07,7.8-1.03,3.71-.14,7.4,.62,10.69,2.21,2.55,1.2,4.26,3.53,4.54,6.18h-9.39c-.12-1.08-.82-2.02-1.86-2.51-1.41-.71-3-1.05-4.6-.98-1.39-.06-2.78,.24-3.99,.89-.97,.53-1.54,1.52-1.49,2.57,0,.79,.42,1.53,1.13,1.97,.85,.57,1.8,.99,2.8,1.26,1.12,.32,2.69,.7,4.72,1.12,2.29,.44,4.55,1,6.76,1.69,1.68,.53,3.22,1.39,4.51,2.53,1.28,1.16,1.97,2.77,1.89,4.43-.01,1.61-.64,3.16-1.76,4.38-1.39,1.48-3.18,2.59-5.18,3.22-2.6,.85-5.35,1.26-8.1,1.2-2.71,.03-5.42-.34-8.01-1.08h0Zm152.86,.76v-12.89c.11-1.65-.64-3.24-2.01-4.28-1.59-1.07-3.53-1.6-5.48-1.5-1.99-.1-3.95,.43-5.58,1.5-1.38,1.03-2.14,2.63-2.03,4.28v12.89h-8.53v-31.18h8.53v10.75c1.25-1.1,2.75-1.91,4.39-2.39,1.97-.6,4.03-.89,6.09-.86,2.33-.04,4.65,.36,6.82,1.16,1.88,.69,3.51,1.87,4.67,3.41,1.15,1.6,1.73,3.49,1.68,5.42v13.69h-8.55Zm-120.59,0v-31.18h8.53v31.18h-8.53Z"/></g></g></g></g></svg>