<svg xmlns="http://www.w3.org/2000/svg" xmlns:xlink="http://www.w3.org/1999/xlink" width="273" height="147" viewBox="0 0 273 147">
  <defs>
    <linearGradient id="linear-gradient" x1="-0.062" y1="-0.061" x2="1.018" y2="1" gradientUnits="objectBoundingBox">
      <stop offset="0" stop-color="#3eb9fc"/>
      <stop offset="1" stop-color="#8b2ae1"/>
    </linearGradient>
    <linearGradient id="linear-gradient-2" x1="0" y1="0" x2="1" xlink:href="#linear-gradient"/>
  </defs>
  <g id="グループ_69046" data-name="グループ 69046" transform="translate(-20 -2544)">
    <path id="パス_59566" data-name="パス 59566" d="M10,0H263a10,10,0,0,1,10,10V137a10,10,0,0,1-10,10H10A10,10,0,0,1,0,137V10A10,10,0,0,1,10,0Z" transform="translate(20 2544)" fill="#fff"/>
    <g id="グループ_67150" data-name="グループ 67150" transform="translate(52.535 2667.271)">
      <path id="パス_57689" data-name="パス 57689" d="M283.686,75.69a11.482,11.482,0,0,1-4.373-2.314,4.905,4.905,0,0,1-1.764-3.228h7.211a2.717,2.717,0,0,0,1.611,1.84,7.594,7.594,0,0,0,3.505.729,7.515,7.515,0,0,0,3.2-.557,1.658,1.658,0,0,0,1.151-1.419c0-.621-.555-1.179-1.406-1.406a35.819,35.819,0,0,0-4.473-1.025,51.845,51.845,0,0,1-5.193-1.076,9.719,9.719,0,0,1-3.476-1.7,3.7,3.7,0,0,1-1.458-3.089,4,4,0,0,1,1.355-2.916,9.4,9.4,0,0,1,3.887-2.083,20.757,20.757,0,0,1,5.967-.764,16.371,16.371,0,0,1,8.079,1.718,5.933,5.933,0,0,1,3.324,4.634h-6.853a2.416,2.416,0,0,0-1.4-1.822,7.093,7.093,0,0,0-3.352-.677,7.365,7.365,0,0,0-2.992.485,1.5,1.5,0,0,0-1.049,1.354c-.006.643.559,1.225,1.432,1.475a30.066,30.066,0,0,0,4.45,1.024,51.566,51.566,0,0,1,5.063,1.077,9.551,9.551,0,0,1,3.452,1.718,3.849,3.849,0,0,1,1.5,3.073,4.069,4.069,0,0,1-1.364,2.984,9.25,9.25,0,0,1-3.887,2.066,20.985,20.985,0,0,1-5.907.745,21.22,21.22,0,0,1-6.233-.847Zm-36.287-.4a11.1,11.1,0,0,1-4.654-3.523,8.435,8.435,0,0,1-1.713-5.224,8.309,8.309,0,0,1,1.713-5.171A10.908,10.908,0,0,1,247.4,57.9a17.094,17.094,0,0,1,6.574-1.214,16.2,16.2,0,0,1,5.548.868,11.3,11.3,0,0,1,3.812,2.187V57h7.211V76.228h-7.211V73.416a10.513,10.513,0,0,1-3.812,2.239,16.321,16.321,0,0,1-5.6.885,16.521,16.521,0,0,1-6.521-1.25Zm4.733-13.676a6.565,6.565,0,0,0-2.738,1.926,4.552,4.552,0,0,0-1.048,3,4.69,4.69,0,0,0,1.048,3.042,6.692,6.692,0,0,0,2.762,2,9.654,9.654,0,0,0,3.659.694,10.19,10.19,0,0,0,3.733-.677,6.456,6.456,0,0,0,2.762-1.943,5.02,5.02,0,0,0,0-6.076,6.457,6.457,0,0,0-2.762-1.943,10.19,10.19,0,0,0-3.734-.677,10.042,10.042,0,0,0-3.682.655ZM200.041,75.6a11.48,11.48,0,0,1-4.733-2.5,5.279,5.279,0,0,1-1.788-3.853h7.672a3.03,3.03,0,0,0,1.558,2.36,7.361,7.361,0,0,0,3.861.868,8.039,8.039,0,0,0,3.938-.81,2.417,2.417,0,0,0,1.432-2.135,2.09,2.09,0,0,0-.972-1.77,7.649,7.649,0,0,0-2.431-1.093q-1.97-.515-4.011-.889a57.373,57.373,0,0,1-5.653-1.371,10.116,10.116,0,0,1-3.734-2.047,4.6,4.6,0,0,1-1.56-3.662,5.138,5.138,0,0,1,1.587-3.749,10.285,10.285,0,0,1,4.45-2.447,23.052,23.052,0,0,1,6.545-.85,19.278,19.278,0,0,1,8.976,1.822c2.316,1.231,3.712,3.1,3.812,5.091h-7.878a2.645,2.645,0,0,0-1.558-2.066,7.937,7.937,0,0,0-3.861-.81,6.662,6.662,0,0,0-3.35.729,2.3,2.3,0,0,0-1.253,2.117,1.892,1.892,0,0,0,.946,1.62,8.093,8.093,0,0,0,2.353,1.041q1.406.4,3.964.926a55.662,55.662,0,0,1,5.677,1.388,10.419,10.419,0,0,1,3.785,2.083A4.584,4.584,0,0,1,219.4,69.24a5.334,5.334,0,0,1-1.482,3.61,10.148,10.148,0,0,1-4.349,2.655,20.926,20.926,0,0,1-6.8.989,24.091,24.091,0,0,1-6.726-.893Zm128.3.627V65.606a4.061,4.061,0,0,0-1.688-3.523,7.674,7.674,0,0,0-4.6-1.232,7.908,7.908,0,0,0-4.68,1.232,4.039,4.039,0,0,0-1.7,3.523V76.228H308.5V50.542h7.16v8.851a9.676,9.676,0,0,1,3.682-1.967,17.3,17.3,0,0,1,5.115-.712,16.032,16.032,0,0,1,5.728.955,8.593,8.593,0,0,1,3.921,2.812,7.153,7.153,0,0,1,1.406,4.46V76.222Zm-101.213,0V50.542h7.16V76.228Z" transform="translate(-130.055 -113.313)" fill="url(#linear-gradient)"/>
      <g id="グループ_69044" data-name="グループ 69044" transform="translate(0.465 -69.271)">
        <rect id="長方形_18018" data-name="長方形 18018" width="51" height="39" rx="11" transform="translate(0 0)" fill="url(#linear-gradient-2)"/>
        <path id="長方形_18019" data-name="長方形 18019" d="M7.919.688,10.809,0,2.89,33.237,0,33.924Z" transform="translate(33.561 3.642) rotate(45)" fill="#fff"/>
      </g>
    </g>
  </g>
</svg>
