<svg xmlns="http://www.w3.org/2000/svg" xmlns:xlink="http://www.w3.org/1999/xlink" width="335" height="161" viewBox="0 0 335 161">
  <defs>
    <linearGradient id="linear-gradient" x1="-0.062" y1="-0.061" x2="1.018" y2="1" gradientUnits="objectBoundingBox">
      <stop offset="0" stop-color="#fc3e51"/>
      <stop offset="1" stop-color="#8b2ae1"/>
    </linearGradient>
    <linearGradient id="linear-gradient-2" x2="1" y2="1" gradientUnits="objectBoundingBox">
      <stop offset="0" stop-color="#49a4f8"/>
      <stop offset="1" stop-color="#803de4"/>
    </linearGradient>
  </defs>
  <g id="グループ_68954" data-name="グループ 68954" transform="translate(-140 -3244)">
    <rect id="長方形_2467" data-name="長方形 2467" width="335" height="161" rx="10" transform="translate(140 3244)" fill="#fff"/>
    <g id="グループ_68906" data-name="グループ 68906" transform="translate(194.444 3287.97)">
      <path id="パス_57689" data-name="パス 57689" d="M276.889,84.8a10.206,10.206,0,0,1-4.043-3.153,7.973,7.973,0,0,1-1.631-4.4h6.668a3.635,3.635,0,0,0,1.49,2.506,5.191,5.191,0,0,0,3.241.993,5.024,5.024,0,0,0,2.956-.758,2.289,2.289,0,0,0,1.064-1.933,2.049,2.049,0,0,0-1.3-1.915,24.507,24.507,0,0,0-4.136-1.4,34.935,34.935,0,0,1-4.8-1.466,8.329,8.329,0,0,1-3.214-2.317,6.215,6.215,0,0,1-1.348-4.209,6.792,6.792,0,0,1,1.253-3.972,8.419,8.419,0,0,1,3.594-2.837,13.474,13.474,0,0,1,5.517-1.04,11.245,11.245,0,0,1,7.47,2.341,8.67,8.67,0,0,1,3.074,6.313H286.4a3.425,3.425,0,0,0-1.3-2.483,4.833,4.833,0,0,0-3.1-.922,4.887,4.887,0,0,0-2.766.66,2.114,2.114,0,0,0-.969,1.844,2.166,2.166,0,0,0,1.324,2.01,20.586,20.586,0,0,0,4.114,1.4,34.865,34.865,0,0,1,4.682,1.468,8.248,8.248,0,0,1,3.192,2.341,6.428,6.428,0,0,1,1.387,4.187,6.935,6.935,0,0,1-1.261,4.065,8.252,8.252,0,0,1-3.594,2.815,13.609,13.609,0,0,1-5.462,1.015,13.825,13.825,0,0,1-5.763-1.154Zm-33.552-.545a11.911,11.911,0,0,1-4.3-4.8,15.423,15.423,0,0,1-1.584-7.117,15.167,15.167,0,0,1,1.584-7.044,11.612,11.612,0,0,1,4.3-4.729,11.469,11.469,0,0,1,6.078-1.654,10.681,10.681,0,0,1,5.129,1.182,10.431,10.431,0,0,1,3.525,2.979V59.339h6.668v26.2H258.07v-3.83a9.831,9.831,0,0,1-3.525,3.05,10.771,10.771,0,0,1-5.178,1.206,11.137,11.137,0,0,1-6.029-1.7Zm4.376-18.632a6.765,6.765,0,0,0-2.532,2.625,8.228,8.228,0,0,0-.969,4.091,8.5,8.5,0,0,0,.969,4.144,7,7,0,0,0,2.554,2.719,6.494,6.494,0,0,0,3.383.946,6.817,6.817,0,0,0,3.452-.922,6.655,6.655,0,0,0,2.554-2.647,9.522,9.522,0,0,0,0-8.277,6.655,6.655,0,0,0-2.554-2.647,6.818,6.818,0,0,0-3.452-.922,6.706,6.706,0,0,0-3.4.892ZM199.549,84.681a10.205,10.205,0,0,1-4.376-3.4,8.964,8.964,0,0,1-1.654-5.249h7.093a4.581,4.581,0,0,0,1.441,3.216,5.107,5.107,0,0,0,3.57,1.182,5.5,5.5,0,0,0,3.641-1.1,3.613,3.613,0,0,0,1.324-2.908,3.362,3.362,0,0,0-.9-2.412,6.318,6.318,0,0,0-2.248-1.49,37.274,37.274,0,0,0-3.709-1.211,39.593,39.593,0,0,1-5.227-1.868,9.143,9.143,0,0,1-3.452-2.788,7.951,7.951,0,0,1-1.442-4.989,8.919,8.919,0,0,1,1.467-5.107,9.328,9.328,0,0,1,4.114-3.334,14.975,14.975,0,0,1,6.051-1.159,13.138,13.138,0,0,1,8.3,2.483,9.209,9.209,0,0,1,3.525,6.936h-7.284a3.783,3.783,0,0,0-1.441-2.815,5.44,5.44,0,0,0-3.57-1.1,4.593,4.593,0,0,0-3.1.993,3.589,3.589,0,0,0-1.159,2.885,2.981,2.981,0,0,0,.875,2.207,6.636,6.636,0,0,0,2.175,1.419q1.3.545,3.665,1.261a38.476,38.476,0,0,1,5.249,1.892,9.431,9.431,0,0,1,3.5,2.837,7.881,7.881,0,0,1,1.466,4.965,9.346,9.346,0,0,1-1.37,4.918,9.7,9.7,0,0,1-4.021,3.618,13.714,13.714,0,0,1-6.289,1.348A15.666,15.666,0,0,1,199.549,84.681Zm118.624.854V71.065a6.789,6.789,0,0,0-1.561-4.8,5.517,5.517,0,0,0-4.256-1.679,5.664,5.664,0,0,0-4.327,1.679,6.732,6.732,0,0,0-1.576,4.8v14.47h-6.62V50.542h6.62V62.6a8.638,8.638,0,0,1,3.4-2.68,11.286,11.286,0,0,1,4.729-.969,10.635,10.635,0,0,1,5.3,1.3,8.957,8.957,0,0,1,3.626,3.83,13.151,13.151,0,0,1,1.3,6.077V85.528Zm-93.583,0V50.542h6.62V85.536Z" transform="translate(-98.431 -32.832)" fill="url(#linear-gradient)"/>
      <g id="グループ_67319" data-name="グループ 67319" transform="translate(1731.112 411.797)">
        <rect id="長方形_18018" data-name="長方形 18018" width="73" height="73" rx="15.287" transform="translate(-1731.556 -411.767)" fill="url(#linear-gradient-2)"/>
        <rect id="長方形_18019" data-name="長方形 18019" width="5.337" height="58.979" transform="translate(-1676.209 -398) rotate(45)" fill="#fff"/>
      </g>
    </g>
  </g>
</svg>
