<svg xmlns="http://www.w3.org/2000/svg" xmlns:xlink="http://www.w3.org/1999/xlink" width="273" height="147" viewBox="0 0 273 147">
  <defs>
    <linearGradient id="linear-gradient" x1="-0.062" y1="-0.061" x2="1.018" y2="1" gradientUnits="objectBoundingBox">
      <stop offset="0" stop-color="#3eb9fc"/>
      <stop offset="1" stop-color="#8b2ae1"/>
    </linearGradient>
    <filter id="パス_57689" x="87" y="49.008" width="160" height="56" filterUnits="userSpaceOnUse">
      <feOffset dy="3" input="SourceAlpha"/>
      <feGaussianBlur stdDeviation="3" result="blur"/>
      <feFlood flood-opacity="0.878"/>
      <feComposite operator="in" in2="blur"/>
      <feComposite in="SourceGraphic"/>
    </filter>
    <linearGradient id="linear-gradient-2" x1="0" y1="0" x2="1" xlink:href="#linear-gradient"/>
    <filter id="長方形_18018" x="24" y="42.008" width="69" height="70" filterUnits="userSpaceOnUse">
      <feOffset dy="3" input="SourceAlpha"/>
      <feGaussianBlur stdDeviation="3" result="blur-2"/>
      <feFlood flood-opacity="0.878"/>
      <feComposite operator="in" in2="blur-2"/>
      <feComposite in="SourceGraphic"/>
    </filter>
  </defs>
  <g id="グループ_69047" data-name="グループ 69047" transform="translate(-20 -2748)">
    <path id="パス_59567" data-name="パス 59567" d="M10,0H263a10,10,0,0,1,10,10V137a10,10,0,0,1-10,10H10A10,10,0,0,1,0,137V10A10,10,0,0,1,10,0Z" transform="translate(20 2748)" fill="#fff"/>
    <g id="グループ_67150" data-name="グループ 67150" transform="translate(52.535 2865.39)">
      <g transform="matrix(1, 0, 0, 1, -32.53, -117.39)" filter="url(#パス_57689)">
        <path id="パス_57689-2" data-name="パス 57689" d="M283.686,87.3a11.027,11.027,0,0,1-4.373-3.378,8.512,8.512,0,0,1-1.764-4.718h7.212a3.894,3.894,0,0,0,1.611,2.688,5.646,5.646,0,0,0,3.5,1.066,5.467,5.467,0,0,0,3.2-.814,2.45,2.45,0,0,0,1.15-2.076,2.2,2.2,0,0,0-1.406-2.055,26.646,26.646,0,0,0-4.474-1.5,38.012,38.012,0,0,1-5.193-1.573,9.006,9.006,0,0,1-3.476-2.486,6.633,6.633,0,0,1-1.457-4.516,7.247,7.247,0,0,1,1.356-4.261,9.093,9.093,0,0,1,3.887-3.044,14.677,14.677,0,0,1,5.967-1.116,12.228,12.228,0,0,1,8.079,2.511,9.273,9.273,0,0,1,3.324,6.773h-6.854a3.666,3.666,0,0,0-1.4-2.664,5.257,5.257,0,0,0-3.352-.989,5.317,5.317,0,0,0-2.99.709,2.263,2.263,0,0,0-1.049,1.977,2.323,2.323,0,0,0,1.432,2.156,22.39,22.39,0,0,0,4.45,1.5,37.936,37.936,0,0,1,5.064,1.574,8.917,8.917,0,0,1,3.452,2.511,6.859,6.859,0,0,1,1.5,4.492,7.4,7.4,0,0,1-1.364,4.361,8.914,8.914,0,0,1-3.887,3.021,14.824,14.824,0,0,1-5.907,1.088,15.057,15.057,0,0,1-6.233-1.238ZM247.4,86.712a12.815,12.815,0,0,1-4.654-5.149,16.435,16.435,0,0,1-1.713-7.635,16.164,16.164,0,0,1,1.713-7.557,12.283,12.283,0,0,1,11.233-6.847,11.629,11.629,0,0,1,5.547,1.269,11.258,11.258,0,0,1,3.812,3.2V59.98h7.212v28.1H263.34V83.975a10.607,10.607,0,0,1-3.812,3.272,11.727,11.727,0,0,1-5.6,1.293,12.117,12.117,0,0,1-6.521-1.826Zm4.733-19.989A7.285,7.285,0,0,0,249.4,69.54a8.77,8.77,0,0,0-1.049,4.388,9.058,9.058,0,0,0,1.049,4.449,7.534,7.534,0,0,0,2.762,2.917,7.067,7.067,0,0,0,3.658,1.014,7.422,7.422,0,0,0,3.734-.989,7.165,7.165,0,0,0,2.762-2.84,10.142,10.142,0,0,0,0-8.88,7.166,7.166,0,0,0-2.762-2.84,7.422,7.422,0,0,0-3.734-.989,7.3,7.3,0,0,0-3.682.957ZM200.041,87.167a11.025,11.025,0,0,1-4.733-3.652,9.564,9.564,0,0,1-1.788-5.636H201.2a4.9,4.9,0,0,0,1.558,3.45,5.552,5.552,0,0,0,3.862,1.269,5.978,5.978,0,0,0,3.938-1.186,3.863,3.863,0,0,0,1.432-3.12,3.59,3.59,0,0,0-.976-2.577,6.836,6.836,0,0,0-2.431-1.6,40.544,40.544,0,0,0-4.011-1.3,43.053,43.053,0,0,1-5.653-2,9.873,9.873,0,0,1-3.734-2.992,8.48,8.48,0,0,1-1.56-5.352,9.512,9.512,0,0,1,1.587-5.479,10.073,10.073,0,0,1,4.45-3.576A16.311,16.311,0,0,1,206.2,52.17a14.292,14.292,0,0,1,8.971,2.664,9.854,9.854,0,0,1,3.812,7.44H211.11a4.043,4.043,0,0,0-1.558-3.021,5.914,5.914,0,0,0-3.862-1.186,5,5,0,0,0-3.35,1.066,3.84,3.84,0,0,0-1.253,3.095,3.184,3.184,0,0,0,.946,2.367,7.183,7.183,0,0,0,2.352,1.522q1.406.585,3.963,1.353a41.832,41.832,0,0,1,5.682,2.029,10.184,10.184,0,0,1,3.788,3.044A8.407,8.407,0,0,1,219.4,77.87a9.966,9.966,0,0,1-1.483,5.276,10.459,10.459,0,0,1-4.349,3.881,14.933,14.933,0,0,1-6.8,1.446,17.065,17.065,0,0,1-6.725-1.305Zm128.3.917V72.559a7.245,7.245,0,0,0-1.688-5.149,5.993,5.993,0,0,0-4.6-1.8,6.152,6.152,0,0,0-4.68,1.8,7.18,7.18,0,0,0-1.7,5.149V88.083H308.5V50.542h7.16V63.479a9.331,9.331,0,0,1,3.682-2.875,12.292,12.292,0,0,1,5.115-1.04,11.577,11.577,0,0,1,5.728,1.4,9.642,9.642,0,0,1,3.921,4.109,14.011,14.011,0,0,1,1.407,6.519V88.073Zm-101.213,0V50.542h7.16V88.084Z" transform="translate(-97.52 4.47)" fill="url(#linear-gradient)"/>
      </g>
      <g id="グループ_69044" data-name="グループ 69044" transform="translate(0.465 -69.382)">
        <g transform="matrix(1, 0, 0, 1, -33, -48.01)" filter="url(#長方形_18018)">
          <rect id="長方形_18018-2" data-name="長方形 18018" width="51" height="52" rx="11" transform="translate(33 48.01)" fill="url(#linear-gradient-2)"/>
        </g>
        <path id="長方形_18019" data-name="長方形 18019" d="M0,0,3.614.034l.363,41.518L.363,41.518Z" transform="translate(38.674 9.862) rotate(45)" fill="#fff"/>
      </g>
    </g>
  </g>
</svg>
