<?xml version="1.0" encoding="UTF-8"?><svg id="_レイヤー_2" xmlns="http://www.w3.org/2000/svg" xmlns:xlink="http://www.w3.org/1999/xlink" viewBox="0 0 335 161"><defs><style>.cls-1{fill:#fff;}.cls-2{fill:url(#_名称未設定グラデーション_4);}.cls-3{fill:url(#_名称未設定グラデーション_2);}</style><linearGradient id="_名称未設定グラデーション_4" x1="-27.78" y1="431.55" x2="-26.7" y2="430.49" gradientTransform="translate(3770.49 15348.48) scale(131.29 -35.43)" gradientUnits="userSpaceOnUse"><stop offset="0" stop-color="#fc3e51"/><stop offset="1" stop-color="#8b2ae1"/></linearGradient><linearGradient id="_名称未設定グラデーション_2" x1="-27.2" y1="436.13" x2="-26.49" y2="435.42" gradientTransform="translate(2054.92 31892.23) scale(73 -73)" gradientUnits="userSpaceOnUse"><stop offset="0" stop-color="#49a4f8"/><stop offset="1" stop-color="#803de4"/></linearGradient></defs><g id="_レイヤー_1-2"><g id="_グループ_68954"><rect id="_長方形_2467" class="cls-1" width="335" height="161" rx="10" ry="10"/><g id="_グループ_68906"><path id="_パス_57689" class="cls-2" d="M217.85,96.5c-1.59-.69-2.99-1.78-4.04-3.15-.97-1.27-1.54-2.8-1.63-4.4h6.67c.13,1.01,.67,1.92,1.49,2.51,.94,.68,2.08,1.03,3.24,.99,1.04,.06,2.07-.2,2.96-.76,.66-.42,1.06-1.15,1.06-1.93,0-.85-.51-1.61-1.3-1.92-1.33-.59-2.72-1.06-4.14-1.4-1.63-.37-3.24-.86-4.8-1.47-1.24-.5-2.34-1.3-3.21-2.32-.95-1.19-1.43-2.69-1.35-4.21,0-1.42,.43-2.81,1.25-3.97,.91-1.26,2.16-2.24,3.59-2.84,1.75-.73,3.63-1.08,5.52-1.04,2.69-.14,5.34,.69,7.47,2.34,1.87,1.58,2.99,3.87,3.07,6.31h-6.34c-.06-.98-.53-1.88-1.3-2.48-.9-.65-1.99-.98-3.1-.92-.97-.06-1.93,.17-2.77,.66-.62,.4-.99,1.1-.97,1.84,0,.88,.52,1.67,1.32,2.01,1.32,.61,2.7,1.08,4.11,1.4,1.59,.38,3.16,.87,4.68,1.47,1.24,.51,2.33,1.31,3.19,2.34,.94,1.19,1.43,2.67,1.39,4.19,.02,1.45-.42,2.88-1.26,4.07-.91,1.26-2.16,2.23-3.59,2.82-1.73,.71-3.59,1.06-5.46,1.01-1.98,.03-3.95-.36-5.76-1.15h0Zm-33.55-.54c-1.85-1.17-3.33-2.84-4.3-4.8-1.09-2.21-1.63-4.65-1.58-7.12-.05-2.44,.5-4.86,1.58-7.04,.96-1.95,2.45-3.59,4.3-4.73,1.83-1.11,3.94-1.68,6.08-1.65,1.78-.04,3.54,.37,5.13,1.18,1.38,.72,2.59,1.74,3.52,2.98v-3.73h6.67v26.2h-6.67v-3.83c-.91,1.28-2.12,2.33-3.52,3.05-1.6,.83-3.38,1.24-5.18,1.21-2.13,.02-4.22-.57-6.03-1.7h0Zm4.38-18.64c-1.07,.63-1.94,1.53-2.53,2.62-.67,1.26-1.01,2.67-.97,4.09-.03,1.44,.3,2.87,.97,4.14,.59,1.12,1.47,2.06,2.55,2.72,1.02,.62,2.19,.95,3.38,.95,1.21,0,2.4-.31,3.45-.92,1.08-.62,1.97-1.54,2.55-2.65,1.26-2.61,1.26-5.66,0-8.28-.59-1.1-1.47-2.02-2.55-2.65-1.05-.61-2.24-.93-3.45-.92-1.19-.01-2.37,.3-3.4,.89h0Zm-48.16,19.06c-1.74-.71-3.26-1.88-4.38-3.4-1.09-1.53-1.67-3.37-1.65-5.25h7.09c.03,1.22,.55,2.38,1.44,3.22,1,.83,2.27,1.26,3.57,1.18,1.31,.08,2.6-.31,3.64-1.1,.87-.71,1.36-1.79,1.32-2.91,.03-.89-.29-1.76-.9-2.41-.63-.65-1.4-1.16-2.25-1.49-1.21-.47-2.45-.87-3.71-1.21-1.78-.5-3.53-1.12-5.23-1.87-1.36-.63-2.55-1.59-3.45-2.79-1.03-1.45-1.53-3.21-1.44-4.99-.04-1.81,.47-3.59,1.47-5.11,1.02-1.49,2.45-2.64,4.11-3.33,1.91-.8,3.98-1.2,6.05-1.16,2.97-.13,5.89,.74,8.3,2.48,2.14,1.68,3.43,4.22,3.52,6.94h-7.28c-.05-1.1-.57-2.13-1.44-2.81-1.02-.78-2.29-1.17-3.57-1.1-1.12-.06-2.22,.29-3.1,.99-.8,.74-1.23,1.8-1.16,2.88-.03,.83,.29,1.62,.88,2.21,.62,.61,1.36,1.09,2.18,1.42,.87,.36,2.09,.78,3.66,1.26,1.79,.5,3.55,1.14,5.25,1.89,1.38,.65,2.58,1.62,3.5,2.84,1.03,1.44,1.55,3.19,1.47,4.96,0,1.73-.47,3.44-1.37,4.92-.97,1.56-2.36,2.82-4.02,3.62-1.96,.94-4.12,1.4-6.29,1.35-2.13,.02-4.25-.4-6.21-1.23Zm118.62,.85v-14.47c.12-1.74-.44-3.46-1.56-4.8-1.11-1.15-2.66-1.76-4.26-1.68-1.62-.08-3.19,.53-4.33,1.68-1.13,1.33-1.69,3.06-1.58,4.8v14.47h-6.62V62.25h6.62v12.06c.89-1.17,2.06-2.09,3.4-2.68,1.49-.66,3.1-.99,4.73-.97,1.85-.04,3.68,.41,5.3,1.3,1.57,.88,2.83,2.22,3.63,3.83,.91,1.89,1.36,3.98,1.3,6.08v15.37h-6.63Zm-93.58,0V62.25h6.62v34.99h-6.62Z"/><g id="_グループ_67319"><rect id="_長方形_18018" class="cls-3" x="69.23" y="54.45" width="52.1" height="52.1" rx="10.91" ry="10.91"/><rect id="_長方形_18019" class="cls-1" x="74.15" y="78.6" width="42.09" height="3.81" transform="translate(-29.04 90.89) rotate(-45)"/></g></g></g></g></svg>