<svg xmlns="http://www.w3.org/2000/svg" xmlns:xlink="http://www.w3.org/1999/xlink" width="335" height="160" viewBox="0 0 335 160">
  <defs>
    <linearGradient id="linear-gradient" x2="1" y2="1" gradientUnits="objectBoundingBox">
      <stop offset="0" stop-color="#49a4f8"/>
      <stop offset="1" stop-color="#803de4"/>
    </linearGradient>
    <linearGradient id="linear-gradient-2" x1="-0.062" y1="-0.061" x2="1.018" y2="1" gradientUnits="objectBoundingBox">
      <stop offset="0" stop-color="#3eb9fc"/>
      <stop offset="1" stop-color="#8b2ae1"/>
    </linearGradient>
  </defs>
  <g id="グループ_68956" data-name="グループ 68956" transform="translate(-140 -3019)">
    <rect id="長方形_2465" data-name="長方形 2465" width="335" height="160" rx="10" transform="translate(140 3019)" fill="#fff"/>
    <g id="グループ_5210" data-name="グループ 5210" transform="translate(181.182 3068.798)">
      <g id="グループ_67150" data-name="グループ 67150" transform="translate(0 0)">
        <g id="グループ_67319" data-name="グループ 67319" transform="translate(1446.735 344.281)">
          <rect id="長方形_18018" data-name="長方形 18018" width="81" height="61" rx="12.774" transform="translate(-1446.917 -344.079)" fill="url(#linear-gradient)"/>
          <path id="長方形_18019" data-name="長方形 18019" d="M18.6,0l5.633-1.174L11.267,61.079,5.633,62.253Z" transform="translate(-1395.481 -345.729) rotate(45)" fill="#fff"/>
        </g>
        <path id="パス_57689" data-name="パス 57689" d="M286.417,78.821a11.546,11.546,0,0,1-4.505-2.6,5.676,5.676,0,0,1-1.818-3.63h7.43a3,3,0,0,0,1.66,2.069,7.274,7.274,0,0,0,3.611.82,7.169,7.169,0,0,0,3.293-.626,1.844,1.844,0,0,0,1.186-1.6,1.783,1.783,0,0,0-1.449-1.581,34.311,34.311,0,0,0-4.609-1.153,49.522,49.522,0,0,1-5.35-1.21,9.7,9.7,0,0,1-3.581-1.913,4.317,4.317,0,0,1-1.5-3.474,4.685,4.685,0,0,1,1.4-3.279,9.472,9.472,0,0,1,4-2.342,19.7,19.7,0,0,1,6.148-.859,15.693,15.693,0,0,1,8.324,1.932,6.684,6.684,0,0,1,3.425,5.211h-7.061a2.7,2.7,0,0,0-1.447-2.049,6.79,6.79,0,0,0-3.453-.761,7.018,7.018,0,0,0-3.083.545,1.679,1.679,0,0,0-1.08,1.522,1.863,1.863,0,0,0,1.475,1.659,28.8,28.8,0,0,0,4.584,1.151,49.274,49.274,0,0,1,5.217,1.211,9.549,9.549,0,0,1,3.557,1.932,4.488,4.488,0,0,1,1.546,3.456,4.769,4.769,0,0,1-1.405,3.355,9.31,9.31,0,0,1-4,2.324,19.919,19.919,0,0,1-6.086.838,20.155,20.155,0,0,1-6.422-.952Zm-37.386-.45a11.609,11.609,0,0,1-4.8-3.962,10.077,10.077,0,0,1-1.765-5.874,9.922,9.922,0,0,1,1.765-5.814,11.391,11.391,0,0,1,4.8-3.9,16.318,16.318,0,0,1,6.773-1.365,15.418,15.418,0,0,1,5.715.976,11.445,11.445,0,0,1,3.927,2.459V57.8h7.43V79.426h-7.43V76.264a10.68,10.68,0,0,1-3.927,2.518,15.536,15.536,0,0,1-5.77,1,15.785,15.785,0,0,1-6.718-1.405Zm4.876-15.379a6.807,6.807,0,0,0-2.821,2.166,5.422,5.422,0,0,0-1.08,3.376,5.589,5.589,0,0,0,1.08,3.421,6.961,6.961,0,0,0,2.845,2.244,9.22,9.22,0,0,0,3.769.781,9.723,9.723,0,0,0,3.847-.761,6.7,6.7,0,0,0,2.845-2.184,6.06,6.06,0,0,0,0-6.832,6.7,6.7,0,0,0-2.845-2.184,9.723,9.723,0,0,0-3.847-.761,9.579,9.579,0,0,0-3.794.736ZM200.239,78.721a11.545,11.545,0,0,1-4.876-2.81,6.181,6.181,0,0,1-1.843-4.333h7.9a3.443,3.443,0,0,0,1.605,2.654,7.069,7.069,0,0,0,3.978.976,7.7,7.7,0,0,0,4.057-.911,2.74,2.74,0,0,0,1.475-2.4,2.413,2.413,0,0,0-1-1.991,7.582,7.582,0,0,0-2.5-1.23q-2.03-.579-4.133-1a55.025,55.025,0,0,1-5.824-1.542,10.207,10.207,0,0,1-3.847-2.3,5.415,5.415,0,0,1-1.607-4.118,6.052,6.052,0,0,1,1.635-4.215,10.386,10.386,0,0,1,4.584-2.752,21.886,21.886,0,0,1,6.743-.956,18.454,18.454,0,0,1,9.248,2.049,7.2,7.2,0,0,1,3.927,5.725h-8.117a2.964,2.964,0,0,0-1.605-2.324,7.606,7.606,0,0,0-3.978-.911,6.39,6.39,0,0,0-3.451.82,2.634,2.634,0,0,0-1.291,2.381,2.173,2.173,0,0,0,.975,1.821,8.01,8.01,0,0,0,2.424,1.171q1.449.45,4.084,1.041a53.405,53.405,0,0,1,5.849,1.561,10.514,10.514,0,0,1,3.9,2.342,5.386,5.386,0,0,1,1.633,4.1,6.3,6.3,0,0,1-1.526,4.059,10.357,10.357,0,0,1-4.481,2.986,19.9,19.9,0,0,1-7.008,1.112,22.876,22.876,0,0,1-6.929-1Zm132.181.705V67.482a4.737,4.737,0,0,0-1.739-3.962,7.417,7.417,0,0,0-4.742-1.386,7.638,7.638,0,0,0-4.821,1.386,4.708,4.708,0,0,0-1.757,3.962V79.426h-7.377V50.542h7.377V60.5a9.738,9.738,0,0,1,3.794-2.212,16.432,16.432,0,0,1,5.269-.8,15.275,15.275,0,0,1,5.9,1.073,8.934,8.934,0,0,1,4.04,3.162,8.559,8.559,0,0,1,1.449,5.016V79.419Zm-104.279,0V50.542h7.377V79.426Z" transform="translate(-87.22 -35.924)" fill="url(#linear-gradient-2)"/>
        <g id="グループ_67319-2" data-name="グループ 67319" transform="translate(1456.735 344.281)">
          <rect id="長方形_18018-2" data-name="長方形 18018" width="61" height="61" rx="12.774" transform="translate(-1446.917 -344.079)" fill="url(#linear-gradient)"/>
          <rect id="長方形_18019-2" data-name="長方形 18019" width="4.46" height="49.284" transform="translate(-1400.667 -332.576) rotate(45)" fill="#fff"/>
        </g>
      </g>
    </g>
  </g>
</svg>
