<svg xmlns="http://www.w3.org/2000/svg" xmlns:xlink="http://www.w3.org/1999/xlink" width="206.014" height="39.724" viewBox="0 0 206.014 39.724">
  <defs>
    <linearGradient id="linear-gradient" x1="-0.062" y1="-0.061" x2="1.018" y2="1" gradientUnits="objectBoundingBox">
      <stop offset="0" stop-color="#3eb9fc"/>
      <stop offset="1" stop-color="#8b2ae1"/>
    </linearGradient>
    <linearGradient id="linear-gradient-2" x1="0" y1="0" x2="1" xlink:href="#linear-gradient"/>
  </defs>
  <g id="グループ_67150" data-name="グループ 67150" transform="translate(-0.465 69.271)">
    <path id="パス_57689" data-name="パス 57689" d="M283.977,76.074a11.475,11.475,0,0,1-4.387-2.349,5,5,0,0,1-1.77-3.277h7.235a2.749,2.749,0,0,0,1.616,1.868,7.542,7.542,0,0,0,3.516.74,7.46,7.46,0,0,0,3.207-.565,1.68,1.68,0,0,0,1.154-1.44c0-.63-.557-1.2-1.411-1.427a35.574,35.574,0,0,0-4.488-1.041,51.472,51.472,0,0,1-5.21-1.092,9.7,9.7,0,0,1-3.487-1.727,3.771,3.771,0,0,1-1.462-3.136,4.083,4.083,0,0,1,1.36-2.96,9.4,9.4,0,0,1,3.9-2.114,20.592,20.592,0,0,1,5.986-.775,16.26,16.26,0,0,1,8.105,1.744,6.022,6.022,0,0,1,3.335,4.7H294.3a2.45,2.45,0,0,0-1.409-1.85,7.044,7.044,0,0,0-3.363-.687,7.31,7.31,0,0,0-3,.492,1.524,1.524,0,0,0-1.052,1.374c-.006.653.561,1.244,1.437,1.5a29.859,29.859,0,0,0,4.464,1.04,51.2,51.2,0,0,1,5.08,1.094,9.538,9.538,0,0,1,3.463,1.744,3.926,3.926,0,0,1,1.505,3.12,4.153,4.153,0,0,1-1.368,3.03,9.246,9.246,0,0,1-3.9,2.1,20.817,20.817,0,0,1-5.926.756,21.052,21.052,0,0,1-6.253-.86Zm-36.4-.406a11.149,11.149,0,0,1-4.669-3.577,8.633,8.633,0,0,1-1.719-5.3,8.5,8.5,0,0,1,1.719-5.25,10.956,10.956,0,0,1,4.669-3.524,16.97,16.97,0,0,1,6.6-1.232,16.075,16.075,0,0,1,5.565.881,11.3,11.3,0,0,1,3.824,2.22V57.1h7.235V76.62h-7.235V73.766a10.522,10.522,0,0,1-3.824,2.273,16.2,16.2,0,0,1-5.618.9,16.4,16.4,0,0,1-6.542-1.269Zm4.748-13.885a6.588,6.588,0,0,0-2.747,1.956,4.657,4.657,0,0,0-1.052,3.048,4.8,4.8,0,0,0,1.052,3.088,6.718,6.718,0,0,0,2.771,2.026,9.584,9.584,0,0,0,3.67.7,10.115,10.115,0,0,0,3.746-.687,6.479,6.479,0,0,0,2.771-1.972,5.145,5.145,0,0,0,0-6.168,6.48,6.48,0,0,0-2.771-1.972,10.116,10.116,0,0,0-3.746-.687,9.968,9.968,0,0,0-3.694.665Zm-52.259,14.2a11.474,11.474,0,0,1-4.748-2.537,5.387,5.387,0,0,1-1.794-3.912h7.7a3.079,3.079,0,0,0,1.563,2.4,7.314,7.314,0,0,0,3.874.881,7.984,7.984,0,0,0,3.951-.822,2.455,2.455,0,0,0,1.437-2.167,2.129,2.129,0,0,0-.975-1.8,7.63,7.63,0,0,0-2.439-1.11q-1.976-.523-4.024-.9a56.989,56.989,0,0,1-5.671-1.392,10.115,10.115,0,0,1-3.746-2.078,4.7,4.7,0,0,1-1.565-3.718,5.248,5.248,0,0,1,1.592-3.806,10.285,10.285,0,0,1,4.464-2.485,22.869,22.869,0,0,1,6.566-.863,19.144,19.144,0,0,1,9,1.85c2.324,1.25,3.724,3.142,3.824,5.169h-7.9a2.683,2.683,0,0,0-1.563-2.1,7.883,7.883,0,0,0-3.874-.822,6.618,6.618,0,0,0-3.361.74,2.337,2.337,0,0,0-1.257,2.15,1.926,1.926,0,0,0,.949,1.645,8.072,8.072,0,0,0,2.36,1.057q1.411.406,3.976.94a55.292,55.292,0,0,1,5.7,1.41,10.418,10.418,0,0,1,3.8,2.114,4.68,4.68,0,0,1,1.591,3.7A5.45,5.45,0,0,1,218,73.19a10.162,10.162,0,0,1-4.363,2.7,20.764,20.764,0,0,1-6.824,1,23.9,23.9,0,0,1-6.747-.907Zm128.71.637V65.837a4.142,4.142,0,0,0-1.693-3.577,7.631,7.631,0,0,0-4.618-1.251,7.863,7.863,0,0,0-4.695,1.251,4.119,4.119,0,0,0-1.71,3.577V76.62h-7.183V50.542h7.183v8.986a9.671,9.671,0,0,1,3.694-2,17.159,17.159,0,0,1,5.131-.722,15.911,15.911,0,0,1,5.747.969,8.626,8.626,0,0,1,3.934,2.855,7.322,7.322,0,0,1,1.411,4.528V76.615Zm-101.54,0V50.542h7.183V76.62Z" transform="translate(-129.499 -113.142)" fill="url(#linear-gradient)"/>
    <g id="グループ_69044" data-name="グループ 69044" transform="translate(0.465 -69.271)">
      <rect id="長方形_18018" data-name="長方形 18018" width="51" height="39.724" rx="11" transform="translate(0 0)" fill="url(#linear-gradient-2)"/>
      <path id="長方形_18019" data-name="長方形 18019" d="M10.883,0,13.8-.662,6.177,32.872l-2.916.662Z" transform="translate(30.979 2.166) rotate(45)" fill="#fff"/>
    </g>
  </g>
</svg>
