<svg id="opencart_logo.08eec942" xmlns="http://www.w3.org/2000/svg" xmlns:xlink="http://www.w3.org/1999/xlink" width="158.182" height="31.472" viewBox="0 0 158.182 31.472">
  <defs>
    <linearGradient id="linear-gradient" x1="0.782" y1="-0.004" x2="0.783" y2="-0.004" gradientUnits="objectBoundingBox">
      <stop offset="0" stop-color="#04b6f0"/>
      <stop offset="1" stop-color="#3ecaf0"/>
    </linearGradient>
  </defs>
  <rect id="長方形_2698" data-name="長方形 2698" width="13.113" height="31.472" transform="translate(123.689)" fill="none"/>
  <g id="グループ_5237" data-name="グループ 5237" transform="translate(0 0.125)">
    <path id="パス_2112" data-name="パス 2112" d="M-691.745,16.729a8.721,8.721,0,0,1-2.113,5.958,7.25,7.25,0,0,1-5.724,2.533,7.242,7.242,0,0,1-5.724-2.533,8.724,8.724,0,0,1-2.118-5.958,8.7,8.7,0,0,1,2.118-5.958,7.325,7.325,0,0,1,5.724-2.506,7.277,7.277,0,0,1,5.724,2.506A8.7,8.7,0,0,1-691.745,16.729Zm-4.66,0a4.584,4.584,0,0,0-.769-2.7,2.761,2.761,0,0,0-2.408-1.241,2.762,2.762,0,0,0-2.408,1.241,4.55,4.55,0,0,0-.775,2.7,4.7,4.7,0,0,0,.775,2.728,2.763,2.763,0,0,0,2.408,1.242,2.762,2.762,0,0,0,2.408-1.242A4.731,4.731,0,0,0-696.4,16.729Zm21.51,0a9.164,9.164,0,0,1-1.912,5.779,6.339,6.339,0,0,1-5.267,2.712,5.826,5.826,0,0,1-3.84-1.308c0,.2.022.685.067,1.459s.066,1.413.066,1.915q0,4.152-2.474,4.149a2.176,2.176,0,0,1-1.667-.713,2.48,2.48,0,0,1-.652-1.731v-18a2.415,2.415,0,0,1,.669-1.7,2.185,2.185,0,0,1,1.656-.712,2.274,2.274,0,0,1,2.174,1.481,4.888,4.888,0,0,1,4-1.788,6.358,6.358,0,0,1,5.273,2.678A9.226,9.226,0,0,1-674.895,16.729Zm-4.66,0a4.587,4.587,0,0,0-.774-2.7,2.763,2.763,0,0,0-2.408-1.241,2.762,2.762,0,0,0-2.408,1.241,4.585,4.585,0,0,0-.769,2.7,4.731,4.731,0,0,0,.769,2.728,2.763,2.763,0,0,0,2.408,1.242,2.764,2.764,0,0,0,2.408-1.242A4.735,4.735,0,0,0-679.555,16.729Zm21.616-.5a1.988,1.988,0,0,1-.552,1.615,2.732,2.732,0,0,1-1.716.445h-8.411a2.252,2.252,0,0,0,1.254,2.054,5.04,5.04,0,0,0,2.475.564,6.729,6.729,0,0,0,2.731-.746,6.947,6.947,0,0,1,2.046-.747,1.816,1.816,0,0,1,1.376.6,2.013,2.013,0,0,1,.563,1.426q0,1.912-2.86,2.979a12.787,12.787,0,0,1-4.442.807,7.678,7.678,0,0,1-5.892-2.416,8.56,8.56,0,0,1-2.252-6.075,8.4,8.4,0,0,1,2.341-5.974,7.622,7.622,0,0,1,5.8-2.489A7,7,0,0,1-660.1,10.62a8.032,8.032,0,0,1,2.162,5.608Zm-4.66-1.17a2.727,2.727,0,0,0-.987-1.944,2.951,2.951,0,0,0-2.023-.873,2.987,2.987,0,0,0-2.057.873,2.6,2.6,0,0,0-.953,1.944Zm20.316,7.411a2.48,2.48,0,0,1-.651,1.732,2.176,2.176,0,0,1-1.667.713q-2.441,0-2.442-3.87c0-.5.034-1.275.1-2.35s.106-1.854.106-2.35q0-4.1-2.653-4.1t-2.648,4.1c0,.5.028,1.281.078,2.35s.084,1.854.084,2.35q0,3.867-2.408,3.87a2.155,2.155,0,0,1-1.661-.713,2.458,2.458,0,0,1-.658-1.732V10.983a2.387,2.387,0,0,1,.658-1.71,2.177,2.177,0,0,1,1.667-.7,2.338,2.338,0,0,1,2.324,1.481q1.129-1.788,3.991-1.788a6.051,6.051,0,0,1,4.2,1.4,5.385,5.385,0,0,1,1.577,4.11v8.7Zm14.62-.495q0,1.578-2.056,2.5a8.289,8.289,0,0,1-3.461.746,7.241,7.241,0,0,1-5.724-2.533,8.724,8.724,0,0,1-2.118-5.958,8.749,8.749,0,0,1,2.163-6,7.191,7.191,0,0,1,5.68-2.461,9.231,9.231,0,0,1,3.49.6,2.673,2.673,0,0,1,2.028,2.505,2.343,2.343,0,0,1-.535,1.52,1.7,1.7,0,0,1-1.371.657,5.46,5.46,0,0,1-1.639-.378,5.342,5.342,0,0,0-1.7-.379,3.106,3.106,0,0,0-2.593,1.186,4.248,4.248,0,0,0-.864,2.757,4.536,4.536,0,0,0,.775,2.7,2.748,2.748,0,0,0,2.413,1.275,6.2,6.2,0,0,0,1.878-.407,6.379,6.379,0,0,1,1.728-.406,1.735,1.735,0,0,1,1.343.657,2.163,2.163,0,0,1,.562,1.431Zm16.939.495a2.478,2.478,0,0,1-.652,1.732,2.185,2.185,0,0,1-1.673.713,2.235,2.235,0,0,1-2.173-1.482,4.886,4.886,0,0,1-4,1.787,6.389,6.389,0,0,1-5.306-2.712,9.306,9.306,0,0,1-1.877-5.779,9.336,9.336,0,0,1,1.877-5.785,6.448,6.448,0,0,1,5.307-2.678,4.888,4.888,0,0,1,4,1.788,2.233,2.233,0,0,1,2.173-1.481,2.187,2.187,0,0,1,1.657.712,2.4,2.4,0,0,1,.668,1.7V22.468Zm-4.66-5.74a4.58,4.58,0,0,0-.769-2.7,2.815,2.815,0,0,0-2.408-1.241,2.763,2.763,0,0,0-2.408,1.241,4.551,4.551,0,0,0-.774,2.7A4.853,4.853,0,0,0-621,19.456,2.833,2.833,0,0,0-618.56,20.7a2.762,2.762,0,0,0,2.408-1.242,4.727,4.727,0,0,0,.769-2.728Zm16.549-6.053a2.049,2.049,0,0,1-1.455,2.054q-1.345.451-2.681.924a3.254,3.254,0,0,0-1.46,3.1v5.718a2.488,2.488,0,0,1-.657,1.732,2.189,2.189,0,0,1-1.673.713,2.168,2.168,0,0,1-1.672-.713,2.456,2.456,0,0,1-.658-1.732V10.983a2.4,2.4,0,0,1,.652-1.71,2.2,2.2,0,0,1,1.673-.7,2.34,2.34,0,0,1,2.324,1.481,4.229,4.229,0,0,1,3.222-1.788,2.292,2.292,0,0,1,1.688.712,2.371,2.371,0,0,1,.7,1.7Zm12.157.212a1.838,1.838,0,0,1-1.214,1.966,9.255,9.255,0,0,1-2.493.211v9.4a2.488,2.488,0,0,1-.656,1.732,2.189,2.189,0,0,1-1.673.713,2.2,2.2,0,0,1-1.662-.713,2.447,2.447,0,0,1-.668-1.732v-9.4a4.594,4.594,0,0,1-2.1-.361,1.894,1.894,0,0,1-.9-1.816,1.821,1.821,0,0,1,.926-1.788,4.482,4.482,0,0,1,2.069-.356V6.751q0-3.516,2.33-3.513c1.549,0,2.329,1.169,2.329,3.513V8.744a9.263,9.263,0,0,1,2.493.211,1.817,1.817,0,0,1,1.214,1.932Zm37.435-2.827c-.013-1.429-2.656-2.078-9.5-2.078-16.058,0-20.132-.685-24.491-5.268,1.834,2.752,2.838,7.913,19.81,7.656,17.708-.273,6.905,4.561,3.762,10.022,5.669-5.054,10.4-8.386,10.419-10.312V8.06Zm-22.565,14.676a2.435,2.435,0,0,1-2.425,2.422,2.425,2.425,0,0,1-2.43-2.422v0a2.439,2.439,0,0,1,2.429-2.426h0a2.425,2.425,0,0,1,2.425,2.428Zm11.058,0a2.435,2.435,0,0,1-2.425,2.422,2.426,2.426,0,0,1-2.429-2.422v0a2.439,2.439,0,0,1,2.428-2.426h0a2.425,2.425,0,0,1,2.425,2.428Z" transform="translate(707.424 -0.714)" fill="url(#linear-gradient)"/>
  </g>
</svg>
