<svg xmlns="http://www.w3.org/2000/svg" width="46.5" height="46.501" viewBox="0 0 46.5 46.501">
  <g id="layer1" transform="translate(-0.529 -280.596)">
    <path id="path18398" d="M23.779,280.6a23.25,23.25,0,1,0,21.005,13.283l-2.308,2.308a2.328,2.328,0,0,1-1.648.686h-.642a17.821,17.821,0,1,1-9.432-9.433V286.8a2.328,2.328,0,0,1,.686-1.648l2.307-2.308A23.138,23.138,0,0,0,23.779,280.6Zm14.7,0a.776.776,0,0,0-.527.228l-5.423,5.424a.775.775,0,0,0-.229.549V291.9L22.07,302.138a2.416,2.416,0,1,0,3.418,3.416l10.232-10.232h5.107a.775.775,0,0,0,.549-.228L46.8,289.67a.775.775,0,0,0-.549-1.321H42.694l.618-.618a2.417,2.417,0,0,0-3.418-3.418l-.616.616v-3.562a.775.775,0,0,0-.795-.772Zm-14.7,10.847a12.44,12.44,0,1,0,11.1,6.912L30.635,302.6a7.01,7.01,0,1,1-5.61-5.61l4.247-4.247a12.3,12.3,0,0,0-5.493-1.3Z" transform="translate(0 0)" fill="#fff"/>
  </g>
</svg>
