<svg xmlns="http://www.w3.org/2000/svg" width="77.498" height="77.502" viewBox="0 0 77.498 77.502">
  <path id="path18398" d="M39.278,280.6a38.748,38.748,0,1,0,35.008,22.137l-3.847,3.847a3.879,3.879,0,0,1-2.747,1.143h-1.07A29.7,29.7,0,1,1,50.9,292v-1.07a3.879,3.879,0,0,1,1.143-2.747l3.845-3.847A38.562,38.562,0,0,0,39.278,280.6Zm24.506,0a1.293,1.293,0,0,0-.878.381l-9.039,9.039a1.291,1.291,0,0,0-.381.916v8.509L36.43,316.5a4.027,4.027,0,1,0,5.7,5.694L59.18,305.139h8.512a1.292,1.292,0,0,0,.916-.381l9.039-9.039a1.292,1.292,0,0,0-.916-2.2H70.8l1.029-1.029a4.028,4.028,0,0,0-5.7-5.7l-1.027,1.027v-5.936a1.292,1.292,0,0,0-1.324-1.287ZM39.278,298.676a20.732,20.732,0,1,0,18.5,11.519L50.7,317.271a11.683,11.683,0,1,1-9.349-9.349l7.079-7.079a20.5,20.5,0,0,0-9.155-2.167Z" transform="translate(-0.529 -280.595)"/>
</svg>
