<svg xmlns="http://www.w3.org/2000/svg" width="196.635" height="39.973" viewBox="0 0 196.635 39.973">
  <g id="save-the-children-logo" transform="translate(-6.287 -3.588)">
    <path id="パス_57685" data-name="パス 57685" d="M104.689,47.669a10.24,10.24,0,0,0-4.187-1.182c-1.182,0-1.939.427-1.939,1.086,0,2,6.727,1.434,6.727,6.048,0,2.54-2.132,4.013-5.079,4.013a8.963,8.963,0,0,1-4.769-1.28V53.5c1.9,1.261,3.063,1.706,4.517,1.706,1.26,0,1.939-.445,1.939-1.221,0-2.172-6.728-1.377-6.728-6.126,0-2.288,1.978-3.8,5.041-3.8a10.806,10.806,0,0,1,4.478,1.028Zm10.193,8.084c-.291,0-.466-.175-.466-.62V51.062c0-1.958-1.531-2.714-3.78-2.714a7.267,7.267,0,0,0-3.876,1.085v2.288a4.878,4.878,0,0,1,3.295-1.493c1.221,0,1.61.659,1.551,1.493-3.74,1.163-5.311,1.59-5.311,3.722a2.385,2.385,0,0,0,2.5,2.191,4.99,4.99,0,0,0,2.946-1.009c.194.718.639,1.009,1.57,1.009a5.863,5.863,0,0,0,2.636-.814V55.249C115.288,55.715,115.075,55.753,114.882,55.753Zm-3.277-.465a2.378,2.378,0,0,1-1.551.678.931.931,0,0,1-.911-.949c0-.892.795-1.28,2.461-1.881Zm3.99-6.766h3l1.9,4.924,1.92-4.924H125.4l-4.11,9.112h-1.57Zm13.081,4.924h6.417c.136-3.257-2.016-5.1-4.614-5.1a4.509,4.509,0,0,0-4.71,4.672c0,2.791,2.035,4.614,5.176,4.614a6.476,6.476,0,0,0,3.994-1.182V54.687a5.248,5.248,0,0,1-3.316,1.28,2.613,2.613,0,0,1-2.946-2.52Zm2-3.431a1.923,1.923,0,0,1,1.939,1.958h-3.878a1.9,1.9,0,0,1,1.939-1.958m17.265.427H144.68v3.683a1.3,1.3,0,0,0,1.377,1.433,3.911,3.911,0,0,0,1.88-.522v2.035a6.362,6.362,0,0,1-2.6.562c-1.861,0-3.47-.853-3.47-3.354V50.442H140.59V49.9l3.742-4.188h.348v2.811h3.257Zm3.912-.6h.039a3.455,3.455,0,0,1,2.831-1.493,3.132,3.132,0,0,1,3.276,3.412v5.7h-2.811v-5.1c0-1.337-.582-1.957-1.454-1.957-.659,0-1.221.406-1.88,1.357v5.7h-2.811V44.239h2.811Zm10.522,3.605h6.417c.135-3.257-2.016-5.1-4.614-5.1a4.509,4.509,0,0,0-4.71,4.672c0,2.791,2.036,4.614,5.175,4.614a6.473,6.473,0,0,0,3.994-1.182V54.687a5.243,5.243,0,0,1-3.315,1.28A2.613,2.613,0,0,1,162.371,53.446Zm2-3.431a1.922,1.922,0,0,1,1.939,1.958h-3.877a1.9,1.9,0,0,1,1.938-1.958m23.488,6.3a10.268,10.268,0,0,1-5.2,1.319c-5.137,0-7.7-3.335-7.7-6.747,0-3.528,2.889-6.823,7.947-6.823a9.321,9.321,0,0,1,4.789,1.163v2.946a9.224,9.224,0,0,0-4.556-1.358c-2.811,0-4.789,1.667-4.789,4.013,0,2.365,1.959,4.052,4.712,4.052,1.725,0,2.889-.543,4.788-1.454Zm4.769-6.474h.039a3.455,3.455,0,0,1,2.831-1.493,3.133,3.133,0,0,1,3.276,3.412v5.7h-2.811v-5.1c0-1.337-.582-1.957-1.454-1.957-.659,0-1.221.406-1.88,1.357v5.7h-2.811V44.239h2.811Zm8.118,7.618h2.811V48.523h-2.811Zm2.946-11.845a1.55,1.55,0,1,1-1.55-1.55,1.555,1.555,0,0,1,1.55,1.55m1.92,11.845h2.811V44.239h-2.811ZM216.6,44.239v4.672a5.2,5.2,0,0,0-2.326-.562,4.3,4.3,0,0,0-4.343,4.633c0,2.675,1.783,4.653,4.187,4.653a3.666,3.666,0,0,0,2.482-.891v.717h2.811V44.239Zm0,10.779a2.359,2.359,0,0,1-1.667.736c-1.318,0-2.152-1.086-2.152-2.714,0-1.783.834-2.811,2.248-2.811a3.043,3.043,0,0,1,1.571.524Zm7.614-3.936h.039c.833-1.861,1.764-2.733,2.849-2.733a3.055,3.055,0,0,1,1.861.813l-.776,2.482a3.233,3.233,0,0,0-1.667-.659c-1.027,0-1.686.969-2.306,2.617v3.858H221.4V48.522h2.811Zm7.871,2.365H238.5c.135-3.257-2.016-5.1-4.614-5.1a4.509,4.509,0,0,0-4.71,4.672c0,2.791,2.035,4.614,5.176,4.614a6.47,6.47,0,0,0,3.992-1.182V54.687a5.242,5.242,0,0,1-3.314,1.28,2.613,2.613,0,0,1-2.946-2.52Zm2-3.431a1.922,1.922,0,0,1,1.938,1.958h-3.876a1.9,1.9,0,0,1,1.939-1.958m8.661-.214a3.6,3.6,0,0,1,2.908-1.453,3.128,3.128,0,0,1,3.257,3.431v5.68H246.1V52.011c0-1.26-.6-1.783-1.395-1.783-.7,0-1.222.368-1.959,1.473v5.758h-2.811V48.522h2.811Z" transform="translate(-45.986 -20.941)"/>
    <path id="パス_57686" data-name="パス 57686" d="M41.828,14.489c1.782-1.833,2.573-2.681,2.449-3.183a1.685,1.685,0,0,0-1.018-.986,2.6,2.6,0,0,0-1.893-.223,6.415,6.415,0,0,0-1,.912l-.562.551h0q-.462-.542-.964-1.048a17.761,17.761,0,0,0-8.65-4.759,5.447,5.447,0,0,0-4.684-2.145A5.274,5.274,0,0,0,21.75,5.791,19.925,19.925,0,0,0,12.5,10.8v0a4.115,4.115,0,0,0-2.506.286,1.256,1.256,0,0,0-.78.761c-.058.228.012.6.865,1.716v0A19.632,19.632,0,0,0,6.309,26.007,17.932,17.932,0,0,0,11.5,37.85,17.677,17.677,0,0,0,15.2,40.681a21.863,21.863,0,0,0,20.378.678l.012,0a1.108,1.108,0,0,0,.533-1.426l-.064-.176c-.865-2.364-3.5-9.56-1.328-15.811.91-2.616,3.2-5.311,5.158-7.415h0a17.436,17.436,0,0,1,2.075,10.227A15.93,15.93,0,0,1,38.18,35.51h0a.373.373,0,0,0-.1.258.637.637,0,0,0,.019.121l.167.473a.378.378,0,0,0,.629.124H38.9a19.176,19.176,0,0,0,2.938-22h0ZM18.2,28a36.1,36.1,0,0,0-1.192,10.59v0a18.047,18.047,0,0,1-3.514-2.729,17.726,17.726,0,0,1-5.11-10.591,16.431,16.431,0,0,1,2.5-10.7h0c.636.761,1.408,1.642,2.216,2.561a55.111,55.111,0,0,1,5.278,6.581c.611,1.028.314,2.258-.179,4.294ZM37.748,13.471c-4.183,3.666-8.02,5.544-11.394,5.567a13.7,13.7,0,0,1-7.974-2.847,31.328,31.328,0,0,1-4.908-4.477l-.1-.11h0a15.989,15.989,0,0,1,7.367-3.9v0h0s0,0,0,0a8.036,8.036,0,0,0-.391,3.324,7.561,7.561,0,0,0,2.542,5.139,5.07,5.07,0,0,0,7.379-.646,7.553,7.553,0,0,0,1.611-5.5A8.343,8.343,0,0,0,31.7,8.9h0a17.85,17.85,0,0,1,5.146,3.6q.467.469.9.97" transform="translate(0)" fill="#ed1b2d"/>
  </g>
</svg>
