<svg xmlns="http://www.w3.org/2000/svg" xmlns:xlink="http://www.w3.org/1999/xlink" width="205.218" height="51.83" viewBox="0 0 205.218 51.83">
  <defs>
    <linearGradient id="linear-gradient" x1="-0.062" y1="-0.061" x2="1.018" y2="1" gradientUnits="objectBoundingBox">
      <stop offset="0" stop-color="#3eb9fc"/>
      <stop offset="1" stop-color="#8b2ae1"/>
    </linearGradient>
    <linearGradient id="linear-gradient-2" x1="0" y1="0" x2="1" xlink:href="#linear-gradient"/>
  </defs>
  <g id="グループ_67150" data-name="グループ 67150" transform="translate(-0.897 70.414)">
    <path id="パス_57689" data-name="パス 57689" d="M283.686,87.6a11.038,11.038,0,0,1-4.373-3.41,8.623,8.623,0,0,1-1.764-4.756h7.211a3.931,3.931,0,0,0,1.611,2.711,5.614,5.614,0,0,0,3.505,1.074,5.433,5.433,0,0,0,3.2-.82,2.475,2.475,0,0,0,1.151-2.09,2.216,2.216,0,0,0-1.406-2.071,26.5,26.5,0,0,0-4.473-1.51,37.784,37.784,0,0,1-5.193-1.585,9.008,9.008,0,0,1-3.476-2.506,6.722,6.722,0,0,1-1.458-4.552,7.347,7.347,0,0,1,1.355-4.3,9.105,9.105,0,0,1,3.887-3.069,14.573,14.573,0,0,1,5.967-1.125,12.162,12.162,0,0,1,8.079,2.532,9.377,9.377,0,0,1,3.324,6.828h-6.853a3.7,3.7,0,0,0-1.4-2.685,5.227,5.227,0,0,0-3.352-1,5.285,5.285,0,0,0-2.992.714,2.286,2.286,0,0,0-1.049,1.995,2.343,2.343,0,0,0,1.432,2.174,22.263,22.263,0,0,0,4.45,1.509,37.716,37.716,0,0,1,5.063,1.587,8.921,8.921,0,0,1,3.452,2.532,6.952,6.952,0,0,1,1.5,4.528,7.5,7.5,0,0,1-1.364,4.4,8.924,8.924,0,0,1-3.887,3.045,14.718,14.718,0,0,1-5.907,1.1,14.953,14.953,0,0,1-6.233-1.248Zm-36.287-.59a12.882,12.882,0,0,1-4.654-5.191,16.68,16.68,0,0,1-1.713-7.7,16.4,16.4,0,0,1,1.713-7.619,12.559,12.559,0,0,1,4.654-5.114,12.4,12.4,0,0,1,6.574-1.788,11.552,11.552,0,0,1,5.548,1.279,11.281,11.281,0,0,1,3.812,3.222v-4.04h7.211V88.389h-7.211V84.246a10.632,10.632,0,0,1-3.812,3.3,11.65,11.65,0,0,1-5.6,1.3,12.044,12.044,0,0,1-6.521-1.841Zm4.733-20.151a7.318,7.318,0,0,0-2.738,2.839,8.9,8.9,0,0,0-1.048,4.424,9.192,9.192,0,0,0,1.048,4.482,7.569,7.569,0,0,0,2.762,2.941,7.024,7.024,0,0,0,3.659,1.023,7.374,7.374,0,0,0,3.734-1,7.2,7.2,0,0,0,2.762-2.862,10.3,10.3,0,0,0,0-8.952,7.2,7.2,0,0,0-2.762-2.862,7.374,7.374,0,0,0-3.734-1,7.253,7.253,0,0,0-3.682.965Zm-52.091,20.61a11.037,11.037,0,0,1-4.733-3.682,9.7,9.7,0,0,1-1.788-5.677h7.672a4.955,4.955,0,0,0,1.558,3.478,5.524,5.524,0,0,0,3.861,1.279,5.945,5.945,0,0,0,3.938-1.193,3.908,3.908,0,0,0,1.432-3.145,3.636,3.636,0,0,0-.972-2.608,6.832,6.832,0,0,0-2.431-1.611,40.308,40.308,0,0,0-4.011-1.309,42.824,42.824,0,0,1-5.653-2.02,9.887,9.887,0,0,1-3.734-3.016,8.6,8.6,0,0,1-1.56-5.4,9.645,9.645,0,0,1,1.587-5.524,10.089,10.089,0,0,1,4.449-3.606A16.2,16.2,0,0,1,206.2,52.18a14.21,14.21,0,0,1,8.976,2.685,9.96,9.96,0,0,1,3.812,7.5h-7.878a4.091,4.091,0,0,0-1.558-3.045,5.883,5.883,0,0,0-3.861-1.193,4.968,4.968,0,0,0-3.35,1.074,3.882,3.882,0,0,0-1.253,3.12,3.224,3.224,0,0,0,.946,2.387,7.176,7.176,0,0,0,2.353,1.534q1.407.59,3.964,1.364a41.615,41.615,0,0,1,5.677,2.046,10.2,10.2,0,0,1,3.785,3.069,8.524,8.524,0,0,1,1.585,5.37,10.107,10.107,0,0,1-1.482,5.319,10.488,10.488,0,0,1-4.349,3.913,14.832,14.832,0,0,1-6.8,1.458A16.943,16.943,0,0,1,200.041,87.465Zm128.3.924V72.739a7.343,7.343,0,0,0-1.688-5.191,5.967,5.967,0,0,0-4.6-1.816,6.125,6.125,0,0,0-4.68,1.816,7.281,7.281,0,0,0-1.7,5.191v15.65H308.5V50.542h7.16V63.584a9.343,9.343,0,0,1,3.682-2.9,12.206,12.206,0,0,1,5.115-1.048,11.5,11.5,0,0,1,5.728,1.406,9.686,9.686,0,0,1,3.921,4.143,14.222,14.222,0,0,1,1.406,6.572V88.38Zm-101.213,0V50.542h7.16V88.389Z" transform="translate(-129.404 -114.196)" fill="url(#linear-gradient)"/>
    <g id="グループ_69040" data-name="グループ 69040" transform="translate(-138.791 -1391.982)">
      <rect id="長方形_18018" data-name="長方形 18018" width="50.7" height="51.83" rx="11" transform="translate(139.688 1321.568)" fill="url(#linear-gradient-2)"/>
      <path id="長方形_18019" data-name="長方形 18019" d="M0,0,3.652.041,4.1,40.4.452,40.355Z" transform="translate(177.939 1331.75) rotate(45)" fill="#fff"/>
    </g>
  </g>
</svg>
