<svg xmlns="http://www.w3.org/2000/svg" xmlns:xlink="http://www.w3.org/1999/xlink" width="831.751" height="103.823" viewBox="0 0 831.751 103.823">
  <defs>
    <linearGradient id="linear-gradient" x1="-0.062" y1="-0.061" x2="1.018" y2="1" gradientUnits="objectBoundingBox">
      <stop offset="0" stop-color="#3eb9fc"/>
      <stop offset="1" stop-color="#8b2ae1"/>
    </linearGradient>
    <linearGradient id="linear-gradient-2" x2="1" y2="1" gradientUnits="objectBoundingBox">
      <stop offset="0" stop-color="#49a4f8"/>
      <stop offset="1" stop-color="#803de4"/>
    </linearGradient>
  </defs>
  <g id="グループ_67150" data-name="グループ 67150" transform="translate(-4.569 -92.361)">
    <path id="パス_57689" data-name="パス 57689" d="M612.368,143.815l10.942-25.694L603.057,67.85h14.323l13.046,36.027L643.653,67.85h13.594l-31.289,75.974Zm161.8-26.859a23.056,23.056,0,0,1-9.033-9.357,29.138,29.138,0,0,1-3.241-13.964,29.675,29.675,0,0,1,3.2-14.057,22.529,22.529,0,0,1,8.941-9.31,28.206,28.206,0,0,1,26.153-.093,22.066,22.066,0,0,1,8.85,9,27.623,27.623,0,0,1,3.147,13.344,31.321,31.321,0,0,1-.365,5.027H774.852a12.922,12.922,0,0,0,3.832,8.751,11.672,11.672,0,0,0,8.3,3.167,10.408,10.408,0,0,0,10.126-6.234h13.777a23.5,23.5,0,0,1-8.391,12.244,24.173,24.173,0,0,1-15.236,4.791,25.936,25.936,0,0,1-13.1-3.3Zm4.744-36.307a12.989,12.989,0,0,0-3.953,8.157h23.985a10.446,10.446,0,0,0-3.558-8.068,12.455,12.455,0,0,0-8.484-3.03,11.458,11.458,0,0,0-7.994,2.955Zm-226.527,36.26a23.3,23.3,0,0,1-8.3-9.448,30.881,30.881,0,0,1-3.056-14.011,30.366,30.366,0,0,1,3.056-13.876,22.7,22.7,0,0,1,8.3-9.31A21.792,21.792,0,0,1,564.109,67a20.117,20.117,0,0,1,16.7,8.2V67.857h12.863v51.569H580.807v-7.537a19.085,19.085,0,0,1-6.8,6,20.445,20.445,0,0,1-9.99,2.375,21.167,21.167,0,0,1-11.634-3.351Zm8.45-36.677a13.2,13.2,0,0,0-4.9,5.169,16.465,16.465,0,0,0-1.87,8.052,17.006,17.006,0,0,0,1.866,8.157,13.671,13.671,0,0,0,4.927,5.36,12.343,12.343,0,0,0,6.525,1.864,13.018,13.018,0,0,0,11.586-7.026,19.092,19.092,0,0,0,0-16.295,13.018,13.018,0,0,0-11.586-7.026,12.735,12.735,0,0,0-6.568,1.757ZM354.369,117.986a19.751,19.751,0,0,1-7.8-6.206,15.89,15.89,0,0,1-3.147-8.658h12.863a7.182,7.182,0,0,0,2.873,4.934,9.876,9.876,0,0,0,6.253,1.955,9.543,9.543,0,0,0,5.71-1.492,4.527,4.527,0,0,0,2.056-3.8,4.034,4.034,0,0,0-2.512-3.771,46.627,46.627,0,0,0-7.98-2.75,66.409,66.409,0,0,1-9.263-2.885,16.084,16.084,0,0,1-6.2-4.561,12.4,12.4,0,0,1-2.6-8.285,13.561,13.561,0,0,1,2.419-7.819,16.3,16.3,0,0,1,6.934-5.593A25.541,25.541,0,0,1,364.617,67a21.4,21.4,0,0,1,14.411,4.607,17.2,17.2,0,0,1,5.938,12.428H372.741a6.785,6.785,0,0,0-2.512-4.894,11.133,11.133,0,0,0-11.317-.515,4.186,4.186,0,0,0-1.871,3.631,4.268,4.268,0,0,0,2.556,3.962,39.172,39.172,0,0,0,7.937,2.745,66.29,66.29,0,0,1,9.033,2.89,15.935,15.935,0,0,1,6.167,4.607,12.825,12.825,0,0,1,2.677,8.241,13.847,13.847,0,0,1-2.432,8,15.973,15.973,0,0,1-6.934,5.542,25.8,25.8,0,0,1-10.538,2,26.211,26.211,0,0,1-11.118-2.272Zm-64.737-1.072a23.293,23.293,0,0,1-8.3-9.448,30.88,30.88,0,0,1-3.056-14.011,30.363,30.363,0,0,1,3.058-13.88,22.7,22.7,0,0,1,8.3-9.3,21.792,21.792,0,0,1,11.726-3.263,20.116,20.116,0,0,1,16.7,8.2V67.86h12.863v51.566H318.053v-7.537a19.073,19.073,0,0,1-6.8,6,20.445,20.445,0,0,1-9.99,2.375,21.167,21.167,0,0,1-11.632-3.351Zm8.45-36.677A13.2,13.2,0,0,0,293.2,85.4a16.466,16.466,0,0,0-1.871,8.052,17.008,17.008,0,0,0,1.871,8.157,13.668,13.668,0,0,0,4.926,5.36,12.342,12.342,0,0,0,6.525,1.864,13.019,13.019,0,0,0,11.586-7.026,19.091,19.091,0,0,0,0-16.295,13.019,13.019,0,0,0-11.586-7.026,12.736,12.736,0,0,0-6.569,1.757Zm-92.918,37.521a19.748,19.748,0,0,1-8.45-6.7,17.9,17.9,0,0,1-3.2-10.333H207.2a9.1,9.1,0,0,0,2.779,6.33,9.726,9.726,0,0,0,6.888,2.33,10.457,10.457,0,0,0,7.025-2.172,7.173,7.173,0,0,0,2.553-5.726,6.7,6.7,0,0,0-1.734-4.747,12.173,12.173,0,0,0-4.339-2.932,70.9,70.9,0,0,0-7.155-2.384,75.39,75.39,0,0,1-10.083-3.678,17.712,17.712,0,0,1-6.66-5.488,15.883,15.883,0,0,1-2.768-9.835,17.821,17.821,0,0,1,2.832-10.054,18.074,18.074,0,0,1,7.937-6.563,28.385,28.385,0,0,1,11.675-2.282,25,25,0,0,1,16.01,4.894,18.253,18.253,0,0,1,6.8,13.654H224.906a7.508,7.508,0,0,0-2.779-5.542,10.362,10.362,0,0,0-6.888-2.172,8.744,8.744,0,0,0-5.975,1.955,7.141,7.141,0,0,0-2.236,5.679,5.932,5.932,0,0,0,1.688,4.344,12.781,12.781,0,0,0,4.2,2.8q2.512,1.074,7.08,2.482a73.265,73.265,0,0,1,10.127,3.729,18.274,18.274,0,0,1,6.751,5.593,15.74,15.74,0,0,1,2.828,9.774,18.542,18.542,0,0,1-10.408,16.8,26.012,26.012,0,0,1-12.134,2.652,29.7,29.7,0,0,1-12-2.4Zm700.245,1.676q-16.152,0-16.147-16.013V78.557h-6.023V67.85h6.023V55.105h12.863V67.86h11.312V78.566H902.125V103.5a4.989,4.989,0,0,0,1.217,3.771,5.955,5.955,0,0,0,4.148,1.165h5.938v10.986Zm-45.8,0V90.938a13.543,13.543,0,0,0-3.01-9.448,10.531,10.531,0,0,0-8.222-3.3,10.809,10.809,0,0,0-8.348,3.3,13.427,13.427,0,0,0-3.042,9.448v28.488H824.214V67.857h12.772V74.28A17.706,17.706,0,0,1,843.508,69a19.865,19.865,0,0,1,8.713-1.909,19.287,19.287,0,0,1,14.6,5.826,22.564,22.564,0,0,1,5.566,16.246v30.247Zm-122.068,0V90.938a13.041,13.041,0,0,0-3.01-9.259,10.7,10.7,0,0,0-8.222-3.211,10.842,10.842,0,0,0-8.268,3.214A12.92,12.92,0,0,0,715,90.946v28.481H702.228V90.943a13.044,13.044,0,0,0-3.01-9.259A10.7,10.7,0,0,0,691,78.473a10.97,10.97,0,0,0-8.348,3.211,12.929,12.929,0,0,0-3.042,9.259v28.483H666.834V67.857h12.772v6.236a17.042,17.042,0,0,1,6.338-5.127,19.431,19.431,0,0,1,8.53-1.864,21.6,21.6,0,0,1,10.584,2.563,17.765,17.765,0,0,1,7.208,7.3,18.467,18.467,0,0,1,7.162-7.164,21.557,21.557,0,0,1,25.18,3.1,22.229,22.229,0,0,1,5.71,16.243v30.261Zm-251.43,0V54.446h23.44a27.852,27.852,0,0,1,12.589,2.605,17.911,17.911,0,0,1,7.8,7.169,21.4,21.4,0,0,1,.183,20.107,17.914,17.914,0,0,1-7.571,7.355,27.063,27.063,0,0,1-13,2.8H498.874v24.948Zm12.772-35.467h10.127a10.92,10.92,0,0,0,7.845-2.468,9.194,9.194,0,0,0,2.556-6.936q0-9.494-10.4-9.494H498.881Zm-64.87,35.461V90.943A13.545,13.545,0,0,0,431,81.5a10.531,10.531,0,0,0-8.222-3.3,10.809,10.809,0,0,0-8.348,3.3,13.43,13.43,0,0,0-3.042,9.448v28.483H398.617V50.542h12.772V74.28A16.73,16.73,0,0,1,417.958,69a21.4,21.4,0,0,1,9.124-1.909A20.192,20.192,0,0,1,437.3,69.659a17.488,17.488,0,0,1,7,7.541,26.335,26.335,0,0,1,2.513,11.962v30.252Zm-180.545,0V50.542h12.772v68.884Z" transform="translate(-77.116 52.36)" fill="url(#linear-gradient)"/>
    <g id="グループ_67319" data-name="グループ 67319" transform="translate(4.569 92.361)">
      <rect id="長方形_18018" data-name="長方形 18018" width="92.304" height="92.304" rx="12.798" transform="translate(0 0)" fill="url(#linear-gradient-2)"/>
      <rect id="長方形_18019" data-name="長方形 18019" width="6.748" height="74.575" transform="translate(69.984 17.407) rotate(45)" fill="#fff"/>
    </g>
  </g>
</svg>
