<svg xmlns="http://www.w3.org/2000/svg" xmlns:xlink="http://www.w3.org/1999/xlink" width="308.203" height="99" viewBox="0 0 308.203 99">
  <defs>
    <linearGradient id="linear-gradient" x1="-0.062" y1="-0.061" x2="1.018" y2="1" gradientUnits="objectBoundingBox">
      <stop offset="0" stop-color="#3eb9fc"/>
      <stop offset="1" stop-color="#8b2ae1"/>
    </linearGradient>
    <linearGradient id="linear-gradient-2" x2="1" y2="1" gradientUnits="objectBoundingBox">
      <stop offset="0" stop-color="#49a4f8"/>
      <stop offset="1" stop-color="#803de4"/>
    </linearGradient>
  </defs>
  <g id="グループ_67150" data-name="グループ 67150" transform="translate(0.711 0.116)">
    <path id="パス_57689" data-name="パス 57689" d="M306.7,97.054a13.855,13.855,0,0,1-5.489-4.28A10.823,10.823,0,0,1,299,86.8h9.052a4.935,4.935,0,0,0,2.022,3.4,7.047,7.047,0,0,0,4.4,1.348,6.82,6.82,0,0,0,4.012-1.029,3.107,3.107,0,0,0,1.444-2.624,2.782,2.782,0,0,0-1.765-2.6,33.268,33.268,0,0,0-5.615-1.9,47.427,47.427,0,0,1-6.518-1.99,11.307,11.307,0,0,1-4.363-3.146,8.438,8.438,0,0,1-1.83-5.714,9.222,9.222,0,0,1,1.7-5.393,11.429,11.429,0,0,1,4.879-3.852A18.292,18.292,0,0,1,313.9,61.9a15.266,15.266,0,0,1,10.141,3.178,11.77,11.77,0,0,1,4.173,8.571h-8.6a4.65,4.65,0,0,0-1.763-3.37,6.562,6.562,0,0,0-4.207-1.252,6.634,6.634,0,0,0-3.756.9,2.87,2.87,0,0,0-1.316,2.5,2.94,2.94,0,0,0,1.8,2.728,27.947,27.947,0,0,0,5.585,1.894,47.332,47.332,0,0,1,6.356,1.992,11.2,11.2,0,0,1,4.333,3.178,8.727,8.727,0,0,1,1.883,5.684,9.416,9.416,0,0,1-1.712,5.519,11.2,11.2,0,0,1-4.879,3.822,18.476,18.476,0,0,1-7.415,1.378,18.769,18.769,0,0,1-7.824-1.566Zm-45.549-.74a16.17,16.17,0,0,1-5.842-6.516,20.938,20.938,0,0,1-2.151-9.662,20.591,20.591,0,0,1,2.151-9.563,15.765,15.765,0,0,1,5.842-6.42,15.57,15.57,0,0,1,8.252-2.245,14.5,14.5,0,0,1,6.963,1.6,14.16,14.16,0,0,1,4.785,4.045V62.485H290.2V98.049h-9.052v-5.2a13.346,13.346,0,0,1-4.785,4.141,14.622,14.622,0,0,1-7.03,1.637,15.119,15.119,0,0,1-8.185-2.311Zm5.94-25.294a9.184,9.184,0,0,0-3.437,3.563,11.17,11.17,0,0,0-1.316,5.553,11.537,11.537,0,0,0,1.316,5.626,9.5,9.5,0,0,0,3.467,3.691,8.817,8.817,0,0,0,4.592,1.284,9.255,9.255,0,0,0,4.686-1.252,9.034,9.034,0,0,0,3.467-3.593,12.927,12.927,0,0,0,0-11.237,9.035,9.035,0,0,0-3.467-3.593,9.255,9.255,0,0,0-4.686-1.252,9.1,9.1,0,0,0-4.622,1.211Zm-65.386,25.87a13.854,13.854,0,0,1-5.94-4.622,12.17,12.17,0,0,1-2.245-7.126h9.63a6.219,6.219,0,0,0,1.956,4.366,6.933,6.933,0,0,0,4.847,1.6,7.462,7.462,0,0,0,4.943-1.5,4.9,4.9,0,0,0,1.8-3.948,4.565,4.565,0,0,0-1.22-3.274,8.577,8.577,0,0,0-3.052-2.022,50.608,50.608,0,0,0-5.035-1.643,53.751,53.751,0,0,1-7.1-2.536A12.412,12.412,0,0,1,195.6,72.4a10.794,10.794,0,0,1-1.958-6.773,12.107,12.107,0,0,1,1.992-6.933,12.664,12.664,0,0,1,5.585-4.526,20.329,20.329,0,0,1,8.215-1.573,17.836,17.836,0,0,1,11.267,3.37,12.5,12.5,0,0,1,4.785,9.416H215.6a5.136,5.136,0,0,0-1.956-3.822,7.385,7.385,0,0,0-4.847-1.5,6.236,6.236,0,0,0-4.205,1.348,4.873,4.873,0,0,0-1.573,3.916,4.047,4.047,0,0,0,1.188,3,9.009,9.009,0,0,0,2.953,1.926q1.765.74,4.975,1.712a52.232,52.232,0,0,1,7.126,2.568,12.8,12.8,0,0,1,4.751,3.852A10.7,10.7,0,0,1,226,85.123a12.688,12.688,0,0,1-1.86,6.677,13.165,13.165,0,0,1-5.459,4.911,18.617,18.617,0,0,1-8.538,1.83,21.267,21.267,0,0,1-8.442-1.652Zm161.041,1.16V78.4a9.217,9.217,0,0,0-2.119-6.516,7.49,7.49,0,0,0-5.778-2.279,7.689,7.689,0,0,0-5.874,2.279,9.139,9.139,0,0,0-2.14,6.516V98.049h-8.988V50.542h8.988V66.913a11.727,11.727,0,0,1,4.622-3.638,15.321,15.321,0,0,1,6.42-1.316,14.438,14.438,0,0,1,7.19,1.765,12.159,12.159,0,0,1,4.922,5.2,17.853,17.853,0,0,1,1.765,8.249V98.038Zm-127.046,0V50.542h8.988V98.049Z" transform="translate(-64.271 -26.775)" fill="url(#linear-gradient)"/>
    <g id="グループ_67319" data-name="グループ 67319" transform="translate(2347.564 558.308)">
      <rect id="長方形_18018" data-name="長方形 18018" width="99" height="99" rx="20.732" transform="translate(-2348.275 -558.424)" fill="url(#linear-gradient-2)"/>
      <rect id="長方形_18019" data-name="長方形 18019" width="7.238" height="79.985" transform="translate(-2273.215 -539.754) rotate(45)" fill="#fff"/>
    </g>
  </g>
</svg>
