<svg xmlns="http://www.w3.org/2000/svg" xmlns:xlink="http://www.w3.org/1999/xlink" width="314.236" height="80" viewBox="0 0 314.236 80">
  <defs>
    <linearGradient id="linear-gradient" x1="-0.062" y1="-0.061" x2="1.018" y2="1" gradientUnits="objectBoundingBox">
      <stop offset="0" stop-color="#3eb9fc"/>
      <stop offset="1" stop-color="#8b2ae1"/>
    </linearGradient>
    <linearGradient id="linear-gradient-2" x1="0" y1="0" x2="1" xlink:href="#linear-gradient"/>
  </defs>
  <g id="グループ_67150" data-name="グループ 67150" transform="translate(-0.897 70.705)">
    <path id="パス_57689" data-name="パス 57689" d="M331.733,107.347a16.92,16.92,0,0,1-6.7-5.227,13.218,13.218,0,0,1-2.7-7.29h11.054a6.025,6.025,0,0,0,2.469,4.156,8.605,8.605,0,0,0,5.373,1.646,8.328,8.328,0,0,0,4.905-1.257,3.794,3.794,0,0,0,1.764-3.2A3.4,3.4,0,0,0,345.736,93a40.62,40.62,0,0,0-6.856-2.315,57.918,57.918,0,0,1-7.96-2.43,13.808,13.808,0,0,1-5.328-3.841,10.3,10.3,0,0,1-2.235-6.978,11.262,11.262,0,0,1,2.077-6.591,13.957,13.957,0,0,1,5.958-4.7,22.338,22.338,0,0,1,9.147-1.725,18.643,18.643,0,0,1,12.384,3.881,14.374,14.374,0,0,1,5.1,10.466h-10.5a5.671,5.671,0,0,0-2.146-4.116,8.012,8.012,0,0,0-5.138-1.533,8.1,8.1,0,0,0-4.586,1.094,3.5,3.5,0,0,0-1.608,3.058,3.592,3.592,0,0,0,2.2,3.332,34.126,34.126,0,0,0,6.821,2.313,57.815,57.815,0,0,1,7.761,2.433,13.674,13.674,0,0,1,5.292,3.881,10.657,10.657,0,0,1,2.3,6.941,11.5,11.5,0,0,1-2.091,6.745,13.68,13.68,0,0,1-5.958,4.668,22.561,22.561,0,0,1-9.055,1.686,22.922,22.922,0,0,1-9.554-1.913Zm-55.623-.9a19.747,19.747,0,0,1-7.134-7.957,25.569,25.569,0,0,1-2.626-11.8A25.139,25.139,0,0,1,268.976,75a19.251,19.251,0,0,1,7.134-7.839,19.007,19.007,0,0,1,10.077-2.741,17.708,17.708,0,0,1,8.5,1.961,17.292,17.292,0,0,1,5.843,4.939V65.13h11.054v43.426H300.534v-6.351a16.3,16.3,0,0,1-5.843,5.058,17.858,17.858,0,0,1-8.584,1.993,18.462,18.462,0,0,1-10-2.822Zm7.255-30.889a11.217,11.217,0,0,0-4.2,4.352,13.643,13.643,0,0,0-1.606,6.781,14.09,14.09,0,0,0,1.607,6.87,11.6,11.6,0,0,0,4.234,4.508,10.767,10.767,0,0,0,5.609,1.568,11.3,11.3,0,0,0,5.724-1.533,11.037,11.037,0,0,0,4.234-4.387,15.789,15.789,0,0,0,0-13.722,11.037,11.037,0,0,0-4.234-4.387,11.3,11.3,0,0,0-5.724-1.533,11.118,11.118,0,0,0-5.644,1.479Zm-79.849,31.592a16.918,16.918,0,0,1-7.255-5.644,14.869,14.869,0,0,1-2.741-8.7h11.76a7.6,7.6,0,0,0,2.388,5.331,8.468,8.468,0,0,0,5.918,1.961,9.113,9.113,0,0,0,6.036-1.829,5.99,5.99,0,0,0,2.2-4.821,5.573,5.573,0,0,0-1.49-4,10.473,10.473,0,0,0-3.726-2.469,61.79,61.79,0,0,0-6.148-2.007,65.643,65.643,0,0,1-8.665-3.1,15.155,15.155,0,0,1-5.724-4.623,13.183,13.183,0,0,1-2.391-8.278,14.785,14.785,0,0,1,2.433-8.468,15.465,15.465,0,0,1,6.82-5.528,24.833,24.833,0,0,1,10.031-1.924,21.782,21.782,0,0,1,13.759,4.116,15.268,15.268,0,0,1,5.843,11.5H220.483A6.271,6.271,0,0,0,218.1,64a9.018,9.018,0,0,0-5.918-1.829,7.615,7.615,0,0,0-5.135,1.646,5.951,5.951,0,0,0-1.921,4.783,4.942,4.942,0,0,0,1.45,3.659,11,11,0,0,0,3.607,2.351q2.157.9,6.076,2.091a63.789,63.789,0,0,1,8.7,3.136,15.635,15.635,0,0,1,5.8,4.7,13.066,13.066,0,0,1,2.43,8.232,15.493,15.493,0,0,1-2.272,8.153,16.077,16.077,0,0,1-6.666,6,22.736,22.736,0,0,1-10.423,2.235,25.972,25.972,0,0,1-10.31-2.017Zm196.667,1.416v-24A11.256,11.256,0,0,0,397.6,76.61a9.147,9.147,0,0,0-7.051-2.784,9.389,9.389,0,0,0-7.174,2.784,11.161,11.161,0,0,0-2.606,7.957v23.989h-11V50.542h10.975V70.534a14.321,14.321,0,0,1,5.644-4.445,18.71,18.71,0,0,1,7.841-1.606,17.628,17.628,0,0,1,8.78,2.155,14.847,14.847,0,0,1,6.01,6.351,21.8,21.8,0,0,1,2.155,10.074v25.481Zm-155.146,0V50.542h10.975v58.015Z" transform="translate(-96.051 -110.594)" fill="url(#linear-gradient)"/>
    <g id="グループ_69040" data-name="グループ 69040" transform="translate(0.897 -70.414)">
      <path id="長方形_18018" data-name="長方形 18018" d="M17,0H60A17,17,0,0,1,77,17V63A17,17,0,0,1,60,80H17A17,17,0,0,1,0,63V17A17,17,0,0,1,17,0Z" transform="translate(0 -0.291)" fill="url(#linear-gradient-2)"/>
      <path id="長方形_18019" data-name="長方形 18019" d="M0,0,5.552.139,7.093,61.486l-5.552-.139Z" transform="translate(57.66 15.608) rotate(45)" fill="#fff"/>
    </g>
  </g>
</svg>
