<?xml version="1.0" encoding="UTF-8"?><svg id="_レイヤー_2" xmlns="http://www.w3.org/2000/svg" xmlns:xlink="http://www.w3.org/1999/xlink" viewBox="0 0 124 129.21"><defs><style>.cls-1{fill:url(#_名称未設定グラデーション_3-2);}.cls-2{fill:#fff;}.cls-3{fill:url(#_名称未設定グラデーション_3);}</style><linearGradient id="_名称未設定グラデーション_3" x1="-1024.82" y1="611.86" x2="-1024.12" y2="611.17" gradientTransform="translate(196164.1 31691.69) scale(191.42 -51.64)" gradientUnits="userSpaceOnUse"><stop offset="0" stop-color="#3eb9fc"/><stop offset="1" stop-color="#8b2ae1"/></linearGradient><linearGradient id="_名称未設定グラデーション_3-2" x1="-1028.59" y1="624.06" x2="-1027.46" y2="625.16" gradientTransform="translate(-51022.74 85883.02) rotate(90) scale(83.5 -81.79)" xlink:href="#_名称未設定グラデーション_3"/></defs><g id="_レイヤー_1-2"><g id="_グループ_68954"><g id="_グループ_68940"><path id="_パス_57689" class="cls-3" d="M78.73,128.11c-1.51-.65-2.82-1.68-3.82-2.98-.92-1.2-1.46-2.65-1.54-4.15h6.3c.12,.95,.63,1.81,1.41,2.37,.89,.65,1.96,.98,3.06,.94,.98,.06,1.96-.19,2.79-.72,.63-.4,1-1.08,1-1.82,0-.8-.49-1.52-1.23-1.81-1.26-.55-2.57-1-3.91-1.32-1.54-.35-3.06-.81-4.53-1.38-1.17-.47-2.21-1.23-3.04-2.19-.9-1.12-1.35-2.54-1.27-3.97,0-1.34,.41-2.66,1.18-3.75,.86-1.19,2.04-2.12,3.39-2.68,1.65-.69,3.42-1.02,5.21-.98,2.54-.13,5.04,.65,7.05,2.21,1.76,1.49,2.82,3.65,2.9,5.96h-5.98c-.06-.92-.5-1.77-1.23-2.34-.85-.62-1.88-.93-2.93-.87-.91-.06-1.82,.16-2.61,.62-.59,.38-.94,1.04-.92,1.74,0,.83,.49,1.58,1.25,1.9,1.25,.58,2.55,1.02,3.89,1.32,1.5,.36,2.98,.82,4.42,1.39,1.17,.48,2.2,1.24,3.01,2.21,.89,1.12,1.35,2.52,1.31,3.95,.02,1.37-.4,2.72-1.19,3.84-.86,1.19-2.04,2.11-3.39,2.66-1.64,.67-3.39,1-5.16,.96-1.87,.03-3.73-.34-5.44-1.09h0Zm-31.69-.51c-1.75-1.11-3.15-2.68-4.06-4.53-1.03-2.09-1.54-4.39-1.5-6.72-.04-2.31,.47-4.59,1.5-6.65,.91-1.84,2.32-3.39,4.06-4.47,1.73-1.05,3.72-1.59,5.74-1.56,1.68-.04,3.35,.35,4.84,1.12,1.31,.68,2.44,1.64,3.33,2.81v-3.52h6.3v24.74h-6.3v-3.62c-.86,1.21-2,2.2-3.33,2.88-1.51,.78-3.19,1.17-4.89,1.14-2.01,.02-3.99-.54-5.69-1.61h0Zm4.13-17.6c-1.01,.59-1.84,1.45-2.39,2.48-.63,1.19-.95,2.52-.92,3.86-.03,1.36,.28,2.71,.92,3.91,.56,1.06,1.39,1.95,2.41,2.57,.96,.59,2.07,.89,3.19,.89,1.14,0,2.27-.3,3.26-.87,1.02-.59,1.86-1.46,2.41-2.5,1.19-2.47,1.19-5.35,0-7.82-.55-1.04-1.39-1.91-2.41-2.5-.99-.57-2.12-.88-3.26-.87-1.13-.01-2.24,.28-3.22,.84h0ZM5.69,128c-1.65-.67-3.08-1.78-4.13-3.22C.53,123.33-.01,121.6,0,119.83H6.7c.03,1.15,.52,2.25,1.36,3.04,.94,.79,2.15,1.19,3.37,1.12,1.23,.07,2.45-.3,3.44-1.04,.82-.67,1.28-1.69,1.25-2.75,.03-.84-.27-1.66-.85-2.28-.6-.62-1.32-1.1-2.12-1.41-1.15-.44-2.32-.82-3.5-1.14-1.68-.47-3.33-1.06-4.94-1.76-1.29-.6-2.41-1.5-3.26-2.63-.97-1.37-1.45-3.03-1.36-4.71-.04-1.71,.45-3.4,1.39-4.83,.96-1.4,2.31-2.5,3.89-3.15,1.81-.76,3.75-1.13,5.71-1.09,2.8-.13,5.57,.7,7.84,2.34,2.02,1.58,3.24,3.98,3.33,6.55h-6.88c-.04-1.04-.54-2.01-1.36-2.66-.97-.73-2.16-1.1-3.37-1.04-1.06-.05-2.1,.28-2.93,.94-.76,.69-1.16,1.7-1.09,2.72-.02,.78,.28,1.53,.83,2.08,.59,.58,1.29,1.03,2.05,1.34,.82,.35,1.97,.74,3.46,1.19,1.69,.47,3.35,1.07,4.96,1.79,1.3,.61,2.44,1.53,3.3,2.68,.98,1.36,1.46,3.01,1.38,4.69,0,1.64-.44,3.25-1.3,4.64-.92,1.48-2.23,2.66-3.8,3.42-1.85,.89-3.89,1.33-5.94,1.27-2.02,.02-4.01-.37-5.87-1.15h0Zm112.03,.81v-13.67c.11-1.64-.42-3.27-1.47-4.53-1.05-1.08-2.51-1.66-4.02-1.59-1.53-.08-3.01,.5-4.09,1.59-1.07,1.26-1.6,2.89-1.49,4.53v13.67h-6.25v-33.05h6.25v11.39c.84-1.1,1.95-1.97,3.22-2.53,1.41-.62,2.93-.94,4.47-.92,1.75-.03,3.47,.39,5,1.23,1.48,.83,2.67,2.1,3.42,3.62,.86,1.79,1.28,3.75,1.23,5.74v14.51h-6.27Zm-88.38,0v-33.05h6.25v33.05h-6.25Z"/><g id="_イヤー_1-2"><path id="_長方形_19621" class="cls-1" d="M103,16.69v48.61c0,9.22-7.63,16.69-17.04,16.69H38.05c-9.41,0-17.04-7.47-17.04-16.69V16.69C21,7.47,28.63,0,38.05,0h47.91c9.41,0,17.04,7.47,17.04,16.69Z"/><path id="_パス_59334" class="cls-2" d="M83,15.17l4.4,4.45-46.85,46.85-4.4-4.45L83,15.17Z"/></g></g></g></g></svg>