<svg xmlns="http://www.w3.org/2000/svg" xmlns:xlink="http://www.w3.org/1999/xlink" width="232.6" height="62.752" viewBox="0 0 232.6 62.752">
  <defs>
    <linearGradient id="linear-gradient" x1="-0.062" y1="-0.061" x2="1.018" y2="1" gradientUnits="objectBoundingBox">
      <stop offset="0" stop-color="#3eb9fc"/>
      <stop offset="1" stop-color="#8b2ae1"/>
    </linearGradient>
  </defs>
  <path id="パス_57689" data-name="パス 57689" d="M341.215,111.238a18.081,18.081,0,0,1-7.163-5.585,14.125,14.125,0,0,1-2.89-7.791h11.812a6.44,6.44,0,0,0,2.639,4.44,9.2,9.2,0,0,0,5.741,1.759,8.9,8.9,0,0,0,5.236-1.343,4.055,4.055,0,0,0,1.885-3.424,3.63,3.63,0,0,0-2.3-3.393,43.414,43.414,0,0,0-7.328-2.474,61.892,61.892,0,0,1-8.506-2.6,14.755,14.755,0,0,1-5.694-4.105,11.011,11.011,0,0,1-2.388-7.456,12.034,12.034,0,0,1,2.22-7.037,14.915,14.915,0,0,1,6.367-5.027,23.871,23.871,0,0,1,9.774-1.843,19.922,19.922,0,0,1,13.234,4.147A15.359,15.359,0,0,1,369.3,80.693H358.07a6.068,6.068,0,0,0-2.3-4.4,8.562,8.562,0,0,0-5.49-1.634,8.657,8.657,0,0,0-4.9,1.17,3.745,3.745,0,0,0-1.718,3.267,3.837,3.837,0,0,0,2.346,3.56A36.47,36.47,0,0,0,353.3,85.13a61.77,61.77,0,0,1,8.294,2.6,14.613,14.613,0,0,1,5.655,4.147,11.388,11.388,0,0,1,2.457,7.417,12.287,12.287,0,0,1-2.234,7.2,14.619,14.619,0,0,1-6.367,4.987,24.11,24.11,0,0,1-9.676,1.8,24.492,24.492,0,0,1-10.209-2.044Zm-59.439-.966a21.1,21.1,0,0,1-7.624-8.5,27.323,27.323,0,0,1-2.807-12.608,26.869,26.869,0,0,1,2.806-12.48,20.572,20.572,0,0,1,7.624-8.378,20.318,20.318,0,0,1,10.768-2.929,18.922,18.922,0,0,1,9.087,2.094,18.479,18.479,0,0,1,6.244,5.278V66.127h11.812v46.409H307.875V105.75a17.415,17.415,0,0,1-6.244,5.4,19.082,19.082,0,0,1-9.173,2.136,19.729,19.729,0,0,1-10.682-3.016Zm7.752-33.008a11.985,11.985,0,0,0-4.485,4.65,14.577,14.577,0,0,0-1.717,7.247,15.055,15.055,0,0,0,1.717,7.342,12.4,12.4,0,0,0,4.524,4.817,11.505,11.505,0,0,0,5.993,1.676,12.078,12.078,0,0,0,6.116-1.634,11.789,11.789,0,0,0,4.524-4.689,16.87,16.87,0,0,0,0-14.664,11.79,11.79,0,0,0-4.524-4.689,12.078,12.078,0,0,0-6.116-1.634,11.879,11.879,0,0,0-6.032,1.581ZM204.2,111.023a18.079,18.079,0,0,1-7.752-6.032,15.881,15.881,0,0,1-2.929-9.3h12.566a8.116,8.116,0,0,0,2.552,5.7,9.048,9.048,0,0,0,6.325,2.094,9.738,9.738,0,0,0,6.451-1.955,6.4,6.4,0,0,0,2.346-5.152,5.957,5.957,0,0,0-1.592-4.273,11.193,11.193,0,0,0-3.982-2.639,66.039,66.039,0,0,0-6.571-2.145,70.139,70.139,0,0,1-9.26-3.309,16.2,16.2,0,0,1-6.116-4.94,14.085,14.085,0,0,1-2.555-8.838,15.8,15.8,0,0,1,2.6-9.048,16.526,16.526,0,0,1,7.288-5.906,26.529,26.529,0,0,1,10.721-2.052,23.276,23.276,0,0,1,14.7,4.4,16.314,16.314,0,0,1,6.244,12.287h-12.9a6.7,6.7,0,0,0-2.552-4.987,9.637,9.637,0,0,0-6.325-1.955,8.138,8.138,0,0,0-5.487,1.759,6.359,6.359,0,0,0-2.053,5.11,5.281,5.281,0,0,0,1.55,3.91,11.756,11.756,0,0,0,3.854,2.513q2.3.966,6.493,2.234a68.162,68.162,0,0,1,9.3,3.351,16.708,16.708,0,0,1,6.2,5.027,13.962,13.962,0,0,1,2.6,8.8,16.557,16.557,0,0,1-2.427,8.713,17.18,17.18,0,0,1-7.124,6.409,24.3,24.3,0,0,1-11.142,2.388,27.753,27.753,0,0,1-11.017-2.156Zm210.152,1.514V86.9a12.027,12.027,0,0,0-2.765-8.5,9.774,9.774,0,0,0-7.54-2.974,10.033,10.033,0,0,0-7.666,2.974,11.927,11.927,0,0,0-2.793,8.5v25.635H381.863V50.542h11.729V71.9a15.3,15.3,0,0,1,6.032-4.747A19.994,19.994,0,0,1,408,65.44a18.841,18.841,0,0,1,9.383,2.3,15.867,15.867,0,0,1,6.423,6.786,23.3,23.3,0,0,1,2.3,10.765v27.227Zm-165.79,0V50.542h11.729v61.994Z" transform="translate(-193.52 -50.542)" fill="url(#linear-gradient)"/>
</svg>
