<?xml version="1.0" encoding="UTF-8"?><svg id="_レイヤー_2" xmlns="http://www.w3.org/2000/svg" xmlns:xlink="http://www.w3.org/1999/xlink" viewBox="0 0 395.34 99"><defs><style>.cls-1{fill:#fff;}.cls-2{fill:url(#_名称未設定グラデーション_3);}.cls-3{fill:url(#_名称未設定グラデーション_2);}</style><linearGradient id="_名称未設定グラデーション_3" x1="-363.88" y1="515.85" x2="-362.21" y2="514.21" gradientTransform="translate(64955.17 24814.91) scale(178.24 -48.09)" gradientUnits="userSpaceOnUse"><stop offset="0" stop-color="#3eb9fc"/><stop offset="1" stop-color="#8b2ae1"/></linearGradient><linearGradient id="_名称未設定グラデーション_2" x1="-362.05" y1="518.18" x2="-361.05" y2="517.18" gradientTransform="translate(35843.09 51299.65) scale(99 -99)" gradientUnits="userSpaceOnUse"><stop offset="0" stop-color="#49a4f8"/><stop offset="1" stop-color="#803de4"/></linearGradient></defs><g id="_レイヤー_1-2"><g id="_グループ_67150"><path id="_パス_57689" class="cls-2" d="M294.82,83.54c-3.34-1.45-6.26-3.72-8.48-6.61-2.04-2.66-3.23-5.88-3.42-9.23h13.99c.26,2.11,1.4,4.01,3.12,5.25,1.97,1.44,4.36,2.17,6.8,2.08,2.18,.13,4.35-.43,6.2-1.59,1.39-.88,2.23-2.41,2.23-4.05,0-1.77-1.08-3.37-2.73-4.02-2.8-1.23-5.7-2.22-8.67-2.94-3.43-.78-6.79-1.81-10.07-3.07-2.61-1.05-4.92-2.72-6.74-4.86-1.99-2.5-3-5.64-2.83-8.83-.02-2.98,.9-5.9,2.63-8.33,1.91-2.64,4.52-4.7,7.54-5.95,3.66-1.52,7.6-2.26,11.56-2.16,5.64-.29,11.2,1.45,15.67,4.91,3.92,3.31,6.26,8.12,6.45,13.24h-13.29c-.12-2.04-1.12-3.94-2.72-5.21-1.88-1.37-4.18-2.05-6.5-1.93-2.03-.12-4.05,.36-5.8,1.39-1.31,.84-2.08,2.31-2.03,3.86-.01,1.84,1.09,3.5,2.78,4.21,2.76,1.28,5.66,2.26,8.63,2.93,3.34,.79,6.62,1.82,9.82,3.08,2.6,1.07,4.89,2.75,6.69,4.91,1.98,2.49,3.01,5.6,2.91,8.78,.03,3.05-.89,6.03-2.64,8.53-1.91,2.64-4.52,4.68-7.54,5.9-3.63,1.49-7.53,2.21-11.46,2.13-4.16,.07-8.28-.76-12.09-2.42h0Zm-70.37-1.15c-3.88-2.46-7-5.95-9.03-10.07-2.28-4.64-3.42-9.76-3.32-14.93-.1-5.12,1.04-10.19,3.32-14.77,2.02-4.09,5.15-7.52,9.03-9.92,3.84-2.32,8.26-3.52,12.75-3.47,3.74-.09,7.43,.76,10.76,2.47,2.9,1.5,5.43,3.64,7.39,6.25v-7.83h13.98v54.95h-13.99v-8.03c-1.92,2.69-4.45,4.89-7.39,6.4-3.35,1.74-7.09,2.61-10.86,2.53-4.47,.04-8.86-1.19-12.65-3.57h0Zm9.18-39.08c-2.24,1.31-4.08,3.22-5.31,5.5-1.41,2.64-2.11,5.59-2.03,8.58-.07,3.02,.63,6.01,2.03,8.69,1.24,2.35,3.09,4.32,5.36,5.7,2.14,1.3,4.59,1.99,7.09,1.98,2.54,.01,5.04-.66,7.24-1.93,2.27-1.31,4.13-3.23,5.36-5.55,2.65-5.48,2.65-11.88,0-17.36-1.23-2.32-3.08-4.24-5.36-5.55-2.2-1.28-4.7-1.94-7.24-1.93-2.5-.02-4.97,.62-7.14,1.87h0Zm-101.02,39.97c-3.66-1.49-6.84-3.96-9.18-7.14-2.28-3.22-3.5-7.07-3.47-11.01h14.88c.07,2.56,1.16,4.99,3.02,6.75,2.09,1.75,4.77,2.63,7.49,2.47,2.74,.16,5.45-.66,7.64-2.32,1.83-1.49,2.85-3.74,2.78-6.1,.07-1.87-.61-3.69-1.88-5.06-1.33-1.37-2.94-2.43-4.72-3.12-2.55-.98-5.14-1.83-7.78-2.54-3.74-1.05-7.41-2.36-10.97-3.92-2.86-1.32-5.35-3.33-7.24-5.85-2.15-3.05-3.22-6.74-3.03-10.46-.09-3.8,.99-7.54,3.08-10.71,2.14-3.12,5.14-5.54,8.63-6.99,4.02-1.68,8.34-2.51,12.69-2.43,6.22-.28,12.36,1.55,17.41,5.21,4.49,3.52,7.2,8.84,7.39,14.55h-15.27c-.1-2.32-1.2-4.47-3.02-5.9-2.14-1.63-4.8-2.45-7.49-2.32-2.35-.12-4.66,.62-6.5,2.08-1.69,1.54-2.58,3.77-2.43,6.05-.06,1.73,.61,3.41,1.84,4.63,1.31,1.28,2.86,2.29,4.56,2.98,1.82,.76,4.38,1.64,7.69,2.64,3.76,1.05,7.44,2.38,11.01,3.97,2.89,1.36,5.41,3.4,7.34,5.95,2.17,3.03,3.25,6.7,3.07,10.42,.02,3.64-.98,7.21-2.87,10.32-2.03,3.28-4.96,5.91-8.43,7.59-4.11,1.97-8.63,2.94-13.19,2.83-4.48,.05-8.91-.82-13.04-2.55h0Zm248.8,1.79v-30.36c.24-3.65-.93-7.26-3.27-10.07-2.33-2.41-5.58-3.69-8.93-3.52-3.39-.18-6.69,1.1-9.08,3.52-2.37,2.8-3.55,6.41-3.31,10.07v30.36h-13.89V11.68h13.89v25.29c1.86-2.45,4.32-4.38,7.14-5.62,3.12-1.39,6.5-2.08,9.92-2.03,3.88-.07,7.71,.87,11.11,2.73,3.28,1.85,5.93,4.65,7.6,8.03,1.91,3.97,2.85,8.34,2.73,12.74v32.24l-13.92,.02Zm-196.28,0V11.68h13.89V85.07h-13.89Z"/><g id="_グループ_67319"><rect id="_長方形_18018" class="cls-3" width="99" height="99" rx="20.73" ry="20.73"/><rect id="_長方形_18019" class="cls-1" x="9.35" y="45.89" width="79.98" height="7.24" transform="translate(-20.56 49.39) rotate(-45)"/></g></g></g></svg>