<svg xmlns="http://www.w3.org/2000/svg" xmlns:xlink="http://www.w3.org/1999/xlink" width="165.521" height="179.634" viewBox="0 0 165.521 179.634">
  <defs>
    <linearGradient id="linear-gradient" x1="-0.062" y1="-0.061" x2="1.018" y2="1" gradientUnits="objectBoundingBox">
      <stop offset="0" stop-color="#3eb9fc"/>
      <stop offset="1" stop-color="#8b2ae1"/>
    </linearGradient>
    <linearGradient id="linear-gradient-2" x1="0" y1="0" x2="1" xlink:href="#linear-gradient"/>
  </defs>
  <g id="グループ_67150" data-name="グループ 67150" transform="translate(123.977 557.856)">
    <path id="パス_57689" data-name="パス 57689" d="M298.621,93.734a12.866,12.866,0,0,1-5.1-3.974,10.053,10.053,0,0,1-2.057-5.544h8.406a4.582,4.582,0,0,0,1.878,3.16,6.544,6.544,0,0,0,4.086,1.252,6.333,6.333,0,0,0,3.726-.956,2.885,2.885,0,0,0,1.341-2.436,2.583,2.583,0,0,0-1.639-2.414,30.886,30.886,0,0,0-5.214-1.761A44.041,44.041,0,0,1,298,79.211a10.5,10.5,0,0,1-4.052-2.921,7.836,7.836,0,0,1-1.7-5.306,8.565,8.565,0,0,1,1.58-5.008,10.613,10.613,0,0,1,4.531-3.577,16.988,16.988,0,0,1,6.955-1.312,14.176,14.176,0,0,1,9.417,2.951A10.93,10.93,0,0,1,318.6,72h-7.989a4.318,4.318,0,0,0-1.637-3.13,6.093,6.093,0,0,0-3.907-1.162,6.161,6.161,0,0,0-3.487.833,2.665,2.665,0,0,0-1.222,2.325,2.731,2.731,0,0,0,1.669,2.534,25.95,25.95,0,0,0,5.187,1.759,43.959,43.959,0,0,1,5.9,1.85,10.4,10.4,0,0,1,4.024,2.951,8.1,8.1,0,0,1,1.749,5.278,8.743,8.743,0,0,1-1.59,5.125,10.4,10.4,0,0,1-4.531,3.549,17.156,17.156,0,0,1-6.886,1.28,17.43,17.43,0,0,1-7.265-1.455Zm-42.3-.688A15.015,15.015,0,0,1,250.9,87a19.443,19.443,0,0,1-2-8.972,19.122,19.122,0,0,1,2-8.881,14.639,14.639,0,0,1,5.425-5.962,14.459,14.459,0,0,1,7.663-2.085,13.466,13.466,0,0,1,6.466,1.49,13.15,13.15,0,0,1,4.443,3.756v-4.71h8.4V94.658h-8.4V89.829a12.392,12.392,0,0,1-4.443,3.845,13.579,13.579,0,0,1-6.528,1.52,14.04,14.04,0,0,1-7.6-2.146Zm5.516-23.489a8.529,8.529,0,0,0-3.191,3.309,10.373,10.373,0,0,0-1.222,5.157,10.715,10.715,0,0,0,1.222,5.224,8.823,8.823,0,0,0,3.219,3.428,8.188,8.188,0,0,0,4.265,1.192,8.594,8.594,0,0,0,4.352-1.163,8.388,8.388,0,0,0,3.219-3.337,12,12,0,0,0,0-10.435,8.389,8.389,0,0,0-3.219-3.336,8.594,8.594,0,0,0-4.352-1.163,8.454,8.454,0,0,0-4.292,1.125ZM201.121,93.581a12.865,12.865,0,0,1-5.516-4.292,11.3,11.3,0,0,1-2.085-6.617h8.942a5.775,5.775,0,0,0,1.816,4.054,6.438,6.438,0,0,0,4.5,1.49,6.929,6.929,0,0,0,4.59-1.391,4.554,4.554,0,0,0,1.669-3.666,4.239,4.239,0,0,0-1.133-3.04,7.964,7.964,0,0,0-2.834-1.878,46.981,46.981,0,0,0-4.676-1.526,49.925,49.925,0,0,1-6.589-2.355,11.525,11.525,0,0,1-4.352-3.515,10.023,10.023,0,0,1-1.818-6.289,11.244,11.244,0,0,1,1.85-6.438,11.76,11.76,0,0,1,5.187-4.2,18.878,18.878,0,0,1,7.629-1.461,16.563,16.563,0,0,1,10.463,3.13,11.609,11.609,0,0,1,4.443,8.744h-9.183a4.769,4.769,0,0,0-1.816-3.549,6.858,6.858,0,0,0-4.5-1.391,5.791,5.791,0,0,0-3.9,1.252,4.525,4.525,0,0,0-1.461,3.637,3.758,3.758,0,0,0,1.1,2.782,8.365,8.365,0,0,0,2.742,1.788q1.64.688,4.62,1.59a48.5,48.5,0,0,1,6.617,2.385,11.889,11.889,0,0,1,4.412,3.577,9.936,9.936,0,0,1,1.848,6.26,11.783,11.783,0,0,1-1.727,6.2,12.225,12.225,0,0,1-5.069,4.561,17.288,17.288,0,0,1-7.929,1.7,19.75,19.75,0,0,1-7.84-1.542Zm149.546,1.077V76.415a8.559,8.559,0,0,0-1.967-6.051,6.955,6.955,0,0,0-5.365-2.116,7.14,7.14,0,0,0-5.455,2.116,8.488,8.488,0,0,0-1.987,6.051V94.658h-8.346V50.542h8.346v15.2a10.89,10.89,0,0,1,4.292-3.378,14.228,14.228,0,0,1,5.962-1.222,13.408,13.408,0,0,1,6.677,1.639A11.29,11.29,0,0,1,357.4,67.61a16.577,16.577,0,0,1,1.639,7.661V94.648Zm-117.978,0V50.542h8.346V94.658Z" transform="translate(-317.497 -473.419)" fill="url(#linear-gradient)"/>
    <g id="グループ_67319" data-name="グループ 67319" transform="translate(-96.093 -557.856)">
      <path id="長方形_18018" data-name="長方形 18018" d="M21,0H88.75a21,21,0,0,1,21,21V91.242a21,21,0,0,1-21,21H21a21,21,0,0,1-21-21V21A21,21,0,0,1,21,0Z" fill="url(#linear-gradient-2)"/>
      <path id="長方形_18019" data-name="長方形 18019" d="M0,0,8.187.129,9.609,90.6l-8.187-.129Z" transform="translate(83.27 20.633) rotate(45)" fill="#fff"/>
    </g>
  </g>
</svg>
