<svg xmlns="http://www.w3.org/2000/svg" xmlns:xlink="http://www.w3.org/1999/xlink" width="191.416" height="149.591" viewBox="0 0 191.416 149.591">
  <defs>
    <linearGradient id="linear-gradient" x1="-0.062" y1="-0.061" x2="1.018" y2="1" gradientUnits="objectBoundingBox">
      <stop offset="0" stop-color="#3eb9fc"/>
      <stop offset="1" stop-color="#8b2ae1"/>
    </linearGradient>
    <linearGradient id="linear-gradient-2" x2="1" y2="1" gradientUnits="objectBoundingBox">
      <stop offset="0" stop-color="#49a4f8"/>
      <stop offset="1" stop-color="#803de4"/>
    </linearGradient>
  </defs>
  <g id="グループ_68940" data-name="グループ 68940" transform="translate(0 -0.22)">
    <path id="パス_57689" data-name="パス 57689" d="M315.064,100.491a14.879,14.879,0,0,1-5.895-4.6,11.623,11.623,0,0,1-2.378-6.412h9.721a5.3,5.3,0,0,0,2.172,3.654,7.568,7.568,0,0,0,4.725,1.448,7.324,7.324,0,0,0,4.309-1.105,3.337,3.337,0,0,0,1.551-2.817,2.988,2.988,0,0,0-1.9-2.792,35.727,35.727,0,0,0-6.03-2.036,50.932,50.932,0,0,1-7-2.137,12.143,12.143,0,0,1-4.686-3.378,9.061,9.061,0,0,1-1.965-6.136,9.9,9.9,0,0,1,1.827-5.791,12.274,12.274,0,0,1,5.24-4.137,19.644,19.644,0,0,1,8.043-1.517,16.4,16.4,0,0,1,10.891,3.413,12.64,12.64,0,0,1,4.481,9.2h-9.238a4.994,4.994,0,0,0-1.894-3.619,7.046,7.046,0,0,0-4.518-1.344,7.124,7.124,0,0,0-4.033.963,3.082,3.082,0,0,0-1.413,2.689,3.158,3.158,0,0,0,1.93,2.93,30.014,30.014,0,0,0,6,2.034,50.833,50.833,0,0,1,6.825,2.14,12.025,12.025,0,0,1,4.654,3.413,9.372,9.372,0,0,1,2.022,6.1,10.112,10.112,0,0,1-1.839,5.927,12.031,12.031,0,0,1-5.24,4.1,19.841,19.841,0,0,1-7.963,1.48,20.156,20.156,0,0,1-8.4-1.682Zm-48.915-.8a17.364,17.364,0,0,1-6.274-7,22.484,22.484,0,0,1-2.31-10.376,22.111,22.111,0,0,1,2.31-10.27,16.93,16.93,0,0,1,6.274-6.894,16.721,16.721,0,0,1,8.862-2.411,15.572,15.572,0,0,1,7.478,1.724,15.206,15.206,0,0,1,5.138,4.343V63.368h9.721V101.56h-9.721V95.975a14.332,14.332,0,0,1-5.138,4.447,15.7,15.7,0,0,1-7.549,1.758,16.236,16.236,0,0,1-8.79-2.482Zm6.38-27.163a9.863,9.863,0,0,0-3.691,3.826,12,12,0,0,0-1.413,5.964,12.39,12.39,0,0,0,1.413,6.042,10.2,10.2,0,0,0,3.723,3.964,9.468,9.468,0,0,0,4.932,1.379,9.939,9.939,0,0,0,5.033-1.344,9.7,9.7,0,0,0,3.723-3.858,13.883,13.883,0,0,0,0-12.067,9.7,9.7,0,0,0-3.723-3.858,9.939,9.939,0,0,0-5.033-1.344,9.776,9.776,0,0,0-4.964,1.3ZM202.31,100.314a14.878,14.878,0,0,1-6.38-4.964A13.069,13.069,0,0,1,193.52,87.7h10.341a6.679,6.679,0,0,0,2.1,4.688,7.446,7.446,0,0,0,5.205,1.724,8.014,8.014,0,0,0,5.309-1.609,5.267,5.267,0,0,0,1.93-4.24,4.9,4.9,0,0,0-1.31-3.516,9.211,9.211,0,0,0-3.277-2.172,54.343,54.343,0,0,0-5.407-1.765,57.722,57.722,0,0,1-7.62-2.723,13.329,13.329,0,0,1-5.033-4.065,11.591,11.591,0,0,1-2.1-7.273A13,13,0,0,1,195.8,59.3a13.6,13.6,0,0,1,6-4.86,21.832,21.832,0,0,1,8.822-1.689,19.155,19.155,0,0,1,12.1,3.619,13.425,13.425,0,0,1,5.139,10.112H217.234a5.515,5.515,0,0,0-2.1-4.1,7.93,7.93,0,0,0-5.205-1.609,6.7,6.7,0,0,0-4.516,1.448,5.233,5.233,0,0,0-1.689,4.205A4.346,4.346,0,0,0,205,69.639a9.675,9.675,0,0,0,3.171,2.068q1.9.8,5.343,1.838a56.091,56.091,0,0,1,7.653,2.758,13.749,13.749,0,0,1,5.1,4.137,11.49,11.49,0,0,1,2.137,7.239,13.626,13.626,0,0,1-2,7.17,14.138,14.138,0,0,1-5.862,5.274,19.993,19.993,0,0,1-9.169,1.965,22.839,22.839,0,0,1-9.066-1.774Zm172.943,1.246v-21.1a9.9,9.9,0,0,0-2.275-7,8.043,8.043,0,0,0-6.2-2.447,8.257,8.257,0,0,0-6.308,2.447,9.815,9.815,0,0,0-2.3,7v21.1h-9.652V50.542h9.652v17.58a12.594,12.594,0,0,1,4.964-3.907,16.454,16.454,0,0,1,6.894-1.413,15.5,15.5,0,0,1,7.722,1.9,13.058,13.058,0,0,1,5.286,5.584,19.172,19.172,0,0,1,1.9,8.859v22.406Zm-136.435,0V50.542h9.652V101.56Z" transform="translate(-193.52 47.627)" fill="url(#linear-gradient)"/>
    <g id="グループ_67319" data-name="グループ 67319" transform="translate(19200.771 4552.22)">
      <path id="長方形_18018" data-name="長方形 18018" d="M17.129,0H64.663A17.257,17.257,0,0,1,81.792,17.382V65.618A17.257,17.257,0,0,1,64.663,83H17.129A17.257,17.257,0,0,1,0,65.618V17.382A17.257,17.257,0,0,1,17.129,0Z" transform="translate(-19142 -4552)" fill="url(#linear-gradient-2)"/>
      <path id="長方形_18019" data-name="長方形 18019" d="M0,0,6.024.044l.488,66.57L.488,66.57Z" transform="translate(-19079.986 -4536.348) rotate(45)" fill="#fff"/>
    </g>
  </g>
</svg>
