<svg xmlns="http://www.w3.org/2000/svg" xmlns:xlink="http://www.w3.org/1999/xlink" width="396.07" height="61.114" viewBox="0 0 396.07 61.114">
  <defs>
    <linearGradient id="linear-gradient" x1="-0.062" y1="-0.061" x2="1.018" y2="1" gradientUnits="objectBoundingBox">
      <stop offset="0" stop-color="#3eb9fc"/>
      <stop offset="1" stop-color="#8b2ae1"/>
    </linearGradient>
    <linearGradient id="linear-gradient-2" x2="1" y2="1" gradientUnits="objectBoundingBox">
      <stop offset="0" stop-color="#49a4f8"/>
      <stop offset="1" stop-color="#803de4"/>
    </linearGradient>
  </defs>
  <g id="グループ_67150" data-name="グループ 67150" transform="translate(0.43 -0.36)">
    <path id="パス_57689" data-name="パス 57689" d="M376.909,90.565,381.7,79.54l-8.868-21.571h6.271l5.712,15.459,5.792-15.459h5.952l-13.7,32.6ZM447.752,79.04a9.986,9.986,0,0,1-3.955-4.015,12.3,12.3,0,0,1-1.419-5.992,12.524,12.524,0,0,1,1.4-6.032,9.757,9.757,0,0,1,3.915-3.995,12.573,12.573,0,0,1,11.451-.04,9.562,9.562,0,0,1,3.875,3.861,11.66,11.66,0,0,1,1.378,5.726,13.184,13.184,0,0,1-.16,2.157H448.052a5.494,5.494,0,0,0,1.678,3.755,5.17,5.17,0,0,0,3.635,1.359,4.567,4.567,0,0,0,4.434-2.675h6.032a10.081,10.081,0,0,1-3.674,5.254,10.732,10.732,0,0,1-6.671,2.056,11.539,11.539,0,0,1-5.734-1.418Zm2.077-15.579a5.531,5.531,0,0,0-1.731,3.5H458.6a4.443,4.443,0,0,0-1.558-3.462,5.522,5.522,0,0,0-3.715-1.3,5.077,5.077,0,0,0-3.5,1.268ZM350.645,79.02a10.063,10.063,0,0,1-3.635-4.054,13.03,13.03,0,0,1-1.338-6.012A12.813,12.813,0,0,1,347.01,63a9.81,9.81,0,0,1,3.635-3.995,9.688,9.688,0,0,1,5.134-1.4,9.023,9.023,0,0,1,4.333,1,8.811,8.811,0,0,1,2.977,2.517V57.972h5.632V80.1H363.09V76.866a8.306,8.306,0,0,1-2.977,2.576,9.1,9.1,0,0,1-4.374,1.019,9.407,9.407,0,0,1-5.094-1.438Zm3.7-15.738A5.715,5.715,0,0,0,352.2,65.5a6.95,6.95,0,0,0-.819,3.455,7.177,7.177,0,0,0,.817,3.5,5.912,5.912,0,0,0,2.157,2.3,5.486,5.486,0,0,0,2.857.8,5.759,5.759,0,0,0,2.916-.779,5.621,5.621,0,0,0,2.157-2.236,8.044,8.044,0,0,0,0-6.992,5.622,5.622,0,0,0-2.157-2.236,5.759,5.759,0,0,0-2.916-.779,5.664,5.664,0,0,0-2.876.754Zm-90.4,16.2a8.621,8.621,0,0,1-3.415-2.663,6.735,6.735,0,0,1-1.378-3.715h5.632a3.07,3.07,0,0,0,1.258,2.117,4.385,4.385,0,0,0,2.738.839,4.244,4.244,0,0,0,2.5-.64,1.933,1.933,0,0,0,.9-1.632,1.731,1.731,0,0,0-1.1-1.618,20.7,20.7,0,0,0-3.494-1.18,29.514,29.514,0,0,1-4.056-1.238,7.036,7.036,0,0,1-2.715-1.957,5.25,5.25,0,0,1-1.138-3.555,5.738,5.738,0,0,1,1.059-3.355,7.112,7.112,0,0,1,3.036-2.4,11.382,11.382,0,0,1,4.66-.879,9.5,9.5,0,0,1,6.31,1.977,7.324,7.324,0,0,1,2.6,5.333h-5.353a2.893,2.893,0,0,0-1.1-2.1,4.083,4.083,0,0,0-2.618-.779,4.128,4.128,0,0,0-2.337.558,1.786,1.786,0,0,0-.819,1.558,1.83,1.83,0,0,0,1.119,1.7,17.389,17.389,0,0,0,3.475,1.178,29.453,29.453,0,0,1,3.955,1.24,6.967,6.967,0,0,1,2.7,1.977,5.43,5.43,0,0,1,1.172,3.536,5.858,5.858,0,0,1-1.065,3.434,6.97,6.97,0,0,1-3.036,2.378,11.5,11.5,0,0,1-4.614.857,11.678,11.678,0,0,1-4.868-.975ZM235.6,79.022a10.061,10.061,0,0,1-3.635-4.054,13.028,13.028,0,0,1-1.338-6.012A12.811,12.811,0,0,1,231.966,63,9.809,9.809,0,0,1,235.6,59.01a9.688,9.688,0,0,1,5.134-1.4,9.022,9.022,0,0,1,4.333,1,8.811,8.811,0,0,1,2.977,2.517V57.973h5.632V80.1h-5.632V76.866a8.3,8.3,0,0,1-2.977,2.576,9.1,9.1,0,0,1-4.374,1.019,9.407,9.407,0,0,1-5.093-1.438Zm3.7-15.738a5.715,5.715,0,0,0-2.138,2.217,6.95,6.95,0,0,0-.819,3.455,7.178,7.178,0,0,0,.819,3.5,5.911,5.911,0,0,0,2.157,2.3,5.486,5.486,0,0,0,2.857.8,5.759,5.759,0,0,0,2.916-.779,5.621,5.621,0,0,0,2.157-2.236,8.044,8.044,0,0,0,0-6.992,5.622,5.622,0,0,0-2.157-2.236,5.759,5.759,0,0,0-2.916-.779,5.664,5.664,0,0,0-2.876.754Zm-40.684,16.1a8.62,8.62,0,0,1-3.7-2.876,7.572,7.572,0,0,1-1.4-4.434h5.992a3.87,3.87,0,0,0,1.217,2.716,4.314,4.314,0,0,0,3.016,1,4.643,4.643,0,0,0,3.076-.932,3.052,3.052,0,0,0,1.118-2.457,2.84,2.84,0,0,0-.759-2.037,5.337,5.337,0,0,0-1.9-1.258,31.493,31.493,0,0,0-3.133-1.023,33.445,33.445,0,0,1-4.415-1.578,7.723,7.723,0,0,1-2.916-2.355A6.716,6.716,0,0,1,193.6,59.93a7.534,7.534,0,0,1,1.24-4.314,7.88,7.88,0,0,1,3.475-2.816,12.649,12.649,0,0,1,5.112-.979,11.1,11.1,0,0,1,7.01,2.1,7.779,7.779,0,0,1,2.977,5.859H207.26a3.2,3.2,0,0,0-1.217-2.378,4.6,4.6,0,0,0-3.016-.932,3.88,3.88,0,0,0-2.616.839,3.032,3.032,0,0,0-.979,2.437,2.518,2.518,0,0,0,.739,1.864,5.606,5.606,0,0,0,1.837,1.2q1.1.461,3.1,1.065a32.5,32.5,0,0,1,4.434,1.6,7.967,7.967,0,0,1,2.956,2.4,6.657,6.657,0,0,1,1.238,4.194,7.9,7.9,0,0,1-1.157,4.154,8.192,8.192,0,0,1-3.4,3.056,11.584,11.584,0,0,1-5.313,1.138,13.233,13.233,0,0,1-5.253-1.028Zm306.6.719q-7.072,0-7.07-6.871V62.563h-2.637V57.969h2.637V52.5h5.632v5.473h4.953v4.594h-4.953V73.268a2.113,2.113,0,0,0,.533,1.618,2.646,2.646,0,0,0,1.816.5h2.6V80.1Zm-20.054,0V67.876a5.735,5.735,0,0,0-1.318-4.054,4.66,4.66,0,0,0-3.6-1.418,4.784,4.784,0,0,0-3.655,1.418,5.686,5.686,0,0,0-1.332,4.054V80.1h-5.592V57.972h5.592v2.756a7.724,7.724,0,0,1,2.856-2.264,8.847,8.847,0,0,1,3.815-.819,8.536,8.536,0,0,1,6.391,2.5,9.562,9.562,0,0,1,2.437,6.971V80.095Zm-53.447,0V67.876a5.523,5.523,0,0,0-1.318-3.973,4.738,4.738,0,0,0-3.6-1.378,4.8,4.8,0,0,0-3.62,1.379,5.472,5.472,0,0,0-1.331,3.975V80.1h-5.592V67.878a5.524,5.524,0,0,0-1.318-3.973,4.738,4.738,0,0,0-3.6-1.378,4.857,4.857,0,0,0-3.655,1.378,5.476,5.476,0,0,0-1.332,3.973V80.1h-5.592V57.972h5.592v2.676a7.435,7.435,0,0,1,2.775-2.2,8.654,8.654,0,0,1,3.735-.8,9.611,9.611,0,0,1,4.634,1.1,7.7,7.7,0,0,1,3.156,3.134,8.007,8.007,0,0,1,3.136-3.074,9.587,9.587,0,0,1,11.025,1.332,9.423,9.423,0,0,1,2.5,6.97V80.095Zm-110.088,0V52.217H331.89a12.407,12.407,0,0,1,5.512,1.118,7.785,7.785,0,0,1,3.415,3.076,9.023,9.023,0,0,1,.08,8.628,7.774,7.774,0,0,1-3.315,3.156,12.053,12.053,0,0,1-5.692,1.2h-4.674V80.1Zm5.592-15.219h4.434a4.847,4.847,0,0,0,3.435-1.059,3.9,3.9,0,0,0,1.119-2.976q0-4.074-4.554-4.074h-4.434ZM298.816,80.1V67.878a5.735,5.735,0,0,0-1.318-4.054,4.66,4.66,0,0,0-3.6-1.418,4.784,4.784,0,0,0-3.655,1.418,5.687,5.687,0,0,0-1.332,4.054V80.1h-5.592V50.542h5.592V60.728a7.3,7.3,0,0,1,2.876-2.264,9.534,9.534,0,0,1,3.995-.819,8.984,8.984,0,0,1,4.474,1.1,7.566,7.566,0,0,1,3.063,3.236,11.109,11.109,0,0,1,1.1,5.133V80.095Zm-79.051,0V50.542h5.592V80.1Z" transform="translate(-113.089 -35.737)" fill="url(#linear-gradient)"/>
    <g id="グループ_67319" data-name="グループ 67319" transform="translate(1449.202 345.086)">
      <rect id="長方形_18018" data-name="長方形 18018" width="61.114" height="61.114" rx="12.798" transform="translate(-1449.633 -344.725)" fill="url(#linear-gradient-2)"/>
      <rect id="長方形_18019" data-name="長方形 18019" width="4.468" height="49.376" transform="translate(-1403.297 -333.2) rotate(45)" fill="#fff"/>
    </g>
  </g>
</svg>
