<?xml version="1.0" encoding="UTF-8"?><svg id="_イヤー_2" xmlns="http://www.w3.org/2000/svg" viewBox="0 0 276 79"><defs><style>.cls-1{fill:#fff;}.cls-2{stroke:#000;}</style></defs><g id="_イヤー_1-2"><g><rect class="cls-2" x=".5" y=".5" width="275" height="78" rx="8" ry="8"/><g><path class="cls-1" d="M27.85,46.58h-5.93v-14.4h5.65c3.14,0,4.8,1.68,4.8,3.71,0,1.74-1.09,2.8-2.52,3.29,1.58,.27,2.86,1.8,2.86,3.52,0,2.2-1.83,3.88-4.86,3.88Zm-.49-12.47h-3.01v4.12h3.01c1.58,0,2.54-.73,2.54-2.05s-.96-2.07-2.54-2.07Zm.19,6.05h-3.2v4.5h3.29c1.64,0,2.64-.81,2.64-2.2s-1.11-2.3-2.73-2.3Z"/><path class="cls-1" d="M46,46.58h-2.43v-1.37c-.77,.97-2.09,1.53-3.48,1.53-2.75,0-4.84-1.68-4.84-4.87v-6.71h2.41v6.36c0,2.09,1.17,3.17,2.94,3.17s2.96-1.08,2.96-3.17v-6.36h2.43v11.42Z"/><path class="cls-1" d="M57.26,35.16h2.52l-7.21,16.78h-2.52l2.39-5.55-4.63-11.23h2.71l3.31,8.7,3.43-8.7Z"/><path class="cls-1" d="M65.76,35.16h2.47l2.45,9.18,2.5-9.18h2.54l2.39,9.14,2.43-9.14h2.39l-3.65,11.42h-2.56l-2.37-8.43-2.37,8.43h-2.56l-3.67-11.42Z"/><path class="cls-1" d="M84.42,32.14c0-.85,.68-1.51,1.56-1.51s1.54,.66,1.54,1.51-.68,1.51-1.54,1.51-1.56-.66-1.56-1.51Zm.32,3.03h2.43v11.42h-2.43v-11.42Z"/><path class="cls-1" d="M90.76,37.09h-1.39v-1.93h1.39v-2.84h2.45v2.84h2.86v1.93h-2.86v6.32c0,.85,.34,1.2,1.37,1.2h1.49v1.97h-1.92c-2.09,0-3.39-.85-3.39-3.17v-6.32Z"/><path class="cls-1" d="M98.31,31.25h2.43v5.24c.81-.95,2.13-1.51,3.65-1.51,2.62,0,4.67,1.68,4.67,4.87v6.73h-2.41v-6.38c0-2.09-1.17-3.17-2.94-3.17s-2.96,1.08-2.96,3.17v6.38h-2.43v-15.33Z"/></g></g></g></svg>