<svg xmlns="http://www.w3.org/2000/svg" width="68.007" height="55.256" viewBox="0 0 68.007 55.256">
  <path id="twitter" d="M68.007,54.541a29.068,29.068,0,0,1-8.033,2.2,13.864,13.864,0,0,0,6.133-7.706,27.863,27.863,0,0,1-8.841,3.375,13.941,13.941,0,0,0-24.117,9.534,14.356,14.356,0,0,0,.323,3.179A39.463,39.463,0,0,1,4.735,50.542,13.946,13.946,0,0,0,9.019,69.176a13.769,13.769,0,0,1-6.3-1.717v.153a14.006,14.006,0,0,0,11.17,13.7,13.915,13.915,0,0,1-3.655.459,12.327,12.327,0,0,1-2.64-.238,14.075,14.075,0,0,0,13.028,9.712A28.014,28.014,0,0,1,3.337,97.191,26.106,26.106,0,0,1,0,97a39.251,39.251,0,0,0,21.388,6.257C47.044,103.256,61.07,82,61.07,63.582c0-.616-.021-1.211-.051-1.8A27.813,27.813,0,0,0,68.007,54.541Z" transform="translate(0 -48)"/>
</svg>
