<svg xmlns="http://www.w3.org/2000/svg" width="42.5" height="34.531" viewBox="0 0 42.5 34.531">
  <path id="twitter" d="M42.5,52.088a18.166,18.166,0,0,1-5.02,1.376,8.664,8.664,0,0,0,3.833-4.816,17.413,17.413,0,0,1-5.525,2.109,8.712,8.712,0,0,0-15.072,5.958,8.972,8.972,0,0,0,.2,1.987A24.662,24.662,0,0,1,2.959,49.588,8.715,8.715,0,0,0,5.637,61.233,8.6,8.6,0,0,1,1.7,60.16v.1a8.753,8.753,0,0,0,6.981,8.561A8.7,8.7,0,0,1,6.4,69.1a7.7,7.7,0,0,1-1.65-.149,8.8,8.8,0,0,0,8.141,6.07,17.507,17.507,0,0,1-10.8,3.716A16.316,16.316,0,0,1,0,78.621a24.529,24.529,0,0,0,13.366,3.91c16.033,0,24.8-13.281,24.8-24.793,0-.385-.013-.757-.032-1.126A17.382,17.382,0,0,0,42.5,52.088Z" transform="translate(0 -48)" fill="#fff"/>
</svg>
