<svg id="UNICEF_Logo" xmlns="http://www.w3.org/2000/svg" width="145.971" height="35.009" viewBox="0 0 145.971 35.009">
  <path id="パス_57656" data-name="パス 57656" d="M114.125,0A13.825,13.825,0,1,0,127.95,13.825,13.823,13.823,0,0,0,114.125,0m10.7,6.132c-.669.446-1.449.892-2.23,1.338a12.66,12.66,0,0,0-1.672-2.564,18.913,18.913,0,0,0,1.561-1.115,6.724,6.724,0,0,1,2.341,2.341m-5.8-4.571a12.527,12.527,0,0,1,3.122,1.784,7.914,7.914,0,0,1-1.561,1.115,20.034,20.034,0,0,0-2.23-2.118,4.85,4.85,0,0,1,.669-.78m1.115,3.122a21.122,21.122,0,0,1-2.341,1,13.874,13.874,0,0,0-1.115-2.23,4.6,4.6,0,0,0,1.226-.78,12.524,12.524,0,0,1,2.23,2.007m-1.672-3.345a2.956,2.956,0,0,0-.557.669A15.5,15.5,0,0,0,115.575.78a8.375,8.375,0,0,1,2.9.557m-1,1a4.519,4.519,0,0,1-1,.557c-.446-.669-.892-1.226-1.338-1.9a12.544,12.544,0,0,1,2.341,1.338m-3.122-1.226A9.276,9.276,0,0,1,115.8,3.122a5.649,5.649,0,0,1-1.449.223Zm0,2.787a5.05,5.05,0,0,0,1.784-.334,13.875,13.875,0,0,1,1.115,2.23,22.562,22.562,0,0,1-2.9.446Zm-.557-2.787v2.23a7.673,7.673,0,0,1-1.449-.223,22.608,22.608,0,0,0,1.449-2.007M111.9,2.9a2.923,2.923,0,0,1-1-.557,23.591,23.591,0,0,1,2.341-1.226A6.8,6.8,0,0,0,111.9,2.9m.78-2.23A23.592,23.592,0,0,0,110.334,1.9a2.956,2.956,0,0,1-.557-.669,22.264,22.264,0,0,1,2.9-.557m9.477,23.637c-1.784-1-1.9-2.453-1.784-2.9.111-.557.446-.334.669-.334a5.1,5.1,0,0,0,4.014-2.007,5.985,5.985,0,0,0-.446-8.362c-2.9-2.787-6.021-2.341-8.027.223a3.113,3.113,0,0,1-2.23.892c-1.338,0-.446,1-.446,1.226a.356.356,0,0,1-.334.334c-.446-.111-.223.557-.223.669s-.223.334-.223.334c-.557,0-.446.446-.334.669a.445.445,0,0,1-.223.446c-.223.111-.334.557-.334.892,0,.557.557,1,1.449,1.672a2.117,2.117,0,0,1,1,1.784,8.608,8.608,0,0,0,.223,1.672c.223.557.223,1.672-1,1.672a18.074,18.074,0,0,0-4.46,1.338,5.173,5.173,0,0,1-2.9.223,11.809,11.809,0,0,1-1.338-1.115,1.866,1.866,0,0,1,.446-1.672,2.033,2.033,0,0,0,1.672.446,20.809,20.809,0,0,0,2.787-.446c.334-.111.446-.111.557,0a1.593,1.593,0,0,0,2.341-1.115c.446-1.561-.557-1.115-.78-1-.111.111-.334,0-.223-.111.223-.334-.111-.334-.223-.334a2.08,2.08,0,0,0-1.115.557.843.843,0,0,1-.446.111c-.557-.334-2.23.111-2.787-.78a45.351,45.351,0,0,0-.669-4.571.565.565,0,0,1,.111-.557c.446-.669,1.561,0,2.23,0a1.181,1.181,0,0,0,1.115-.557c.223-.223.334-.111.446-.223s0-.223,0-.334.111,0,.223-.111,0-.334,0-.446c.223-.334.669-.111.446-.78a1.241,1.241,0,0,1,.334-1.115c.334-.446,1.784-2.453-.669-4.571-2.341-2.007-4.794-1.784-6.355-.111s-.78,4.125-.669,4.794a1.352,1.352,0,0,1-.892,1.449,14.482,14.482,0,0,0-2.118,1.449,12.976,12.976,0,0,1,8.25-11.93c.223.223.446.557.669.78C109.331,2.9,108.1,3.9,108.1,3.9a.863.863,0,0,1,.334.111,1.123,1.123,0,0,1,.334.111A15.2,15.2,0,0,1,110.334,2.9a4.6,4.6,0,0,0,1.226.78c-.223.446-.892,1.561-.892,1.561a.389.389,0,0,0,.223.111.345.345,0,0,0,.223.111s.669-1.226.892-1.672a4.474,4.474,0,0,0,1.672.334v2.23a6.358,6.358,0,0,1-1.449-.111h-.223l.111.223c.111.111.111.223.223.334h1.338v4.125h.557v-1a15.176,15.176,0,0,0,2.341-.223h0l.78-.669h-.446a20.426,20.426,0,0,1-2.341.223h-.334V6.69a10.072,10.072,0,0,0,3.122-.446l.78,2.341.557-.223-.78-2.341a16.123,16.123,0,0,0,2.453-1,12.661,12.661,0,0,1,1.672,2.564,10.5,10.5,0,0,1-1.115.446c.557.111,1,.223,1,.223a1.123,1.123,0,0,1,.334-.111,1.123,1.123,0,0,0,.111.334l.78.334-.111-.223a3.666,3.666,0,0,0-.334-.669,12.545,12.545,0,0,0,2.341-1.338,12.816,12.816,0,0,1,2.118,7.247,12.592,12.592,0,0,1-5.017,10.48" transform="translate(11.527)" fill="#00aeef"/>
  <path id="パス_57657" data-name="パス 57657" d="M99.468,3.311l-.223.223C98.465,4.2,96.57,6.1,96.9,8.217v.111l.111.446.223-.223A8.477,8.477,0,0,0,99.58,3.757l.111-.557Z" transform="translate(11.133 0.368)" fill="#00aeef"/>
  <path id="パス_57658" data-name="パス 57658" d="M95.867,6.511l-.111.223a11.216,11.216,0,0,0-.446,2.007,6.437,6.437,0,0,0,1,4.794l.111.223.111.223.223-.892a16.829,16.829,0,0,0-.669-6.244L95.867,6.4Z" transform="translate(10.943 0.736)" fill="#00aeef"/>
  <path id="パス_57659" data-name="パス 57659" d="M94.6,11.534v.223c-.111,1.338,0,4.794,2.787,6.69l.334.223v-.446a16.44,16.44,0,0,0-2.676-6.578l-.334-.446Z" transform="translate(10.87 1.287)" fill="#00aeef"/>
  <path id="パス_57660" data-name="パス 57660" d="M95,17.023v.223c.446,2.007,2.23,5.129,5.129,6.132l.446.111-.111-.446a18.292,18.292,0,0,0-5.129-6.021L95,16.8Z" transform="translate(10.918 1.931)" fill="#00aeef"/>
  <path id="パス_57661" data-name="パス 57661" d="M100.656,6.011l-.334.111C98.2,7.461,97.2,9.022,97.2,11.029v.446l.334-.223a12.888,12.888,0,0,0,3.01-4.794l.111-.557Z" transform="translate(11.171 0.678)" fill="#00aeef"/>
  <path id="パス_57662" data-name="パス 57662" d="M99.342,9.811l-.111.223c-.557.557-2.341,2.453-2.23,4.794a3.961,3.961,0,0,0,.223,1.115l.111.334.223-.334a12.312,12.312,0,0,0,1.9-5.8V9.7Z" transform="translate(11.148 1.115)" fill="#00aeef"/>
  <path id="パス_57663" data-name="パス 57663" d="M99.349,13.511l-.111.223A7.193,7.193,0,0,0,97.9,17.748a5.1,5.1,0,0,0,.892,2.676l.223.334.111-.334a17.486,17.486,0,0,0,.669-5.017,5.169,5.169,0,0,0-.223-1.561l-.111-.446Z" transform="translate(11.252 1.54)" fill="#00aeef"/>
  <path id="パス_57664" data-name="パス 57664" d="M100.149,17.423l-.111.223A6.783,6.783,0,0,0,99.7,20.21a4.912,4.912,0,0,0,2.453,4.237l.223.111.111-.334V23.89a15.741,15.741,0,0,0-2.007-6.355l-.223-.334Z" transform="translate(11.455 1.977)" fill="#00aeef"/>
  <path id="パス_57665" data-name="パス 57665" d="M97.411,22.611l.111.223c1.115,1.9,3.122,4.46,6.8,3.791h.334l-.223-.223c-.669-1-5.129-3.568-6.69-3.791L97.3,22.5Z" transform="translate(11.183 2.586)" fill="#00aeef"/>
  <path id="パス_57666" data-name="パス 57666" d="M102.357,27.078h0l-.557.111.557.223a11.279,11.279,0,0,0,7.024.669,3.4,3.4,0,0,0,1.449-1c3.01.334,5.8,2.787,7.47,4.794l.111.111h.111a2.432,2.432,0,0,0,.557-.446l.111-.111-.111-.111a15.634,15.634,0,0,0-4.46-3.679c-2.453-1.115-6.69-2.007-12.264-.557" transform="translate(11.7 3.025)" fill="#00aeef"/>
  <path id="パス_57667" data-name="パス 57667" d="M102.412,21.411v.223c.334,2.23,1.226,5.129,5.017,4.794h.223l-.111-.223c-.223-1-3.679-3.9-4.906-4.683L102.3,21.3Z" transform="translate(11.757 2.448)" fill="#00aeef"/>
  <path id="パス_57668" data-name="パス 57668" d="M126,3.1l.111.557a8.477,8.477,0,0,0,2.341,4.794l.223.223.111-.446V8.117c.334-2.118-1.561-4.014-2.341-4.683l-.223-.223Z" transform="translate(14.481 0.356)" fill="#00aeef"/>
  <path id="パス_57669" data-name="パス 57669" d="M129.595,6.3l-.223.446a19.54,19.54,0,0,0-.669,6.244l.223.892.111-.111.112-.223a5.892,5.892,0,0,0,1-4.794,9.189,9.189,0,0,0-.446-2.007l-.111-.223Z" transform="translate(14.789 0.724)" fill="#00aeef"/>
  <path id="パス_57670" data-name="パス 57670" d="M131.11,11.3l-.334.446c-1.115,1.449-2.676,5.24-2.676,6.578v.446l.334-.223c2.787-1.784,2.9-5.24,2.787-6.69v-.223Z" transform="translate(14.722 1.299)" fill="#00aeef"/>
  <path id="パス_57671" data-name="パス 57671" d="M130.986,16.8l-.446.223a18.292,18.292,0,0,0-5.129,6.021l-.111.446.446-.111c2.9-.892,4.794-4.125,5.129-6.132v-.223Z" transform="translate(14.401 1.931)" fill="#00aeef"/>
  <path id="パス_57672" data-name="パス 57672" d="M125.1,5.8l.111.557a12.459,12.459,0,0,0,3.01,4.906l.334.223V11.04c.111-2.007-.892-3.568-3.01-4.906l-.223-.111Z" transform="translate(14.378 0.667)" fill="#00aeef"/>
  <path id="パス_57673" data-name="パス 57673" d="M126.2,9.7v.446c-.111,1.449,1.115,4.683,1.9,5.8l.223.334.112-.334a4.907,4.907,0,0,0,.223-1.115c.112-2.341-1.672-4.237-2.23-4.794l-.111-.111Z" transform="translate(14.503 1.115)" fill="#00aeef"/>
  <path id="パス_57674" data-name="パス 57674" d="M126.134,13.3l-.111.446a5.168,5.168,0,0,0-.223,1.561,14.257,14.257,0,0,0,.669,5.017l.111.334.223-.334a4.536,4.536,0,0,0,.892-2.676,7.477,7.477,0,0,0-1.338-4.014l-.111-.223Z" transform="translate(14.458 1.529)" fill="#00aeef"/>
  <path id="パス_57675" data-name="パス 57675" d="M125.43,17.2l-.223.334A15.741,15.741,0,0,0,123.2,23.89v.334l.111.334.223-.111a5.164,5.164,0,0,0,2.453-4.237,10.807,10.807,0,0,0-.334-2.564l-.111-.223Z" transform="translate(14.159 1.977)" fill="#00aeef"/>
  <path id="パス_57676" data-name="パス 57676" d="M128.859,22.4l-.446.111c-1.561.223-6.021,2.787-6.69,3.791l-.223.223h.334c3.679.669,5.686-1.9,6.8-3.791l.111-.223Z" transform="translate(13.964 2.574)" fill="#00aeef"/>
  <path id="パス_57677" data-name="パス 57677" d="M112.671,27.635a13.728,13.728,0,0,0-4.46,3.679l-.111.111.111.111c.111.111.446.334.557.446h.111l.111-.111c1.672-2.007,4.46-4.571,7.47-4.794a4.243,4.243,0,0,0,1.449,1,11.334,11.334,0,0,0,7.024-.669l.557-.223-.557-.111c-5.686-1.449-9.923-.557-12.264.557" transform="translate(12.424 3.025)" fill="#00aeef"/>
  <path id="パス_57678" data-name="パス 57678" d="M123.552,21.2l-.334.223c-1.226.78-4.571,3.679-4.906,4.683l-.111.223h.223c3.679.334,4.571-2.564,5.017-4.794v-.223Z" transform="translate(13.585 2.437)" fill="#00aeef"/>
  <path id="パス_57679" data-name="パス 57679" d="M38.6,1.2h4.683V5.437H38.6Zm.446,9.142h3.9V31.08h-3.9Z" transform="translate(4.436 0.138)" fill="#00aeef"/>
  <path id="パス_57680" data-name="パス 57680" d="M13.937,9.4h3.9V30.138H14.048v-3.01h-.111A7.97,7.97,0,0,1,6.8,30.807c-4.348,0-6.8-3.345-6.8-7.47V9.4H3.9V21.664c0,3.568.78,6.244,4.571,6.244a4.765,4.765,0,0,0,4.571-3.01,14.091,14.091,0,0,0,.78-4.906V9.4Z" transform="translate(0 1.08)" fill="#00aeef"/>
  <path id="パス_57681" data-name="パス 57681" d="M23.4,12.479h0A7.484,7.484,0,0,1,29.757,8.8c1.449,0,7.8.334,7.8,7.024V30.1h-3.9V17.05c0-3.456-1.449-5.24-4.794-5.24a5.409,5.409,0,0,0-3.791,1.561c-.557.557-1.672,1.449-1.672,5.575V30.207H19.5V9.469h3.9Z" transform="translate(2.241 1.011)" fill="#00aeef"/>
  <path id="パス_57682" data-name="パス 57682" d="M58.6,16.047c-.223-2.564-1.449-4.348-4.237-4.348-3.679,0-5.129,3.233-5.129,8.027s1.449,8.027,5.129,8.027c2.564,0,4.125-1.672,4.348-4.683h3.9c-.334,4.683-3.791,7.47-8.362,7.47-6.578,0-9.254-4.683-9.254-10.7S48.01,8.8,54.588,8.8c4.348,0,7.582,2.787,7.8,7.247Z" transform="translate(5.172 1.011)" fill="#00aeef"/>
  <path id="パス_57683" data-name="パス 57683" d="M66.425,20.5c-.334,3.568,1.226,7.359,5.129,7.359,3.01,0,4.571-1.226,5.017-4.237H80.7c-.669,4.683-4.237,7.024-9.142,7.024-6.578,0-9.254-4.683-9.254-10.7S65.31,8.9,71.888,8.9c6.132.111,9.031,4.014,9.031,9.7v1.9H66.425Zm10.48-2.676c.111-3.456-1.449-6.132-5.24-6.132-3.233,0-5.129,2.787-5.129,6.132Z" transform="translate(7.16 1.023)" fill="#00aeef"/>
  <path id="パス_57684" data-name="パス 57684" d="M83.368,30.961V13.122H79.8V10.446h3.568V5.986C83.479,1.526,86.936.3,89.834.3a12.1,12.1,0,0,1,2.787.446V3.979c-.669,0-1.338-.111-2.007-.111-2.23,0-3.456.557-3.345,2.787v3.791h4.794v2.676H87.27V30.961Z" transform="translate(9.171 0.034)" fill="#00aeef"/>
</svg>
