<svg id="woocommerce_logo.4e432865" xmlns="http://www.w3.org/2000/svg" width="139.884" height="28.206" viewBox="0 0 139.884 28.206">
  <path id="パス_2151" data-name="パス 2151" d="M142.4,331.2h38.569a4.415,4.415,0,0,1,4.417,4.417v14.723a4.415,4.415,0,0,1-4.417,4.417H167.135l1.9,4.649-8.349-4.649H142.416A4.415,4.415,0,0,1,138,350.339V335.617A4.4,4.4,0,0,1,142.4,331.2Z" transform="translate(-137.999 -331.2)" fill="#9b5c8f" fill-rule="evenodd"/>
  <path id="パス_2152" data-name="パス 2152" d="M148.842,345.987a1.559,1.559,0,0,1,1.22-.6,1.415,1.415,0,0,1,1.685,1.395q.9,6.073,1.957,10.286l4.242-8.078a1.839,1.839,0,0,1,1.453-1.162c.852-.058,1.375.484,1.588,1.627a36.187,36.187,0,0,0,1.84,6.625q.756-7.381,2.557-10.655a1.488,1.488,0,0,1,1.279-.852,1.683,1.683,0,0,1,1.22.387,1.517,1.517,0,0,1,.6,1.1,1.681,1.681,0,0,1-.194.93,23.454,23.454,0,0,0-1.879,6.993,36.075,36.075,0,0,0-.542,7.381,2.3,2.3,0,0,1-.232,1.279,1.248,1.248,0,0,1-1.027.7,1.948,1.948,0,0,1-1.53-.717,19.179,19.179,0,0,1-4.281-8.252q-1.889,3.719-2.79,5.579c-1.143,2.189-2.112,3.313-2.925,3.371-.523.039-.969-.407-1.356-1.337q-1.482-3.806-3.2-14.7A1.73,1.73,0,0,1,148.842,345.987Zm41.649,3.041a4.461,4.461,0,0,0-3.1-2.247,5.083,5.083,0,0,0-1.046-.116,5.224,5.224,0,0,0-4.552,2.906,10.265,10.265,0,0,0-1.511,5.463,7.5,7.5,0,0,0,.93,3.836,4.461,4.461,0,0,0,3.1,2.247,5.087,5.087,0,0,0,1.046.116,5.18,5.18,0,0,0,4.552-2.906,10.38,10.38,0,0,0,1.511-5.482A7.33,7.33,0,0,0,190.492,349.029Zm-2.441,5.366a5.124,5.124,0,0,1-1.472,2.867,1.862,1.862,0,0,1-1.569.62c-.465-.1-.852-.5-1.143-1.259a4.917,4.917,0,0,1-.349-1.763,6.738,6.738,0,0,1,.136-1.414,6.264,6.264,0,0,1,1.027-2.305c.639-.949,1.317-1.337,2.015-1.2.465.1.852.5,1.143,1.259a4.917,4.917,0,0,1,.349,1.763A8.375,8.375,0,0,1,188.051,354.395Zm-9.705-5.366a4.5,4.5,0,0,0-3.1-2.247,5.083,5.083,0,0,0-1.046-.116,5.224,5.224,0,0,0-4.552,2.906,10.265,10.265,0,0,0-1.511,5.463,7.5,7.5,0,0,0,.93,3.836,4.461,4.461,0,0,0,3.1,2.247,5.087,5.087,0,0,0,1.046.116,5.18,5.18,0,0,0,4.552-2.906,10.381,10.381,0,0,0,1.511-5.482A7.33,7.33,0,0,0,178.346,349.029Zm-2.441,5.366a5.124,5.124,0,0,1-1.472,2.867,1.862,1.862,0,0,1-1.569.62c-.465-.1-.852-.5-1.143-1.259a4.917,4.917,0,0,1-.349-1.763,6.739,6.739,0,0,1,.136-1.414,6.264,6.264,0,0,1,1.027-2.305c.639-.949,1.317-1.337,2.015-1.2.465.1.852.5,1.143,1.259a4.917,4.917,0,0,1,.349,1.763A6.8,6.8,0,0,1,175.9,354.395Z" transform="translate(-146.479 -341.977)" fill="#fff"/>
  <path id="パス_2153" data-name="パス 2153" d="M399.837,358.718A6.553,6.553,0,0,0,397.9,363.6a7.019,7.019,0,0,0,1.918,5.134,6.727,6.727,0,0,0,5.017,1.957,7.3,7.3,0,0,0,2.015-.31v-3.138a6.52,6.52,0,0,1-1.763.291,3.172,3.172,0,0,1-2.46-1.027,4.6,4.6,0,0,1-.019-5.521,2.9,2.9,0,0,1,2.305-1.065,7.234,7.234,0,0,1,1.937.291v-3.138a8.092,8.092,0,0,0-2.112-.252A6.6,6.6,0,0,0,399.837,358.718Zm13.444-1.918a5.211,5.211,0,0,0-4.184,1.782,7.454,7.454,0,0,0-1.492,4.979,8.23,8.23,0,0,0,1.492,5.289,5.269,5.269,0,0,0,4.339,1.84,5.15,5.15,0,0,0,4.242-1.84,8,8,0,0,0,1.492-5.153,7.744,7.744,0,0,0-1.511-5.114A5.485,5.485,0,0,0,413.281,356.8Zm1.53,10.073a1.721,1.721,0,0,1-1.53.814,1.558,1.558,0,0,1-1.414-.814,7.173,7.173,0,0,1-.484-3.274c0-2.538.639-3.8,1.937-3.8,1.356,0,2.053,1.279,2.053,3.855A6.793,6.793,0,0,1,414.812,366.873Zm13.928-9.705-.7,2.964c-.174.755-.349,1.53-.5,2.325l-.387,2.053c-.368-2.053-.872-4.494-1.511-7.342h-4.494l-1.685,13.192h3.371l.91-9.085,2.305,9.085h2.4l2.208-9.066.949,9.066h3.526l-1.782-13.192h-4.61Zm16.137,0-.7,2.964c-.174.755-.349,1.53-.5,2.325l-.387,2.053c-.368-2.053-.872-4.494-1.511-7.342h-4.494L435.6,370.36h3.371l.91-9.085,2.305,9.085h2.4l2.189-9.066.949,9.066h3.526l-1.782-13.192Zm10.964,7.981H459v-2.731h-3.158V360h3.642v-2.809h-7.206V370.38H459.5v-2.809h-3.661Zm13.7-2.092a3.526,3.526,0,0,0,.562-1.86,3.473,3.473,0,0,0-1.453-2.945,6.571,6.571,0,0,0-3.971-1.085h-4.146V370.36h3.564v-6.005h.058l2.886,6.005H470.8l-2.848-5.947a3.522,3.522,0,0,0,1.589-1.356Zm-5.463-.213v-3.138a3.259,3.259,0,0,1,1.821.426,1.507,1.507,0,0,1,.542,1.317C466.437,362.36,465.643,362.825,464.074,362.844Zm8.117-4.126a6.553,6.553,0,0,0-1.937,4.882,7.019,7.019,0,0,0,1.918,5.134,6.727,6.727,0,0,0,5.017,1.957,7.3,7.3,0,0,0,2.015-.31v-3.138a6.521,6.521,0,0,1-1.763.291,3.172,3.172,0,0,1-2.46-1.027,4.6,4.6,0,0,1-.019-5.521,2.9,2.9,0,0,1,2.305-1.065,7.236,7.236,0,0,1,1.937.291v-3.138a8.092,8.092,0,0,0-2.112-.252,6.627,6.627,0,0,0-4.9,1.9Zm11.565,8.814v-2.4h3.158V362.4h-3.158v-2.421h3.661v-2.809h-7.206V370.36h7.226v-2.809h-3.681Z" transform="translate(-347.553 -351.841)" fill="#fff"/>
</svg>
