<svg id="information" xmlns="http://www.w3.org/2000/svg" width="20" height="20" viewBox="0 0 22.953 22.953">
  <g id="グループ_5295" data-name="グループ 5295">
    <g id="グループ_5294" data-name="グループ 5294">
      <circle id="楕円形_13" data-name="楕円形 13" cx="1.121" cy="1.121" r="1.121" transform="translate(10.356 15.848)" fill="#fff"/>
      <path id="パス_2225" data-name="パス 2225" d="M11.477,0A11.477,11.477,0,1,0,22.953,11.477,11.47,11.47,0,0,0,11.477,0Zm0,21.16a9.683,9.683,0,1,1,9.683-9.683A9.678,9.678,0,0,1,11.477,21.16Z" fill="#fff"/>
      <path id="パス_2226" data-name="パス 2226" d="M179.586,128.5A3.59,3.59,0,0,0,176,132.086a.9.9,0,0,0,1.793,0,1.793,1.793,0,1,1,1.793,1.793.9.9,0,0,0-.9.9v2.242a.9.9,0,1,0,1.793,0v-1.458a3.587,3.587,0,0,0-.9-7.059Z" transform="translate(-168.11 -122.739)" fill="#fff"/>
    </g>
  </g>
</svg>