<svg xmlns="http://www.w3.org/2000/svg" width="64" height="64" viewBox="0 0 64 64">
  <g id="グループ_69053" data-name="グループ 69053" transform="translate(13710 -2862)">
    <g id="グループ_69052" data-name="グループ 69052" transform="translate(-13709.999 2862)">
      <circle id="楕円形_13" data-name="楕円形 13" cx="3.078" cy="3.078" r="3.078" transform="translate(28.922 45.556)" fill="#fff"/>
      <path id="パス_2225" data-name="パス 2225" d="M32,0A31.98,31.98,0,1,0,54.633,9.368,32,32,0,0,0,32,0Zm0,59a26.984,26.984,0,1,1,19.095-7.9A27,27,0,0,1,32,59Z" transform="translate(0 0)" fill="#fff"/>
      <path id="パス_2226" data-name="パス 2226" d="M187.5,128.5A11.51,11.51,0,0,0,176,140a2.885,2.885,0,0,0,5.748,0,5.748,5.748,0,1,1,5.748,5.748,2.885,2.885,0,0,0-2.885,2.885v7.188a2.885,2.885,0,1,0,5.748,0v-4.674a11.5,11.5,0,0,0-2.885-22.631Z" transform="translate(-155.487 -116.819)" fill="#fff"/>
    </g>
  </g>
</svg>
