<?xml version="1.0" encoding="UTF-8"?>
<svg id="_イヤー_1" data-name="レイヤー 1" xmlns="http://www.w3.org/2000/svg" width="227.36" height="76" viewBox="0 0 227.36 76">
  <g>
    <g>
      <path d="M209.26,0H18.12C17.42,0,16.73,0,16.04,0c-.58,0-1.16,.01-1.75,.02-1.28,.02-2.55,.13-3.81,.34-1.26,.21-2.47,.61-3.61,1.19-1.14,.58-2.17,1.34-3.08,2.24-.91,.9-1.66,1.94-2.24,3.08-.58,1.14-.98,2.36-1.19,3.62C.16,11.75,.04,13.02,.03,14.29c-.02,.58-.02,1.17-.03,1.75V59.96c0,.59,.01,1.16,.03,1.75,.02,1.27,.13,2.55,.34,3.8,.21,1.26,.61,2.48,1.19,3.62,.58,1.14,1.33,2.17,2.24,3.07,.9,.91,1.94,1.66,3.08,2.24,1.14,.58,2.35,.98,3.61,1.2,1.26,.21,2.53,.32,3.81,.34,.59,.01,1.16,.02,1.75,.02,.69,0,1.38,0,2.08,0H209.26c.68,0,1.38,0,2.06,0,.58,0,1.17,0,1.75-.02,1.27-.02,2.54-.13,3.8-.34,1.26-.22,2.48-.62,3.63-1.2,1.14-.58,2.17-1.33,3.07-2.24,.9-.9,1.66-1.93,2.25-3.07,.57-1.14,.97-2.36,1.18-3.62,.21-1.26,.33-2.53,.35-3.8,0-.59,0-1.16,0-1.75,.01-.69,.01-1.38,.01-2.08V18.12c0-.7,0-1.39-.01-2.07,0-.58,0-1.17,0-1.75-.02-1.27-.14-2.55-.35-3.8-.21-1.26-.6-2.48-1.18-3.62-1.17-2.29-3.03-4.15-5.32-5.32-1.14-.58-2.36-.98-3.63-1.19-1.26-.21-2.53-.32-3.8-.34-.58,0-1.17-.02-1.75-.02-.68,0-1.38,0-2.06,0h0Z" style="fill: #a6a6a6;"/>
      <path d="M16.05,74.34c-.58,0-1.14,0-1.72-.02-1.19-.02-2.38-.12-3.55-.31-1.1-.19-2.16-.54-3.15-1.04-.98-.5-1.88-1.15-2.65-1.93-.79-.77-1.44-1.67-1.94-2.65-.5-.99-.85-2.05-1.03-3.15-.2-1.18-.3-2.37-.32-3.56-.01-.4-.03-1.73-.03-1.73V16.04s.02-1.31,.03-1.7c.01-1.19,.12-2.38,.31-3.56,.18-1.1,.53-2.16,1.03-3.16,.5-.98,1.15-1.88,1.93-2.66,.78-.78,1.68-1.44,2.66-1.94,.99-.5,2.05-.85,3.14-1.03,1.18-.19,2.37-.3,3.56-.31l1.71-.02H211.31l1.73,.02c1.18,.01,2.36,.12,3.53,.31,1.1,.19,2.17,.54,3.17,1.04,1.97,1.02,3.58,2.62,4.59,4.6,.5,.99,.84,2.04,1.02,3.13,.2,1.19,.31,2.38,.33,3.59,0,.54,0,1.12,0,1.69,.02,.71,.02,1.39,.02,2.07V57.88c0,.69,0,1.36-.02,2.04,0,.62,0,1.18,0,1.77-.02,1.18-.13,2.36-.32,3.52-.18,1.1-.52,2.17-1.03,3.17-.5,.97-1.15,1.86-1.93,2.63-.78,.79-1.67,1.44-2.66,1.94-1,.51-2.07,.86-3.17,1.04-1.17,.19-2.36,.3-3.55,.31-.56,.01-1.14,.02-1.71,.02H16.05Z"/>
    </g>
    <g id="_Group_" data-name=" Group ">
      <g id="_Group_2" data-name=" Group 2">
        <g id="_Group_3" data-name=" Group 3">
          <path id="_Path_" data-name=" Path " d="M47.06,38.57c.04-3.22,1.73-6.2,4.48-7.89-1.74-2.49-4.55-4-7.58-4.1-3.19-.33-6.28,1.91-7.91,1.91s-4.16-1.88-6.86-1.82c-3.55,.11-6.77,2.08-8.5,5.18-3.67,6.36-.93,15.71,2.59,20.85,1.76,2.52,3.82,5.33,6.51,5.23,2.64-.11,3.62-1.68,6.8-1.68s4.08,1.68,6.82,1.62c2.83-.05,4.61-2.53,6.31-5.07,1.27-1.79,2.24-3.78,2.88-5.88-3.36-1.42-5.54-4.71-5.55-8.36Z" style="fill: #fff;"/>
          <path id="_Path_2" data-name=" Path 2" d="M41.87,23.2c1.54-1.85,2.3-4.23,2.12-6.63-2.36,.25-4.53,1.37-6.09,3.15-1.54,1.76-2.32,4.05-2.17,6.39,2.39,.02,4.65-1.05,6.15-2.91Z" style="fill: #fff;"/>
        </g>
      </g>
      <g>
        <path d="M80.37,51.57h-8.99l-2.16,6.38h-3.81l8.52-23.59h3.96l8.52,23.59h-3.87l-2.16-6.38Zm-8.06-2.94h7.13l-3.51-10.35h-.1l-3.52,10.35Z" style="fill: #fff;"/>
        <path d="M104.8,49.34c0,5.35-2.86,8.78-7.18,8.78-2.23,.12-4.33-1.05-5.41-3.01h-.08v8.52h-3.53v-22.89h3.42v2.86h.06c1.13-1.95,3.23-3.11,5.48-3.04,4.37,0,7.24,3.45,7.24,8.78Zm-3.63,0c0-3.48-1.8-5.77-4.55-5.77s-4.51,2.34-4.51,5.77,1.81,5.79,4.51,5.79,4.55-2.27,4.55-5.79Z" style="fill: #fff;"/>
        <path d="M123.74,49.34c0,5.35-2.86,8.78-7.18,8.78-2.23,.12-4.33-1.05-5.41-3.01h-.08v8.52h-3.53v-22.89h3.42v2.86h.06c1.13-1.95,3.23-3.11,5.48-3.04,4.37,0,7.24,3.45,7.24,8.78Zm-3.63,0c0-3.48-1.8-5.77-4.55-5.77s-4.51,2.34-4.51,5.77,1.81,5.79,4.51,5.79,4.55-2.27,4.55-5.79h0Z" style="fill: #fff;"/>
        <path d="M136.25,51.37c.26,2.34,2.53,3.88,5.64,3.88s5.12-1.54,5.12-3.65c0-1.83-1.29-2.93-4.35-3.68l-3.06-.74c-4.33-1.05-6.34-3.07-6.34-6.36,0-4.07,3.55-6.87,8.59-6.87s8.4,2.8,8.52,6.87h-3.56c-.21-2.35-2.16-3.78-5-3.78s-4.79,1.44-4.79,3.53c0,1.67,1.24,2.65,4.28,3.4l2.6,.64c4.84,1.14,6.85,3.09,6.85,6.54,0,4.41-3.52,7.18-9.11,7.18-5.23,0-8.77-2.7-8.99-6.97h3.61Z" style="fill: #fff;"/>
        <path d="M158.36,36.67v4.07h3.27v2.8h-3.27v9.48c0,1.47,.65,2.16,2.09,2.16,.39,0,.78-.03,1.16-.08v2.78c-.65,.12-1.3,.18-1.96,.16-3.48,0-4.84-1.31-4.84-4.64v-9.86h-2.5v-2.8h2.5v-4.07h3.55Z" style="fill: #fff;"/>
        <path d="M163.52,49.34c0-5.41,3.19-8.81,8.16-8.81s8.16,3.4,8.16,8.81-3.16,8.81-8.16,8.81-8.16-3.39-8.16-8.81Zm12.72,0c0-3.71-1.7-5.9-4.56-5.9s-4.56,2.21-4.56,5.9,1.7,5.9,4.56,5.9,4.56-2.17,4.56-5.9h0Z" style="fill: #fff;"/>
        <path d="M182.75,40.74h3.37v2.93h.08c.47-1.88,2.2-3.18,4.14-3.11,.41,0,.81,.04,1.21,.13v3.3c-.51-.16-1.05-.23-1.59-.21-1.96-.08-3.62,1.45-3.7,3.41,0,.18,0,.37,.02,.55v10.2h-3.53v-17.2Z" style="fill: #fff;"/>
        <path d="M207.83,52.89c-.47,3.12-3.52,5.27-7.41,5.27-5,0-8.11-3.35-8.11-8.73s3.12-8.9,7.96-8.9,7.75,3.27,7.75,8.49v1.21h-12.15v.21c-.22,2.46,1.6,4.64,4.07,4.86,.19,.02,.37,.02,.56,.01,1.71,.16,3.33-.82,3.97-2.42h3.35Zm-11.94-5.13h8.6c.13-2.28-1.62-4.23-3.9-4.36-.11,0-.21,0-.32,0-2.41-.01-4.37,1.92-4.38,4.33,0,.01,0,.02,0,.04Z" style="fill: #fff;"/>
      </g>
    </g>
  </g>
  <g id="_Group_4" data-name=" Group 4">
    <g>
      <path d="M71.87,16.59c2.76-.2,5.16,1.88,5.36,4.64,.02,.33,.01,.66-.03,.99,0,3.62-1.96,5.7-5.33,5.7h-4.09v-11.34h4.09Zm-2.33,9.73h2.14c1.96,.12,3.65-1.38,3.77-3.35,.01-.24,0-.49-.03-.73,.27-1.96-1.1-3.76-3.05-4.03-.23-.03-.46-.04-.68-.03h-2.14v8.13Z" style="fill: #fff;"/>
      <path d="M79.19,23.64c-.21-2.23,1.42-4.21,3.65-4.42,2.23-.21,4.21,1.42,4.42,3.65,.02,.26,.02,.52,0,.77,.22,2.23-1.41,4.21-3.64,4.43-2.23,.22-4.21-1.41-4.43-3.64-.03-.26-.03-.52,0-.79Zm6.33,0c0-1.85-.83-2.94-2.3-2.94s-2.29,1.08-2.29,2.94,.83,2.95,2.29,2.95c1.46,0,2.3-1.08,2.3-2.95h0Z" style="fill: #fff;"/>
      <path d="M97.99,27.93h-1.75l-1.77-6.3h-.13l-1.76,6.3h-1.73l-2.36-8.56h1.71l1.53,6.53h.13l1.76-6.53h1.62l1.76,6.53h.13l1.53-6.53h1.69l-2.35,8.56Z" style="fill: #fff;"/>
      <path d="M102.32,19.37h1.63v1.36h.13c.44-1,1.46-1.61,2.55-1.52,1.53-.12,2.87,1.03,2.98,2.57,.02,.21,0,.41-.02,.62v5.54h-1.69v-5.11c0-1.37-.6-2.06-1.85-2.06-1.08-.05-2,.79-2.05,1.87,0,.1,0,.2,0,.3v5.01h-1.69v-8.56Z" style="fill: #fff;"/>
      <path d="M112.28,16.03h1.69v11.9h-1.69v-11.9Z" style="fill: #fff;"/>
      <path d="M116.31,23.64c-.21-2.23,1.42-4.21,3.65-4.42,2.23-.21,4.21,1.42,4.42,3.65,.02,.26,.02,.51,0,.77,.22,2.23-1.41,4.21-3.64,4.43s-4.21-1.41-4.43-3.64c-.03-.26-.03-.52,0-.78Zm6.33,0c0-1.85-.83-2.94-2.3-2.94s-2.29,1.08-2.29,2.94,.83,2.95,2.29,2.95c1.46,0,2.3-1.08,2.3-2.95Z" style="fill: #fff;"/>
      <path d="M126.16,25.51c0-1.54,1.15-2.43,3.18-2.55l2.32-.13v-.74c0-.9-.6-1.41-1.75-1.41-.94,0-1.6,.35-1.78,.95h-1.63c.17-1.47,1.55-2.41,3.5-2.41,2.14,0,3.35,1.07,3.35,2.88v5.85h-1.63v-1.2h-.13c-.55,.88-1.53,1.39-2.57,1.34-1.42,.15-2.69-.88-2.84-2.3,0-.09-.01-.17-.01-.26Zm5.5-.73v-.72l-2.09,.13c-1.18,.08-1.71,.48-1.71,1.23s.67,1.22,1.59,1.22c1.11,.11,2.1-.7,2.21-1.8,0-.02,0-.04,0-.07Z" style="fill: #fff;"/>
      <path d="M135.56,23.64c0-2.7,1.39-4.42,3.55-4.42,1.09-.05,2.11,.53,2.62,1.5h.13v-4.7h1.69v11.9h-1.62v-1.35h-.13c-.55,.96-1.58,1.53-2.69,1.49-2.18,0-3.55-1.71-3.55-4.42Zm1.74,0c0,1.81,.86,2.91,2.29,2.91s2.3-1.11,2.3-2.9-.89-2.91-2.3-2.91-2.29,1.1-2.29,2.9h0Z" style="fill: #fff;"/>
      <path d="M150.54,23.64c-.21-2.23,1.42-4.21,3.65-4.42s4.21,1.42,4.42,3.65c.02,.26,.02,.52,0,.77,.22,2.23-1.41,4.21-3.64,4.43-2.23,.22-4.21-1.41-4.43-3.64-.03-.26-.03-.52,0-.79Zm6.33,0c0-1.85-.83-2.94-2.3-2.94s-2.29,1.08-2.29,2.94,.83,2.95,2.29,2.95c1.46,0,2.3-1.08,2.3-2.95Z" style="fill: #fff;"/>
      <path d="M160.87,19.37h1.63v1.36h.13c.44-1,1.46-1.61,2.55-1.52,1.53-.12,2.87,1.03,2.98,2.57,.02,.21,0,.41-.02,.62v5.54h-1.69v-5.11c0-1.37-.6-2.06-1.85-2.06-1.08-.05-2,.79-2.05,1.87,0,.1,0,.2,0,.3v5.01h-1.69v-8.56Z" style="fill: #fff;"/>
      <path d="M177.68,17.24v2.17h1.85v1.42h-1.85v4.4c0,.9,.37,1.29,1.21,1.29,.22,0,.43-.01,.64-.04v1.41c-.3,.05-.61,.08-.92,.09-1.88,0-2.63-.66-2.63-2.31v-4.83h-1.36v-1.42h1.36v-2.17h1.69Z" style="fill: #fff;"/>
      <path d="M181.84,16.03h1.67v4.71h.13c.46-1.01,1.5-1.62,2.61-1.53,1.55-.08,2.88,1.11,2.97,2.66,0,.18,0,.35-.02,.53v5.52h-1.69v-5.11c0-1.37-.64-2.06-1.83-2.06-1.1-.09-2.07,.73-2.16,1.83,0,.11,0,.23,0,.34v5h-1.69v-11.9Z" style="fill: #fff;"/>
      <path d="M199.05,25.62c-.47,1.61-2.04,2.66-3.71,2.48-2.15,.06-3.93-1.64-3.99-3.78,0-.21,0-.42,.04-.63-.29-2.16,1.23-4.15,3.39-4.44,.18-.02,.37-.04,.56-.03,2.38,0,3.82,1.63,3.82,4.31v.59h-6.04v.09c-.1,1.24,.82,2.34,2.06,2.44,.07,0,.14,0,.21,0,.83,.1,1.63-.31,2.04-1.04h1.63Zm-5.94-2.76h4.32c.08-1.14-.77-2.13-1.91-2.21-.07,0-.13,0-.2,0-1.21-.02-2.2,.95-2.22,2.16,0,.02,0,.04,0,.06h0Z" style="fill: #fff;"/>
    </g>
  </g>
</svg>