<svg id="レイヤー_1" data-name="レイヤー 1" xmlns="http://www.w3.org/2000/svg" width="300" height="100" viewBox="0 0 300 100">
  <g>
    <g>
      <g>
        <path d="M245.57,12H52.36l-1.75,0a25.56,25.56,0,0,0-3.81.33,12.78,12.78,0,0,0-3.61,1.2,12.3,12.3,0,0,0-3.08,2.23,11.89,11.89,0,0,0-2.23,3.08,12.52,12.52,0,0,0-1.19,3.62,24.29,24.29,0,0,0-.34,3.8c0,.59,0,1.17,0,1.75V72c0,.59,0,1.16,0,1.75a24.3,24.3,0,0,0,.34,3.81,12.36,12.36,0,0,0,1.19,3.61,11.67,11.67,0,0,0,2.23,3.07,11.92,11.92,0,0,0,3.08,2.24,12.78,12.78,0,0,0,3.61,1.2,25.57,25.57,0,0,0,3.81.34l1.75,0H247.63l1.76,0a25.55,25.55,0,0,0,3.8-.34,12.85,12.85,0,0,0,3.62-1.2,11.71,11.71,0,0,0,3.07-2.24,11.91,11.91,0,0,0,2.25-3.07,12.64,12.64,0,0,0,1.18-3.61,25.58,25.58,0,0,0,.35-3.81c0-.59,0-1.16,0-1.75s0-1.38,0-2.08V30.12c0-.7,0-1.39,0-2.08s0-1.16,0-1.75a25.57,25.57,0,0,0-.35-3.8,12.81,12.81,0,0,0-1.18-3.62,12.24,12.24,0,0,0-5.32-5.31,12.85,12.85,0,0,0-3.62-1.2,24.27,24.27,0,0,0-3.8-.33l-1.76,0Z" style="fill: #a6a6a6"/>
        <path d="M52.36,86.34l-1.71,0A24.77,24.77,0,0,1,47.1,86,11.22,11.22,0,0,1,44,85a10.69,10.69,0,0,1-4.6-4.59,10.88,10.88,0,0,1-1-3.15A23.66,23.66,0,0,1,38,73.67c0-.4,0-1.73,0-1.73V28s0-1.31,0-1.7a23.41,23.41,0,0,1,.31-3.55,11,11,0,0,1,1-3.16A10.53,10.53,0,0,1,41.28,17,10.68,10.68,0,0,1,44,15a10.82,10.82,0,0,1,3.14-1,22.42,22.42,0,0,1,3.56-.31l1.72,0H247.63l1.73,0a22,22,0,0,1,3.53.31,10.89,10.89,0,0,1,3.18,1,10.58,10.58,0,0,1,4.58,4.59,10.9,10.9,0,0,1,1,3.14,23.83,23.83,0,0,1,.33,3.58c0,.54,0,1.12,0,1.69,0,.72,0,1.4,0,2.08V69.88c0,.69,0,1.37,0,2.05s0,1.18,0,1.76a23,23,0,0,1-.33,3.52,10.75,10.75,0,0,1-1,3.18A10.37,10.37,0,0,1,258.72,83,10.16,10.16,0,0,1,256.06,85,11.15,11.15,0,0,1,252.89,86a24.77,24.77,0,0,1-3.55.31l-1.71,0H52.36Z"/>
      </g>
      <g id="_Group_" data-name=" Group ">
        <g id="_Group_2" data-name=" Group 2">
          <g id="_Group_3" data-name=" Group 3">
            <path id="_Path_" data-name=" Path " d="M83.38,50.57a9.4,9.4,0,0,1,4.48-7.89,9.66,9.66,0,0,0-7.59-4.1c-3.19-.33-6.28,1.91-7.9,1.91s-4.17-1.87-6.86-1.82A10.11,10.11,0,0,0,57,43.85c-3.67,6.37-.93,15.72,2.59,20.86,1.76,2.52,3.82,5.33,6.51,5.23s3.62-1.68,6.8-1.68,4.08,1.68,6.82,1.62,4.61-2.53,6.31-5.07a20.9,20.9,0,0,0,2.89-5.88A9.08,9.08,0,0,1,83.38,50.57Z" style="fill: #fff"/>
            <path id="_Path_2" data-name=" Path 2" d="M78.19,35.2a9.28,9.28,0,0,0,2.12-6.63,9.45,9.45,0,0,0-6.1,3.15A8.85,8.85,0,0,0,72,38.11,7.81,7.81,0,0,0,78.19,35.2Z" style="fill: #fff"/>
          </g>
        </g>
        <g>
          <path d="M116.69,63.57h-9l-2.16,6.37h-3.81l8.52-23.59h4l8.52,23.59h-3.88Zm-8.06-3h7.13l-3.51-10.35h-.1Z" style="fill: #fff"/>
          <path d="M141.12,61.34c0,5.35-2.86,8.78-7.18,8.78a5.82,5.82,0,0,1-5.41-3h-.08v8.52h-3.53V52.74h3.42V55.6h.06a6.12,6.12,0,0,1,5.48-3C138.24,52.56,141.12,56,141.12,61.34Zm-3.63,0c0-3.48-1.8-5.77-4.54-5.77s-4.52,2.34-4.52,5.77,1.82,5.79,4.52,5.79S137.49,64.86,137.49,61.34Z" style="fill: #fff"/>
          <path d="M160.06,61.34c0,5.35-2.87,8.78-7.18,8.78a5.84,5.84,0,0,1-5.42-3h-.08v8.52h-3.53V52.74h3.42V55.6h.06a6.13,6.13,0,0,1,5.48-3C157.18,52.56,160.06,56,160.06,61.34Zm-3.63,0c0-3.48-1.8-5.77-4.55-5.77s-4.51,2.34-4.51,5.77,1.81,5.79,4.51,5.79,4.55-2.27,4.55-5.79Z" style="fill: #fff"/>
          <path d="M172.57,63.37c.26,2.34,2.53,3.87,5.64,3.87s5.12-1.53,5.12-3.64c0-1.83-1.29-2.93-4.35-3.68l-3.06-.74c-4.33-1-6.34-3.07-6.34-6.36,0-4.07,3.54-6.86,8.58-6.86s8.4,2.79,8.52,6.86h-3.56c-.22-2.35-2.16-3.77-5-3.77s-4.79,1.43-4.79,3.53c0,1.67,1.24,2.65,4.28,3.4l2.6.64c4.85,1.14,6.86,3.09,6.86,6.54,0,4.41-3.52,7.18-9.11,7.18-5.23,0-8.77-2.7-9-7Z" style="fill: #fff"/>
          <path d="M194.68,48.67v4.07H198v2.8h-3.27V65c0,1.47.65,2.16,2.09,2.16a11.11,11.11,0,0,0,1.16-.08v2.78a9.91,9.91,0,0,1-2,.16c-3.48,0-4.84-1.31-4.84-4.64V55.54h-2.5v-2.8h2.5V48.67Z" style="fill: #fff"/>
          <path d="M199.84,61.34c0-5.41,3.19-8.81,8.16-8.81s8.16,3.4,8.16,8.81S213,70.16,208,70.16,199.84,66.77,199.84,61.34Zm12.72,0c0-3.71-1.7-5.9-4.56-5.9s-4.56,2.21-4.56,5.9,1.7,5.9,4.56,5.9,4.56-2.17,4.56-5.9Z" style="fill: #fff"/>
          <path d="M219.07,52.74h3.37v2.93h.08a4.11,4.11,0,0,1,4.14-3.11,5.47,5.47,0,0,1,1.21.13V56a5,5,0,0,0-1.59-.22,3.56,3.56,0,0,0-3.7,3.41,5,5,0,0,0,0,.55v10.2h-3.53Z" style="fill: #fff"/>
          <path d="M244.15,64.89c-.48,3.12-3.52,5.27-7.41,5.27-5,0-8.11-3.36-8.11-8.74s3.12-8.89,8-8.89,7.76,3.27,7.76,8.48v1.21H232.2v.22a4.48,4.48,0,0,0,4.06,4.86,5.28,5.28,0,0,0,.56,0,3.9,3.9,0,0,0,4-2.42Zm-11.94-5.13h8.6a4.13,4.13,0,0,0-3.9-4.36h-.32a4.36,4.36,0,0,0-4.38,4.33Z" style="fill: #fff"/>
        </g>
      </g>
    </g>
    <g id="_Group_4" data-name=" Group 4">
      <g>
        <path d="M108.19,28.59a5,5,0,0,1,5.36,4.64,4.69,4.69,0,0,1,0,1c0,3.62-2,5.71-5.33,5.71h-4.1V28.59Zm-2.34,9.73H108A3.55,3.55,0,0,0,111.76,35a3,3,0,0,0,0-.73,3.57,3.57,0,0,0-3-4,4,4,0,0,0-.69,0h-2.14Z" style="fill: #fff"/>
        <path d="M115.51,35.64a4.05,4.05,0,0,1,8.07-.77,3.3,3.3,0,0,1,0,.77,4.05,4.05,0,0,1-8.07.79A5.21,5.21,0,0,1,115.51,35.64Zm6.34,0c0-1.85-.84-2.93-2.3-2.93s-2.29,1.08-2.29,2.93.82,3,2.29,3,2.3-1.08,2.3-3Z" style="fill: #fff"/>
        <path d="M134.31,39.93h-1.75l-1.77-6.31h-.14l-1.76,6.31h-1.73l-2.36-8.56h1.71l1.54,6.53h.12l1.76-6.53h1.62l1.76,6.53h.13L135,31.37h1.69Z" style="fill: #fff"/>
        <path d="M138.64,31.37h1.63v1.36h.12A2.57,2.57,0,0,1,143,31.21a2.78,2.78,0,0,1,3,2.56,3.22,3.22,0,0,1,0,.62v5.54h-1.69V34.81c0-1.37-.6-2.06-1.85-2.06a2,2,0,0,0-2.05,1.87c0,.1,0,.2,0,.3v5h-1.69Z" style="fill: #fff"/>
        <path d="M148.6,28h1.69v11.9H148.6Z" style="fill: #fff"/>
        <path d="M152.63,35.64a4.05,4.05,0,1,1,8.07-.77,3.3,3.3,0,0,1,0,.77,4.05,4.05,0,0,1-8.07.79A5.21,5.21,0,0,1,152.63,35.64Zm6.34,0c0-1.85-.84-2.93-2.3-2.93s-2.29,1.08-2.29,2.93.82,3,2.29,3S159,37.51,159,35.64Z" style="fill: #fff"/>
        <path d="M162.48,37.51c0-1.54,1.15-2.43,3.18-2.56l2.32-.13v-.74c0-.9-.6-1.41-1.75-1.41-.94,0-1.6.34-1.78.95h-1.64c.17-1.47,1.56-2.41,3.5-2.41,2.14,0,3.35,1.06,3.35,2.87v5.85H168V38.72h-.14a2.89,2.89,0,0,1-2.57,1.35,2.6,2.6,0,0,1-2.84-2.31C162.49,37.68,162.48,37.59,162.48,37.51Zm5.5-.73v-.72l-2.09.13c-1.18.08-1.71.48-1.71,1.24s.67,1.22,1.59,1.22a2,2,0,0,0,2.2-1.81A.13.13,0,0,0,168,36.78Z" style="fill: #fff"/>
        <path d="M171.88,35.64c0-2.7,1.39-4.41,3.55-4.41a2.82,2.82,0,0,1,2.63,1.5h.12V28h1.69v11.9h-1.62V38.57h-.13a3,3,0,0,1-2.69,1.5C173.26,40.07,171.88,38.35,171.88,35.64Zm1.74,0c0,1.82.86,2.91,2.29,2.91s2.3-1.11,2.3-2.9-.89-2.9-2.3-2.9-2.29,1.09-2.29,2.89Z" style="fill: #fff"/>
        <path d="M186.86,35.64a4.05,4.05,0,1,1,8.07-.77,5,5,0,0,1,0,.77,4.05,4.05,0,0,1-8.07.79A3.48,3.48,0,0,1,186.86,35.64Zm6.33,0c0-1.85-.83-2.93-2.3-2.93s-2.29,1.08-2.29,2.93.83,3,2.29,3S193.19,37.51,193.19,35.64Z" style="fill: #fff"/>
        <path d="M197.19,31.37h1.63v1.36h.12a2.57,2.57,0,0,1,2.56-1.52,2.78,2.78,0,0,1,3,2.56,3.22,3.22,0,0,1,0,.62v5.54h-1.69V34.81c0-1.37-.6-2.06-1.85-2.06a2,2,0,0,0-2,1.87c0,.1,0,.2,0,.3v5h-1.69Z" style="fill: #fff"/>
        <path d="M214,29.24v2.17h1.85v1.42H214v4.4c0,.9.37,1.29,1.21,1.29a4.58,4.58,0,0,0,.64,0v1.41a5.62,5.62,0,0,1-.92.08c-1.87,0-2.62-.66-2.62-2.31V32.83H211V31.41h1.36V29.24Z" style="fill: #fff"/>
        <path d="M218.16,28h1.67v4.72H220a2.64,2.64,0,0,1,2.61-1.54,2.82,2.82,0,0,1,3,2.66,3.09,3.09,0,0,1,0,.53v5.53h-1.69V34.82c0-1.37-.64-2.06-1.83-2.06a2,2,0,0,0-2.15,1.83,1.93,1.93,0,0,0,0,.34v5h-1.69Z" style="fill: #fff"/>
        <path d="M235.37,37.62a3.48,3.48,0,0,1-3.71,2.47,3.89,3.89,0,0,1-4-3.78,4.35,4.35,0,0,1,0-.63,4,4,0,0,1,3.38-4.44,3.51,3.51,0,0,1,.56,0c2.38,0,3.82,1.62,3.82,4.31v.59h-6v.09a2.26,2.26,0,0,0,2.06,2.45h.21a2.06,2.06,0,0,0,2-1Zm-5.94-2.76h4.32a2.06,2.06,0,0,0-1.91-2.21h-.2a2.18,2.18,0,0,0-2.21,2.16v.06Z" style="fill: #fff"/>
      </g>
    </g>
  </g>
</svg>
