<?xml version="1.0" encoding="UTF-8"?>
<svg id="_イヤー_1" data-name="レイヤー 1" xmlns="http://www.w3.org/2000/svg" width="300" height="100" viewBox="0 0 300 100">
  <path d="M89.81,66.62h23.74v-6.12h-16.31v-8.39h15.03v-6.12h-15.03v-8.37h16.25v-6.12h-23.67v35.13Zm34.58-26.35h-7.55l7.55,13.18-7.82,13.18h7.55l5.11-9.11,5.2,9.11h7.46l-7.84-13.18,7.63-13.18h-7.5l-4.96,9.21-4.84-9.21Zm20.67,36.23h7.31v-14.1h.22c1.01,2.2,3.23,4.65,7.48,4.65,6,0,10.69-4.75,10.69-13.57s-4.89-13.55-10.67-13.55c-4.41,0-6.52,2.62-7.5,4.77h-.33v-4.43h-7.2v36.23Zm7.15-23.06c0-4.7,1.99-7.7,5.54-7.7s5.54,3.14,5.54,7.7-1.96,7.79-5.54,7.79-5.54-3.09-5.54-7.79Zm29.76-21.96h-7.31v35.13h7.31V31.48Zm16.79,35.65c7.99,0,12.97-5.47,12.97-13.59s-4.98-13.62-12.97-13.62-12.97,5.46-12.97,13.62,4.97,13.59,12.97,13.59Zm.03-5.66c-3.69,0-5.58-3.38-5.58-7.98s1.89-7.99,5.58-7.99,5.51,3.4,5.51,7.99-1.89,7.98-5.51,7.98Zm16.72,5.15h7.31v-14.91c0-3.24,2.37-5.47,5.59-5.47,1.01,0,2.4,.17,3.09,.39v-6.48c-.65-.15-1.56-.26-2.3-.26-2.95,0-5.37,1.72-6.33,4.98h-.27v-4.6h-7.09v26.35Zm29.58,.51c6.52,0,10.91-3.17,11.94-8.06l-6.76-.45c-.74,2.01-2.62,3.05-5.06,3.05-3.65,0-5.97-2.42-5.97-6.35v-.02h17.94v-2.01c0-8.96-5.42-13.38-12.39-13.38-7.75,0-12.78,5.51-12.78,13.64s4.96,13.57,13.07,13.57Zm-5.85-16.35c.15-3,2.44-5.4,5.68-5.4s5.37,2.26,5.39,5.4h-11.06Zm21.75,15.83h7.31v-14.91c0-3.24,2.37-5.47,5.59-5.47,1.01,0,2.4,.17,3.09,.39v-6.48c-.65-.15-1.56-.26-2.3-.26-2.95,0-5.37,1.72-6.33,4.98h-.27v-4.6h-7.09v26.35Z" style="fill: #fff;"/>
  <path d="M74.31,49.15c0,14.17-11.49,25.65-25.65,25.65s-25.65-11.49-25.65-25.65,11.49-25.65,25.65-25.65,25.65,11.49,25.65,25.65Zm-32.92,10.21h-4.98c-1.05,0-1.56,0-1.88-.2-.34-.22-.55-.59-.57-.99-.02-.37,.24-.83,.76-1.73l12.29-21.67c.52-.92,.79-1.38,1.12-1.55,.36-.18,.79-.18,1.15,0,.33,.17,.6,.63,1.12,1.55l2.53,4.41v.02c.58,.99,.86,1.49,.99,2.01,.14,.57,.14,1.18,0,1.75-.13,.53-.41,1.03-.98,2.04l-6.46,11.41-.02,.03h0c-.57,1-.86,1.5-1.26,1.88-.43,.42-.96,.72-1.53,.89-.52,.14-1.11,.14-2.28,.14h0Zm12.57,0h7.13c1.05,0,1.58,0,1.9-.21,.34-.22,.55-.59,.57-1,.02-.36-.23-.8-.73-1.65l-.05-.09-3.57-6.11-.04-.07c-.5-.85-.76-1.28-1.08-1.44-.36-.18-.78-.18-1.14,0-.33,.17-.59,.62-1.12,1.52l-3.56,6.11v.02c-.53,.9-.79,1.35-.78,1.72,.03,.4,.23,.78,.57,1,.31,.2,.84,.2,1.89,.2Z" style="fill: #fff; fill-rule: evenodd;"/>
</svg>