<?xml version="1.0" encoding="UTF-8"?>
<svg id="_イヤー_1" data-name="レイヤー 1" xmlns="http://www.w3.org/2000/svg" width="300" height="100" viewBox="0 0 300 100">
  <path d="M88.49,40.54h2.91l8.15,18.92h-3.85l-1.76-4.33h-8.21l-1.71,4.33h-3.77l8.23-18.92Zm4.28,11.71l-2.91-7.7-2.97,7.7h5.88Z" style="fill: #e84142;"/>
  <path d="M103.17,40.54h3.88l5.16,14.3,5.32-14.3h3.64l-7.65,18.92h-2.91l-7.43-18.92Z" style="fill: #e84142;"/>
  <path d="M133.2,40.54h2.91l8.15,18.92h-3.85l-1.76-4.33h-8.21l-1.71,4.33h-3.77l8.23-18.92Zm4.28,11.71l-2.91-7.7-2.97,7.7h5.88Z" style="fill: #e84142;"/>
  <path d="M151.71,40.54h3.37v15.88h8.05v3.05h-11.41v-18.92Z" style="fill: #e84142;"/>
  <path d="M177.04,40.54h2.91l8.15,18.92h-3.85l-1.76-4.33h-8.21l-1.71,4.33h-3.77l8.23-18.92Zm4.28,11.71l-2.91-7.7-2.97,7.7h5.88Z" style="fill: #e84142;"/>
  <path d="M195.56,40.54h4.46l9.17,14.06h.05v-14.06h3.37v18.92h-4.28l-9.36-14.51h-.05v14.51h-3.37v-18.92Z" style="fill: #e84142;"/>
  <path d="M235.17,44.97c-.69-.75-1.37-1.25-2.03-1.5-.64-.25-1.29-.37-1.95-.37-.98,0-1.87,.18-2.67,.53-.78,.34-1.46,.82-2.03,1.44-.57,.61-1.02,1.32-1.34,2.14-.3,.82-.45,1.7-.45,2.65,0,1.02,.15,1.95,.45,2.81,.32,.86,.77,1.59,1.34,2.22,.57,.62,1.25,1.11,2.03,1.47,.8,.36,1.69,.53,2.67,.53,.77,0,1.51-.18,2.22-.53,.73-.37,1.41-.96,2.03-1.76l2.78,1.98c-.86,1.18-1.9,2.03-3.13,2.57-1.23,.53-2.54,.8-3.93,.8-1.46,0-2.81-.23-4.04-.7-1.21-.48-2.26-1.15-3.15-2-.87-.87-1.56-1.92-2.06-3.13-.5-1.21-.75-2.56-.75-4.04s.25-2.89,.75-4.12c.5-1.25,1.18-2.31,2.06-3.18,.89-.87,1.94-1.54,3.15-2,1.23-.48,2.57-.72,4.04-.72,1.28,0,2.47,.23,3.55,.69,1.11,.45,2.13,1.21,3.07,2.3l-2.62,1.92Z" style="fill: #e84142;"/>
  <path d="M245.82,40.54h3.37v7.54h8.85v-7.54h3.37v18.92h-3.37v-8.34h-8.85v8.34h-3.37v-18.92Z" style="fill: #e84142;"/>
  <path d="M270.98,40.54h12.54v3.05h-9.17v4.65h8.69v3.05h-8.69v5.13h9.65v3.05h-13.02v-18.92Z" style="fill: #e84142;"/>
  <circle cx="43.15" cy="50" r="21.27" style="fill: #fff;"/>
  <path d="M70.29,50c0,14.99-12.15,27.15-27.15,27.15s-27.15-12.15-27.15-27.15,12.15-27.15,27.15-27.15,27.15,12.15,27.15,27.15Zm-34.84,10.8h-5.27c-1.11,0-1.65,0-1.99-.21-.36-.23-.58-.62-.61-1.05-.02-.39,.25-.87,.8-1.83l13.01-22.93c.55-.97,.83-1.46,1.19-1.64,.38-.19,.83-.19,1.21,0,.35,.18,.63,.67,1.19,1.64l2.67,4.67v.02h.01c.6,1.04,.9,1.57,1.03,2.13,.15,.61,.15,1.25,0,1.85-.13,.56-.43,1.09-1.04,2.15l-6.83,12.08-.02,.03c-.6,1.05-.91,1.59-1.33,1.99-.46,.44-1.01,.76-1.62,.94-.55,.15-1.17,.15-2.41,.15Zm13.3,0h7.55c1.11,0,1.67,0,2.01-.22,.36-.23,.59-.63,.61-1.05,.02-.38-.25-.84-.77-1.75l-.05-.09-3.78-6.47-.04-.07c-.53-.9-.8-1.35-1.14-1.53-.38-.19-.83-.19-1.21,0-.35,.18-.63,.65-1.18,1.61l-3.77,6.47v.02c-.56,.95-.84,1.43-.82,1.82,.03,.43,.25,.82,.61,1.05,.33,.21,.89,.21,2,.21Z" style="fill: #e84142; fill-rule: evenodd;"/>
</svg>