<svg id="レイヤー_1" data-name="レイヤー 1" xmlns="http://www.w3.org/2000/svg" width="300" height="100" viewBox="0 0 300 100">
  <g id="binance_16" data-name="binance 16">
    <g id="binance-smart-chain-seeklogo.com">
      <path id="Shape" d="M100.5,27.94h10.3a7.87,7.87,0,0,1,5.76,1.93,4.93,4.93,0,0,1,1.75,3.84h0a5.7,5.7,0,0,1-.18,1.74,7.39,7.39,0,0,1-1.57,2.45,3.63,3.63,0,0,1-1,.69,7.34,7.34,0,0,1,3.13,1.93,5.22,5.22,0,0,1,1,3.49h0a6.52,6.52,0,0,1-.52,2.62,6.1,6.1,0,0,1-1.75,1.93,18.92,18.92,0,0,1-2.62,1.22,11.74,11.74,0,0,1-3.49.35H100.66V27.94ZM109.93,37a7.12,7.12,0,0,0,2.62-.53,1.93,1.93,0,0,0,1-1.74h0a2.16,2.16,0,0,0-.88-1.75,3,3,0,0,0-2.44-.52h-4.89V37.2h4.54Zm1.22,8.9a6.93,6.93,0,0,0,2.62-.53,1.65,1.65,0,0,0,.87-1.92h0a2.15,2.15,0,0,0-.87-1.74A5.46,5.46,0,0,0,111,41h-5.77v4.89Z" style="fill: #f3ba2f"/>
      <path id="Path" d="M125.82,27.94h4.89V50.29h-4.89Z" style="fill: #f3ba2f"/>
      <path id="Path-2" d="M138.21,27.94h4.54l10.48,13.8V27.94h4.89V50.29h-4.2l-11-14.14V50.29h-4.71Z" style="fill: #f3ba2f"/>
      <path id="Shape-2" d="M173,27.77h4.54L187.1,50.3H182l-2.09-5.07h-9.43l-2.1,5.07h-5.06ZM178.19,41l-3-7.32-3,7.32Z" style="fill: #f3ba2f"/>
      <path id="Path-3" d="M192.33,27.94h4.54l10.48,13.8V27.94h4.89V50.29h-4.19L197.23,36.15V50.29h-4.89Z" style="fill: #f3ba2f"/>
      <path id="Path-4" d="M230,50.64a13.25,13.25,0,0,1-4.53-.87,11.61,11.61,0,0,1-6.11-6.12,13,13,0,0,1-.88-4.53h0a12.28,12.28,0,0,1,3.32-8.21,10.43,10.43,0,0,1,3.66-2.45,11.36,11.36,0,0,1,4.71-.87,15.43,15.43,0,0,1,2.8.17,9,9,0,0,1,2.27.7q1,.48,1.92,1.05A13.17,13.17,0,0,1,239,30.92l-3,3.66a24.44,24.44,0,0,0-2.62-1.92,5.81,5.81,0,0,0-3-.7,7.12,7.12,0,0,0-2.62.53,4.65,4.65,0,0,0-2.09,1.57,9.68,9.68,0,0,0-1.41,2.27,7.12,7.12,0,0,0-.53,2.62h0a8.08,8.08,0,0,0,.53,2.79A6.16,6.16,0,0,0,225.68,44a6.23,6.23,0,0,0,4.71,2.1,7.55,7.55,0,0,0,3.31-.7,14.19,14.19,0,0,0,2.63-1.92l3.14,3.15-1.75,1.75a12.82,12.82,0,0,1-2.09,1.22,10.22,10.22,0,0,1-2.45.87,20.6,20.6,0,0,1-3.14.18Z" style="fill: #f3ba2f"/>
      <path id="Path-5" d="M245.06,27.94h16.76v4.37h-12v4.54h10.65v4.36H249.77v4.72H262v4.36H245.06Z" style="fill: #f3ba2f"/>
      <path id="Path-6" d="M106.79,72.29a7.81,7.81,0,0,1-3.5-.7,10.06,10.06,0,0,1-3.14-1.92l1.75-1.92a10.45,10.45,0,0,0,2.27,1.57,6.92,6.92,0,0,0,2.62.52,4.46,4.46,0,0,0,2.09-.52,1.56,1.56,0,0,0,.7-1.41h0a1,1,0,0,0-.17-.7c-.18-.17-.35-.52-.53-.69l-1-.53c-.53-.18-1.22-.35-1.75-.53a11.23,11.23,0,0,1-2.27-.69,4.6,4.6,0,0,1-1.57-.88,7.68,7.68,0,0,1-1-1.22,4.08,4.08,0,0,1-.35-1.92h0a7.39,7.39,0,0,1,.35-1.92,4.52,4.52,0,0,1,1-1.41,5.42,5.42,0,0,1,1.75-.87,8.7,8.7,0,0,1,2.09-.35,10,10,0,0,1,3.15.53,19.83,19.83,0,0,1,2.61,1.4l-1.4,2.1a12.91,12.91,0,0,0-2.1-1.22,4.32,4.32,0,0,0-2.1-.35,3.54,3.54,0,0,0-1.92.52,2.14,2.14,0,0,0-.69,1.41h0a1.53,1.53,0,0,0,.17.87c.18.18.35.53.53.7a8.94,8.94,0,0,0,1.23.53,14.34,14.34,0,0,0,1.92.52,16.53,16.53,0,0,1,2.27.7,7.07,7.07,0,0,1,1.57.87A5.44,5.44,0,0,1,112.2,66a5.06,5.06,0,0,1,.35,1.76h0a6,6,0,0,1-.35,1.92A9.72,9.72,0,0,1,111,71.25a5.47,5.47,0,0,1-1.74.87C108.36,72.11,107.49,72.29,106.79,72.29Z" style="fill: #f3ba2f"/>
      <path id="Path-7" d="M115.52,56.4h3l4.72,7.33,4.89-7.33h3V72.11h-2.8V60.76l-4.89,7.34h-.17l-4.9-7.34V72.11h-2.79Z" style="fill: #f3ba2f"/>
      <path id="Shape-3" d="M140.48,56.23h2.62l6.81,15.71h-3l-1.57-3.84h-7.32l-1.57,3.84h-2.8Zm4,9.6-2.8-6.29-2.62,6.29Z" style="fill: #f3ba2f"/>
      <path id="Shape-4" d="M152.7,56.4h7a13.64,13.64,0,0,1,2.62.35A4.64,4.64,0,0,1,164.23,58a6.34,6.34,0,0,1,1.05,1.57,6.64,6.64,0,0,1,.35,1.92h0a6.12,6.12,0,0,1-.35,1.75c-.18.52-.53.87-.7,1.41a7.54,7.54,0,0,1-1.22,1,6.13,6.13,0,0,1-1.57.7l4.2,5.93h-3.33l-3.84-5.42h-3.5v5.42h-2.79Zm6.81,7.69a3.26,3.26,0,0,0,2.27-.7,2.85,2.85,0,0,0,.88-1.92h0a2.85,2.85,0,0,0-.88-1.92,4,4,0,0,0-2.44-.7h-4v5.24Z" style="fill: #f3ba2f"/>
      <path id="Path-8" d="M172.78,58.85h-5.06V56.4h12.74v2.45H175.4V72.12h-2.8Z" style="fill: #f3ba2f"/>
      <path id="Path-9" d="M197.4,72.29a6.88,6.88,0,0,1-3.15-.7,7.59,7.59,0,0,1-4.19-4.19,6.66,6.66,0,0,1-.52-3.15h0a9.85,9.85,0,0,1,.52-3.14,7.89,7.89,0,0,1,4.19-4.36,10,10,0,0,1,3.32-.7,6.49,6.49,0,0,1,1.92.17l1.57.53c.53.17.88.52,1.41.7.35.34.88.69,1.22,1L202,60.59A7.8,7.8,0,0,0,200,59.18a5.46,5.46,0,0,0-2.45-.52,8.7,8.7,0,0,0-2.09.35,6.06,6.06,0,0,0-1.75,1.22A3.64,3.64,0,0,0,192.69,62a8.87,8.87,0,0,0-.35,2.1h0a8.87,8.87,0,0,0,.35,2.1,3.64,3.64,0,0,0,1.05,1.74,6.29,6.29,0,0,0,1.75,1.23,3.05,3.05,0,0,0,2.09.35A5.6,5.6,0,0,0,200,69a8.25,8.25,0,0,0,2.09-1.57l1.75,1.75-1.22,1.22a6,6,0,0,1-1.41.87,5.14,5.14,0,0,1-1.74.52,3.19,3.19,0,0,1-2.1.53Z" style="fill: #f3ba2f"/>
      <path id="Path-10" d="M206.65,56.4h2.62v6.46h7.51V56.4h2.79V72.11h-2.79V65.48h-7.51v6.63h-2.62Z" style="fill: #f3ba2f"/>
      <path id="Shape-5" d="M229.17,56.23h2.62l6.81,15.71h-3l-1.58-3.85h-7.32l-1.57,3.85h-2.79Zm3.84,9.6-2.62-6.29-2.62,6.29Z" style="fill: #f3ba2f"/>
      <path id="Path-11" d="M241.39,56.4h2.8V72.11h-2.8Z" style="fill: #f3ba2f"/>
      <path id="Path-12" d="M248.38,56.4h2.44l8.38,10.82V56.4H262V72.11h-2.27l-8.56-11.18V72.11h-2.79Z" style="fill: #f3ba2f"/>
      <path id="binancedex" d="M69.78,71.07v6.82l-5.94,3.49-5.76-3.49V71.07l5.76,3.49ZM38,47.49,43.76,51V62.68l10,5.94v6.81L38,66.18Zm51.68,0V66.18L73.79,75.43V68.62l9.95-5.94V51ZM73.79,38.24l5.94,3.5h0v6.81l-10,5.93V66.35L64,69.84l-5.76-3.49V54.48L48,48.55V41.74l5.94-3.5,10,5.94ZM48,53.43l5.76,3.5v6.8L48,60.24Zm31.78,0v6.81L74,63.73v-6.8Zm-36-21.11,6,3.48-5.94,3.49V46.1L38,42.61V35.8Zm40.15,0,5.94,3.49v6.81l-5.94,3.49V39.3l-5.77-3.5Zm-20.07,0,5.94,3.49L63.84,39.3l-5.76-3.49Zm0-11.7,15.88,9.25L74,33.37,64,27.43,53.87,33.37l-5.76-3.5Z" style="fill: #f3ba2f"/>
    </g>
  </g>
</svg>
