<svg id="レイヤー_1" data-name="レイヤー 1" xmlns="http://www.w3.org/2000/svg" width="300" height="100" viewBox="0 0 300 100">
  <g id="bscscan-logo-light">
    <g id="bscscan-logo-light-circle">
      <g id="Group_3" data-name="Group 3">
        <path id="Path_1" data-name="Path 1" d="M35.55,48.4a2.77,2.77,0,0,1,2.77-2.77h0l4.6,0a2.77,2.77,0,0,1,2.77,2.77h0V65.81c.51-.15,1.18-.31,1.91-.48a2.31,2.31,0,0,0,1.77-2.25V41.5a2.76,2.76,0,0,1,2.77-2.76h4.62a2.76,2.76,0,0,1,2.76,2.76v20l2.28-.94a2.31,2.31,0,0,0,1.41-2.12V34.59A2.77,2.77,0,0,1,66,31.82H70.6a2.77,2.77,0,0,1,2.76,2.77V54.25A53.94,53.94,0,0,0,84.62,43.68a4.65,4.65,0,0,0,.71-4.33A32.56,32.56,0,1,0,23.81,60.73a33.1,33.1,0,0,0,2.52,5.52,4.13,4.13,0,0,0,3.93,2c.88-.08,2-.19,3.25-.34a2.3,2.3,0,0,0,2.05-2.28V48.4" style="fill: #fff"/>
        <path id="Path_2" data-name="Path 2" d="M35.46,76.3A32.57,32.57,0,0,0,87.19,50c0-.75,0-1.49-.09-2.23C75.2,65.47,53.23,73.77,35.46,76.3" style="fill: #f0b90b"/>
      </g>
    </g>
    <path id="Path_88" data-name="Path 88" d="M115.22,49.35A7.52,7.52,0,0,1,119.67,52a7.41,7.41,0,0,1,1.7,4.81,7.57,7.57,0,0,1-2.54,6Q116.3,65,111.49,65H99.41V34.66h11.86c3,0,5.36.68,7,2a6.93,6.93,0,0,1,2.43,5.61,7,7,0,0,1-1.5,4.66A7.3,7.3,0,0,1,115.22,49.35Zm-10.91-1.63h6.06a5.74,5.74,0,0,0,3.93-1.2,4.24,4.24,0,0,0,1.35-3.35,4.18,4.18,0,0,0-1.35-3.31,6,6,0,0,0-4.1-1.2h-5.89ZM110.5,61a6.57,6.57,0,0,0,4.32-1.27,4.88,4.88,0,0,0,0-7.11,6.63,6.63,0,0,0-4.34-1.28h-6.14V61ZM133.74,41a10,10,0,0,1,6.68,2.12,9,9,0,0,1,3.07,5.7h-4.64a5,5,0,0,0-1.65-3.12,5.31,5.31,0,0,0-3.59-1.18,4.27,4.27,0,0,0-2.86.88,3,3,0,0,0-1,2.39,2.4,2.4,0,0,0,.73,1.8,5,5,0,0,0,1.83,1.07,30.46,30.46,0,0,0,3.11.86,30.52,30.52,0,0,1,4.32,1.25,7,7,0,0,1,2.84,2,5.65,5.65,0,0,1,1.18,3.8,5.91,5.91,0,0,1-2.26,4.81,9.31,9.31,0,0,1-6.08,1.85,11.58,11.58,0,0,1-7.15-2.06A8.49,8.49,0,0,1,125,57.47h4.76a4.54,4.54,0,0,0,1.72,3.14,6.16,6.16,0,0,0,3.95,1.2,4,4,0,0,0,2.78-.92,3.07,3.07,0,0,0,1-2.34,2.62,2.62,0,0,0-.78-2,5.31,5.31,0,0,0-1.93-1.14,28.59,28.59,0,0,0-3.18-.84,33.93,33.93,0,0,1-4.19-1.2,6.55,6.55,0,0,1-2.75-2,5.55,5.55,0,0,1-1.14-3.68,6,6,0,0,1,2.26-4.87A9.49,9.49,0,0,1,133.74,41Zm25.43,0a11.73,11.73,0,0,1,7.61,2.43A10.47,10.47,0,0,1,170.51,50h-5.19a5.58,5.58,0,0,0-2.09-3.5,6.62,6.62,0,0,0-4.14-1.27,6.27,6.27,0,0,0-4.73,2,8.23,8.23,0,0,0-1.89,5.86A8.32,8.32,0,0,0,154.36,59a6.23,6.23,0,0,0,4.73,2,6.56,6.56,0,0,0,4.14-1.29,5.66,5.66,0,0,0,2.09-3.52h5.19a10.54,10.54,0,0,1-3.73,6.61,11.68,11.68,0,0,1-7.61,2.45,12.38,12.38,0,0,1-6.08-1.46A10.36,10.36,0,0,1,149,59.62a13.31,13.31,0,0,1-1.51-6.49A13.23,13.23,0,0,1,149,46.69a10.3,10.3,0,0,1,4.14-4.21A12.38,12.38,0,0,1,159.17,41Zm36,15.89a8.36,8.36,0,0,1-1.07,4.15,7.81,7.81,0,0,1-3.27,3.07,11.32,11.32,0,0,1-5.37,1.16,13.53,13.53,0,0,1-5.54-1.09A9.67,9.67,0,0,1,176,61.12a8.62,8.62,0,0,1-1.67-4.55h5.24A5.36,5.36,0,0,0,181.27,60a5.56,5.56,0,0,0,4,1.42,4.73,4.73,0,0,0,3.46-1.2,4.17,4.17,0,0,0,1.22-3.09,4,4,0,0,0-.9-2.69,6.36,6.36,0,0,0-2.23-1.65q-1.34-.6-3.66-1.38a31.9,31.9,0,0,1-4.61-1.8,8.42,8.42,0,0,1-3-2.62,7.55,7.55,0,0,1-1.25-4.51,7.77,7.77,0,0,1,1.2-4.3,7.86,7.86,0,0,1,3.44-2.86,12.54,12.54,0,0,1,5.16-1,11.27,11.27,0,0,1,7.36,2.24,8.41,8.41,0,0,1,3.12,5.84h-5.29a5.12,5.12,0,0,0-1.61-2.94,5,5,0,0,0-3.58-1.23,4.94,4.94,0,0,0-3.31,1.06,3.73,3.73,0,0,0-1.25,3,3.84,3.84,0,0,0,.86,2.56,6,6,0,0,0,2.17,1.59c.87.39,2.07.84,3.59,1.35a31.54,31.54,0,0,1,4.7,1.83,8.53,8.53,0,0,1,3.1,2.68A7.79,7.79,0,0,1,195.17,56.91ZM210.6,41a11.72,11.72,0,0,1,7.6,2.43A10.43,10.43,0,0,1,221.94,50h-5.2a5.57,5.57,0,0,0-2.08-3.5,6.67,6.67,0,0,0-4.15-1.27,6.27,6.27,0,0,0-4.73,2,8.23,8.23,0,0,0-1.89,5.86A8.32,8.32,0,0,0,205.78,59a6.24,6.24,0,0,0,4.73,2,6.58,6.58,0,0,0,4.15-1.29,5.64,5.64,0,0,0,2.08-3.52h5.2a10.55,10.55,0,0,1-3.74,6.61,11.67,11.67,0,0,1-7.6,2.45,12.36,12.36,0,0,1-6.08-1.46,10.45,10.45,0,0,1-4.15-4.21,13.3,13.3,0,0,1-1.5-6.49,13.11,13.11,0,0,1,1.5-6.44,10.38,10.38,0,0,1,4.15-4.21A12.36,12.36,0,0,1,210.6,41Zm25.56,0a9.38,9.38,0,0,1,5.5,1.59,8.53,8.53,0,0,1,3.22,4.21v-5.5h4.9V65h-4.9v-5.5a8.57,8.57,0,0,1-3.22,4.21,9.38,9.38,0,0,1-5.5,1.59,10.5,10.5,0,0,1-5.52-1.46,10.06,10.06,0,0,1-3.81-4.21,14.41,14.41,0,0,1-1.37-6.49,14.33,14.33,0,0,1,1.37-6.44,10,10,0,0,1,3.81-4.21A10.5,10.5,0,0,1,236.16,41Zm1.5,4.29a6.86,6.86,0,0,0-5.22,2.09,8.06,8.06,0,0,0-1.95,5.73,8.07,8.07,0,0,0,1.95,5.74A6.82,6.82,0,0,0,237.66,61a7.12,7.12,0,0,0,3.69-1,6.91,6.91,0,0,0,2.58-2.73,9.39,9.39,0,0,0,0-8.23,6.83,6.83,0,0,0-2.58-2.75A7.12,7.12,0,0,0,237.66,45.31Zm31.23-4.38a8.63,8.63,0,0,1,6.62,2.67c1.66,1.77,2.49,4.31,2.49,7.6V65h-4.9V51.72a6.91,6.91,0,0,0-1.63-4.92A5.8,5.8,0,0,0,267,45.06a6.11,6.11,0,0,0-4.68,1.87,7.7,7.7,0,0,0-1.76,5.47V65h-4.9V41.32h4.9v5.2a7.87,7.87,0,0,1,3.18-4.13A9.29,9.29,0,0,1,268.89,40.93Z" style="fill: #fff"/>
  </g>
</svg>
