<svg id="レイヤー_1" data-name="レイヤー 1" xmlns="http://www.w3.org/2000/svg" width="300" height="100" viewBox="0 0 300 100">
  <g id="グループ_5242" data-name="グループ 5242">
    <g id="アートボード_1" data-name="アートボード 1">
      <path id="パス_2154" data-name="パス 2154" d="M85.25,38.89V63.12h23V58.17H91.75c-.94,0-1.42-.44-1.42-1.34v-1.9a1.22,1.22,0,0,1,1.07-1.36,1,1,0,0,1,.35,0h16.51V48.65H91.75a1.25,1.25,0,0,1-1.42-1.06,2,2,0,0,1,0-.35v-2a1.24,1.24,0,0,1,1.07-1.4,1,1,0,0,1,.35,0h16.51V38.89Zm29,0V63.12h23V58.17H120.76c-.94,0-1.41-.45-1.41-1.36V45.2c0-.92.47-1.36,1.41-1.36h16.51v-5Zm131.18-.32V62.8h23V57.86H251.94c-.94,0-1.41-.45-1.41-1.36V54.6c0-.89.47-1.34,1.41-1.34h16.52V48.33H251.94a1.24,1.24,0,0,1-1.41-1,1.09,1.09,0,0,1,0-.36v-2a1.25,1.25,0,0,1,1.06-1.41,1,1,0,0,1,.35,0h16.52V38.57Zm-92.19,0V62.8h25V57.86H159.75c-.94,0-1.41-.45-1.41-1.36V44.88q0-1.35,1.41-1.35h18.46v-5Zm-8.74.19V63.34a.85.85,0,1,0,1.69,0h0V38.75a.85.85,0,0,0-1.69,0m40.17,24h25V38.57h-5.09V56.49a1.22,1.22,0,0,1-1.05,1.38,1.09,1.09,0,0,1-.36,0H191.19a1.24,1.24,0,0,1-1.41-1,1.09,1.09,0,0,1,0-.36V38.57h-5.09ZM232.6,48.33H222.24a1.25,1.25,0,0,1-1.41-1.06,2,2,0,0,1,0-.35v-2a1.26,1.26,0,0,1,1.06-1.41,1,1,0,0,1,.35,0h10.49v0a1.37,1.37,0,0,1,1.66,1.39v1.89s.19,1.52-1.79,1.52Zm.07,9.53H222.54a1.91,1.91,0,0,1-1.43-.45,1.43,1.43,0,0,1-.28-.89V54.61a1.88,1.88,0,0,1,.08-.52,2,2,0,0,1,.1-.21.94.94,0,0,1,.12-.18.71.71,0,0,1,.15-.15,1.22,1.22,0,0,1,.29-.17l.09,0a3.81,3.81,0,0,1,.59-.08h10.81a1.22,1.22,0,0,1,1.31,1.13.74.74,0,0,1,0,.21v1.81s.19,1.44-1.7,1.44Zm4.21-7.17a1.89,1.89,0,0,0,1.87-1.87V39.75c0-1.3-1.71-1.16-1.71-1.16l-21.29,0V62.8l21.3,0s1.69,0,1.69-1.15V52.56A1.9,1.9,0,0,0,236.88,50.69Zm34,11.43V59.67H272a1.43,1.43,0,0,1,.5.06.67.67,0,0,1,.27.23.82.82,0,0,1,.1.37.66.66,0,0,1-.17.45.87.87,0,0,1-.53.22.67.67,0,0,1,.2.12,2.12,2.12,0,0,1,.27.34l.43.68h-.41l-.34-.51a3.84,3.84,0,0,0-.23-.34.87.87,0,0,0-.17-.16.39.39,0,0,0-.15-.06h-.56v1.08Zm.34-1.36h.68a1,1,0,0,0,.33,0,.32.32,0,0,0,.19-.15.39.39,0,0,0-.06-.51.62.62,0,0,0-.4-.11h-.76Zm2.56.19h-.12a1.8,1.8,0,1,1-1.8-1.79,1.82,1.82,0,0,1,1.27.52,1.79,1.79,0,0,1,.53,1.27h.25a2.05,2.05,0,1,0-2,2.06h0a2.05,2.05,0,0,0,2-2.06Z" style="fill: #171522;fill-rule: evenodd"/>
      <g id="グループ_5239" data-name="グループ 5239">
        <path id="パス_2155" data-name="パス 2155" d="M26.07,60.71c0-5.74,11.15-10.4,24.89-10.4S75.87,55,75.87,60.71,64.73,71.11,51,71.11,26.07,66.46,26.07,60.71Z" style="fill: #fdd000;fill-rule: evenodd"/>
        <path id="パス_2156" data-name="パス 2156" d="M30.54,38.52,30.38,61.3l23.39,5.55,16.64-7.18V35.38L54.09,29l-8.64,9.54Z" style="fill: #575563;fill-rule: evenodd"/>
        <g id="グループ_5238" data-name="グループ 5238">
          <path id="パス_2157" data-name="パス 2157" d="M53.88,28.89,69,34.81s3.7,20.52-15.1,24.86Z" style="fill: #d1ad00;fill-rule: evenodd"/>
          <path id="パス_2158" data-name="パス 2158" d="M30.54,38.52l23.34-9.63V59.67S28.82,63.83,30.54,38.52Z" style="fill: #fdd000;fill-rule: evenodd"/>
        </g>
      </g>
    </g>
  </g>
</svg>
