<svg id="レイヤー_1" data-name="レイヤー 1" xmlns="http://www.w3.org/2000/svg" width="300" height="100" viewBox="0 0 300 100">
  <g id="binance_20" data-name="binance 20">
    <g id="グループ_68991" data-name="グループ 68991">
      <g id="アートボード_1" data-name="アートボード 1">
        <path id="パス_2154" data-name="パス 2154" d="M85.25,38.89V63.12h23V58.18H91.75c-.94,0-1.42-.44-1.42-1.34v-1.9a1.23,1.23,0,0,1,1.08-1.36,1,1,0,0,1,.34,0h16.51V48.66H91.75a1.25,1.25,0,0,1-1.42-1.06,2,2,0,0,1,0-.35v-2a1.24,1.24,0,0,1,1.07-1.4,1,1,0,0,1,.35,0h16.51V38.89Zm29,0V63.12h23V58.18H120.76c-.94,0-1.41-.45-1.41-1.36V45.2c0-.91.47-1.36,1.41-1.36h16.52v-5Zm131.18-.32V62.8h23V57.86H251.94q-1.41,0-1.41-1.35v-1.9c0-.9.47-1.34,1.41-1.34h16.52V48.34H251.94a1.25,1.25,0,0,1-1.41-1.06,1,1,0,0,1,0-.35v-2a1.24,1.24,0,0,1,1.06-1.41,1,1,0,0,1,.35,0h16.52V38.58Zm-92.19,0V62.8H178.2V57.86H159.75q-1.41,0-1.41-1.35V44.89c0-.91.47-1.36,1.41-1.36H178.2v-5Zm-8.74.19V63.34a.85.85,0,1,0,1.7,0V38.76a.85.85,0,1,0-1.7,0m40.17,24h25V38.57h-5.09V56.49a1.24,1.24,0,0,1-1.06,1.38,1.36,1.36,0,0,1-.35,0h-12a1.22,1.22,0,0,1-1.4-1,1.29,1.29,0,0,1,0-.34V38.57h-5.09ZM232.6,48.33H222.24a1.24,1.24,0,0,1-1.41-1.06,1.93,1.93,0,0,1,0-.34v-2a1.24,1.24,0,0,1,1.06-1.41,1,1,0,0,1,.35,0h10.49v0a1.37,1.37,0,0,1,1.66,1.39v1.88s.18,1.52-1.79,1.52Zm.07,9.53H222.54a1.9,1.9,0,0,1-1.43-.45,1.41,1.41,0,0,1-.28-.89v-1.9a1.89,1.89,0,0,1,.08-.53,1.24,1.24,0,0,1,.1-.2,1.08,1.08,0,0,1,.11-.18,1.19,1.19,0,0,1,.46-.32l.08,0a4,4,0,0,1,.59-.08h10.81a1.23,1.23,0,0,1,1.32,1.14,1.41,1.41,0,0,1,0,.2v1.8s.19,1.44-1.69,1.44Zm4.21-7.16a1.9,1.9,0,0,0,1.87-1.87V39.76c0-1.3-1.71-1.16-1.71-1.16l-21.29,0V62.8H237s1.7,0,1.7-1.16V52.56a1.88,1.88,0,0,0-1.86-1.86Zm34,11.42V59.67H272a1.4,1.4,0,0,1,.5.06.57.57,0,0,1,.27.24.69.69,0,0,1,.1.37.57.57,0,0,1-.17.44.84.84,0,0,1-.52.22.86.86,0,0,1,.2.13,1.84,1.84,0,0,1,.27.34l.43.67h-.41l-.34-.51a3.22,3.22,0,0,0-.24-.33.65.65,0,0,0-.16-.17.69.69,0,0,0-.15-.07h-.55v1.09Zm.34-1.36h.68a1,1,0,0,0,.34,0,.4.4,0,0,0,.19-.15.44.44,0,0,0,.07-.22.39.39,0,0,0-.13-.29A.64.64,0,0,0,272,60h-.78Zm2.57.19h-.13a1.8,1.8,0,1,1-3.59,0,1.78,1.78,0,0,1,1.79-1.79,1.82,1.82,0,0,1,1.27.52,1.85,1.85,0,0,1,.53,1.27h.25a2.05,2.05,0,1,0-2,2.06h0a2,2,0,0,0,2-2.06Z" style="fill: #fff;fill-rule: evenodd"/>
        <g id="グループ_5239" data-name="グループ 5239">
          <path id="パス_2155" data-name="パス 2155" d="M26.07,60.71c0-5.74,11.15-10.4,24.89-10.4S75.87,55,75.87,60.71,64.73,71.11,51,71.11,26.07,66.46,26.07,60.71Z" style="fill: #fdd000;fill-rule: evenodd"/>
          <path id="パス_2156" data-name="パス 2156" d="M30.54,38.53,30.39,61.3l23.39,5.55,16.64-7.18V35.37L54.09,29l-8.63,9.54Z" style="fill: #575563;fill-rule: evenodd"/>
          <g id="グループ_5238" data-name="グループ 5238">
            <path id="パス_2157" data-name="パス 2157" d="M53.88,28.89,69,34.81s3.69,20.52-15.1,24.86Z" style="fill: #d1ad00;fill-rule: evenodd"/>
            <path id="パス_2158" data-name="パス 2158" d="M30.54,38.53l23.34-9.64V59.67S28.82,63.83,30.54,38.53Z" style="fill: #fdd000;fill-rule: evenodd"/>
          </g>
        </g>
      </g>
    </g>
  </g>
</svg>
