<svg id="レイヤー_1" data-name="レイヤー 1" xmlns="http://www.w3.org/2000/svg" width="300" height="100" viewBox="0 0 300 100">
  <g id="Ethereum-Landscape-Black-Logo.wine">
    <path id="パス_2009" data-name="パス 2009" d="M98.11,54.53a.8.8,0,0,1-.8.78H82.59a7.38,7.38,0,0,0,7,7,6.86,6.86,0,0,0,6.06-3.11.81.81,0,0,1,.64-.38.72.72,0,0,1,.74.69v.05a.7.7,0,0,1-.11.37,8.33,8.33,0,0,1-7.33,3.84,9.19,9.19,0,1,1,8.52-9.81q0,.3,0,.6Zm-1.58-.69a7,7,0,1,0-13.94,0H96.53ZM116,45.76a.75.75,0,0,1,.73.73.72.72,0,0,1-.69.74h-4V62.74a.74.74,0,0,1-1.47,0V47.23h-3.8a.71.71,0,0,1-.73-.69v0a.75.75,0,0,1,.73-.73h3.8V40.1a.79.79,0,0,1,.67-.78.73.73,0,0,1,.81.62.45.45,0,0,1,0,.11v5.71Zm24.1,7.5v9.38a.76.76,0,0,1-.73.74.72.72,0,0,1-.74-.7V53.26c0-3.17-1.79-6.32-5.32-6.32-4.53,0-6.48,4-6.22,8,0,.11.05.58.05.64v7a.79.79,0,0,1-.67.78.72.72,0,0,1-.81-.62.41.41,0,0,1,0-.11V31.8a.73.73,0,0,1,.73-.73.76.76,0,0,1,.74.73V49.25a7.08,7.08,0,0,1,6.17-3.8c4.35,0,6.81,3.8,6.81,7.81Zm26.43,1.26a.78.78,0,0,1-.8.78H151a7.37,7.37,0,0,0,7,7A6.87,6.87,0,0,0,164,59.16a.78.78,0,0,1,.64-.37.7.7,0,0,1,.73.69v0a.76.76,0,0,1-.11.38A8.37,8.37,0,0,1,158,63.74a9.19,9.19,0,1,1,8.52-9.82c0,.2,0,.4,0,.6Zm-1.59-.69a7,7,0,0,0-13.94,0Zm19.66-7.39a.75.75,0,0,1-.69.8c-4.33.64-6.28,4.17-6.28,8.28v7a.77.77,0,0,1-.66.78.72.72,0,0,1-.82-.62s0-.07,0-.11v-16a.79.79,0,0,1,.67-.78.72.72,0,0,1,.81.62.41.41,0,0,1,0,.11v3.26a7.83,7.83,0,0,1,6.17-4,.75.75,0,0,1,.8.69Zm24.22,8.09a.81.81,0,0,1-.8.78H193.28a7.38,7.38,0,0,0,7,7,6.86,6.86,0,0,0,6.06-3.11.81.81,0,0,1,.64-.38.71.71,0,0,1,.73.69v.05a.56.56,0,0,1-.11.37,8.31,8.31,0,0,1-7.32,3.84,9.19,9.19,0,1,1,8.52-9.81c0,.2,0,.4,0,.6Zm-1.58-.69a7,7,0,0,0-13.94,0Zm25.37-7.21V62.74a.75.75,0,0,1-.73.73.72.72,0,0,1-.74-.69v-3.1A6.92,6.92,0,0,1,225,63.85c-4.37,0-6.79-3.8-6.79-7.81V46.61a.74.74,0,0,1,.73-.74.76.76,0,0,1,.73.74V56c0,3.17,1.8,6.32,5.33,6.32,4.95,0,6.12-4.64,6.12-9.76v-6a.75.75,0,0,1,.76-.73.64.64,0,0,1,.24,0,.86.86,0,0,1,.47.74Zm37.26,6.57v9.43a.75.75,0,0,1-.73.73.71.71,0,0,1-.73-.69V53.2c0-3.18-1.8-6.28-5.33-6.28-4.44,0-6.12,4.75-6.12,8.43v7.28a.76.76,0,0,1-.74.73.71.71,0,0,1-.73-.69V53.2c0-3.18-1.8-6.28-5.33-6.28-4.48,0-6.32,3.53-6.17,8.23,0,.11.05.31,0,.38v7.08a.78.78,0,0,1-.66.78.72.72,0,0,1-.82-.62V46.58a.79.79,0,0,1,.66-.79.74.74,0,0,1,.82.63.4.4,0,0,1,0,.11v2.68a7.07,7.07,0,0,1,6.17-3.74,6.57,6.57,0,0,1,6.28,4.68,7.28,7.28,0,0,1,6.64-4.68c4.33,0,6.79,3.74,6.79,7.74Z" style="fill: #171522"/>
    <path id="パス_2010" data-name="パス 2010" d="M48.57,61.45,67,50.55,48.57,42.19,30.15,50.56Z" style="fill: #171522;isolation: isolate;opacity: 0.6000000238418579"/>
    <path id="パス_2011" data-name="パス 2011" d="M48.57,42.19V20L30.15,50.55l18.42,10.9Z" style="fill: #171522;isolation: isolate;opacity: 0.44999998807907104"/>
    <path id="パス_2012" data-name="パス 2012" d="M48.57,61.45,67,50.55,48.57,20Z" style="fill: #171522;isolation: isolate;opacity: 0.800000011920929"/>
    <path id="パス_2013" data-name="パス 2013" d="M48.57,64.94,30.15,54.06,48.57,80Z" style="fill: #171522;isolation: isolate;opacity: 0.44999998807907104"/>
    <path id="パス_2014" data-name="パス 2014" d="M67,54.06,48.57,64.94V80Z" style="fill: #171522;isolation: isolate;opacity: 0.800000011920929"/>
  </g>
</svg>
