<svg id="レイヤー_1" data-name="レイヤー 1" xmlns="http://www.w3.org/2000/svg" width="300" height="100" viewBox="0 0 300 100">
  <g id="etherscan-logo">
    <path id="Path_8" data-name="Path 8" d="M89.55,40.64c0-2-.69-3-2.08-3a3.5,3.5,0,0,0-.85.08,5.08,5.08,0,0,1-1.1.12,1.16,1.16,0,0,1-.89-.38,1.32,1.32,0,0,1-.37-1c0-1,.57-1.42,1.7-1.42l.61,0c4.05.27,6,.41,5.68.41h.4l9.77-.29c.19,0,.89,0,2.11-.12.43,0,.82,0,1.17,0,1.41,0,2.11.62,2.11,1.87q0,.33-.12,2.07c-.06.87-.08,1.67-.08,2.4a19.09,19.09,0,0,0,.06,2,17,17,0,0,1,.14,1.74c0,1-.49,1.55-1.47,1.55s-1.46-.72-1.46-2.17V42.41c0-2.29-.47-3.64-1.42-4q-1-.45-5.43-.45a24.11,24.11,0,0,0-3.4.13,2.26,2.26,0,0,0-1.75,2.48v4.06c0,1.09.24,1.71.72,1.87a3.51,3.51,0,0,0,1,.08h1.64c1.69,0,2.53-.58,2.53-1.74a10.36,10.36,0,0,0-.1-1.26,10.85,10.85,0,0,1-.11-1.39c0-1.08.49-1.63,1.45-1.63s1.44.59,1.44,1.75c0,.22-.08,1.06-.26,2.52a28.15,28.15,0,0,0-.23,3.3c0,.54.06,1.5.17,2.89,0,.21.09.69.2,1.42a11.33,11.33,0,0,1,.12,1.42A1.29,1.29,0,0,1,100,55.28c-.95,0-1.43-.57-1.43-1.71,0-.43,0-.87.11-1.3s.09-.87.1-1.3c0-1.17-.77-1.75-2.32-1.75H94.59c-.79,0-1.27.13-1.44.41a3.73,3.73,0,0,0-.27,1.75V53.9c0,.43,0,1,0,1.75,0,.89,0,1.49,0,1.79,0,1.08.25,1.76.65,2a4.81,4.81,0,0,0,2.12.29h5.53a5.5,5.5,0,0,0,3.3-.72,3.27,3.27,0,0,0,.89-2.66c0-.41,0-1-.06-1.81s-.06-1.4-.06-1.81c0-1.22.48-1.83,1.45-1.83s1.52.62,1.52,1.87c0,.49,0,1.23-.06,2.24s-.06,1.75-.06,2.23,0,.95.06,1.69.06,1.31.06,1.69a1.67,1.67,0,0,1-1.87,1.91c-.3,0-.77,0-1.42-.09-.33,0-.93,0-1.79,0L100,62.33c-2.3-.07-4.3-.1-6-.09q-3.82,0-7.48.28a2.33,2.33,0,0,0-.37,0H86c-1.14,0-1.71-.49-1.71-1.46a1.13,1.13,0,0,1,1.27-1.3c.13,0,.5,0,1.09.08a3.57,3.57,0,0,0,.86.12c1.38,0,2.07-1,2.07-3Zm34.17,16.1v-2.6c0-1.11.51-1.67,1.46-1.67s1.42.63,1.42,1.87c0,3-.37,5-1.13,6.19q-1.53,2.36-5,2.36c-2.15,0-3.69-.69-4.6-2.08-.68-1-1-2.71-1-5.12V45.93c0-.57-.27-.86-.79-.86h-1.34a1.52,1.52,0,0,1-1.1-.43,1.37,1.37,0,0,1-.43-1,1.43,1.43,0,0,1,.42-1,1.31,1.31,0,0,1,1-.45h1.58c.47,0,.7-.25.7-.77V37.18a1.38,1.38,0,0,1,1.58-1.54c1,0,1.47.51,1.47,1.54v4.35c0,.41.24.61.73.61H123c1,0,1.55.48,1.55,1.43s-.56,1.5-1.67,1.5h-4.47c-.38,0-.57.29-.57.86v10q0,4.27,2.84,4.27C122.63,60.2,123.63,59.05,123.72,56.74ZM135,36.13l-.16,7.92a10.88,10.88,0,0,1,3-2.13,7.71,7.71,0,0,1,3.18-.59,7.89,7.89,0,0,1,5.63,2,6.87,6.87,0,0,1,2.12,5.25v6.79c0,1.6,0,2.48,0,2.65.11,1.35.46,2,1.06,2a2.71,2.71,0,0,0,.93-.23,3.66,3.66,0,0,1,.65-.06c1,0,1.51.47,1.51,1.39s-.65,1.38-2,1.38a13.31,13.31,0,0,1-1.55-.12,23.29,23.29,0,0,0-2.76-.2,12.62,12.62,0,0,0-1.63.08c-1.14.16-1.85.24-2.12.24a1.77,1.77,0,0,1-1.22-.42,1.4,1.4,0,0,1-.48-1.08,1.12,1.12,0,0,1,.42-.9,1.47,1.47,0,0,1,1-.36,3.49,3.49,0,0,1,1.06.2,2,2,0,0,0,.69.12q1.22,0,1.26-2.64c0-.33,0-1,.08-1.91v-4q0-4.14-.82-5.57a4.35,4.35,0,0,0-4.16-2.11,5.25,5.25,0,0,0-4.7,2.19A9.1,9.1,0,0,0,135,50.93v2.93a3.15,3.15,0,0,1-.16.81v.78c0,1.54,0,2.44,0,2.68.14,1.33.55,2,1.22,2a3.07,3.07,0,0,0,.94-.18,3.43,3.43,0,0,1,.89-.18c.9,0,1.34.43,1.34,1.3s-.6,1.46-1.8,1.46c-.38,0-1,0-1.72-.12a26.19,26.19,0,0,0-2.66-.16c-.47,0-1.11,0-1.93.12-1.09.11-1.78.16-2.08.16q-1.68,0-1.68-1.5c0-.84.52-1.26,1.57-1.26a1.92,1.92,0,0,1,.79.11,4.66,4.66,0,0,0,1,.17c.44,0,.74-.41.89-1.24a37.22,37.22,0,0,0,.27-5.06V46.45a67.92,67.92,0,0,0-.25-7.7c-.16-1.07-.54-1.61-1.13-1.61a4.14,4.14,0,0,0-.86.12,4.43,4.43,0,0,1-.89.12c-.93,0-1.39-.43-1.39-1.3a1.21,1.21,0,0,1,.49-1,1.75,1.75,0,0,1,1.18-.41c.14,0,.6,0,1.39.12a13.18,13.18,0,0,0,1.66.08,7,7,0,0,0,1-.1,7.34,7.34,0,0,1,.93-.1c.63,0,.94.45.94,1.35Zm38,14.24a4.8,4.8,0,0,1-.2,1.88c-.14.23-.53.35-1.18.35h-13a1.14,1.14,0,0,0-.7.14.59.59,0,0,0-.16.47,7.37,7.37,0,0,0,1.84,5.11,5.87,5.87,0,0,0,4.56,2,6,6,0,0,0,3.29-1,4.46,4.46,0,0,0,1.93-2.48l.37-1.18a1.27,1.27,0,0,1,1.35-1,1.36,1.36,0,0,1,1.51,1.55A5.89,5.89,0,0,1,170,61a9.8,9.8,0,0,1-6.1,2,8.59,8.59,0,0,1-6.79-2.87,11.26,11.26,0,0,1-2.52-7.71,11.84,11.84,0,0,1,2.68-8,8.82,8.82,0,0,1,7-3.09,8.43,8.43,0,0,1,6.3,2.55,8.94,8.94,0,0,1,2.48,6.49Zm-14.76-1c0,.38.3.57.89.57h9.76c.57,0,.86-.19.86-.57a5.09,5.09,0,0,0-1.63-3.74A5.34,5.34,0,0,0,164.33,44a6.21,6.21,0,0,0-4.17,1.65A4.84,4.84,0,0,0,158.29,49.34Zm23.91-6.16V44.3a7.09,7.09,0,0,1,10.27-1.36,5.32,5.32,0,0,1,1.77,4.13,4.5,4.5,0,0,1-.89,2.9A2.86,2.86,0,0,1,191,51.09a2.32,2.32,0,0,1-1.59-.57,1.8,1.8,0,0,1-.65-1.38,1.62,1.62,0,0,1,.49-1.16,1.54,1.54,0,0,1,1.14-.51,2.4,2.4,0,0,1,.53.12,2,2,0,0,0,.24-.89,2.45,2.45,0,0,0-1-2,4.55,4.55,0,0,0-6.81,2,15.94,15.94,0,0,0-.65,5.29v2.68c0,1.82,0,2.83,0,3,.14,1.55.56,2.32,1.27,2.32a4.63,4.63,0,0,0,1.11-.14,4.07,4.07,0,0,1,.78-.11,1.15,1.15,0,0,1,1.31,1.29c0,.93-.55,1.4-1.66,1.4h-.17c-.62,0-1.23-.06-1.85-.14s-1.23-.13-1.85-.15c-1.08,0-1.94,0-2.56.09l-2.28.2c-1.11,0-1.66-.48-1.66-1.43s.52-1.26,1.56-1.26a4.17,4.17,0,0,1,.61,0l.62.13a3.72,3.72,0,0,0,.57.08c.69,0,1.06-.63,1.11-1.87V56.13l-.12-9.23c-.08-1.6-.49-2.4-1.22-2.4a5.51,5.51,0,0,0-.9.1,5.27,5.27,0,0,1-.89.1c-.9,0-1.34-.42-1.34-1.28s.58-1.4,1.74-1.4a10.2,10.2,0,0,1,1.23.1,9.87,9.87,0,0,0,1.22.1,7.46,7.46,0,0,0,1.05-.1,2.53,2.53,0,0,1,.78-.1C181.85,42,182.2,42.41,182.2,43.18Zm22.39-1.85a7.14,7.14,0,0,1,4.54,1.42v-.16c0-1,.43-1.5,1.3-1.5s1.34.43,1.34,1.3c0,.16,0,.57-.07,1.22a9.83,9.83,0,0,0-.13,1.62,13.55,13.55,0,0,0,.1,1.43,13.55,13.55,0,0,1,.1,1.42c0,1-.44,1.55-1.32,1.55a1.22,1.22,0,0,1-1-.33,1.21,1.21,0,0,1-.34-1V47a2.61,2.61,0,0,0-1.41-2.09,5.86,5.86,0,0,0-3.21-.88,5.12,5.12,0,0,0-3.14,1,2.89,2.89,0,0,0-1.27,2.38q0,2.61,3.59,3.09l2.37.33Q213,51.7,213,56.5a5.79,5.79,0,0,1-2.23,4.74,8.94,8.94,0,0,1-5.84,1.81,9.34,9.34,0,0,1-5.84-1.91v.77q0,1.47-1.38,1.47c-1,0-1.51-.56-1.51-1.67.12-.7.2-1.41.25-2.12a8.47,8.47,0,0,0,.08-1.13,10.12,10.12,0,0,0-.16-1.83,7.67,7.67,0,0,1-.17-1.35c0-1,.44-1.42,1.31-1.42.57,0,.92.14,1.07.41a6,6,0,0,1,.27,2.15,3.37,3.37,0,0,0,1.83,2.85,8.62,8.62,0,0,0,4.55,1.1,5.26,5.26,0,0,0,3.3-1,3.13,3.13,0,0,0,1.3-2.56q0-2.77-4.39-3.22A17.23,17.23,0,0,1,199,51.92a4.38,4.38,0,0,1-2.19-4.21A5.68,5.68,0,0,1,199,43.1a8.54,8.54,0,0,1,5.6-1.77Zm23.29,7.61c0-1.09.68-1.71,2-1.88a3.15,3.15,0,0,0-1.37-2.23,5.14,5.14,0,0,0-3-.82A5.47,5.47,0,0,0,221,46.25a9.52,9.52,0,0,0-1.71,5.94,9.85,9.85,0,0,0,1.61,6,5.23,5.23,0,0,0,4.46,2.17,4.92,4.92,0,0,0,3.12-1,5.15,5.15,0,0,0,1.82-2.81c.27-.95.43-1.49.49-1.63a1.42,1.42,0,0,1,1.3-.81,1.59,1.59,0,0,1,1.15.45,1.55,1.55,0,0,1,.45,1.13,6.12,6.12,0,0,1-.66,2.45,8.73,8.73,0,0,1-1.54,2.36,8.16,8.16,0,0,1-6.22,2.56,8.44,8.44,0,0,1-6.69-2.93A11.28,11.28,0,0,1,216,52.43a11.89,11.89,0,0,1,2.63-8.07,8.75,8.75,0,0,1,7-3,8.25,8.25,0,0,1,5.41,1.77,5.57,5.57,0,0,1,2.16,4.5,3.68,3.68,0,0,1-.84,2.48,2.68,2.68,0,0,1-2.13,1,2.43,2.43,0,0,1-1.69-.61A2,2,0,0,1,227.88,48.94Zm26.4,14c-2.23,0-3.6-1-4.11-2.89-1.39,2-3.55,3-6.51,3a8,8,0,0,1-5.27-1.63,5.37,5.37,0,0,1-2-4.35,5.27,5.27,0,0,1,2.89-5,7.28,7.28,0,0,1,1.89-.79c.53-.13,1.59-.28,3.19-.47a12.18,12.18,0,0,0,4.45-1,2.58,2.58,0,0,0,1-2.4,3.18,3.18,0,0,0-1.16-2.62,4.91,4.91,0,0,0-3.23-1,6.22,6.22,0,0,0-3.42,1,1.12,1.12,0,0,0-.61.86c0,.11.13.24.37.4a1.6,1.6,0,0,1,.57,1.39,1.73,1.73,0,0,1-.59,1.34,2.13,2.13,0,0,1-1.48.53,2.35,2.35,0,0,1-1.77-.73,2.45,2.45,0,0,1-.71-1.79A4.75,4.75,0,0,1,240.1,43a9.19,9.19,0,0,1,5.47-1.63q7.41,0,7.41,7.11v8.19a16.31,16.31,0,0,0,.08,2.32c.16.94.62,1.42,1.38,1.42.95,0,1.43-.86,1.43-2.59v-2c0-.86.41-1.29,1.24-1.29s1.32.65,1.32,2V59q-.09,3.9-4.15,3.9Zm-4.56-8.1V51.9A5.19,5.19,0,0,1,247.84,53a18.5,18.5,0,0,1-3.55.57q-4.62.45-4.62,3.42a3,3,0,0,0,1.12,2.44,4.7,4.7,0,0,0,3,.89,6,6,0,0,0,4.29-1.48,5.48,5.48,0,0,0,1.61-4.09ZM266,43.26v1.16a7.88,7.88,0,0,1,6.51-3.09,8.21,8.21,0,0,1,4.15,1.12,5.79,5.79,0,0,1,2.64,2.78,9.71,9.71,0,0,1,.57,3.62v7.73c0,1.17,0,1.86,0,2.08.13.92.5,1.38,1.1,1.38a6,6,0,0,0,1-.1,6,6,0,0,1,.84-.1,1.28,1.28,0,0,1,.91.36,1.23,1.23,0,0,1,.39.9,1.3,1.3,0,0,1-.49,1,1.8,1.8,0,0,1-1.18.4,16.64,16.64,0,0,1-1.87-.16,18.07,18.07,0,0,0-2.44-.16,14.64,14.64,0,0,0-1.75.08l-2.15.24c-1.09,0-1.63-.47-1.63-1.42s.47-1.26,1.41-1.26a3.65,3.65,0,0,1,.74.08,6.72,6.72,0,0,0,1,.16c.66,0,1-.74,1.08-2.23V50.2a14.75,14.75,0,0,0-.21-3,3.91,3.91,0,0,0-1.58-2.4,5.23,5.23,0,0,0-3-.94,5,5,0,0,0-4.65,2.32q-1,1.59-1,5.41V57a8,8,0,0,0,.25,2.44.88.88,0,0,0,.89.65,4,4,0,0,0,.9-.14,3.67,3.67,0,0,1,.93-.14c.84,0,1.26.45,1.26,1.36s-.54,1.32-1.62,1.32c-.22,0-.93-.08-2.12-.24a14.78,14.78,0,0,0-2-.13,21.86,21.86,0,0,0-2.28.17c-1.19.13-1.87.2-2,.2q-1.71,0-1.71-1.38a1.17,1.17,0,0,1,.34-1,1.2,1.2,0,0,1,1-.32,3.9,3.9,0,0,1,.76.13,5.08,5.08,0,0,0,1.1.12c.83,0,1.26-.79,1.29-2.36V46.86a5.28,5.28,0,0,0-.35-1.89,1,1,0,0,0-.94-.51,5,5,0,0,0-.85.12,4.71,4.71,0,0,1-.85.13c-1,0-1.49-.44-1.49-1.33S259.4,42,260.62,42a1.84,1.84,0,0,1,.41,0l1.51.17a5.35,5.35,0,0,0,1.13-.11l1.1-.1C265.56,42,266,42.44,266,43.26Z" style="fill: #21325b"/>
    <g id="circle">
      <g id="Group_3" data-name="Group 3">
        <path id="Path_1" data-name="Path 1" d="M28.28,48.55A2.54,2.54,0,0,1,30.82,46h4.25a2.55,2.55,0,0,1,2.55,2.55h0v16c.48-.14,1.09-.3,1.76-.45A2.13,2.13,0,0,0,41,62.08V42.2a2.55,2.55,0,0,1,2.55-2.55h4.25a2.55,2.55,0,0,1,2.55,2.55V60.65s1.06-.43,2.09-.87a2.11,2.11,0,0,0,1.3-2v-22a2.55,2.55,0,0,1,2.55-2.55h4.25a2.55,2.55,0,0,1,2.54,2.55V53.94a49.33,49.33,0,0,0,10.38-9.73,4.29,4.29,0,0,0,.65-4,30,30,0,0,0-56.67,19.7A30.36,30.36,0,0,0,19.78,65a3.8,3.8,0,0,0,3.62,1.88c.81-.07,1.81-.17,3-.31a2.13,2.13,0,0,0,1.88-2.11V48.55" style="fill: #21325b"/>
        <path id="Path_2" data-name="Path 2" d="M28.19,74.26A30,30,0,0,0,75.85,50c0-.7,0-1.38-.08-2.06-11,16.35-31.21,24-47.58,26.33" style="fill: #979695"/>
      </g>
    </g>
  </g>
</svg>
