<svg id="レイヤー_1" data-name="レイヤー 1" xmlns="http://www.w3.org/2000/svg" width="300" height="100" viewBox="0 0 300 100">
  <g id="etherscan-logo-light">
    <path id="Path_7" data-name="Path 7" d="M89.63,40.61c0-2-.69-3-2.07-3a3.53,3.53,0,0,0-.86.08,5.8,5.8,0,0,1-1.1.13,1.2,1.2,0,0,1-.89-.39,1.32,1.32,0,0,1-.37-1c0-1,.57-1.42,1.7-1.42l.61,0c4,.27,5.95.41,5.68.41h.4l9.77-.29c.19,0,.89,0,2.11-.12.43,0,.82,0,1.17,0,1.41,0,2.11.62,2.11,1.87q0,.33-.12,2.07c-.06.87-.08,1.67-.08,2.4a19.09,19.09,0,0,0,.06,2,17,17,0,0,1,.14,1.75c0,1-.49,1.54-1.47,1.54S105,46,105,44.51V42.38c0-2.29-.47-3.64-1.42-4q-1-.45-5.43-.45a24.11,24.11,0,0,0-3.4.12A2.26,2.26,0,0,0,93,40.49v4.07c0,1.08.24,1.71.72,1.87a4.49,4.49,0,0,0,1,.08h1.64c1.69,0,2.53-.58,2.53-1.75a10.69,10.69,0,0,0-.1-1.26,9.19,9.19,0,0,1-.1-1.39q0-1.62,1.44-1.62c1,0,1.44.58,1.44,1.75,0,.21-.08,1-.26,2.52a27.83,27.83,0,0,0-.23,3.29c0,.55.06,1.51.17,2.89,0,.22.09.69.2,1.43a11.18,11.18,0,0,1,.12,1.42,1.29,1.29,0,0,1-1.09,1.46,1.15,1.15,0,0,1-.37,0c-1,0-1.42-.57-1.42-1.7a11.55,11.55,0,0,1,.1-1.31c0-.43.09-.86.1-1.3,0-1.16-.77-1.75-2.32-1.75H94.67c-.79,0-1.27.14-1.44.41A3.73,3.73,0,0,0,93,51.35v2.52c0,.44,0,1,0,1.75,0,.9,0,1.49,0,1.79,0,1.08.25,1.76.65,2a4.81,4.81,0,0,0,2.12.29h5.53a5.59,5.59,0,0,0,3.3-.71,3.3,3.3,0,0,0,.89-2.67c0-.4,0-1-.06-1.81s-.06-1.4-.06-1.81c0-1.22.48-1.83,1.45-1.83s1.52.63,1.52,1.87c0,.49,0,1.24-.06,2.24s-.06,1.75-.06,2.24,0,.94.06,1.68.06,1.31.06,1.69a1.67,1.67,0,0,1-1.87,1.91c-.3,0-.77,0-1.42-.09-.33,0-.93,0-1.79,0l-3.18-.09c-2.3-.06-4.3-.09-6-.09q-3.83,0-7.48.28a2.33,2.33,0,0,0-.37,0h-.24c-1.14,0-1.71-.49-1.71-1.46a1.13,1.13,0,0,1,1.26-1.3c.14,0,.51,0,1.1.08a3.13,3.13,0,0,0,.86.12c1.38,0,2.07-1,2.07-3ZM123.8,56.72V54.11c0-1.11.51-1.66,1.46-1.66s1.42.62,1.42,1.87c0,3-.37,5-1.13,6.18q-1.53,2.36-5,2.36c-2.15,0-3.69-.69-4.6-2.08-.68-1-1-2.71-1-5.12V45.9c0-.57-.27-.86-.79-.86h-1.34a1.51,1.51,0,0,1-1.1-.42,1.4,1.4,0,0,1-.43-1,1.45,1.45,0,0,1,.42-1,1.26,1.26,0,0,1,1-.44h1.59q.69,0,.69-.78V37.15a1.38,1.38,0,0,1,1.58-1.54c1,0,1.47.51,1.47,1.54v4.36c0,.4.24.61.73.61h4.43c1,0,1.55.47,1.55,1.42s-.56,1.51-1.67,1.51h-4.47c-.38,0-.57.28-.57.85v10c0,2.84,1,4.27,2.84,4.27S123.71,59,123.8,56.72ZM135.1,36.1,134.94,44a10.71,10.71,0,0,1,3-2.14,8.05,8.05,0,0,1,3.18-.59,7.93,7.93,0,0,1,5.63,2,6.88,6.88,0,0,1,2.12,5.25v6.79c0,1.6,0,2.48,0,2.65.11,1.35.46,2,1.06,2a2.71,2.71,0,0,0,.93-.23,2.89,2.89,0,0,1,.65-.05c1,0,1.51.46,1.51,1.38s-.65,1.39-1.95,1.39c-.52,0-1-.06-1.55-.13a25.61,25.61,0,0,0-2.76-.2,12.62,12.62,0,0,0-1.63.08c-1.14.16-1.84.25-2.12.25a1.82,1.82,0,0,1-1.22-.43,1.38,1.38,0,0,1-.48-1.08,1.09,1.09,0,0,1,.42-.89,1.48,1.48,0,0,1,1-.37,3.49,3.49,0,0,1,1.06.2,2.28,2.28,0,0,0,.69.13c.81,0,1.23-.89,1.26-2.65,0-.32,0-1,.08-1.91v-4q0-4.14-.82-5.57a4.35,4.35,0,0,0-4.16-2.11,5.25,5.25,0,0,0-4.7,2.19,9.1,9.1,0,0,0-1.06,4.84v2.93a3.31,3.31,0,0,1-.16.82v.77c0,1.54,0,2.44,0,2.68.14,1.33.55,2,1.22,2a3.42,3.42,0,0,0,.94-.19,3.43,3.43,0,0,1,.89-.18c.9,0,1.34.43,1.34,1.3s-.6,1.47-1.8,1.47a16,16,0,0,1-1.72-.13,26.19,26.19,0,0,0-2.66-.16c-.47,0-1.11,0-1.93.12-1.09.11-1.78.17-2.08.17-1.12,0-1.68-.51-1.68-1.51,0-.84.52-1.26,1.57-1.26a2.1,2.1,0,0,1,.79.11,5.4,5.4,0,0,0,1,.18c.44,0,.74-.42.89-1.25a37.22,37.22,0,0,0,.27-5.06V46.43a68,68,0,0,0-.25-7.71c-.16-1.07-.54-1.61-1.13-1.61a6.14,6.14,0,0,0-.86.12,4.45,4.45,0,0,1-.89.13c-.93,0-1.39-.44-1.39-1.31a1.21,1.21,0,0,1,.49-1,1.81,1.81,0,0,1,1.18-.41c.14,0,.6,0,1.39.12a15.39,15.39,0,0,0,1.66.09,7.07,7.07,0,0,0,1-.11,7.34,7.34,0,0,1,.93-.1c.63,0,.94.45.94,1.35Zm38,14.24a4.8,4.8,0,0,1-.2,1.88c-.14.23-.53.35-1.18.35h-13a1.14,1.14,0,0,0-.7.14.59.59,0,0,0-.16.47,7.36,7.36,0,0,0,1.84,5.11,6.06,6.06,0,0,0,7.85,1.07,4.46,4.46,0,0,0,1.93-2.48l.37-1.18a1.28,1.28,0,0,1,1.35-1,1.36,1.36,0,0,1,1.51,1.55,5.89,5.89,0,0,1-2.69,4.7A9.74,9.74,0,0,1,164,63a8.55,8.55,0,0,1-6.79-2.87,11.25,11.25,0,0,1-2.52-7.7,11.85,11.85,0,0,1,2.68-8.06,8.82,8.82,0,0,1,7-3.09,8.43,8.43,0,0,1,6.3,2.55,8.94,8.94,0,0,1,2.48,6.49Zm-14.76-1c0,.38.3.57.89.57H169c.57,0,.86-.19.86-.57a5.09,5.09,0,0,0-1.63-3.74A5.33,5.33,0,0,0,164.41,44a6.15,6.15,0,0,0-4.17,1.64A4.84,4.84,0,0,0,158.37,49.31Zm23.91-6.16v1.12a7.09,7.09,0,0,1,10.27-1.36A5.32,5.32,0,0,1,194.32,47a4.55,4.55,0,0,1-.89,2.91,2.88,2.88,0,0,1-2.36,1.11,2.28,2.28,0,0,1-1.59-.57,1.77,1.77,0,0,1-.65-1.38,1.64,1.64,0,0,1,.49-1.16,1.54,1.54,0,0,1,1.14-.51,2.4,2.4,0,0,1,.53.12,2,2,0,0,0,.24-.89,2.43,2.43,0,0,0-1-2,4.06,4.06,0,0,0-2.58-.82,4.1,4.1,0,0,0-4.23,2.85,16,16,0,0,0-.65,5.29v2.68c0,1.82,0,2.83,0,3,.14,1.55.56,2.32,1.27,2.32a4.63,4.63,0,0,0,1.11-.14,3.4,3.4,0,0,1,.78-.1,1.14,1.14,0,0,1,1.31,1.28c0,.93-.55,1.4-1.66,1.4h-.17a16.45,16.45,0,0,1-1.85-.14,16.28,16.28,0,0,0-1.85-.14c-1.08,0-1.94,0-2.56.08l-2.28.2c-1.11,0-1.66-.47-1.66-1.42s.52-1.26,1.56-1.26a2.51,2.51,0,0,1,.61,0L178,60a3.72,3.72,0,0,0,.57.08c.69,0,1.06-.62,1.11-1.87V56.1l-.12-9.23c-.08-1.6-.49-2.4-1.22-2.4a5.51,5.51,0,0,0-.9.1,5.28,5.28,0,0,1-.89.11c-.9,0-1.34-.43-1.34-1.29S175.79,42,177,42c.41,0,.82,0,1.23.1a9.87,9.87,0,0,0,1.22.1,7.46,7.46,0,0,0,1-.1,2.88,2.88,0,0,1,.78-.1C181.93,42,182.28,42.38,182.28,43.15Zm22.39-1.85a7.2,7.2,0,0,1,4.54,1.42v-.16c0-1,.43-1.5,1.3-1.5s1.34.43,1.34,1.3c0,.16,0,.57-.06,1.22a9.87,9.87,0,0,0-.14,1.63,13.51,13.51,0,0,0,.1,1.42,13.51,13.51,0,0,1,.1,1.42c0,1-.44,1.55-1.32,1.55a1.18,1.18,0,0,1-1.32-1,1.22,1.22,0,0,1,0-.27V47a2.61,2.61,0,0,0-1.41-2.1,5.77,5.77,0,0,0-3.21-.87,5,5,0,0,0-3.14.95,2.89,2.89,0,0,0-1.27,2.38q0,2.61,3.59,3.09l2.37.33q6.93.93,6.93,5.73a5.78,5.78,0,0,1-2.23,4.74A8.94,8.94,0,0,1,205,63a9.28,9.28,0,0,1-5.84-1.91v.77q0,1.47-1.38,1.47c-1,0-1.51-.56-1.51-1.67.12-.7.2-1.41.25-2.11a8.74,8.74,0,0,0,.08-1.14,10.12,10.12,0,0,0-.16-1.83,7.56,7.56,0,0,1-.17-1.34c0-.95.44-1.43,1.31-1.43.57,0,.92.14,1.07.41a6,6,0,0,1,.27,2.15,3.37,3.37,0,0,0,1.83,2.85,8.62,8.62,0,0,0,4.55,1.1,5.2,5.2,0,0,0,3.3-1,3.13,3.13,0,0,0,1.3-2.56c0-1.84-1.46-2.92-4.39-3.22a17.45,17.45,0,0,1-6.39-1.64,4.4,4.4,0,0,1-2.19-4.21,5.7,5.7,0,0,1,2.14-4.62,8.54,8.54,0,0,1,5.6-1.77ZM228,48.91c0-1.09.68-1.71,2-1.87a3.17,3.17,0,0,0-1.36-2.24,5.11,5.11,0,0,0-3-.81,5.43,5.43,0,0,0-4.53,2.23,9.52,9.52,0,0,0-1.71,5.94,9.85,9.85,0,0,0,1.61,6,5.24,5.24,0,0,0,4.46,2.18,5,5,0,0,0,3.12-1,5.11,5.11,0,0,0,1.82-2.81c.27-.95.43-1.49.49-1.62a1.41,1.41,0,0,1,1.3-.82,1.59,1.59,0,0,1,1.15.45,1.55,1.55,0,0,1,.45,1.14,6.12,6.12,0,0,1-.66,2.44,8.36,8.36,0,0,1-1.54,2.36A8.16,8.16,0,0,1,225.36,63a8.41,8.41,0,0,1-6.69-2.93,11.27,11.27,0,0,1-2.55-7.68,11.9,11.9,0,0,1,2.63-8.08,8.75,8.75,0,0,1,7-3,8.25,8.25,0,0,1,5.41,1.77,5.57,5.57,0,0,1,2.16,4.5,3.68,3.68,0,0,1-.84,2.48,2.68,2.68,0,0,1-2.13,1,2.39,2.39,0,0,1-1.69-.61A2,2,0,0,1,228,48.91Zm26.4,14q-3.35,0-4.11-2.89-2.07,3-6.51,3.05a8,8,0,0,1-5.27-1.63,5.37,5.37,0,0,1-2-4.35,5.27,5.27,0,0,1,2.89-5,7.28,7.28,0,0,1,1.89-.79c.53-.12,1.59-.28,3.19-.47a12,12,0,0,0,4.45-1,2.58,2.58,0,0,0,1-2.4,3.21,3.21,0,0,0-1.16-2.62,4.91,4.91,0,0,0-3.23-1,6.16,6.16,0,0,0-3.41,1,1.1,1.1,0,0,0-.61.86c0,.11.12.24.36.4a1.6,1.6,0,0,1,.57,1.39,1.73,1.73,0,0,1-.59,1.34,2.13,2.13,0,0,1-1.48.53,2.35,2.35,0,0,1-1.77-.73,2.45,2.45,0,0,1-.71-1.79,4.75,4.75,0,0,1,2.25-3.91,9.11,9.11,0,0,1,5.47-1.62q7.41,0,7.41,7.1v8.2a16.22,16.22,0,0,0,.08,2.31c.16.95.62,1.42,1.38,1.42.95,0,1.43-.86,1.43-2.59v-2c0-.87.41-1.3,1.24-1.3s1.32.65,1.32,2V59q-.09,3.9-4.15,3.9Zm-4.56-8.1V51.88A5.17,5.17,0,0,1,247.92,53a17.76,17.76,0,0,1-3.55.57q-4.62.45-4.62,3.42a3,3,0,0,0,1.12,2.44,4.77,4.77,0,0,0,3,.9,6,6,0,0,0,4.29-1.49A5.45,5.45,0,0,0,249.8,54.76ZM266,43.23v1.16a7.88,7.88,0,0,1,6.51-3.09,8.31,8.31,0,0,1,4.15,1.12,5.82,5.82,0,0,1,2.64,2.79,9.64,9.64,0,0,1,.57,3.62v7.72c0,1.17,0,1.86,0,2.08.14.92.5,1.38,1.1,1.38a5,5,0,0,0,.95-.1,6,6,0,0,1,.84-.1,1.29,1.29,0,0,1,.91.37,1.19,1.19,0,0,1,.39.89,1.3,1.3,0,0,1-.49,1,1.8,1.8,0,0,1-1.18.4,16.64,16.64,0,0,1-1.87-.16,18.07,18.07,0,0,0-2.44-.16,14.64,14.64,0,0,0-1.75.08l-2.15.24c-1.09,0-1.63-.47-1.63-1.42s.47-1.26,1.41-1.26a3.65,3.65,0,0,1,.74.08,6.72,6.72,0,0,0,1,.16c.66,0,1-.74,1.08-2.23V50.17a14.75,14.75,0,0,0-.21-3,3.91,3.91,0,0,0-1.58-2.4,5.23,5.23,0,0,0-3-.94,5,5,0,0,0-4.65,2.32q-1,1.59-1,5.41V57a8,8,0,0,0,.25,2.44.88.88,0,0,0,.89.65,4,4,0,0,0,.9-.14,4.18,4.18,0,0,1,.93-.14c.84,0,1.26.45,1.26,1.36s-.54,1.32-1.62,1.32c-.22,0-.93-.08-2.12-.24a13.29,13.29,0,0,0-2-.12,19.41,19.41,0,0,0-2.28.16c-1.19.13-1.87.2-2,.2q-1.71,0-1.71-1.38a1.17,1.17,0,0,1,1-1.31,1.22,1.22,0,0,1,.33,0,3.34,3.34,0,0,1,.76.12,5.08,5.08,0,0,0,1.1.12c.83,0,1.26-.79,1.29-2.36V46.83a5.12,5.12,0,0,0-.36-1.89,1,1,0,0,0-.93-.51,5,5,0,0,0-.85.13,6,6,0,0,1-.85.12c-1,0-1.49-.44-1.49-1.32S259.48,42,260.7,42a1.84,1.84,0,0,1,.41,0l1.5.17a5.38,5.38,0,0,0,1.14-.11l1.1-.1C265.64,42,266,42.41,266,43.23Z" style="fill: #fff"/>
    <g id="circle">
      <g id="Group_3" data-name="Group 3">
        <path id="Path_1" data-name="Path 1" d="M28.36,48.52A2.54,2.54,0,0,1,30.9,46h4.25a2.55,2.55,0,0,1,2.55,2.55h0v16c.48-.14,1.09-.29,1.76-.45a2.13,2.13,0,0,0,1.64-2.07V42.17a2.55,2.55,0,0,1,2.55-2.55H47.9a2.55,2.55,0,0,1,2.55,2.55V60.62l2.09-.86a2.14,2.14,0,0,0,1.3-2v-22a2.55,2.55,0,0,1,2.55-2.55h4.25a2.55,2.55,0,0,1,2.54,2.55V53.92a49.64,49.64,0,0,0,10.38-9.74,4.29,4.29,0,0,0,.65-4,30,30,0,0,0-56.67,19.7A30.36,30.36,0,0,0,19.86,65a3.8,3.8,0,0,0,3.62,1.88c.81-.07,1.81-.17,3-.31a2.12,2.12,0,0,0,1.88-2.11V48.52" style="fill: #fff"/>
        <path id="Path_2" data-name="Path 2" d="M28.27,74.23A30,30,0,0,0,75.93,50c0-.7,0-1.38-.08-2.06-11,16.36-31.21,24-47.58,26.33" style="fill: #bfcfda"/>
      </g>
    </g>
  </g>
</svg>
