<?xml version="1.0" encoding="UTF-8"?>
<svg id="_イヤー_1" data-name="レイヤー 1" xmlns="http://www.w3.org/2000/svg" width="300" height="100" viewBox="0 0 300 100">
  <path d="M50.75,24.56l13.29,7.01c1,.53,1,1.38,0,1.9l-13.29,7.01c-1,.53-2.61,.53-3.61,0l-13.29-7.01c-1-.53-1-1.38,0-1.9l13.29-7.01c1-.53,2.61-.53,3.61,0Z" style="fill: none; stroke: #1f58fa; stroke-width: 2px;"/>
  <path d="M50.75,41.65l13.29,7.01c1,.53,1,1.38,0,1.9l-13.29,7.01c-1,.53-2.61,.53-3.61,0l-13.29-7.01c-1-.53-1-1.38,0-1.9l13.29-7.01c1-.53,2.61-.53,3.61,0Z" style="fill: none; stroke: #1f58fa; stroke-width: 2px;"/>
  <path d="M50.75,59.53l13.29,7.01c1,.53,1,1.38,0,1.9l-13.29,7.01c-1,.53-2.61,.53-3.61,0l-13.29-7.01c-1-.53-1-1.38,0-1.9l13.29-7.01c1-.53,2.61-.53,3.61,0Z" style="fill: none; stroke: #1f58fa; stroke-width: 2px;"/>
  <path d="M66.37,26.45c2.6,1.57,3.88,2.16,3.88,6.09" style="fill: none; stroke: #1f58fa; stroke-width: 2px;"/>
  <path d="M31.27,72.96c-2.6-1.57-3.88-2.16-3.88-6.09" style="fill: none; stroke: #1f58fa; stroke-width: 2px;"/>
  <path d="M33,67.29V32.7" style="fill: none; stroke: #1f58fa; stroke-linecap: square; stroke-width: 2px;"/>
  <path d="M64.89,67.29V32.7" style="fill: none; stroke: #1f58fa; stroke-linecap: square; stroke-width: 2px;"/>
  <path d="M48.94,57.47v-16.11" style="fill: none; stroke: #1f58fa; stroke-linecap: square; stroke-width: 2px;"/>
  <path d="M95.08,68.7v-24.39h6.77v-4.47h-6.77v-3.21c0-3.63,1.59-5.44,4.76-5.44,.92,0,1.89,.15,2.93,.46v-4.75c-1.26-.38-2.66-.57-4.19-.57-2.95,0-5.23,.84-6.86,2.52-1.63,1.68-2.44,4.12-2.44,7.33v3.66h-5.57v4.47h5.57v24.39h5.8Zm23.82,.4c2.22,0,4.16-.46,5.83-1.37,1.66-.92,2.92-2.23,3.76-3.95v4.92h5.74v-28.86h-5.74v4.7c-.88-1.72-2.14-3.04-3.79-3.98-1.65-.94-3.58-1.4-5.8-1.4-2.49,0-4.71,.63-6.66,1.89-1.95,1.26-3.47,3.03-4.56,5.33-1.09,2.29-1.64,4.92-1.64,7.9s.54,5.58,1.61,7.82c1.07,2.23,2.57,3.96,4.51,5.18,1.93,1.22,4.18,1.83,6.74,1.83Zm1.38-4.58c-2.64,0-4.7-.9-6.17-2.69-1.47-1.79-2.21-4.31-2.21-7.56s.74-5.85,2.21-7.7c1.47-1.85,3.51-2.78,6.11-2.78s4.68,.9,6.11,2.69c1.43,1.79,2.15,4.35,2.15,7.67s-.72,5.83-2.15,7.64c-1.44,1.81-3.45,2.72-6.06,2.72Zm28.19,4.18v-16.43c0-2.56,.74-4.6,2.21-6.13,1.47-1.53,3.44-2.29,5.88-2.29,2.14,0,3.7,.57,4.68,1.72,.98,1.15,1.46,2.98,1.46,5.5v17.64h5.8v-17.98c0-7.71-3.46-11.57-10.39-11.57-2.22,0-4.2,.49-5.94,1.46-1.74,.97-3.07,2.38-3.99,4.21l-.52-4.98h-5.4c.31,2.41,.46,5.12,.46,8.13v20.73h5.74Zm39.44,.4c1.61,0,3.04-.21,4.31-.63v-4.7c-1.03,.31-2.05,.46-3.04,.46-1.53,0-2.73-.41-3.59-1.23-.86-.82-1.29-2.22-1.29-4.21v-14.49h7.98v-4.47h-7.98v-9.22l-5.8,2v7.22h-5.63v4.47h5.63v14.95c0,3.21,.82,5.65,2.47,7.33s3.96,2.52,6.95,2.52Zm22.16,0c2.79,0,5.26-.61,7.41-1.83,2.14-1.22,3.8-2.96,4.97-5.21,1.17-2.25,1.75-4.89,1.75-7.9s-.58-5.66-1.75-7.93c-1.17-2.27-2.82-4.02-4.97-5.24-2.14-1.22-4.61-1.83-7.41-1.83s-5.32,.61-7.46,1.83c-2.14,1.22-3.8,2.97-4.97,5.24-1.17,2.27-1.75,4.92-1.75,7.93s.58,5.65,1.75,7.9c1.17,2.25,2.82,3.99,4.97,5.21,2.14,1.22,4.63,1.83,7.46,1.83Zm-.06-4.58c-2.64,0-4.68-.88-6.11-2.63-1.43-1.76-2.15-4.33-2.15-7.73s.73-5.88,2.18-7.67c1.45-1.79,3.5-2.69,6.14-2.69s4.62,.9,6.06,2.69c1.43,1.79,2.15,4.35,2.15,7.67s-.71,5.97-2.12,7.73-3.46,2.63-6.14,2.63Zm26.69,4.18v-16.32c0-2.63,.65-4.71,1.95-6.24,1.3-1.53,3.06-2.29,5.28-2.29,1.91,0,3.3,.57,4.16,1.72,.86,1.15,1.29,2.96,1.29,5.44v17.69h5.8v-16.32c0-2.63,.64-4.71,1.92-6.24,1.28-1.53,3.03-2.29,5.25-2.29,1.91,0,3.3,.57,4.16,1.72,.86,1.15,1.29,2.96,1.29,5.44v17.69h5.8v-17.98c0-7.71-3.22-11.57-9.65-11.57-2.14,0-4.07,.5-5.77,1.49-1.7,.99-3,2.35-3.88,4.07-1.38-3.7-4.31-5.55-8.78-5.55-2.11,0-3.94,.48-5.51,1.43-1.57,.95-2.77,2.31-3.62,4.07l-.52-4.81h-5.4c.31,2.41,.46,5.12,.46,8.13v20.73h5.74Z" style="fill: #1f58fa;"/>
</svg>