<?xml version="1.0" encoding="UTF-8"?>
<svg id="_イヤー_1" data-name="レイヤー 1" xmlns="http://www.w3.org/2000/svg" width="300" height="100" viewBox="0 0 300 100">
  <path d="M105.72,34.44v5.01h-13.29v8.46h10.65v4.83h-10.65v13.29h-6.31v-31.6h19.6Zm25.74,0v5.01h-8.73v26.59h-6.31v-26.59h-8.68v-5.01h23.72Zm37.55,.36v31.24h-6.27v-21.8l-8.01,21.8h-5.46l-8.01-21.71v21.71h-6.31v-31.24h7.65l9.49,23.5,9.31-23.5h7.61Zm27.44,22.6c.01,1.57-.41,3.11-1.21,4.45-.86,1.41-2.1,2.54-3.58,3.27-1.8,.87-3.78,1.29-5.77,1.23-2.06,.04-4.1-.35-6-1.14-1.68-.7-3.14-1.83-4.23-3.29-1.07-1.46-1.7-3.2-1.81-5.01h6.71c.12,1.22,.66,2.35,1.54,3.2,.95,.88,2.22,1.34,3.51,1.28,1.11,.07,2.2-.31,3.02-1.05,.71-.72,1.09-1.7,1.05-2.71,.03-.89-.27-1.76-.85-2.44-.6-.66-1.33-1.19-2.15-1.54-.87-.39-2.06-.84-3.58-1.34-1.66-.53-3.27-1.18-4.83-1.95-1.28-.66-2.37-1.62-3.2-2.8-.94-1.42-1.4-3.09-1.32-4.79-.11-2.49,.98-4.87,2.93-6.42,1.95-1.57,4.54-2.35,7.77-2.35s6.01,.81,7.99,2.42c1.97,1.59,3.2,3.92,3.38,6.45h-6.8c-.15-1.07-.65-2.06-1.43-2.8-.87-.77-2.02-1.16-3.18-1.1-1.02-.05-2.02,.28-2.82,.92-.74,.68-1.14,1.66-1.07,2.66-.03,.85,.27,1.67,.83,2.31,.59,.64,1.31,1.15,2.1,1.5,1.13,.49,2.29,.93,3.47,1.3,1.69,.58,3.34,1.25,4.95,2.01,1.3,.65,2.42,1.62,3.25,2.82,.95,1.46,1.42,3.18,1.34,4.92Zm15.8-16.47c2.89-.1,5.71,.82,7.99,2.6,2.16,1.78,3.59,4.3,4.01,7.07h-6.67c-.22-1.22-.87-2.33-1.84-3.11-1.04-.79-2.32-1.19-3.63-1.14-1.6-.03-3.13,.65-4.18,1.86-1.12,1.24-1.68,3.05-1.68,5.44s.56,4.2,1.68,5.44c1.05,1.21,2.58,1.89,4.18,1.86,1.3,.05,2.59-.35,3.63-1.14,.97-.78,1.62-1.89,1.84-3.11h6.67c-.42,2.77-1.84,5.29-4.01,7.07-2.27,1.78-5.1,2.7-7.99,2.6-2.24,.04-4.46-.49-6.45-1.54-1.86-1.01-3.39-2.54-4.39-4.41-1.09-2.08-1.63-4.41-1.57-6.76-.06-2.36,.48-4.69,1.57-6.78,.99-1.87,2.52-3.41,4.39-4.41,1.99-1.04,4.2-1.56,6.45-1.52h0Zm26.18,0c1.9-.05,3.77,.46,5.37,1.48,1.46,.95,2.58,2.35,3.18,3.98v-5.15h6.27v24.8h-6.27v-5.19c-.6,1.64-1.72,3.05-3.18,4.01-1.6,1.03-3.47,1.55-5.37,1.5-1.98,.03-3.94-.5-5.64-1.52-1.71-1.06-3.07-2.59-3.92-4.41-.98-2.12-1.46-4.44-1.41-6.78-.05-2.34,.43-4.66,1.41-6.78,.85-1.82,2.21-3.35,3.92-4.41,1.7-1.02,3.65-1.55,5.64-1.52h0Zm1.97,5.51c-1.79-.08-3.52,.63-4.74,1.92-1.26,1.46-1.9,3.36-1.79,5.28-.11,1.92,.53,3.81,1.79,5.26,1.24,1.29,2.96,1.98,4.74,1.9,1.78,.05,3.5-.65,4.72-1.95,1.29-1.42,1.95-3.3,1.86-5.21,.1-1.93-.57-3.82-1.86-5.26-1.22-1.29-2.94-2-4.72-1.95h0Zm33.35-5.55c2.59-.12,5.09,.92,6.85,2.82,1.7,1.88,2.55,4.52,2.55,7.92v14.41h-6.27v-13.7c.1-1.67-.44-3.31-1.52-4.59-1.09-1.12-2.6-1.71-4.16-1.63-1.62-.07-3.19,.57-4.3,1.75-1.07,1.16-1.61,2.83-1.61,5.01v13.16h-6.31v-24.8h6.31v4.97c.62-1.63,1.76-3,3.25-3.92,1.57-.96,3.38-1.45,5.21-1.41h0Z" style="fill: #fff;"/>
  <rect x="16.86" y="22.77" width="54.46" height="54.46" rx="7.46" ry="7.46" style="fill: #fff;"/>
  <path d="M60.91,57.11h2v-14.94h0c0-2.05-1.09-3.94-2.86-4.96h0l-13.08-7.47h0c-.89-.51-1.88-.76-2.87-.76-.99,0-1.98,.26-2.87,.77h0l-13.08,7.47h0c-1.77,1.03-2.86,2.92-2.86,4.96v14.94h0c0,2.05,1.09,3.94,2.86,4.96h0l13.08,7.47h0c.89,.51,1.88,.76,2.87,.76,.99,0,1.98-.26,2.87-.77h0l13.08-7.47h0c1.77-1.02,2.86-2.91,2.87-4.96h-4c0,.61-.33,1.19-.87,1.5h0l-13.08,7.47h0c-.27,.16-.57,.23-.87,.23-.3,0-.6-.08-.87-.23h0l-13.07-7.47h0c-.54-.3-.87-.88-.87-1.49v-14.94h0c0-.62,.33-1.19,.87-1.5h0l13.08-7.47h0c.27-.15,.57-.23,.87-.23,.3,0,.6,.08,.87,.23h0l13.07,7.47h0c.54,.3,.87,.88,.87,1.49v14.94h2Z" style="fill: #001f68;"/>
  <polygon points="26.8 41.97 44.11 51.97 61.41 41.97 59.4 38.5 44.11 47.35 28.81 38.5 26.8 41.97 26.8 41.97" style="fill: #001f68;"/>
  <polyline points="46.11 68.47 46.11 49.65 42.11 49.65 42.11 68.47" style="fill: #001f68;"/>
</svg>