<?xml version="1.0" encoding="UTF-8"?>
<svg id="_イヤー_1" data-name="レイヤー 1" xmlns="http://www.w3.org/2000/svg" width="256.5" height="76" xmlns:xlink="http://www.w3.org/1999/xlink" viewBox="0 0 256.5 76">
  <defs>
    <linearGradient id="_称未設定グラデーション_6" data-name="名称未設定グラデーション 6" x1="41.42" y1="-85.45" x2="9.54" y2="-53.56" gradientTransform="translate(0 102)" gradientUnits="userSpaceOnUse">
      <stop offset="0" stop-color="#00a0ff"/>
      <stop offset="0" stop-color="#00a1ff"/>
      <stop offset=".26" stop-color="#00beff"/>
      <stop offset=".51" stop-color="#00d2ff"/>
      <stop offset=".76" stop-color="#00dfff"/>
      <stop offset="1" stop-color="#00e3ff"/>
    </linearGradient>
    <linearGradient id="_称未設定グラデーション_5" data-name="名称未設定グラデーション 5" x1="64.28" y1="-64" x2="18.32" y2="-64" gradientTransform="translate(0 102)" gradientUnits="userSpaceOnUse">
      <stop offset="0" stop-color="#ffe000"/>
      <stop offset=".41" stop-color="#ffbd00"/>
      <stop offset=".78" stop-color="orange"/>
      <stop offset="1" stop-color="#ff9c00"/>
    </linearGradient>
    <linearGradient id="_称未設定グラデーション_2" data-name="名称未設定グラデーション 2" x1="47.17" y1="-59.64" x2="3.92" y2="-16.41" gradientTransform="translate(0 102)" gradientUnits="userSpaceOnUse">
      <stop offset="0" stop-color="#ff3a44"/>
      <stop offset="1" stop-color="#c31162"/>
    </linearGradient>
    <linearGradient id="_称未設定グラデーション_4" data-name="名称未設定グラデーション 4" x1="13.87" y1="-101.66" x2="33.17" y2="-82.35" gradientTransform="translate(0 102)" gradientUnits="userSpaceOnUse">
      <stop offset="0" stop-color="#32a071"/>
      <stop offset=".07" stop-color="#2da771"/>
      <stop offset=".48" stop-color="#15cf74"/>
      <stop offset=".8" stop-color="#06e775"/>
      <stop offset="1" stop-color="#00f076"/>
    </linearGradient>
  </defs>
  <rect width="256.5" height="76" rx="9.5" ry="9.5"/>
  <path d="M247,1.52c4.41,0,7.98,3.57,7.98,7.98v57c0,4.41-3.57,7.98-7.98,7.98H9.5c-4.41,0-7.98-3.57-7.98-7.98h0V9.5C1.52,5.09,5.09,1.52,9.5,1.52H247m0-1.52H9.5C4.25,0,0,4.25,0,9.5v57c0,5.25,4.25,9.5,9.5,9.5H247c5.25,0,9.5-4.25,9.5-9.5V9.5c0-5.25-4.25-9.5-9.5-9.5Z" style="fill: #a6a6a6;"/>
  <g>
    <path d="M90.1,19.46c.06,1.41-.45,2.78-1.42,3.8-1.09,1.13-2.61,1.74-4.18,1.67-1.58,.04-3.1-.58-4.2-1.71-2.3-2.36-2.3-6.12,0-8.47,1.73-1.69,4.31-2.18,6.54-1.23,.69,.28,1.3,.72,1.79,1.27l-1.01,1.01c-.77-.92-1.92-1.43-3.12-1.37-2.52,.02-4.55,2.07-4.53,4.59,.02,2.52,2.07,4.55,4.59,4.53,1.17,0,2.29-.46,3.13-1.27,.58-.64,.92-1.46,.95-2.32h-4.14v-1.37h5.53c.04,.29,.07,.58,.08,.87Z" style="fill: #fff; stroke: #fff; stroke-miterlimit: 10; stroke-width: .2px;"/>
    <path d="M98.8,14.71h-5.13v3.61h4.67v1.37h-4.67v3.61h5.13v1.41h-6.61V13.3h6.61v1.41Z" style="fill: #fff; stroke: #fff; stroke-miterlimit: 10; stroke-width: .2px;"/>
    <path d="M105.03,24.7h-1.46V14.71h-3.19v-1.41h7.92v1.41h-3.27v9.99Z" style="fill: #fff; stroke: #fff; stroke-miterlimit: 10; stroke-width: .2px;"/>
    <path d="M113.89,24.7V13.3h1.46v11.4h-1.46Z" style="fill: #fff; stroke: #fff; stroke-miterlimit: 10; stroke-width: .2px;"/>
    <path d="M121.85,24.7h-1.46V14.71h-3.19v-1.41h7.83v1.41h-3.17v9.99Z" style="fill: #fff; stroke: #fff; stroke-miterlimit: 10; stroke-width: .2px;"/>
    <path d="M139.86,23.22c-2.31,2.31-6.05,2.31-8.36,0h0c-2.23-2.37-2.23-6.07,0-8.44,1.09-1.14,2.6-1.77,4.18-1.73,1.57-.02,3.08,.6,4.18,1.73,1.1,1.12,1.71,2.64,1.67,4.22,.05,1.58-.55,3.1-1.67,4.22Zm-7.28-.95c1.69,1.71,4.44,1.73,6.15,.04l.04-.04c1.7-1.85,1.7-4.69,0-6.54-1.69-1.71-4.44-1.73-6.15-.04l-.04,.04c-1.7,1.85-1.7,4.69,0,6.54Z" style="fill: #fff; stroke: #fff; stroke-miterlimit: 10; stroke-width: .2px;"/>
    <path d="M143.6,24.7V13.3h1.77l5.55,8.87h0V13.3h1.46v11.4h-1.52l-5.8-9.29h0v9.29h-1.46Z" style="fill: #fff; stroke: #fff; stroke-miterlimit: 10; stroke-width: .2px;"/>
  </g>
  <path d="M129.47,41.33c-4.47,.01-8.09,3.64-8.07,8.11s3.64,8.09,8.11,8.07c4.47-.01,8.09-3.64,8.07-8.11,.06-4.4-3.45-8.01-7.84-8.08-.09,0-.18,0-.27,0Zm0,12.98c-2.7,.19-5.04-1.85-5.23-4.55-.19-2.7,1.85-5.04,4.55-5.23,2.7-.19,5.04,1.85,5.23,4.55,0,.11,.01,.22,.01,.33,.13,2.58-1.86,4.77-4.44,4.9-.04,0-.08,0-.12,0Zm-17.71-12.98c-4.47,.01-8.09,3.64-8.07,8.11,.01,4.47,3.64,8.09,8.11,8.07,4.47-.01,8.09-3.64,8.07-8.11,.06-4.4-3.45-8.01-7.84-8.08-.09,0-.18,0-.27,0Zm0,12.98c-2.7,.19-5.04-1.85-5.23-4.55-.19-2.7,1.85-5.04,4.55-5.23,2.7-.19,5.04,1.85,5.23,4.55,0,.11,.01,.22,.01,.33,.13,2.58-1.86,4.77-4.44,4.9-.04,0-.08,0-.12,0Zm-21.05-10.49v3.42h8.21c-.13,1.61-.8,3.13-1.9,4.31-1.67,1.7-3.97,2.61-6.35,2.51-5.04,0-9.12-4.08-9.12-9.12s4.08-9.12,9.12-9.12c2.32-.03,4.56,.85,6.23,2.45l2.41-2.41c-2.29-2.26-5.39-3.51-8.61-3.46-6.93-.27-12.77,5.13-13.04,12.06-.27,6.93,5.13,12.77,12.06,13.04,.33,.01,.65,.01,.98,0,3.29,.13,6.47-1.15,8.76-3.51,2-2.19,3.06-5.07,2.96-8.04,0-.71-.05-1.43-.17-2.13h-11.55Zm86.09,2.66c-1.01-2.98-3.77-5.03-6.92-5.15-4.2,0-7.61,3.39-7.61,7.59,0,.16,0,.33,.01,.49-.04,4.44,3.52,8.07,7.96,8.11,2.73,.03,5.28-1.33,6.78-3.61l-2.75-1.9c-.84,1.39-2.35,2.24-3.97,2.22-1.69,.07-3.24-.9-3.91-2.45l10.81-4.46-.4-.84Zm-11.02,2.7c-.16-2.45,1.7-4.57,4.15-4.73,.03,0,.06,0,.09,0,1.25-.08,2.43,.6,2.98,1.73l-7.22,3Zm-8.78,7.83h3.55v-23.75h-3.55v23.75Zm-5.81-13.87h-.13c-1.07-1.22-2.63-1.92-4.26-1.9-4.46,.22-7.91,4.01-7.69,8.48,.2,4.16,3.53,7.49,7.69,7.69,1.63,.03,3.19-.66,4.26-1.9h.13v1.16c0,3.1-1.65,4.75-4.31,4.75-1.82-.04-3.43-1.17-4.09-2.87l-3.08,1.27c1.16,2.93,4.01,4.83,7.16,4.79,4.16,0,7.6-2.45,7.6-8.42v-14.38h-3.29v1.33Zm-4.09,11.17c-2.7-.17-4.76-2.5-4.59-5.2,.15-2.47,2.12-4.43,4.59-4.59,2.51,.11,4.45,2.23,4.34,4.73,0,.05,0,.1,0,.15,.21,2.49-1.63,4.68-4.12,4.89-.07,0-.14,.01-.21,.01Zm46.34-21.05h-8.51v23.75h3.55v-9.01h4.96c4.07,.29,7.61-2.77,7.9-6.84,.29-4.07-2.77-7.61-6.84-7.9-.35-.03-.71-.03-1.06,0Zm0,11.4h-4.96v-8.09h5.04c2.25,0,4.07,1.82,4.07,4.07s-1.82,4.07-4.07,4.07h0l-.08-.04Zm21.93-3.4c-2.64-.16-5.13,1.26-6.33,3.63l3.14,1.31c.65-1.17,1.92-1.84,3.25-1.73,1.88-.22,3.57,1.12,3.79,3v.29c-1.14-.6-2.41-.91-3.7-.91-3.38,0-6.84,1.9-6.84,5.36,.14,3.03,2.71,5.37,5.73,5.24,.06,0,.12,0,.17-.01,1.82,.1,3.54-.79,4.52-2.32h.11v1.9h3.42v-9.14c0-4.16-3.15-6.57-7.2-6.57l-.08-.04Zm-.44,13.01c-1.16,0-2.77-.59-2.77-2.01,0-1.9,2.01-2.55,3.8-2.55,1.13-.03,2.24,.25,3.23,.8-.25,2.13-2.03,3.76-4.18,3.8l-.08-.04Zm20.18-12.46l-4.07,10.3h-.11l-4.22-10.3h-3.8l6.33,14.4-3.61,8h3.7l9.73-22.4h-3.95Zm-31.92,15.2h3.53v-23.75h-3.53v23.75Z" style="fill: #fff;"/>
  <g>
    <path d="M19.84,14.33c-.63,.74-.95,1.69-.89,2.66V59.01c-.06,.97,.26,1.93,.89,2.66l.13,.15,23.54-23.54v-.57L19.97,14.19l-.13,.13Z" style="fill: url(#_称未設定グラデーション_6);"/>
    <path d="M51.3,46.13l-7.79-7.85v-.57l7.79-7.85,.17,.11,9.33,5.28c2.66,1.5,2.66,3.97,0,5.49l-9.29,5.28-.21,.09Z" style="fill: url(#_称未設定グラデーション_5);"/>
    <path d="M51.53,46.02l-8.02-8.02-23.67,23.67c1.11,.99,2.76,1.04,3.93,.13l27.76-15.79" style="fill: url(#_称未設定グラデーション_2);"/>
    <path d="M51.53,29.98L23.77,14.21c-1.16-.92-2.82-.87-3.93,.11l23.67,23.67,8.02-8.02Z" style="fill: url(#_称未設定グラデーション_4);"/>
    <g>
      <path d="M51.3,45.85l-27.53,15.68c-1.12,.85-2.68,.85-3.8,0h0l-.13,.13h0l.13,.15h0c1.12,.85,2.68,.85,3.8,0l27.76-15.79-.23-.17Z" style="isolation: isolate; opacity: .2;"/>
      <path d="M19.84,61.41c-.61-.75-.91-1.71-.84-2.68v.29c-.06,.97,.26,1.93,.89,2.66l.13-.13-.19-.13Z" style="isolation: isolate; opacity: .12;"/>
    </g>
    <path d="M60.8,40.47l-9.5,5.38,.17,.17,9.33-5.28c1.12-.47,1.89-1.52,2.01-2.74h0c-.24,1.1-.99,2.01-2.01,2.47Z" style="isolation: isolate; opacity: .12;"/>
    <path d="M23.77,14.48l37.03,21.05c1.03,.46,1.77,1.37,2.01,2.47h0c-.12-1.21-.89-2.26-2.01-2.74L23.77,14.21c-2.64-1.52-4.83-.27-4.83,2.77v.28c.06-3.04,2.18-4.29,4.83-2.79Z" style="fill: #fff; isolation: isolate; opacity: .25;"/>
  </g>
</svg>
