<svg id="レイヤー_1" data-name="レイヤー 1" xmlns="http://www.w3.org/2000/svg" xmlns:xlink="http://www.w3.org/1999/xlink" width="300" height="100" viewBox="0 0 300 100">
  <defs>
    <linearGradient id="名称未設定グラデーション_6" data-name="名称未設定グラデーション 6" x1="63.17" y1="-73.45" x2="31.29" y2="-41.56" gradientTransform="translate(0 102)" gradientUnits="userSpaceOnUse">
      <stop offset="0" stop-color="#00a0ff"/>
      <stop offset="0.01" stop-color="#00a1ff"/>
      <stop offset="0.26" stop-color="#00beff"/>
      <stop offset="0.51" stop-color="#00d2ff"/>
      <stop offset="0.76" stop-color="#00dfff"/>
      <stop offset="1" stop-color="#00e3ff"/>
    </linearGradient>
    <linearGradient id="名称未設定グラデーション_5" data-name="名称未設定グラデーション 5" x1="86.03" y1="-52" x2="40.07" y2="-52" gradientTransform="translate(0 102)" gradientUnits="userSpaceOnUse">
      <stop offset="0" stop-color="#ffe000"/>
      <stop offset="0.41" stop-color="#ffbd00"/>
      <stop offset="0.78" stop-color="orange"/>
      <stop offset="1" stop-color="#ff9c00"/>
    </linearGradient>
    <linearGradient id="名称未設定グラデーション_2" data-name="名称未設定グラデーション 2" x1="68.92" y1="-47.64" x2="25.67" y2="-4.41" gradientTransform="translate(0 102)" gradientUnits="userSpaceOnUse">
      <stop offset="0" stop-color="#ff3a44"/>
      <stop offset="1" stop-color="#c31162"/>
    </linearGradient>
    <linearGradient id="名称未設定グラデーション_4" data-name="名称未設定グラデーション 4" x1="35.62" y1="-89.66" x2="54.92" y2="-70.35" gradientTransform="translate(0 102)" gradientUnits="userSpaceOnUse">
      <stop offset="0" stop-color="#32a071"/>
      <stop offset="0.07" stop-color="#2da771"/>
      <stop offset="0.48" stop-color="#15cf74"/>
      <stop offset="0.8" stop-color="#06e775"/>
      <stop offset="1" stop-color="#00f076"/>
    </linearGradient>
  </defs>
  <g>
    <rect x="21.75" y="12" width="256.5" height="76" rx="9.5"/>
    <path d="M268.75,13.52a8,8,0,0,1,8,8v57a8,8,0,0,1-8,8H31.25a8,8,0,0,1-8-8h0v-57a8,8,0,0,1,8-8h237.5m0-1.52H31.25a9.5,9.5,0,0,0-9.5,9.5v57a9.5,9.5,0,0,0,9.5,9.5h237.5a9.5,9.5,0,0,0,9.5-9.5v-57A9.5,9.5,0,0,0,268.75,12Z" style="fill: #a6a6a6"/>
    <g>
      <path d="M111.85,31.46a5.17,5.17,0,0,1-1.43,3.8,5.54,5.54,0,0,1-4.18,1.67,5.77,5.77,0,0,1-4.2-1.71,6,6,0,0,1,6.54-9.71,4.84,4.84,0,0,1,1.79,1.27l-1,1a3.82,3.82,0,0,0-3.12-1.37,4.56,4.56,0,1,0,3.19,7.85,3.6,3.6,0,0,0,.95-2.32h-4.14V30.58h5.53A6.4,6.4,0,0,1,111.85,31.46Z" style="fill: #fff;stroke: #fff;stroke-miterlimit: 10;stroke-width: 0.20000000298023224px"/>
      <path d="M120.55,26.71h-5.13v3.61h4.67v1.36h-4.67v3.61h5.13V36.7h-6.61V25.3h6.61Z" style="fill: #fff;stroke: #fff;stroke-miterlimit: 10;stroke-width: 0.20000000298023224px"/>
      <path d="M126.78,36.7h-1.46v-10h-3.19V25.3h7.92v1.41h-3.27Z" style="fill: #fff;stroke: #fff;stroke-miterlimit: 10;stroke-width: 0.20000000298023224px"/>
      <path d="M135.64,36.7V25.3h1.46V36.7Z" style="fill: #fff;stroke: #fff;stroke-miterlimit: 10;stroke-width: 0.20000000298023224px"/>
      <path d="M143.6,36.7h-1.47v-10h-3.19V25.3h7.83v1.41H143.6Z" style="fill: #fff;stroke: #fff;stroke-miterlimit: 10;stroke-width: 0.20000000298023224px"/>
      <path d="M161.61,35.22a5.91,5.91,0,0,1-8.36,0h0a6.16,6.16,0,0,1,0-8.44,5.56,5.56,0,0,1,4.18-1.73,5.72,5.72,0,0,1,4.18,1.73A5.83,5.83,0,0,1,163.28,31,5.7,5.7,0,0,1,161.61,35.22Zm-7.28-.95a4.36,4.36,0,0,0,6.16,0l0,0a4.83,4.83,0,0,0,0-6.54,4.36,4.36,0,0,0-6.16,0l0,0A4.83,4.83,0,0,0,154.33,34.27Z" style="fill: #fff;stroke: #fff;stroke-miterlimit: 10;stroke-width: 0.20000000298023224px"/>
      <path d="M165.35,36.7V25.3h1.77l5.55,8.87h0V25.3h1.46V36.7h-1.52l-5.8-9.29h0V36.7Z" style="fill: #fff;stroke: #fff;stroke-miterlimit: 10;stroke-width: 0.20000000298023224px"/>
    </g>
    <path d="M151.22,53.33a8.09,8.09,0,1,0,8.11,8.07,8,8,0,0,0-7.85-8.08Zm0,13a4.9,4.9,0,1,1,4.54-5.23c0,.11,0,.22,0,.33a4.68,4.68,0,0,1-4.44,4.9Zm-17.71-13a8.09,8.09,0,1,0,8.11,8.07,8,8,0,0,0-7.84-8.08Zm0,13a4.9,4.9,0,1,1,4.55-5.23c0,.11,0,.22,0,.33a4.68,4.68,0,0,1-4.44,4.9Zm-21-10.49v3.42h8.2a7.11,7.11,0,0,1-1.9,4.32,8.45,8.45,0,0,1-6.34,2.51,9.12,9.12,0,0,1,0-18.24,8.76,8.76,0,0,1,6.23,2.45l2.41-2.42a12,12,0,0,0-8.6-3.46,12.56,12.56,0,0,0-1,25.1,8,8,0,0,0,1,0,11.08,11.08,0,0,0,11.72-11.55,11.77,11.77,0,0,0-.17-2.13Zm86.09,2.66A7.45,7.45,0,0,0,184,60.91c0,.16,0,.33,0,.49a8,8,0,0,0,14.74,4.5L196,64a4.59,4.59,0,0,1-4,2.23,4.1,4.1,0,0,1-3.92-2.45l10.81-4.47Zm-11,2.7a4.45,4.45,0,0,1,4.15-4.72h.09a3.13,3.13,0,0,1,3,1.73ZM178.75,69h3.55V45.25h-3.55Zm-5.82-13.87h-.13a5.59,5.59,0,0,0-4.26-1.9,8.09,8.09,0,0,0,0,16.17,5.47,5.47,0,0,0,4.26-1.9h.13v1.16c0,3.1-1.65,4.75-4.31,4.75a4.48,4.48,0,0,1-4.08-2.87l-3.08,1.27a7.59,7.59,0,0,0,7.16,4.79c4.16,0,7.6-2.45,7.6-8.42V53.8h-3.29ZM168.85,66.3a4.9,4.9,0,0,1,0-9.78,4.54,4.54,0,0,1,4.34,4.73s0,.1,0,.15a4.52,4.52,0,0,1-4.12,4.89Zm46.34-21h-8.51V69h3.55V60h5a7.39,7.39,0,1,0,1.06-14.74A6.25,6.25,0,0,0,215.19,45.25Zm0,11.4h-5V48.56h5a4.07,4.07,0,1,1,0,8.13h0Zm21.92-3.4a6.62,6.62,0,0,0-6.32,3.63l3.13,1.31A3.91,3.91,0,0,1,241,59.46v.29a8,8,0,0,0-3.7-.92c-3.38,0-6.84,1.9-6.84,5.36a5.48,5.48,0,0,0,5.73,5.24h.18a5,5,0,0,0,4.52-2.32H241V69h3.42V59.86c0-4.16-3.15-6.57-7.2-6.57Zm-.43,13c-1.16,0-2.78-.59-2.78-2,0-1.9,2-2.55,3.8-2.55a6.37,6.37,0,0,1,3.23.8,4.28,4.28,0,0,1-4.18,3.8ZM256.86,53.8l-4.07,10.3h-.11l-4.22-10.3h-3.8L251,68.2l-3.61,8h3.7l9.73-22.4ZM224.94,69h3.53V45.25h-3.53Z" style="fill: #fff"/>
    <g>
      <path d="M41.59,26.33a3.8,3.8,0,0,0-.9,2.66V71a3.69,3.69,0,0,0,.9,2.66l.13.16L65.26,50.28v-.56L41.72,26.19Z" style="fill: url(#名称未設定グラデーション_6)"/>
      <path d="M73.05,58.13l-7.79-7.85v-.56l7.79-7.85.17.11,9.33,5.28c2.66,1.51,2.66,4,0,5.49L73.26,58Z" style="fill: url(#名称未設定グラデーション_5)"/>
      <path d="M73.28,58l-8-8L41.59,73.67a3.07,3.07,0,0,0,3.93.14L73.28,58" style="fill: url(#名称未設定グラデーション_2)"/>
      <path d="M73.28,42,45.52,26.21a3.05,3.05,0,0,0-3.93.12L65.26,50Z" style="fill: url(#名称未設定グラデーション_4)"/>
      <g>
        <path d="M73.05,57.85,45.52,73.52a3.15,3.15,0,0,1-3.8,0h0l-.13.14h0l.13.15h0a3.15,3.15,0,0,0,3.8,0L73.28,58Z" style="isolation: isolate;opacity: 0.20000000298023224"/>
        <path d="M41.59,73.41a3.83,3.83,0,0,1-.84-2.68V71a3.73,3.73,0,0,0,.89,2.66l.14-.13Z" style="isolation: isolate;opacity: 0.11999999731779099"/>
      </g>
      <path d="M82.55,52.47l-9.5,5.38.17.17,9.33-5.28a3.34,3.34,0,0,0,2-2.74h0A3.52,3.52,0,0,1,82.55,52.47Z" style="isolation: isolate;opacity: 0.11999999731779099"/>
      <path d="M45.52,26.48l37,21.05a3.52,3.52,0,0,1,2,2.47h0a3.34,3.34,0,0,0-2-2.74l-37-21C42.88,24.69,40.69,26,40.69,29v.28C40.75,26.23,42.88,25,45.52,26.48Z" style="fill: #fff;isolation: isolate;opacity: 0.25"/>
    </g>
  </g>
</svg>
