<svg id="レイヤー_1" data-name="レイヤー 1" xmlns="http://www.w3.org/2000/svg" width="300" height="100" viewBox="0 0 300 100">
  <g id="binance_3" data-name="binance 3">
    <g id="MetaMask">
      <g id="グループ_5195" data-name="グループ 5195">
        <path id="パス_2047" data-name="パス 2047" d="M251.51,50.12c-1.41-.86-2.86-1.64-4.35-2.36a14.73,14.73,0,0,1-2.73-1.68,2.75,2.75,0,0,1-.17-3.89,2.63,2.63,0,0,1,.54-.46c2-1.36,5.47-.62,5.84,2.18a.13.13,0,0,0,.12.12h3.1a.15.15,0,0,0,.13-.12,6.37,6.37,0,0,0-2.3-4.6,7.16,7.16,0,0,0-4.41-1.49c-8.19,0-8.93,8.7-4.53,11.42.5.31,4.85,2.49,6.4,3.48a3.16,3.16,0,0,1,1.36,4,3.93,3.93,0,0,1-3.72,2,3.82,3.82,0,0,1-3.54-2.48,5.58,5.58,0,0,1-.12-1,.15.15,0,0,0-.13-.12h-3.35a.15.15,0,0,0-.13.12,5.52,5.52,0,0,0,2.24,5,8,8,0,0,0,5,1.68c4.59,0,7-2.6,7.45-5.27A6.39,6.39,0,0,0,251.51,50.12Z" style="fill: #fff"/>
        <path id="パス_2048" data-name="パス 2048" d="M105.21,38.33h-3.1a.26.26,0,0,0-.13.06l-2.79,9.13a.13.13,0,0,1-.16.08.11.11,0,0,1-.09-.08l-2.79-9.13c0-.06-.07-.06-.13-.06H90.93a.13.13,0,0,0-.12.12V61.73a.13.13,0,0,0,.12.13h3.35a.15.15,0,0,0,.13-.13V44a.13.13,0,0,1,.16-.11.1.1,0,0,1,.08,0l2.8,9.18.18.63c0,.06.07.06.13.06h2.61a.27.27,0,0,0,.12-.06l.19-.63L103.47,44c.06-.13.25-.13.25.06V61.73a.15.15,0,0,0,.12.13h3.36a.15.15,0,0,0,.12-.13V38.45a.15.15,0,0,0-.12-.12Z" style="fill: #fff"/>
        <path id="パス_2049" data-name="パス 2049" d="M199.93,38.33a.26.26,0,0,0-.13.06L197,47.52a.13.13,0,0,1-.16.08.11.11,0,0,1-.09-.08L194,38.39c0-.06-.07-.06-.13-.06h-5.15a.15.15,0,0,0-.13.12V61.73a.15.15,0,0,0,.13.13H192a.15.15,0,0,0,.13-.13V44a.13.13,0,0,1,.16-.11.1.1,0,0,1,.08,0l2.8,9.18.18.63c0,.06.06.06.13.06h2.6a.26.26,0,0,0,.13-.06l.19-.63L201.23,44c.06-.13.25-.13.25.06V61.73a.14.14,0,0,0,.12.13H205a.15.15,0,0,0,.13-.13V38.45a.15.15,0,0,0-.13-.12Z" style="fill: #fff"/>
        <path id="パス_2050" data-name="パス 2050" d="M156.48,38.33H140.53a.15.15,0,0,0-.13.12v2.92a.15.15,0,0,0,.13.13h6.14V61.73a.15.15,0,0,0,.13.13h3.35a.15.15,0,0,0,.12-.13V41.5h6.15a.15.15,0,0,0,.12-.13V38.45C156.6,38.39,156.54,38.33,156.48,38.33Z" style="fill: #fff"/>
        <path id="パス_2051" data-name="パス 2051" d="M176.34,61.86h3c.06,0,.13-.07.13-.19l-6.34-23.34c0-.06-.06-.06-.12-.06h-4.41a.22.22,0,0,0-.13.06l-6.32,23.34c0,.06.06.19.12.19h3a.21.21,0,0,0,.13-.07L167.34,55c0-.07.06-.07.13-.07h6.76a.24.24,0,0,1,.13.07l1.86,6.82A.19.19,0,0,0,176.34,61.86Zm-8.07-10.31,2.48-9.12a.13.13,0,0,1,.16-.09.11.11,0,0,1,.09.09l2.49,9.12c0,.06-.07.19-.13.19h-4.91a.2.2,0,0,1-.18-.19Z" style="fill: #fff"/>
        <path id="パス_2052" data-name="パス 2052" d="M228.6,61.86h3c.07,0,.13-.07.13-.19l-6.33-23.34c0-.06-.06-.06-.13-.06H220.9a.17.17,0,0,0-.12.06l-6.33,23.34c0,.06.06.19.13.19h3a.21.21,0,0,0,.12-.07L219.6,55c0-.07.07-.07.13-.07h6.76a.21.21,0,0,1,.13.07l1.86,6.82A.21.21,0,0,0,228.6,61.86Zm-8.07-10.31L223,42.43a.13.13,0,0,1,.16-.09.13.13,0,0,1,.09.09l2.48,9.12c0,.06-.06.19-.13.19h-4.9a.21.21,0,0,1-.19-.19Z" style="fill: #fff"/>
        <path id="パス_2053" data-name="パス 2053" d="M121,58.38v-7.2a.14.14,0,0,1,.13-.12h9a.15.15,0,0,0,.12-.13V48a.15.15,0,0,0-.12-.13h-9a.15.15,0,0,1-.13-.12V41.62a.14.14,0,0,1,.13-.12h10.18a.15.15,0,0,0,.12-.13V38.45a.15.15,0,0,0-.12-.12H117.5a.15.15,0,0,0-.13.12V61.73a.15.15,0,0,0,.13.13h14.21a.15.15,0,0,0,.13-.13v-3a.13.13,0,0,0-.13-.12H121C121,58.5,121,58.44,121,58.38Z" style="fill: #fff"/>
        <path id="パス_2054" data-name="パス 2054" d="M282.29,61.61l-11.67-12a.12.12,0,0,1,0-.17l0,0,10.49-10.93a.11.11,0,0,0,0-.16l0,0h-4.28c-.07,0-.07,0-.07.06l-8.93,9.31a.12.12,0,0,1-.17,0,.08.08,0,0,1,0,0V38.52a.15.15,0,0,0-.12-.13H264a.14.14,0,0,0-.12.13V61.79a.14.14,0,0,0,.12.13h3.35a.15.15,0,0,0,.13-.13V51.56c0-.13.12-.19.18-.06l10.06,10.42.06.07h4.28C282.29,61.86,282.36,61.67,282.29,61.61Z" style="fill: #fff"/>
      </g>
      <g id="グループ_5201" data-name="グループ 5201">
        <path id="パス_2055" data-name="パス 2055" d="M67.78,25.79,47.42,40.94,51.21,32Z" style="fill: #e17726;stroke: #e17726;stroke-linecap: round;stroke-linejoin: round"/>
        <g id="グループ_5196" data-name="グループ 5196">
          <path id="パス_2056" data-name="パス 2056" d="M20.73,25.79,41,41.06,37.37,32Z" style="fill: #e27625;stroke: #e27625;stroke-linecap: round;stroke-linejoin: round"/>
          <path id="パス_2057" data-name="パス 2057" d="M60.46,60.86,55,69.18l11.67,3.23L70,61.05Z" style="fill: #e27625;stroke: #e27625;stroke-linecap: round;stroke-linejoin: round"/>
          <path id="パス_2058" data-name="パス 2058" d="M18.62,61.05l3.29,11.36,11.61-3.23-5.4-8.32Z" style="fill: #e27625;stroke: #e27625;stroke-linecap: round;stroke-linejoin: round"/>
          <path id="パス_2059" data-name="パス 2059" d="M32.89,46.83l-3.22,4.91,11.48.5-.37-12.42Z" style="fill: #e27625;stroke: #e27625;stroke-linecap: round;stroke-linejoin: round"/>
          <path id="パス_2060" data-name="パス 2060" d="M55.68,46.83l-8-7.13-.25,12.53,11.48-.49Z" style="fill: #e27625;stroke: #e27625;stroke-linecap: round;stroke-linejoin: round"/>
          <path id="パス_2061" data-name="パス 2061" d="M33.52,69.18l6.95-3.35-6-4.72Z" style="fill: #e27625;stroke: #e27625;stroke-linecap: round;stroke-linejoin: round"/>
          <path id="パス_2062" data-name="パス 2062" d="M48.1,65.83,55,69.18l-.93-8.07Z" style="fill: #e27625;stroke: #e27625;stroke-linecap: round;stroke-linejoin: round"/>
        </g>
        <g id="グループ_5197" data-name="グループ 5197">
          <path id="パス_2063" data-name="パス 2063" d="M55,69.18,48.1,65.83l.56,4.47-.06,1.92Z" style="fill: #d5bfb2;stroke: #d5bfb2;stroke-linecap: round;stroke-linejoin: round"/>
          <path id="パス_2064" data-name="パス 2064" d="M33.52,69.18l6.45,3L39.9,70.3l.57-4.47Z" style="fill: #d5bfb2;stroke: #d5bfb2;stroke-linecap: round;stroke-linejoin: round"/>
        </g>
        <path id="パス_2065" data-name="パス 2065" d="M40.1,58.13l-5.78-1.68,4-1.86Z" style="fill: #233447;stroke: #233447;stroke-linecap: round;stroke-linejoin: round"/>
        <path id="パス_2066" data-name="パス 2066" d="M48.48,58.13l1.68-3.54,4.09,1.87Z" style="fill: #233447;stroke: #233447;stroke-linecap: round;stroke-linejoin: round"/>
        <g id="グループ_5198" data-name="グループ 5198">
          <path id="パス_2067" data-name="パス 2067" d="M33.52,69.18l1-8.32-6.39.19Z" style="fill: #cc6228;stroke: #cc6228;stroke-linecap: round;stroke-linejoin: round"/>
          <path id="パス_2068" data-name="パス 2068" d="M54.06,60.86,55,69.18l5.47-8.13Z" style="fill: #cc6228;stroke: #cc6228;stroke-linecap: round;stroke-linejoin: round"/>
          <path id="パス_2069" data-name="パス 2069" d="M58.9,51.74l-11.48.49,1.06,5.9,1.68-3.54,4.09,1.87Z" style="fill: #cc6228;stroke: #cc6228;stroke-linecap: round;stroke-linejoin: round"/>
          <path id="パス_2070" data-name="パス 2070" d="M34.32,56.46l4-1.87,1.74,3.54,1-5.9-11.48-.49Z" style="fill: #cc6228;stroke: #cc6228;stroke-linecap: round;stroke-linejoin: round"/>
        </g>
        <g id="グループ_5199" data-name="グループ 5199">
          <path id="パス_2071" data-name="パス 2071" d="M29.67,51.74l4.78,9.37-.13-4.65Z" style="fill: #e27525;stroke: #e27525;stroke-linecap: round;stroke-linejoin: round"/>
          <path id="パス_2072" data-name="パス 2072" d="M54.25,56.46l-.19,4.65,4.84-9.37Z" style="fill: #e27525;stroke: #e27525;stroke-linecap: round;stroke-linejoin: round"/>
          <path id="パス_2073" data-name="パス 2073" d="M41.15,52.23l-1,5.9,1.3,7,.31-9.25Z" style="fill: #e27525;stroke: #e27525;stroke-linecap: round;stroke-linejoin: round"/>
          <path id="パス_2074" data-name="パス 2074" d="M47.42,52.23l-.56,3.67.25,9.25,1.37-7Z" style="fill: #e27525;stroke: #e27525;stroke-linecap: round;stroke-linejoin: round"/>
        </g>
        <path id="パス_2075" data-name="パス 2075" d="M48.48,58.14l-1.37,7,1,.68,6-4.72.19-4.65Z" style="fill: #f5841f;stroke: #f5841f;stroke-linecap: round;stroke-linejoin: round"/>
        <path id="パス_2076" data-name="パス 2076" d="M34.32,56.46l.13,4.65,6,4.72.93-.69-1.3-7Z" style="fill: #f5841f;stroke: #f5841f;stroke-linecap: round;stroke-linejoin: round"/>
        <path id="パス_2077" data-name="パス 2077" d="M48.6,72.22l.06-1.92-.56-.44H40.4l-.49.44L40,72.22l-6.45-3L35.75,71l4.59,3.17h7.83L52.76,71,55,69.18Z" style="fill: #c0ac9d;stroke: #c0ac9d;stroke-linecap: round;stroke-linejoin: round"/>
        <path id="パス_2078" data-name="パス 2078" d="M48.1,65.83l-1-.69H41.4l-.93.69-.56,4.47.5-.44H48.1l.56.44Z" style="fill: #161616;stroke: #161616;stroke-linecap: round;stroke-linejoin: round"/>
        <g id="グループ_5200" data-name="グループ 5200">
          <path id="パス_2079" data-name="パス 2079" d="M68.65,41.93l1.74-8.38-2.61-7.76L48.1,40.44l7.58,6.39,10.67,3.11,2.36-2.73-1-.75L69.33,45l-1.24-1,1.61-1.24Z" style="fill: #763e1a;stroke: #763e1a;stroke-linecap: round;stroke-linejoin: round"/>
          <path id="パス_2080" data-name="パス 2080" d="M18.19,33.55l1.73,8.38-1.12.81L20.41,44l-1.24,1,1.69,1.49-1.06.74,2.36,2.74L32.9,46.83l7.57-6.39L20.73,25.79Z" style="fill: #763e1a;stroke: #763e1a;stroke-linecap: round;stroke-linejoin: round"/>
        </g>
        <path id="パス_2081" data-name="パス 2081" d="M66.35,49.94,55.67,46.83l3.23,4.91-4.84,9.37,6.39-.06H70Z" style="fill: #f5841f;stroke: #f5841f;stroke-linecap: round;stroke-linejoin: round"/>
        <path id="パス_2082" data-name="パス 2082" d="M32.9,46.83,22.16,49.94,18.62,61.05h9.5l6.33.06-4.78-9.37Z" style="fill: #f5841f;stroke: #f5841f;stroke-linecap: round;stroke-linejoin: round"/>
        <path id="パス_2083" data-name="パス 2083" d="M47.42,52.23l.68-11.79L51.21,32H37.37l3.1,8.44.68,11.79L41.4,56v9.18h5.71V56Z" style="fill: #f5841f;stroke: #f5841f;stroke-linecap: round;stroke-linejoin: round"/>
      </g>
    </g>
  </g>
</svg>
