<svg id="レイヤー_1" data-name="レイヤー 1" xmlns="http://www.w3.org/2000/svg" width="300" height="100" viewBox="0 0 300 100">
  <g id="PancakeSwap_CAKE_" data-name="PancakeSwap CAKE ">
    <path id="パス_2023" data-name="パス 2023" d="M64.83,61.89a2.69,2.69,0,0,1-1.39-.35,2.49,2.49,0,0,1-.35-1.21V40.88a1.93,1.93,0,0,1,.35-1.21,1.72,1.72,0,0,1,1.38-.53H73a11.13,11.13,0,0,1,7,1.91A7.94,7.94,0,0,1,82.19,47a7.34,7.34,0,0,1-2.25,5.9c-1.39,1.22-3.82,1.91-7,1.91H69.86v5.38a2,2,0,0,1-.35,1.22c-.34.34-.69.34-1.39.34H64.83Zm7.64-12a2.78,2.78,0,0,0,2.08-.7,4,4,0,0,0,0-4.51,2.78,2.78,0,0,0-2.08-.7H69.86v5.91Z" style="fill: #171522"/>
    <path id="パス_2024" data-name="パス 2024" d="M90,62.41a6.42,6.42,0,0,1-5-2.08,8.36,8.36,0,0,1-1.91-5.73,8.75,8.75,0,0,1,1.21-4.87,9.63,9.63,0,0,1,3.65-3.29,13.5,13.5,0,0,1,5.38-1.22,18,18,0,0,1,4.51.52,13.43,13.43,0,0,1,3.65,1.57V60.67a.81.81,0,0,1-.42,1,.86.86,0,0,1-.63,0H97c-.18,0-.53,0-.53-.17l-.34-.35-.53-1.05A7.74,7.74,0,0,1,90,62.41Zm2.43-4.52a2.76,2.76,0,0,0,2.09-.69,2,2,0,0,0,.69-1.74v-5.2a4,4,0,0,0-1.56-.35,3.24,3.24,0,0,0-2.78,1.21,5.19,5.19,0,0,0-1.05,3.48C89.83,56.68,90.7,57.89,92.43,57.89Z" style="fill: #171522"/>
    <path id="パス_2025" data-name="パス 2025" d="M106.15,61.89a2.69,2.69,0,0,1-1.39-.35,1.49,1.49,0,0,1-.35-1.21V46.78a.79.79,0,0,1,.43-1,.75.75,0,0,1,.62,0h3.47c.35,0,.52,0,.52.17.18,0,.18.18.35.35l.17,1a5.57,5.57,0,0,1,2.43-1.38,10.48,10.48,0,0,1,3.47-.53A5.68,5.68,0,0,1,122,50.64a5.75,5.75,0,0,1,0,.83v8.86a2,2,0,0,1-.35,1.21c-.17.35-.69.35-1.39.35h-3.29a2.69,2.69,0,0,1-1.39-.35,1.42,1.42,0,0,1-.35-1.21V51.82c0-.69-.18-1.22-.52-1.39a1.7,1.7,0,0,0-1.39-.52,2.1,2.1,0,0,0-1.57.52,2,2,0,0,0-.52,1.39v8.33a2,2,0,0,1-.35,1.22c-.17.35-.69.35-1.39.35h-3.29Z" style="fill: #171522"/>
    <path id="パス_2026" data-name="パス 2026" d="M133.76,62.41a10.49,10.49,0,0,1-7.29-2.26,7.53,7.53,0,0,1-2.61-6.25,8,8,0,0,1,1.22-4.51,7.78,7.78,0,0,1,3.3-3,12.74,12.74,0,0,1,5.21-1,12.08,12.08,0,0,1,3.82.53,7,7,0,0,1,2.77,1.39c.18.17.35.34.35.52s-.17.35-.35.7L138.79,51c-.17.35-.35.52-.52.52s-.35-.17-.69-.35a8.28,8.28,0,0,0-1.74-.86,6,6,0,0,0-1.91-.35,3.91,3.91,0,0,0-2.78,1,4.7,4.7,0,0,0,0,5.9,3.73,3.73,0,0,0,2.78,1.05,6.57,6.57,0,0,0,1.91-.35,8.32,8.32,0,0,0,1.74-.87c.34-.17.52-.35.69-.35s.35.18.52.53l1.57,2.6a.67.67,0,0,1,.17.53c0,.17-.17.34-.35.52a13,13,0,0,1-3.12,1.39A7.17,7.17,0,0,1,133.76,62.41Z" style="fill: #171522"/>
    <path id="パス_2027" data-name="パス 2027" d="M149.56,62.41a6.44,6.44,0,0,1-5-2.08,8.46,8.46,0,0,1-1.91-5.73,8.84,8.84,0,0,1,1.22-4.87,9.6,9.6,0,0,1,3.64-3.29,13.59,13.59,0,0,1,5.39-1.22,18.05,18.05,0,0,1,4.51.52A13.57,13.57,0,0,1,161,47.31V60.67a.8.8,0,0,1-.43,1,.83.83,0,0,1-.62,0H156.5c-.17,0-.52,0-.52-.17l-.35-.35-.52-1.05a6.32,6.32,0,0,1-2.26,1.56A6.07,6.07,0,0,1,149.56,62.41Zm2.6-4.52a2.76,2.76,0,0,0,2.09-.69,2,2,0,0,0,.69-1.74v-5.2a4,4,0,0,0-1.56-.35,3.24,3.24,0,0,0-2.78,1.21,5.19,5.19,0,0,0-1,3.48c-.16,2.08.7,3.29,2.62,3.29Z" style="fill: #171522"/>
    <path id="パス_2028" data-name="パス 2028" d="M182.2,60.67a.7.7,0,0,1-.52,1.22h-5.91c-.17,0-.34-.18-.52-.35l-4.51-6.25v4.86a2.12,2.12,0,0,1-.35,1.22c-.35.34-.7.34-1.39.34h-3.3a2.63,2.63,0,0,1-1.39-.34,2.49,2.49,0,0,1-.34-1.22V40.88a2,2,0,0,1,.34-1.22,1.72,1.72,0,0,1,1.39-.52H169a1.72,1.72,0,0,1,1.39.52,1.51,1.51,0,0,1,.35,1.22V52l4.34-5.73c.17-.17.34-.35.52-.35s.35-.17.69-.17h5.21a.74.74,0,0,1,.7.78A.8.8,0,0,1,182,47l-5.73,6.59Z" style="fill: #171522"/>
    <path id="パス_2029" data-name="パス 2029" d="M193,62.41a15.43,15.43,0,0,1-5-.87,9,9,0,0,1-3.47-2.78,7.66,7.66,0,0,1-1.22-4.51,8.38,8.38,0,0,1,2.43-6.42,9.58,9.58,0,0,1,7-2.26c2.95,0,5.21.69,6.6,2.26a7.7,7.7,0,0,1,2.25,6.07c0,1.05-.52,1.74-1.39,1.74H189.67a2.57,2.57,0,0,0,1,2.26,5.84,5.84,0,0,0,3.3.69,8.56,8.56,0,0,0,2.26-.17c.69-.18,1.21-.53,1.91-.7a1.38,1.38,0,0,1,.52-.17c.18,0,.35.17.53.34L200.44,60a.63.63,0,0,1,.18.52c0,.18-.18.35-.35.53a13.26,13.26,0,0,1-3.13,1.38A32.24,32.24,0,0,0,193,62.41ZM195.57,52a2.18,2.18,0,0,0-.69-1.91,4,4,0,0,0-4.52,0,2.34,2.34,0,0,0-.69,1.91Z" style="fill: #171522"/>
    <path id="パス_2030" data-name="パス 2030" d="M213.11,62.41a27,27,0,0,1-5.38-.52,10.68,10.68,0,0,1-4-1.74.92.92,0,0,1-.52-.7.63.63,0,0,1,.17-.52l1.56-2.6c.18-.35.35-.35.53-.35a.66.66,0,0,1,.52.17,13.49,13.49,0,0,0,2.78,1.22,9.77,9.77,0,0,0,3.12.52,3.88,3.88,0,0,0,2.26-.52,1.7,1.7,0,0,0,.7-1.56,1.82,1.82,0,0,0-.87-1.56,13.71,13.71,0,0,0-3.13-1.39,18.55,18.55,0,0,1-5.21-2.78,5.67,5.67,0,0,1-1.91-4.34,6,6,0,0,1,2.44-5A9.86,9.86,0,0,1,212.42,39a17.27,17.27,0,0,1,4.69.52,11.63,11.63,0,0,1,3.29,1.39c.35.34.53.52.53.86a.64.64,0,0,1-.18.53l-1.56,2.6c-.17.35-.35.35-.52.35a.65.65,0,0,1-.53-.18,7.87,7.87,0,0,0-4.68-1.21,4,4,0,0,0-2.26.52,1.71,1.71,0,0,0-.7,1.56,2.5,2.5,0,0,0,.35,1.22c.35.35.7.52,1.05.87.52.17,1.21.52,2.08.87l.7.17A18.94,18.94,0,0,1,218.5,51a5.63,5.63,0,0,1,2.25,2.26,5.93,5.93,0,0,1,.69,3.12A5.39,5.39,0,0,1,219.18,61,12,12,0,0,1,213.11,62.41Z" style="fill: #171522"/>
    <path id="パス_2031" data-name="パス 2031" d="M228.91,61.89c-.35,0-.53,0-.7-.18a.88.88,0,0,1-.34-.69l-4.34-14.41v-.35c0-.34.17-.52.69-.52h4.34c.35,0,.52,0,.7.17a1.42,1.42,0,0,1,.34.53l1.74,7.64L233.6,48c.17-.35.17-.52.34-.52.18-.18.35-.18.7-.18h2.08c.35,0,.52,0,.7.18s.17.34.34.52L240,54.08l1.91-7.64c0-.18.17-.35.35-.53a.66.66,0,0,1,.52-.17h4.52c.52,0,.69.17.69.52v.35L243.67,61c-.17.35-.17.53-.35.7s-.34.17-.69.17h-3.3c-.35,0-.52,0-.7-.17a.91.91,0,0,1-.34-.7L236,55,233.77,61c-.17.35-.17.53-.34.7s-.35.17-.7.17Z" style="fill: #171522"/>
    <path id="パス_2032" data-name="パス 2032" d="M256,62.41a6.42,6.42,0,0,1-5-2.08,8.46,8.46,0,0,1-1.91-5.73,8.83,8.83,0,0,1,1.21-4.87,9.63,9.63,0,0,1,3.65-3.29,13.5,13.5,0,0,1,5.38-1.22,18.13,18.13,0,0,1,4.52.52,13.51,13.51,0,0,1,3.64,1.57V60.67a.8.8,0,0,1-.42,1,.86.86,0,0,1-.63,0h-3.47a.66.66,0,0,1-.52-.17l-.35-.35-.52-1.05a6.5,6.5,0,0,1-2.26,1.56A6.26,6.26,0,0,1,256,62.41Zm2.61-4.52a2.74,2.74,0,0,0,2.08-.69,2.05,2.05,0,0,0,.7-1.74v-5.2a4.08,4.08,0,0,0-1.57-.35A3.21,3.21,0,0,0,257,51.12,5.19,5.19,0,0,0,256,54.6c-.17,2.08.7,3.29,2.61,3.29Z" style="fill: #171522"/>
    <path id="パス_2033" data-name="パス 2033" d="M272.14,68.66a2.74,2.74,0,0,1-1.39-.35,2.56,2.56,0,0,1-.34-1.21V48a11.12,11.12,0,0,1,3.82-1.73,14.28,14.28,0,0,1,4.68-.69c6.77,0,10.08,2.77,10.08,8.5a9.09,9.09,0,0,1-2.08,6.25,7.74,7.74,0,0,1-6.08,2.26,8.7,8.7,0,0,1-2.09-.35,5.19,5.19,0,0,1-1.73-.69V67.1a2,2,0,0,1-.35,1.21c-.35.35-.69.35-1.39.35Zm7.3-10.77a2.08,2.08,0,0,0,2.08-1,5,5,0,0,0,.69-3,5.16,5.16,0,0,0-.86-3.12,3.65,3.65,0,0,0-2.61-.87,4.46,4.46,0,0,0-1.73.35v5.21a2.36,2.36,0,0,0,2.31,2.43Z" style="fill: #171522"/>
    <path id="パス_2034" data-name="パス 2034" d="M18.81,35.32A5.7,5.7,0,0,1,30,33.16a6,6,0,0,1,.1,1.12v6.94h4.69V34.28a5.7,5.7,0,1,1,11.39-.06,6,6,0,0,1-.1,1.11l-1.57,8.16c5.21,2.26,9.2,6.25,9.2,11.29v2.95c0,4.16-2.77,7.64-6.59,9.89a27.72,27.72,0,0,1-14.76,3.82A27.72,27.72,0,0,1,17.6,67.62c-3.82-2.26-6.6-5.73-6.6-9.9V54.77c0-5,4-9,9.2-11.29ZM42.6,44.7l1.74-9.55a3.94,3.94,0,0,0-7.74-1.5,3.56,3.56,0,0,0-.08.8v8.86c-.52,0-1.21-.18-1.73-.18H32.53a11,11,0,0,0-2.43.18c-.52,0-1.22.17-1.74.17V34.63a3.94,3.94,0,1,0-7.88-.11,3.56,3.56,0,0,0,.07.8l1.74,9.73c-5.56,2.08-9.38,5.9-9.38,10.24v3c0,6.6,8.68,12,19.45,12s19.44-5.38,19.44-12v-3C52,50.6,48.16,46.78,42.6,44.7Z" style="fill: #633001;fill-rule: evenodd"/>
    <path id="パス_2035" data-name="パス 2035" d="M52,57.89c0,6.6-8.68,12-19.45,12s-19.45-5.38-19.45-12v-3H52.15v3Z" style="fill: #fedc90"/>
    <path id="パス_2036" data-name="パス 2036" d="M20.55,35a3.94,3.94,0,0,1,7.74-1.5,3.56,3.56,0,0,1,.07.8v9A34.32,34.32,0,0,1,32.53,43c1.39,0,2.78.18,4,.18V34.28a3.95,3.95,0,0,1,7.89-.1,4.4,4.4,0,0,1-.07.8L42.6,44.53c5.73,2.08,9.55,5.9,9.55,10.24,0,6.6-8.68,12-19.44,12s-19.45-5.38-19.45-12c0-4.34,3.82-8.16,9.37-10.24Z" style="fill: #d1884f;fill-rule: evenodd"/>
    <path id="パス_2037" data-name="パス 2037" d="M27.15,54.08c0,1.73-1,3.29-2.09,3.29S23,56,23,54.08c0-1.74,1.05-3.3,2.08-3.3S27.15,52.16,27.15,54.08Z" style="fill: #633001"/>
    <path id="パス_2038" data-name="パス 2038" d="M42.08,54.08c0,1.73-1,3.29-2.08,3.29-1.22,0-2.09-1.39-2.09-3.29,0-1.74,1.05-3.3,2.09-3.3S42.08,52.16,42.08,54.08Z" style="fill: #633001"/>
  </g>
</svg>
