<svg id="レイヤー_1" data-name="レイヤー 1" xmlns="http://www.w3.org/2000/svg" xmlns:xlink="http://www.w3.org/1999/xlink" width="300" height="100" viewBox="0 0 300 100">
  <defs>
    <clipPath id="clip-path">
      <rect x="20" y="28.82" width="42.36" height="42.36" style="fill: none"/>
    </clipPath>
  </defs>
  <g id="logo">
    <g id="favicon">
      <g style="clip-path: url(#clip-path)">
        <g id="Mask_Group_3" data-name="Mask Group 3">
          <path id="Path_151" data-name="Path 151" d="M51.68,43a2.62,2.62,0,0,0-2.57,0L43.2,46.41l-4,2.24-5.92,3.43a2.67,2.67,0,0,1-2.57,0L26,49.39a2.55,2.55,0,0,1-1.28-2.16V41.94A2.41,2.41,0,0,1,26,39.78l4.63-2.61a2.62,2.62,0,0,1,2.57,0l4.63,2.6a2.56,2.56,0,0,1,1.28,2.17v3.43l4-2.31V39.63a2.4,2.4,0,0,0-1.29-2.17l-8.56-4.92a2.69,2.69,0,0,0-2.58,0L22,37.47a2.4,2.4,0,0,0-1.28,2.16v9.91A2.4,2.4,0,0,0,22,51.7l8.72,4.92a2.63,2.63,0,0,0,2.58,0l5.91-3.35,4-2.31L49.1,47.6a2.69,2.69,0,0,1,2.58,0l4.62,2.61a2.57,2.57,0,0,1,1.29,2.17v5.29a2.42,2.42,0,0,1-1.29,2.16l-4.62,2.68a2.62,2.62,0,0,1-2.57,0L44.47,59.9a2.55,2.55,0,0,1-1.28-2.16V54.31l-4,2.31v3.43a2.41,2.41,0,0,0,1.29,2.17l8.71,4.92a2.69,2.69,0,0,0,2.58,0l8.72-4.92a2.58,2.58,0,0,0,1.28-2.17V50.14A2.42,2.42,0,0,0,60.47,48Z" style="fill: #8247e5"/>
        </g>
      </g>
    </g>
    <path id="polygonscan" d="M81.71,41.92A7.1,7.1,0,0,1,85.6,43a7.39,7.39,0,0,1,2.71,3.12,10.75,10.75,0,0,1,1,4.8,11,11,0,0,1-1,4.79,7.31,7.31,0,0,1-2.71,3.14,7.15,7.15,0,0,1-3.89,1.09A6.43,6.43,0,0,1,78.24,59a5.4,5.4,0,0,1-2.11-2.49V68.09H70.75V42.14h5.39v3.18a5.28,5.28,0,0,1,2.11-2.49A6.3,6.3,0,0,1,81.71,41.92ZM80,46.64a3.68,3.68,0,0,0-2.78,1.15,5,5,0,0,0,0,6.25,3.94,3.94,0,0,0,5.57,0,5.21,5.21,0,0,0,0-6.3A3.63,3.63,0,0,0,80,46.64Zm20.35-4.72A9.9,9.9,0,0,1,105,43a8,8,0,0,1,3.24,3.13,10.31,10.31,0,0,1,0,9.58A7.94,7.94,0,0,1,105,58.84a9.91,9.91,0,0,1-4.68,1.09,10,10,0,0,1-4.69-1.09,7.93,7.93,0,0,1-3.26-3.13,10.29,10.29,0,0,1,0-9.57A8,8,0,0,1,95.64,43a9.91,9.91,0,0,1,4.69-1.08Zm0,4.66a3.43,3.43,0,0,0-2.6,1.12,4.51,4.51,0,0,0-1,3.23,4.43,4.43,0,0,0,1,3.21,3.46,3.46,0,0,0,2.6,1.1,3.4,3.4,0,0,0,2.58-1.1,4.54,4.54,0,0,0,1-3.22,4.58,4.58,0,0,0-1-3.23,3.38,3.38,0,0,0-2.58-1.11Zm17.29-14.71V59.71h-5.39V31.87Zm7.78,10.27,4.22,10.77,3.94-10.77h5.95l-11,26h-5.92l4.12-9-7.37-16.91ZM148,41.92a6.42,6.42,0,0,1,3.47.91,5.46,5.46,0,0,1,2.14,2.49V42.14h5.35V59.62A10,10,0,0,1,158,64a7.22,7.22,0,0,1-2.9,3.14,9.33,9.33,0,0,1-4.85,1.16,9.94,9.94,0,0,1-6.35-1.87,7.65,7.65,0,0,1-2.85-5.09h5.33a2.63,2.63,0,0,0,1.14,1.67,4.24,4.24,0,0,0,2.35.61,3.79,3.79,0,0,0,2.69-1,4,4,0,0,0,1-3.07V56.54A5.57,5.57,0,0,1,151.45,59a6.42,6.42,0,0,1-3.47.91,7.15,7.15,0,0,1-3.89-1.08,7.5,7.5,0,0,1-2.71-3.14,10.8,10.8,0,0,1-1-4.78,10.93,10.93,0,0,1,1-4.81A7.51,7.51,0,0,1,144.09,43,7.15,7.15,0,0,1,148,41.92Zm1.73,4.72a3.62,3.62,0,0,0-2.78,1.14,4.41,4.41,0,0,0-1.06,3.15,4.44,4.44,0,0,0,1.06,3.15,3.95,3.95,0,0,0,5.57,0,5.06,5.06,0,0,0,0-6.25A3.69,3.69,0,0,0,149.71,46.64Zm21.17-4.72A9.9,9.9,0,0,1,175.56,43a8,8,0,0,1,3.24,3.13,10.31,10.31,0,0,1,0,9.58,7.94,7.94,0,0,1-3.24,3.13,9.91,9.91,0,0,1-4.68,1.09,10,10,0,0,1-4.69-1.09,7.93,7.93,0,0,1-3.26-3.13,10.29,10.29,0,0,1,0-9.57A8,8,0,0,1,166.19,43a9.91,9.91,0,0,1,4.69-1.08Zm0,4.66a3.43,3.43,0,0,0-2.6,1.12,4.54,4.54,0,0,0-1.05,3.22,4.42,4.42,0,0,0,1.05,3.21,3.47,3.47,0,0,0,2.6,1.11,3.38,3.38,0,0,0,2.58-1.11,4.5,4.5,0,0,0,1-3.21,4.58,4.58,0,0,0-1-3.23,3.38,3.38,0,0,0-2.58-1.11ZM193.94,42a6.09,6.09,0,0,1,4.8,2,8.06,8.06,0,0,1,1.78,5.54V59.72h-5.39V50.14a3.88,3.88,0,0,0-.93-2.76,3.22,3.22,0,0,0-2.47-1,3.39,3.39,0,0,0-2.6,1,4.2,4.2,0,0,0-1,3v9.33h-5.38V42.14h5.38v3.21a5.82,5.82,0,0,1,2.25-2.49,6.68,6.68,0,0,1,3.52-.91Zm16.53,0a8,8,0,0,1,5.34,1.67,7.21,7.21,0,0,1,2.5,4.41h-5a2.8,2.8,0,0,0-1-1.68,3,3,0,0,0-1.94-.62,2.13,2.13,0,0,0-1.38.4,1.37,1.37,0,0,0-.48,1.12,1.31,1.31,0,0,0,.87,1.22,13.63,13.63,0,0,0,2.73.82,27.07,27.07,0,0,1,3.3,1,5.51,5.51,0,0,1,2.24,1.6,4.4,4.4,0,0,1,.94,3,4.48,4.48,0,0,1-.82,2.67,5.32,5.32,0,0,1-2.36,1.83,9.12,9.12,0,0,1-3.65.66,9.44,9.44,0,0,1-5.7-1.57,6.65,6.65,0,0,1-2.62-4.51h5.2a2.33,2.33,0,0,0,1,1.73,3.62,3.62,0,0,0,2.16.61,2,2,0,0,0,1.39-.43,1.39,1.39,0,0,0,.47-1.12,1.35,1.35,0,0,0-.87-1.31,16.18,16.18,0,0,0-2.81-.83,22.56,22.56,0,0,1-3.22-.88,5.28,5.28,0,0,1-2.17-1.53,4.21,4.21,0,0,1-.91-2.88,4.71,4.71,0,0,1,1.79-3.83,7.85,7.85,0,0,1,5.07-1.47Zm19,0a8.77,8.77,0,0,1,5.7,1.87,8.34,8.34,0,0,1,2.89,5.15h-5.7a3,3,0,0,0-1-1.76,3.14,3.14,0,0,0-2-.63A2.89,2.89,0,0,0,227,47.67a5.06,5.06,0,0,0-.92,3.26,5.06,5.06,0,0,0,.92,3.26,2.86,2.86,0,0,0,2.33,1.12,2.89,2.89,0,0,0,3-2.39h5.7a8.31,8.31,0,0,1-2.89,5.15A8.79,8.79,0,0,1,229.49,60a9.38,9.38,0,0,1-4.58-1.09,7.67,7.67,0,0,1-3.13-3.13,9.84,9.84,0,0,1-1.14-4.79,10,10,0,0,1,1.12-4.81A7.71,7.71,0,0,1,224.9,43a9.51,9.51,0,0,1,4.59-1.1Zm18.07,0a6.4,6.4,0,0,1,3.47.91,5.56,5.56,0,0,1,2.14,2.49V42.14h5.36V59.72h-5.35V56.53A5.48,5.48,0,0,1,251,59a6.37,6.37,0,0,1-3.46.92,7.21,7.21,0,0,1-3.89-1.08A7.5,7.5,0,0,1,241,55.72a10.8,10.8,0,0,1-1-4.78,10.9,10.9,0,0,1,1-4.81A7.39,7.39,0,0,1,243.69,43a7.11,7.11,0,0,1,3.89-1.09Zm1.74,4.72a3.63,3.63,0,0,0-2.79,1.14,5.21,5.21,0,0,0,0,6.3,4,4,0,0,0,5.57,0,5,5,0,0,0,0-6.26,3.69,3.69,0,0,0-2.79-1.15ZM273.4,42a6.07,6.07,0,0,1,4.81,2A8.14,8.14,0,0,1,280,49.52v10.2H274.6V50.15a3.85,3.85,0,0,0-.93-2.76,3.22,3.22,0,0,0-2.47-1,3.34,3.34,0,0,0-2.6,1,4.18,4.18,0,0,0-1,3v9.32h-5.39V42.14h5.39v3.21a5.82,5.82,0,0,1,2.25-2.49A6.65,6.65,0,0,1,273.4,42Z" style="fill: #171522"/>
  </g>
</svg>
