<svg id="レイヤー_1" data-name="レイヤー 1" xmlns="http://www.w3.org/2000/svg" xmlns:xlink="http://www.w3.org/1999/xlink" width="300" height="100" viewBox="0 0 300 100">
  <defs>
    <clipPath id="clip-path">
      <rect x="33.83" y="24.71" width="232.35" height="50.58" style="fill: none"/>
    </clipPath>
  </defs>
  <g id="binance_2" data-name="binance 2">
    <g style="clip-path: url(#clip-path)">
      <g id="polygon-logo">
        <path id="パス_59365" data-name="パス 59365" d="M124.54,41.2a8.55,8.55,0,0,1,3.38,3.64,11.83,11.83,0,0,1,1.3,5.69,10.29,10.29,0,0,1-1.41,5.57A8.15,8.15,0,0,1,124,59.64a12.31,12.31,0,0,1-5.68,1.29,9.07,9.07,0,0,1-3.38-.65,6.79,6.79,0,0,1-2.83-1.72V69.71h-6.33V40.34h5.46l.54,2.36a12.24,12.24,0,0,1,7.75-2.9A8.83,8.83,0,0,1,124.54,41.2ZM121,54.49a4.88,4.88,0,0,0,1.64-3.86,5.69,5.69,0,0,0-1.53-4,4.82,4.82,0,0,0-3.71-1.5,6,6,0,0,0-3.17.75,4.92,4.92,0,0,0-2.07,2.14v4.83a4.61,4.61,0,0,0,1.74,2.25A5.71,5.71,0,0,0,117,56a5.88,5.88,0,0,0,4-1.51Z" style="fill: #fff"/>
        <path id="パス_59366" data-name="パス 59366" d="M133,45a10.16,10.16,0,0,1,4-3.65,13.22,13.22,0,0,1,5.89-1.39,12,12,0,0,1,5.89,1.39,10.12,10.12,0,0,1,3.93,3.75,10.81,10.81,0,0,1,0,10.73,9.35,9.35,0,0,1-3.93,3.75,12.92,12.92,0,0,1-5.89,1.39A13.18,13.18,0,0,1,137,59.63,9.42,9.42,0,0,1,133,56a11.46,11.46,0,0,1,0-11Zm6.44,9.32a4.24,4.24,0,0,0,3.49,1.51,4.55,4.55,0,0,0,3.49-1.51,5.69,5.69,0,0,0,1.31-3.85,5.53,5.53,0,0,0-1.31-3.86,4.53,4.53,0,0,0-3.6-1.61,4.71,4.71,0,0,0-3.49,1.5,6,6,0,0,0-1.31,4,5.46,5.46,0,0,0,1.42,3.86Z" style="fill: #fff"/>
        <path id="パス_59367" data-name="パス 59367" d="M164.39,25.11V60.39h-6.33V25.11Z" style="fill: #fff"/>
        <path id="パス_59368" data-name="パス 59368" d="M190.36,40.88,177.48,69.83h-6.12l4.81-10.41L167,40.88h7.2l5.24,11.58,5.24-11.58Z" style="fill: #fff"/>
        <path id="パス_59369" data-name="パス 59369" d="M214.59,40.87V60.39a8.47,8.47,0,0,1-1.63,5A10.8,10.8,0,0,1,208.6,69a14,14,0,0,1-6,1.29,16,16,0,0,1-4.25-.54,18.39,18.39,0,0,1-3-1.28,20.2,20.2,0,0,1-2.73-2l3.71-4.29A10.47,10.47,0,0,0,199.1,64a7.76,7.76,0,0,0,3.38.75,6.83,6.83,0,0,0,4-1.18,3.84,3.84,0,0,0,1.63-3.32V57.49A7.06,7.06,0,0,1,205.31,60a10.34,10.34,0,0,1-4.58,1,9.38,9.38,0,0,1-5-1.4A10.34,10.34,0,0,1,192,55.78a10.77,10.77,0,0,1-1.42-5.26A10,10,0,0,1,192,45.16a10.87,10.87,0,0,1,3.82-3.86,9,9,0,0,1,4.91-1.39,13.71,13.71,0,0,1,4.36.64A6.53,6.53,0,0,1,208,42.37l.66-1.5Zm-6.44,12V48.06a4.54,4.54,0,0,0-2.07-2.25A6.8,6.8,0,0,0,202.7,45a5.74,5.74,0,0,0-3.93,1.5,4.88,4.88,0,0,0-1.64,3.86,5.55,5.55,0,0,0,5.52,5.57h0A6.06,6.06,0,0,0,208.15,52.88Z" style="fill: #fff"/>
        <path id="パス_59370" data-name="パス 59370" d="M219.84,45a10.34,10.34,0,0,1,4-3.75,13.22,13.22,0,0,1,5.89-1.39,12,12,0,0,1,5.89,1.39A10,10,0,0,1,239.59,45,10.85,10.85,0,0,1,241,50.31a9.8,9.8,0,0,1-1.42,5.36,8.7,8.7,0,0,1-3.93,3.75,12.81,12.81,0,0,1-5.89,1.4,13.15,13.15,0,0,1-5.89-1.29,9.42,9.42,0,0,1-4-3.64,10.44,10.44,0,0,1-1.42-5.69A10,10,0,0,1,219.84,45Zm6.33,9.33a4.23,4.23,0,0,0,3.49,1.5,4.57,4.57,0,0,0,3.49-1.5,5.71,5.71,0,0,0,1.31-3.86,5.53,5.53,0,0,0-1.31-3.86,4.54,4.54,0,0,0-3.49-1.5,4.71,4.71,0,0,0-3.49,1.5,5.24,5.24,0,0,0-1.42,3.86,6.65,6.65,0,0,0,1.42,3.86Z" style="fill: #fff"/>
        <path id="パス_59371" data-name="パス 59371" d="M263.39,41.52a5.46,5.46,0,0,1,2,4.18V60.38h-6.44V48.06a2.67,2.67,0,0,0-2.43-2.9,2.26,2.26,0,0,0-.52,0,4,4,0,0,0-3.49,2,9.48,9.48,0,0,0-1.31,5.14v8h-6.33V40.87h5.79l.43,3.11a8.23,8.23,0,0,1,3.06-3,9,9,0,0,1,4.59-1.07A6.91,6.91,0,0,1,263.39,41.52Z" style="fill: #fff"/>
        <path id="パス_59372" data-name="パス 59372" d="M78.7,40.55a3.82,3.82,0,0,0-3.71,0l-8.52,4.94L60.68,48.7l-8.51,4.94a3.82,3.82,0,0,1-3.71,0l-6.77-3.86a3.68,3.68,0,0,1-1.85-3.11V39.05a3.46,3.46,0,0,1,1.85-3.11l6.66-3.75a3.77,3.77,0,0,1,3.71,0l6.66,3.75a3.69,3.69,0,0,1,1.86,3.11V44l5.78-3.32V35.73a3.47,3.47,0,0,0-1.85-3.11L52.17,25.54a3.82,3.82,0,0,0-3.71,0L35.9,32.62a3.49,3.49,0,0,0-1.85,3.11V50a3.48,3.48,0,0,0,1.86,3.11l12.56,7.07a3.77,3.77,0,0,0,3.71,0l8.5-4.82L66.47,52,75,47.2a3.82,3.82,0,0,1,3.71,0L85.36,51a3.68,3.68,0,0,1,1.85,3.11v7.61a3.45,3.45,0,0,1-1.85,3.11L78.7,68.64a3.77,3.77,0,0,1-3.71,0l-6.66-3.75a3.69,3.69,0,0,1-1.86-3.11V56.85l-5.79,3.33v4.93a3.5,3.5,0,0,0,1.86,3.11L75.1,75.29a3.77,3.77,0,0,0,3.71,0l12.56-7.07a3.69,3.69,0,0,0,1.86-3.11V50.85a3.46,3.46,0,0,0-1.86-3.11Z" style="fill: #8247e5"/>
      </g>
    </g>
  </g>
</svg>
