<svg id="レイヤー_1" data-name="レイヤー 1" xmlns="http://www.w3.org/2000/svg" width="300" height="100" viewBox="0 0 300 100">
  <g id="save-the-children-logo">
    <path id="パス_57685" data-name="パス 57685" d="M87.63,54.28A13.94,13.94,0,0,0,82,52.68c-1.61,0-2.64.58-2.64,1.47,0,2.72,9.14,2,9.14,8.22,0,3.45-2.9,5.45-6.9,5.45a12.22,12.22,0,0,1-6.48-1.74V62.2c2.58,1.72,4.16,2.32,6.14,2.32,1.71,0,2.63-.6,2.63-1.66,0-3-9.14-1.87-9.14-8.32,0-3.11,2.69-5.16,6.85-5.16a14.51,14.51,0,0,1,6.08,1.4Zm13.85,11c-.4,0-.63-.23-.63-.84V58.89c0-2.66-2.08-3.68-5.14-3.68a9.77,9.77,0,0,0-5.26,1.47v3.11a6.6,6.6,0,0,1,4.47-2c1.66,0,2.19.89,2.11,2C92,61.37,89.82,62,89.82,64.84a3.24,3.24,0,0,0,3.39,3,6.78,6.78,0,0,0,4-1.37c.27,1,.87,1.37,2.14,1.37a8,8,0,0,0,3.58-1.11V64.58C102,65.21,101.74,65.26,101.48,65.26ZM97,64.63a3.23,3.23,0,0,1-2.11.92,1.26,1.26,0,0,1-1.24-1.29c0-1.21,1.08-1.73,3.35-2.55Zm5.42-9.19h4.07l2.58,6.69,2.61-6.69h4.06l-5.59,12.38h-2.13Zm17.77,6.69h8.71c.19-4.42-2.74-6.93-6.26-6.93a6.13,6.13,0,0,0-6.4,5.84,4.34,4.34,0,0,0,0,.51c0,3.79,2.76,6.27,7,6.27a8.82,8.82,0,0,0,5.42-1.61V63.82a7.08,7.08,0,0,1-4.5,1.73,3.54,3.54,0,0,1-4-3.06,2.19,2.19,0,0,1,0-.36Zm2.71-4.66a2.61,2.61,0,0,1,2.64,2.59v.07H120.3a2.58,2.58,0,0,1,2.5-2.66h.13m23.46.58H142v5A1.76,1.76,0,0,0,143.53,65a1.51,1.51,0,0,0,.3,0,5.35,5.35,0,0,0,2.55-.71v2.76a8.76,8.76,0,0,1-3.53.77c-2.53,0-4.72-1.16-4.72-4.56V58.05H136.4v-.74l5.08-5.69H142v3.82h4.42Zm5.31-.82h.05a4.7,4.7,0,0,1,3.85-2,4.26,4.26,0,0,1,4.46,4,4,4,0,0,1,0,.6v7.74h-3.82V60.66c0-1.82-.79-2.66-2-2.66-.89,0-1.65.55-2.55,1.84v7.74h-3.82v-18h3.82ZM166,62.13h8.72c.18-4.42-2.74-6.93-6.27-6.93a6.13,6.13,0,0,0-6.39,5.85c0,.16,0,.33,0,.5,0,3.79,2.77,6.27,7,6.27a8.83,8.83,0,0,0,5.43-1.61V63.82a7.11,7.11,0,0,1-4.5,1.73,3.54,3.54,0,0,1-4-3,2.4,2.4,0,0,1,0-.37Zm2.72-4.66a2.61,2.61,0,0,1,2.63,2.59v.07h-5.26a2.58,2.58,0,0,1,2.5-2.66h.13M200.61,66a14,14,0,0,1-7.06,1.79c-7,0-10.46-4.53-10.46-9.16,0-4.8,3.93-9.27,10.8-9.27a12.62,12.62,0,0,1,6.5,1.58v4a12.53,12.53,0,0,0-6.19-1.85c-3.82,0-6.5,2.27-6.5,5.46s2.66,5.5,6.4,5.5c2.34,0,3.92-.74,6.5-2Zm6.48-8.8h.06a4.66,4.66,0,0,1,3.84-2,4.25,4.25,0,0,1,4.46,4,3.9,3.9,0,0,1,0,.59v7.74h-3.82V60.66c0-1.82-.79-2.66-2-2.66-.9,0-1.66.55-2.56,1.84v7.74h-3.81v-18h3.81Zm11,10.35h3.82V55.44h-3.82Zm4-16.09a2.11,2.11,0,1,1-2.1-2.1,2.1,2.1,0,0,1,2.1,2.1m2.61,16.09h3.82v-18h-3.82Zm14.92-18V56a6.94,6.94,0,0,0-3.16-.76A5.84,5.84,0,0,0,230.57,61c0,.18,0,.35,0,.53,0,3.63,2.42,6.32,5.69,6.32a5,5,0,0,0,3.37-1.21v1h3.82v-18Zm0,14.65a3.24,3.24,0,0,1-2.27,1c-1.79,0-2.92-1.48-2.92-3.69,0-2.42,1.13-3.82,3.06-3.82a4.16,4.16,0,0,1,2.13.71ZM250,58.92h0c1.14-2.53,2.4-3.71,3.87-3.71a4.17,4.17,0,0,1,2.53,1.1l-1.05,3.37a4.46,4.46,0,0,0-2.27-.89c-1.39,0-2.29,1.31-3.13,3.55v5.24h-3.82V55.44H250Zm10.69,3.21h8.72c.18-4.42-2.74-6.93-6.27-6.93a6.14,6.14,0,0,0-6.4,5.85v.5c0,3.79,2.77,6.27,7,6.27a8.85,8.85,0,0,0,5.43-1.61V63.82a7.13,7.13,0,0,1-4.51,1.73,3.54,3.54,0,0,1-4-3.06c0-.12,0-.24,0-.36Zm2.72-4.66A2.61,2.61,0,0,1,266,60.06v.07h-5.26a2.58,2.58,0,0,1,2.5-2.66h.13m11.77-.29a4.86,4.86,0,0,1,3.95-2,4.25,4.25,0,0,1,4.44,4,4.19,4.19,0,0,1,0,.61v7.71h-3.82v-7.4c0-1.71-.81-2.42-1.89-2.42s-1.66.5-2.66,2v7.82h-3.82V55.44h3.82Z"/>
    <path id="パス_57686" data-name="パス 57686" d="M64.71,37.66c2.42-2.49,3.5-3.64,3.33-4.33A2.34,2.34,0,0,0,66.66,32a3.56,3.56,0,0,0-2.58-.3,8.83,8.83,0,0,0-1.35,1.24l-.77.75h0c-.42-.49-.85-1-1.31-1.42A24,24,0,0,0,48.9,25.79a7.37,7.37,0,0,0-6.36-2.91,7.16,7.16,0,0,0-5.1,3,27.06,27.06,0,0,0-12.57,6.81h0a5.53,5.53,0,0,0-3.4.39,1.69,1.69,0,0,0-1.06,1c-.08.31,0,.81,1.17,2.33h0a26.72,26.72,0,0,0-5.12,16.9,24.37,24.37,0,0,0,7.06,16.09,23.84,23.84,0,0,0,5,3.85,29.73,29.73,0,0,0,27.68.92h0A1.5,1.5,0,0,0,57,72.22L56.88,72c-1.18-3.21-4.76-13-1.81-21.48,1.24-3.55,4.35-7.21,7-10.07h0A23.74,23.74,0,0,1,64.9,54.32a21.67,21.67,0,0,1-5.14,11.89h0a.52.52,0,0,0-.14.35.51.51,0,0,0,0,.17l.22.64a.53.53,0,0,0,.67.3.8.8,0,0,0,.19-.13h0a26.06,26.06,0,0,0,4-29.89h0ZM32.62,56A48.85,48.85,0,0,0,31,70.4h0a24.9,24.9,0,0,1-4.78-3.71A24.11,24.11,0,0,1,19.28,52.3a22.28,22.28,0,0,1,3.4-14.53h0c.86,1,1.91,2.23,3,3.48a75.26,75.26,0,0,1,7.17,8.94c.83,1.39.42,3.06-.25,5.83ZM59.17,36.27c-5.68,5-10.89,7.54-15.48,7.57A18.65,18.65,0,0,1,32.86,40a42.74,42.74,0,0,1-6.67-6.08l-.13-.15h0a21.71,21.71,0,0,1,10-5.3h0A10.83,10.83,0,0,0,35.53,33a10.26,10.26,0,0,0,3.46,7,6.88,6.88,0,0,0,9.72-.53,3.27,3.27,0,0,0,.3-.35,10.28,10.28,0,0,0,2.19-7.47A11.2,11.2,0,0,0,51,30.07h0a24.15,24.15,0,0,1,7,4.89c.43.42.83.86,1.23,1.31" style="fill: #ed1b2d"/>
  </g>
</svg>
