<svg id="レイヤー_1" data-name="レイヤー 1" xmlns="http://www.w3.org/2000/svg" width="300" height="100" viewBox="0 0 300 100">
  <g id="binance_21" data-name="binance 21">
    <g id="save-the-children-logo">
      <path id="パス_57685" data-name="パス 57685" d="M87.64,54.29C85,53.13,83.48,52.68,82,52.68s-2.63.58-2.63,1.48c0,2.71,9.14,2,9.14,8.22,0,3.45-2.9,5.45-6.9,5.45a12.2,12.2,0,0,1-6.48-1.74V62.22c2.58,1.71,4.16,2.32,6.13,2.32,1.71,0,2.64-.61,2.64-1.66,0-3-9.14-1.87-9.14-8.33,0-3.1,2.68-5.16,6.85-5.16a14.9,14.9,0,0,1,6.08,1.4Zm13.85,11c-.4,0-.64-.24-.64-.84V58.9c0-2.66-2.08-3.69-5.13-3.69a9.9,9.9,0,0,0-5.27,1.48v3.1a6.62,6.62,0,0,1,4.48-2c1.66,0,2.18.89,2.1,2C92,61.37,89.82,62,89.82,64.85a3.25,3.25,0,0,0,3.4,3,6.8,6.8,0,0,0,4-1.37c.26,1,.87,1.37,2.13,1.37a8,8,0,0,0,3.58-1.11V64.59c-.89.63-1.18.68-1.44.68ZM97,64.64a3.19,3.19,0,0,1-2.1.92,1.26,1.26,0,0,1-1.24-1.29c0-1.21,1.08-1.74,3.34-2.55Zm5.42-9.19h4.09l2.58,6.69,2.61-6.69h4L110.2,67.83h-2.13Zm17.77,6.69h8.72c.18-4.42-2.74-6.93-6.27-6.93a6.13,6.13,0,0,0-6.4,5.84c0,.17,0,.34,0,.51,0,3.79,2.77,6.27,7,6.27a8.83,8.83,0,0,0,5.43-1.61v-2.4a7.09,7.09,0,0,1-4.5,1.74c-2.4,0-3.87-1.26-4-3.42Zm2.72-4.66a2.61,2.61,0,0,1,2.63,2.59v.07H120.3a2.58,2.58,0,0,1,2.5-2.66h.14m23.45.58H142v5A1.75,1.75,0,0,0,143.53,65a1.61,1.61,0,0,0,.31,0,5.28,5.28,0,0,0,2.55-.71v2.76a8.76,8.76,0,0,1-3.53.77c-2.52,0-4.71-1.16-4.71-4.56V58.06h-1.74v-.74l5.09-5.69H142v3.82h4.42Zm5.32-.82h0a4.71,4.71,0,0,1,3.84-2,4.26,4.26,0,0,1,4.46,4,4,4,0,0,1,0,.6v7.74h-3.81V60.66c0-1.81-.79-2.66-2-2.66-.89,0-1.65.56-2.55,1.85v7.74h-3.82v-18h3.82ZM166,62.14h8.72c.18-4.42-2.74-6.92-6.27-6.92a6.12,6.12,0,0,0-6.4,5.83,4.34,4.34,0,0,0,0,.51c0,3.79,2.77,6.27,7,6.27a8.79,8.79,0,0,0,5.43-1.61v-2.4a7.14,7.14,0,0,1-4.5,1.74c-2.4,0-3.88-1.26-4-3.42Zm2.71-4.66a2.62,2.62,0,0,1,2.64,2.59v.07h-5.27a2.57,2.57,0,0,1,2.5-2.66h.13M200.62,66a14,14,0,0,1-7.06,1.79c-7,0-10.45-4.53-10.45-9.17s3.92-9.26,10.8-9.26a12.5,12.5,0,0,1,6.5,1.58v4a12.43,12.43,0,0,0-6.19-1.85c-3.81,0-6.5,2.27-6.5,5.45s2.66,5.5,6.4,5.5c2.34,0,3.92-.73,6.5-2Zm6.48-8.8h.05a4.69,4.69,0,0,1,3.85-2,4.26,4.26,0,0,1,4.46,4c0,.2,0,.4,0,.6v7.74h-3.82V60.66c0-1.81-.79-2.66-2-2.66-.89,0-1.66.56-2.55,1.85v7.74h-3.82v-18h3.82Zm11,10.35H222V55.45h-3.82Zm4-16.09A2.11,2.11,0,1,1,220,49.39a2.12,2.12,0,0,1,2.11,2.11m2.61,16.09h3.82v-18h-3.82Zm14.93-18V56a7.08,7.08,0,0,0-3.16-.77c-3.47,0-5.9,2.58-5.9,6.3s2.43,6.32,5.69,6.32a5,5,0,0,0,3.37-1.22v1h3.82v-18Zm0,14.64a3.14,3.14,0,0,1-2.26,1c-1.79,0-2.92-1.47-2.92-3.69,0-2.42,1.13-3.81,3-3.81a4.07,4.07,0,0,1,2.13.71ZM250,58.93h0c1.13-2.53,2.4-3.71,3.87-3.71a4.08,4.08,0,0,1,2.53,1.1l-1.06,3.37a4.35,4.35,0,0,0-2.26-.9c-1.4,0-2.29,1.32-3.13,3.56v5.24H246.2V55.45H250Zm10.69,3.21h8.72c.18-4.43-2.74-6.93-6.27-6.93a6.13,6.13,0,0,0-6.4,5.84,4.34,4.34,0,0,0,0,.51c0,3.79,2.76,6.27,7,6.27a8.8,8.8,0,0,0,5.42-1.61v-2.4a7.09,7.09,0,0,1-4.5,1.74c-2.4,0-3.87-1.26-4-3.42Zm2.71-4.66a2.6,2.6,0,0,1,2.63,2.59v.07h-5.26a2.57,2.57,0,0,1,2.5-2.66h.13m11.77-.29a4.87,4.87,0,0,1,3.95-2c1.9,0,4.42,1.08,4.42,4.66v7.72h-3.82v-7.4c0-1.71-.82-2.42-1.9-2.42s-1.66.5-2.66,2v7.82h-3.82V55.45h3.82Z" style="fill: #fefefe"/>
      <path id="パス_57686" data-name="パス 57686" d="M64.72,37.67c2.42-2.49,3.5-3.65,3.32-4.33A2.26,2.26,0,0,0,66.66,32a3.54,3.54,0,0,0-2.57-.3,8.9,8.9,0,0,0-1.36,1.24l-.76.75h0c-.42-.49-.86-1-1.31-1.42a24.17,24.17,0,0,0-11.75-6.48,7.43,7.43,0,0,0-6.36-2.91,7.14,7.14,0,0,0-5.1,3,27,27,0,0,0-12.57,6.8h0a5.52,5.52,0,0,0-3.4.39,1.69,1.69,0,0,0-1.07,1c-.08.31,0,.81,1.17,2.33h0a26.72,26.72,0,0,0-5.12,16.9,24.39,24.39,0,0,0,7.06,16.09,24.05,24.05,0,0,0,5,3.84,29.67,29.67,0,0,0,27.68.92h0A1.5,1.5,0,0,0,57,72.21L56.88,72c-1.18-3.21-4.76-13-1.8-21.48,1.23-3.55,4.34-7.21,7-10.07h0A23.64,23.64,0,0,1,64.9,54.31a21.65,21.65,0,0,1-5.14,11.9h0a.52.52,0,0,0-.14.35l0,.17.23.64a.51.51,0,0,0,.66.3.64.64,0,0,0,.19-.13h0c7.55-8.33,9.21-20.4,4-29.88h0ZM32.62,56A48.82,48.82,0,0,0,31,70.4h0a24.85,24.85,0,0,1-4.78-3.7,24.13,24.13,0,0,1-6.94-14.39,22.3,22.3,0,0,1,3.4-14.54h0c.86,1,1.91,2.23,3,3.48a74.27,74.27,0,0,1,7.17,8.94c.83,1.4.43,3.06-.24,5.83ZM59.17,36.28c-5.68,5-10.9,7.53-15.48,7.56A18.57,18.57,0,0,1,32.86,40a42.81,42.81,0,0,1-6.67-6.09l-.14-.15h0a21.84,21.84,0,0,1,10-5.29h0A11,11,0,0,0,35.53,33,10.26,10.26,0,0,0,39,40a6.88,6.88,0,0,0,9.72-.53c.1-.11.21-.23.3-.35a10.3,10.3,0,0,0,2.19-7.48A11.18,11.18,0,0,0,51,30.07h0A24,24,0,0,1,58,35c.43.42.83.86,1.23,1.31" style="fill: #ed1b2d"/>
    </g>
  </g>
</svg>
