<?xml version="1.0" encoding="UTF-8"?>
<svg id="_イヤー_1" data-name="レイヤー 1" xmlns="http://www.w3.org/2000/svg" width="300" height="100" viewBox="0 0 300 100">
  <path d="M15,50c0,6.35,1.88,12.56,5.41,17.84,3.53,5.28,8.55,9.4,14.41,11.83,5.87,2.43,12.33,3.07,18.56,1.83,6.23-1.24,11.95-4.3,16.44-8.79,4.49-4.49,7.55-10.21,8.79-16.44,1.24-6.23,.6-12.69-1.83-18.56-2.43-5.87-6.55-10.88-11.83-14.41-5.28-3.53-11.49-5.41-17.84-5.41-8.52,0-16.69,3.38-22.71,9.41-6.02,6.02-9.41,14.19-9.41,22.71h0Z" style="fill: #121122;"/>
  <path d="M24.69,41.86c-.39,2.53,.07,5.13,.55,7.62,.18,.4,.59,.67,1.09,.84-1.02,2.16-1.59,4.52-1.59,6.99,0,10.45,10.12,18.94,22.6,18.94s22.61-8.46,22.61-18.94c0-2.49-.57-4.88-1.62-7.06,.42-.17,.75-.42,.91-.77,.48-2.5,.94-5.1,.55-7.62-.37-3.39-1.53-4.43-5.02-3.56-1.78,.41-4.12,1.46-5.92,2.7-3.37-1.67-7.31-2.63-11.51-2.63s-8.23,.98-11.62,2.69c-1.81-1.26-4.2-2.34-6.01-2.76-3.5-.87-4.66,.17-5.03,3.56Zm13.16,14.95c-2.65-1.17-7.18-.87-7.18-.87,0,0,.21,4.26,2.81,5.71,3.08,1.71,8.82,.87,8.82,.87,0,0-.49-3.96-4.45-5.71h0Zm14.72,5.72s5.73,.85,8.82-.87c2.6-1.45,2.81-5.71,2.81-5.71,0,0-4.53-.3-7.18,.87-3.96,1.73-4.45,5.69-4.45,5.69v.02Zm-6.36,3c0,.31,.58,.57,1.3,.57s1.3-.26,1.3-.57-.58-.57-1.3-.57-1.3,.24-1.3,.57Z" style="fill: #f2f4f8; fill-rule: evenodd;"/>
  <path d="M73.1,62.9c-2.12-.82-4.36-1.24-6.63-1.25h0c-.57,0-.57-.89,0-.89,2.35,0,4.68,.44,6.87,1.29,.11,.03,.2,.11,.26,.21,.06,.1,.07,.22,.05,.33-.03,.11-.11,.21-.21,.27-.1,.06-.22,.07-.34,.04Zm-51.61-.84c2.19-.84,4.52-1.28,6.87-1.29h0c.57,0,.57,.9,0,.9-2.27,0-4.52,.43-6.63,1.25-.11,.03-.24,.01-.34-.04-.1-.06-.18-.15-.21-.27-.03-.11-.01-.23,.05-.34,.06-.1,.15-.18,.26-.21Zm4.55,2.56c1.1-.35,2.24-.54,3.39-.57,.57,0,.57,.89,0,.89-1.05,.03-2.09,.2-3.09,.52-.93,.27-2,.66-2.68,1.29-.42,.39-1.05-.24-.63-.63,.83-.76,1.96-1.18,3.01-1.5Zm4.41,1.66c-.89,.38-1.75,.84-2.57,1.37-.82,.51-1.55,1.16-2.14,1.93-.06,.1-.08,.22-.05,.34,.03,.11,.1,.21,.2,.27,.1,.06,.22,.07,.34,.04,.11-.03,.21-.1,.27-.2,.5-.69,1.22-1.23,1.93-1.69,.78-.5,1.6-.93,2.45-1.29,.1-.06,.18-.16,.21-.27,.03-.11,.01-.24-.04-.34-.06-.1-.16-.17-.27-.2-.11-.03-.23-.01-.34,.04h0Zm34.96-1.35c1.05,.03,2.09,.2,3.09,.52,.52,.15,1.02,.33,1.51,.56,.42,.18,.81,.43,1.16,.73,.42,.39,1.05-.24,.63-.63-.82-.76-1.95-1.18-3.01-1.5-1.1-.35-2.24-.54-3.39-.57-.57,0-.58,.89,0,.89Zm.99,3.39c-.77-.48-1.58-.89-2.41-1.25h0c-.1-.07-.17-.17-.2-.28-.03-.11-.01-.24,.04-.34,.06-.1,.16-.17,.27-.2,.11-.03,.23-.01,.34,.04,1.74,.76,3.57,1.73,4.7,3.3,.06,.1,.08,.22,.05,.34-.03,.11-.1,.21-.2,.27-.1,.06-.22,.07-.34,.04s-.21-.1-.27-.2c-.51-.71-1.24-1.26-1.97-1.72Z" style="fill: #f2f4f8; fill-rule: evenodd;"/>
  <path d="M18.1,51.76c.41-.64,4.03-2.57,8.52-3.72,.97-2.75,2.16-5.41,3.57-7.96-.02,0,3.58-6.47,3.57-6.47-1.03-.47-2.03-1.03-2.97-1.66-.16-.12-.3-.26-.43-.42-.1-.16-.14-.34-.14-.52,0-.15,.21-.42,.31-.54,.24-.28,.51-.55,.8-.78,.69-.56,1.41-1.08,2.16-1.55,.36-.24,.73-.47,1.09-.7,2.57-1.64,3.98-2.87,6.33-4.22,2.25-1.29,3.34-2.08,5.95-1.95,3.28,0,11.42,10.37,15.09,15.72,2.2,3.21,5.16,8.99,6.24,11.17,.26,.07,.5,.13,.71,.19,3.34,1,6.62,2.47,7.42,3.41,.71,.83-2.41,1.2-5.48,1.74-3.07,.54-13.5,.8-23.53,.87s-21.72-.27-24.27-.67-5.46-1.14-4.95-1.94Z" style="fill: #6665dd;"/>
  <path d="M65.4,42.8s-6.6-1.65-18.23-1.65c-12.49,0-18.5,1.93-18.5,1.93,0,0-.71,1.36-1.02,2.14-.31,.79-1.01,2.82-1.01,2.82,0,0,9.09-1.63,20.72-1.63,7,.03,13.99,.62,20.9,1.77,0,0-1.05-2.47-1.69-3.52s-1.16-1.86-1.16-1.86Z" style="fill: #ff99a5;"/>
  <path d="M26.1,28.84c.76-.11,1.78,2.21,1.78,2.21,0,0,2.38-.64,2.75,0,.37,.64-1.67,2.18-1.67,2.18,0,0,1.23,2.17,.84,2.62-.39,.45-2.59-.92-2.59-.92,0,0-1.68,1.89-2.23,1.61-.55-.29,.07-2.75,.07-2.75,0,0-2.37-1.01-2.21-1.61,.16-.6,2.64-.78,2.64-.78,0,0-.14-2.44,.62-2.55Z" style="fill: #ffe600;"/>
  <path d="M101.6,55.36c1.13,0,1.94-.19,2.41-.58,.49-.41,.74-.89,.74-1.45,0-.51-.19-.92-.58-1.22-.36-.32-.92-.6-1.67-.84l-1.64-.51c-.9-.28-1.71-.58-2.44-.9-.73-.34-1.35-.74-1.86-1.19-.51-.47-.92-1.02-1.22-1.64-.28-.64-.42-1.41-.42-2.31,0-1.8,.67-3.22,2.02-4.27,1.37-1.05,3.27-1.57,5.68-1.57,.92,0,1.77,.06,2.54,.19,.79,.13,1.47,.33,2.02,.61,.56,.26,1,.58,1.32,.96,.32,.39,.48,.84,.48,1.35s-.13,.93-.39,1.32c-.24,.36-.51,.67-.84,.93-.49-.34-1.15-.63-1.96-.87-.81-.24-1.7-.35-2.67-.35-1.03,0-1.79,.16-2.28,.48-.49,.32-.74,.73-.74,1.22,0,.43,.16,.76,.48,1,.32,.21,.82,.44,1.51,.67l1.73,.58c1.01,.34,1.88,.72,2.63,1.12,.77,.39,1.41,.84,1.93,1.35,.51,.49,.9,1.07,1.16,1.73,.26,.64,.39,1.38,.39,2.22,0,.9-.18,1.72-.55,2.47-.34,.73-.87,1.36-1.57,1.89-.69,.54-1.54,.95-2.57,1.25-1.01,.3-2.17,.45-3.5,.45-.98,0-1.89-.09-2.73-.26-.84-.15-1.56-.37-2.18-.67-.6-.3-1.08-.66-1.45-1.09-.34-.45-.51-.95-.51-1.51s.16-1.06,.48-1.45c.34-.39,.72-.7,1.12-.93,.58,.47,1.3,.89,2.15,1.25,.88,.36,1.86,.55,2.95,.55Zm19.69,4.05c-.56,0-1.07-.05-1.54-.16-.47-.09-.9-.2-1.28-.35v5.75c-.21,.06-.51,.13-.9,.19-.39,.06-.81,.1-1.28,.1-.96,0-1.66-.16-2.09-.48-.43-.32-.64-.93-.64-1.83v-15.9c0-.56,.12-1.01,.35-1.35,.24-.36,.57-.69,1-.96,.64-.41,1.47-.74,2.47-1,1.01-.28,2.12-.42,3.34-.42s2.38,.16,3.4,.48c1.05,.3,1.95,.78,2.7,1.45,.75,.66,1.33,1.51,1.73,2.54,.43,1.03,.64,2.25,.64,3.66s-.2,2.55-.61,3.6c-.39,1.03-.93,1.89-1.64,2.6-.71,.69-1.54,1.21-2.51,1.57-.96,.34-2.01,.51-3.15,.51Zm-.74-3.89c1.16,0,2.04-.36,2.67-1.09,.64-.73,.96-1.83,.96-3.31s-.31-2.61-.93-3.28c-.6-.66-1.45-1-2.54-1-.49,0-.92,.06-1.28,.19-.36,.11-.7,.24-1,.39v7.55c.3,.17,.62,.31,.96,.42,.34,.09,.73,.13,1.16,.13Zm28.07-4.34c0,1.26-.19,2.41-.58,3.44-.39,1.01-.94,1.86-1.67,2.57-.71,.71-1.56,1.25-2.57,1.64-1.01,.39-2.13,.58-3.37,.58s-2.38-.18-3.4-.55c-1.01-.39-1.87-.93-2.6-1.64-.71-.71-1.25-1.56-1.64-2.57-.39-1.03-.58-2.18-.58-3.47s.19-2.37,.58-3.37c.41-1.03,.96-1.89,1.67-2.6,.73-.71,1.6-1.25,2.6-1.64,1.03-.39,2.15-.58,3.37-.58s2.33,.19,3.34,.58c1.01,.39,1.86,.94,2.57,1.67,.73,.71,1.28,1.56,1.67,2.57,.41,1.01,.61,2.13,.61,3.37Zm-8.19-4.34c-1.01,0-1.79,.37-2.34,1.12-.56,.75-.84,1.82-.84,3.21s.27,2.53,.8,3.28c.56,.73,1.35,1.09,2.38,1.09s1.81-.37,2.34-1.12c.56-.75,.84-1.83,.84-3.24s-.28-2.43-.84-3.18c-.56-.77-1.34-1.16-2.34-1.16Zm27.62,4.34c0,1.26-.19,2.41-.58,3.44-.39,1.01-.94,1.86-1.67,2.57-.71,.71-1.56,1.25-2.57,1.64-1.01,.39-2.13,.58-3.37,.58s-2.38-.18-3.4-.55c-1.01-.39-1.87-.93-2.6-1.64-.71-.71-1.25-1.56-1.64-2.57-.39-1.03-.58-2.18-.58-3.47s.19-2.37,.58-3.37c.41-1.03,.96-1.89,1.67-2.6,.73-.71,1.6-1.25,2.6-1.64,1.03-.39,2.15-.58,3.37-.58s2.33,.19,3.34,.58c1.01,.39,1.86,.94,2.57,1.67,.73,.71,1.28,1.56,1.67,2.57,.41,1.01,.61,2.13,.61,3.37Zm-8.19-4.34c-1.01,0-1.79,.37-2.34,1.12-.56,.75-.84,1.82-.84,3.21s.27,2.53,.8,3.28c.56,.73,1.35,1.09,2.38,1.09s1.81-.37,2.34-1.12c.56-.75,.84-1.83,.84-3.24s-.28-2.43-.84-3.18c-.56-.77-1.34-1.16-2.34-1.16Zm21.07,4.14l5.56,5.4c-.11,.9-.39,1.6-.84,2.09-.43,.47-1.05,.71-1.86,.71-.62,0-1.17-.15-1.64-.45s-1-.79-1.57-1.48l-3.82-4.53v6.17c-.21,.06-.51,.12-.9,.16-.39,.06-.81,.1-1.28,.1-.96,0-1.66-.15-2.09-.45-.43-.32-.64-.93-.64-1.83v-18.85c.24-.06,.55-.13,.93-.19,.39-.06,.81-.1,1.28-.1,.96,0,1.65,.16,2.06,.48,.43,.32,.64,.93,.64,1.83v9.09l5.81-5.91c1.01,0,1.81,.22,2.41,.67s.9,1.01,.9,1.67c0,.58-.2,1.09-.61,1.54-.39,.43-1,1.01-1.83,1.73l-2.51,2.15Zm11.09,4.08c-.49-1.07-1.06-2.46-1.7-4.18-.62-1.73-1.27-3.97-1.96-6.71,.26-.28,.61-.51,1.06-.71,.47-.21,.97-.32,1.51-.32,.69,0,1.24,.15,1.67,.45,.43,.28,.76,.8,1,1.57,.47,1.56,.94,3.1,1.41,4.62,.49,1.52,.98,3.05,1.48,4.59h.13c.26-.73,.52-1.52,.8-2.38,.28-.88,.55-1.78,.8-2.7,.26-.94,.49-1.88,.71-2.83,.24-.96,.44-1.89,.61-2.79,.66-.36,1.36-.55,2.09-.55,.69,0,1.27,.15,1.77,.45,.49,.3,.74,.79,.74,1.48,0,.77-.14,1.76-.42,2.95-.26,1.18-.61,2.42-1.06,3.73-.43,1.28-.92,2.57-1.48,3.85-.54,1.26-1.09,2.38-1.67,3.34-1.2,2.03-2.28,3.54-3.24,4.53-.96,1.01-1.94,1.51-2.92,1.51-.79,0-1.45-.25-1.96-.74-.51-.47-.82-1.08-.93-1.83,.69-.6,1.39-1.31,2.12-2.12,.75-.79,1.38-1.6,1.9-2.41-.36-.11-.75-.34-1.16-.71-.39-.39-.81-1.09-1.28-2.12Zm21.84,.29c1.13,0,1.94-.19,2.41-.58,.49-.41,.74-.89,.74-1.45,0-.51-.19-.92-.58-1.22-.36-.32-.92-.6-1.67-.84l-1.64-.51c-.9-.28-1.71-.58-2.44-.9-.73-.34-1.35-.74-1.86-1.19-.51-.47-.92-1.02-1.22-1.64-.28-.64-.42-1.41-.42-2.31,0-1.8,.67-3.22,2.02-4.27,1.37-1.05,3.27-1.57,5.68-1.57,.92,0,1.77,.06,2.54,.19,.79,.13,1.47,.33,2.02,.61,.56,.26,1,.58,1.32,.96,.32,.39,.48,.84,.48,1.35s-.13,.93-.39,1.32c-.24,.36-.51,.67-.84,.93-.49-.34-1.15-.63-1.96-.87s-1.7-.35-2.67-.35c-1.03,0-1.79,.16-2.28,.48-.49,.32-.74,.73-.74,1.22,0,.43,.16,.76,.48,1,.32,.21,.82,.44,1.51,.67l1.73,.58c1.01,.34,1.88,.72,2.63,1.12,.77,.39,1.41,.84,1.93,1.35,.51,.49,.9,1.07,1.16,1.73,.26,.64,.39,1.38,.39,2.22,0,.9-.18,1.72-.55,2.47-.34,.73-.87,1.36-1.57,1.89-.69,.54-1.54,.95-2.57,1.25-1.01,.3-2.17,.45-3.5,.45-.98,0-1.89-.09-2.73-.26-.84-.15-1.56-.37-2.18-.67-.6-.3-1.08-.66-1.45-1.09-.34-.45-.51-.95-.51-1.51s.16-1.06,.48-1.45c.34-.39,.72-.7,1.12-.93,.58,.47,1.3,.89,2.15,1.25,.88,.36,1.86,.55,2.95,.55Zm22.58-5.62c-.19,.79-.41,1.61-.64,2.44-.24,.84-.47,1.65-.71,2.44-.24,.79-.46,1.52-.67,2.18-.21,.66-.39,1.21-.51,1.64-.58,.51-1.5,.77-2.76,.77-.77,0-1.45-.11-2.02-.32-.58-.21-.96-.54-1.16-.96-.24-.51-.51-1.33-.84-2.44-.32-1.11-.64-2.33-.96-3.66-.3-1.33-.59-2.68-.87-4.05-.28-1.37-.5-2.57-.67-3.6,.26-.28,.61-.51,1.06-.71,.47-.21,.97-.32,1.51-.32,.69,0,1.24,.16,1.67,.48,.43,.3,.7,.82,.8,1.57,.21,1.5,.4,2.78,.55,3.85,.17,1.07,.32,1.98,.45,2.73s.24,1.36,.32,1.83c.11,.45,.18,.8,.22,1.06h.13l.39-1.54c.17-.69,.37-1.46,.61-2.31,.24-.88,.48-1.81,.74-2.79,.28-1.01,.55-2.01,.8-3.02,.36-.21,.74-.37,1.12-.48,.41-.13,.89-.19,1.45-.19,.69,0,1.26,.12,1.73,.35,.49,.21,.8,.55,.93,1,.28,.96,.55,1.92,.8,2.86,.26,.92,.49,1.78,.71,2.57,.21,.79,.4,1.5,.55,2.12,.17,.62,.3,1.1,.39,1.45h.16c.3-1.69,.59-3.46,.87-5.3,.28-1.86,.54-3.75,.77-5.65,.34-.19,.71-.33,1.09-.42,.39-.11,.77-.16,1.16-.16,.66,0,1.21,.15,1.64,.45,.45,.28,.67,.77,.67,1.48,0,.32-.06,.82-.19,1.51-.11,.69-.26,1.46-.45,2.31-.17,.86-.37,1.77-.61,2.73-.24,.94-.47,1.85-.71,2.73-.24,.88-.47,1.68-.71,2.41-.21,.73-.4,1.28-.55,1.67-.24,.24-.63,.42-1.19,.55-.56,.15-1.16,.22-1.8,.22-1.63,0-2.58-.4-2.86-1.19-.15-.43-.33-.95-.55-1.57-.21-.62-.44-1.3-.67-2.02-.21-.75-.43-1.52-.64-2.31-.21-.81-.4-1.61-.55-2.38Zm21.34,6.07c.47,0,.93-.04,1.38-.13,.47-.11,.82-.24,1.06-.39v-2.95l-2.63,.22c-.69,.06-1.24,.22-1.67,.48-.41,.24-.61,.6-.61,1.09s.19,.92,.58,1.22c.39,.3,1.02,.45,1.89,.45Zm-.19-12.81c1.11,0,2.12,.12,3.02,.35,.92,.21,1.7,.56,2.34,1.03s1.13,1.07,1.48,1.8c.36,.73,.55,1.58,.55,2.57v7.26c0,.56-.15,1.01-.45,1.35-.28,.32-.62,.6-1.03,.84-.66,.41-1.48,.72-2.44,.93-.96,.21-2.06,.32-3.28,.32-2.21,0-3.96-.42-5.27-1.25-1.31-.86-1.96-2.15-1.96-3.89,0-1.48,.44-2.6,1.32-3.37,.88-.77,2.23-1.25,4.05-1.45l4.27-.45v-.35c0-.69-.28-1.19-.84-1.51-.56-.32-1.36-.48-2.41-.48-.81,0-1.62,.1-2.41,.29-.77,.19-1.47,.42-2.09,.67-.26-.17-.48-.43-.67-.77-.17-.36-.26-.75-.26-1.16,0-.94,.49-1.62,1.48-2.02,.62-.24,1.34-.41,2.15-.51,.84-.13,1.65-.19,2.44-.19Zm19.5,16.41c-.56,0-1.07-.05-1.54-.16-.47-.09-.9-.2-1.28-.35v5.75c-.21,.06-.51,.13-.9,.19-.39,.06-.81,.1-1.28,.1-.96,0-1.66-.16-2.09-.48-.43-.32-.64-.93-.64-1.83v-15.9c0-.56,.12-1.01,.35-1.35,.24-.36,.57-.69,1-.96,.64-.41,1.47-.74,2.47-1,1.01-.28,2.12-.42,3.34-.42s2.38,.16,3.4,.48c1.05,.3,1.95,.78,2.7,1.45,.75,.66,1.33,1.51,1.73,2.54,.43,1.03,.64,2.25,.64,3.66s-.2,2.55-.61,3.6c-.39,1.03-.93,1.89-1.64,2.6-.71,.69-1.54,1.21-2.51,1.57-.96,.34-2.01,.51-3.15,.51Zm-.74-3.89c1.16,0,2.04-.36,2.67-1.09,.64-.73,.96-1.83,.96-3.31s-.31-2.61-.93-3.28c-.6-.66-1.45-1-2.54-1-.49,0-.92,.06-1.28,.19-.36,.11-.7,.24-1,.39v7.55c.3,.17,.62,.31,.96,.42,.34,.09,.73,.13,1.16,.13Z" style="fill: #121122;"/>
</svg>