<?xml version="1.0" encoding="UTF-8"?>
<svg id="_イヤー_1" data-name="レイヤー 1" xmlns="http://www.w3.org/2000/svg" width="300" height="100" xmlns:xlink="http://www.w3.org/1999/xlink" viewBox="0 0 300 100">
  <defs>
    <clipPath id="clippath">
      <rect x="15.25" y="23.9" width="52.55" height="52.2" style="fill: none;"/>
    </clipPath>
    <linearGradient id="_称未設定グラデーション_7" data-name="名称未設定グラデーション 7" x1="34.28" y1="-530.95" x2="42.25" y2="-558.52" gradientTransform="translate(0 -506) scale(1 -1)" gradientUnits="userSpaceOnUse">
      <stop offset="0" stop-color="#03b8ff"/>
      <stop offset="1" stop-color="#fa52a0"/>
    </linearGradient>
    <linearGradient id="_称未設定グラデーション_7-2" data-name="名称未設定グラデーション 7" x1="40.88" y1="-529.04" x2="48.85" y2="-556.62" xlink:href="#_称未設定グラデーション_7"/>
    <linearGradient id="_称未設定グラデーション_7-3" data-name="名称未設定グラデーション 7" x1="27.76" y1="-532.83" x2="35.73" y2="-560.41" xlink:href="#_称未設定グラデーション_7"/>
  </defs>
  <g style="clip-path: url(#clippath);">
    <g>
      <path d="M26.2,28.9l40.73,27.62-10.07,14.79L16.13,43.48l10.07-14.57Z" style="fill: url(#_称未設定グラデーション_7);"/>
      <path d="M66.92,56.52c-3.5,5-15.33,3.04-26.49-4.78-11.39-7.61-17.52-17.83-14.23-22.84,3.5-5,15.33-3.04,26.49,4.78,11.39,7.39,17.52,17.83,14.23,22.84Z" style="fill: url(#_称未設定グラデーション_7-2);"/>
      <path d="M56.85,71.1c-3.5,5-15.33,3.04-26.49-4.78-11.17-7.83-17.52-17.83-14.01-23.05,3.5-5,15.33-3.04,26.49,4.78,11.17,7.83,17.3,18.05,14.01,23.05Z" style="fill: url(#_称未設定グラデーション_7-3);"/>
      <path d="M66.92,56.52l-10.07,14.79c-3.5,5-15.33,2.83-26.49-4.78-2.19-1.52-4.16-3.05-6.13-4.78,1.53-.22,3.5-1.09,5.47-3.26,3.5-3.7,5.25-4.57,6.79-4.35,1.53,0,3.28,1.52,6.13,5.22,2.85,3.7,6.79,4.78,9.2,2.83,.22-.22,.44-.22,.66-.44,1.97-1.52,2.63-2.17,6.35-9.13,.88-1.74,3.94-4.57,8.1-3.26,1.09,2.83,1.09,5.22,0,7.18Z" style="fill: #0e0f23;"/>
      <path d="M65.39,55.65c-3.07,4.35-13.79,2.17-24.08-5-10.51-7.18-16.64-16.31-13.58-20.66,3.07-4.35,13.79-2.17,24.08,5,10.29,7.18,16.42,16.31,13.58,20.66Zm-9.63-6.52c-1.53,2.17-6.79,1.09-12.04-2.39-5.04-3.48-8.1-8.05-6.57-10.22,1.53-2.17,6.79-1.09,12.04,2.39,5.04,3.48,8.1,8.05,6.57,10.22Z" style="fill: #fff; fill-rule: evenodd;"/>
      <path d="M25.32,33.91c0-.22-.22-.43-.44-.22-.22,.22-.44,.22-.44,.43,.22,.65,.44,1.09,.44,1.52,0,.22,.22,.43,.44,.22,.22,0,.44-.22,.22-.43,0-.43,0-.87-.22-1.52Z" style="fill: #fff;"/>
      <path d="M26.42,37.39c0-.22-.22-.44-.44-.22q-.22,.22-.22,.43c2.41,5.44,7.44,11.31,14.01,15.66,.22,.22,.44,0,.66,0,.22-.22,0-.43,0-.65-6.79-4.35-11.6-10-14.01-15.22Z" style="fill: #fff;"/>
      <path d="M52.91,58.7c-.22,0-.44,0-.44,.22s0,.43,.22,.43c.66,.22,1.53,.43,2.19,.65,.22,0,.44,0,.44-.22s0-.43-.22-.43c-.66-.22-1.53-.43-2.19-.65Z" style="fill: #fff;"/>
      <path d="M56.85,59.57c-.22,0-.44,.22-.44,.44s.22,.43,.44,.43c1.75,.22,3.72,.43,5.25,.22,.22,0,.44-.22,.44-.44s-.22-.43-.44-.43c-1.75,.22-3.5,0-5.25-.22Z" style="fill: #fff;"/>
    </g>
  </g>
  <path d="M95.61,62.41c-1.72,0-3.26-.29-4.63-.87-1.37-.6-2.45-1.45-3.24-2.53-.78-1.08-1.18-2.35-1.18-3.79h4.49c.1,1.08,.53,1.97,1.29,2.67,.78,.7,1.88,1.05,3.27,1.05s2.57-.34,3.38-1.01c.81-.7,1.21-1.59,1.21-2.67,0-.84-.26-1.53-.77-2.06-.49-.53-1.12-.94-1.88-1.23-.74-.29-1.77-.6-3.09-.94-1.67-.43-3.03-.87-4.08-1.3-1.03-.46-1.91-1.16-2.65-2.1-.74-.94-1.1-2.19-1.1-3.76,0-1.45,.37-2.71,1.1-3.79,.74-1.08,1.77-1.91,3.09-2.49,1.32-.58,2.86-.87,4.6-.87,2.48,0,4.5,.61,6.07,1.84,1.59,1.2,2.48,2.87,2.65,4.99h-4.63c-.07-.92-.51-1.7-1.32-2.35-.81-.65-1.88-.98-3.2-.98-1.2,0-2.18,.3-2.94,.9-.76,.6-1.14,1.47-1.14,2.6,0,.77,.23,1.41,.7,1.91,.49,.48,1.1,.87,1.84,1.16,.74,.29,1.74,.6,3.02,.94,1.69,.46,3.06,.92,4.12,1.37,1.08,.46,1.99,1.17,2.72,2.13,.76,.94,1.14,2.2,1.14,3.79,0,1.28-.36,2.48-1.07,3.61-.69,1.13-1.7,2.05-3.05,2.75-1.32,.67-2.89,1.01-4.71,1.01Z" style="fill: #fff;"/>
  <path d="M127.74,42.25v19.91h-4.19v-2.35c-.66,.82-1.53,1.47-2.61,1.95-1.05,.46-2.18,.69-3.38,.69-1.59,0-3.03-.33-4.3-.98-1.25-.65-2.24-1.61-2.98-2.89-.71-1.28-1.07-2.82-1.07-4.62v-11.71h4.16v11.09c0,1.78,.45,3.16,1.36,4.12,.91,.94,2.15,1.41,3.71,1.41s2.81-.47,3.72-1.41c.93-.96,1.4-2.34,1.4-4.12v-11.09h4.19Z" style="fill: #fff;"/>
  <path d="M140.63,62.48c-1.59,0-3.03-.28-4.3-.83-1.25-.58-2.24-1.35-2.98-2.31-.74-.99-1.13-2.08-1.18-3.29h4.34c.07,.84,.48,1.55,1.21,2.13,.76,.55,1.7,.83,2.83,.83s2.08-.22,2.72-.65c.66-.46,.99-1.04,.99-1.73,0-.75-.37-1.3-1.1-1.66-.71-.36-1.85-.76-3.42-1.19-1.52-.41-2.76-.81-3.72-1.19-.96-.39-1.79-.98-2.5-1.77-.69-.79-1.03-1.84-1.03-3.14,0-1.06,.32-2.02,.96-2.89,.64-.89,1.54-1.59,2.72-2.1,1.2-.51,2.57-.76,4.12-.76,2.31,0,4.16,.58,5.55,1.73,1.42,1.13,2.18,2.69,2.28,4.66h-4.19c-.07-.89-.44-1.6-1.1-2.13-.66-.53-1.56-.79-2.69-.79s-1.95,.2-2.54,.61c-.59,.41-.88,.95-.88,1.63,0,.53,.2,.98,.59,1.34,.39,.36,.87,.65,1.43,.87,.56,.19,1.4,.45,2.5,.76,1.47,.39,2.67,.78,3.6,1.19,.96,.39,1.78,.96,2.46,1.73,.69,.77,1.04,1.79,1.07,3.07,0,1.13-.32,2.14-.96,3.03-.64,.89-1.55,1.59-2.72,2.1-1.15,.51-2.51,.76-4.08,.76Z" style="fill: #fff;"/>
  <path d="M163.4,41.93c1.54,0,2.92,.33,4.12,.98,1.23,.65,2.18,1.61,2.87,2.89,.71,1.28,1.07,2.82,1.07,4.62v11.74h-4.16v-11.13c0-1.78-.45-3.14-1.36-4.08-.91-.96-2.15-1.45-3.71-1.45s-2.82,.48-3.75,1.45c-.91,.94-1.36,2.3-1.36,4.08v11.13h-4.19v-26.73h4.19v9.14c.71-.84,1.61-1.49,2.69-1.95,1.1-.46,2.3-.69,3.6-.69Z" style="fill: #fff;"/>
  <path d="M178.94,39.62c-.76,0-1.4-.25-1.91-.76-.51-.51-.77-1.13-.77-1.88s.26-1.37,.77-1.88c.52-.51,1.15-.76,1.91-.76s1.36,.25,1.87,.76c.52,.51,.77,1.13,.77,1.88s-.26,1.37-.77,1.88c-.51,.51-1.14,.76-1.87,.76Zm2.06,2.64v19.91h-4.19v-19.91h4.19Z" style="fill: #fff;"/>
  <path d="M194.92,62.41c-1.72,0-3.26-.29-4.63-.87-1.37-.6-2.45-1.45-3.24-2.53-.79-1.08-1.18-2.35-1.18-3.79h4.49c.1,1.08,.53,1.97,1.29,2.67,.79,.7,1.88,1.05,3.27,1.05s2.57-.34,3.38-1.01c.81-.7,1.21-1.59,1.21-2.67,0-.84-.26-1.53-.77-2.06-.49-.53-1.12-.94-1.88-1.23-.74-.29-1.77-.6-3.09-.94-1.67-.43-3.03-.87-4.08-1.3-1.03-.46-1.91-1.16-2.65-2.1-.74-.94-1.1-2.19-1.1-3.76,0-1.45,.37-2.71,1.1-3.79,.74-1.08,1.77-1.91,3.09-2.49,1.32-.58,2.86-.87,4.6-.87,2.48,0,4.5,.61,6.07,1.84,1.59,1.2,2.48,2.87,2.65,4.99h-4.63c-.07-.92-.51-1.7-1.32-2.35-.81-.65-1.88-.98-3.2-.98-1.2,0-2.18,.3-2.94,.9-.76,.6-1.14,1.47-1.14,2.6,0,.77,.23,1.41,.7,1.91,.49,.48,1.1,.87,1.84,1.16,.74,.29,1.74,.6,3.02,.94,1.69,.46,3.07,.92,4.12,1.37,1.08,.46,1.99,1.17,2.72,2.13,.76,.94,1.14,2.2,1.14,3.79,0,1.28-.36,2.48-1.07,3.61-.69,1.13-1.7,2.05-3.05,2.75-1.32,.67-2.89,1.01-4.71,1.01Z" style="fill: #fff;"/>
  <path d="M235.91,42.25l-6.29,19.91h-4.41l-4.08-14.7-4.08,14.7h-4.41l-6.33-19.91h4.27l4.23,16,4.3-16h4.38l4.12,15.93,4.19-15.93h4.12Z" style="fill: #fff;"/>
  <path d="M237.65,52.12c0-2,.42-3.77,1.25-5.31,.86-1.54,2.01-2.73,3.46-3.58,1.47-.87,3.09-1.3,4.86-1.3,1.59,0,2.98,.31,4.16,.94,1.2,.6,2.16,1.36,2.87,2.28v-2.89h4.23v19.91h-4.23v-2.96c-.71,.94-1.68,1.72-2.9,2.35-1.23,.63-2.62,.94-4.19,.94-1.74,0-3.34-.43-4.78-1.3-1.45-.89-2.6-2.12-3.46-3.68-.83-1.59-1.25-3.38-1.25-5.38Zm16.59,.07c0-1.37-.29-2.57-.88-3.58-.56-1.01-1.31-1.78-2.24-2.31-.93-.53-1.94-.79-3.02-.79s-2.08,.26-3.02,.79c-.93,.51-1.69,1.26-2.28,2.28-.56,.99-.85,2.17-.85,3.54s.28,2.58,.85,3.61c.59,1.04,1.35,1.83,2.28,2.38,.96,.53,1.96,.79,3.02,.79s2.08-.26,3.02-.79c.93-.53,1.68-1.3,2.24-2.31,.59-1.04,.88-2.24,.88-3.61Z" style="fill: #fff;"/>
  <path d="M268.16,45.18c.71-.92,1.68-1.69,2.9-2.31,1.23-.63,2.61-.94,4.16-.94,1.77,0,3.37,.43,4.82,1.3,1.47,.84,2.62,2.04,3.46,3.58,.83,1.54,1.25,3.31,1.25,5.31s-.42,3.79-1.25,5.38c-.83,1.57-1.99,2.79-3.46,3.68-1.45,.87-3.05,1.3-4.82,1.3-1.54,0-2.92-.3-4.12-.9-1.2-.63-2.18-1.4-2.94-2.31v12.36h-4.19v-29.37h4.19v2.93Zm12.32,6.94c0-1.37-.29-2.55-.88-3.54-.56-1.01-1.32-1.77-2.28-2.28-.93-.53-1.94-.79-3.02-.79s-2.06,.26-3.02,.79c-.93,.53-1.69,1.3-2.28,2.31-.56,1.01-.85,2.2-.85,3.58s.28,2.58,.85,3.61c.59,1.01,1.35,1.78,2.28,2.31,.96,.53,1.96,.79,3.02,.79s2.08-.26,3.02-.79c.96-.55,1.72-1.35,2.28-2.38,.59-1.04,.88-2.24,.88-3.61Z" style="fill: #fff;"/>
</svg>