<svg id="レイヤー_1" data-name="レイヤー 1" xmlns="http://www.w3.org/2000/svg" width="300" height="100" viewBox="0 0 300 100">
  <g id="binance_19" data-name="binance 19">
    <g id="UNICEF_Logo" data-name="UNICEF Logo">
      <path id="パス_57656" data-name="パス 57656" d="M226.76,24.49a20.15,20.15,0,1,0,20.15,20.15h0a20.13,20.13,0,0,0-20.14-20.15h0m15.6,8.93c-1,.65-2.11,1.3-3.25,1.95a18.43,18.43,0,0,0-2.44-3.73c.79-.51,1.55-1.05,2.28-1.63a9.94,9.94,0,0,1,3.41,3.41m-8.45-6.66a18.36,18.36,0,0,1,4.55,2.6A11.83,11.83,0,0,1,236.18,31a27.9,27.9,0,0,0-3.25-3.09,7,7,0,0,1,1-1.14m1.62,4.55a30.94,30.94,0,0,1-3.41,1.46,19.75,19.75,0,0,0-1.63-3.25,6.57,6.57,0,0,0,1.79-1.14,18.11,18.11,0,0,1,3.25,2.93m-2.44-4.88a4.5,4.5,0,0,0-.81,1,23,23,0,0,0-3.4-1.79,12.45,12.45,0,0,1,4.22.81m-1.45,1.46a6.32,6.32,0,0,1-1.46.81c-.65-1-1.3-1.78-1.95-2.77a18.56,18.56,0,0,1,3.41,1.95M227.1,26.1A13.24,13.24,0,0,1,229.2,29a8.29,8.29,0,0,1-2.11.32Zm0,4.06a7.23,7.23,0,0,0,2.6-.49,20.57,20.57,0,0,1,1.63,3.25,32,32,0,0,1-4.23.65Zm-.81-4.06v3.25a10.78,10.78,0,0,1-2.11-.33,33.85,33.85,0,0,0,2.11-2.92m-2.77,2.61a4.37,4.37,0,0,1-1.46-.81,34.76,34.76,0,0,1,3.42-1.79,9.72,9.72,0,0,0-2,2.6m1.14-3.25a32.65,32.65,0,0,0-3.42,1.79,4.18,4.18,0,0,1-.81-1,32.05,32.05,0,0,1,4.22-.81m13.82,34.45c-2.6-1.46-2.77-3.58-2.6-4.23.16-.81.65-.48,1-.48a7.42,7.42,0,0,0,5.85-2.93A8.72,8.72,0,0,0,242,40.09c-4.23-4.06-8.77-3.41-11.7.33a4.51,4.51,0,0,1-3.25,1.3c-2,0-.65,1.46-.65,1.78A.5.5,0,0,1,226,44c-.65-.16-.32.81-.32,1s-.33.48-.33.48c-.81,0-.65.65-.48,1a.66.66,0,0,1-.33.65c-.32.16-.48.81-.48,1.3,0,.81.81,1.46,2.11,2.44a3.08,3.08,0,0,1,1.46,2.6,11.73,11.73,0,0,0,.32,2.43c.33.81.33,2.44-1.46,2.44a26.47,26.47,0,0,0-6.5,2,7.5,7.5,0,0,1-4.22.32,16,16,0,0,1-1.95-1.62,2.7,2.7,0,0,1,.65-2.44,2.93,2.93,0,0,0,2.43.65,29.09,29.09,0,0,0,4.06-.65c.49-.16.65-.16.82,0a2.32,2.32,0,0,0,3.15-.9,2.4,2.4,0,0,0,.26-.72c.65-2.28-.81-1.63-1.14-1.46-.16.16-.49,0-.32-.16.32-.49-.17-.49-.33-.49a3,3,0,0,0-1.62.81,1.26,1.26,0,0,1-.65.17c-.82-.49-3.25.16-4.07-1.14A64.74,64.74,0,0,0,216,46a.82.82,0,0,1,.16-.82c.65-1,2.28,0,3.25,0a1.73,1.73,0,0,0,1.63-.81c.32-.32.48-.16.65-.32s0-.33,0-.49.16,0,.32-.16,0-.49,0-.65c.33-.49,1-.16.65-1.14a1.79,1.79,0,0,1,.49-1.62c.48-.65,2.6-3.58-1-6.67-3.41-2.92-7-2.6-9.26-.16s-1.14,6-1,7a2,2,0,0,1-1.3,2.11,21.07,21.07,0,0,0-3.09,2.11,18.9,18.9,0,0,1,12-17.38c.33.32.65.81,1,1.13-.81.64-2.61,2.1-2.61,2.1a1.23,1.23,0,0,1,.49.16,1.76,1.76,0,0,1,.49.16,23.23,23.23,0,0,1,2.28-1.78A6.67,6.67,0,0,0,223,29.85c-.32.65-1.3,2.27-1.3,2.27a.62.62,0,0,0,.33.17.49.49,0,0,0,.32.16s1-1.79,1.3-2.44a6.64,6.64,0,0,0,2.44.49v3.25a10,10,0,0,1-2.11-.16h-.33l.17.32c.16.16.16.33.32.49h2v6h.81V39a23,23,0,0,0,3.42-.32h0l1.13-1h-.65a30,30,0,0,1-3.41.33h-.49V34.24a14.86,14.86,0,0,0,4.55-.65L232.61,37l.81-.33-1.13-3.41a23.06,23.06,0,0,0,3.57-1.46,18.79,18.79,0,0,1,2.44,3.74,13.5,13.5,0,0,1-1.63.65c.82.16,1.46.33,1.46.33a1.68,1.68,0,0,1,.49-.17,1.66,1.66,0,0,0,.16.49l1.14.49-.17-.33a4.87,4.87,0,0,0-.48-1,18.56,18.56,0,0,0,3.41-2,18.68,18.68,0,0,1,3.09,10.56,18.34,18.34,0,0,1-7.32,15.27" style="fill: #00aeef"/>
      <path id="パス_57657" data-name="パス 57657" d="M204.83,29.85l-.33.32c-1.14,1-3.9,3.74-3.42,6.83v.16l.17.65.32-.33a12.39,12.39,0,0,0,3.42-7l.16-.81Z" style="fill: #00aeef"/>
      <path id="パス_57658" data-name="パス 57658" d="M199.3,35.05l-.16.32a16.51,16.51,0,0,0-.65,2.93,9.4,9.4,0,0,0,1.46,7l.16.32.16.33.32-1.3a24.62,24.62,0,0,0-1-9.11l-.32-.64Z" style="fill: #00aeef"/>
      <path id="パス_57659" data-name="パス 57659" d="M197.35,43.17v.33c-.16,2,0,7,4.06,9.75l.49.32v-.65a24,24,0,0,0-3.9-9.58l-.49-.65Z" style="fill: #00aeef"/>
      <path id="パス_57660" data-name="パス 57660" d="M198,52.11v.33c.65,2.92,3.25,7.47,7.48,8.93l.65.17-.17-.65a26.56,26.56,0,0,0-7.47-8.78l-.49-.32Z" style="fill: #00aeef"/>
      <path id="パス_57661" data-name="パス 57661" d="M206.61,34.23l-.48.17c-3.1,2-4.55,4.22-4.55,7.15v.65l.48-.33a18.84,18.84,0,0,0,4.39-7l.16-.82Z" style="fill: #00aeef"/>
      <path id="パス_57662" data-name="パス 57662" d="M204.66,40.41l-.16.33c-.81.81-3.41,3.57-3.25,7a5.69,5.69,0,0,0,.33,1.63l.16.48.32-.48a17.94,17.94,0,0,0,2.77-8.46v-.64Z" style="fill: #00aeef"/>
      <path id="パス_57663" data-name="パス 57663" d="M204.83,46.42l-.17.33a10.51,10.51,0,0,0-1.95,5.85,7.48,7.48,0,0,0,1.3,3.9l.33.49.16-.49a25.47,25.47,0,0,0,1-7.31,7.67,7.67,0,0,0-.33-2.28l-.16-.65Z" style="fill: #00aeef"/>
      <path id="パス_57664" data-name="パス 57664" d="M206.29,52.76l-.16.33a9.85,9.85,0,0,0-.5,3.73A7.17,7.17,0,0,0,209.21,63l.32.16.17-.49v-.48a23.05,23.05,0,0,0-2.93-9.27l-.32-.48Z" style="fill: #00aeef"/>
      <path id="パス_57665" data-name="パス 57665" d="M201.9,61.21l.16.33c1.63,2.76,4.55,6.5,9.91,5.52h.49l-.32-.32c-1-1.46-7.48-5.2-9.76-5.53l-.64-.16Z" style="fill: #00aeef"/>
      <path id="パス_57666" data-name="パス 57666" d="M209.86,68.36h0l-.81.16.81.33a16.44,16.44,0,0,0,10.24,1,4.92,4.92,0,0,0,2.11-1.45c4.39.48,8.46,4.06,10.89,7l.16.16h.16a3.22,3.22,0,0,0,.82-.65l.16-.16-.16-.16a23,23,0,0,0-6.5-5.36c-3.58-1.63-9.76-2.93-17.88-.81" style="fill: #00aeef"/>
      <path id="パス_57667" data-name="パス 57667" d="M210,59.26v.33c.48,3.25,1.78,7.47,7.31,7h.32l-.16-.32c-.32-1.46-5.36-5.69-7.15-6.83l-.49-.32Z" style="fill: #00aeef"/>
      <path id="パス_57668" data-name="パス 57668" d="M248.38,29.52l.16.81a12.31,12.31,0,0,0,3.41,7l.33.33.16-.65v-.17c.48-3.08-2.28-5.85-3.41-6.82l-.33-.33Z" style="fill: #00aeef"/>
      <path id="パス_57669" data-name="パス 57669" d="M254.07,34.72l-.33.65a28.52,28.52,0,0,0-1,9.1l.32,1.3.16-.16.17-.32a8.62,8.62,0,0,0,1.45-7,12.8,12.8,0,0,0-.65-2.93l-.16-.32Z" style="fill: #00aeef"/>
      <path id="パス_57670" data-name="パス 57670" d="M256.18,42.85l-.49.65c-1.63,2.11-3.9,7.64-3.9,9.59v.65l.49-.33c4.06-2.6,4.22-7.64,4.06-9.75v-.32Z" style="fill: #00aeef"/>
      <path id="パス_57671" data-name="パス 57671" d="M255.53,51.79l-.65.32a26.69,26.69,0,0,0-7.48,8.78l-.16.65.65-.16c4.23-1.3,7-6,7.48-8.94v-.33Z" style="fill: #00aeef"/>
      <path id="パス_57672" data-name="パス 57672" d="M246.92,33.91l.16.81a18,18,0,0,0,4.38,7.15l.49.33v-.65c.16-2.93-1.3-5.2-4.39-7.15l-.32-.16Z" style="fill: #00aeef"/>
      <path id="パス_57673" data-name="パス 57673" d="M248.7,40.25v.65c-.16,2.11,1.63,6.82,2.77,8.45l.33.49.16-.49a6.94,6.94,0,0,0,.32-1.62c.17-3.42-2.43-6.18-3.25-7l-.16-.16Z" style="fill: #00aeef"/>
      <path id="パス_57674" data-name="パス 57674" d="M248.54,46.1l-.16.65a7.3,7.3,0,0,0-.33,2.27,20.87,20.87,0,0,0,1,7.32l.16.48.32-.48a6.55,6.55,0,0,0,1.3-3.9,10.86,10.86,0,0,0-1.95-5.85l-.16-.33Z" style="fill: #00aeef"/>
      <path id="パス_57675" data-name="パス 57675" d="M247.08,52.44l-.33.48a23,23,0,0,0-2.92,9.27v.48l.16.49.32-.16a7.53,7.53,0,0,0,3.58-6.18,15.64,15.64,0,0,0-.49-3.73l-.16-.33Z" style="fill: #00aeef"/>
      <path id="パス_57676" data-name="パス 57676" d="M251.79,60.89l-.65.16c-2.27.32-8.78,4.06-9.75,5.52l-.33.33h.49c5.36,1,8.29-2.77,9.91-5.53l.16-.32Z" style="fill: #00aeef"/>
      <path id="パス_57677" data-name="パス 57677" d="M226,69.17a20.08,20.08,0,0,0-6.5,5.37l-.16.16.16.16c.16.16.65.49.81.65h.16l.17-.16c2.43-2.93,6.5-6.67,10.88-7a6.34,6.34,0,0,0,2.12,1.46,16.49,16.49,0,0,0,10.23-1l.82-.32-.82-.16c-8.28-2.12-14.46-.82-17.87.81" style="fill: #00aeef"/>
      <path id="パス_57678" data-name="パス 57678" d="M243.5,58.94l-.48.32c-1.79,1.14-6.67,5.36-7.15,6.83l-.17.32H236c5.36.49,6.66-3.73,7.31-7V59.1Z" style="fill: #00aeef"/>
      <path id="パス_57679" data-name="パス 57679" d="M106.35,26.44h6.82v6.17h-6.82ZM107,39.76h5.68V70H107Z" style="fill: #00aeef"/>
      <path id="パス_57680" data-name="パス 57680" d="M63.94,39.76h5.68V70H64.1V65.6h-.16A11.63,11.63,0,0,1,53.53,71c-6.33,0-9.91-4.87-9.91-10.89V39.76h5.69V57.64c0,5.2,1.13,9.1,6.66,9.1a7,7,0,0,0,6.66-4.39,20.48,20.48,0,0,0,1.14-7.15V39.76Z" style="fill: #00aeef"/>
      <path id="パス_57681" data-name="パス 57681" d="M81,44.15h0a10.9,10.9,0,0,1,9.27-5.36c2.11,0,11.37.48,11.37,10.23V69.83H95.94v-19c0-5-2.11-7.64-7-7.64a7.89,7.89,0,0,0-5.53,2.28c-.81.81-2.44,2.11-2.44,8.12V70H75.31V39.76H81Z" style="fill: #00aeef"/>
      <path id="パス_57682" data-name="パス 57682" d="M136.57,49.35c-.32-3.74-2.11-6.34-6.17-6.34-5.37,0-7.48,4.71-7.48,11.7s2.11,11.7,7.48,11.7c3.73,0,6-2.44,6.33-6.83h5.69c-.49,6.83-5.53,10.89-12.19,10.89-9.59,0-13.49-6.82-13.49-15.59s4.4-16.09,14-16.09c6.34,0,11.05,4.06,11.37,10.56Z" style="fill: #00aeef"/>
      <path id="パス_57683" data-name="パス 57683" d="M150.87,55.86c-.48,5.2,1.79,10.72,7.48,10.72,4.39,0,6.66-1.79,7.31-6.17h6c-1,6.82-6.18,10.23-13.32,10.23-9.59,0-13.49-6.82-13.49-15.59s4.38-16.1,14-16.1c8.93.16,13.16,5.85,13.16,14.14v2.77ZM166.15,52c.16-5-2.11-8.94-7.64-8.94C153.8,43,151,47.08,151,52Z" style="fill: #00aeef"/>
      <path id="パス_57684" data-name="パス 57684" d="M178.5,69.66v-26h-5.2v-3.9h5.2v-6.5c.16-6.5,5.2-8.29,9.42-8.29a18.09,18.09,0,0,1,4.07.65v4.71c-1,0-2-.16-2.93-.16-3.25,0-5,.81-4.87,4.06v5.53h7v3.9h-7v26Z" style="fill: #00aeef"/>
    </g>
  </g>
</svg>
