<svg id="レイヤー_1" data-name="レイヤー 1" xmlns="http://www.w3.org/2000/svg" width="300" height="100" viewBox="0 0 300 100">
  <path d="M15.41,17.33c6.78,8.31,14.22,18.74,15.42,20.43L31,38c.64.89,1.17,1.56,1.57,2.06h0c.9,1.12,1.16,1.46.63,1.76a2.54,2.54,0,0,1-1.32.33,2.24,2.24,0,0,1-1.47-.63c-.29-.28-2.28-3.19-5-7.43-2.07-3.24-3.8-5.93-3.85-6s-.1-.1,3.64,6.67c2.35,4.24,4,7.38,4,7.58,0,.41-.11.63-.61,1.19-.83.94-1.2,2-1.47,4.17-.3,2.44-1.15,4.17-3.49,7.12a14.36,14.36,0,0,0-1.95,2.74A5.2,5.2,0,0,0,21,60a7.9,7.9,0,0,0,.4,3A11.1,11.1,0,0,0,22.89,66,6.81,6.81,0,0,1,24,68.26c0,.26.05.26,1.15,0a11.94,11.94,0,0,0,6-3,2.81,2.81,0,0,0,.93-2.36,2.31,2.31,0,0,0-.21-1.29,5.81,5.81,0,0,0-2.15-2.11c-1.66-1.14-2.36-2.06-2.56-3.32-.16-1,0-1.77.94-3.71a11.17,11.17,0,0,0,1.34-4.89c.11-1.3.25-1.82.62-2.23a2.31,2.31,0,0,1,1.7-.71,5.67,5.67,0,0,0,3.37-1.39A3,3,0,0,0,36.22,41l0-.73-.4-.47C34.42,38.15,14.45,16,14.36,16S14.82,16.6,15.41,17.33Zm9.42,44a1.29,1.29,0,0,0-.4-1.69c-.51-.34-1.31-.18-1.31.27,0,.14.08.23.25.32s.3.32.08.66-.21.65.05.85A.9.9,0,0,0,24.83,61.34ZM34.6,29.66c-.64-.1-.67-.12-.36-.16a9.72,9.72,0,0,1,2.88.26c2.2.52,4.19,1.87,6.33,4.27l.56.64.81-.13a16.88,16.88,0,0,1,9.8,1.24,12,12,0,0,1,2.22,1.31A3.43,3.43,0,0,1,57,38a5.43,5.43,0,0,1-.33,3.38.88.88,0,0,0-.09,1,.94.94,0,0,0,.84.54c.72,0,1.5-1.18,1.86-2.82l.14-.65.28.32a12.58,12.58,0,0,1,3,5.93l.05.45-.26-.41A5.1,5.1,0,0,0,61,44.1C60,43.41,58.9,43.17,56,43a20.77,20.77,0,0,1-5.61-.85c-2.51-.83-3.78-1.94-6.78-5.9a28.47,28.47,0,0,0-3-3.52A10.55,10.55,0,0,0,34.6,29.66Zm22.83,3.93A7.5,7.5,0,0,1,58,30.92a2.8,2.8,0,0,1,.27-.51,2.43,2.43,0,0,1-.13.46A6.28,6.28,0,0,0,58,33.6c.21,1.39.32,1.59,1.78,3.1.68.7,1.48,1.59,1.77,2l.52.7-.52-.5a23.87,23.87,0,0,0-2.44-2c-.22-.11-.25-.11-.39,0s-.15.31-.17,1.19a6.68,6.68,0,0,1-.66,3.16c-.24.48-.28.38-.06-.17A4.4,4.4,0,0,0,58,39.21c0-2.69-.32-3.34-2.17-4.44a18.86,18.86,0,0,0-1.72-.9,7.82,7.82,0,0,1-.84-.41,16.12,16.12,0,0,1,2.59.76c1.08.42,1.26.47,1.39.42S57.39,34.35,57.43,33.59ZM33.92,31.52a11,11,0,0,0,1.93,6.66,6.11,6.11,0,0,0,3.72,2.6c.76.07,1-.17.65-.67A12.93,12.93,0,0,1,39,37.87c-.09-.29-.3-1.14-.46-1.89-.54-2.55-1.08-3.55-2.31-4.3a7.22,7.22,0,0,0-2-.74l-.3-.06ZM55.85,51.65c-6.08-2.47-8.22-4.62-8.22-8.24a6.27,6.27,0,0,1,0-1,5.08,5.08,0,0,1,.52.39c1.24,1,2.62,1.43,6.44,2a26.15,26.15,0,0,1,4.68,1c3.71,1.24,6,3.77,6.56,7.2a12.22,12.22,0,0,1-.19,3.86,7.71,7.71,0,0,1-1,2.24s-.09-.16-.11-.4a5,5,0,0,0-1.79-3.49C61.56,54.15,59.9,53.3,55.85,51.65Zm-4.56-.27a11,11,0,0,1,.29,1.3,5.3,5.3,0,0,1-4,6.21c-.31.1-1.55.34-2.74.54a16.21,16.21,0,0,0-4.59,1.22,7.39,7.39,0,0,0-1.64,1,1,1,0,0,0,.39-.09,18,18,0,0,1,5.2-.86c.92,0,2-.12,2.32-.17a7.27,7.27,0,0,0,4.6-2,5.19,5.19,0,0,0,1.28-2.07,3.79,3.79,0,0,0,.22-1.66A3.87,3.87,0,0,0,52.4,53a5.09,5.09,0,0,0-1-1.8l-.29-.33Zm3.08,6.3a7.19,7.19,0,0,1-.55-5c0-.17.12-.31.17-.31a1.5,1.5,0,0,1,.42.24c.38.25,1.12.67,3.11,1.77A15.44,15.44,0,0,1,62.38,58,7.81,7.81,0,0,1,64,61.72a13,13,0,0,1-.15,3.68,9.13,9.13,0,0,1-4.44,5.94,6.69,6.69,0,0,1-.64.32A2.26,2.26,0,0,1,59,71a6.17,6.17,0,0,0,.27-4.81,20.79,20.79,0,0,0-2.47-4.46A30.92,30.92,0,0,1,54.37,57.68ZM39.15,63.43a16.44,16.44,0,0,0-7.62,3.71l-.67.58.59.09c3.08.49,3.91.92,6.05,3.14,1.23,1.28,1.64,1.57,2.66,1.83a2.86,2.86,0,0,0,3.48-1.67A3.1,3.1,0,0,0,43.58,69a2.2,2.2,0,0,0-3.29-.7,1.14,1.14,0,0,0,.39,2c.21,0,.2,0,0-.08a.83.83,0,0,1-.57-.83,1.34,1.34,0,0,1,2-1,1.48,1.48,0,0,1,1,1.51A1.88,1.88,0,0,1,41,71.79a3.14,3.14,0,0,1-1.75-.92A2.35,2.35,0,0,1,40,67.23a3.65,3.65,0,0,1,3.57.33c1.26.83,1.8,1.59,2.88,4.09a19.81,19.81,0,0,0,1,2A4.4,4.4,0,0,0,51.23,76a4.49,4.49,0,0,0,2.21-.54,4.84,4.84,0,0,0,1.33-.9,2.2,2.2,0,0,0-.53.16A4.56,4.56,0,0,1,50,74.61a4.17,4.17,0,0,1-1.34-2.44c0-.19-.18-1-.31-1.88a9,9,0,0,0-1.4-4.2,6.74,6.74,0,0,0-3.86-2.5A11.64,11.64,0,0,0,39.15,63.43ZM35.57,46.9a2.76,2.76,0,0,1,1.67-1.84,3.29,3.29,0,0,1,1.88.18,2.41,2.41,0,0,1,1.38,2.22c-.17.91-1.62,1.63-3.29,1.65-.86,0-1.17-.11-1.5-.55A2.64,2.64,0,0,1,35.57,46.9Zm3.33-1.34a.68.68,0,0,1,.29,1,1.61,1.61,0,0,1-1.13.5c-.6,0-1.26-.43-1.26-.83C36.8,45.48,38.06,45.05,38.9,45.56Zm131,2.29c-1.36-4.54.89-8.3,5.69-9.51a32.8,32.8,0,0,1,8.67.22c.39.15.56.72.57,1.9a12.88,12.88,0,0,0,.22,2.51c.19.68.08.82-.64.81s-1.05-.4-1.6-1.55c-.88-1.85-1.94-2.43-4.42-2.44-3.16,0-5.48,2.12-5.1,4.7.24,1.67,1.92,3.32,5.67,5.59,3.58,2.15,5.66,3.93,6.5,5.51,2.22,4.25.32,8.79-4.63,11.08a14.89,14.89,0,0,1-9.8.28l-1.92-.65V63.24c0-2.78.07-3.07.7-3.07s.76.35.94,1.45A5.16,5.16,0,0,0,176.27,66,5.54,5.54,0,0,0,182,61.56a3.4,3.4,0,0,0-.38-3c-.79-1.61-2.13-2.68-6.72-5.32C172.31,51.75,170.52,49.79,169.93,47.85Zm-89.8-7.7c-.62,0-.87-.21-.87-.73,0-.69.25-.73,5.15-.73,4.54,0,5.12.07,5,.59-.07.33-.69.78-1.4,1l-1.28.41L86.64,50q-.11,9.29.31,10.74c.83,2.89,3.36,4.55,6.93,4.55A7.27,7.27,0,0,0,99.64,63c2-1.85,2.28-3.61,2.27-12.77s-.16-9.79-2.1-10c-.89-.09-1.18-.29-1.18-.82s.29-.71,4.38-.71,4.39,0,4.39.73a.64.64,0,0,1-.64.73c-1.7,0-1.73.18-2,10.09-.24,10.29-.46,11.5-2.55,14a11.28,11.28,0,0,1-3.18,2.35c-1.88.92-2.48,1-5.75,1-3,0-4-.15-5.48-.84a9.32,9.32,0,0,1-4.69-4.25c-.74-1.36-.8-2.1-1-11.32C82,40.66,81.9,40.15,80.13,40.15Zm34.19,0c-.83,0-1.08-.17-1.08-.73s.24-.73,3.75-.7l3.74,0,1.79,2.07c1,1.13,4.2,4.68,7.14,7.88s6.31,6.93,7.5,8.29a13.78,13.78,0,0,0,2.48,2.45c.18,0,.27-3.81.21-8.77l-.12-8.77-1-.87a3.65,3.65,0,0,0-1.92-.88c-.66,0-.9-.2-.9-.74,0-.71.19-.73,5-.64,4.11.09,5,.2,5,.64s-.51.63-1.22.78a3.86,3.86,0,0,0-1.64.67c-.3.29-.46,4.16-.53,13.32l-.11,12.91h-1.05c-.92,0-2-1-7.8-7.37-3.71-4.06-8-8.88-9.62-10.71a30.82,30.82,0,0,0-3.15-3.37c-.42,0-.32,16.35.12,17.91.33,1.21.57,1.42,2,1.8,1.16.31,1.63.62,1.63,1.09s-.44.65-5.12.65-5.11,0-5.11-.68c0-.47.34-.75,1.08-.9,2.23-.45,2.38-1.15,2.5-11.94.07-6,0-10.27-.27-11.15C117.23,40.86,116.18,40.15,114.32,40.15Zm38.31,0c-.78,0-1-.17-1-.73s.25-.73,5.48-.73,5.49,0,5.49.73c0,.53-.25.73-.92.73a2.75,2.75,0,0,0-1.66.74c-.72.72-.74,1.08-.64,12.23.1,10.88.15,11.51.82,12a3.14,3.14,0,0,0,1.55.51c.6,0,.85.21.85.73,0,.7-.25.73-5.49.73s-5.48,0-5.48-.68.36-.74,1.45-.91c2.16-.35,2.27-1,2.14-13.64-.11-10.08-.15-10.71-.82-11.2A3.49,3.49,0,0,0,152.63,40.15Zm38.23,0a1,1,0,0,1-1-.73c-.18-.7,0-.73,5.26-.73s5.44,0,5.44.73-.24.73-1.05.73c-2.3,0-2.25.41,1.23,9.94,1.78,4.84,3.5,9.45,3.83,10.23l.6,1.42L208,54.31c3.28-8.74,3.71-10.36,3.15-12a3.77,3.77,0,0,0-3-2.21c-.32,0-.57-.31-.57-.73,0-.7.25-.73,5.67-.73s5.66,0,5.66.73c0,.52-.24.73-.84.73-1.54,0-2.22.81-2,2.4s6.51,19.18,6.78,18.92c.43-.43,7.39-19.32,7.39-20,0-.89-.62-1.27-2-1.27-.64,0-.89-.2-.89-.73,0-.69.25-.73,4.39-.73,3.72,0,4.38.09,4.38.57,0,.31-.45.72-1,.91-1.25.44-1.57.94-3.14,5l-4.8,12.28c-2,5-3.63,9.29-3.73,9.56s-.7.48-1.34.48h-1.16l-2.62-6.82c-1.44-3.76-3.15-8.2-3.79-9.89-1.1-2.88-1.19-3-1.6-2.18-.24.48-2,4.94-3.86,9.9l-3.41,9-1.28-.11L203,67.27l-4.86-12.71c-2.72-7.11-5.22-13.09-5.66-13.56A2.72,2.72,0,0,0,190.86,40.15Zm73.05.15a2.8,2.8,0,0,1-.06-.63.54.54,0,0,1,.06-.28c.08-.09.11-.1.37-.12h0c1-.09,3-.25,4.61-.32l.51,0h0c1.82-.08,5.07-.19,7.31-.08,4.29.22,7.34,2.29,8.38,5.72a10.23,10.23,0,0,1-.93,8.69,8.55,8.55,0,0,1-7.76,3.69c-3.27-.09-4.14-.71-4.84-1.2-.15-.1-.29-.2-.44-.28v4.37c0,3,.06,4.41.29,4.94.31.71,1,1.15,2.38,1.49a2.46,2.46,0,0,1,.78.3.82.82,0,0,1,.16.5.8.8,0,0,1-.1.48.41.41,0,0,1-.37.13l-6.07,0h-3.65s-.39.08-.53-.08a.72.72,0,0,1-.13-.47.89.89,0,0,1,.2-.5,2.88,2.88,0,0,1,.79-.33c1.41-.4,2-.82,2.34-1.61.26-.63.26-1.81.26-11.44,0-9.13,0-10.83-.23-11.32-.31-.72-1.08-.92-2.19-1.19h0l-.69-.18S264,40.44,263.91,40.3Zm17.66,7.45c0,1.5,0,3.84-1.62,5.34s-4.73,1.91-6.86,1.49a4.24,4.24,0,0,1-1.35-.49l0,0-.55-.28,0-5.26c0-3.3,0-5.44.09-5.75.08-1.74,2.64-2,3.89-1.89C280.47,40.89,281.41,45.4,281.57,47.75ZM247.09,38.9l-.66.25-1.43.74-1,2.57c-.57,1.41-1.6,4-2.3,5.77-1.28,3.2-2.12,5.31-3,7.5l-1.74,4.38c-.71,1.76-1.41,3.43-1.56,3.72a.71.71,0,0,0-.08.15c-.4.74-1.08,2-2.28,2.21a2,2,0,0,0-.91.31.6.6,0,0,0-.22.44v.3a.31.31,0,0,0,.16.22.77.77,0,0,0,.33.08l4.4-.05h4.55s.32,0,.44-.06a.51.51,0,0,0,.16-.26v-.32a.89.89,0,0,0-.24-.48,2.9,2.9,0,0,0-.86-.23c-1.82-.24-2.13-1.62-1.91-2.86.11-.61.85-2.86,1.67-5.12l.29-.79,4.76,0c2.62,0,4.88,0,5,0s.5.64,1.35,2.73c1.28,3.18,1.39,3.56,1.1,4.16a.73.73,0,0,0,0,.12,2.64,2.64,0,0,1-2.1,1.8s-.7,0-.87.23a.61.61,0,0,0-.13.45v.32a.59.59,0,0,0,.13.26.37.37,0,0,0,.24,0l4.33,0h6.08s.24,0,.3-.07a.43.43,0,0,0,.08-.2v-.42a.8.8,0,0,0-.14-.35,3.5,3.5,0,0,0-.91-.25,2.8,2.8,0,0,1-1.88-1.61,4.44,4.44,0,0,0-.27-.42,21.46,21.46,0,0,1-1.27-2.77c-.49-1.25-1.58-4.06-2.43-6.25l-2.64-6.78c-.6-1.55-1.74-4.49-2.54-6.53-.13-.34-.24-.64-.35-.91h0c-.53-1.37-.75-1.93-.81-2C247.68,38.65,247.09,38.9,247.09,38.9Zm-.28,8.36c-.2-.47-.53-1.31-.75-1.86-.41-1-.56-1.25-.68-1s-.29.75-.56,1.54c-1.77,5.07-2.57,7.36-2.73,7.79a3.23,3.23,0,0,0-.18.62,24.33,24.33,0,0,0,3.89.13c2.14,0,3.89,0,3.89-.06s-.19-.52-.42-1.08L248,50.2C247.54,49.05,247,47.72,246.81,47.26Z" style="fill: #ff007a;fill-rule: evenodd"/>
</svg>
