<svg id="レイヤー_1" data-name="レイヤー 1" xmlns="http://www.w3.org/2000/svg" width="300" height="100" viewBox="0 0 300 100">
  <g id="binance_15" data-name="binance 15">
    <g id="WalletConnect">
      <g id="グループ_5204" data-name="グループ 5204">
        <g id="グループ_5202" data-name="グループ 5202">
          <path id="パス_2084" data-name="パス 2084" d="M114.44,52l-3.52,12.67h-3.67l-4.9-18.55h4l2.91,13.43h.1l3.47-13.43h3.27l3.47,13.43h.1l2.93-13.43h4l-4.91,18.55h-3.66L114.55,52ZM132,62.15a2.75,2.75,0,0,0,3-2.5V58.59l-2.9.17c-1.4.1-2.2.74-2.2,1.71S130.72,62.15,132,62.15Zm-1.24,2.72a4.26,4.26,0,0,1-4.6-3.89,2.72,2.72,0,0,1,0-.28c0-2.5,1.92-4,5.36-4.17l3.46-.2v-.9c0-1.28-.9-2-2.31-2a2.25,2.25,0,0,0-2.48,1.71h-3.43c.14-2.68,2.41-4.51,6.07-4.51s5.83,1.82,5.83,4.59v9.48H135V62.56H135a4.75,4.75,0,0,1-4.19,2.31Zm10.41-18.76h3.75V64.66h-3.75Zm6.37,0h3.75V64.66h-3.75ZM160,53.36a3,3,0,0,0-3,3h5.84a2.84,2.84,0,0,0-2.74-3H160Zm3,7.08h3.43C166,63.15,163.52,65,160.11,65c-4.24,0-6.78-2.72-6.78-7.12S155.9,50.6,160,50.6s6.54,2.71,6.54,6.9v1.15H157v.23a3.07,3.07,0,0,0,2.81,3.31,2,2,0,0,0,.35,0A2.81,2.81,0,0,0,163,60.44Zm6.48-12.73h3.74v3.17h2.54v2.84h-2.54V60.3c0,1.05.52,1.55,1.62,1.55a9.08,9.08,0,0,0,.91-.05v2.75a8.25,8.25,0,0,1-1.78.16c-3.24,0-4.5-1.08-4.5-3.76V53.72h-1.94V50.89h1.95ZM186.29,65c-5.39,0-8.77-3.61-8.77-9.6s3.4-9.59,8.77-9.59c4.46,0,7.85,2.83,8.15,7h-3.78A4.31,4.31,0,0,0,186.29,49c-2.93,0-4.81,2.46-4.81,6.35s1.87,6.4,4.83,6.4a4.19,4.19,0,0,0,4.37-3.55h3.78C194,62.36,190.84,65,186.29,65Zm16.54,0c-4.17,0-6.82-2.67-6.82-7.18s2.7-7.18,6.82-7.18,6.83,2.7,6.83,7.18-2.66,7.18-6.83,7.18Zm0-2.86c1.84,0,3-1.55,3-4.31s-1.18-4.31-3-4.31-3,1.58-3,4.31,1.17,4.31,3,4.31Zm8.76,2.58V50.89h3.62v2.45h.07a4.34,4.34,0,0,1,4.31-2.71c3.06,0,4.77,1.93,4.77,5.15v8.88h-3.75v-8.1c0-1.79-.85-2.83-2.53-2.83a2.73,2.73,0,0,0-2.76,2.7c0,.1,0,.21,0,.32v7.9Zm15.14,0V50.89h3.63v2.45h.07a4.36,4.36,0,0,1,4.3-2.71c3.06,0,4.77,1.93,4.77,5.15v8.88h-3.75v-8.1c0-1.79-.85-2.83-2.53-2.83a2.72,2.72,0,0,0-2.76,2.7c0,.1,0,.21,0,.32v7.9Zm21.35-11.3a3,3,0,0,0-3,3H251a2.85,2.85,0,0,0-2.74-3ZM251,60.44h3.45C254,63.15,251.59,65,248.18,65c-4.24,0-6.78-2.72-6.78-7.12S244,50.6,248,50.6s6.54,2.71,6.54,6.9v1.15h-9.49v.23a3.06,3.06,0,0,0,2.81,3.31,2,2,0,0,0,.35,0A2.77,2.77,0,0,0,251,60.44ZM269,56h-3.48a2.66,2.66,0,0,0-2.72-2.47c-1.85,0-3,1.56-3,4.22S261,62,262.83,62a2.61,2.61,0,0,0,2.71-2.4H269c-.19,3.25-2.62,5.34-6.24,5.34-4.16,0-6.79-2.7-6.79-7.18s2.63-7.18,6.76-7.18c3.71,0,6.08,2.29,6.24,5.41Zm2.83-8.29h3.75v3.17h2.54v2.84h-2.54V60.3c0,1.05.52,1.55,1.63,1.55.3,0,.6,0,.9-.05v2.75a8.19,8.19,0,0,1-1.78.16c-3.24,0-4.5-1.08-4.5-3.76V53.72H269.9V50.89h1.94Z" style="fill: #3999fa"/>
        </g>
        <g id="グループ_5203" data-name="グループ 5203">
          <path id="パス_2085" data-name="パス 2085" d="M35.83,37.28a28.88,28.88,0,0,1,40.24,0l1.33,1.31a1.36,1.36,0,0,1,0,1.93l0,0L72.84,45a.71.71,0,0,1-1,0L70,43.25a20.15,20.15,0,0,0-28.07,0l-2,1.92a.71.71,0,0,1-1,0l-4.58-4.48a1.35,1.35,0,0,1,0-1.93l0,0Zm49.7,9.26,4.06,4a1.36,1.36,0,0,1,0,1.93l0,0-18.35,18a1.45,1.45,0,0,1-2,0l-13-12.76a.37.37,0,0,0-.5,0l-13,12.76a1.45,1.45,0,0,1-2,0l-18.36-18a1.35,1.35,0,0,1-.05-1.92l.05,0,4.06-4a1.43,1.43,0,0,1,2,0l13,12.76a.38.38,0,0,0,.51,0l13-12.77a1.45,1.45,0,0,1,2,0L70,59.32a.37.37,0,0,0,.5,0l13-12.77a1.43,1.43,0,0,1,2,0Z" style="fill: #3a99fb"/>
        </g>
      </g>
    </g>
  </g>
</svg>
