<svg id="レイヤー_1" data-name="レイヤー 1" xmlns="http://www.w3.org/2000/svg" width="300" height="100" viewBox="0 0 300 100">
  <g>
    <path id="パス_2151" data-name="パス 2151" d="M35,27.24h67.7A7.75,7.75,0,0,1,110.4,35h0V60.84a7.75,7.75,0,0,1-7.74,7.76H78.37l3.33,8.16L67.05,68.6H35a7.76,7.76,0,0,1-7.76-7.75h0V35a7.74,7.74,0,0,1,7.7-7.76Z" style="fill: #9b5c8f;fill-rule: evenodd"/>
    <path id="パス_2152" data-name="パス 2152" d="M31.37,34.28a2.71,2.71,0,0,1,2.14-1.05,2.48,2.48,0,0,1,2.91,2,2.72,2.72,0,0,1,0,.49q1.58,10.67,3.43,18l7.45-14.18a3.23,3.23,0,0,1,2.55-2c1.5-.1,2.41.85,2.79,2.86A63.5,63.5,0,0,0,55.92,52q1.32-13,4.49-18.7a2.59,2.59,0,0,1,2.24-1.5,3,3,0,0,1,2.14.68,2.66,2.66,0,0,1,1.06,1.93A3.06,3.06,0,0,1,65.51,36a41.24,41.24,0,0,0-3.3,12.28,63.22,63.22,0,0,0-1,13,4,4,0,0,1-.41,2.24,2.2,2.2,0,0,1-1.8,1.23,3.42,3.42,0,0,1-2.69-1.26A33.72,33.72,0,0,1,48.85,49Q45.54,55.54,44,58.8c-2,3.84-3.71,5.81-5.14,5.92-.91.06-1.7-.72-2.38-2.35q-2.59-6.67-5.61-25.8A3.06,3.06,0,0,1,31.37,34.28Zm73.11,5.34A7.85,7.85,0,0,0,99,35.68a9.52,9.52,0,0,0-1.84-.21,9.19,9.19,0,0,0-8,5.1,18,18,0,0,0-2.65,9.59,13.21,13.21,0,0,0,1.63,6.74,7.85,7.85,0,0,0,5.44,3.94,9.52,9.52,0,0,0,1.84.21,9.1,9.1,0,0,0,8-5.11,18.21,18.21,0,0,0,2.65-9.62,12.87,12.87,0,0,0-1.63-6.7ZM100.19,49a8.92,8.92,0,0,1-2.58,5,3.26,3.26,0,0,1-2.75,1.09c-.82-.17-1.5-.88-2-2.21a8.59,8.59,0,0,1-.61-3.09,11.55,11.55,0,0,1,.24-2.49,11,11,0,0,1,1.8-4c1.12-1.67,2.31-2.35,3.54-2.11.81.18,1.49.88,2,2.21a8.7,8.7,0,0,1,.62,3.1A15.13,15.13,0,0,1,100.2,49Zm-17-9.42a7.9,7.9,0,0,0-5.44-3.94,9.52,9.52,0,0,0-1.84-.21,9.19,9.19,0,0,0-8,5.1,18,18,0,0,0-2.65,9.59,13.11,13.11,0,0,0,1.63,6.74,7.85,7.85,0,0,0,5.44,3.94,9.52,9.52,0,0,0,1.84.21,9.1,9.1,0,0,0,8-5.11,18.21,18.21,0,0,0,2.65-9.62,12.87,12.87,0,0,0-1.63-6.7ZM78.87,49a8.92,8.92,0,0,1-2.58,5,3.27,3.27,0,0,1-2.75,1.09c-.82-.17-1.5-.88-2-2.21a8.59,8.59,0,0,1-.61-3.09,11.55,11.55,0,0,1,.24-2.49,11,11,0,0,1,1.8-4c1.12-1.67,2.31-2.35,3.54-2.11.81.18,1.49.88,2,2.21a8.68,8.68,0,0,1,.61,3.1A11.8,11.8,0,0,1,78.87,49Z" style="fill: #fff"/>
    <path id="パス_2153" data-name="パス 2153" d="M119,39.32a11.48,11.48,0,0,0-3.4,8.57,12.31,12.31,0,0,0,3.37,9,11.81,11.81,0,0,0,8.8,3.43,12.87,12.87,0,0,0,3.54-.54V54.28a11.55,11.55,0,0,1-3.09.51A5.58,5.58,0,0,1,123.9,53a8.07,8.07,0,0,1,0-9.69,5.09,5.09,0,0,1,4-1.87,12.23,12.23,0,0,1,3.4.51V36.43A14.06,14.06,0,0,0,127.6,36,11.55,11.55,0,0,0,119,39.32ZM142.6,36a9.12,9.12,0,0,0-7.35,3.13,13,13,0,0,0-2.61,8.74,14.41,14.41,0,0,0,2.61,9.28,9.26,9.26,0,0,0,7.62,3.23,9.06,9.06,0,0,0,7.45-3.23,14,14,0,0,0,2.62-9,13.62,13.62,0,0,0-2.66-9A9.62,9.62,0,0,0,142.6,36Zm2.69,17.68a3,3,0,0,1-2.69,1.43,2.72,2.72,0,0,1-2.48-1.43,12.54,12.54,0,0,1-.85-5.75c0-4.45,1.12-6.67,3.4-6.67s3.6,2.25,3.6,6.77a11.89,11.89,0,0,1-1,5.65Zm24.44-17-1.22,5.21c-.31,1.32-.62,2.68-.88,4.08l-.68,3.6q-1-5.4-2.65-12.89h-7.89l-3,23.16h5.92l1.59-16,4,16h4.21l3.88-15.91,1.66,15.91H181l-3.12-23.16Zm28.33,0-1.23,5.21c-.3,1.32-.61,2.68-.88,4.08l-.68,3.6q-1-5.4-2.65-12.89h-7.89l-2.95,23.16h5.92l1.59-16,4.05,16h4.21l3.84-15.91,1.67,15.91h6.19l-3.13-23.16Zm19.25,14h5.54V45.81h-5.54V41.57h6.39V36.64H211.05V59.79h12.68V54.86H217.3Zm24.05-3.67a6.17,6.17,0,0,0,1-3.26,6.1,6.1,0,0,0-2.55-5.17,11.49,11.49,0,0,0-7-1.91h-7.28V59.75h6.26V49.21h.1L237,59.75h6.6l-5-10.44a6.16,6.16,0,0,0,2.79-2.38Zm-9.59-.37V41.05a5.67,5.67,0,0,1,3.19.75,2.62,2.62,0,0,1,.95,2.31c0,1.6-1.4,2.42-4.15,2.45ZM246,39.32a11.52,11.52,0,0,0-3.4,8.57,12.35,12.35,0,0,0,3.37,9,11.82,11.82,0,0,0,8.81,3.43,12.74,12.74,0,0,0,3.53-.54V54.28a11.55,11.55,0,0,1-3.09.51,5.61,5.61,0,0,1-4.32-1.8,8.07,8.07,0,0,1,0-9.69,5.07,5.07,0,0,1,4-1.87,12.17,12.17,0,0,1,3.4.51V36.43a14,14,0,0,0-3.7-.44,11.61,11.61,0,0,0-8.6,3.33Zm20.3,15.47V50.57h5.55V45.78h-5.55V41.53h6.43V36.6H260.09V59.75h12.69V54.82h-6.47Z" style="fill: #171522"/>
  </g>
</svg>
