<svg id="レイヤー_1" data-name="レイヤー 1" xmlns="http://www.w3.org/2000/svg" width="300" height="100" viewBox="0 0 300 100">
  <g id="binance_22" data-name="binance 22">
    <g id="woocommerce_logo.4e432865" data-name="woocommerce logo.4e432865">
      <path id="パス_2151" data-name="パス 2151" d="M34.94,27.24h67.71A7.75,7.75,0,0,1,110.4,35h0V60.84a7.77,7.77,0,0,1-7.75,7.76H78.37l3.33,8.16L67,68.6H35a7.77,7.77,0,0,1-7.76-7.75h0V35a7.73,7.73,0,0,1,7.69-7.76Z" style="fill: #9b5c8f;fill-rule: evenodd"/>
      <path id="パス_2152" data-name="パス 2152" d="M31.37,34.28a2.73,2.73,0,0,1,2.14-1.05,2.5,2.5,0,0,1,2.92,2,2.63,2.63,0,0,1,0,.49q1.59,10.65,3.44,18l7.44-14.18a3.25,3.25,0,0,1,2.55-2c1.5-.1,2.42.85,2.79,2.86A64.3,64.3,0,0,0,55.92,52q1.34-13,4.49-18.7a2.6,2.6,0,0,1,2.25-1.5,3,3,0,0,1,2.14.68,2.65,2.65,0,0,1,1,1.94,2.9,2.9,0,0,1-.34,1.63c-1.32,2.45-2.41,6.56-3.3,12.28a63.12,63.12,0,0,0-1,13,4.08,4.08,0,0,1-.41,2.25,2.2,2.2,0,0,1-1.8,1.22,3.39,3.39,0,0,1-2.68-1.26Q51.62,58.65,48.85,49q-3.32,6.54-4.9,9.8-3,5.76-5.13,5.92c-.92.06-1.7-.72-2.38-2.35q-2.61-6.67-5.61-25.81A3,3,0,0,1,31.37,34.28Zm73.11,5.34A7.83,7.83,0,0,0,99,35.68a8.69,8.69,0,0,0-1.83-.2c-3.27,0-5.92,1.7-8,5.1a18.08,18.08,0,0,0-2.65,9.59,13.28,13.28,0,0,0,1.63,6.73,7.86,7.86,0,0,0,5.45,4,10.15,10.15,0,0,0,1.83.2c3.3,0,6-1.7,8-5.1a18.18,18.18,0,0,0,2.65-9.63A12.76,12.76,0,0,0,104.48,39.62ZM100.2,49a9.06,9.06,0,0,1-2.59,5,3.25,3.25,0,0,1-2.75,1.08c-.82-.17-1.5-.88-2-2.21a8.59,8.59,0,0,1-.61-3.09,11.4,11.4,0,0,1,.24-2.48,11,11,0,0,1,1.8-4.05c1.12-1.67,2.31-2.35,3.54-2.11.81.17,1.5.89,2,2.21a8.68,8.68,0,0,1,.61,3.1A14.12,14.12,0,0,1,100.2,49Zm-17-9.42a7.88,7.88,0,0,0-5.44-3.94,8.69,8.69,0,0,0-1.83-.2c-3.27,0-5.92,1.7-8,5.1a18.08,18.08,0,0,0-2.65,9.59,13.28,13.28,0,0,0,1.63,6.73,7.86,7.86,0,0,0,5.45,4,10.15,10.15,0,0,0,1.83.2c3.3,0,5.95-1.7,8-5.1a18.18,18.18,0,0,0,2.65-9.63A12.76,12.76,0,0,0,83.16,39.62ZM78.88,49a9.06,9.06,0,0,1-2.59,5,3.25,3.25,0,0,1-2.75,1.08c-.82-.17-1.5-.88-2-2.21a8.59,8.59,0,0,1-.61-3.09,11.4,11.4,0,0,1,.24-2.48A11,11,0,0,1,73,43.33c1.12-1.67,2.31-2.35,3.54-2.11.81.17,1.5.89,2,2.21a8.68,8.68,0,0,1,.61,3.1A11.17,11.17,0,0,1,78.88,49Z" style="fill: #fff"/>
      <path id="パス_2153" data-name="パス 2153" d="M119,39.32a11.52,11.52,0,0,0-3.4,8.57,12.35,12.35,0,0,0,3.37,9,11.82,11.82,0,0,0,8.81,3.43,12.87,12.87,0,0,0,3.54-.54V54.28a11.69,11.69,0,0,1-3.1.51A5.58,5.58,0,0,1,123.9,53a8.07,8.07,0,0,1,0-9.69,5.1,5.1,0,0,1,4-1.87,12.28,12.28,0,0,1,3.4.51V36.43a14.11,14.11,0,0,0-3.71-.44A11.57,11.57,0,0,0,119,39.32ZM142.6,36a9.15,9.15,0,0,0-7.34,3.13c-1.77,2.07-2.62,5-2.62,8.74,0,4,.89,7.14,2.62,9.28s4.28,3.23,7.62,3.23a9,9,0,0,0,7.44-3.23c1.74-2.14,2.62-5.17,2.62-9s-.88-6.87-2.65-9A9.64,9.64,0,0,0,142.6,36Zm2.69,17.68a3,3,0,0,1-2.69,1.43,2.72,2.72,0,0,1-2.48-1.43c-.58-1-.85-2.85-.85-5.74,0-4.46,1.12-6.67,3.4-6.67s3.6,2.24,3.6,6.77c0,2.79-.37,4.69-1,5.64Zm24.45-17-1.22,5.2c-.31,1.32-.62,2.68-.89,4.08l-.68,3.6q-1-5.4-2.65-12.89h-7.89l-3,23.16h5.92l1.6-16,4.05,16h4.21l3.88-15.92,1.67,15.92H181l-3.13-23.16h-8.1Zm28.33,0-1.23,5.2c-.3,1.32-.61,2.68-.88,4.08l-.68,3.6q-1-5.4-2.65-12.89h-7.89l-3,23.16h5.92l1.6-16,4,16h4.22l3.84-15.92,1.67,15.92h6.19l-3.13-23.16Zm19.24,14h5.55v-4.8h-5.55V41.56h6.4V36.63H211.06V59.79h12.68V54.86h-6.42Zm24.05-3.68a6.29,6.29,0,0,0-1.57-8.43,11.55,11.55,0,0,0-7-1.9h-7.28V59.75h6.26V49.21h.1L237,59.75h6.6l-5-10.44a6.16,6.16,0,0,0,2.79-2.38Zm-9.59-.37V41.05a5.7,5.7,0,0,1,3.2.75,2.65,2.65,0,0,1,.95,2.31c0,1.6-1.4,2.42-4.15,2.45ZM246,39.32a11.45,11.45,0,0,0-3.4,8.57,12.34,12.34,0,0,0,3.36,9,11.82,11.82,0,0,0,8.81,3.43,12.87,12.87,0,0,0,3.54-.54V54.28a11.69,11.69,0,0,1-3.1.51,5.58,5.58,0,0,1-4.32-1.8,8.09,8.09,0,0,1,0-9.69,5.1,5.1,0,0,1,4.05-1.87,12.28,12.28,0,0,1,3.4.51V36.43a14.06,14.06,0,0,0-3.71-.44,11.63,11.63,0,0,0-8.6,3.33Zm20.3,15.47V50.57h5.54V45.78h-5.54V41.53h6.42V36.59H260.09V59.75h12.69V54.82h-6.46Z" style="fill: #fff"/>
    </g>
  </g>
</svg>
